<svg id="Layer_2" data-name="Layer 2" xmlns="http://www.w3.org/2000/svg" viewBox="0 0 583.8 271.66"><defs><style>.cls-1,.cls-5{fill:#fff;}.cls-2{fill:#f02f30;}.cls-3{fill:#58595b;}.cls-4{fill:none;stroke:#58595b;}.cls-4,.cls-5{stroke-miterlimit:10;}.cls-5{stroke:#f02f30;}</style></defs><polyline class="cls-1" points="577.04 3.53 576.89 3.53 577.04 3.67 577.04 3.53"/><path class="cls-2" d="M601.6,450.38H17.8V193.51H601.6V450.38m-6.76-7.52V201H25.24V442.86h569.6" transform="translate(-17.8 -193.51)"/><polyline class="cls-2" points="38.74 213.13 38.74 219.18 40.04 219.18 40.04 213.13"/><polyline class="cls-2" points="41.33 213.13 41.33 219.18 42.63 219.18 42.63 213.13"/><rect class="cls-2" x="44.76" y="212.26" width="2.45" height="3.03"/><polyline class="cls-2" points="194.71 213.13 194.71 219.18 196 219.18 196 213.13"/><polyline class="cls-2" points="197.3 213.13 197.3 219.18 198.6 219.18 198.6 213.13"/><rect class="cls-2" x="200.72" y="212.26" width="2.45" height="3.03"/><polyline class="cls-2" points="144.48 213.13 144.48 219.18 145.78 219.18 145.78 213.13"/><rect class="cls-2" x="146.88" y="212.98" width="1.94" height="2.4"/><rect class="cls-2" x="146.88" y="216.91" width="1.94" height="2.4"/><polyline class="cls-2" points="258.49 213.13 258.49 219.18 259.79 219.18 259.79 213.13"/><polyline class="cls-2" points="261.09 213.13 261.09 219.18 262.39 219.18 262.39 213.13"/><rect class="cls-2" x="264.51" y="212.26" width="2.45" height="3.03"/><polyline class="cls-2" points="321.23 213.13 321.23 219.18 322.52 219.18 322.52 213.13"/><polyline class="cls-2" points="323.82 213.13 323.82 219.18 325.12 219.18 325.12 213.13"/><rect class="cls-2" x="327.24" y="212.26" width="2.45" height="3.03"/><polygon class="cls-3" points="57.28 222.64 49.96 222.64 49.96 221.2 52.96 221.2 52.96 212.7 50.17 214.21 49.6 212.9 53.3 210.94 54.68 210.94 54.68 221.2 57.28 221.2 57.28 222.64"/><polygon class="cls-3" points="226.81 222.64 219.49 222.64 219.49 221.2 222.49 221.2 222.49 212.7 219.7 214.21 219.13 212.9 222.83 210.94 224.21 210.94 224.21 221.2 226.81 221.2 226.81 222.64"/><polygon class="cls-3" points="299.34 222.64 292.03 222.64 292.03 221.2 295.02 221.2 295.02 212.7 292.23 214.21 291.66 212.9 295.37 210.94 296.74 210.94 296.74 221.2 299.34 221.2 299.34 222.64"/><polygon class="cls-3" points="308.03 222.64 300.71 222.64 300.71 221.2 303.71 221.2 303.71 212.7 300.92 214.21 300.35 212.9 304.06 210.94 305.43 210.94 305.43 221.2 308.03 221.2 308.03 222.64"/><polygon class="cls-3" points="78.16 222.64 70.84 222.64 70.84 221.2 73.84 221.2 73.84 212.7 71.05 214.21 70.48 212.9 74.19 210.94 75.56 210.94 75.56 221.2 78.16 221.2 78.16 222.64"/><path class="cls-3" d="M85.34,416.15H77.67v-1.39l3-3c.49-.49.89-.91,1.2-1.27a7.22,7.22,0,0,0,.73-1,3.1,3.1,0,0,0,.34-.83,3.89,3.89,0,0,0,.09-.85,3.12,3.12,0,0,0-.11-.82,2.11,2.11,0,0,0-.36-.68,1.71,1.71,0,0,0-.62-.46,2.36,2.36,0,0,0-.92-.17,2.81,2.81,0,0,0-1.35.33,4.69,4.69,0,0,0-1.11.85l-.86-1a5.36,5.36,0,0,1,1.52-1.11,4.53,4.53,0,0,1,2-.42,4.27,4.27,0,0,1,1.42.23,3.16,3.16,0,0,1,1.1.67,3.08,3.08,0,0,1,.71,1.07,3.74,3.74,0,0,1,.26,1.42,4.08,4.08,0,0,1-.18,1.24,4.91,4.91,0,0,1-.54,1.14,9.37,9.37,0,0,1-.91,1.17c-.36.4-.8.84-1.3,1.32l-2.11,2.06h5.66Z" transform="translate(-17.8 -193.51)"/><path class="cls-3" d="M254.91,410.33a10.18,10.18,0,0,1-.27,2.44,5.81,5.81,0,0,1-.81,1.89,3.75,3.75,0,0,1-1.35,1.22,4.34,4.34,0,0,1-3.59.08,3.39,3.39,0,0,1-1.31-1.08,5.52,5.52,0,0,1-.84-1.86,11.13,11.13,0,0,1-.29-2.69,10.3,10.3,0,0,1,.27-2.44,5.81,5.81,0,0,1,.81-1.89,3.84,3.84,0,0,1,1.35-1.22,3.93,3.93,0,0,1,1.89-.43,4.1,4.1,0,0,1,1.7.35,3.41,3.41,0,0,1,1.31,1.09,5.52,5.52,0,0,1,.84,1.86A11.1,11.1,0,0,1,254.91,410.33Zm-6.89-.05v.55a4.63,4.63,0,0,0,0,.54l4.93-3.65a4,4,0,0,0-.34-.82,2.71,2.71,0,0,0-.49-.65,2.13,2.13,0,0,0-.65-.42,2.18,2.18,0,0,0-.82-.15,2.06,2.06,0,0,0-1.1.29,2.46,2.46,0,0,0-.84.88,5,5,0,0,0-.54,1.44A9.79,9.79,0,0,0,248,410.28Zm5.32.11c0-.2,0-.4,0-.6s0-.4,0-.59l-4.93,3.66a5.14,5.14,0,0,0,.34.86,2.44,2.44,0,0,0,.5.67,2,2,0,0,0,.66.44,2.17,2.17,0,0,0,.84.15,2.08,2.08,0,0,0,1.1-.29,2.51,2.51,0,0,0,.84-.87,5,5,0,0,0,.54-1.44A9.79,9.79,0,0,0,253.34,410.39Z" transform="translate(-17.8 -193.51)"/><path class="cls-3" d="M263.63,412.61a3.27,3.27,0,0,1-1.25,2.62,4.45,4.45,0,0,1-1.57.79,7.29,7.29,0,0,1-2.2.29c-.46,0-.88,0-1.24,0s-.72-.07-1-.12v-1.39a10.36,10.36,0,0,0,1.17.15q.62.06,1.26.06a5.86,5.86,0,0,0,1.49-.16,2.69,2.69,0,0,0,1-.45,1.76,1.76,0,0,0,.57-.71,2.4,2.4,0,0,0,.18-.95,1.49,1.49,0,0,0-.22-.83,1.72,1.72,0,0,0-.6-.6,3,3,0,0,0-.92-.36,5.48,5.48,0,0,0-1.18-.12h-1.33v-1.28h1.34a3.23,3.23,0,0,0,1-.13,2.1,2.1,0,0,0,.74-.4,1.59,1.59,0,0,0,.47-.64,2.13,2.13,0,0,0,.17-.86,1.6,1.6,0,0,0-.57-1.36,2.81,2.81,0,0,0-1.68-.43,6.44,6.44,0,0,0-1.21.12,10.15,10.15,0,0,0-1.33.35V404.8c.2-.07.41-.13.64-.19l.69-.14c.23,0,.45-.07.68-.09l.65,0a6.11,6.11,0,0,1,1.63.2,3.2,3.2,0,0,1,1.17.57,2.43,2.43,0,0,1,.72.91,2.92,2.92,0,0,1,.24,1.2,2.71,2.71,0,0,1-.51,1.68,3.62,3.62,0,0,1-1.41,1.08,3,3,0,0,1,.9.28,3.11,3.11,0,0,1,.79.55,2.85,2.85,0,0,1,.57.79A2.22,2.22,0,0,1,263.63,412.61Z" transform="translate(-17.8 -193.51)"/><path class="cls-3" d="M272.75,412.61a3.27,3.27,0,0,1-1.25,2.62,4.4,4.4,0,0,1-1.56.79,7.33,7.33,0,0,1-2.2.29c-.47,0-.88,0-1.25,0s-.71-.07-1-.12v-1.39a9.9,9.9,0,0,0,1.16.15q.61.06,1.26.06a5.86,5.86,0,0,0,1.49-.16,2.69,2.69,0,0,0,1-.45,1.76,1.76,0,0,0,.57-.71,2.4,2.4,0,0,0,.18-.95,1.57,1.57,0,0,0-.21-.83,1.91,1.91,0,0,0-.6-.6,3,3,0,0,0-.93-.36,5.42,5.42,0,0,0-1.18-.12h-1.33v-1.28h1.35a3.16,3.16,0,0,0,.95-.13,2.1,2.1,0,0,0,.74-.4,1.59,1.59,0,0,0,.47-.64,2.13,2.13,0,0,0,.17-.86,1.6,1.6,0,0,0-.57-1.36,2.81,2.81,0,0,0-1.68-.43,6.44,6.44,0,0,0-1.21.12,10.15,10.15,0,0,0-1.33.35V404.8c.2-.07.41-.13.64-.19l.69-.14c.23,0,.45-.07.68-.09l.65,0a6.11,6.11,0,0,1,1.63.2,3.33,3.33,0,0,1,1.18.57,2.5,2.5,0,0,1,.71.91,2.92,2.92,0,0,1,.24,1.2,2.71,2.71,0,0,1-.51,1.68,3.54,3.54,0,0,1-1.41,1.08,2.94,2.94,0,0,1,.9.28,3.11,3.11,0,0,1,.79.55,2.5,2.5,0,0,1,.57.79A2.22,2.22,0,0,1,272.75,412.61Z" transform="translate(-17.8 -193.51)"/><path class="cls-3" d="M139.88,412.61a3.27,3.27,0,0,1-1.25,2.62,4.4,4.4,0,0,1-1.56.79,7.33,7.33,0,0,1-2.2.29c-.47,0-.88,0-1.25,0s-.71-.07-1-.12v-1.39a9.9,9.9,0,0,0,1.16.15q.62.06,1.26.06a5.86,5.86,0,0,0,1.49-.16,2.69,2.69,0,0,0,1-.45,1.76,1.76,0,0,0,.57-.71,2.4,2.4,0,0,0,.18-.95,1.57,1.57,0,0,0-.21-.83,1.91,1.91,0,0,0-.6-.6,3,3,0,0,0-.93-.36,5.42,5.42,0,0,0-1.18-.12H134v-1.28h1.35a3.12,3.12,0,0,0,.95-.13,2.1,2.1,0,0,0,.74-.4,1.59,1.59,0,0,0,.47-.64,2.13,2.13,0,0,0,.17-.86,1.6,1.6,0,0,0-.57-1.36,2.8,2.8,0,0,0-1.67-.43,6.46,6.46,0,0,0-1.22.12,10.15,10.15,0,0,0-1.33.35V404.8c.2-.07.41-.13.64-.19l.69-.14.68-.09.65,0a6.11,6.11,0,0,1,1.63.2,3.33,3.33,0,0,1,1.18.57,2.5,2.5,0,0,1,.71.91,2.92,2.92,0,0,1,.24,1.2,2.71,2.71,0,0,1-.51,1.68A3.54,3.54,0,0,1,137.4,410a2.94,2.94,0,0,1,.9.28,3.11,3.11,0,0,1,.79.55,2.5,2.5,0,0,1,.57.79A2.22,2.22,0,0,1,139.88,412.61Z" transform="translate(-17.8 -193.51)"/><path class="cls-2" d="M179.29,413.58h-2v2.57h-1.59v-2.57h-5.6v-1.37l5-7.7h2.23v7.7h2ZM175.71,406l-4.05,6.2h4.05Z" transform="translate(-17.8 -193.51)"/><path class="cls-2" d="M188.9,412.43a3.31,3.31,0,0,1-.37,1.57,3.81,3.81,0,0,1-1,1.23,4.94,4.94,0,0,1-1.55.8,6.23,6.23,0,0,1-1.92.28h-.56l-.59,0-.58-.05a3.61,3.61,0,0,1-.5-.06v-1.41a6.53,6.53,0,0,0,1.1.17c.41,0,.83.06,1.25.06a4.63,4.63,0,0,0,1.29-.17,3,3,0,0,0,1-.49,2.14,2.14,0,0,0,.61-.76,2.39,2.39,0,0,0,.22-1,1.76,1.76,0,0,0-.78-1.58,4.21,4.21,0,0,0-2.24-.49H182v-5.95h6.27v1.35h-4.81v3.27h1a8.75,8.75,0,0,1,1.63.15,4.17,4.17,0,0,1,1.41.53,2.87,2.87,0,0,1,1,1A3.11,3.11,0,0,1,188.9,412.43Z" transform="translate(-17.8 -193.51)"/><path class="cls-3" d="M148.86,412.43a3.31,3.31,0,0,1-.38,1.57,3.78,3.78,0,0,1-1,1.23,5.05,5.05,0,0,1-1.55.8,6.28,6.28,0,0,1-1.92.28h-.56l-.59,0-.58-.05a3.61,3.61,0,0,1-.5-.06v-1.41a6.53,6.53,0,0,0,1.1.17c.41,0,.83.06,1.25.06a4.56,4.56,0,0,0,1.28-.17,3,3,0,0,0,1-.49,2.06,2.06,0,0,0,.62-.76,2.38,2.38,0,0,0,.21-1,1.74,1.74,0,0,0-.78-1.58,4.18,4.18,0,0,0-2.24-.49H142v-5.95h6.27v1.35h-4.81v3.27h1a8.75,8.75,0,0,1,1.63.15,4.17,4.17,0,0,1,1.41.53,3,3,0,0,1,1,1A3.11,3.11,0,0,1,148.86,412.43Z" transform="translate(-17.8 -193.51)"/><path class="cls-2" d="M199.82,412.46a4,4,0,0,1-.28,1.51,3.57,3.57,0,0,1-.83,1.22,3.9,3.9,0,0,1-1.29.82,4.44,4.44,0,0,1-1.67.3,4.3,4.3,0,0,1-1.7-.31,3,3,0,0,1-1.24-.94,4.37,4.37,0,0,1-.75-1.61,8.62,8.62,0,0,1-.26-2.3,13.68,13.68,0,0,1,.11-1.72,7.77,7.77,0,0,1,.39-1.58,5.26,5.26,0,0,1,.71-1.35,4.31,4.31,0,0,1,1.11-1.06,5.58,5.58,0,0,1,1.56-.69,8.17,8.17,0,0,1,2.09-.24h1.15v1.35h-1.25a6,6,0,0,0-1.81.25,3.52,3.52,0,0,0-1.28.71,3,3,0,0,0-.8,1.09,4.61,4.61,0,0,0-.34,1.44l0,.36a5.28,5.28,0,0,1,1.3-.53,6.18,6.18,0,0,1,1.59-.2,4.24,4.24,0,0,1,1.54.26,2.89,2.89,0,0,1,1.77,1.82A4.15,4.15,0,0,1,199.82,412.46Zm-1.62.1a3.19,3.19,0,0,0-.13-1,1.83,1.83,0,0,0-.4-.74,2,2,0,0,0-.7-.46,2.78,2.78,0,0,0-1-.16,4,4,0,0,0-.69.06,5.2,5.2,0,0,0-.68.17c-.22.08-.43.16-.64.26a4.1,4.1,0,0,0-.55.3,10.13,10.13,0,0,0,.16,1.92,3.51,3.51,0,0,0,.48,1.23,1.76,1.76,0,0,0,.78.66,2.72,2.72,0,0,0,1.07.2,2.52,2.52,0,0,0,.93-.17,2.11,2.11,0,0,0,.73-.48,2.56,2.56,0,0,0,.48-.78A2.89,2.89,0,0,0,198.2,412.56Z" transform="translate(-17.8 -193.51)"/><polygon class="cls-2" points="192.31 212.44 187.43 222.64 185.65 222.64 190.72 212.44 184.43 212.44 184.43 211 192.31 211 192.31 212.44"/><polygon class="cls-3" points="290.12 212.44 285.24 222.64 283.47 222.64 288.54 212.44 282.25 212.44 282.25 211 290.12 211 290.12 212.44"/><path class="cls-3" d="M158.35,413.23a2.78,2.78,0,0,1-.3,1.31,2.83,2.83,0,0,1-.85,1,4.09,4.09,0,0,1-1.28.6,6.34,6.34,0,0,1-1.61.2,6.13,6.13,0,0,1-1.68-.21,3.52,3.52,0,0,1-1.21-.6,2.48,2.48,0,0,1-.74-.91,2.6,2.6,0,0,1-.25-1.16,2.92,2.92,0,0,1,.6-1.84,5.18,5.18,0,0,1,1.84-1.41,4.57,4.57,0,0,1-1.66-1.28,2.63,2.63,0,0,1-.53-1.63,2.77,2.77,0,0,1,.23-1.09,2.72,2.72,0,0,1,.7-.93,3.47,3.47,0,0,1,1.17-.66,5.15,5.15,0,0,1,1.66-.24,5.75,5.75,0,0,1,1.58.19,3.27,3.27,0,0,1,1.14.55,2.22,2.22,0,0,1,.7.86,2.78,2.78,0,0,1,.23,1.13,2.72,2.72,0,0,1-.56,1.73,4.9,4.9,0,0,1-1.61,1.25,7.59,7.59,0,0,1,1,.57,4.3,4.3,0,0,1,.77.69,3.14,3.14,0,0,1,.52.86A2.89,2.89,0,0,1,158.35,413.23Zm-1.68.12a2.06,2.06,0,0,0-.11-.65,1.85,1.85,0,0,0-.38-.61,4.45,4.45,0,0,0-.74-.61,8.38,8.38,0,0,0-1.18-.62,9,9,0,0,0-1,.58,3.65,3.65,0,0,0-.67.59,1.89,1.89,0,0,0-.36.62,2.15,2.15,0,0,0-.11.68,1.41,1.41,0,0,0,.18.71,1.57,1.57,0,0,0,.48.52,2.16,2.16,0,0,0,.72.32,3.73,3.73,0,0,0,.91.1,4.26,4.26,0,0,0,.89-.09,2.36,2.36,0,0,0,.72-.3,1.49,1.49,0,0,0,.49-.51A1.41,1.41,0,0,0,156.67,413.35Zm-.16-6.14A1.35,1.35,0,0,0,156,406a2.68,2.68,0,0,0-1.56-.39,2.77,2.77,0,0,0-1.56.38,1.31,1.31,0,0,0-.56,1.15,1.5,1.5,0,0,0,.14.64,1.75,1.75,0,0,0,.41.56,4.08,4.08,0,0,0,.7.5,8.38,8.38,0,0,0,1,.51,5,5,0,0,0,1.5-1A1.7,1.7,0,0,0,156.51,407.21Z" transform="translate(-17.8 -193.51)"/><path class="cls-3" d="M335.71,413.23a2.78,2.78,0,0,1-.3,1.31,2.7,2.7,0,0,1-.84,1,4.15,4.15,0,0,1-1.29.6,6.26,6.26,0,0,1-1.6.2,6,6,0,0,1-1.68-.21,3.57,3.57,0,0,1-1.22-.6,2.59,2.59,0,0,1-.74-.91,2.74,2.74,0,0,1-.25-1.16,2.92,2.92,0,0,1,.6-1.84,5.23,5.23,0,0,1,1.85-1.41,4.62,4.62,0,0,1-1.67-1.28,2.69,2.69,0,0,1-.53-1.63,2.62,2.62,0,0,1,.24-1.09,2.49,2.49,0,0,1,.7-.93,3.47,3.47,0,0,1,1.17-.66,5.12,5.12,0,0,1,1.65-.24,5.75,5.75,0,0,1,1.58.19,3.33,3.33,0,0,1,1.15.55,2.2,2.2,0,0,1,.69.86,2.63,2.63,0,0,1,.24,1.13,2.67,2.67,0,0,1-.57,1.73,4.79,4.79,0,0,1-1.61,1.25,6.4,6.4,0,0,1,1,.57,4.37,4.37,0,0,1,.78.69,2.84,2.84,0,0,1,.69,1.91Zm-1.68.12a2.06,2.06,0,0,0-.11-.65,1.85,1.85,0,0,0-.38-.61,4.07,4.07,0,0,0-.74-.61,8.8,8.8,0,0,0-1.17-.62,8.42,8.42,0,0,0-1,.58,3.92,3.92,0,0,0-.66.59,1.89,1.89,0,0,0-.36.62,2.15,2.15,0,0,0-.11.68,1.52,1.52,0,0,0,.17.71,1.82,1.82,0,0,0,.48.52,2.16,2.16,0,0,0,.72.32,3.73,3.73,0,0,0,.91.1,4.26,4.26,0,0,0,.89-.09,2.54,2.54,0,0,0,.73-.3,1.56,1.56,0,0,0,.48-.51A1.41,1.41,0,0,0,334,413.35Zm-.16-6.14a1.35,1.35,0,0,0-.56-1.18,2.68,2.68,0,0,0-1.56-.39,2.73,2.73,0,0,0-1.55.38,1.29,1.29,0,0,0-.56,1.15,1.5,1.5,0,0,0,.13.64,1.79,1.79,0,0,0,.42.56,3.72,3.72,0,0,0,.7.5,9,9,0,0,0,1,.51,5,5,0,0,0,1.5-1A1.66,1.66,0,0,0,333.87,407.21Z" transform="translate(-17.8 -193.51)"/><rect class="cls-4" x="206.54" y="211" width="8.25" height="11.64" rx="2"/><rect class="cls-4" x="80.89" y="211" width="8.25" height="11.64" rx="2"/><rect class="cls-4" x="92.19" y="211" width="8.25" height="11.64" rx="2"/><rect class="cls-4" x="103.49" y="211" width="8.25" height="11.64" rx="2"/><rect class="cls-4" x="270.83" y="211" width="8.25" height="11.64" rx="2"/><path class="cls-2" d="M56.61,389.53v-5.8h2.58a3.31,3.31,0,0,1,1.18.16,1.26,1.26,0,0,1,.64.55,1.63,1.63,0,0,1,.24.87,1.43,1.43,0,0,1-.4,1,1.93,1.93,0,0,1-1.23.54,2.47,2.47,0,0,1,.46.29,4.59,4.59,0,0,1,.64.77l1,1.58h-1l-.77-1.2c-.22-.35-.41-.62-.55-.8a1.76,1.76,0,0,0-.39-.39,1.09,1.09,0,0,0-.35-.16l-.43,0h-.89v2.57Zm.77-3.24H59a2.49,2.49,0,0,0,.82-.11.91.91,0,0,0,.46-.35,1,1,0,0,0,.15-.52.85.85,0,0,0-.3-.67,1.37,1.37,0,0,0-.94-.27H57.38Z" transform="translate(-17.8 -193.51)"/><polygon class="cls-2" points="44.88 196.02 44.88 190.22 49.07 190.22 49.07 190.9 45.64 190.9 45.64 192.68 48.85 192.68 48.85 193.36 45.64 193.36 45.64 195.34 49.21 195.34 49.21 196.02 44.88 196.02"/><path class="cls-2" d="M446.85,306.42h-.72v-4.55a3.14,3.14,0,0,1-.67.49,4.28,4.28,0,0,1-.75.37V302a3.82,3.82,0,0,0,1-.68,2.69,2.69,0,0,0,.64-.77h.46Z" transform="translate(-17.8 -193.51)"/><path class="cls-2" d="M448.87,303.55a5.26,5.26,0,0,1,.22-1.65,2,2,0,0,1,.63-1,1.56,1.56,0,0,1,1-.34,1.68,1.68,0,0,1,.82.19,1.5,1.5,0,0,1,.58.54,3,3,0,0,1,.36.86,5.61,5.61,0,0,1,.13,1.37,5.34,5.34,0,0,1-.21,1.65,2.05,2.05,0,0,1-.63,1,1.77,1.77,0,0,1-2.37-.26A3.84,3.84,0,0,1,448.87,303.55Zm.74,0a3.73,3.73,0,0,0,.33,1.91,1,1,0,0,0,.83.47,1,1,0,0,0,.82-.48,5.48,5.48,0,0,0,0-3.8,1,1,0,0,0-.83-.47.94.94,0,0,0-.79.41A3.78,3.78,0,0,0,449.61,303.55Z" transform="translate(-17.8 -193.51)"/><path class="cls-2" d="M453.59,303.55a5.3,5.3,0,0,1,.21-1.65,2,2,0,0,1,.63-1,1.6,1.6,0,0,1,1.05-.34,1.68,1.68,0,0,1,.82.19,1.5,1.5,0,0,1,.58.54,3,3,0,0,1,.36.86,5.61,5.61,0,0,1,.13,1.37,5.34,5.34,0,0,1-.21,1.65,2.05,2.05,0,0,1-.63,1,1.58,1.58,0,0,1-1,.34,1.6,1.6,0,0,1-1.32-.6A3.84,3.84,0,0,1,453.59,303.55Zm.73,0a3.73,3.73,0,0,0,.33,1.91,1,1,0,0,0,.83.47,1,1,0,0,0,.82-.48,5.48,5.48,0,0,0,0-3.8,1,1,0,0,0-.83-.47.91.91,0,0,0-.78.41A3.66,3.66,0,0,0,454.32,303.55Z" transform="translate(-17.8 -193.51)"/><path class="cls-2" d="M461,306.42v-5.81h2a5.39,5.39,0,0,1,1,.08,2.06,2.06,0,0,1,.85.42,2.41,2.41,0,0,1,.68,1,3.7,3.7,0,0,1,.23,1.38,4.15,4.15,0,0,1-.15,1.17,3.2,3.2,0,0,1-.4.85,2.22,2.22,0,0,1-.53.53,2.43,2.43,0,0,1-.69.29,4.27,4.27,0,0,1-.93.1Zm.77-.69h1.24a3.05,3.05,0,0,0,.9-.11,1.25,1.25,0,0,0,.52-.3,1.86,1.86,0,0,0,.43-.73,3.66,3.66,0,0,0,.15-1.12,2.7,2.7,0,0,0-.3-1.4,1.53,1.53,0,0,0-.73-.66,3.26,3.26,0,0,0-1-.11h-1.22Z" transform="translate(-17.8 -193.51)"/><path class="cls-2" d="M466.87,303.59a3.16,3.16,0,0,1,.77-2.26,2.64,2.64,0,0,1,2-.82,2.85,2.85,0,0,1,1.45.38,2.54,2.54,0,0,1,1,1.07,3.44,3.44,0,0,1,.34,1.56,3.38,3.38,0,0,1-.36,1.58,2.41,2.41,0,0,1-1,1.06,3,3,0,0,1-1.41.35,2.77,2.77,0,0,1-1.46-.39,2.62,2.62,0,0,1-1-1.08A3.31,3.31,0,0,1,466.87,303.59Zm.79,0a2.34,2.34,0,0,0,.56,1.65,2,2,0,0,0,2.85,0,2.5,2.5,0,0,0,.56-1.73,3,3,0,0,0-.24-1.24,1.88,1.88,0,0,0-.7-.82,2,2,0,0,0-2.44.27A2.51,2.51,0,0,0,467.66,303.6Z" transform="translate(-17.8 -193.51)"/><polygon class="cls-2" points="455.78 112.9 455.78 107.1 456.55 107.1 456.55 112.22 459.41 112.22 459.41 112.9 455.78 112.9"/><polygon class="cls-2" points="460.49 112.9 460.49 107.1 461.26 107.1 461.26 112.22 464.12 112.22 464.12 112.9 460.49 112.9"/><path class="cls-2" d="M482.4,306.42l2.23-5.81h.82l2.38,5.81H487l-.68-1.76h-2.43l-.64,1.76Zm1.67-2.39h2l-.61-1.61c-.18-.48-.32-.89-.41-1.2a7.67,7.67,0,0,1-.31,1.11Z" transform="translate(-17.8 -193.51)"/><path class="cls-2" d="M488.66,306.42v-5.81h2.57a3.27,3.27,0,0,1,1.18.16,1.29,1.29,0,0,1,.65.55,1.63,1.63,0,0,1,.24.87,1.47,1.47,0,0,1-.4,1.05,2,2,0,0,1-1.24.53,2.28,2.28,0,0,1,.47.29,4.28,4.28,0,0,1,.63.78l1,1.58h-1l-.77-1.21a7.78,7.78,0,0,0-.56-.8,1.42,1.42,0,0,0-.39-.39,1,1,0,0,0-.35-.15,2.05,2.05,0,0,0-.42,0h-.89v2.58Zm.77-3.25h1.65a2.28,2.28,0,0,0,.82-.11.88.88,0,0,0,.45-.34,1,1,0,0,0,.16-.53.85.85,0,0,0-.3-.67,1.4,1.4,0,0,0-.95-.27h-1.83Z" transform="translate(-17.8 -193.51)"/><path class="cls-2" d="M494.44,304.55l.73-.06a1.46,1.46,0,0,0,.24.71,1.23,1.23,0,0,0,.58.45,2.14,2.14,0,0,0,.89.18,2.09,2.09,0,0,0,.78-.14,1,1,0,0,0,.5-.35.85.85,0,0,0,.16-.5.81.81,0,0,0-.15-.48,1.28,1.28,0,0,0-.53-.34,8.44,8.44,0,0,0-1-.28,4.93,4.93,0,0,1-1.12-.37,1.44,1.44,0,0,1-.62-.54,1.26,1.26,0,0,1-.2-.72,1.52,1.52,0,0,1,1-1.4,2.83,2.83,0,0,1,1.07-.2,2.9,2.9,0,0,1,1.14.21,1.66,1.66,0,0,1,.76.61,1.81,1.81,0,0,1,.28.92l-.74.05a1.18,1.18,0,0,0-.4-.83,1.54,1.54,0,0,0-1-.28,1.67,1.67,0,0,0-1,.25.77.77,0,0,0-.31.62.64.64,0,0,0,.22.51,2.91,2.91,0,0,0,1.16.42,7.12,7.12,0,0,1,1.28.37,1.69,1.69,0,0,1,.75.59,1.45,1.45,0,0,1,.24.83,1.55,1.55,0,0,1-.26.87,1.85,1.85,0,0,1-.76.64,2.73,2.73,0,0,1-1.12.22,3.19,3.19,0,0,1-1.32-.23,1.79,1.79,0,0,1-.84-.69A1.94,1.94,0,0,1,494.44,304.55Z" transform="translate(-17.8 -193.51)"/><path class="cls-2" d="M521.13,303l.54-.05a1.32,1.32,0,0,0,.18.54,1,1,0,0,0,.44.34,1.78,1.78,0,0,0,.67.13,1.72,1.72,0,0,0,.58-.1.93.93,0,0,0,.38-.27.65.65,0,0,0,.12-.37.56.56,0,0,0-.12-.36.92.92,0,0,0-.39-.26c-.12,0-.38-.12-.78-.21a4.59,4.59,0,0,1-.84-.27,1.16,1.16,0,0,1-.46-.41,1,1,0,0,1-.15-.54,1.15,1.15,0,0,1,.18-.62,1.2,1.2,0,0,1,.55-.43,2,2,0,0,1,.8-.15,2.08,2.08,0,0,1,.85.16,1.14,1.14,0,0,1,.57.46,1.33,1.33,0,0,1,.21.68l-.55,0a.9.9,0,0,0-.3-.62,1.17,1.17,0,0,0-.76-.21,1.2,1.2,0,0,0-.76.19.57.57,0,0,0-.24.46.51.51,0,0,0,.17.39,2.38,2.38,0,0,0,.87.31,4.91,4.91,0,0,1,1,.28,1.27,1.27,0,0,1,.56.44,1.1,1.1,0,0,1,.18.62,1.17,1.17,0,0,1-.19.65,1.31,1.31,0,0,1-.58.48,2.07,2.07,0,0,1-.84.17,2.62,2.62,0,0,1-1-.17,1.37,1.37,0,0,1-.62-.52A1.49,1.49,0,0,1,521.13,303Z" transform="translate(-17.8 -193.51)"/><path class="cls-2" d="M527.62,303.37l.56.07a1.36,1.36,0,0,1-.49.75,1.63,1.63,0,0,1-2-.16,1.65,1.65,0,0,1-.4-1.19,1.74,1.74,0,0,1,.41-1.24,1.47,1.47,0,0,1,2.09,0,1.71,1.71,0,0,1,.4,1.22V303h-2.35a1.23,1.23,0,0,0,.29.79.87.87,0,0,0,.66.28.82.82,0,0,0,.5-.15A1,1,0,0,0,527.62,303.37Zm-1.75-.86h1.76a1,1,0,0,0-.2-.6.84.84,0,0,0-.67-.31.81.81,0,0,0-.61.25A1,1,0,0,0,525.87,302.51Z" transform="translate(-17.8 -193.51)"/><path class="cls-2" d="M531.06,303.23l.52.07a1.35,1.35,0,0,1-.44.85,1.27,1.27,0,0,1-.87.31,1.36,1.36,0,0,1-1-.42,1.75,1.75,0,0,1-.39-1.22,2.21,2.21,0,0,1,.16-.89,1.23,1.23,0,0,1,.52-.58,1.61,1.61,0,0,1,.75-.19,1.34,1.34,0,0,1,.84.26,1.2,1.2,0,0,1,.42.74l-.52.08a.93.93,0,0,0-.26-.48.73.73,0,0,0-.46-.16.83.83,0,0,0-.65.29,1.79,1.79,0,0,0,0,1.84.79.79,0,0,0,.63.29.75.75,0,0,0,.53-.19A1,1,0,0,0,531.06,303.23Z" transform="translate(-17.8 -193.51)"/><path class="cls-2" d="M534.26,304.39v-.47a1.16,1.16,0,0,1-1,.54,1.27,1.27,0,0,1-.52-.11.8.8,0,0,1-.36-.27.93.93,0,0,1-.17-.39,3,3,0,0,1,0-.5v-2h.53V303a3.17,3.17,0,0,0,0,.57.53.53,0,0,0,.21.33.65.65,0,0,0,.4.12.93.93,0,0,0,.46-.12.68.68,0,0,0,.29-.34,1.66,1.66,0,0,0,.09-.62v-1.69h.54v3.16Z" transform="translate(-17.8 -193.51)"/><path class="cls-2" d="M535.72,304.39v-3.16h.48v.48a1.33,1.33,0,0,1,.34-.44.6.6,0,0,1,.34-.11,1,1,0,0,1,.55.18l-.18.49a.72.72,0,0,0-.39-.11.51.51,0,0,0-.32.1.61.61,0,0,0-.2.29,2.08,2.08,0,0,0-.09.63v1.65Z" transform="translate(-17.8 -193.51)"/><path class="cls-2" d="M537.91,300.65V300h.53v.62Zm0,3.74v-3.16h.53v3.16Z" transform="translate(-17.8 -193.51)"/><path class="cls-2" d="M540.57,303.91l.08.47a2.17,2.17,0,0,1-.4.05,1,1,0,0,1-.46-.09.51.51,0,0,1-.22-.24,2,2,0,0,1-.07-.64v-1.81h-.39v-.42h.39v-.78l.53-.32v1.1h.54v.42H540v1.84a.92.92,0,0,0,0,.3l.09.1.19,0Z" transform="translate(-17.8 -193.51)"/><path class="cls-2" d="M541.22,305.6l-.06-.5a1.32,1.32,0,0,0,.31,0,.55.55,0,0,0,.28-.06l.18-.17a2.17,2.17,0,0,0,.16-.4l0-.13-1.2-3.16h.58l.66,1.83c.08.23.16.48.23.73a6.59,6.59,0,0,1,.22-.72l.67-1.84h.53l-1.2,3.21a5,5,0,0,1-.3.72,1,1,0,0,1-.32.38.74.74,0,0,1-.44.13A1,1,0,0,1,541.22,305.6Z" transform="translate(-17.8 -193.51)"/><path class="cls-2" d="M546.41,304.39v-2.74h-.47v-.42h.47v-.33a1.37,1.37,0,0,1,.06-.47.69.69,0,0,1,.27-.34.94.94,0,0,1,.54-.13,3.13,3.13,0,0,1,.5.05l-.08.47-.31,0a.52.52,0,0,0-.35.1.55.55,0,0,0-.1.39v.29h.61v.42h-.61v2.74Z" transform="translate(-17.8 -193.51)"/><path class="cls-2" d="M550.28,303.37l.55.07a1.3,1.3,0,0,1-.48.75,1.46,1.46,0,0,1-.9.27,1.43,1.43,0,0,1-1.1-.43,1.65,1.65,0,0,1-.41-1.19,1.78,1.78,0,0,1,.41-1.24,1.42,1.42,0,0,1,1.07-.44,1.37,1.37,0,0,1,1,.43,1.71,1.71,0,0,1,.4,1.22V303H548.5a1.23,1.23,0,0,0,.29.79.87.87,0,0,0,.66.28.82.82,0,0,0,.5-.15A1,1,0,0,0,550.28,303.37Zm-1.75-.86h1.76a1.11,1.11,0,0,0-.2-.6.85.85,0,0,0-.67-.31.81.81,0,0,0-.61.25A.92.92,0,0,0,548.53,302.51Z" transform="translate(-17.8 -193.51)"/><path class="cls-2" d="M553.71,304a1.8,1.8,0,0,1-.57.36,1.87,1.87,0,0,1-.59.1,1.17,1.17,0,0,1-.8-.26.82.82,0,0,1-.27-.64.88.88,0,0,1,.1-.43.81.81,0,0,1,.28-.3,1.21,1.21,0,0,1,.38-.18,4.69,4.69,0,0,1,.48-.08,4.85,4.85,0,0,0,.95-.18v-.14a.59.59,0,0,0-.15-.46.89.89,0,0,0-.61-.18.91.91,0,0,0-.55.13.81.81,0,0,0-.27.47l-.52-.08a1.34,1.34,0,0,1,.23-.54,1.07,1.07,0,0,1,.48-.32,2.16,2.16,0,0,1,.71-.11,1.76,1.76,0,0,1,.66.1.79.79,0,0,1,.37.24.75.75,0,0,1,.16.36,2.7,2.7,0,0,1,0,.49v.72a6,6,0,0,0,0,.94,1.07,1.07,0,0,0,.13.38h-.56A1.38,1.38,0,0,1,553.71,304Zm0-1.19a4.75,4.75,0,0,1-.87.2,2,2,0,0,0-.47.1.46.46,0,0,0-.21.18.43.43,0,0,0-.07.25.46.46,0,0,0,.16.36.71.71,0,0,0,.47.14,1.09,1.09,0,0,0,.55-.13.88.88,0,0,0,.35-.37,1.25,1.25,0,0,0,.09-.54Z" transform="translate(-17.8 -193.51)"/><path class="cls-2" d="M556.36,303.91l.07.47a2.08,2.08,0,0,1-.4.05,1,1,0,0,1-.45-.09.53.53,0,0,1-.23-.24,2.11,2.11,0,0,1-.06-.64v-1.81h-.39v-.42h.39v-.78l.53-.32v1.1h.54v.42h-.54v1.84a.92.92,0,0,0,0,.3l.09.1.18,0Z" transform="translate(-17.8 -193.51)"/><path class="cls-2" d="M559.1,304.39v-.47a1.16,1.16,0,0,1-1,.54,1.27,1.27,0,0,1-.52-.11.86.86,0,0,1-.36-.27,1.07,1.07,0,0,1-.17-.39,3,3,0,0,1,0-.5v-2h.54V303a3.49,3.49,0,0,0,0,.57.53.53,0,0,0,.21.33.69.69,0,0,0,.41.12.89.89,0,0,0,.45-.12.75.75,0,0,0,.3-.34,1.94,1.94,0,0,0,.08-.62v-1.69h.54v3.16Z" transform="translate(-17.8 -193.51)"/><path class="cls-2" d="M560.56,304.39v-3.16H561v.48a1.33,1.33,0,0,1,.34-.44.62.62,0,0,1,.34-.11,1,1,0,0,1,.55.18l-.18.49a.72.72,0,0,0-.39-.11.53.53,0,0,0-.32.1.61.61,0,0,0-.2.29,2.08,2.08,0,0,0-.09.63v1.65Z" transform="translate(-17.8 -193.51)"/><path class="cls-2" d="M564.9,303.37l.56.07a1.36,1.36,0,0,1-.49.75,1.63,1.63,0,0,1-2-.16,1.65,1.65,0,0,1-.4-1.19,1.74,1.74,0,0,1,.41-1.24,1.47,1.47,0,0,1,2.09,0,1.71,1.71,0,0,1,.4,1.22V303h-2.35a1.23,1.23,0,0,0,.29.79.87.87,0,0,0,.66.28.82.82,0,0,0,.5-.15A1,1,0,0,0,564.9,303.37Zm-1.75-.86h1.76a1,1,0,0,0-.2-.6.84.84,0,0,0-.67-.31.81.81,0,0,0-.61.25A1,1,0,0,0,563.15,302.51Z" transform="translate(-17.8 -193.51)"/><path class="cls-2" d="M566.07,303.45l.52-.09a.71.71,0,0,0,.25.49.9.9,0,0,0,.57.17.84.84,0,0,0,.55-.15.47.47,0,0,0,.17-.35.34.34,0,0,0-.15-.29,3.79,3.79,0,0,0-.55-.18,4.26,4.26,0,0,1-.81-.26.78.78,0,0,1-.47-.72.87.87,0,0,1,.1-.39.83.83,0,0,1,.26-.3,1.2,1.2,0,0,1,.34-.15,1.43,1.43,0,0,1,.46-.07,1.9,1.9,0,0,1,.66.11.92.92,0,0,1,.41.29,1.17,1.17,0,0,1,.19.49l-.53.07a.57.57,0,0,0-.2-.38.79.79,0,0,0-.49-.14.87.87,0,0,0-.52.12.36.36,0,0,0-.16.29l.07.19a.54.54,0,0,0,.2.14l.47.14a7.6,7.6,0,0,1,.79.24.92.92,0,0,1,.36.28.85.85,0,0,1,.12.46.89.89,0,0,1-.15.5,1.1,1.1,0,0,1-.45.37,1.6,1.6,0,0,1-.67.13,1.45,1.45,0,0,1-.93-.26A1.12,1.12,0,0,1,566.07,303.45Z" transform="translate(-17.8 -193.51)"/><rect class="cls-2" x="503.62" y="113.82" width="0.58" height="4.35"/><path class="cls-2" d="M523.1,311.69v-3.16h.48V309a1.12,1.12,0,0,1,1-.52,1.32,1.32,0,0,1,.53.1.82.82,0,0,1,.35.27,1,1,0,0,1,.17.4,3,3,0,0,1,0,.52v1.94h-.53v-1.92a1.46,1.46,0,0,0-.07-.49.47.47,0,0,0-.22-.26.73.73,0,0,0-.37-.1.88.88,0,0,0-.59.22,1.06,1.06,0,0,0-.25.82v1.73Z" transform="translate(-17.8 -193.51)"/><path class="cls-2" d="M528.69,310.53l.53.07a1.39,1.39,0,0,1-.45.85,1.28,1.28,0,0,1-.87.31,1.33,1.33,0,0,1-1-.43,1.71,1.71,0,0,1-.39-1.21,2.21,2.21,0,0,1,.17-.89,1.16,1.16,0,0,1,.51-.58,1.49,1.49,0,0,1,.75-.19,1.35,1.35,0,0,1,.85.26,1.21,1.21,0,0,1,.41.74l-.51.08a.87.87,0,0,0-.27-.48.65.65,0,0,0-.45-.16.85.85,0,0,0-.66.29,1.37,1.37,0,0,0-.25.92,1.43,1.43,0,0,0,.24.92.81.81,0,0,0,.64.29.73.73,0,0,0,.52-.2A.93.93,0,0,0,528.69,310.53Z" transform="translate(-17.8 -193.51)"/><rect class="cls-2" x="512.01" y="113.82" width="0.53" height="4.35"/><path class="cls-2" d="M533.39,311.69v-.47a1.13,1.13,0,0,1-1,.54,1.31,1.31,0,0,1-.52-.11.86.86,0,0,1-.36-.27,1,1,0,0,1-.16-.4,2.85,2.85,0,0,1,0-.49v-2h.53v1.75a3.49,3.49,0,0,0,0,.57.59.59,0,0,0,.22.33.65.65,0,0,0,.4.12.81.81,0,0,0,.45-.13.68.68,0,0,0,.3-.33,1.66,1.66,0,0,0,.09-.62v-1.69h.53v3.16Z" transform="translate(-17.8 -193.51)"/><path class="cls-2" d="M536.91,311.69v-.4a1,1,0,0,1-.88.47,1.23,1.23,0,0,1-.7-.21,1.4,1.4,0,0,1-.49-.58,2.13,2.13,0,0,1-.17-.86,2.2,2.2,0,0,1,.16-.86,1.18,1.18,0,0,1,.47-.58,1.23,1.23,0,0,1,.7-.21,1.07,1.07,0,0,1,.51.12,1.1,1.1,0,0,1,.36.31v-1.56h.53v4.36Zm-1.69-1.58a1.37,1.37,0,0,0,.25.91.79.79,0,0,0,.61.3.75.75,0,0,0,.59-.29,1.33,1.33,0,0,0,.25-.87,1.5,1.5,0,0,0-.25-1,.76.76,0,0,0-1.21,0A1.45,1.45,0,0,0,535.22,310.11Z" transform="translate(-17.8 -193.51)"/><path class="cls-2" d="M540.55,310.67l.56.07a1.36,1.36,0,0,1-.49.75,1.42,1.42,0,0,1-.9.27,1.47,1.47,0,0,1-1.1-.43,1.65,1.65,0,0,1-.4-1.19,1.72,1.72,0,0,1,.41-1.24,1.38,1.38,0,0,1,1.06-.44,1.32,1.32,0,0,1,1,.43,1.7,1.7,0,0,1,.4,1.21v.15h-2.35a1.23,1.23,0,0,0,.29.79.87.87,0,0,0,.66.28.75.75,0,0,0,.5-.16A1,1,0,0,0,540.55,310.67Zm-1.75-.86h1.76a1,1,0,0,0-.2-.6.81.81,0,0,0-.66-.31.81.81,0,0,0-.62.25A1,1,0,0,0,538.8,309.81Z" transform="translate(-17.8 -193.51)"/><path class="cls-2" d="M544,311.69v-.4a1,1,0,0,1-.89.47,1.22,1.22,0,0,1-.69-.21,1.4,1.4,0,0,1-.49-.58,2,2,0,0,1-.17-.86,2.39,2.39,0,0,1,.15-.86,1.26,1.26,0,0,1,.48-.58,1.23,1.23,0,0,1,.7-.21,1.07,1.07,0,0,1,.51.12,1.1,1.1,0,0,1,.36.31v-1.56h.53v4.36Zm-1.69-1.58a1.37,1.37,0,0,0,.25.91.77.77,0,0,0,.6.3.76.76,0,0,0,.6-.29,1.33,1.33,0,0,0,.25-.87,1.5,1.5,0,0,0-.25-1,.77.77,0,0,0-.62-.31.76.76,0,0,0-.6.29A1.52,1.52,0,0,0,542.29,310.11Z" transform="translate(-17.8 -193.51)"/><rect class="cls-2" x="527.82" y="117.57" width="0.61" height="0.61"/><path class="cls-2" d="M521.32,319v-4.35h1.5a3.83,3.83,0,0,1,.78.06,1.53,1.53,0,0,1,.64.31,1.79,1.79,0,0,1,.51.75,2.75,2.75,0,0,1,.17,1,3.31,3.31,0,0,1-.11.88,2.24,2.24,0,0,1-.3.64,1.64,1.64,0,0,1-.4.39,1.46,1.46,0,0,1-.52.22,2.91,2.91,0,0,1-.7.07Zm.58-.51h.93a2.43,2.43,0,0,0,.68-.08.94.94,0,0,0,.39-.23,1.32,1.32,0,0,0,.31-.55,2.57,2.57,0,0,0,.12-.84,2.16,2.16,0,0,0-.22-1,1.22,1.22,0,0,0-.55-.49,2.19,2.19,0,0,0-.74-.09h-.92Z" transform="translate(-17.8 -193.51)"/><path class="cls-2" d="M528,318l.55.07a1.4,1.4,0,0,1-.48.75,1.53,1.53,0,0,1-.91.26,1.44,1.44,0,0,1-1.09-.42,1.68,1.68,0,0,1-.41-1.2,1.74,1.74,0,0,1,.41-1.23,1.36,1.36,0,0,1,1.06-.44,1.34,1.34,0,0,1,1,.43,1.75,1.75,0,0,1,.4,1.21v.14h-2.36a1.21,1.21,0,0,0,.3.8.87.87,0,0,0,.66.27.84.84,0,0,0,.5-.15A1,1,0,0,0,528,318Zm-1.76-.87H528a1,1,0,0,0-.2-.59.81.81,0,0,0-.66-.31.86.86,0,0,0-.62.24A1,1,0,0,0,526.2,317.1Z" transform="translate(-17.8 -193.51)"/><path class="cls-2" d="M530.5,318.5l.08.48a2.1,2.1,0,0,1-.41,0,1,1,0,0,1-.45-.09.51.51,0,0,1-.22-.24,1.71,1.71,0,0,1-.07-.63v-1.82H529v-.41h.39v-.78l.53-.32v1.1h.54v.41H530v1.85a.85.85,0,0,0,0,.29l.09.11.19,0Z" transform="translate(-17.8 -193.51)"/><path class="cls-2" d="M533.23,318.59a1.92,1.92,0,0,1-.57.36,1.63,1.63,0,0,1-.59.1,1.16,1.16,0,0,1-.8-.25.92.92,0,0,1-.17-1.07.84.84,0,0,1,.28-.31,1.19,1.19,0,0,1,.38-.17,2.75,2.75,0,0,1,.48-.08,5.76,5.76,0,0,0,1-.19v-.14a.59.59,0,0,0-.15-.46.91.91,0,0,0-.61-.18,1,1,0,0,0-.56.13.91.91,0,0,0-.26.47l-.52-.07a1.17,1.17,0,0,1,.23-.54,1,1,0,0,1,.47-.32,2.27,2.27,0,0,1,.72-.11,1.91,1.91,0,0,1,.65.09,1,1,0,0,1,.38.24.83.83,0,0,1,.16.37,2.62,2.62,0,0,1,0,.49v.71a8.48,8.48,0,0,0,0,.94,1.24,1.24,0,0,0,.14.38h-.56A1.38,1.38,0,0,1,533.23,318.59Zm0-1.19a3.76,3.76,0,0,1-.87.2,1.91,1.91,0,0,0-.47.11.51.51,0,0,0-.21.17.46.46,0,0,0-.07.26.43.43,0,0,0,.16.35.65.65,0,0,0,.47.15,1.1,1.1,0,0,0,.55-.14.78.78,0,0,0,.35-.37,1.23,1.23,0,0,0,.09-.53Z" transform="translate(-17.8 -193.51)"/><path class="cls-2" d="M534.71,315.24v-.61h.54v.61Zm0,3.74v-3.15h.54V319Z" transform="translate(-17.8 -193.51)"/><rect class="cls-2" x="518.4" y="121.12" width="0.53" height="4.35"/><path class="cls-2" d="M537.5,318,538,318a.75.75,0,0,0,.25.49.86.86,0,0,0,.57.16.83.83,0,0,0,.54-.15.44.44,0,0,0,.18-.35.31.31,0,0,0-.16-.28,2,2,0,0,0-.54-.18,5.38,5.38,0,0,1-.82-.26.77.77,0,0,1-.34-.3.79.79,0,0,1-.12-.42.76.76,0,0,1,.1-.39.83.83,0,0,1,.26-.3,1.08,1.08,0,0,1,.34-.16,1.7,1.7,0,0,1,.46-.06,1.81,1.81,0,0,1,.65.1,1,1,0,0,1,.42.29,1.14,1.14,0,0,1,.18.49l-.52.07a.54.54,0,0,0-.21-.38.74.74,0,0,0-.48-.13.87.87,0,0,0-.52.12.35.35,0,0,0-.16.28l.06.19a.41.41,0,0,0,.21.14l.47.14a5.38,5.38,0,0,1,.79.25.76.76,0,0,1,.35.28.74.74,0,0,1,.13.46.87.87,0,0,1-.16.5,1,1,0,0,1-.44.37,1.78,1.78,0,0,1-.67.12,1.5,1.5,0,0,1-.94-.25A1.2,1.2,0,0,1,537.5,318Z" transform="translate(-17.8 -193.51)"/><path class="cls-2" d="M542.55,317.41a1.6,1.6,0,0,1,.49-1.3,1.56,1.56,0,0,1,2.05.07,1.62,1.62,0,0,1,.42,1.18,2,2,0,0,1-.19,1,1.31,1.31,0,0,1-.53.54,1.51,1.51,0,0,1-.76.19,1.42,1.42,0,0,1-1.07-.42A1.7,1.7,0,0,1,542.55,317.41Zm.55,0a1.31,1.31,0,0,0,.27.9.88.88,0,0,0,1.32,0,1.35,1.35,0,0,0,.27-.92,1.3,1.3,0,0,0-.27-.89.85.85,0,0,0-.66-.3.83.83,0,0,0-.66.3A1.32,1.32,0,0,0,543.1,317.41Z" transform="translate(-17.8 -193.51)"/><path class="cls-2" d="M546.28,319v-3.15h.48v.45a1.14,1.14,0,0,1,1-.52,1.27,1.27,0,0,1,.52.1.86.86,0,0,1,.36.27,1,1,0,0,1,.17.39,3.1,3.1,0,0,1,0,.52V319h-.54v-1.92a1.43,1.43,0,0,0-.06-.48.51.51,0,0,0-.22-.26.66.66,0,0,0-.37-.1.83.83,0,0,0-.59.22,1,1,0,0,0-.25.82V319Z" transform="translate(-17.8 -193.51)"/><path class="cls-2" d="M552.15,319h-.49v-4.35h.53v1.55a1.08,1.08,0,0,1,.87-.42,1.33,1.33,0,0,1,.55.12,1.06,1.06,0,0,1,.43.33,1.75,1.75,0,0,1,.26.51,2.2,2.2,0,0,1,.09.64,1.77,1.77,0,0,1-.4,1.25,1.24,1.24,0,0,1-1,.44,1,1,0,0,1-.88-.46Zm0-1.6a1.68,1.68,0,0,0,.15.82.76.76,0,0,0,.68.41.77.77,0,0,0,.61-.3,1.39,1.39,0,0,0,.26-.91,1.43,1.43,0,0,0-.25-.91.75.75,0,0,0-.59-.29.77.77,0,0,0-.61.3A1.34,1.34,0,0,0,552.15,317.38Z" transform="translate(-17.8 -193.51)"/><path class="cls-2" d="M557.25,318.59a2.05,2.05,0,0,1-.57.36,1.63,1.63,0,0,1-.59.1,1.15,1.15,0,0,1-.8-.25.88.88,0,0,1-.17-1.07.84.84,0,0,1,.28-.31,1.19,1.19,0,0,1,.38-.17,2.61,2.61,0,0,1,.47-.08,5.7,5.7,0,0,0,1-.19v-.14a.59.59,0,0,0-.15-.46.91.91,0,0,0-.61-.18,1,1,0,0,0-.56.13.79.79,0,0,0-.26.47l-.53-.07a1.28,1.28,0,0,1,.24-.54,1,1,0,0,1,.47-.32,2.27,2.27,0,0,1,.72-.11,2,2,0,0,1,.65.09,1,1,0,0,1,.38.24,1,1,0,0,1,.16.37,2.62,2.62,0,0,1,0,.49v.71a8.48,8.48,0,0,0,0,.94,1,1,0,0,0,.14.38h-.56A1.12,1.12,0,0,1,557.25,318.59Zm0-1.19a3.73,3.73,0,0,1-.88.2,1.8,1.8,0,0,0-.46.11.51.51,0,0,0-.21.17.47.47,0,0,0-.08.26.44.44,0,0,0,.17.35.65.65,0,0,0,.47.15,1.12,1.12,0,0,0,.55-.14.78.78,0,0,0,.35-.37,1.23,1.23,0,0,0,.09-.53Z" transform="translate(-17.8 -193.51)"/><path class="cls-2" d="M560.79,317.83l.52.07a1.38,1.38,0,0,1-.44.85,1.31,1.31,0,0,1-.87.3,1.36,1.36,0,0,1-1-.42,1.73,1.73,0,0,1-.4-1.21,2.29,2.29,0,0,1,.17-.9,1.25,1.25,0,0,1,.52-.57,1.49,1.49,0,0,1,.75-.19,1.26,1.26,0,0,1,.84.26,1.17,1.17,0,0,1,.42.74l-.52.08a.85.85,0,0,0-.26-.48.68.68,0,0,0-.46-.16.78.78,0,0,0-.65.29,1.36,1.36,0,0,0-.25.91,1.46,1.46,0,0,0,.24.93.78.78,0,0,0,.63.28.75.75,0,0,0,.53-.19A1,1,0,0,0,560.79,317.83Z" transform="translate(-17.8 -193.51)"/><polygon class="cls-2" points="544.13 125.47 544.13 121.12 544.66 121.12 544.66 123.6 545.92 122.32 546.62 122.32 545.41 123.49 546.74 125.47 546.08 125.47 545.04 123.86 544.66 124.22 544.66 125.47 544.13 125.47"/><rect class="cls-2" x="547.47" y="124.86" width="0.61" height="0.61"/><polyline class="cls-2" points="52.38 195.61 292.24 195.61 292.24 195.09 52.38 195.09"/><path class="cls-2" d="M413.53,246.92v-7.26H416a6.89,6.89,0,0,1,1.3.1,2.51,2.51,0,0,1,1.06.52,3,3,0,0,1,.86,1.24,4.91,4.91,0,0,1,.28,1.73,5,5,0,0,1-.19,1.46,3.6,3.6,0,0,1-.49,1.06,2.94,2.94,0,0,1-.66.66,2.65,2.65,0,0,1-.87.36,4.6,4.6,0,0,1-1.17.13Zm1-.86H416a4.12,4.12,0,0,0,1.13-.13,1.65,1.65,0,0,0,.65-.38,2.17,2.17,0,0,0,.53-.92,4.39,4.39,0,0,0,.19-1.4,3.4,3.4,0,0,0-.37-1.75,1.85,1.85,0,0,0-.91-.81,3.72,3.72,0,0,0-1.24-.15h-1.52Z" transform="translate(-17.8 -193.51)"/><path class="cls-2" d="M420.3,246.92l2.79-7.26h1l3,7.26H426l-.85-2.2h-3l-.8,2.2Zm2.09-3h2.47l-.76-2c-.23-.61-.4-1.11-.52-1.51a8.73,8.73,0,0,1-.39,1.39Z" transform="translate(-17.8 -193.51)"/><polygon class="cls-2" points="411.41 53.41 411.41 47.01 409.02 47.01 409.02 46.15 414.77 46.15 414.77 47.01 412.37 47.01 412.37 53.41 411.41 53.41"/><polygon class="cls-2" points="416.03 53.41 416.03 46.15 421.27 46.15 421.27 47.01 416.99 47.01 416.99 49.23 421 49.23 421 50.08 416.99 50.08 416.99 52.55 421.44 52.55 421.44 53.41 416.03 53.41"/><polyline class="cls-2" points="426.03 52.98 549.68 52.98 549.68 52.48 426.03 52.48"/><polyline class="cls-2" points="39.87 116.54 433.12 116.54 433.12 116.03 39.87 116.03"/><polygon class="cls-2" points="89.53 90.18 433.38 90.18 433.38 70 432.87 70 432.87 89.68 89.53 89.68 89.53 90.18 89.53 90.18"/><path class="cls-2" d="M56.6,281.08v-5.81h2.19a4.8,4.8,0,0,1,.88.06,1.8,1.8,0,0,1,.72.27,1.35,1.35,0,0,1,.46.56A1.73,1.73,0,0,1,61,277a1.8,1.8,0,0,1-.47,1.25,2.22,2.22,0,0,1-1.7.52H57.37v2.36Zm.77-3.05h1.5a1.57,1.57,0,0,0,1.06-.28,1.12,1.12,0,0,0,.12-1.4.83.83,0,0,0-.48-.34,3,3,0,0,0-.72-.05H57.37Z" transform="translate(-17.8 -193.51)"/><path class="cls-2" d="M61,281.08l2.23-5.81H64l2.37,5.81h-.87l-.68-1.76H62.43l-.64,1.76Zm1.68-2.39h2l-.6-1.6c-.19-.49-.32-.89-.41-1.21a7.73,7.73,0,0,1-.32,1.11Z" transform="translate(-17.8 -193.51)"/><path class="cls-2" d="M68.25,281.08v-2.46L66,275.27H67L68.1,277c.21.33.4.66.58,1,.18-.3.39-.64.64-1l1.12-1.71h.9L69,278.62v2.46Z" transform="translate(-17.8 -193.51)"/><polygon class="cls-2" points="58.07 87.57 58.07 82.45 56.16 82.45 56.16 81.76 60.76 81.76 60.76 82.45 58.84 82.45 58.84 87.57 58.07 87.57"/><path class="cls-2" d="M79.17,278.25a3.17,3.17,0,0,1,.77-2.26,2.64,2.64,0,0,1,2-.82,2.85,2.85,0,0,1,1.45.38,2.6,2.6,0,0,1,1,1.07,3.44,3.44,0,0,1,.34,1.56,3.38,3.38,0,0,1-.36,1.58,2.41,2.41,0,0,1-1,1.06,2.84,2.84,0,0,1-1.41.36,2.78,2.78,0,0,1-1.46-.4,2.56,2.56,0,0,1-1-1.08A3.31,3.31,0,0,1,79.17,278.25Zm.79,0a2.34,2.34,0,0,0,.56,1.65,1.85,1.85,0,0,0,1.42.61,1.89,1.89,0,0,0,1.43-.61,2.5,2.5,0,0,0,.56-1.73,3,3,0,0,0-.24-1.24,1.94,1.94,0,0,0-.7-.82,2,2,0,0,0-2.44.27A2.51,2.51,0,0,0,80,278.26Z" transform="translate(-17.8 -193.51)"/><polygon class="cls-2" points="71.9 87.57 71.9 82.45 69.99 82.45 69.99 81.76 74.59 81.76 74.59 82.45 72.67 82.45 72.67 87.57 71.9 87.57"/><polygon class="cls-2" points="75.6 87.57 75.6 81.76 76.37 81.76 76.37 84.14 79.39 84.14 79.39 81.76 80.15 81.76 80.15 87.57 79.39 87.57 79.39 84.83 76.37 84.83 76.37 87.57 75.6 87.57"/><polygon class="cls-2" points="81.65 87.57 81.65 81.76 85.85 81.76 85.85 82.45 82.42 82.45 82.42 84.22 85.63 84.22 85.63 84.91 82.42 84.91 82.42 86.88 85.98 86.88 85.98 87.57 81.65 87.57"/><path class="cls-2" d="M56.37,288a3.17,3.17,0,0,1,.77-2.26,2.64,2.64,0,0,1,2-.82,2.82,2.82,0,0,1,1.44.38,2.62,2.62,0,0,1,1,1.07,3.57,3.57,0,0,1,.34,1.56,3.38,3.38,0,0,1-.36,1.58,2.41,2.41,0,0,1-1,1.06,2.84,2.84,0,0,1-1.41.36,2.78,2.78,0,0,1-1.46-.4,2.5,2.5,0,0,1-1-1.08A3.31,3.31,0,0,1,56.37,288Zm.79,0a2.34,2.34,0,0,0,.56,1.65,1.85,1.85,0,0,0,1.42.61,1.89,1.89,0,0,0,1.43-.61,2.48,2.48,0,0,0,.56-1.73,3,3,0,0,0-.24-1.24,1.94,1.94,0,0,0-.7-.82,2,2,0,0,0-2.44.27A2.47,2.47,0,0,0,57.16,288Z" transform="translate(-17.8 -193.51)"/><path class="cls-2" d="M63.12,290.81V285H65.7a3.31,3.31,0,0,1,1.18.16,1.31,1.31,0,0,1,.64.55,1.66,1.66,0,0,1,.24.88,1.46,1.46,0,0,1-.4,1,2,2,0,0,1-1.23.54,2.05,2.05,0,0,1,.46.28,4.31,4.31,0,0,1,.64.78l1,1.58h-1l-.77-1.21c-.22-.35-.41-.62-.55-.8a2,2,0,0,0-.39-.39,1.32,1.32,0,0,0-.35-.15,2.17,2.17,0,0,0-.43,0h-.89v2.58Zm.77-3.25h1.65a2.25,2.25,0,0,0,.82-.11.89.89,0,0,0,.46-.34,1,1,0,0,0,.15-.52.87.87,0,0,0-.3-.68,1.37,1.37,0,0,0-.94-.27H63.89Z" transform="translate(-17.8 -193.51)"/><path class="cls-2" d="M69.17,290.81V285h2a4.48,4.48,0,0,1,1,.09,1.88,1.88,0,0,1,.85.41,2.34,2.34,0,0,1,.69,1,4,4,0,0,1,.23,1.38,3.81,3.81,0,0,1-.16,1.17,2.79,2.79,0,0,1-.39.85,2.22,2.22,0,0,1-.53.53,2.38,2.38,0,0,1-.7.29,4.27,4.27,0,0,1-.93.1Zm.77-.69h1.24a2.75,2.75,0,0,0,.9-.11,1.32,1.32,0,0,0,.52-.3A1.78,1.78,0,0,0,73,289a3.66,3.66,0,0,0,.15-1.12,2.71,2.71,0,0,0-.29-1.4,1.55,1.55,0,0,0-.73-.65,3,3,0,0,0-1-.12H69.94Z" transform="translate(-17.8 -193.51)"/><polygon class="cls-2" points="57.44 97.3 57.44 91.49 61.64 91.49 61.64 92.18 58.21 92.18 58.21 93.95 61.42 93.95 61.42 94.64 58.21 94.64 58.21 96.61 61.77 96.61 61.77 97.3 57.44 97.3"/><path class="cls-2" d="M80.85,290.81V285h2.57a3.27,3.27,0,0,1,1.18.16,1.29,1.29,0,0,1,.65.55,1.66,1.66,0,0,1,.24.88,1.46,1.46,0,0,1-.4,1,2.07,2.07,0,0,1-1.24.54,1.93,1.93,0,0,1,.47.28,4.28,4.28,0,0,1,.63.78l1,1.58H85l-.77-1.21c-.22-.35-.41-.62-.55-.8a2,2,0,0,0-.39-.39,1.48,1.48,0,0,0-.35-.15,2.17,2.17,0,0,0-.43,0h-.89v2.58Zm.77-3.25h1.65a2.28,2.28,0,0,0,.82-.11.83.83,0,0,0,.45-.34.91.91,0,0,0,.16-.52.87.87,0,0,0-.3-.68,1.4,1.4,0,0,0-1-.27H81.62Z" transform="translate(-17.8 -193.51)"/><path class="cls-2" d="M89.12,288a3.17,3.17,0,0,1,.77-2.26,2.64,2.64,0,0,1,2-.82,2.85,2.85,0,0,1,1.45.38,2.6,2.6,0,0,1,1,1.07,3.44,3.44,0,0,1,.34,1.56,3.38,3.38,0,0,1-.36,1.58,2.41,2.41,0,0,1-1,1.06,2.84,2.84,0,0,1-1.41.36,2.78,2.78,0,0,1-1.46-.4,2.5,2.5,0,0,1-1-1.08A3.31,3.31,0,0,1,89.12,288Zm.79,0a2.34,2.34,0,0,0,.56,1.65,1.85,1.85,0,0,0,1.42.61,1.89,1.89,0,0,0,1.43-.61,2.48,2.48,0,0,0,.56-1.73,3,3,0,0,0-.24-1.24,1.94,1.94,0,0,0-.7-.82,2,2,0,0,0-2.44.27A2.51,2.51,0,0,0,89.91,288Z" transform="translate(-17.8 -193.51)"/><polygon class="cls-2" points="78.1 97.3 78.1 91.49 82.02 91.49 82.02 92.18 78.87 92.18 78.87 93.97 81.59 93.97 81.59 94.66 78.87 94.66 78.87 97.3 78.1 97.3"/><path class="cls-2" d="M464.14,283.06v-1.69a6.41,6.41,0,0,1-2.07-.57,3.66,3.66,0,0,1-1.37-1.32,4.65,4.65,0,0,1-.67-2.23l1.7-.32a4.19,4.19,0,0,0,.7,2,2.46,2.46,0,0,0,1.71,1v-5.39a7,7,0,0,1-2.14-.81,3.11,3.11,0,0,1-1.24-1.25,3.63,3.63,0,0,1-.44-1.82,3.68,3.68,0,0,1,1.28-2.92,4.42,4.42,0,0,1,2.54-.92V266h1v.81a4.13,4.13,0,0,1,2.34.86,3.87,3.87,0,0,1,1.34,2.53l-1.75.27a2.92,2.92,0,0,0-.62-1.53,2.35,2.35,0,0,0-1.31-.7v4.88a12.73,12.73,0,0,1,1.7.5,4.18,4.18,0,0,1,1.28.84,3.31,3.31,0,0,1,.77,1.19,4,4,0,0,1,.27,1.48,4.06,4.06,0,0,1-4,4.2v1.71Zm0-14.82a2.5,2.5,0,0,0-1.56.79,2.2,2.2,0,0,0-.57,1.51,2.16,2.16,0,0,0,.49,1.45,3.3,3.3,0,0,0,1.64.93Zm1,11.7a2.5,2.5,0,0,0,1.63-.86,2.64,2.64,0,0,0,.65-1.81,2.27,2.27,0,0,0-.46-1.49,4,4,0,0,0-1.82-1Z" transform="translate(-17.8 -193.51)"/><polyline class="cls-2" points="326.36 195.6 551.37 195.6 551.37 195.09 326.36 195.09"/><polygon class="cls-2" points="541.47 192.64 541.47 186.84 543.22 186.84 544.28 190.8 545.32 186.84 547.08 186.84 547.08 192.64 545.99 192.64 545.99 188.07 544.84 192.64 543.71 192.64 542.56 188.07 542.56 192.64 541.47 192.64"/><path class="cls-2" d="M566.24,386.15v-5.8h1.88a6.72,6.72,0,0,1,1.4.09,1.43,1.43,0,0,1,.83.57,1.77,1.77,0,0,1,.34,1.13,1.86,1.86,0,0,1-.2.89,1.59,1.59,0,0,1-1.1.85,6.13,6.13,0,0,1-1.21.09h-.77v2.18Zm1.17-4.82V383h.64a3,3,0,0,0,.93-.09.76.76,0,0,0,.5-.74.73.73,0,0,0-.19-.52.81.81,0,0,0-.47-.26,6.65,6.65,0,0,0-.84,0Z" transform="translate(-17.8 -193.51)"/><path class="cls-2" d="M543.79,217.61c0,3.14-1.16,4.87-3.21,4.87-1.8,0-3-1.69-3.05-4.74s1.33-4.8,3.21-4.8S543.79,214.68,543.79,217.61Zm-5,.15c0,2.4.74,3.76,1.87,3.76s1.89-1.49,1.89-3.85-.58-3.76-1.87-3.76C539.57,213.91,538.78,215.24,538.78,217.76Z" transform="translate(-17.8 -193.51)"/><path class="cls-2" d="M551.43,217.61c0,3.14-1.17,4.87-3.21,4.87-1.81,0-3-1.69-3.06-4.74s1.34-4.8,3.21-4.8S551.43,214.68,551.43,217.61Zm-5,.15c0,2.4.74,3.76,1.88,3.76s1.89-1.49,1.89-3.85-.59-3.76-1.88-3.76C547.21,213.91,546.41,215.24,546.41,217.76Z" transform="translate(-17.8 -193.51)"/><path class="cls-2" d="M559.06,217.61c0,3.14-1.17,4.87-3.21,4.87-1.8,0-3-1.69-3.05-4.74s1.33-4.8,3.21-4.8S559.06,214.68,559.06,217.61Zm-5,.15c0,2.4.74,3.76,1.87,3.76,1.28,0,1.89-1.49,1.89-3.85s-.58-3.76-1.88-3.76C554.84,213.91,554.05,215.24,554.05,217.76Z" transform="translate(-17.8 -193.51)"/><polygon class="cls-2" points="545.47 20.75 545.44 20.75 543.84 21.62 543.6 20.67 545.62 19.59 546.68 19.59 546.68 28.82 545.47 28.82 545.47 20.75"/><path class="cls-2" d="M111.5,334.13l1.42-.14a1.74,1.74,0,0,0,.52,1.05,1.58,1.58,0,0,0,1.07.34,1.61,1.61,0,0,0,1.06-.3.89.89,0,0,0,.36-.7.67.67,0,0,0-.15-.44,1.23,1.23,0,0,0-.53-.31c-.17-.06-.56-.17-1.17-.32a3.82,3.82,0,0,1-1.65-.72,1.87,1.87,0,0,1-.67-1.46,1.83,1.83,0,0,1,.31-1,2,2,0,0,1,.91-.74,3.59,3.59,0,0,1,1.43-.25,3,3,0,0,1,2,.6,2.11,2.11,0,0,1,.73,1.6l-1.47.06a1.2,1.2,0,0,0-.4-.8,1.45,1.45,0,0,0-.93-.25,1.72,1.72,0,0,0-1,.26.56.56,0,0,0-.23.45.53.53,0,0,0,.22.44,3.7,3.7,0,0,0,1.34.49,7.33,7.33,0,0,1,1.59.52,2.11,2.11,0,0,1,.8.74,2.18,2.18,0,0,1,.29,1.15,2.14,2.14,0,0,1-.35,1.17,2,2,0,0,1-1,.81,4,4,0,0,1-1.58.27,3.15,3.15,0,0,1-2.11-.64A2.73,2.73,0,0,1,111.5,334.13Z" transform="translate(-17.8 -193.51)"/><path class="cls-2" d="M119.91,332.84l-1.26-.23a2,2,0,0,1,.73-1.13,2.72,2.72,0,0,1,1.55-.37,3.4,3.4,0,0,1,1.38.22,1.38,1.38,0,0,1,.64.56,2.78,2.78,0,0,1,.19,1.25l0,1.62a6,6,0,0,0,.07,1,2.89,2.89,0,0,0,.25.71h-1.38c0-.09-.08-.23-.13-.41l-.05-.17a2.3,2.3,0,0,1-.76.52,2.12,2.12,0,0,1-.87.18,1.82,1.82,0,0,1-1.28-.44,1.49,1.49,0,0,1-.46-1.12,1.51,1.51,0,0,1,.21-.79,1.43,1.43,0,0,1,.6-.54,4.63,4.63,0,0,1,1.1-.32,7.9,7.9,0,0,0,1.35-.34v-.14a.68.68,0,0,0-.2-.57,1.13,1.13,0,0,0-.74-.17.83.83,0,0,0-.92.66Zm1.86,1.12c-.18.06-.46.13-.84.22a2.47,2.47,0,0,0-.76.24.58.58,0,0,0-.27.49.69.69,0,0,0,.21.5.76.76,0,0,0,.56.22,1.26,1.26,0,0,0,.72-.25.92.92,0,0,0,.33-.46,3.25,3.25,0,0,0,0-.68Z" transform="translate(-17.8 -193.51)"/><path class="cls-2" d="M126.21,336.49l-2.12-5.26h1.46l1,2.68.29.9.14-.45.15-.45,1-2.68h1.43l-2.09,5.26Z" transform="translate(-17.8 -193.51)"/><path class="cls-2" d="M130.65,330.52v-1.29H132v1.29Zm0,6v-5.26H132v5.26Z" transform="translate(-17.8 -193.51)"/><path class="cls-2" d="M138.5,336.49h-1.39v-2.68a4.19,4.19,0,0,0-.09-1.11.74.74,0,0,0-.29-.38.76.76,0,0,0-.48-.14,1.07,1.07,0,0,0-.65.2,1,1,0,0,0-.39.52,4.55,4.55,0,0,0-.11,1.21v2.38h-1.39v-5.26H135V332a2.15,2.15,0,0,1,2.58-.72,1.42,1.42,0,0,1,.57.42,1.53,1.53,0,0,1,.28.59,4.43,4.43,0,0,1,.07.93Z" transform="translate(-17.8 -193.51)"/><path class="cls-2" d="M140,336.83l1.59.2a.51.51,0,0,0,.18.38,1,1,0,0,0,.62.15,1.59,1.59,0,0,0,.82-.17.72.72,0,0,0,.28-.35,2.24,2.24,0,0,0,.06-.64v-.76a1.89,1.89,0,0,1-1.57.85,1.93,1.93,0,0,1-1.68-.9,3.06,3.06,0,0,1-.48-1.76,2.93,2.93,0,0,1,.63-2,2.08,2.08,0,0,1,1.58-.7,1.93,1.93,0,0,1,1.61.86v-.74H145V336a4.81,4.81,0,0,1-.15,1.39,1.69,1.69,0,0,1-.43.72,1.88,1.88,0,0,1-.74.41,3.87,3.87,0,0,1-1.17.15,3,3,0,0,1-1.9-.46A1.43,1.43,0,0,1,140,337Zm1.24-3.08a1.88,1.88,0,0,0,.33,1.23,1,1,0,0,0,.79.38,1.11,1.11,0,0,0,.86-.39,1.72,1.72,0,0,0,.36-1.18,1.89,1.89,0,0,0-.34-1.22,1.07,1.07,0,0,0-.85-.39,1,1,0,0,0-.82.39A1.77,1.77,0,0,0,141.28,333.75Z" transform="translate(-17.8 -193.51)"/><path class="cls-2" d="M146.12,335l1.4-.21a1,1,0,0,0,.36.61,1.21,1.21,0,0,0,.76.21,1.31,1.31,0,0,0,.81-.2.44.44,0,0,0,.19-.37.4.4,0,0,0-.1-.26,1.15,1.15,0,0,0-.47-.18,7.71,7.71,0,0,1-2.13-.68,1.35,1.35,0,0,1-.63-1.18,1.45,1.45,0,0,1,.54-1.15,2.53,2.53,0,0,1,1.68-.47,2.94,2.94,0,0,1,1.6.35,1.83,1.83,0,0,1,.72,1l-1.31.25a.8.8,0,0,0-.32-.47,1.14,1.14,0,0,0-.67-.17,1.46,1.46,0,0,0-.79.16.32.32,0,0,0-.15.28.3.3,0,0,0,.13.25,5.55,5.55,0,0,0,1.3.39,4.05,4.05,0,0,1,1.56.62,1.28,1.28,0,0,1,.43,1,1.6,1.6,0,0,1-.6,1.25,2.73,2.73,0,0,1-1.79.52,2.93,2.93,0,0,1-1.7-.44A2,2,0,0,1,146.12,335Z" transform="translate(-17.8 -193.51)"/><path class="cls-2" d="M155.59,329.23h2.9a7.85,7.85,0,0,1,1.28.08,1.8,1.8,0,0,1,.76.29,1.9,1.9,0,0,1,.55.61,1.64,1.64,0,0,1,.23.85,1.62,1.62,0,0,1-.28.93,1.64,1.64,0,0,1-.74.64,1.94,1.94,0,0,1,1,.66,1.8,1.8,0,0,1,.35,1.09,2.07,2.07,0,0,1-.23,1,1.92,1.92,0,0,1-.63.75,2.08,2.08,0,0,1-1,.34c-.24,0-.83,0-1.76.05h-2.47Zm1.46,1.21v1.68h1a10.45,10.45,0,0,0,1.06,0,1,1,0,0,0,.6-.26.76.76,0,0,0,.21-.56.74.74,0,0,0-.74-.8c-.14,0-.56,0-1.25,0Zm0,2.89v1.94h1.36a6.29,6.29,0,0,0,1,0,.85.85,0,0,0,.53-.29.87.87,0,0,0,.21-.61.87.87,0,0,0-.62-.89,5,5,0,0,0-1.3-.1Z" transform="translate(-17.8 -193.51)"/><path class="cls-2" d="M164.18,332.84l-1.26-.23a2,2,0,0,1,.73-1.13,2.72,2.72,0,0,1,1.55-.37,3.4,3.4,0,0,1,1.38.22,1.38,1.38,0,0,1,.64.56,2.78,2.78,0,0,1,.19,1.25v1.62a6.26,6.26,0,0,0,.06,1,3.37,3.37,0,0,0,.25.71h-1.37a3.12,3.12,0,0,1-.14-.41l0-.17a2.2,2.2,0,0,1-.76.52,2.12,2.12,0,0,1-.87.18,1.78,1.78,0,0,1-1.27-.44,1.46,1.46,0,0,1-.47-1.12,1.51,1.51,0,0,1,.21-.79,1.43,1.43,0,0,1,.6-.54,4.63,4.63,0,0,1,1.1-.32,7.9,7.9,0,0,0,1.35-.34v-.14a.71.71,0,0,0-.19-.57,1.18,1.18,0,0,0-.75-.17.83.83,0,0,0-.92.66ZM166,334c-.17.06-.46.13-.84.22a2.47,2.47,0,0,0-.76.24.58.58,0,0,0-.27.49.66.66,0,0,0,.22.5.72.72,0,0,0,.55.22,1.26,1.26,0,0,0,.72-.25.87.87,0,0,0,.33-.46,2.67,2.67,0,0,0,0-.68Z" transform="translate(-17.8 -193.51)"/><path class="cls-2" d="M173.81,336.49h-1.39v-2.68a4.89,4.89,0,0,0-.08-1.11.79.79,0,0,0-.29-.38.81.81,0,0,0-.49-.14,1.09,1.09,0,0,0-.65.2,1,1,0,0,0-.39.52,4.55,4.55,0,0,0-.11,1.21v2.38H169v-5.26h1.3V332a2.14,2.14,0,0,1,2.57-.72,1.45,1.45,0,0,1,.58.42,1.52,1.52,0,0,1,.27.59,4.43,4.43,0,0,1,.07.93Z" transform="translate(-17.8 -193.51)"/><polygon class="cls-2" points="157.63 142.98 157.63 135.72 159.02 135.72 159.02 139.57 160.65 137.72 162.36 137.72 160.56 139.64 162.49 142.98 160.99 142.98 159.67 140.62 159.02 141.29 159.02 142.98 157.63 142.98"/><path class="cls-2" d="M111.12,348.65l2.78-7.25h1l3,7.25h-1.1l-.84-2.2h-3l-.79,2.2Zm2.09-3h2.46l-.76-2q-.34-.92-.51-1.5a10.19,10.19,0,0,1-.39,1.38Z" transform="translate(-17.8 -193.51)"/><path class="cls-2" d="M118.81,348.65v-5.26h.8v.75a1.92,1.92,0,0,1,1.68-.86,2.08,2.08,0,0,1,.87.17,1.34,1.34,0,0,1,.6.44,1.77,1.77,0,0,1,.27.66,4.53,4.53,0,0,1,0,.87v3.23h-.89v-3.2a2.38,2.38,0,0,0-.1-.81.85.85,0,0,0-.37-.43,1.15,1.15,0,0,0-.62-.16,1.43,1.43,0,0,0-1,.36,1.76,1.76,0,0,0-.42,1.37v2.87Z" transform="translate(-17.8 -193.51)"/><path class="cls-2" d="M124.66,350.67l-.1-.83a2.2,2.2,0,0,0,.51.08,1.07,1.07,0,0,0,.48-.1.78.78,0,0,0,.29-.28,3.66,3.66,0,0,0,.27-.66,2.32,2.32,0,0,0,.08-.22l-2-5.27h1l1.09,3.05a12.51,12.51,0,0,1,.38,1.22c.11-.41.23-.81.37-1.2l1.12-3.07H129l-2,5.35a9.4,9.4,0,0,1-.5,1.19,1.62,1.62,0,0,1-.54.65,1.25,1.25,0,0,1-.73.2A1.64,1.64,0,0,1,124.66,350.67Z" transform="translate(-17.8 -193.51)"/><path class="cls-2" d="M132.88,346.32l.91-.08a1.91,1.91,0,0,0,.3.89,1.6,1.6,0,0,0,.73.57,2.82,2.82,0,0,0,1.11.21,2.63,2.63,0,0,0,1-.16,1.39,1.39,0,0,0,.63-.45,1.07,1.07,0,0,0,.2-.62.92.92,0,0,0-.2-.59,1.35,1.35,0,0,0-.65-.43,12,12,0,0,0-1.29-.36,6.52,6.52,0,0,1-1.4-.45,2,2,0,0,1-.78-.68,1.63,1.63,0,0,1-.25-.9,1.83,1.83,0,0,1,.31-1,2,2,0,0,1,.91-.72,3.35,3.35,0,0,1,1.33-.25,3.76,3.76,0,0,1,1.43.26,2.11,2.11,0,0,1,.94.77,2.2,2.2,0,0,1,.36,1.14l-.92.07a1.5,1.5,0,0,0-.5-1,2.58,2.58,0,0,0-2.54,0,1,1,0,0,0-.4.77.82.82,0,0,0,.29.64,3.75,3.75,0,0,0,1.44.52,9.29,9.29,0,0,1,1.61.46,2.14,2.14,0,0,1,.93.74,1.74,1.74,0,0,1,.31,1,1.9,1.9,0,0,1-.34,1.09,2.15,2.15,0,0,1-.95.8,3.3,3.3,0,0,1-1.4.28,4.25,4.25,0,0,1-1.65-.28,2.28,2.28,0,0,1-1-.87A2.43,2.43,0,0,1,132.88,346.32Z" transform="translate(-17.8 -193.51)"/><path class="cls-2" d="M142.05,347.85l.13.79a3.47,3.47,0,0,1-.67.08,1.5,1.5,0,0,1-.75-.15.88.88,0,0,1-.38-.41,3.19,3.19,0,0,1-.11-1.05v-3h-.65v-.7h.65v-1.3l.89-.53v1.83h.89v.7h-.89v3.07a1.64,1.64,0,0,0,0,.49l.16.17a.51.51,0,0,0,.3.07A2.13,2.13,0,0,0,142.05,347.85Z" transform="translate(-17.8 -193.51)"/><path class="cls-2" d="M143.17,348.65v-5.26h.8v.8a2.09,2.09,0,0,1,.57-.74,1,1,0,0,1,.57-.17,1.72,1.72,0,0,1,.91.28l-.3.83a1.28,1.28,0,0,0-.66-.19.81.81,0,0,0-.52.17.9.9,0,0,0-.33.49,3.44,3.44,0,0,0-.15,1v2.75Z" transform="translate(-17.8 -193.51)"/><path class="cls-2" d="M150.4,347l.92.11a2.19,2.19,0,0,1-.8,1.25,2.73,2.73,0,0,1-3.34-.26,2.77,2.77,0,0,1-.67-2,2.92,2.92,0,0,1,.68-2.06,2.32,2.32,0,0,1,1.77-.73,2.28,2.28,0,0,1,1.73.71,2.89,2.89,0,0,1,.66,2v.24h-3.92a2,2,0,0,0,.49,1.33,1.48,1.48,0,0,0,1.1.46,1.37,1.37,0,0,0,.83-.26A1.7,1.7,0,0,0,150.4,347Zm-2.92-1.44h2.93a1.84,1.84,0,0,0-.33-1A1.38,1.38,0,0,0,149,344a1.43,1.43,0,0,0-1,.41A1.61,1.61,0,0,0,147.48,345.52Z" transform="translate(-17.8 -193.51)"/><path class="cls-2" d="M156.29,347l.92.11a2.19,2.19,0,0,1-.8,1.25,2.73,2.73,0,0,1-3.34-.26,2.77,2.77,0,0,1-.67-2,2.92,2.92,0,0,1,.68-2.06,2.32,2.32,0,0,1,1.77-.73,2.28,2.28,0,0,1,1.73.71,2.89,2.89,0,0,1,.66,2v.24h-3.92a2,2,0,0,0,.49,1.33,1.48,1.48,0,0,0,1.1.46,1.37,1.37,0,0,0,.83-.26A1.7,1.7,0,0,0,156.29,347Zm-2.92-1.44h2.93a1.84,1.84,0,0,0-.33-1,1.38,1.38,0,0,0-1.11-.51,1.43,1.43,0,0,0-1,.41A1.61,1.61,0,0,0,153.37,345.52Z" transform="translate(-17.8 -193.51)"/><path class="cls-2" d="M160.53,347.85l.13.79a3.56,3.56,0,0,1-.67.08,1.57,1.57,0,0,1-.76-.15.91.91,0,0,1-.37-.41,3.19,3.19,0,0,1-.11-1.05v-3h-.65v-.7h.65v-1.3l.89-.53v1.83h.89v.7h-.89v3.07a1.64,1.64,0,0,0,0,.49l.16.17a.51.51,0,0,0,.3.07A2.13,2.13,0,0,0,160.53,347.85Z" transform="translate(-17.8 -193.51)"/><path class="cls-2" d="M161.89,348.65v-1h1v1a1.72,1.72,0,0,1-.2.9,1.33,1.33,0,0,1-.62.54l-.25-.39a.77.77,0,0,0,.41-.36,1.54,1.54,0,0,0,.15-.69Z" transform="translate(-17.8 -193.51)"/><path class="cls-2" d="M166.55,348.65l2.79-7.25h1l3,7.25h-1.09l-.85-2.2h-3l-.8,2.2Zm2.1-3h2.45l-.75-2c-.23-.61-.41-1.11-.52-1.5a8.92,8.92,0,0,1-.39,1.38Z" transform="translate(-17.8 -193.51)"/><path class="cls-2" d="M174.25,348.65v-5.26h.8v.75a1.9,1.9,0,0,1,1.67-.86,2.13,2.13,0,0,1,.88.17,1.37,1.37,0,0,1,.59.44,1.78,1.78,0,0,1,.28.66,5.56,5.56,0,0,1,.05.87v3.23h-.89v-3.2a2.34,2.34,0,0,0-.11-.81.83.83,0,0,0-.36-.43,1.18,1.18,0,0,0-.63-.16,1.47,1.47,0,0,0-1,.36,1.81,1.81,0,0,0-.41,1.37v2.87Z" transform="translate(-17.8 -193.51)"/><path class="cls-2" d="M180.1,350.67l-.1-.83a2.13,2.13,0,0,0,.51.08,1,1,0,0,0,.47-.1.89.89,0,0,0,.3-.28,6.39,6.39,0,0,0,.27-.66l.08-.22-2-5.27h1l1.1,3.05a12.51,12.51,0,0,1,.38,1.22,11.88,11.88,0,0,1,.36-1.2l1.13-3.07h.89l-2,5.35a9.4,9.4,0,0,1-.5,1.19,1.8,1.8,0,0,1-.54.65,1.28,1.28,0,0,1-.74.2A1.59,1.59,0,0,1,180.1,350.67Z" transform="translate(-17.8 -193.51)"/><path class="cls-2" d="M187.4,347.85l.13.79a3.47,3.47,0,0,1-.67.08,1.56,1.56,0,0,1-.75-.15.88.88,0,0,1-.38-.41,3.19,3.19,0,0,1-.11-1.05v-3H185v-.7h.65v-1.3l.89-.53v1.83h.89v.7h-.89v3.07a1.27,1.27,0,0,0,.05.49l.15.17a.51.51,0,0,0,.3.07A2.13,2.13,0,0,0,187.4,347.85Z" transform="translate(-17.8 -193.51)"/><path class="cls-2" d="M188.2,346a2.71,2.71,0,0,1,.81-2.16,2.43,2.43,0,0,1,1.65-.58,2.32,2.32,0,0,1,1.77.71,2.68,2.68,0,0,1,.69,2,3.46,3.46,0,0,1-.3,1.59,2.23,2.23,0,0,1-.89.91,2.63,2.63,0,0,1-1.27.32,2.36,2.36,0,0,1-1.78-.71A2.8,2.8,0,0,1,188.2,346Zm.91,0a2.28,2.28,0,0,0,.44,1.52,1.45,1.45,0,0,0,1.11.5,1.42,1.42,0,0,0,1.11-.51,2.3,2.3,0,0,0,.44-1.54,2.12,2.12,0,0,0-.45-1.47,1.39,1.39,0,0,0-1.1-.51,1.45,1.45,0,0,0-1.11.5A2.27,2.27,0,0,0,189.11,346Z" transform="translate(-17.8 -193.51)"/><path class="cls-2" d="M195.39,348.65l-1.61-5.26h.92l.84,3,.31,1.13c0-.06.1-.42.27-1.09l.84-3.08h.91l.79,3.05.26,1,.3-1,.91-3H201l-1.64,5.26h-.93l-.83-3.15-.21-.89-1.06,4Z" transform="translate(-17.8 -193.51)"/><path class="cls-2" d="M202,348.65v-5.26h.8v.75a1.92,1.92,0,0,1,1.68-.86,2.11,2.11,0,0,1,.87.17,1.4,1.4,0,0,1,.6.44,1.77,1.77,0,0,1,.27.66,4.53,4.53,0,0,1,0,.87v3.23h-.89v-3.2a2.38,2.38,0,0,0-.1-.81.85.85,0,0,0-.37-.43,1.15,1.15,0,0,0-.62-.16,1.43,1.43,0,0,0-1,.36,1.76,1.76,0,0,0-.42,1.37v2.87Z" transform="translate(-17.8 -193.51)"/><polygon class="cls-2" points="95.96 167.3 95.96 160.9 93.57 160.9 93.57 160.05 99.32 160.05 99.32 160.9 96.92 160.9 96.92 167.3 95.96 167.3"/><path class="cls-2" d="M120.72,359.12l.92.11a2.26,2.26,0,0,1-.81,1.26,2.45,2.45,0,0,1-1.5.44,2.38,2.38,0,0,1-1.83-.71,2.78,2.78,0,0,1-.68-2,2.9,2.9,0,0,1,.69-2.06,2.29,2.29,0,0,1,1.77-.73,2.23,2.23,0,0,1,1.72.72,2.83,2.83,0,0,1,.67,2,2.2,2.2,0,0,1,0,.23h-3.92a2.09,2.09,0,0,0,.49,1.33,1.46,1.46,0,0,0,1.1.46,1.38,1.38,0,0,0,.84-.26A1.72,1.72,0,0,0,120.72,359.12Zm-2.93-1.44h2.94a1.73,1.73,0,0,0-.34-1,1.34,1.34,0,0,0-1.1-.52,1.41,1.41,0,0,0-1,.41A1.64,1.64,0,0,0,117.79,357.68Z" transform="translate(-17.8 -193.51)"/><rect class="cls-2" x="105.19" y="160.05" width="0.89" height="7.26"/><path class="cls-2" d="M125.76,356.57v-1h1v1Zm0,4.24v-1h1v1Z" transform="translate(-17.8 -193.51)"/><path class="cls-2" d="M133.36,363a9,9,0,0,1-1.25-2.18,6.74,6.74,0,0,1-.51-2.58,6.83,6.83,0,0,1,.38-2.26,9.58,9.58,0,0,1,1.38-2.5H134c-.4.69-.67,1.18-.8,1.47a7.73,7.73,0,0,0-.47,1.43,8.42,8.42,0,0,0-.21,1.86A8.92,8.92,0,0,0,134,363Z" transform="translate(-17.8 -193.51)"/><path class="cls-2" d="M135,357.24a6.63,6.63,0,0,1,.26-2.08,2.64,2.64,0,0,1,.79-1.21,2,2,0,0,1,1.31-.42,2.26,2.26,0,0,1,1,.23,2,2,0,0,1,.72.68,3.82,3.82,0,0,1,.45,1.08,7.08,7.08,0,0,1,.17,1.72,6.51,6.51,0,0,1-.27,2.06,2.55,2.55,0,0,1-.78,1.21,2.05,2.05,0,0,1-1.32.43,2,2,0,0,1-1.65-.76A4.81,4.81,0,0,1,135,357.24Zm.91,0a4.49,4.49,0,0,0,.42,2.37,1.19,1.19,0,0,0,2.06,0,7,7,0,0,0,0-4.76,1.23,1.23,0,0,0-1-.58,1.14,1.14,0,0,0-1,.52A4.55,4.55,0,0,0,136,357.24Z" transform="translate(-17.8 -193.51)"/><path class="cls-2" d="M140.93,357.24a6.63,6.63,0,0,1,.26-2.08A2.64,2.64,0,0,1,142,354a2,2,0,0,1,1.31-.42,2.26,2.26,0,0,1,1,.23,2,2,0,0,1,.72.68,3.55,3.55,0,0,1,.45,1.08,7.08,7.08,0,0,1,.17,1.72,6.51,6.51,0,0,1-.27,2.06,2.55,2.55,0,0,1-.78,1.21,2.05,2.05,0,0,1-1.32.43,2,2,0,0,1-1.65-.76A4.81,4.81,0,0,1,140.93,357.24Zm.91,0a4.49,4.49,0,0,0,.42,2.37,1.19,1.19,0,0,0,2.06,0,7,7,0,0,0,0-4.76,1.23,1.23,0,0,0-1-.58,1.14,1.14,0,0,0-1,.52A4.64,4.64,0,0,0,141.84,357.24Z" transform="translate(-17.8 -193.51)"/><path class="cls-2" d="M150.17,360.81h-.89v-5.67a4.69,4.69,0,0,1-.84.61,5.34,5.34,0,0,1-.94.46v-.86a5.47,5.47,0,0,0,1.31-.85,3.47,3.47,0,0,0,.79-1h.57Z" transform="translate(-17.8 -193.51)"/><path class="cls-2" d="M153.54,363h-.64a8.92,8.92,0,0,0,1.48-4.76,8.27,8.27,0,0,0-.21-1.85,8.44,8.44,0,0,0-.47-1.42c-.13-.3-.4-.79-.8-1.49h.64a9.25,9.25,0,0,1,1.37,2.5,6.58,6.58,0,0,1,.38,2.26,6.74,6.74,0,0,1-.51,2.58A9,9,0,0,1,153.54,363Z" transform="translate(-17.8 -193.51)"/><path class="cls-2" d="M159.4,358.91l.94-.08a1.69,1.69,0,0,0,.48,1,1.31,1.31,0,0,0,.92.34,1.41,1.41,0,0,0,1.08-.48,1.81,1.81,0,0,0,.45-1.29,1.62,1.62,0,0,0-.43-1.2,1.5,1.5,0,0,0-1.12-.44,1.46,1.46,0,0,0-.78.2,1.45,1.45,0,0,0-.54.5l-.84-.11.71-3.72h3.6v.85H161l-.39,1.95A2.37,2.37,0,0,1,162,356a2.16,2.16,0,0,1,1.6.66,2.28,2.28,0,0,1,.65,1.69,2.67,2.67,0,0,1-.57,1.71,2.31,2.31,0,0,1-1.9.88,2.36,2.36,0,0,1-1.62-.56A2.16,2.16,0,0,1,159.4,358.91Z" transform="translate(-17.8 -193.51)"/><path class="cls-2" d="M165.29,358.91l.94-.08a1.69,1.69,0,0,0,.48,1,1.31,1.31,0,0,0,.92.34,1.41,1.41,0,0,0,1.08-.48,1.81,1.81,0,0,0,.45-1.29,1.62,1.62,0,0,0-.43-1.2,1.5,1.5,0,0,0-1.12-.44,1.46,1.46,0,0,0-.78.2,1.45,1.45,0,0,0-.54.5l-.84-.11.71-3.72h3.6v.85h-2.89l-.39,1.95a2.37,2.37,0,0,1,1.37-.46,2.16,2.16,0,0,1,1.6.66,2.28,2.28,0,0,1,.66,1.69,2.68,2.68,0,0,1-.58,1.71,2.31,2.31,0,0,1-1.9.88,2.36,2.36,0,0,1-1.62-.56A2.16,2.16,0,0,1,165.29,358.91Z" transform="translate(-17.8 -193.51)"/><path class="cls-2" d="M171.18,358.91l.94-.08a1.69,1.69,0,0,0,.48,1,1.31,1.31,0,0,0,.92.34,1.41,1.41,0,0,0,1.08-.48,1.81,1.81,0,0,0,.45-1.29,1.62,1.62,0,0,0-.43-1.2,1.5,1.5,0,0,0-1.12-.44,1.46,1.46,0,0,0-.78.2,1.45,1.45,0,0,0-.54.5l-.84-.11.71-3.72h3.6v.85h-2.89l-.39,1.95a2.37,2.37,0,0,1,1.37-.46,2.16,2.16,0,0,1,1.6.66,2.28,2.28,0,0,1,.66,1.69,2.68,2.68,0,0,1-.58,1.71,2.31,2.31,0,0,1-1.9.88,2.36,2.36,0,0,1-1.62-.56A2.16,2.16,0,0,1,171.18,358.91Z" transform="translate(-17.8 -193.51)"/><rect class="cls-2" x="159.18" y="164.23" width="2.74" height="0.9"/><path class="cls-2" d="M180.7,358.91l.94-.08a1.69,1.69,0,0,0,.48,1,1.3,1.3,0,0,0,.91.34,1.42,1.42,0,0,0,1.09-.48,1.81,1.81,0,0,0,.45-1.29,1.62,1.62,0,0,0-.43-1.2,1.5,1.5,0,0,0-1.12-.44,1.46,1.46,0,0,0-.78.2,1.45,1.45,0,0,0-.54.5l-.84-.11.7-3.72h3.61v.85h-2.89l-.39,1.95a2.37,2.37,0,0,1,1.37-.46,2.16,2.16,0,0,1,1.6.66,2.28,2.28,0,0,1,.65,1.69,2.67,2.67,0,0,1-.57,1.71,2.55,2.55,0,0,1-3.52.32A2.16,2.16,0,0,1,180.7,358.91Z" transform="translate(-17.8 -193.51)"/><path class="cls-2" d="M186.59,358.91l.94-.08a1.69,1.69,0,0,0,.48,1,1.31,1.31,0,0,0,.92.34,1.41,1.41,0,0,0,1.08-.48,1.81,1.81,0,0,0,.45-1.29,1.62,1.62,0,0,0-.43-1.2,1.5,1.5,0,0,0-1.12-.44,1.46,1.46,0,0,0-.78.2,1.45,1.45,0,0,0-.54.5l-.84-.11.71-3.72h3.6v.85h-2.89l-.39,1.95a2.37,2.37,0,0,1,1.37-.46,2.16,2.16,0,0,1,1.6.66,2.28,2.28,0,0,1,.65,1.69,2.67,2.67,0,0,1-.57,1.71,2.31,2.31,0,0,1-1.9.88,2.35,2.35,0,0,1-1.62-.56A2.16,2.16,0,0,1,186.59,358.91Z" transform="translate(-17.8 -193.51)"/><path class="cls-2" d="M192.48,358.91l.94-.08a1.69,1.69,0,0,0,.48,1,1.31,1.31,0,0,0,.92.34,1.41,1.41,0,0,0,1.08-.48,1.81,1.81,0,0,0,.45-1.29,1.62,1.62,0,0,0-.43-1.2,1.5,1.5,0,0,0-1.12-.44,1.46,1.46,0,0,0-.78.2,1.45,1.45,0,0,0-.54.5l-.84-.11.71-3.72H197v.85h-2.89l-.39,1.95A2.37,2.37,0,0,1,195,356a2.16,2.16,0,0,1,1.6.66,2.28,2.28,0,0,1,.65,1.69,2.67,2.67,0,0,1-.57,1.71,2.31,2.31,0,0,1-1.9.88,2.36,2.36,0,0,1-1.62-.56A2.16,2.16,0,0,1,192.48,358.91Z" transform="translate(-17.8 -193.51)"/><path class="cls-2" d="M198.37,358.91l.94-.08a1.69,1.69,0,0,0,.48,1,1.31,1.31,0,0,0,.92.34,1.41,1.41,0,0,0,1.08-.48,1.81,1.81,0,0,0,.45-1.29,1.62,1.62,0,0,0-.43-1.2,1.5,1.5,0,0,0-1.12-.44,1.46,1.46,0,0,0-.78.2,1.45,1.45,0,0,0-.54.5l-.84-.11.71-3.72h3.6v.85H200l-.39,1.95a2.37,2.37,0,0,1,1.37-.46,2.16,2.16,0,0,1,1.6.66,2.28,2.28,0,0,1,.65,1.69,2.67,2.67,0,0,1-.57,1.71,2.31,2.31,0,0,1-1.9.88,2.36,2.36,0,0,1-1.62-.56A2.16,2.16,0,0,1,198.37,358.91Z" transform="translate(-17.8 -193.51)"/><polygon class="cls-2" points="40.41 31.45 40.41 28.09 37.48 23.46 39.37 23.46 41.25 26.62 43.09 23.46 44.95 23.46 42.01 28.1 42.01 31.45 40.41 31.45"/><path class="cls-2" d="M62.63,222a3.1,3.1,0,0,1,.38-1.47,2.54,2.54,0,0,1,1.06-1.09,3.17,3.17,0,0,1,1.54-.38,2.88,2.88,0,0,1,2.15.86,2.92,2.92,0,0,1,.84,2.15,3,3,0,0,1-.85,2.17,2.83,2.83,0,0,1-2.13.87,3.32,3.32,0,0,1-1.51-.36,2.4,2.4,0,0,1-1.1-1.06A3.49,3.49,0,0,1,62.63,222Zm1.57.08a1.91,1.91,0,0,0,.41,1.32,1.33,1.33,0,0,0,2,0,1.92,1.92,0,0,0,.41-1.33,1.89,1.89,0,0,0-.41-1.3,1.33,1.33,0,0,0-2,0A1.9,1.9,0,0,0,64.2,222.06Z" transform="translate(-17.8 -193.51)"/><path class="cls-2" d="M73.88,225v-.87a2.25,2.25,0,0,1-.83.73,2.29,2.29,0,0,1-1.09.27,2.14,2.14,0,0,1-1-.26,1.51,1.51,0,0,1-.67-.72,3.15,3.15,0,0,1-.21-1.28v-3.66h1.53v2.66a7,7,0,0,0,.09,1.5.83.83,0,0,0,.3.43.94.94,0,0,0,.57.16,1.2,1.2,0,0,0,.7-.21,1.12,1.12,0,0,0,.43-.54,6.59,6.59,0,0,0,.11-1.56v-2.44H75.3V225Z" transform="translate(-17.8 -193.51)"/><path class="cls-2" d="M78.63,225H77.1v-5.79h1.42V220a2.32,2.32,0,0,1,.66-.77,1.22,1.22,0,0,1,.66-.19,1.93,1.93,0,0,1,1,.29l-.47,1.34a1.33,1.33,0,0,0-.72-.25.83.83,0,0,0-.54.17,1.17,1.17,0,0,0-.35.64,8.78,8.78,0,0,0-.13,1.94Z" transform="translate(-17.8 -193.51)"/><polygon class="cls-2" points="67.39 31.45 67.39 23.46 68.95 23.46 72.22 28.79 72.22 23.46 73.72 23.46 73.72 31.45 72.1 31.45 68.88 26.24 68.88 31.45 67.39 31.45"/><path class="cls-2" d="M94.63,220.94l-1.39-.25a2.19,2.19,0,0,1,.81-1.24,2.94,2.94,0,0,1,1.7-.41,3.48,3.48,0,0,1,1.52.25,1.5,1.5,0,0,1,.71.61,3.29,3.29,0,0,1,.2,1.37l0,1.79a6,6,0,0,0,.08,1.12,3.63,3.63,0,0,0,.27.78H97c0-.11-.09-.26-.15-.46a1.71,1.71,0,0,0,0-.18,2.7,2.7,0,0,1-.84.58,2.56,2.56,0,0,1-.95.19,1.94,1.94,0,0,1-1.41-.49,1.61,1.61,0,0,1-.51-1.22,1.63,1.63,0,0,1,.23-.88,1.5,1.5,0,0,1,.66-.58,4.78,4.78,0,0,1,1.21-.36,8.45,8.45,0,0,0,1.49-.38V221a.79.79,0,0,0-.22-.63,1.33,1.33,0,0,0-.82-.19,1.08,1.08,0,0,0-.64.17A1.12,1.12,0,0,0,94.63,220.94Zm2.05,1.24a8.9,8.9,0,0,1-.93.23,2.78,2.78,0,0,0-.84.27.65.65,0,0,0-.29.54.76.76,0,0,0,.23.55.84.84,0,0,0,.61.24,1.32,1.32,0,0,0,.79-.27,1,1,0,0,0,.37-.51,3,3,0,0,0,.06-.75Z" transform="translate(-17.8 -193.51)"/><path class="cls-2" d="M99.85,219.17h1.41V220a2.29,2.29,0,0,1,1.8-.92,2,2,0,0,1,1,.23,1.93,1.93,0,0,1,.67.69,2.9,2.9,0,0,1,.82-.69,2,2,0,0,1,.94-.23,2.11,2.11,0,0,1,1.08.26,1.64,1.64,0,0,1,.66.76,3.44,3.44,0,0,1,.16,1.2V225h-1.53v-3.31a2.54,2.54,0,0,0-.16-1.11.72.72,0,0,0-.65-.33,1.06,1.06,0,0,0-.61.2,1.1,1.1,0,0,0-.41.58,4.27,4.27,0,0,0-.12,1.19V225h-1.53v-3.17a4.62,4.62,0,0,0-.08-1.09.73.73,0,0,0-.26-.37.78.78,0,0,0-.46-.12,1.1,1.1,0,0,0-.64.2,1,1,0,0,0-.4.54,3.8,3.8,0,0,0-.13,1.2V225H99.85Z" transform="translate(-17.8 -193.51)"/><path class="cls-2" d="M113.51,223.12l1.52.25a2.43,2.43,0,0,1-.93,1.28,2.73,2.73,0,0,1-1.58.44,2.6,2.6,0,0,1-2.24-1,3.3,3.3,0,0,1-.57-2,3.19,3.19,0,0,1,.75-2.25,2.5,2.5,0,0,1,1.9-.82,2.58,2.58,0,0,1,2,.86,3.69,3.69,0,0,1,.71,2.61h-3.83a1.55,1.55,0,0,0,.37,1.06,1.16,1.16,0,0,0,.88.37,1,1,0,0,0,.61-.19A1.27,1.27,0,0,0,113.51,223.12Zm.08-1.55a1.46,1.46,0,0,0-.34-1,1.05,1.05,0,0,0-.79-.35,1.08,1.08,0,0,0-.83.37,1.36,1.36,0,0,0-.32,1Z" transform="translate(-17.8 -193.51)"/><path class="cls-2" d="M55.28,238.34l3.07-8h1.13l3.27,8h-1.2l-.93-2.42H57.28l-.88,2.42Zm2.3-3.28h2.71l-.83-2.21c-.26-.67-.45-1.23-.57-1.66a9.73,9.73,0,0,1-.43,1.53Z" transform="translate(-17.8 -193.51)"/><path class="cls-2" d="M63.75,238.34v-5.79h.88v.83a2.07,2.07,0,0,1,1.84-1,2.49,2.49,0,0,1,1,.19,1.63,1.63,0,0,1,.66.49,2.08,2.08,0,0,1,.3.73,5.08,5.08,0,0,1,.06.95v3.56h-1v-3.52a2.56,2.56,0,0,0-.12-.9.91.91,0,0,0-.4-.47,1.31,1.31,0,0,0-.69-.18,1.59,1.59,0,0,0-1.08.4,2,2,0,0,0-.45,1.51v3.16Z" transform="translate(-17.8 -193.51)"/><path class="cls-2" d="M70.18,240.56l-.1-.92a2.09,2.09,0,0,0,.56.09,1.11,1.11,0,0,0,.52-.11.84.84,0,0,0,.32-.3,5.92,5.92,0,0,0,.3-.73l.09-.24-2.2-5.8h1.06l1.2,3.35a13.12,13.12,0,0,1,.42,1.34c.11-.45.25-.89.4-1.32L74,232.55h1l-2.2,5.88a11.18,11.18,0,0,1-.55,1.31,1.91,1.91,0,0,1-.6.72,1.39,1.39,0,0,1-.8.22A2,2,0,0,1,70.18,240.56Z" transform="translate(-17.8 -193.51)"/><path class="cls-2" d="M79.22,235.77l1-.09a2.32,2.32,0,0,0,.33,1,1.85,1.85,0,0,0,.8.62,3,3,0,0,0,1.23.23,2.91,2.91,0,0,0,1.06-.18,1.46,1.46,0,0,0,.69-.49,1.16,1.16,0,0,0,.23-.68,1,1,0,0,0-.22-.66,1.7,1.7,0,0,0-.72-.47c-.21-.08-.69-.21-1.42-.39a6.68,6.68,0,0,1-1.54-.5,2.08,2.08,0,0,1-.85-.74,1.81,1.81,0,0,1-.28-1,2,2,0,0,1,.34-1.13,2.12,2.12,0,0,1,1-.8,3.85,3.85,0,0,1,1.47-.27,4,4,0,0,1,1.56.28,2.26,2.26,0,0,1,1,.85,2.35,2.35,0,0,1,.4,1.25l-1,.08a1.6,1.6,0,0,0-.55-1.14,2.13,2.13,0,0,0-1.39-.39,2.29,2.29,0,0,0-1.4.35,1.05,1.05,0,0,0-.43.85.88.88,0,0,0,.31.7,4,4,0,0,0,1.59.57,11.75,11.75,0,0,1,1.77.51,2.45,2.45,0,0,1,1,.82,1.89,1.89,0,0,1,.34,1.13,2.17,2.17,0,0,1-.37,1.2,2.35,2.35,0,0,1-1,.88,3.61,3.61,0,0,1-1.53.31,4.43,4.43,0,0,1-1.82-.32,2.48,2.48,0,0,1-1.15-.94A2.77,2.77,0,0,1,79.22,235.77Z" transform="translate(-17.8 -193.51)"/><path class="cls-2" d="M89.31,237.46l.14.86a3.46,3.46,0,0,1-.74.09,1.67,1.67,0,0,1-.82-.17.94.94,0,0,1-.42-.44,3.5,3.5,0,0,1-.12-1.16v-3.32h-.72v-.77h.72v-1.43l1-.59v2h1v.77h-1v3.38a1.57,1.57,0,0,0,0,.54l.17.19a.7.7,0,0,0,.33.07C89,237.5,89.13,237.48,89.31,237.46Z" transform="translate(-17.8 -193.51)"/><path class="cls-2" d="M90.54,238.34v-5.79h.88v.88a2.32,2.32,0,0,1,.62-.81,1.1,1.1,0,0,1,.63-.2,1.93,1.93,0,0,1,1,.32l-.34.91a1.42,1.42,0,0,0-.72-.21.91.91,0,0,0-.57.19,1.05,1.05,0,0,0-.37.54,3.7,3.7,0,0,0-.16,1.14v3Z" transform="translate(-17.8 -193.51)"/><path class="cls-2" d="M98.5,236.47l1,.13a2.46,2.46,0,0,1-.89,1.38,2.69,2.69,0,0,1-1.65.49,2.6,2.6,0,0,1-2-.79,3,3,0,0,1-.75-2.19,3.15,3.15,0,0,1,.76-2.26,2.53,2.53,0,0,1,1.94-.81,2.5,2.5,0,0,1,1.9.79,3.15,3.15,0,0,1,.73,2.22v.26H95.23a2.13,2.13,0,0,0,.54,1.46,1.58,1.58,0,0,0,1.2.51,1.48,1.48,0,0,0,.92-.28A1.85,1.85,0,0,0,98.5,236.47Zm-3.22-1.58h3.23a2,2,0,0,0-.37-1.1,1.52,1.52,0,0,0-1.21-.56,1.56,1.56,0,0,0-1.14.45A1.75,1.75,0,0,0,95.28,234.89Z" transform="translate(-17.8 -193.51)"/><path class="cls-2" d="M105,236.47l1,.13a2.51,2.51,0,0,1-.89,1.38,2.69,2.69,0,0,1-1.65.49,2.6,2.6,0,0,1-2-.79,3,3,0,0,1-.75-2.19,3.19,3.19,0,0,1,.75-2.26,2.55,2.55,0,0,1,2-.81,2.5,2.5,0,0,1,1.9.79,3.15,3.15,0,0,1,.73,2.22v.26h-4.31a2.18,2.18,0,0,0,.53,1.46,1.62,1.62,0,0,0,1.21.51,1.48,1.48,0,0,0,.92-.28A1.85,1.85,0,0,0,105,236.47Zm-3.22-1.58H105a2.07,2.07,0,0,0-.37-1.1,1.52,1.52,0,0,0-1.22-.56,1.55,1.55,0,0,0-1.13.45A1.75,1.75,0,0,0,101.76,234.89Z" transform="translate(-17.8 -193.51)"/><path class="cls-2" d="M109.64,237.46l.14.86a3.53,3.53,0,0,1-.74.09,1.71,1.71,0,0,1-.83-.17,1,1,0,0,1-.41-.44,3.5,3.5,0,0,1-.12-1.16v-3.32H107v-.77h.72v-1.43l1-.59v2h1v.77h-1v3.38a1.89,1.89,0,0,0,0,.54l.17.19a.75.75,0,0,0,.34.07C109.32,237.5,109.46,237.48,109.64,237.46Z" transform="translate(-17.8 -193.51)"/><path class="cls-2" d="M111.13,238.34v-1.12h1.12v1.12a2,2,0,0,1-.22,1,1.42,1.42,0,0,1-.69.58l-.27-.42a.93.93,0,0,0,.45-.4,1.63,1.63,0,0,0,.17-.75Z" transform="translate(-17.8 -193.51)"/><path class="cls-2" d="M116.26,238.34l3.07-8h1.13l3.27,8h-1.2l-.93-2.42h-3.34l-.88,2.42Zm2.3-3.28h2.71l-.83-2.21c-.26-.67-.45-1.23-.57-1.66a9.73,9.73,0,0,1-.43,1.53Z" transform="translate(-17.8 -193.51)"/><path class="cls-2" d="M124.73,238.34v-5.79h.88v.83a2.07,2.07,0,0,1,1.84-1,2.49,2.49,0,0,1,1,.19,1.63,1.63,0,0,1,.66.49,2.08,2.08,0,0,1,.3.73,5.08,5.08,0,0,1,.06.95v3.56h-1v-3.52a2.56,2.56,0,0,0-.12-.9,1,1,0,0,0-.4-.47,1.31,1.31,0,0,0-.69-.18,1.55,1.55,0,0,0-1.08.4,2,2,0,0,0-.45,1.51v3.16Z" transform="translate(-17.8 -193.51)"/><path class="cls-2" d="M131.16,240.56l-.11-.92a2.21,2.21,0,0,0,.56.09,1.13,1.13,0,0,0,.53-.11.91.91,0,0,0,.32-.3,5.92,5.92,0,0,0,.3-.73l.08-.24-2.19-5.8h1.06l1.2,3.35a13.12,13.12,0,0,1,.42,1.34c.11-.45.25-.89.4-1.32l1.24-3.37h1l-2.2,5.88a11.18,11.18,0,0,1-.55,1.31,1.91,1.91,0,0,1-.6.72,1.42,1.42,0,0,1-.81.22A2,2,0,0,1,131.16,240.56Z" transform="translate(-17.8 -193.51)"/><path class="cls-2" d="M139.2,237.46l.14.86a3.53,3.53,0,0,1-.74.09,1.74,1.74,0,0,1-.83-.17,1,1,0,0,1-.41-.44,3.5,3.5,0,0,1-.12-1.16v-3.32h-.72v-.77h.72v-1.43l1-.59v2h1v.77h-1v3.38a1.49,1.49,0,0,0,.06.54l.16.19a.75.75,0,0,0,.34.07C138.88,237.5,139,237.48,139.2,237.46Z" transform="translate(-17.8 -193.51)"/><path class="cls-2" d="M140.07,235.44a3,3,0,0,1,.89-2.37,2.71,2.71,0,0,1,1.82-.65,2.58,2.58,0,0,1,1.95.78,3,3,0,0,1,.76,2.16,3.75,3.75,0,0,1-.34,1.76,2.32,2.32,0,0,1-1,1,2.81,2.81,0,0,1-1.4.36,2.59,2.59,0,0,1-2-.78A3.12,3.12,0,0,1,140.07,235.44Zm1,0a2.5,2.5,0,0,0,.48,1.67,1.62,1.62,0,0,0,2.44,0,2.53,2.53,0,0,0,.48-1.69,2.36,2.36,0,0,0-.49-1.62,1.53,1.53,0,0,0-1.21-.56,1.59,1.59,0,0,0-1.22.55A2.47,2.47,0,0,0,141.08,235.44Z" transform="translate(-17.8 -193.51)"/><path class="cls-2" d="M148,238.34l-1.77-5.79h1l.92,3.34.34,1.24c0-.06.11-.46.3-1.19l.92-3.39h1l.86,3.36.29,1.1.33-1.11,1-3.35h.95l-1.8,5.79h-1l-.92-3.47-.22-1L149,238.34Z" transform="translate(-17.8 -193.51)"/><path class="cls-2" d="M155.24,238.34v-5.79h.89v.83a2.07,2.07,0,0,1,1.84-1,2.49,2.49,0,0,1,1,.19,1.53,1.53,0,0,1,.65.49,1.92,1.92,0,0,1,.31.73,5.34,5.34,0,0,1,.05.95v3.56h-1v-3.52a2.87,2.87,0,0,0-.11-.9.93.93,0,0,0-.41-.47,1.25,1.25,0,0,0-.68-.18,1.55,1.55,0,0,0-1.08.4,2,2,0,0,0-.46,1.51v3.16Z" transform="translate(-17.8 -193.51)"/><polygon class="cls-2" points="40.39 58.2 40.39 51.16 37.76 51.16 37.76 50.22 44.09 50.22 44.09 51.16 41.45 51.16 41.45 58.2 40.39 58.2"/><path class="cls-2" d="M65.84,249.85l1,.13a2.45,2.45,0,0,1-.89,1.37,3,3,0,0,1-3.67-.29,3.07,3.07,0,0,1-.74-2.19,3.18,3.18,0,0,1,.75-2.26,2.54,2.54,0,0,1,2-.81,2.44,2.44,0,0,1,1.89.79,3.1,3.1,0,0,1,.74,2.22v.26H62.57a2.26,2.26,0,0,0,.54,1.46,1.6,1.6,0,0,0,1.21.51,1.55,1.55,0,0,0,.92-.28A1.84,1.84,0,0,0,65.84,249.85Zm-3.21-1.58h3.23a2.07,2.07,0,0,0-.37-1.1,1.63,1.63,0,0,0-2.35-.11A1.75,1.75,0,0,0,62.63,248.27Z" transform="translate(-17.8 -193.51)"/><rect class="cls-2" x="50.55" y="50.22" width="0.98" height="7.98"/><path class="cls-2" d="M71.39,247.05v-1.12h1.12v1.12Zm0,4.66V250.6h1.12v1.11Z" transform="translate(-17.8 -193.51)"/><path class="cls-2" d="M79.75,254.06a9.93,9.93,0,0,1-1.38-2.4,7.49,7.49,0,0,1-.56-2.84,7.38,7.38,0,0,1,.42-2.48,10.28,10.28,0,0,1,1.52-2.74h.7a17.92,17.92,0,0,0-.87,1.61,8.5,8.5,0,0,0-.52,1.57,8.9,8.9,0,0,0-.24,2.05,9.79,9.79,0,0,0,1.63,5.23Z" transform="translate(-17.8 -193.51)"/><path class="cls-2" d="M81.59,247.78a7.07,7.07,0,0,1,.3-2.28,2.78,2.78,0,0,1,.86-1.33,2.23,2.23,0,0,1,1.45-.47,2.37,2.37,0,0,1,1.12.26,2.1,2.1,0,0,1,.8.74,4.06,4.06,0,0,1,.5,1.19,7.93,7.93,0,0,1,.18,1.89,7.34,7.34,0,0,1-.29,2.26,2.86,2.86,0,0,1-.86,1.34,2.25,2.25,0,0,1-1.45.47,2.21,2.21,0,0,1-1.82-.83A5.28,5.28,0,0,1,81.59,247.78Zm1,0a4.94,4.94,0,0,0,.46,2.61,1.35,1.35,0,0,0,1.14.65,1.34,1.34,0,0,0,1.13-.65,7.66,7.66,0,0,0,0-5.23,1.38,1.38,0,0,0-1.14-.65,1.26,1.26,0,0,0-1.08.57A5.06,5.06,0,0,0,82.6,247.78Z" transform="translate(-17.8 -193.51)"/><path class="cls-2" d="M88.07,247.78a7.39,7.39,0,0,1,.29-2.28,2.87,2.87,0,0,1,.87-1.33,2.21,2.21,0,0,1,1.44-.47,2.39,2.39,0,0,1,1.13.26,2.18,2.18,0,0,1,.8.74,4.06,4.06,0,0,1,.5,1.19,7.93,7.93,0,0,1,.18,1.89A7.34,7.34,0,0,1,93,250a2.86,2.86,0,0,1-.86,1.34,2.26,2.26,0,0,1-1.46.47,2.2,2.2,0,0,1-1.81-.83A5.28,5.28,0,0,1,88.07,247.78Zm1,0a4.94,4.94,0,0,0,.46,2.61,1.32,1.32,0,0,0,2.27,0,7.66,7.66,0,0,0,0-5.23,1.38,1.38,0,0,0-1.15-.65,1.25,1.25,0,0,0-1.07.57A5.06,5.06,0,0,0,89.08,247.78Z" transform="translate(-17.8 -193.51)"/><path class="cls-2" d="M98.24,251.71h-1v-6.24a4.88,4.88,0,0,1-.92.67,6.14,6.14,0,0,1-1,.51v-1a5.85,5.85,0,0,0,1.44-.93,3.65,3.65,0,0,0,.87-1.07h.63Z" transform="translate(-17.8 -193.51)"/><path class="cls-2" d="M102,254.06h-.71a9.79,9.79,0,0,0,1.63-5.23,9.29,9.29,0,0,0-.23-2,9,9,0,0,0-.52-1.57,16,16,0,0,0-.88-1.63H102a10.52,10.52,0,0,1,1.51,2.74,7.38,7.38,0,0,1,.42,2.48,7.49,7.49,0,0,1-.56,2.84A10.25,10.25,0,0,1,102,254.06Z" transform="translate(-17.8 -193.51)"/><path class="cls-2" d="M108.4,249.62l1-.08a1.77,1.77,0,0,0,.53,1.12,1.4,1.4,0,0,0,1,.38,1.54,1.54,0,0,0,1.2-.53,2,2,0,0,0,.49-1.41,1.86,1.86,0,0,0-.47-1.33,1.63,1.63,0,0,0-1.23-.48,1.77,1.77,0,0,0-.86.21,1.8,1.8,0,0,0-.6.56l-.92-.12.78-4.1h4v.94h-3.19l-.43,2.14a2.62,2.62,0,0,1,1.51-.5,2.35,2.35,0,0,1,1.76.73,2.52,2.52,0,0,1,.72,1.86,2.91,2.91,0,0,1-.63,1.87,2.52,2.52,0,0,1-2.1,1,2.56,2.56,0,0,1-1.77-.61A2.42,2.42,0,0,1,108.4,249.62Z" transform="translate(-17.8 -193.51)"/><path class="cls-2" d="M114.88,249.62l1-.08a1.77,1.77,0,0,0,.53,1.12,1.4,1.4,0,0,0,1,.38,1.56,1.56,0,0,0,1.2-.53,2,2,0,0,0,.49-1.41,1.86,1.86,0,0,0-.47-1.33,1.65,1.65,0,0,0-1.23-.48,1.77,1.77,0,0,0-.86.21,1.8,1.8,0,0,0-.6.56l-.92-.12.78-4.1h4v.94h-3.18l-.43,2.14a2.62,2.62,0,0,1,1.51-.5,2.37,2.37,0,0,1,1.76.73,2.52,2.52,0,0,1,.72,1.86,2.91,2.91,0,0,1-.63,1.87,2.81,2.81,0,0,1-3.87.36A2.37,2.37,0,0,1,114.88,249.62Z" transform="translate(-17.8 -193.51)"/><path class="cls-2" d="M121.36,249.62l1-.08a1.77,1.77,0,0,0,.53,1.12,1.4,1.4,0,0,0,1,.38,1.56,1.56,0,0,0,1.2-.53,2,2,0,0,0,.49-1.41,1.86,1.86,0,0,0-.47-1.33,1.67,1.67,0,0,0-1.23-.48,1.77,1.77,0,0,0-.86.21,1.8,1.8,0,0,0-.6.56l-.92-.12.77-4.1h4v.94h-3.18l-.43,2.14a2.62,2.62,0,0,1,1.51-.5,2.37,2.37,0,0,1,1.76.73,2.52,2.52,0,0,1,.72,1.86,2.91,2.91,0,0,1-.63,1.87,2.52,2.52,0,0,1-2.1,1,2.58,2.58,0,0,1-1.78-.61A2.36,2.36,0,0,1,121.36,249.62Z" transform="translate(-17.8 -193.51)"/><rect class="cls-2" x="109.93" y="54.82" width="3.01" height="0.98"/><path class="cls-2" d="M131.83,247.78a7.39,7.39,0,0,1,.29-2.28,2.72,2.72,0,0,1,.87-1.33,2.21,2.21,0,0,1,1.44-.47,2.39,2.39,0,0,1,1.13.26,2.18,2.18,0,0,1,.8.74,4.06,4.06,0,0,1,.49,1.19,7.93,7.93,0,0,1,.18,1.89,7,7,0,0,1-.29,2.26,2.86,2.86,0,0,1-.86,1.34,2.22,2.22,0,0,1-1.45.47,2.19,2.19,0,0,1-1.81-.83A5.21,5.21,0,0,1,131.83,247.78Zm1,0a4.94,4.94,0,0,0,.46,2.61,1.32,1.32,0,0,0,1.13.65,1.35,1.35,0,0,0,1.14-.65,7.66,7.66,0,0,0,0-5.23,1.38,1.38,0,0,0-1.15-.65,1.26,1.26,0,0,0-1.08.57A5.18,5.18,0,0,0,132.84,247.78Z" transform="translate(-17.8 -193.51)"/><path class="cls-2" d="M138.31,247.78a7.39,7.39,0,0,1,.29-2.28,2.78,2.78,0,0,1,.86-1.33,2.25,2.25,0,0,1,1.45-.47A2.41,2.41,0,0,1,142,244a2.18,2.18,0,0,1,.8.74,4.06,4.06,0,0,1,.49,1.19,7.93,7.93,0,0,1,.18,1.89,7,7,0,0,1-.29,2.26,2.86,2.86,0,0,1-.86,1.34,2.23,2.23,0,0,1-1.45.47,2.19,2.19,0,0,1-1.81-.83A5.21,5.21,0,0,1,138.31,247.78Zm1,0a4.94,4.94,0,0,0,.46,2.61,1.31,1.31,0,0,0,2.26,0,7.51,7.51,0,0,0,0-5.23,1.35,1.35,0,0,0-1.14-.65,1.26,1.26,0,0,0-1.08.57A5.08,5.08,0,0,0,139.32,247.78Z" transform="translate(-17.8 -193.51)"/><path class="cls-2" d="M144.79,247.78a7.1,7.1,0,0,1,.29-2.28,2.78,2.78,0,0,1,.86-1.33,2.25,2.25,0,0,1,1.45-.47,2.41,2.41,0,0,1,1.13.26,2.18,2.18,0,0,1,.8.74,4.06,4.06,0,0,1,.49,1.19,7.93,7.93,0,0,1,.18,1.89,7,7,0,0,1-.29,2.26,2.86,2.86,0,0,1-.86,1.34,2.23,2.23,0,0,1-1.45.47,2.19,2.19,0,0,1-1.81-.83A5.21,5.21,0,0,1,144.79,247.78Zm1,0a5,5,0,0,0,.46,2.61,1.35,1.35,0,0,0,1.14.65,1.32,1.32,0,0,0,1.13-.65,7.66,7.66,0,0,0,0-5.23,1.35,1.35,0,0,0-1.14-.65,1.26,1.26,0,0,0-1.08.57A5.06,5.06,0,0,0,145.79,247.78Z" transform="translate(-17.8 -193.51)"/><path class="cls-2" d="M151.27,247.78a7.1,7.1,0,0,1,.29-2.28,2.78,2.78,0,0,1,.86-1.33,2.25,2.25,0,0,1,1.45-.47A2.41,2.41,0,0,1,155,244a2.18,2.18,0,0,1,.8.74,4.06,4.06,0,0,1,.49,1.19,7.93,7.93,0,0,1,.18,1.89,7.34,7.34,0,0,1-.29,2.26,2.86,2.86,0,0,1-.86,1.34,2.23,2.23,0,0,1-1.45.47,2.19,2.19,0,0,1-1.81-.83A5.21,5.21,0,0,1,151.27,247.78Zm1,0a5,5,0,0,0,.46,2.61,1.35,1.35,0,0,0,1.14.65,1.32,1.32,0,0,0,1.13-.65,7.66,7.66,0,0,0,0-5.23,1.35,1.35,0,0,0-1.14-.65,1.26,1.26,0,0,0-1.08.57A5.06,5.06,0,0,0,152.27,247.78Z" transform="translate(-17.8 -193.51)"/><rect class="cls-5" x="456.43" y="70.33" width="94.26" height="20.27"/><polyline class="cls-2" points="417.42 113.76 432.96 98.89 432.61 98.53 417.06 113.39"/><path class="cls-2" d="M513.19,314.57l-1.05-3.33a1.18,1.18,0,0,0,.81-.64,1.22,1.22,0,0,0-2.18-1.09,1.23,1.23,0,0,0,.55,1.64,1.43,1.43,0,0,0,.27.09l-1.06,3.33Z" transform="translate(-17.8 -193.51)"/><path class="cls-2" d="M511.86,303c-2.06,0-3.74,2-3.74,4.39H509a2.9,2.9,0,1,1,5.72,0h.89C515.61,304.92,513.93,303,511.86,303Z" transform="translate(-17.8 -193.51)"/><path class="cls-2" d="M516.23,315.6h-.35a.49.49,0,0,1-.49.49h-7.23a.49.49,0,0,1-.49-.49v-7.38a.49.49,0,0,1,.49-.49h7.23a.49.49,0,0,1,.49.49v7.38h.7v-7.38a1.19,1.19,0,0,0-1.19-1.19h-7.23a1.19,1.19,0,0,0-1.19,1.19v7.38a1.2,1.2,0,0,0,1.19,1.19h7.23a1.19,1.19,0,0,0,1.19-1.19Z" transform="translate(-17.8 -193.51)"/><polygon class="cls-2" points="56.64 137.53 49.49 130.38 35.19 144.68 49.49 158.98 56.64 151.83 49.49 144.68 56.64 137.53"/><polygon class="cls-2" points="78.09 144.68 63.79 130.38 56.64 137.53 63.79 144.68 56.64 151.83 63.79 158.98 78.09 144.68"/><polygon class="cls-2" points="56.64 137.53 49.49 130.38 35.19 144.68 49.49 158.98 56.64 151.83 49.49 144.68 56.64 137.53"/><polygon class="cls-2" points="78.09 144.68 63.79 130.38 56.64 137.53 63.79 144.68 56.64 151.83 63.79 158.98 78.09 144.68"/><path class="cls-2" d="M63.9,358.16a1.59,1.59,0,0,1,1.15,1.6,1.73,1.73,0,0,1-.67,1.46,2,2,0,0,1-.78.39,5,5,0,0,1-1.11.11H57.84v-.16a.42.42,0,0,0,.25-.13.32.32,0,0,0,.07-.23v-5.76a.32.32,0,0,0-.07-.23.42.42,0,0,0-.25-.13v-.16h4.61a4.46,4.46,0,0,1,1.07.1,1.7,1.7,0,0,1,.7.34,1.6,1.6,0,0,1,.61,1.36A1.48,1.48,0,0,1,63.9,358.16Zm-4.25-.53h2.6a1.39,1.39,0,0,0,.83-.18.72.72,0,0,0,.27-.62.73.73,0,0,0-.25-.61,1.51,1.51,0,0,0-.85-.18h-2.6Zm0,3h2.52a2,2,0,0,0,1-.19.93.93,0,0,0,0-1.47,2,2,0,0,0-1-.19H59.65Z" transform="translate(-17.8 -193.51)"/><path class="cls-2" d="M71.09,360H68l-.46,1a.79.79,0,0,0-.09.31q0,.23.33.3v.16H65.53v-.16a.5.5,0,0,0,.3-.14,1.2,1.2,0,0,0,.24-.39l2.51-5.22a1,1,0,0,0,.12-.4c0-.16-.1-.27-.29-.33v-.16h2.41v.16c-.2.05-.29.15-.29.29a.75.75,0,0,0,.09.33L73.21,361a1.83,1.83,0,0,0,.29.45.6.6,0,0,0,.34.16v.16H71.33v-.16c.22,0,.33-.14.33-.31a.73.73,0,0,0-.1-.3Zm-.42-.93-1.11-2.43-1.12,2.43Z" transform="translate(-17.8 -193.51)"/><path class="cls-2" d="M76.35,357.06v4.14a.32.32,0,0,0,.07.23.45.45,0,0,0,.25.13v.16h-2v-.16a.45.45,0,0,0,.25-.13.32.32,0,0,0,.07-.23v-5.76a.32.32,0,0,0-.07-.23.45.45,0,0,0-.25-.13v-.16H77v.16a.23.23,0,0,0-.21.23.36.36,0,0,0,.14.26l3.75,3.9v-4a.32.32,0,0,0-.07-.23.45.45,0,0,0-.25-.13v-.16h2v.16a.45.45,0,0,0-.25.13.37.37,0,0,0-.07.23v5.76a.37.37,0,0,0,.07.23.45.45,0,0,0,.25.13v.16H80.2v-.16q.21,0,.21-.21c0-.07-.08-.18-.25-.35Z" transform="translate(-17.8 -193.51)"/><path class="cls-2" d="M86.65,358.55l-1,.83v1.82a.36.36,0,0,0,.07.24.53.53,0,0,0,.25.12v.16H83.82v-.16a.42.42,0,0,0,.25-.13.32.32,0,0,0,.07-.23v-5.76a.32.32,0,0,0-.07-.23.42.42,0,0,0-.25-.13v-.16H86v.16a.48.48,0,0,0-.25.12.36.36,0,0,0-.07.24v2.38l2.8-2.29c.13-.1.19-.19.19-.25s-.09-.17-.29-.2v-.16h2.79v.16a.73.73,0,0,0-.25.08,5,5,0,0,0-.44.34l-.38.32-2.31,1.85,2.62,3.16a6,6,0,0,0,.52.57.88.88,0,0,0,.41.16v.16H88.63v-.16c.18,0,.27-.1.27-.19a1.21,1.21,0,0,0-.24-.36Z" transform="translate(-17.8 -193.51)"/><rect class="cls-3" x="54.98" y="231.59" width="77.65" height="40.08" rx="5"/><path class="cls-1" d="M88.88,439v3.27h-2v-8.53h3.28a3.67,3.67,0,0,1,2.35.69,2.26,2.26,0,0,1,.86,1.87,1.9,1.9,0,0,1-.34,1.14,2.52,2.52,0,0,1-1,.77,2,2,0,0,1,1.13.74,2.39,2.39,0,0,1,.34,1.3v.53a3.26,3.26,0,0,0,.1.77,1,1,0,0,0,.34.61v.11h-2a1,1,0,0,1-.3-.64,5.5,5.5,0,0,1-.08-.86v-.51a1.22,1.22,0,0,0-.32-.93,1.25,1.25,0,0,0-.94-.33Zm0-1.52h1.31a1.35,1.35,0,0,0,.91-.27,1,1,0,0,0,.32-.78,1.15,1.15,0,0,0-.33-.85,1.24,1.24,0,0,0-.91-.31h-1.3Z" transform="translate(-17.8 -193.51)"/><path class="cls-1" d="M101.87,438.75a3.53,3.53,0,0,1-1,2.59,3.44,3.44,0,0,1-2.61,1,3.49,3.49,0,0,1-3.64-3.62v-1.54a3.57,3.57,0,0,1,1-2.6,3.63,3.63,0,0,1,6.24,2.6Zm-2-1.55a2.51,2.51,0,0,0-.43-1.5,1.57,1.57,0,0,0-2.45,0,2.47,2.47,0,0,0-.42,1.5v1.55a2.48,2.48,0,0,0,.43,1.51,1.44,1.44,0,0,0,1.23.58,1.4,1.4,0,0,0,1.21-.58,2.48,2.48,0,0,0,.43-1.51Z" transform="translate(-17.8 -193.51)"/><path class="cls-1" d="M110,433.71v5.59a2.76,2.76,0,0,1-1,2.26,3.81,3.81,0,0,1-2.54.81,3.87,3.87,0,0,1-2.56-.81,2.76,2.76,0,0,1-1-2.26v-5.59h2v5.59a1.5,1.5,0,0,0,.4,1.16A1.54,1.54,0,0,0,108,439.3v-5.59Z" transform="translate(-17.8 -193.51)"/><path class="cls-1" d="M117.28,435.24H115v7h-2v-7h-2.23v-1.53h6.47Z" transform="translate(-17.8 -193.51)"/><path class="cls-1" d="M120.19,442.24h-2v-8.53h2Z" transform="translate(-17.8 -193.51)"/><path class="cls-1" d="M128.78,442.24h-2l-3.12-5.43h0v5.42h-2v-8.53h2l3.12,5.44h0v-5.43h2Z" transform="translate(-17.8 -193.51)"/><path class="cls-1" d="M136.86,441.07a3.71,3.71,0,0,1-1.26.9,4.7,4.7,0,0,1-2.08.4,3.48,3.48,0,0,1-2.56-1,3.37,3.37,0,0,1-1-2.52v-1.78a3.44,3.44,0,0,1,1-2.52,3.34,3.34,0,0,1,2.48-1,3.51,3.51,0,0,1,2.47.76,3,3,0,0,1,.93,2.08v0h-1.86a1.78,1.78,0,0,0-.43-1,1.43,1.43,0,0,0-1-.34,1.35,1.35,0,0,0-1.12.55,2.28,2.28,0,0,0-.42,1.42v1.79a2.27,2.27,0,0,0,.42,1.43,1.38,1.38,0,0,0,1.16.54,3.22,3.22,0,0,0,.86-.09,1.18,1.18,0,0,0,.49-.23v-1.35h-1.34v-1.31h3.33Z" transform="translate(-17.8 -193.51)"/><path class="cls-1" d="M94.78,456.24h-2l-3.12-5.43h0v5.42h-2v-8.53h2l3.13,5.44h0v-5.43h2Z" transform="translate(-17.8 -193.51)"/><path class="cls-1" d="M103.12,447.71v5.59a2.76,2.76,0,0,1-1,2.26,4.42,4.42,0,0,1-5.1,0,2.76,2.76,0,0,1-1-2.26v-5.59h2v5.59a1.5,1.5,0,0,0,.41,1.16,1.53,1.53,0,0,0,2.66-1.16v-5.59Z" transform="translate(-17.8 -193.51)"/><path class="cls-1" d="M107,447.71l1.91,6h0l1.93-6h2.62v8.53h-2v-2.11l.19-3.9h0l-2.06,6h-1.33l-2-6h0l.19,3.85v2.11h-2v-8.53Z" transform="translate(-17.8 -193.51)"/><path class="cls-1" d="M114.85,456.24v-8.53h2.93a4.48,4.48,0,0,1,2.48.59,2,2,0,0,1,.89,1.76,2.08,2.08,0,0,1-.29,1.08,1.71,1.71,0,0,1-.88.71,1.81,1.81,0,0,1,1.11.69,2.05,2.05,0,0,1,.35,1.18,2.2,2.2,0,0,1-.84,1.88,3.84,3.84,0,0,1-2.4.64Zm2-5h1a1.8,1.8,0,0,0,1-.26.86.86,0,0,0,.33-.73.93.93,0,0,0-.34-.8,1.79,1.79,0,0,0-1-.24h-.94Zm0,1.31v2.14h1.36a1.5,1.5,0,0,0,1-.25.92.92,0,0,0,.32-.76,1.15,1.15,0,0,0-.27-.84,1.2,1.2,0,0,0-.89-.29Z" transform="translate(-17.8 -193.51)"/><path class="cls-1" d="M127.89,452.59h-3.35v2.13h4v1.52h-5.93v-8.53h5.94v1.53h-4v1.83h3.35Z" transform="translate(-17.8 -193.51)"/><path class="cls-1" d="M131.37,453v3.27h-2v-8.53h3.28a3.65,3.65,0,0,1,2.35.69,2.24,2.24,0,0,1,.87,1.87,1.9,1.9,0,0,1-.35,1.14,2.39,2.39,0,0,1-1,.77,1.93,1.93,0,0,1,1.13.74,2.31,2.31,0,0,1,.34,1.3v.53a3.88,3.88,0,0,0,.1.77,1.1,1.1,0,0,0,.35.61v.11h-2a1,1,0,0,1-.31-.64,5.42,5.42,0,0,1-.07-.86v-.51a1.26,1.26,0,0,0-.32-.93,1.28,1.28,0,0,0-1-.33Zm0-1.52h1.31a1.37,1.37,0,0,0,.91-.27,1,1,0,0,0,.32-.78,1.15,1.15,0,0,0-.33-.85,1.27,1.27,0,0,0-.92-.31h-1.29Z" transform="translate(-17.8 -193.51)"/><path class="cls-4" d="M63.78,416.31v25.21a5,5,0,0,0,5,5h8" transform="translate(-17.8 -193.51)"/><path class="cls-4" d="M160.66,416.31v25.21a5,5,0,0,1-5,5h-5.53" transform="translate(-17.8 -193.51)"/><rect class="cls-3" x="222.93" y="231.59" width="77.65" height="40.08" rx="5"/><path class="cls-1" d="M257.7,440.58H255l-.48,1.66h-2l2.76-8.53h2.13l2.75,8.53h-2Zm-2.25-1.52h1.81l-.89-3.05h0Z" transform="translate(-17.8 -193.51)"/><path class="cls-1" d="M267.36,439.25v0a3.2,3.2,0,0,1-.89,2.3,3.37,3.37,0,0,1-2.4.79,3.54,3.54,0,0,1-2.58-1,3.37,3.37,0,0,1-1-2.52v-1.78a3.46,3.46,0,0,1,1-2.53,3.29,3.29,0,0,1,2.47-1,3.49,3.49,0,0,1,2.48.81,3.42,3.42,0,0,1,1,2.32v0h-1.93a2,2,0,0,0-.37-1.23,1.39,1.39,0,0,0-1.13-.41,1.24,1.24,0,0,0-1.06.54,2.42,2.42,0,0,0-.38,1.43v1.79a2.29,2.29,0,0,0,.42,1.43,1.38,1.38,0,0,0,1.16.54,1.2,1.2,0,0,0,1-.38,2.15,2.15,0,0,0,.34-1.21Z" transform="translate(-17.8 -193.51)"/><path class="cls-1" d="M275.07,439.25v0a3.2,3.2,0,0,1-.89,2.3,3.37,3.37,0,0,1-2.4.79,3.5,3.5,0,0,1-2.57-1,3.37,3.37,0,0,1-1-2.52v-1.78a3.46,3.46,0,0,1,.95-2.53,3.29,3.29,0,0,1,2.47-1,3.48,3.48,0,0,1,2.48.81,3.42,3.42,0,0,1,1,2.32v0h-1.93a2,2,0,0,0-.37-1.23,1.39,1.39,0,0,0-1.13-.41,1.24,1.24,0,0,0-1.06.54,2.42,2.42,0,0,0-.38,1.43v1.79a2.29,2.29,0,0,0,.42,1.43,1.39,1.39,0,0,0,1.16.54,1.2,1.2,0,0,0,1-.38,2.15,2.15,0,0,0,.34-1.21Z" transform="translate(-17.8 -193.51)"/><path class="cls-1" d="M283.19,438.75a3.53,3.53,0,0,1-1,2.59,3.44,3.44,0,0,1-2.61,1,3.49,3.49,0,0,1-3.64-3.62v-1.54a3.57,3.57,0,0,1,1-2.6,3.86,3.86,0,0,1,5.23,0,3.57,3.57,0,0,1,1,2.6Zm-2-1.55a2.51,2.51,0,0,0-.43-1.5,1.44,1.44,0,0,0-1.22-.59,1.42,1.42,0,0,0-1.23.59,2.47,2.47,0,0,0-.42,1.5v1.55a2.48,2.48,0,0,0,.43,1.51,1.57,1.57,0,0,0,2.44,0,2.55,2.55,0,0,0,.43-1.51Z" transform="translate(-17.8 -193.51)"/><path class="cls-1" d="M291.34,433.71v5.59a2.76,2.76,0,0,1-1,2.26,4.42,4.42,0,0,1-5.1,0,2.76,2.76,0,0,1-1-2.26v-5.59h2v5.59a1.5,1.5,0,0,0,.41,1.16,1.53,1.53,0,0,0,2.66-1.16v-5.59Z" transform="translate(-17.8 -193.51)"/><path class="cls-1" d="M299.76,442.24h-2l-3.13-5.43h0v5.42h-2v-8.53h2l3.12,5.44h0v-5.43h2Z" transform="translate(-17.8 -193.51)"/><path class="cls-1" d="M306.89,435.24h-2.25v7h-2v-7h-2.23v-1.53h6.47Z" transform="translate(-17.8 -193.51)"/><path class="cls-1" d="M262.72,456.24h-2l-3.13-5.43h0v5.42h-2v-8.53h2l3.12,5.44h0v-5.43h2Z" transform="translate(-17.8 -193.51)"/><path class="cls-1" d="M271.06,447.71v5.59a2.76,2.76,0,0,1-1,2.26,3.81,3.81,0,0,1-2.54.81,3.89,3.89,0,0,1-2.56-.81,2.78,2.78,0,0,1-1-2.26v-5.59h2v5.59a1.5,1.5,0,0,0,.4,1.16,1.91,1.91,0,0,0,2.27,0,1.52,1.52,0,0,0,.4-1.17v-5.59Z" transform="translate(-17.8 -193.51)"/><path class="cls-1" d="M275,447.71l1.91,6h0l1.94-6h2.61v8.53h-2v-2.11l.19-3.9h0l-2.05,6h-1.34l-2-6h0l.19,3.85v2.11h-2v-8.53Z" transform="translate(-17.8 -193.51)"/><path class="cls-1" d="M282.79,456.24v-8.53h2.93a4.48,4.48,0,0,1,2.48.59,2,2,0,0,1,.89,1.76,2.07,2.07,0,0,1-.28,1.08,1.73,1.73,0,0,1-.89.71,1.81,1.81,0,0,1,1.11.69,2,2,0,0,1,.36,1.18,2.2,2.2,0,0,1-.84,1.88,3.87,3.87,0,0,1-2.4.64Zm2-5h1a1.78,1.78,0,0,0,1-.26.85.85,0,0,0,.34-.73,1,1,0,0,0-.34-.8,1.85,1.85,0,0,0-1-.24h-.94Zm0,1.31v2.14h1.37a1.52,1.52,0,0,0,1-.25.91.91,0,0,0,.31-.76,1.15,1.15,0,0,0-.27-.84,1.18,1.18,0,0,0-.88-.29Z" transform="translate(-17.8 -193.51)"/><path class="cls-1" d="M295.83,452.59h-3.34v2.13h3.94v1.52H290.5v-8.53h5.94v1.53h-3.95v1.83h3.34Z" transform="translate(-17.8 -193.51)"/><path class="cls-1" d="M299.31,453v3.27h-2v-8.53h3.28a3.67,3.67,0,0,1,2.35.69,2.24,2.24,0,0,1,.86,1.87,1.9,1.9,0,0,1-.34,1.14,2.52,2.52,0,0,1-1,.77,2,2,0,0,1,1.13.74,2.39,2.39,0,0,1,.34,1.3v.53a3.26,3.26,0,0,0,.1.77,1,1,0,0,0,.34.61v.11h-2a1,1,0,0,1-.3-.64,5.5,5.5,0,0,1-.08-.86v-.51a1.22,1.22,0,0,0-.32-.93,1.25,1.25,0,0,0-.94-.33Zm0-1.52h1.31a1.35,1.35,0,0,0,.91-.27,1,1,0,0,0,.32-.78,1.15,1.15,0,0,0-.33-.85,1.24,1.24,0,0,0-.91-.31h-1.3Z" transform="translate(-17.8 -193.51)"/><path class="cls-4" d="M220.66,416.31v25.21a5,5,0,0,0,5,5h16.22" transform="translate(-17.8 -193.51)"/><path class="cls-4" d="M336.6,416.31v25.21a5,5,0,0,1-5,5H317.14" transform="translate(-17.8 -193.51)"/></svg>