<svg id="Layer_1" data-name="Layer 1" xmlns="http://www.w3.org/2000/svg" viewBox="0 0 237.91 237.91"><defs><style>.cls-1{fill:#aaa;}.cls-2{fill:#fff;}</style></defs><circle class="cls-1" cx="118.95" cy="118.95" r="118.95"/><path class="cls-2" d="M183.47,203.88H111.2V186.17l24.32-24.59q10.42-10.89,13.62-14.88a32.38,32.38,0,0,0,4.46-6.85,14.66,14.66,0,0,0,1.26-6,7.8,7.8,0,0,0-2.52-6.13q-2.52-2.25-7.08-2.25a19.37,19.37,0,0,0-9.5,2.69,67.79,67.79,0,0,0-10.87,7.94l-14.78-17.3A80.14,80.14,0,0,1,123.05,109a46.7,46.7,0,0,1,11.41-4.53,56.59,56.59,0,0,1,13.86-1.56,41.78,41.78,0,0,1,17.27,3.4A27,27,0,0,1,177.37,116a24.9,24.9,0,0,1,4.19,14.13,38,38,0,0,1-1.46,10.83,38.42,38.42,0,0,1-4.53,9.78,67.5,67.5,0,0,1-8.14,10.11q-5.07,5.31-21.63,20.16v.69h37.67Z" transform="translate(-27.84 -38.42)"/></svg>