<svg id="Layer_1" data-name="Layer 1" xmlns="http://www.w3.org/2000/svg" viewBox="0 0 144.06 144.06"><defs><style>.cls-1{fill:#f02f30;}.cls-2{fill:#fff;}</style></defs><circle class="cls-1" cx="72.03" cy="72.03" r="72.03"/><path class="cls-2" d="M169,172.74H131.6v-7.87L145,151.28q6-6.1,7.8-8.47a18.55,18.55,0,0,0,2.63-4.38,11.06,11.06,0,0,0,.81-4.17,6.07,6.07,0,0,0-1.78-4.8,6.87,6.87,0,0,0-4.74-1.58,13.66,13.66,0,0,0-6,1.43,31.32,31.32,0,0,0-6.12,4.07l-6.15-7.29a39.88,39.88,0,0,1,6.56-4.76,23.85,23.85,0,0,1,5.67-2.14,29.15,29.15,0,0,1,6.89-.75,20.39,20.39,0,0,1,8.86,1.83,14.22,14.22,0,0,1,6,5.12,13.7,13.7,0,0,1,2.12,7.55,18.42,18.42,0,0,1-1.3,6.94,26.39,26.39,0,0,1-4,6.64,97.39,97.39,0,0,1-9.61,9.71l-6.88,6.48v.51H169Z" transform="translate(-77.97 -75.62)"/></svg>