<svg id="Layer_1" data-name="Layer 1" xmlns="http://www.w3.org/2000/svg" viewBox="0 0 237.91 237.91"><defs><style>.cls-1{fill:#22ae01;}.cls-2{fill:#fff;fill-rule:evenodd;}</style></defs><circle class="cls-1" cx="118.95" cy="118.95" r="118.95"/><path class="cls-2" d="M206.35,123.6a6.44,6.44,0,0,0,1.32-3.86,6,6,0,0,0-5.94-6.14,5.86,5.86,0,0,0-4.74,2.48l-63.37,60.34-29-15.45a5.42,5.42,0,0,0-.48-.26c-.45-.21-.7-.31-1-.41a8.33,8.33,0,0,0-2.62-.44,8.41,8.41,0,0,0-8.27,8.55,8.66,8.66,0,0,0,3,6.6l31.15,26.88a13.07,13.07,0,0,0,2,1.69,12.58,12.58,0,0,0,16.33-1.6l.42-.47a12.92,12.92,0,0,0,1-1.24Z" transform="translate(-31.05 -41.05)"/></svg>