<svg id="Layer_1" data-name="Layer 1" xmlns="http://www.w3.org/2000/svg" viewBox="0 0 144.06 144.06"><defs><style>.cls-1{fill:#c1c1bf;}.cls-2{fill:#fff;}</style></defs><circle class="cls-1" cx="72.03" cy="72.03" r="72.03"/><path class="cls-2" d="M166.94,131.18a12.63,12.63,0,0,1-3,8.53,15.74,15.74,0,0,1-8.54,4.84v.22c4.33.53,7.6,1.85,9.82,3.93a11,11,0,0,1,3.33,8.44c0,5.15-1.87,9.17-5.6,12s-9.07,4.31-16,4.31a38.86,38.86,0,0,1-15.46-2.9V161a35.12,35.12,0,0,0,6.85,2.57,29.23,29.23,0,0,0,7.4,1q5.6,0,8.27-1.9c1.78-1.27,2.68-3.31,2.68-6.12a5.52,5.52,0,0,0-3.08-5.34q-3.07-1.57-9.81-1.58h-4.07v-8.68h4.14q6.22,0,9.1-1.63c1.92-1.08,2.87-2.94,2.87-5.58q0-6.07-7.61-6.08a17.34,17.34,0,0,0-5.37.88,26.33,26.33,0,0,0-6.06,3l-5.24-7.8A29.09,29.09,0,0,1,149,118.44q8.31,0,13.13,3.36A10.83,10.83,0,0,1,166.94,131.18Z" transform="translate(-77.97 -75.62)"/></svg>