<svg id="Layer_1" data-name="Layer 1" xmlns="http://www.w3.org/2000/svg" viewBox="0 0 237.91 237.91"><defs><style>.cls-1{fill:#aaa;}.cls-2{fill:#fff;}</style></defs><circle class="cls-1" cx="118.95" cy="118.95" r="118.95"/><path class="cls-2" d="M182.7,129.55a23.71,23.71,0,0,1-5.66,15.9q-5.65,6.65-16.35,9.64v.41q24.93,3.13,24.93,23.57,0,13.89-11,21.86t-30.55,8a88.54,88.54,0,0,1-14.88-1.16,77.79,77.79,0,0,1-14.81-4.22V181.18a59.46,59.46,0,0,0,13.31,4.94,54.55,54.55,0,0,0,12.5,1.6q8.85,0,12.91-2.49c2.7-1.66,4.05-4.25,4.05-7.8a8.77,8.77,0,0,0-2.11-6.3c-1.41-1.47-3.68-2.59-6.81-3.33A54.29,54.29,0,0,0,136,166.67h-6.13V146.44h6.26q20.51,0,20.51-10.49a6.45,6.45,0,0,0-3-5.86,15.18,15.18,0,0,0-8.14-1.9q-9.54,0-19.76,6.4l-11.17-18a54.23,54.23,0,0,1,16.18-7.77,70.75,70.75,0,0,1,19-2.31q15.47,0,24.25,6.13A19.47,19.47,0,0,1,182.7,129.55Z" transform="translate(-31.05 -38.76)"/></svg>