<?xml version="1.0" encoding="utf-8"?>
<!-- Generator: Adobe Illustrator 24.0.2, SVG Export Plug-In . SVG Version: 6.00 Build 0)  -->
<svg version="1.1" id="Layer_1" xmlns="http://www.w3.org/2000/svg" xmlns:xlink="http://www.w3.org/1999/xlink" x="0px" y="0px"
	 viewBox="0 0 636.2 504" style="enable-background:new 0 0 636.2 504;" xml:space="preserve">
<style type="text/css">
	.st0{fill:#FFFFFF;}
</style>
<g>
	<path class="st0" d="M108.5,251.6c0.1,62.3,39,115.4,93.9,136.4V115.1C147.5,136.2,108.6,189.3,108.5,251.6z"/>
	<path class="st0" d="M307,115.1v273c54.9-21.1,93.8-74.2,93.9-136.5C400.8,189.3,361.9,136.1,307,115.1z"/>
	<path class="st0" d="M372.7,0H254.1C114.7,0,0,103.9,0,254.2C0,391.7,114.7,504.7,254.1,504h118.5
		c137.8,0.7,263.5-112.3,263.5-249.8C636.2,103.9,510.4,0,372.7,0z M254.7,482.2C127.3,482.2,24.1,379,24.1,251.6
		S127.3,20.9,254.7,20.9s230.7,103.3,230.7,230.7C485.4,379,382.1,482.2,254.7,482.2z"/>
</g>
</svg>
