<?xml version="1.0" encoding="utf-8"?>
<!-- Generator: Adobe Illustrator 24.0.2, SVG Export Plug-In . SVG Version: 6.00 Build 0)  -->
<svg version="1.1" id="Layer_1" xmlns="http://www.w3.org/2000/svg" xmlns:xlink="http://www.w3.org/1999/xlink" x="0px" y="0px"
	 viewBox="0 0 592.1 97.5" style="enable-background:new 0 0 592.1 97.5;" xml:space="preserve">
<style type="text/css">
	.st0{fill-rule:evenodd;clip-rule:evenodd;fill:#FFFFFF;}
	.st1{fill-rule:evenodd;clip-rule:evenodd;fill:#DB8134;}
	.st2{fill-rule:evenodd;clip-rule:evenodd;fill:#DB8135;}
	.st3{fill-rule:evenodd;clip-rule:evenodd;fill:#DC8336;}
	.st4{fill-rule:evenodd;clip-rule:evenodd;fill:#DC8538;}
	.st5{fill-rule:evenodd;clip-rule:evenodd;fill:#DC853A;}
	.st6{fill-rule:evenodd;clip-rule:evenodd;fill:#DC873C;}
	.st7{fill-rule:evenodd;clip-rule:evenodd;fill:#DD883D;}
	.st8{fill-rule:evenodd;clip-rule:evenodd;fill:#DC883F;}
	.st9{fill-rule:evenodd;clip-rule:evenodd;fill:#DF8A40;}
	.st10{fill-rule:evenodd;clip-rule:evenodd;fill:#DF8A42;}
	.st11{fill-rule:evenodd;clip-rule:evenodd;fill:#DF8A43;}
	.st12{fill-rule:evenodd;clip-rule:evenodd;fill:#DF8C45;}
	.st13{fill-rule:evenodd;clip-rule:evenodd;fill:#DF8E46;}
	.st14{fill-rule:evenodd;clip-rule:evenodd;fill:#DF8E47;}
	.st15{fill-rule:evenodd;clip-rule:evenodd;fill:#DF8E4A;}
	.st16{fill-rule:evenodd;clip-rule:evenodd;fill:#DF9049;}
	.st17{fill-rule:evenodd;clip-rule:evenodd;fill:#E0914B;}
	.st18{fill-rule:evenodd;clip-rule:evenodd;fill:#E0914D;}
	.st19{fill-rule:evenodd;clip-rule:evenodd;fill:#DF924F;}
	.st20{fill-rule:evenodd;clip-rule:evenodd;fill:#DF9351;}
	.st21{fill-rule:evenodd;clip-rule:evenodd;fill:#E19652;}
	.st22{fill-rule:evenodd;clip-rule:evenodd;fill:#E19654;}
	.st23{fill-rule:evenodd;clip-rule:evenodd;fill:#E19555;}
	.st24{fill-rule:evenodd;clip-rule:evenodd;fill:#E39857;}
	.st25{fill-rule:evenodd;clip-rule:evenodd;fill:#E39858;}
	.st26{fill-rule:evenodd;clip-rule:evenodd;fill:#E49A5A;}
	.st27{fill-rule:evenodd;clip-rule:evenodd;fill:#E39A5B;}
	.st28{fill-rule:evenodd;clip-rule:evenodd;fill:#E49C5C;}
	.st29{fill-rule:evenodd;clip-rule:evenodd;fill:#E49C5E;}
	.st30{fill-rule:evenodd;clip-rule:evenodd;fill:#E59E60;}
	.st31{fill-rule:evenodd;clip-rule:evenodd;fill:#E59E62;}
	.st32{fill-rule:evenodd;clip-rule:evenodd;fill:#E4A064;}
	.st33{fill-rule:evenodd;clip-rule:evenodd;fill:#E4A065;}
	.st34{fill-rule:evenodd;clip-rule:evenodd;fill:#E5A267;}
	.st35{fill-rule:evenodd;clip-rule:evenodd;fill:#E5A467;}
	.st36{fill-rule:evenodd;clip-rule:evenodd;fill:#E5A469;}
	.st37{fill-rule:evenodd;clip-rule:evenodd;fill:#E5A36A;}
	.st38{fill-rule:evenodd;clip-rule:evenodd;fill:#E5A66C;}
	.st39{fill-rule:evenodd;clip-rule:evenodd;fill:#E5A86E;}
	.st40{fill-rule:evenodd;clip-rule:evenodd;fill:#E5A870;}
	.st41{fill-rule:evenodd;clip-rule:evenodd;fill:#E6A970;}
	.st42{fill-rule:evenodd;clip-rule:evenodd;fill:#E6A972;}
	.st43{fill-rule:evenodd;clip-rule:evenodd;fill:#E6AC74;}
	.st44{fill-rule:evenodd;clip-rule:evenodd;fill:#E6AC75;}
	.st45{fill-rule:evenodd;clip-rule:evenodd;fill:#E7AD77;}
	.st46{fill-rule:evenodd;clip-rule:evenodd;fill:#E8B07A;}
	.st47{fill-rule:evenodd;clip-rule:evenodd;fill:#E8AF7C;}
	.st48{fill-rule:evenodd;clip-rule:evenodd;fill:#E8B17B;}
	.st49{fill-rule:evenodd;clip-rule:evenodd;fill:#E8B27E;}
	.st50{fill-rule:evenodd;clip-rule:evenodd;fill:#E9B381;}
	.st51{fill-rule:evenodd;clip-rule:evenodd;fill:#E8B583;}
	.st52{fill-rule:evenodd;clip-rule:evenodd;fill:#E9B684;}
	.st53{fill-rule:evenodd;clip-rule:evenodd;fill:#E9B786;}
	.st54{fill-rule:evenodd;clip-rule:evenodd;fill:#E9B787;}
	.st55{fill-rule:evenodd;clip-rule:evenodd;fill:#EAB988;}
	.st56{fill-rule:evenodd;clip-rule:evenodd;fill:#EAB989;}
	.st57{fill-rule:evenodd;clip-rule:evenodd;fill:#EABB8B;}
	.st58{fill-rule:evenodd;clip-rule:evenodd;fill:#EBBD8F;}
	.st59{fill-rule:evenodd;clip-rule:evenodd;fill:#EBBD90;}
	.st60{fill-rule:evenodd;clip-rule:evenodd;fill:#EBBF93;}
	.st61{fill-rule:evenodd;clip-rule:evenodd;fill:#ECC095;}
	.st62{fill-rule:evenodd;clip-rule:evenodd;fill:#ECC195;}
	.st63{fill-rule:evenodd;clip-rule:evenodd;fill:#EDC397;}
	.st64{fill-rule:evenodd;clip-rule:evenodd;fill:#EDC399;}
	.st65{fill-rule:evenodd;clip-rule:evenodd;fill:#EEC59B;}
	.st66{fill-rule:evenodd;clip-rule:evenodd;fill:#EEC69D;}
	.st67{fill-rule:evenodd;clip-rule:evenodd;fill:#EEC79F;}
	.st68{fill-rule:evenodd;clip-rule:evenodd;fill:#EFC8A0;}
	.st69{fill-rule:evenodd;clip-rule:evenodd;fill:#EFC8A1;}
	.st70{fill-rule:evenodd;clip-rule:evenodd;fill:#EFCAA4;}
	.st71{fill-rule:evenodd;clip-rule:evenodd;fill:#F1CDA7;}
	.st72{fill-rule:evenodd;clip-rule:evenodd;fill:#F1CCA9;}
	.st73{fill-rule:evenodd;clip-rule:evenodd;fill:#F1CFAB;}
	.st74{fill-rule:evenodd;clip-rule:evenodd;fill:#F1D0AE;}
	.st75{fill-rule:evenodd;clip-rule:evenodd;fill:#F2D2B1;}
	.st76{fill-rule:evenodd;clip-rule:evenodd;fill:#F2D2B4;}
	.st77{fill-rule:evenodd;clip-rule:evenodd;fill:#F2D4B5;}
	.st78{fill-rule:evenodd;clip-rule:evenodd;fill:#F3D5B6;}
	.st79{fill-rule:evenodd;clip-rule:evenodd;fill:#F3D4B8;}
	.st80{fill-rule:evenodd;clip-rule:evenodd;fill:#F3D6B9;}
	.st81{fill-rule:evenodd;clip-rule:evenodd;fill:#F3D8BA;}
	.st82{fill-rule:evenodd;clip-rule:evenodd;fill:#F3D9BC;}
	.st83{fill-rule:evenodd;clip-rule:evenodd;fill:#F4D9BE;}
	.st84{fill-rule:evenodd;clip-rule:evenodd;fill:#F3DBBF;}
	.st85{fill-rule:evenodd;clip-rule:evenodd;fill:#F3DBC0;}
	.st86{fill-rule:evenodd;clip-rule:evenodd;fill:#F4DDC3;}
	.st87{fill-rule:evenodd;clip-rule:evenodd;fill:#F5DFC6;}
	.st88{fill-rule:evenodd;clip-rule:evenodd;fill:#F5DFC7;}
	.st89{fill-rule:evenodd;clip-rule:evenodd;fill:#F5E1CA;}
	.st90{fill-rule:evenodd;clip-rule:evenodd;fill:#F5E1CC;}
	.st91{fill-rule:evenodd;clip-rule:evenodd;fill:#F6E3CD;}
	.st92{fill-rule:evenodd;clip-rule:evenodd;fill:#F6E3CF;}
	.st93{fill-rule:evenodd;clip-rule:evenodd;fill:#F6E2D0;}
	.st94{fill-rule:evenodd;clip-rule:evenodd;fill:#F7E5D1;}
	.st95{fill-rule:evenodd;clip-rule:evenodd;fill:#F8E8D4;}
	.st96{fill-rule:evenodd;clip-rule:evenodd;fill:#F8E7D6;}
	.st97{fill-rule:evenodd;clip-rule:evenodd;fill:#F7E7D8;}
	.st98{fill-rule:evenodd;clip-rule:evenodd;fill:#F8E9D9;}
	.st99{fill-rule:evenodd;clip-rule:evenodd;fill:#F9EBDC;}
	.st100{fill-rule:evenodd;clip-rule:evenodd;fill:#FAECDF;}
	.st101{fill-rule:evenodd;clip-rule:evenodd;fill:#F9EDE0;}
	.st102{fill-rule:evenodd;clip-rule:evenodd;fill:#FAF0E4;}
	.st103{fill-rule:evenodd;clip-rule:evenodd;fill:#FAF1E6;}
	.st104{fill-rule:evenodd;clip-rule:evenodd;fill:#FAF1E8;}
	.st105{fill-rule:evenodd;clip-rule:evenodd;fill:#FCF3E9;}
	.st106{fill-rule:evenodd;clip-rule:evenodd;fill:#FDF4EA;}
	.st107{fill-rule:evenodd;clip-rule:evenodd;fill:#FDF5EE;}
	.st108{fill-rule:evenodd;clip-rule:evenodd;fill:#FDF6EF;}
	.st109{fill-rule:evenodd;clip-rule:evenodd;fill:#FDF8F1;}
	.st110{fill-rule:evenodd;clip-rule:evenodd;fill:#FDF8F3;}
	.st111{fill-rule:evenodd;clip-rule:evenodd;fill:#FDF8F5;}
	.st112{fill-rule:evenodd;clip-rule:evenodd;fill:#FFFCF6;}
	.st113{fill-rule:evenodd;clip-rule:evenodd;fill:#FFFFFC;}
</style>
<g>
	<path class="st0" d="M26.7,2.1H0v93h26.4c14.2,0,24.3-3.1,33.3-10.8c10.4-8.7,17-21.9,17-35.8C76.7,21.2,56.2,2.1,26.7,2.1
		L26.7,2.1z M47.9,72.2c-5.9,4.9-13.2,7.3-25,7.3h-4.9V18.1h4.9c11.8,0,18.7,2.1,25,7.3C54.2,30.9,58,39.6,58,48.6
		C58,57.6,54.2,66.6,47.9,72.2z M85,95.1h18v-93H85V95.1z M147.5,37.8c-11.1-4.2-14.2-6.6-14.2-11.8c0-5.9,5.9-10.1,13.5-10.1
		c5.6,0,10.1,2.1,14.6,7.3l9.7-12.1c-8-6.9-17.4-10.4-27.4-10.4c-16.7,0-29.2,11.5-29.2,26.7c0,12.8,5.9,19.1,22.9,25.3
		c7.3,2.4,10.8,4.2,12.5,5.2c3.8,2.4,5.6,5.9,5.6,9.7c0,7.6-5.9,13.2-14.2,13.2s-15.6-4.5-19.8-12.5L110,79.8
		c8.3,12.1,18.4,17.7,32.3,17.7c18.7,0,31.9-12.5,31.9-30.5C174.3,52.1,168,45.5,147.5,37.8z M179.8,48.6
		c0,27.4,21.5,48.6,49.3,48.6c7.6,0,14.6-1.4,22.6-5.2V70.5c-7.3,7.3-13.5,10.4-21.9,10.4c-18,0-31.2-13.5-31.2-32.3
		c0-17.7,13.5-31.9,30.5-31.9c8.7,0,15.3,3.1,22.6,10.4V5.9C244,1.7,237.4,0,229.4,0C202,0,179.8,21.9,179.8,48.6L179.8,48.6z"/>
	<path class="st1" d="M308.2,0c-27.4,0-49.6,21.5-49.6,47.9c0,28.5,21.2,49.3,49.6,49.3c27.8,0,49.6-21.2,49.6-48.6
		C357.9,21.5,336.4,0,308.2,0z"/>
	<path class="st1" d="M308.2,0c-27.4,0-49.6,21.5-49.6,47.9c0,28.5,21.2,49.3,49.6,49.3c27.8,0,49.6-21.2,49.6-48.6
		C357.9,21.5,336.4,0,308.2,0z M308.2,48.6h49.6H308.2z"/>
	<path class="st1" d="M308.2,48.6h49.6c0-27.1-21.5-48.6-49.6-48.6c-27.4,0-49.6,21.5-49.6,47.9c0,28.5,21.2,49.3,49.6,49.3
		c27.8,0,49.6-21.2,49.6-48.6L308.2,48.6L308.2,48.6z"/>
	<path class="st2" d="M308.2,48.6h49.6c0-27.1-21.5-48.6-49.6-48.6c-27.4,0-49.6,21.5-49.6,47.9c0,28.5,21.2,49.3,49.6,49.3
		c27.8,0,49.6-21.2,49.6-48.6L308.2,48.6L308.2,48.6z"/>
	<path class="st3" d="M308.2,48.6h49.6c0-27.1-21.5-48.6-49.6-48.6c-27.4,0-49.6,21.5-49.6,47.9c0,28.5,21.2,49.3,49.6,49.3
		c27.8,0,49.6-21.2,49.6-48.6L308.2,48.6L308.2,48.6z"/>
	<path class="st4" d="M308.2,48.6h49.6c0-27.1-21.5-48.6-49.6-48.6c-27.4,0-49.6,21.5-49.6,47.9c0,28.5,21.2,49.3,49.6,49.3
		c27.8,0,49.6-21.2,49.6-48.6L308.2,48.6L308.2,48.6z"/>
	<path class="st4" d="M308.2,48.6h49.6c0-27.1-21.5-48.6-49.6-48.6c-27.4,0-49.6,21.5-49.6,47.9c0,28.5,21.2,49.3,49.6,49.3
		c27.8,0,49.6-21.2,49.6-48.6L308.2,48.6L308.2,48.6z"/>
	<path class="st5" d="M308.2,48.6h49.6c0-27.1-21.5-48.6-49.6-48.6c-27.4,0-49.6,21.5-49.6,47.9c0,28.5,21.2,49.3,49.6,49.3
		c27.8,0,49.6-21.2,49.6-48.6L308.2,48.6L308.2,48.6z"/>
	<path class="st6" d="M308.2,48.6h49.6c0-27.1-21.5-48.6-49.6-48.6c-27.4,0-49.6,21.5-49.6,47.9c0,28.5,21.2,49.3,49.6,49.3
		c27.8,0,49.6-21.2,49.6-48.6L308.2,48.6L308.2,48.6z"/>
	<path class="st6" d="M308.2,48.6h49.6c0-27.1-21.5-48.6-49.6-48.6c-27.4,0-49.6,21.5-49.6,47.9c0,28.5,21.2,49.3,49.6,49.3
		c27.8,0,49.6-21.2,49.6-48.6L308.2,48.6L308.2,48.6z"/>
	<path class="st7" d="M308.2,48.6h49.6c0-27.1-21.5-48.6-49.6-48.6c-27.4,0-49.6,21.5-49.6,47.9c0,28.5,21.2,49.3,49.6,49.3
		c27.8,0,49.6-21.2,49.6-48.6L308.2,48.6L308.2,48.6z"/>
	<path class="st8" d="M308.2,48.6h49.6c0-27.1-21.5-48.6-49.6-48.6c-27.4,0-49.6,21.5-49.6,47.9c0,28.5,21.2,49.3,49.6,49.3
		c27.8,0,49.6-21.2,49.6-48.6L308.2,48.6L308.2,48.6z"/>
	<path class="st9" d="M308.2,48.6h49.6c0-27.1-21.5-48.6-49.6-48.6c-27.4,0-49.6,21.5-49.6,47.9c0,28.5,21.2,49.3,49.6,49.3
		c27.8,0,49.6-21.2,49.6-48.6L308.2,48.6L308.2,48.6z"/>
	<path class="st10" d="M308.2,48.6h49.6c0-27.1-21.5-48.6-49.6-48.6c-27.4,0-49.6,21.5-49.6,47.9c0,28.5,21.2,49.3,49.6,49.3
		c27.8,0,49.6-21.2,49.6-48.6L308.2,48.6L308.2,48.6z"/>
	<path class="st11" d="M308.2,48.6h49.6c0-27.1-21.5-48.6-49.6-48.6c-27.4,0-49.6,21.5-49.6,47.9c0,28.5,21.2,49.3,49.6,49.3
		c27.8,0,49.6-21.2,49.6-48.6L308.2,48.6L308.2,48.6z"/>
	<path class="st12" d="M308.2,48.6h49.6c0-27.1-21.5-48.6-49.6-48.6c-27.4,0-49.6,21.5-49.6,47.9c0,28.5,21.2,49.3,49.6,49.3
		c27.8,0,49.6-21.2,49.6-48.6L308.2,48.6L308.2,48.6z"/>
	<path class="st13" d="M308.2,48.6h49.6H308.2z M357.9,48.6c0-0.4,0-0.8,0-1.3v0c0-0.4,0-0.8,0-1.2v0c0-0.4,0-0.8-0.1-1.2
		c0,0,0,0,0-0.1c0-0.4-0.1-0.8-0.1-1.2c0,0,0,0,0-0.1c0-0.4-0.1-0.8-0.1-1.2v0c0-0.4-0.1-0.7-0.2-1.1c0,0,0-0.1,0-0.1
		c-0.1-0.4-0.1-0.7-0.2-1.1l0-0.1l-0.1-0.6l-0.1-0.7l-0.1-0.3c-0.1-0.3-0.1-0.6-0.2-0.8c0-0.1-0.1-0.3-0.1-0.4l-0.2-0.8l-0.2-0.7
		l-0.1-0.4c-0.1-0.3-0.2-0.5-0.2-0.8l-0.1-0.4c-6.1-19.8-24.6-34-47.4-34c-20.1,0-37.4,11.5-45.2,28.1c-2.9,6.3-4.4,13.2-4.4,20.2
		c0,6,1,11.7,2.8,16.9l0.2,0.4l0.1,0.2c1.9,5.2,4.7,10,8.2,14.3c8.9,10.7,22.5,17.1,38.4,17.1c22.6,0,41.2-14,47.4-33.9l0.3-1.1v0
		c0.9-3.2,1.5-6.5,1.7-9.8l0,0c0-0.4,0.1-0.8,0.1-1.3v0C357.9,50.3,357.9,49.4,357.9,48.6z"/>
	<path class="st14" d="M308.2,48.6h49.3c0-18.9-10.8-35.2-26.5-43.4C324.2,1.9,316.5,0,308.2,0c-10.7,0-20.5,3.3-28.6,8.8
		c-12.5,8.9-20.7,23.4-20.7,39.8c0,18.1,9.9,34,24.6,42.6c7.2,3.9,15.6,6,24.7,6c11.5,0,22.1-3.7,30.4-9.9
		c11.5-9.1,18.9-23.1,18.9-38.7L308.2,48.6L308.2,48.6z"/>
	<path class="st15" d="M308.2,48.6h48.6C356.8,21.9,335,0,308.2,0c-0.4,0-0.8,0-1.2,0h0c-26.1,0.7-47.3,22.3-47.3,48.6
		c0,20.9,13.2,39.4,32.9,46.3c4.9,1.5,10.2,2.3,15.7,2.3c6.8,0,13.2-1.3,19.1-3.6c17.9-7.8,29.6-25.5,29.5-45L308.2,48.6L308.2,48.6
		L308.2,48.6z"/>
	<path class="st16" d="M308.2,48.6h48.2c0-26.4-21.5-48.3-48.2-48.3c-26.7,0-48.3,21.9-48.3,48.3c-0.1,26.6,21.5,48.2,48,48.3
		c0.1,0,0.1,0,0.2,0c26.6,0.1,48.2-21.5,48.2-48c0-0.1,0-0.1,0-0.2H308.2z"/>
	<path class="st17" d="M308.2,48.6h47.9c0-26.4-21.5-47.6-47.9-47.6c-26.4,0-47.9,21.2-47.9,47.6c0,26.4,21.5,47.9,47.9,47.9
		c26.4,0,47.9-21.5,47.9-47.9H308.2z"/>
	<path class="st18" d="M308.2,48.6h47.5c0-26-21.5-47.2-47.5-47.2c-26,0-47.6,21.2-47.6,47.2c0,26.4,21.5,47.6,47.6,47.6
		c26,0,47.5-21.2,47.5-47.6H308.2z"/>
	<path class="st19" d="M308.2,48.6h46.9c0-25.7-20.8-46.9-46.9-46.9c-26,0-46.9,21.2-46.9,46.9c0,26,20.8,47.2,46.9,47.2
		c26,0,46.9-21.2,46.9-47.2L308.2,48.6L308.2,48.6z"/>
	<path class="st20" d="M308.2,48.6h46.5c0-25.7-20.8-46.5-46.5-46.5c-25.7,0-46.5,20.8-46.5,46.5s20.8,46.5,46.5,46.5
		c25.7,0,46.5-20.8,46.5-46.5H308.2z"/>
	<path class="st21" d="M308.2,48.6h46.2c0-25.3-20.8-45.8-46.2-45.8c-25.3,0-46.2,20.5-46.2,45.8c0,25.7,20.8,46.2,46.2,46.2
		c25.3,0,46.2-20.5,46.2-46.2H308.2z"/>
	<path class="st22" d="M308.2,48.6h45.5c0-25-20.1-45.5-45.5-45.5c-25.3,0-45.8,20.5-45.8,45.5c0,25.3,20.5,45.8,45.8,45.8
		c25.3,0,45.5-20.5,45.5-45.8H308.2z"/>
	<path class="st23" d="M308.2,48.6h45.1c0-24.9-20.1-45.1-45-45.1c-0.1,0-0.1,0-0.2,0c-24.9-0.1-45.1,20.1-45.1,44.9
		c0,0.1,0,0.1,0,0.2c0,25,20.1,45.5,45.1,45.5c25,0,45.1-20.5,45.1-45.5H308.2z"/>
	<path class="st24" d="M308.2,48.6H353c0-24.6-20.1-44.8-44.8-44.8c-24.6,0-44.8,20.1-44.8,44.8c0,25,20.1,44.8,44.8,44.8
		c24.7,0.1,44.7-19.9,44.8-44.6c0-0.1,0-0.1,0-0.2H308.2z"/>
	<path class="st25" d="M308.2,48.6h44.4c0-24.3-19.8-44.1-44.4-44.1c-24.6,0-44.4,19.8-44.4,44.1C263.7,73.1,283.5,93,308,93
		c0.1,0,0.2,0,0.3,0c24.5,0.1,44.4-19.7,44.4-44.2c0-0.1,0-0.2,0-0.3L308.2,48.6L308.2,48.6z"/>
	<path class="st26" d="M308.2,48.6H352c0-24.3-19.4-43.7-43.7-43.7c-24.3,0-44.1,19.4-44.1,43.7c0,24.3,19.8,44.1,44.1,44.1
		c24.3,0,43.7-19.8,43.7-44.1H308.2L308.2,48.6z"/>
	<path class="st27" d="M308.2,48.6h43.4c0-24-19.4-43.4-43.4-43.4c-24,0-43.4,19.4-43.4,43.4s19.4,43.7,43.4,43.7
		c23.9,0,43.4-19.8,43.4-43.7H308.2z"/>
	<path class="st28" d="M308.2,48.6h43c0-23.6-19.4-43-43-43c-23.6,0-43,19.4-43,43c0,24,19.4,43,43,43c23.6,0,43-19.1,43-43H308.2z"
		/>
	<path class="st29" d="M308.2,48.6h42.7c0-23.3-19.1-42.3-42.7-42.3c-23.6,0-42.7,19.1-42.7,42.3c0,23.6,19.1,42.7,42.7,42.7
		c23.6,0,42.7-19.1,42.7-42.7H308.2z"/>
	<path class="st30" d="M308.2,48.6h42c0-23.2-18.7-42-41.8-42c-0.1,0-0.1,0-0.2,0c-23.3,0-42,18.7-42,42s18.7,42.4,42,42.4
		c23.3,0,42-19.1,42-42.4L308.2,48.6L308.2,48.6z"/>
	<path class="st31" d="M308.2,48.6h41.6c0-22.9-18.7-41.7-41.6-41.7c-22.9,0-41.7,18.7-41.7,41.7c0,23.3,18.7,42,41.7,42
		c22.9,0,41.6-18.7,41.6-42L308.2,48.6L308.2,48.6z"/>
	<path class="st32" d="M308.2,48.6h41.3c0-22.6-18.4-41.3-41.3-41.3c-22.9,0-41.3,18.7-41.3,41.3c0,22.9,18.4,41.3,41.3,41.3
		c22.9,0,41.3-18.4,41.3-41.3H308.2z"/>
	<path class="st32" d="M308.2,48.6h41c0-22.6-18.4-40.6-41-40.6c-22.6,0-41,18-41,40.6s18.4,41,41,41c22.6,0,41-18.4,41-41H308.2z"
		/>
	<path class="st33" d="M308.2,48.6h40.3c0-22.2-18-40.3-40.3-40.3c-22.2,0-40.3,18-40.3,40.3c0,22.6,18,40.6,40.3,40.6
		c22.2,0,40.3-18,40.3-40.6L308.2,48.6L308.2,48.6z"/>
	<path class="st34" d="M308.2,48.6h39.9c0-21.9-17.7-39.9-39.9-39.9c-22.2,0-39.9,18.1-39.9,39.9c0,22.2,17.7,40.3,39.9,40.3
		c22.2,0,39.9-18.1,39.9-40.3L308.2,48.6L308.2,48.6z"/>
	<path class="st35" d="M308.2,48.6h39.6c0-21.9-17.7-39.6-39.6-39.6c-21.9,0-39.6,17.7-39.6,39.6s17.7,39.6,39.6,39.6
		c21.9,0,39.6-17.7,39.6-39.6H308.2z"/>
	<path class="st36" d="M308.2,48.6h39.2c0-21.5-17.7-38.9-39.2-38.9c-21.5,0-39.2,17.4-39.2,38.9c0,21.9,17.7,39.2,39.2,39.2
		c21.5,0,39.2-17.4,39.2-39.2H308.2z"/>
	<path class="st37" d="M308.2,48.6h38.5c0-21.2-17-38.5-38.5-38.5c-21.5,0-38.5,17.4-38.5,38.5c0,21.5,17,38.9,38.5,38.9
		c21.5,0,38.5-17.4,38.5-38.9H308.2z"/>
	<path class="st38" d="M308.2,48.6h38.2c0.1-21-16.9-38.1-38-38.2c-0.1,0-0.1,0-0.2,0c-21-0.1-38.1,16.9-38.2,38c0,0.1,0,0.2,0,0.2
		c0,21.2,17,38.5,38.2,38.5c21.2,0,38.2-17.4,38.2-38.5H308.2z"/>
	<path class="st38" d="M308.2,48.6h37.8c0-20.8-17-37.8-37.8-37.8c-20.8,0-37.8,17-37.8,37.8c0,20.8,17,37.8,37.8,37.8
		c20.8,0,37.8-17,37.8-37.8L308.2,48.6L308.2,48.6z"/>
	<path class="st39" d="M308.2,48.6h37.5c0-20.5-17-37.1-37.5-37.1c-20.5,0-37.5,16.7-37.5,37.1c0,20.8,17,37.5,37.5,37.5
		c20.5,0,37.5-16.7,37.5-37.5H308.2z"/>
	<path class="st40" d="M308.2,48.6H345c0-20.1-16.3-36.8-36.8-36.8c-20.5,0-36.8,16.7-36.8,36.8c0,20.5,16.3,37.1,36.8,37.1
		c20.5,0,36.8-16.7,36.8-37.1H308.2z"/>
	<path class="st41" d="M308.2,48.6h36.4c0-20.1-16.3-36.4-36.4-36.4c-20.1,0-36.5,16.3-36.5,36.4c0,20.1,16.3,36.4,36.5,36.4
		c20.1,0,36.4-16.3,36.4-36.4H308.2z"/>
	<path class="st42" d="M308.2,48.6h36.1c0-19.8-16.3-36.1-36.1-36.1c-19.8,0-36.1,16.3-36.1,36.1c0,20.1,16.3,36.1,36.1,36.1
		c19.8,0,36.1-16,36.1-36.1H308.2z"/>
	<path class="st43" d="M308.2,48.6H344c0-19.4-16-35.4-35.8-35.4c-19.8,0-35.8,16-35.8,35.4c0,19.7,15.9,35.7,35.7,35.8
		c0,0,0.1,0,0.1,0c19.7,0,35.7-15.9,35.8-35.7c0,0,0-0.1,0-0.1H308.2z"/>
	<path class="st44" d="M308.2,48.6h35.1c0.1-19.3-15.6-35-34.9-35.1c-0.1,0-0.1,0-0.2,0c-19.3-0.1-35,15.6-35.1,34.9
		c0,0.1,0,0.1,0,0.2c0,19.4,15.6,35.4,35.1,35.4c19.4,0,35.1-16,35.1-35.4H308.2z"/>
	<path class="st45" d="M308.2,48.6h34.7c0-19.1-15.6-34.7-34.7-34.7c-19.1,0-34.7,15.6-34.7,34.7c0,19.4,15.6,34.7,34.7,34.7
		c19.1,0.1,34.6-15.4,34.7-34.5c0-0.1,0-0.2,0-0.2H308.2z"/>
	<path class="st45" d="M308.2,48.6h34.4c0-18.7-15.3-34.4-34.4-34.4c-19.1,0-34.4,15.6-34.4,34.4c0,19.1,15.3,34.4,34.4,34.4
		c18.9,0.1,34.3-15.2,34.4-34.1c0-0.1,0-0.2,0-0.3H308.2z"/>
	<path class="st46" d="M308.2,48.6h34c0-18.7-15.3-33.7-34-33.7c-18.7,0-34,14.9-34,33.7c0,18.7,15.3,34,34,34c18.7,0,34-15.3,34-34
		H308.2z"/>
	<path class="st47" d="M308.2,48.6h33.3c0-18.4-14.9-33.3-33.3-33.3c-18.4,0-33.3,14.9-33.3,33.3c0,18.7,14.9,33.7,33.3,33.7
		c18.4,0,33.3-14.9,33.3-33.7H308.2z"/>
	<path class="st48" d="M308.2,48.6h33c0-18-14.6-33-33-33c-18.4,0-33,14.9-33,33c0,18.4,14.6,33,33,33c18.4,0,33-14.6,33-33H308.2z"
		/>
	<path class="st49" d="M308.2,48.6h32.6c0-18-14.6-32.6-32.6-32.6c0,0,0,0-0.1,0c-18,0-32.6,14.6-32.6,32.6c0,0,0,0,0,0.1
		c0,18,14.6,32.6,32.6,32.6c0,0,0.1,0,0.1,0c18,0,32.6-14.6,32.6-32.6c0,0,0,0,0-0.1H308.2z"/>
	<path class="st49" d="M308.2,48.6h32.3c0-17.7-14.6-31.9-32.3-31.9c-17.7,0-32.3,14.2-32.3,31.9s14.6,32.3,32.3,32.3
		c17.7,0,32.3-14.6,32.3-32.3H308.2z"/>
	<path class="st50" d="M308.2,48.6h31.6c0-17.4-14.2-31.6-31.6-31.6c-17.4-0.1-31.5,14-31.6,31.4c0,0.1,0,0.1,0,0.2
		c0,17.7,13.9,31.9,31.6,31.9c17.4,0,31.6-14.2,31.6-31.9H308.2z"/>
	<path class="st50" d="M308.2,48.6h31.2c0.1-17.2-13.8-31.2-31-31.2c-0.1,0-0.2,0-0.3,0c-17.2-0.1-31.2,13.8-31.2,31
		c0,0.1,0,0.2,0,0.3c-0.1,17.2,13.8,31.2,31,31.2c0.1,0,0.2,0,0.3,0c17.2,0.1,31.2-13.8,31.2-31c0-0.1,0-0.2,0-0.3H308.2L308.2,48.6
		z"/>
	<path class="st51" d="M308.2,48.6h30.9c0-17-13.9-30.9-30.9-30.9c-17,0-30.9,13.9-30.9,30.9s13.9,30.9,30.9,30.9
		c17,0,30.9-13.9,30.9-30.9H308.2z"/>
	<path class="st52" d="M308.2,48.6h30.5c0-16.7-13.9-30.2-30.5-30.2c-16.7,0-30.5,13.5-30.5,30.2c0,17,13.9,30.5,30.5,30.5
		c16.7,0,30.5-13.5,30.5-30.5H308.2z"/>
	<path class="st53" d="M308.2,48.6h29.8c0-16.3-13.2-29.9-29.8-29.9c-16.7,0-29.9,13.5-29.9,29.9c0,16.7,13.2,30.2,29.9,30.2
		c16.7,0,29.8-13.5,29.8-30.2H308.2z"/>
	<path class="st54" d="M308.2,48.6h29.5c0-16.3-13.2-29.5-29.5-29.5c0,0,0,0-0.1,0c-16.3,0-29.5,13.2-29.5,29.5s13.2,29.5,29.5,29.5
		c16.3,0,29.5-13.2,29.5-29.5c0,0,0,0,0-0.1L308.2,48.6L308.2,48.6z"/>
	<path class="st55" d="M308.2,48.6h29.2c0-16-13.2-29.2-29.2-29.2c-16,0-29.2,13.2-29.2,29.2c0,16.3,13.2,29.2,29.2,29.2
		c16,0,29.2-12.8,29.2-29.2H308.2z"/>
	<path class="st56" d="M308.2,48.6h28.8c0-15.6-12.8-28.5-28.8-28.5c-16,0-28.8,12.8-28.8,28.5c0,15.9,12.8,28.8,28.7,28.8
		c0,0,0.1,0,0.1,0c15.9,0,28.8-12.8,28.8-28.7c0,0,0-0.1,0-0.1H308.2z"/>
	<path class="st57" d="M308.2,48.6h28.1c0.1-15.5-12.4-28.1-27.9-28.1c-0.1,0-0.2,0-0.2,0c-15.6,0-28.1,12.5-28.1,28.1
		s12.5,28.5,28.1,28.5c15.6,0,28.1-12.8,28.1-28.5H308.2z"/>
	<path class="st57" d="M308.2,48.6H336c0-15.3-12.5-27.8-27.8-27.8c-15.3,0-27.8,12.5-27.8,27.8c0,15.6,12.5,27.8,27.8,27.8
		c15.3,0,27.8-12.1,27.8-27.8L308.2,48.6L308.2,48.6z"/>
	<path class="st58" d="M308.2,48.6h27.4c0-14.9-12.1-27.4-27.4-27.4c-15.3,0-27.4,12.5-27.4,27.4c-0.1,15.1,12,27.3,27.1,27.4
		c0.1,0,0.2,0,0.3,0c15.1,0.1,27.3-12,27.4-27.1c0-0.1,0-0.2,0-0.3H308.2z"/>
	<path class="st59" d="M308.2,48.6h27.1c0-14.9-12.1-26.7-27.1-26.7c-14.9,0-27.1,11.8-27.1,26.7s12.1,27.1,27.1,27.1
		c14.9,0,27.1-12.1,27.1-27.1H308.2L308.2,48.6z"/>
	<path class="st60" d="M308.2,48.6h26.4c0-14.6-11.8-26.4-26.4-26.4c0,0,0,0,0,0c-14.6,0-26.4,11.8-26.4,26.4c0,0,0,0,0,0
		c0,14.6,11.8,26.7,26.4,26.7c14.6,0,26.4-12.1,26.4-26.7H308.2z"/>
	<path class="st60" d="M308.2,48.6h26c0-14.2-11.8-26-26-26c-14.6,0-26,11.8-26,26c0,14.6,11.5,26,26,26c14.2,0,26-11.5,26-26H308.2
		z"/>
	<path class="st61" d="M308.2,48.6h25.7c0-14.2-11.5-25.7-25.7-25.7c-14.2,0-25.7,11.5-25.7,25.7s11.5,25.7,25.7,25.7
		c14.2,0,25.7-11.4,25.7-25.6c0,0,0-0.1,0-0.1H308.2z"/>
	<path class="st62" d="M308.2,48.6h25.3c0-13.9-11.4-25-25.3-25c-13.9,0-25.3,11.1-25.3,25c0,13.9,11.5,25.3,25.3,25.3
		c13.9,0,25.3-11.5,25.3-25.3L308.2,48.6L308.2,48.6z"/>
	<path class="st63" d="M308.2,48.6h24.6c0-13.5-11.1-24.6-24.6-24.6c-13.5,0-24.6,11.1-24.6,24.6c0,13.9,11.1,25,24.6,25
		c13.5,0,24.6-11.1,24.6-25H308.2z"/>
	<path class="st64" d="M308.2,48.6h24.3c0-13.2-10.8-24.3-24.3-24.3c-13.5,0-24.3,11.1-24.3,24.3c-0.1,13.3,10.7,24.2,24,24.3
		c0.1,0,0.2,0,0.3,0c13.3,0.1,24.2-10.7,24.3-24c0-0.1,0-0.2,0-0.3H308.2z"/>
	<path class="st65" d="M308.2,48.6h23.9c0-13.2-10.8-24-23.9-24c-13.2,0-24,10.8-24,24c0,13.2,10.8,24,24,24
		c13.2,0,23.9-10.8,23.9-24H308.2z"/>
	<path class="st66" d="M308.2,48.6h23.6c0-12.8-10.8-23.3-23.6-23.3c-12.8,0-23.6,10.4-23.6,23.3c0,13.2,10.8,23.6,23.6,23.6
		c12.8,0,23.6-10.4,23.6-23.6H308.2L308.2,48.6z"/>
	<path class="st67" d="M308.2,48.6h22.9c0-12.5-10.1-22.9-22.9-22.9c-12.8,0-22.9,10.4-22.9,22.9c0,12.8,10.1,23.3,22.9,23.3
		c12.8,0,22.9-10.4,22.9-23.3H308.2L308.2,48.6z"/>
	<path class="st68" d="M308.2,48.6h22.6c0-12.4-10-22.5-22.5-22.6c0,0-0.1,0-0.1,0c-12.4,0-22.5,10-22.6,22.5c0,0,0,0.1,0,0.1
		c0,12.4,10,22.5,22.5,22.6c0,0,0.1,0,0.1,0c12.4,0,22.5-10,22.6-22.5c0,0,0-0.1,0-0.1H308.2z"/>
	<path class="st69" d="M308.2,48.6h22.2c0-12.1-10.1-22.2-22.2-22.2c-12.2,0-22.2,10.1-22.2,22.2c0,12.2,9.8,22.2,22.1,22.2
		c0,0,0.1,0,0.1,0c12.2,0,22.2-9.8,22.2-22.1c0,0,0-0.1,0-0.1H308.2z"/>
	<path class="st70" d="M308.2,48.6h21.9c0-11.8-9.7-21.5-21.9-21.5c-12.2,0-21.9,9.7-21.9,21.5c-0.1,12,9.7,21.8,21.7,21.9
		c0.1,0,0.1,0,0.2,0c12,0,21.8-9.7,21.9-21.7c0-0.1,0-0.1,0-0.2H308.2z"/>
	<path class="st70" d="M308.2,48.6h21.2c0.1-11.6-9.3-21.1-20.9-21.2c-0.1,0-0.2,0-0.3,0c-11.6-0.1-21.1,9.3-21.2,20.9
		c0,0.1,0,0.2,0,0.3c0,11.8,9.4,21.5,21.2,21.5c11.8,0,21.2-9.7,21.2-21.5H308.2z"/>
	<path class="st71" d="M308.2,48.6h20.8c0-11.5-9.4-20.8-20.8-20.8c-11.5,0-20.8,9.4-20.8,20.8s9.4,20.8,20.8,20.8
		c11.4,0,20.8-9.4,20.8-20.8H308.2z"/>
	<path class="st72" d="M308.2,48.6h20.5c0-11.1-9.4-20.5-20.5-20.5c-11.5,0-20.5,9.4-20.5,20.5c0,11.5,9,20.5,20.5,20.5
		c11.1,0,20.5-9,20.5-20.5H308.2z"/>
	<path class="st73" d="M308.2,48.6h20.1c0-11.1-9-19.8-20.1-19.8c-11.1,0-20.1,8.7-20.1,19.8c0,11.1,9,20.1,20.1,20.1
		c11.1,0,20.1-9,20.1-20.1H308.2z"/>
	<path class="st73" d="M308.2,48.6h19.4c0-10.7-8.6-19.4-19.4-19.4c0,0,0,0-0.1,0c-10.8,0-19.4,8.7-19.4,19.4s8.7,19.8,19.4,19.8
		c10.8,0,19.4-9,19.4-19.8H308.2L308.2,48.6z"/>
	<path class="st74" d="M308.2,48.6h19.1c0-10.4-8.7-19.1-19.1-19.1c-10.4,0-19.1,8.7-19.1,19.1c0,10.5,8.5,19.1,19,19.1
		c0,0,0.1,0,0.1,0c10.5,0,19.1-8.5,19.1-19c0,0,0-0.1,0-0.1H308.2z"/>
	<path class="st74" d="M308.2,48.6H327c0-10.1-8.3-18.7-18.7-18.7c-10.4,0-18.7,8.7-18.7,18.7c0,10.3,8.3,18.7,18.6,18.7
		c0.1,0,0.1,0,0.2,0c10.3,0,18.7-8.3,18.7-18.6c0-0.1,0-0.1,0-0.2H308.2z"/>
	<path class="st75" d="M308.2,48.6h18.4c0-10.1-8.3-18-18.4-18c-10.1,0-18.4,8-18.4,18S298.2,67,308.2,67c10.1,0,18.4-8.3,18.4-18.4
		H308.2z"/>
	<path class="st76" d="M308.2,48.6h17.7c0-9.7-8-17.7-17.7-17.7c-9.7,0-17.7,8-17.7,17.7c0,10.1,8,18,17.7,18c9.7,0,17.7-8,17.7-18
		H308.2z"/>
	<path class="st77" d="M308.2,48.6h17.4c0-9.4-7.6-17.4-17.4-17.4c-9.7,0-17.4,8-17.4,17.4c0,9.7,7.6,17.4,17.4,17.4
		c9.7,0,17.4-7.6,17.4-17.4H308.2z"/>
	<path class="st78" d="M308.2,48.6h17c0-9.4-7.6-17-17-17c-9.4,0-17,7.6-17,17s7.6,17,17,17c9.4,0,17-7.6,17-17H308.2L308.2,48.6z"
		/>
	<path class="st79" d="M308.2,48.6h16.7c0-9-7.6-16.3-16.7-16.3c-9,0-16.7,7.3-16.7,16.3c0,9.4,7.6,16.7,16.7,16.7
		c9,0,16.7-7.3,16.7-16.7H308.2z"/>
	<path class="st80" d="M308.2,48.6h16c0-8.8-7.1-15.9-15.9-16c0,0-0.1,0-0.1,0c-8.8,0-15.9,7.1-16,15.9c0,0,0,0.1,0,0.1
		c0,9,6.9,16.3,16,16.3c9,0,16-7.3,16-16.3H308.2z"/>
	<path class="st81" d="M308.2,48.6h15.6c0-8.6-6.9-15.6-15.5-15.6c0,0-0.1,0-0.1,0c-8.7,0-15.6,6.9-15.6,15.6s6.9,15.6,15.6,15.6
		c8.6,0,15.6-6.9,15.6-15.5c0,0,0-0.1,0-0.1H308.2z"/>
	<path class="st82" d="M308.2,48.6h15.3c0-8.3-6.9-15.3-15.3-15.3S293,40.3,293,48.6c0,8.7,6.9,15.3,15.3,15.3s15.3-6.6,15.3-15.3
		H308.2z"/>
	<path class="st83" d="M308.2,48.6h14.9c0-8-6.6-14.6-14.9-14.6s-14.9,6.6-14.9,14.6c0,8.3,6.6,14.9,14.9,14.9s14.9-6.6,14.9-14.9
		H308.2z"/>
	<path class="st84" d="M308.2,48.6h14.2c0-8-6.2-14.2-14.2-14.2c-8,0-14.2,6.2-14.2,14.2s6.2,14.6,14.2,14.6c8,0,14.2-6.6,14.2-14.6
		H308.2z"/>
	<path class="st85" d="M308.2,48.6h13.9c0-7.7-6.2-13.9-13.9-13.9c-7.6,0-13.9,6.2-13.9,13.9s6.2,13.9,13.9,13.9
		c7.7,0,13.9-6.2,13.9-13.9H308.2z"/>
	<path class="st86" d="M308.2,48.6h13.5c0-7.3-6.2-13.5-13.5-13.5c-7.3,0-13.5,6.2-13.5,13.5c0,7.6,6.2,13.5,13.5,13.5
		c7.3,0,13.5-5.9,13.5-13.5H308.2z"/>
	<path class="st86" d="M308.2,48.6h13.2c0-6.9-5.9-12.8-13.2-12.8c-7.3,0-13.2,5.9-13.2,12.8c0,7.3,5.9,13.2,13.2,13.2
		c7.3,0,13.2-5.9,13.2-13.2H308.2z"/>
	<path class="st87" d="M308.2,48.6h12.5c0-6.9-5.5-12.5-12.5-12.5s-12.5,5.6-12.5,12.5s5.6,12.8,12.5,12.8s12.5-5.9,12.5-12.8H308.2
		z"/>
	<path class="st88" d="M308.2,48.6h12.1c0-6.6-5.6-12.1-12.1-12.1c-6.6,0-12.2,5.6-12.2,12.1c0,6.9,5.6,12.1,12.2,12.1
		c6.6,0,12.1-5.2,12.1-12.1H308.2z"/>
	<path class="st89" d="M308.2,48.6H320c0-6.2-5.2-11.8-11.8-11.8c-6.6,0-11.8,5.6-11.8,11.8c-0.1,6.5,5.1,11.7,11.6,11.8
		c0.1,0,0.1,0,0.2,0c6.5,0.1,11.7-5.1,11.8-11.6c0-0.1,0-0.1,0-0.2H308.2z"/>
	<path class="st90" d="M308.2,48.6h11.4c0-6.2-5.2-11.1-11.4-11.1c-6.2,0-11.5,4.9-11.5,11.1c0,6.2,5.2,11.5,11.5,11.5
		c6.2,0,11.4-5.2,11.4-11.5H308.2z"/>
	<path class="st91" d="M308.2,48.6H319c0-5.9-4.8-10.7-10.8-10.8c-5.9,0-10.7,4.8-10.8,10.8c0,6.2,4.9,11.1,10.8,11.1
		c5.9,0,10.8-4.9,10.8-11.1H308.2z"/>
	<path class="st92" d="M308.2,48.6h10.4c0-5.6-4.5-10.4-10.4-10.4c-5.9,0-10.4,4.9-10.4,10.4c0,5.9,4.5,10.4,10.4,10.4
		c5.9,0,10.4-4.5,10.4-10.4H308.2z"/>
	<path class="st93" d="M308.2,48.6h10.1c0-5.6-4.5-10.1-10.1-10.1c-5.6,0.1-10,4.8-9.8,10.3c0.1,5.4,4.4,9.7,9.8,9.8
		c5.6,0,10.1-4.5,10.1-10.1H308.2z"/>
	<path class="st94" d="M308.2,48.6h9.7c0-5.2-4.5-9.4-9.7-9.4c-5.2,0-9.7,4.2-9.7,9.4c0,5.4,4.3,9.7,9.7,9.7c0,0,0,0,0,0
		c5.4,0,9.7-4.3,9.7-9.7c0,0,0,0,0,0H308.2z"/>
	<path class="st95" d="M308.2,48.6h9c0-4.9-3.8-9-9-9c-4.9,0-9,3.9-9,8.9c0,0,0,0.1,0,0.1c0,5.2,3.8,9.4,9,9.4c5.2,0,9-4.2,9-9.4
		H308.2z"/>
	<path class="st96" d="M308.2,48.6h8.7c0-4.7-3.8-8.6-8.5-8.7c-0.1,0-0.1,0-0.2,0c-4.7,0-8.6,3.8-8.7,8.5c0,0.1,0,0.1,0,0.2
		c0,4.7,3.8,8.6,8.5,8.7c0.1,0,0.1,0,0.2,0c4.7,0,8.6-3.8,8.7-8.5c0-0.1,0-0.1,0-0.2H308.2z"/>
	<path class="st97" d="M308.2,48.6h8.3c0-4.5-3.8-8-8.3-8c-4.5,0-8.3,3.5-8.3,8s3.8,8.3,8.3,8.3c4.5,0,8.3-3.8,8.3-8.3H308.2z"/>
	<path class="st98" d="M308.2,48.6h8c0-4.2-3.8-7.6-8-7.6c-4.2,0-8,3.5-8,7.6c0,4.5,3.8,8,8,8c4.2,0,8-3.5,8-8H308.2z"/>
	<path class="st99" d="M308.2,48.6h7.3c0-3.8-3.1-7.3-7.3-7.3c-4.2,0-7.3,3.5-7.3,7.3c0,4.2,3.1,7.6,7.3,7.6c4.2,0,7.3-3.5,7.3-7.6
		H308.2z"/>
	<path class="st99" d="M308.2,48.6h6.9c0-3.8-3.1-6.9-6.9-6.9c-3.8,0-6.9,3.1-6.9,6.9s3.1,6.9,6.9,6.9c3.8,0,6.9-3.1,6.9-6.9H308.2z
		"/>
	<path class="st100" d="M308.2,48.6h6.6c0-3.5-3.1-6.2-6.6-6.2c-3.5,0-6.6,2.8-6.6,6.2c0,3.8,3.1,6.6,6.6,6.6c3.6,0,6.6-3,6.6-6.6
		c0,0,0,0,0,0H308.2z"/>
	<path class="st101" d="M308.2,48.6h6.2c0-3.1-2.8-5.9-6.2-5.9c-3.5,0-6.2,2.8-6.2,5.9c0,3.5,2.8,6.2,6.2,6.2c3.4,0,6.2-2.8,6.2-6.2
		c0,0,0,0,0-0.1H308.2z"/>
	<path class="st102" d="M308.2,48.6h5.6c0-3.1-2.4-5.6-5.6-5.6c-3.1,0-5.6,2.4-5.6,5.6c0,3.1,2.4,5.9,5.6,5.9c3.1,0,5.6-2.8,5.6-5.9
		H308.2z"/>
	<path class="st103" d="M308.2,48.6h5.2c0-2.8-2.4-5.2-5.2-5.2c-2.8,0-5.2,2.4-5.2,5.2c0,3.1,2.4,5.2,5.2,5.2c2.8,0,5.2-2.1,5.2-5.2
		H308.2z"/>
	<path class="st104" d="M308.2,48.6h4.9c0-2.4-2.1-4.5-4.9-4.5c-2.8,0-4.9,2.1-4.9,4.5c0,2.8,2.1,4.9,4.9,4.9c2.8,0,4.9-2.1,4.9-4.9
		H308.2z"/>
	<path class="st105" d="M308.2,48.6h4.5c0-2.4-2.1-4.2-4.5-4.2c-2.4,0-4.5,1.7-4.5,4.2c0,2.4,2.1,4.5,4.5,4.5c2.4,0,4.5-2.1,4.5-4.5
		H308.2z"/>
	<path class="st106" d="M308.2,48.6h3.8c0-2.1-1.7-3.8-3.8-3.8c-2.1,0-3.8,1.7-3.8,3.8c0,2.4,1.7,4.2,3.8,4.2c2.1,0,3.8-1.7,3.8-4.2
		H308.2z"/>
	<path class="st107" d="M308.2,48.6h3.5c0-1.7-1.4-3.5-3.5-3.5c-2.1,0-3.5,1.7-3.5,3.5c0,2.1,1.4,3.5,3.5,3.5c2.1,0,3.5-1.4,3.5-3.5
		H308.2z"/>
	<path class="st108" d="M308.2,48.6h3.1c0-1.7-1.4-2.8-3.1-2.8c-1.7,0-3.1,1-3.1,2.8s1.4,3.1,3.1,3.1c1.7,0,3.1-1.4,3.1-3.1
		c0,0,0,0,0,0H308.2z"/>
	<path class="st109" d="M308.2,48.6h2.8c0-1.4-1.4-2.4-2.8-2.4c-1.4,0-2.8,1-2.8,2.4c0,1.4,1.4,2.8,2.8,2.8c1.4,0,2.8-1.4,2.8-2.8
		H308.2z"/>
	<path class="st110" d="M308.2,48.6h2.1c0-1-1-2.1-2.1-2.1c-1,0-2.1,1-2.1,2.1c0,1.4,1,2.4,2.1,2.4c1,0,2.1-1,2.1-2.4H308.2z"/>
	<path class="st111" d="M308.2,48.6h1.7c0-0.7-0.7-1.7-1.7-1.7c-1,0-1.7,1-1.7,1.7c0,1,0.7,1.7,1.7,1.7c1,0,1.7-0.7,1.7-1.7H308.2z"
		/>
	<path class="st112" d="M308.2,48.6h1.4c0-0.7-0.7-1-1.4-1c-0.7,0-1.4,0.3-1.4,1c0,0.7,0.7,1.4,1.4,1.4c0.7,0,1.4-0.7,1.4-1.4H308.2
		z"/>
	<path class="st113" d="M308.2,48.6h0.7c0-0.3-0.4-0.7-0.7-0.7c-0.4,0-1,0.3-1,0.7c0,0.7,0.7,1,1,1c0.3,0,0.7-0.3,0.7-1H308.2z"/>
	<path class="st0" d="M308.2,48.6h0.3c0,0,0-0.3-0.3-0.3c-0.4,0-0.4,0.3-0.4,0.3c0,0.3,0,0.7,0.4,0.7c0.3,0,0.3-0.3,0.3-0.7H308.2z"
		/>
	<path class="st0" d="M398.8,64.6L374.2,2.1h-20.1l39.6,95.5h9.7l40.3-95.5h-19.8L398.8,64.6L398.8,64.6z M452,95.1h51.4V79.5H470
		v-25h31.9v-16H470V18.1h33.3v-16H452V95.1z M575.2,29.5c0-17.4-11.8-27.4-33-27.4h-26.7v93h18V58h2.4l25,37.1h22.2L554,55.9
		C567.5,53.1,575.2,43.7,575.2,29.5L575.2,29.5z M538.7,45.1h-5.2V16.7h5.6c11.5,0,17.4,4.9,17.4,13.9
		C556.4,39.9,550.5,45.1,538.7,45.1L538.7,45.1z M585.8,10.3c0,0.7-0.5,1.1-1.5,1.1H584V9.3h0.4C585.3,9.3,585.8,9.6,585.8,10.3
		L585.8,10.3z M588.7,16l-2.7-3.4c1.2-0.3,1.8-1.1,1.8-2.3c0-1.6-1.1-2.5-3.1-2.5h-2.6V16h1.9v-3.2l2.3,3.2H588.7L588.7,16z
		 M592.1,11.9c0-3.9-3.2-7.1-7-7.1c-3.9,0-7.1,3.1-7.2,7.1c0,0,0,0.1,0,0.1c0,4,3.2,7.2,7.2,7.2C588.9,19,592.1,15.8,592.1,11.9z
		 M590.7,11.9c0,3.2-2.5,5.8-5.6,5.8c-3.1,0-5.7-2.6-5.7-5.8c0-3.3,2.6-5.9,5.7-5.9C588.2,6,590.7,8.7,590.7,11.9z"/>
</g>
</svg>
