<svg id="Layer_3" data-name="Layer 3" xmlns="http://www.w3.org/2000/svg" xmlns:xlink="http://www.w3.org/1999/xlink" viewBox="0 0 169.77 181.39"><defs><style>.cls-1,.cls-3,.cls-6{fill:none;}.cls-2{clip-path:url(#clip-path);}.cls-3,.cls-6{stroke:#da2f33;stroke-miterlimit:10;}.cls-3{stroke-width:4px;}.cls-4{clip-path:url(#clip-path-2);}.cls-5{fill:#da2f33;}.cls-7{clip-path:url(#clip-path-3);}</style><clipPath id="clip-path" transform="translate(-129.1 -120.63)"><path class="cls-1" d="M164.85,290.93a18,18,0,0,0-3.77-34.44l4.3-12.47,96.84-.91,10.93,7-1.67,52.52-48.27,4.86-66.07,1.25-3.26-12.22Z"/></clipPath><clipPath id="clip-path-2" transform="translate(-129.1 -120.63)"><rect class="cls-1" x="159.16" y="241.67" width="110.88" height="13.1"/></clipPath><clipPath id="clip-path-3" transform="translate(-129.1 -120.63)"><path class="cls-1" d="M139.82,283.79a17.92,17.92,0,0,1,15-27.66,18.28,18.28,0,0,1,2.89.23V242.94c0-1.47.48-4.42,4.49-4.42H266.68c2.6,0,4.34,1.32,4.34,4.34V286.4H315.8l-9.45-100.83-47.56-39.75L235,118.13l-28.35-3.91L180.6,131.16l-6.52,17.07-56.36,35.71L121,286.4Z"/></clipPath></defs><g class="cls-2"><rect class="cls-3" x="37.34" y="126.57" width="98.35" height="52.82" rx="2"/><g class="cls-4"><rect class="cls-5" x="37.34" y="126.57" width="98.35" height="52.82" rx="2"/><rect class="cls-6" x="37.34" y="126.57" width="98.35" height="52.82" rx="2"/></g><rect class="cls-5" x="71.72" y="147.22" width="53.28" height="7.74" rx="1"/><rect class="cls-5" x="71.72" y="160.19" width="53.28" height="7.74" rx="1"/><path class="cls-5" d="M189.73,281.68a2.32,2.32,0,0,0-.48-1.57,4.86,4.86,0,0,0-1.73-1.09,15,15,0,0,1-4.39-2.44,4.61,4.61,0,0,1-1.38-3.63,4.73,4.73,0,0,1,1.46-3.56,6.22,6.22,0,0,1,3.89-1.63v-2.7h2v2.75a5.49,5.49,0,0,1,5,5.87l0,.06h-4.24a3.34,3.34,0,0,0-.53-2.08,1.75,1.75,0,0,0-1.44-.68,1.6,1.6,0,0,0-1.34.56,2.31,2.31,0,0,0-.44,1.44,2.14,2.14,0,0,0,.47,1.43,4.87,4.87,0,0,0,1.75,1.11,16.14,16.14,0,0,1,4.36,2.53,4.6,4.6,0,0,1,1.4,3.6,4.79,4.79,0,0,1-1.4,3.59,6.22,6.22,0,0,1-3.77,1.6v2.57h-2v-2.59a7,7,0,0,1-4.12-1.73,5.45,5.45,0,0,1-1.58-4.37l0-.08h4.21a3.18,3.18,0,0,0,.69,2.29,2.45,2.45,0,0,0,1.8.69,1.77,1.77,0,0,0,1.39-.53A2,2,0,0,0,189.73,281.68Z" transform="translate(-129.1 -120.63)"/></g><path class="cls-5" d="M167,282.28a12.47,12.47,0,0,1-4.75,3.7,14.18,14.18,0,0,1-5.94,1.31,15.85,15.85,0,0,1-5.5-.94,13.18,13.18,0,0,1-4.49-2.69,12.55,12.55,0,0,1-3-4.19,14.3,14.3,0,0,1,0-11,12.49,12.49,0,0,1,3-4.2,13.18,13.18,0,0,1,4.49-2.69,16.08,16.08,0,0,1,5.5-.93,12.58,12.58,0,0,1,4.92.93,10.29,10.29,0,0,1,3.76,2.69,12.29,12.29,0,0,1,2.37,4.2,16.79,16.79,0,0,1,.84,5.47v2.45H150.05a6.14,6.14,0,0,0,2,3.57,5.75,5.75,0,0,0,3.86,1.33,5.83,5.83,0,0,0,3.26-.86,8.68,8.68,0,0,0,2.32-2.21Zm-6.63-11.16a4.52,4.52,0,0,0-1.3-3.39,4.66,4.66,0,0,0-3.49-1.4,6.05,6.05,0,0,0-2.3.41,5.88,5.88,0,0,0-1.69,1.07,4.7,4.7,0,0,0-1.1,1.52,4.86,4.86,0,0,0-.44,1.79Z" transform="translate(-129.1 -120.63)"/><g class="cls-7"><path class="cls-5" d="M216,150.86v9c2.73-.18,5.61-1.46,5.61-4.47s-3.15-4-5.61-4.56Zm0,0" transform="translate(-129.1 -120.63)"/><path class="cls-5" d="M208.12,140c0,2.3,1.69,3.61,5.11,4.3v-8.17c-3.11.09-5.11,1.91-5.11,3.87Zm0,0" transform="translate(-129.1 -120.63)"/><path class="cls-5" d="M214.51,120.63a27.6,27.6,0,1,0,27.59,27.6,27.64,27.64,0,0,0-27.59-27.6ZM216,164.55v2.83a1.38,1.38,0,1,1-2.74,0v-2.83c-7.7-.18-11.54-4.79-11.54-8.4a2.62,2.62,0,0,1,2.83-2.87c5.1,0,1.13,6.3,8.71,6.62v-9.54c-6.76-1.23-10.85-4.2-10.85-9.26,0-6.21,5.15-9.4,10.85-9.58v-2.43a1.38,1.38,0,1,1,2.74,0v2.43c3.55.09,10.85,2.32,10.85,6.8a2.74,2.74,0,0,1-2.87,2.82c-3,0-2.93-4.88-8-5v8.67c6,1.28,11.35,3,11.35,10.09,0,6.11-4.56,9.21-11.35,9.62Zm0,0" transform="translate(-129.1 -120.63)"/><path class="cls-5" d="M290.43,258.94h-9.59l0-54.58h9.58V193.43l-152.85.07v10.93h9.59l0,54.59h-9.59v10.33h-8.44v12.12l169.72-.08V269.26h-8.44Zm-85.52,0,0-54.59h18.19l0,54.59Zm56.15,0H242.88l0-54.59H261Zm-94.14-54.54h18.19l0,54.59H167Z" transform="translate(-129.1 -120.63)"/><path class="cls-5" d="M249.56,154.41a36.36,36.36,0,0,1-71.61-.12l-.42-1.62L129.1,185.22v5.12l169.73-.08v-5.12l-48.59-32.6Z" transform="translate(-129.1 -120.63)"/></g></svg>