<?xml version="1.0" encoding="utf-8"?>
<!-- Generator: Adobe Illustrator 24.0.2, SVG Export Plug-In . SVG Version: 6.00 Build 0)  -->
<svg version="1.1" id="Layer_1" xmlns="http://www.w3.org/2000/svg" xmlns:xlink="http://www.w3.org/1999/xlink" x="0px" y="0px"
	 viewBox="0 0 64 64" style="enable-background:new 0 0 64 64;" xml:space="preserve">
<style type="text/css">
	.st0{fill-rule:evenodd;clip-rule:evenodd;fill:#FFFFFF;}
</style>
<path class="st0" d="M23.3,13.8c-8.4-1.5-15,0.1-17.6,4.6c-2,3.4-1.4,7.9,1.4,12.8c0.2,0.4,0.8,0.6,1.2,0.3c0.4-0.2,0.6-0.8,0.3-1.2
	c-2.5-4.4-3-8.2-1.4-11c2.2-3.8,8.1-5.2,15.8-3.8c0.5,0.1,0.9-0.2,1-0.7C24.1,14.3,23.8,13.8,23.3,13.8L23.3,13.8z M11.4,37
	c3.4,3.7,7.8,7.2,12.8,10.1c12.1,7,25.1,8.9,31.4,4.5c0.4-0.3,0.5-0.8,0.2-1.2c-0.3-0.4-0.8-0.5-1.2-0.2c-5.7,3.9-18,2.1-29.6-4.6
	c-4.9-2.8-9.1-6.2-12.4-9.8c-0.3-0.3-0.9-0.4-1.2-0.1C11.1,36.1,11.1,36.7,11.4,37L11.4,37z M53.6,36c5.5-6.5,7.4-13,4.8-17.5
	c-1.9-3.4-6-5.1-11.5-5.2c-0.5,0-0.9,0.4-0.9,0.8c0,0.5,0.4,0.9,0.8,0.9c4.9,0.1,8.4,1.6,10,4.3c2.2,3.8,0.5,9.6-4.6,15.6
	c-0.3,0.4-0.3,0.9,0.1,1.2C52.7,36.4,53.3,36.3,53.6,36L53.6,36z M39.5,14c-5,1.1-10.2,3.1-15.3,6.1C11.7,27.3,3.5,38,4.7,45.7
	c0.1,0.5,0.5,0.8,1,0.7c0.5-0.1,0.8-0.5,0.7-1c-1-6.9,6.7-17,18.7-23.9c4.9-2.8,10-4.8,14.8-5.9c0.5-0.1,0.8-0.6,0.7-1
	C40.4,14.2,40,13.9,39.5,14L39.5,14z"/>
<path class="st0" d="M19.2,51.1C22.1,59.1,26.8,64,32,64c3.8,0,7.4-2.6,10.2-7.2c0.2-0.4,0.1-0.9-0.3-1.2c-0.4-0.2-0.9-0.1-1.2,0.3
	c-2.5,4.1-5.5,6.4-8.7,6.4c-4.4,0-8.6-4.4-11.2-11.8c-0.2-0.4-0.7-0.7-1.1-0.5C19.3,50.1,19.1,50.6,19.2,51.1z M45.4,49.5
	c1.5-4.7,2.3-10.2,2.3-15.9c0-14.2-5-26.5-12.1-29.6c-0.4-0.2-0.9,0-1.1,0.4c-0.2,0.4,0,0.9,0.4,1.1c6.3,2.8,11,14.4,11,28
	c0,5.5-0.8,10.8-2.2,15.4c-0.1,0.5,0.1,0.9,0.6,1.1C44.7,50.2,45.2,50,45.4,49.5L45.4,49.5z M61.5,48.7c0-2.3-1.8-4.1-4.1-4.1
	s-4.1,1.8-4.1,4.1s1.8,4.1,4.1,4.1S61.5,50.9,61.5,48.7L61.5,48.7z M59.8,48.7c0,1.3-1.1,2.4-2.4,2.4c-1.3,0-2.4-1.1-2.4-2.4
	c0-1.3,1.1-2.4,2.4-2.4C58.7,46.3,59.8,47.4,59.8,48.7z"/>
<path class="st0" d="M6.6,52.8c2.3,0,4.1-1.8,4.1-4.1s-1.8-4.1-4.1-4.1c-2.3,0-4.1,1.8-4.1,4.1S4.3,52.8,6.6,52.8L6.6,52.8z
	 M6.6,51.1c-1.3,0-2.4-1.1-2.4-2.4c0-1.3,1.1-2.4,2.4-2.4c1.3,0,2.4,1.1,2.4,2.4C9,50,7.9,51.1,6.6,51.1z M32,8.2
	c2.3,0,4.1-1.8,4.1-4.1S34.3,0,32,0s-4.1,1.8-4.1,4.1S29.8,8.2,32,8.2z M32,6.5c-1.3,0-2.4-1.1-2.4-2.4c0-1.3,1.1-2.4,2.4-2.4
	c1.3,0,2.4,1.1,2.4,2.4C34.4,5.4,33.3,6.5,32,6.5z M32.7,36.5c-1.6,0.4-3.2-0.7-3.5-2.3c-0.4-1.6,0.7-3.2,2.3-3.5c0,0,0,0,0,0
	c1.6-0.4,3.2,0.7,3.5,2.3C35.3,34.6,34.3,36.2,32.7,36.5C32.7,36.5,32.7,36.5,32.7,36.5z"/>
</svg>
