<?xml version="1.0" encoding="UTF-8"?>
<svg width="115px" height="141px" viewBox="0 0 115 141" version="1.1" xmlns="http://www.w3.org/2000/svg" xmlns:xlink="http://www.w3.org/1999/xlink">
    <!-- Generator: Sketch 45.1 (43504) - http://www.bohemiancoding.com/sketch -->
    <title>np_error_861555_000000</title>
    <desc>Created with Sketch.</desc>
    <defs></defs>
    <g id="Mobile" stroke="none" stroke-width="1" fill="none" fill-rule="evenodd">
        <g id="1.1.8_Create-Account-Error-Scenario-(age-validation-error)" transform="translate(-130.000000, -285.000000)" fill-rule="nonzero" fill="#FFFFFF">
            <g id="np_error_861555_000000" transform="translate(130.000000, 285.000000)">
                <path d="M57.1769853,0.0327321429 C56.8202485,0.0327321429 56.4569162,0.150757536 56.1596412,0.268772857 L2.04199412,23.7033086 C0.839669118,24.1754068 0.00733970588,25.4867907 0.00733970588,26.7982586 C0.00733970588,62.9597229 2.22041324,83.7706514 10.5508103,99.6516157 C18.9405676,115.473494 33.1432368,125.583866 55.6713985,140.456009 C56.7482044,141.170711 58.2477368,141.170711 59.3246779,140.456009 C81.9171044,125.584873 96.0553397,115.47383 104.445266,99.6516157 C112.775663,83.7708193 114.988737,62.9530086 114.988737,26.7915443 C114.988737,25.4801604 114.209206,24.1753229 113.013443,23.6965943 L58.8501338,0.268772857 C58.3744904,0.0327321429 57.7733279,-0.0262864286 57.1721654,0.0327321429 L57.1769853,0.0327321429 Z M57.5337221,6.98957143 L108.164163,28.9352143 C108.104708,63.3123571 105.772671,82.7015357 98.4596853,96.5631786 C91.2655897,110.24085 78.6881412,119.519321 57.5349059,133.557214 C36.3157147,119.518818 23.7976265,110.240179 16.5441706,96.5631786 C9.29054559,82.7018714 6.95858235,63.3123571 6.83969265,28.9352143 L57.5337221,6.98957143 Z M57.5337221,35.3020357 C52.8566044,35.3020357 49.025075,39.0460893 49.025075,43.6883464 L50.7624206,73.9026321 C50.7624206,77.5876 53.7615529,80.6234643 57.5337221,80.6234643 C61.2463618,80.6234643 64.2456632,77.5876 64.2456632,73.9026321 L65.9830088,43.6883464 C65.9830088,39.0460893 62.1448838,35.3020357 57.5337221,35.3020357 L57.5337221,35.3020357 Z M57.5337221,85.6205714 C52.8566044,85.6205714 49.025075,89.364625 49.025075,94.0068821 C49.025075,98.6491393 52.8632,102.393193 57.5337221,102.393193 C62.1448838,102.393193 65.9830088,98.6491393 65.9830088,94.0068821 C65.9830088,89.364625 62.1448838,85.6205714 57.5337221,85.6205714 L57.5337221,85.6205714 Z" id="Shape"></path>
            </g>
        </g>
    </g>
</svg>