<?xml version="1.0" encoding="UTF-8"?>
<svg width="141px" height="141px" viewBox="0 0 141 141" version="1.1" xmlns="http://www.w3.org/2000/svg" xmlns:xlink="http://www.w3.org/1999/xlink">
    <!-- Generator: Sketch 45.1 (43504) - http://www.bohemiancoding.com/sketch -->
    <title>iOSLoading</title>
    <desc>Created with Sketch.</desc>
    <defs></defs>
    <g id="Mobile" stroke="none" stroke-width="1" fill="none" fill-rule="evenodd">
        <g id="4.3.2_Bitcoin-Deposit-(status)" transform="translate(-117.000000, -304.000000)" fill="#ED3536">
            <g id="iOSLoading" transform="translate(117.000000, 304.000000)">
                <g id="Group-26">
                    <path d="M70.5,36.2571429 L70.5,36.2571429 C67.1764286,36.2571429 64.4571429,33.5378571 64.4571429,30.2142857 L64.4571429,6.04285714 C64.4571429,2.71928571 67.1764286,0 70.5,0 L70.5,0 C73.8235714,0 76.5428571,2.71928571 76.5428571,6.04285714 L76.5428571,30.2142857 C76.5428571,33.5378571 73.8235714,36.2571429 70.5,36.2571429" id="Fill-2" opacity="0.65"></path>
                    <path d="M87.6214286,40.84488 L87.6214286,40.84488 C84.7430143,39.1830943 83.7479571,35.4687514 85.4097429,32.5903371 L97.4954571,11.65788 C99.1572429,8.77946571 102.871586,7.78440857 105.75,9.44619429 L105.75,9.44619429 C108.628414,11.10798 109.623471,14.8223229 107.961686,17.7007371 L95.8759714,38.6331943 C94.2141857,41.5116086 90.4998429,42.5066657 87.6214286,40.84488" id="Fill-4" opacity="0.75"></path>
                    <path d="M100.15512,53.3785714 L100.15512,53.3785714 C98.4933343,50.5001571 99.4883914,46.7858143 102.366806,45.1240286 L123.299263,33.0383143 C126.177677,31.3765286 129.89202,32.3715857 131.553806,35.25 L131.553806,35.25 C133.215591,38.1284143 132.220534,41.8427571 129.34212,43.5045429 L108.409663,55.5902571 C105.531249,57.2520429 101.816906,56.2569857 100.15512,53.3785714" id="Fill-6" opacity="0.85"></path>
                    <path d="M104.742857,70.5 L104.742857,70.5 C104.742857,67.1764286 107.462143,64.4571429 110.785714,64.4571429 L134.957143,64.4571429 C138.280714,64.4571429 141,67.1764286 141,70.5 L141,70.5 C141,73.8235714 138.280714,76.5428571 134.957143,76.5428571 L110.785714,76.5428571 C107.462143,76.5428571 104.742857,73.8235714 104.742857,70.5" id="Fill-8"></path>
                    <path d="M100.15512,87.6214286 L100.15512,87.6214286 C101.816906,84.7430143 105.531249,83.7479571 108.409663,85.4097429 L129.34212,97.4954571 C132.220534,99.1572429 133.215591,102.871586 131.553806,105.75 L131.553806,105.75 C129.89202,108.628414 126.177677,109.623471 123.299263,107.961686 L102.366806,95.8759714 C99.4883914,94.2141857 98.4933343,90.4998429 100.15512,87.6214286" id="Fill-10" opacity="0.2"></path>
                    <path d="M87.6214286,100.15512 L87.6214286,100.15512 C90.4998429,98.4933343 94.2141857,99.4883914 95.8759714,102.366806 L107.961686,123.299263 C109.623471,126.177677 108.628414,129.89202 105.75,131.553806 L105.75,131.553806 C102.871586,133.215591 99.1572429,132.220534 97.4954571,129.34212 L85.4097429,108.409663 C83.7479571,105.531249 84.7430143,101.816906 87.6214286,100.15512" id="Fill-12" opacity="0.25"></path>
                    <path d="M70.5,104.742857 L70.5,104.742857 C73.8235714,104.742857 76.5428571,107.462143 76.5428571,110.785714 L76.5428571,134.957143 C76.5428571,138.280714 73.8235714,141 70.5,141 L70.5,141 C67.1764286,141 64.4571429,138.280714 64.4571429,134.957143 L64.4571429,110.785714 C64.4571429,107.462143 67.1764286,104.742857 70.5,104.742857" id="Fill-14" opacity="0.3"></path>
                    <path d="M53.3785714,100.15512 L53.3785714,100.15512 C56.2569857,101.816906 57.2520429,105.531249 55.5902571,108.409663 L43.5045429,129.34212 C41.8427571,132.220534 38.1284143,133.215591 35.25,131.553806 L35.25,131.553806 C32.3715857,129.89202 31.3765286,126.177677 33.0383143,123.299263 L45.1240286,102.366806 C46.7858143,99.4883914 50.5001571,98.4933343 53.3785714,100.15512" id="Fill-16" opacity="0.35"></path>
                    <path d="M40.84488,87.6214286 L40.84488,87.6214286 C42.5066657,90.4998429 41.5116086,94.2141857 38.6331943,95.8759714 L17.7007371,107.961686 C14.8223229,109.623471 11.10798,108.628414 9.44619429,105.75 L9.44619429,105.75 C7.78440857,102.871586 8.77946571,99.1572429 11.65788,97.4954571 L32.5903371,85.4097429 C35.4687514,83.7479571 39.1830943,84.7430143 40.84488,87.6214286" id="Fill-18" opacity="0.4"></path>
                    <path d="M36.2571429,70.5 L36.2571429,70.5 C36.2571429,73.8235714 33.5378571,76.5428571 30.2142857,76.5428571 L6.04285714,76.5428571 C2.71928571,76.5428571 0,73.8235714 0,70.5 L0,70.5 C0,67.1764286 2.71928571,64.4571429 6.04285714,64.4571429 L30.2142857,64.4571429 C33.5378571,64.4571429 36.2571429,67.1764286 36.2571429,70.5" id="Fill-20" opacity="0.45"></path>
                    <path d="M40.84488,53.3785714 L40.84488,53.3785714 C39.1830943,56.2569857 35.4687514,57.2520429 32.5903371,55.5902571 L11.65788,43.5045429 C8.77946571,41.8427571 7.78440857,38.1284143 9.44619429,35.25 L9.44619429,35.25 C11.10798,32.3715857 14.8223229,31.3765286 17.7007371,33.0383143 L38.6331943,45.1240286 C41.5116086,46.7858143 42.5066657,50.5001571 40.84488,53.3785714" id="Fill-22" opacity="0.5"></path>
                    <path d="M53.3785714,40.84488 L53.3785714,40.84488 C50.5001571,42.5066657 46.7858143,41.5116086 45.1240286,38.6331943 L33.0383143,17.7007371 C31.3765286,14.8223229 32.3715857,11.10798 35.25,9.44619429 L35.25,9.44619429 C38.1284143,7.78440857 41.8427571,8.77946571 43.5045429,11.65788 L55.5902571,32.5903371 C57.2520429,35.4687514 56.2569857,39.1830943 53.3785714,40.84488" id="Fill-24" opacity="0.55"></path>
                </g>
            </g>
        </g>
    </g>
</svg>