<?xml version="1.0" encoding="UTF-8"?>
<svg width="115" height="141" viewBox="0 0 115 141" xmlns="http://www.w3.org/2000/svg"><path d="M57.177.033c-.357 0-.72.118-1.017.236L2.042 23.703C.84 24.175.007 25.487.007 26.798c0 36.162 2.213 56.973 10.544 72.854 8.39 15.821 22.592 25.932 45.12 40.804 1.077.715 2.577.715 3.654 0 22.592-14.871 36.73-24.982 45.12-40.804 8.33-15.881 10.544-36.699 10.544-72.86 0-1.312-.78-2.617-1.976-3.095L58.85.269c-.476-.236-1.077-.295-1.678-.236h.005zm.357 6.957l50.63 21.945c-.06 34.377-2.391 53.767-9.704 67.628-7.194 13.678-19.772 22.956-40.925 36.994-21.22-14.038-33.737-23.317-40.99-36.994C9.29 82.702 6.958 63.313 6.84 28.935L57.534 6.99zm0 28.312c-4.677 0-8.509 3.744-8.509 8.386l1.737 30.215c0 3.685 3 6.72 6.772 6.72 3.712 0 6.712-3.035 6.712-6.72l1.737-30.215c0-4.642-3.838-8.386-8.45-8.386zm0 50.319c-4.677 0-8.509 3.744-8.509 8.386 0 4.642 3.838 8.386 8.509 8.386 4.61 0 8.449-3.744 8.449-8.386 0-4.642-3.838-8.386-8.45-8.386z" fill-rule="nonzero" fill="#F32D28"/></svg>