<?xml version="1.0" encoding="UTF-8"?>
<svg width="76px" height="75px" viewBox="0 0 76 75" version="1.1" xmlns="http://www.w3.org/2000/svg" xmlns:xlink="http://www.w3.org/1999/xlink">
    <!-- Generator: Sketch 45.1 (43504) - http://www.bohemiancoding.com/sketch -->
    <title>np_timer_235434_000000</title>
    <desc>Created with Sketch.</desc>
    <defs></defs>
    <g id="Mobile" stroke="none" stroke-width="1" fill="none" fill-rule="evenodd">
        <g id="4.3.1_Bitcoin-Deposit-(timer)" transform="translate(-150.000000, -257.000000)" fill-rule="nonzero">
            <g id="np_timer_235434_000000" transform="translate(150.000000, 257.000000)">
                <path d="M38.0901202,74.8753125 C58.8899405,74.8753125 75.814153,58.1025 75.814153,37.48875 C75.814153,16.875 58.8899405,0.1059375 38.0901202,0.1059375 C36.5234174,0.1059375 35.2522332,1.36575 35.2522332,2.9184375 L35.2522332,17.32875 C35.2522332,18.8814375 36.5234174,20.14125 38.0901202,20.14125 C39.6568231,20.14125 40.9280073,18.8814375 40.9280073,17.32875 L40.9280073,5.851875 C57.2751828,7.2800625 70.1383789,20.925 70.1383789,37.48875 C70.1383789,55.00125 55.760697,69.2503125 38.0901202,69.2503125 C20.4195434,69.2503125 6.04186157,55.005 6.04186157,37.48875 C6.04186157,27.3815625 10.9637983,17.78625 19.2153333,11.8171875 C20.4827337,10.9016625 20.7599007,9.14015625 19.8324224,7.88775 C18.9086334,6.6316875 17.1312269,6.357 15.8675158,7.27618125 C6.1600501,14.3001188 0.366030674,25.5939938 0.366030674,37.4889938 C0.366030674,58.1064937 17.2902432,74.8755562 38.0900635,74.8755562 L38.0901202,74.8753125 Z" id="Shape" fill="#000000"></path>
                <path d="M19.0819526,26.9278125 C18.2911849,28.2718125 18.7493901,29.9929688 20.1054839,30.7730625 L35.9503534,39.921 C36.4011612,40.1810063 36.8889278,40.3018594 37.3766754,40.3018594 C38.3521518,40.3018594 39.3055872,39.8001469 39.8303126,38.9029219 C40.6210803,37.5589219 40.1628751,35.8377656 38.8067813,35.0576719 L22.9619118,25.9097344 C21.6094695,25.1297063 19.8727772,25.5838031 19.0819526,26.9277656 L19.0819526,26.9278125 Z" id="Shape" fill="#EE3536"></path>
            </g>
        </g>
    </g>
</svg>