<?xml version="1.0" encoding="UTF-8"?>
<svg width="93px" height="93px" viewBox="0 0 93 93" version="1.1" xmlns="http://www.w3.org/2000/svg" xmlns:xlink="http://www.w3.org/1999/xlink">
    <!-- Generator: Sketch 46.2 (44496) - http://www.bohemiancoding.com/sketch -->
    <title>Group-26</title>
    <desc>Created with Sketch.</desc>
    <defs></defs>
    <g id="Page-1" stroke="none" stroke-width="1" fill="none" fill-rule="evenodd">
        <g id="2.3_Mobile_Skrill-Onboarding" transform="translate(-141.000000, -301.000000)" fill-rule="nonzero" fill="#ED3536">
            <g id="Group-26" transform="translate(141.000000, 301.000000)">
                <path d="M46.5,23.9142857 L46.5,23.9142857 C44.3078571,23.9142857 42.5142857,22.1207143 42.5142857,19.9285714 L42.5142857,3.98571429 C42.5142857,1.79357143 44.3078571,0 46.5,0 L46.5,0 C48.6921429,0 50.4857143,1.79357143 50.4857143,3.98571429 L50.4857143,19.9285714 C50.4857143,22.1207143 48.6921429,23.9142857 46.5,23.9142857" id="Fill-2" opacity="0.65"></path>
                <path d="M57.7928571,26.94024 L57.7928571,26.94024 C55.8943286,25.8441686 55.2380143,23.3942829 56.3340857,21.4957543 L64.3055143,7.68924 C65.4015857,5.79071143 67.8514714,5.13439714 69.75,6.23046857 L69.75,6.23046857 C71.6485286,7.32654 72.3048429,9.77642571 71.2087714,11.6749543 L63.2373429,25.4814686 C62.1412714,27.3799971 59.6913857,28.0363114 57.7928571,26.94024" id="Fill-4" opacity="0.75"></path>
                <path d="M66.05976,35.2071429 L66.05976,35.2071429 C64.9636886,33.3086143 65.6200029,30.8587286 67.5185314,29.7626571 L81.3250457,21.7912286 C83.2235743,20.6951571 85.67346,21.3514714 86.7695314,23.25 L86.7695314,23.25 C87.8656029,25.1485286 87.2092886,27.5984143 85.31076,28.6944857 L71.5042457,36.6659143 C69.6057171,37.7619857 67.1558314,37.1056714 66.05976,35.2071429" id="Fill-6" opacity="0.85"></path>
                <path d="M69.0857143,46.5 L69.0857143,46.5 C69.0857143,44.3078571 70.8792857,42.5142857 73.0714286,42.5142857 L89.0142857,42.5142857 C91.2064286,42.5142857 93,44.3078571 93,46.5 L93,46.5 C93,48.6921429 91.2064286,50.4857143 89.0142857,50.4857143 L73.0714286,50.4857143 C70.8792857,50.4857143 69.0857143,48.6921429 69.0857143,46.5" id="Fill-8"></path>
                <path d="M66.05976,57.7928571 L66.05976,57.7928571 C67.1558314,55.8943286 69.6057171,55.2380143 71.5042457,56.3340857 L85.31076,64.3055143 C87.2092886,65.4015857 87.8656029,67.8514714 86.7695314,69.75 L86.7695314,69.75 C85.67346,71.6485286 83.2235743,72.3048429 81.3250457,71.2087714 L67.5185314,63.2373429 C65.6200029,62.1412714 64.9636886,59.6913857 66.05976,57.7928571" id="Fill-10" opacity="0.2"></path>
                <path d="M57.7928571,66.05976 L57.7928571,66.05976 C59.6913857,64.9636886 62.1412714,65.6200029 63.2373429,67.5185314 L71.2087714,81.3250457 C72.3048429,83.2235743 71.6485286,85.67346 69.75,86.7695314 L69.75,86.7695314 C67.8514714,87.8656029 65.4015857,87.2092886 64.3055143,85.31076 L56.3340857,71.5042457 C55.2380143,69.6057171 55.8943286,67.1558314 57.7928571,66.05976" id="Fill-12" opacity="0.25"></path>
                <path d="M46.5,69.0857143 L46.5,69.0857143 C48.6921429,69.0857143 50.4857143,70.8792857 50.4857143,73.0714286 L50.4857143,89.0142857 C50.4857143,91.2064286 48.6921429,93 46.5,93 L46.5,93 C44.3078571,93 42.5142857,91.2064286 42.5142857,89.0142857 L42.5142857,73.0714286 C42.5142857,70.8792857 44.3078571,69.0857143 46.5,69.0857143" id="Fill-14" opacity="0.3"></path>
                <path d="M35.2071429,66.05976 L35.2071429,66.05976 C37.1056714,67.1558314 37.7619857,69.6057171 36.6659143,71.5042457 L28.6944857,85.31076 C27.5984143,87.2092886 25.1485286,87.8656029 23.25,86.7695314 L23.25,86.7695314 C21.3514714,85.67346 20.6951571,83.2235743 21.7912286,81.3250457 L29.7626571,67.5185314 C30.8587286,65.6200029 33.3086143,64.9636886 35.2071429,66.05976" id="Fill-16" opacity="0.35"></path>
                <path d="M26.94024,57.7928571 L26.94024,57.7928571 C28.0363114,59.6913857 27.3799971,62.1412714 25.4814686,63.2373429 L11.6749543,71.2087714 C9.77642571,72.3048429 7.32654,71.6485286 6.23046857,69.75 L6.23046857,69.75 C5.13439714,67.8514714 5.79071143,65.4015857 7.68924,64.3055143 L21.4957543,56.3340857 C23.3942829,55.2380143 25.8441686,55.8943286 26.94024,57.7928571" id="Fill-18" opacity="0.4"></path>
                <path d="M23.9142857,46.5 L23.9142857,46.5 C23.9142857,48.6921429 22.1207143,50.4857143 19.9285714,50.4857143 L3.98571429,50.4857143 C1.79357143,50.4857143 0,48.6921429 0,46.5 L0,46.5 C0,44.3078571 1.79357143,42.5142857 3.98571429,42.5142857 L19.9285714,42.5142857 C22.1207143,42.5142857 23.9142857,44.3078571 23.9142857,46.5" id="Fill-20" opacity="0.45"></path>
                <path d="M26.94024,35.2071429 L26.94024,35.2071429 C25.8441686,37.1056714 23.3942829,37.7619857 21.4957543,36.6659143 L7.68924,28.6944857 C5.79071143,27.5984143 5.13439714,25.1485286 6.23046857,23.25 L6.23046857,23.25 C7.32654,21.3514714 9.77642571,20.6951571 11.6749543,21.7912286 L25.4814686,29.7626571 C27.3799971,30.8587286 28.0363114,33.3086143 26.94024,35.2071429" id="Fill-22" opacity="0.5"></path>
                <path d="M35.2071429,26.94024 L35.2071429,26.94024 C33.3086143,28.0363114 30.8587286,27.3799971 29.7626571,25.4814686 L21.7912286,11.6749543 C20.6951571,9.77642571 21.3514714,7.32654 23.25,6.23046857 L23.25,6.23046857 C25.1485286,5.13439714 27.5984143,5.79071143 28.6944857,7.68924 L36.6659143,21.4957543 C37.7619857,23.3942829 37.1056714,25.8441686 35.2071429,26.94024" id="Fill-24" opacity="0.55"></path>
            </g>
        </g>
    </g>
</svg>