<?xml version="1.0" encoding="UTF-8"?>
<svg width="23px" height="23px" viewBox="0 0 23 23" version="1.1" xmlns="http://www.w3.org/2000/svg" xmlns:xlink="http://www.w3.org/1999/xlink">
    <!-- Generator: Sketch 45.2 (43514) - http://www.bohemiancoding.com/sketch -->
    <title>Group 5</title>
    <desc>Created with Sketch.</desc>
    <defs></defs>
    <g id="Desktop" stroke="none" stroke-width="1" fill="none" fill-rule="evenodd">
        <g id="3.0_BetOnline_Desktop_SubPages_Sportsbook" transform="translate(-1117.000000, -38.000000)">
            <g id="Group-3" transform="translate(1044.000000, 32.000000)">
                <g id="Group-5" transform="translate(74.000000, 7.000000)">
                    <circle id="Oval" stroke="#EE3536" cx="10.8094625" cy="10.39967" r="10.3410956"></circle>
                    <g id="np_avatar_1122811_000000" transform="translate(4.859028, 3.470735)" fill-rule="nonzero" fill="#EE3536">
                        <path d="M6.01251393,7.07245685 C7.94268913,7.07245685 9.5095819,5.5062919 9.5095819,3.57538888 C9.5095819,1.64521368 7.94279988,0.0789538013 6.01251393,0.0789538013 C4.08222798,0.0789538013 2.51544596,1.64511875 2.51544596,3.57602177 C2.51544596,5.50619697 4.08222798,7.07245685 6.01251393,7.07245685 Z" id="Shape"></path>
                        <path d="M12.008889,9.85751659 C11.9137077,9.63625608 11.7876285,9.41436267 11.6609227,9.20854482 C10.96499,8.18008849 9.87283268,7.48421912 8.65466571,7.30985621 C8.49644166,7.29378698 8.33821761,7.32592545 8.21151179,7.42048963 C7.57861558,7.87908622 6.81901356,8.13249786 6.02786166,8.13249786 C5.23670976,8.13249786 4.47713939,7.87908622 3.84421154,7.42048963 C3.71750888,7.32530837 3.55928167,7.29378698 3.40105762,7.30985621 C2.182859,7.48415583 1.09067003,8.16401293 0.394800652,9.20854482 C0.252645835,9.41436267 0.141389012,9.63562318 0.046834319,9.85751659 C-0.000756310963,9.95269785 0.0153129236,10.0633344 0.0629035536,10.1424465 C0.189606209,10.3482643 0.331757861,10.5695248 0.474539244,10.7592671 C0.680357089,11.044197 0.917693166,11.3130513 1.17047191,11.5503874 C1.39173242,11.7716479 1.6290685,11.962023 1.88248014,12.1517653 C3.08523608,13.0535158 4.52466356,13.528188 6.02779204,13.528188 C7.53092053,13.528188 8.97107584,13.0535158 10.173104,12.1517653 C10.4265156,11.962023 10.6638517,11.7562052 10.8851122,11.5503874 C11.1385238,11.3130513 11.3758599,11.044197 11.5810448,10.7592671 C11.7231997,10.5695248 11.8659747,10.363707 11.9926805,10.1424465 C12.0408898,10.0472652 12.0408898,9.9520871 12.0087498,9.85751659 L12.008889,9.85751659 Z" id="Shape"></path>
                    </g>
                </g>
            </g>
        </g>
    </g>
</svg>