<?xml version="1.0" encoding="UTF-8"?>
<svg width="377px" height="128px" viewBox="0 0 377 128" version="1.1" xmlns="http://www.w3.org/2000/svg" xmlns:xlink="http://www.w3.org/1999/xlink">
    <!-- Generator: Sketch 46.2 (44496) - http://www.bohemiancoding.com/sketch -->
    <title>Prezelway</title>
    <desc>Created with Sketch.</desc>
    <defs></defs>
    <g id="Page-1" stroke="none" stroke-width="1" fill="none" fill-rule="evenodd">
        <g id="Prezelway" fill-rule="nonzero" fill="#FFFFFF">
            <g id="Group" transform="translate(0.000000, 57.000000)">
                <path d="M37.8,1.6 L10.2,1.6 L0,56.4 L0,56.6 L8.9,56.6 L12.8,36 C12.8,36 19.7,36.4 33.2,36 C46.7,35.6 46.9,23.1 48,12.2 C49.1,1.3 37.8,1.6 37.8,1.6 Z M38.7,20.6 C37.8,27.8 33.6,27.8 33.6,27.8 L14.7,27.8 L17.8,10 C17.8,10 28.2,10 34.4,10 C40.6,10 39.5,13.4 38.7,20.6 Z" id="Shape"></path>
                <path d="M51.7,16.9 L45.3,56.7 L54.3,56.7 C54.3,56.7 55.4,24.6 68.8,24.6 L72.6,24.6 L74.7,17 C74.7,17 65.8,15.6 60.8,19.5 L60.9,16.8 L51.7,16.9 Z" id="Shape"></path>
                <polygon id="Shape" points="79.5 16.6 78 24.5 97.8 24.5 72.8 49.4 72.8 56.6 104 56.6 105 49.1 84.2 49.1 109.4 24.4 111.3 16.6"></polygon>
                <path d="M142.9,38.9 C142.9,38.9 147.4,24.7 141.7,19.1 C136,13.5 112.7,14.1 110.2,28.2 C107.7,42.3 104.8,56.6 118.8,56.6 C125.3,56.6 128,56.6 128.9,56.6 C128.9,56.6 138.9,57 142.7,43 L133.8,43 C133.8,43 133.3,49.2 126.3,49.2 C119.4,49.2 119.4,49.2 119.4,49.2 C119.4,49.2 115.8,49.1 115.8,44.7 C115.8,40.3 116.3,38.8 116.3,38.8 L142.9,38.8 L142.9,38.9 Z M126.7,23.8 C135.1,23.9 136.9,25 135.6,31.6 L117.7,31.6 C117.7,31.6 118.3,23.8 126.7,23.8 Z" id="Shape"></path>
                <path d="M192.9,38.9 C192.9,38.9 197.4,24.7 191.7,19.1 C186,13.5 162.7,14.1 160.2,28.2 C157.7,42.3 154.8,56.6 168.8,56.6 C175.3,56.6 178,56.6 178.9,56.6 C178.9,56.6 188.9,57 192.7,43 L183.8,43 C183.8,43 183.3,49.2 176.3,49.2 C169.4,49.2 169.4,49.2 169.4,49.2 C169.4,49.2 165.8,49.1 165.8,44.7 C165.8,40.3 166.3,38.8 166.3,38.8 L192.9,38.8 L192.9,38.9 Z M176.7,23.8 C185.1,23.9 186.9,25 185.6,31.6 L167.7,31.6 C167.7,31.6 168.3,23.8 176.7,23.8 Z" id="Shape"></path>
                <polygon id="Shape" points="152.5 1.6 143.4 56.6 151.9 56.6 161 1.6"></polygon>
                <polygon id="Shape" points="195.8 17 200 56.6 209.4 56.6 221.2 29.1 223.9 56.6 233.4 56.6 251.2 17 242.8 17 230.9 44.1 228.3 17 218.7 17 206.7 43.8 203.8 17"></polygon>
                <path d="M252.2,17 L259.4,53.8 C259.4,53.8 261.6,62.8 249.9,62.9 L248.5,70.3 C248.5,70.3 259,73.4 264.6,63.3 C270.2,53.2 288.8,17 288.8,17 L279.9,17 L265.8,43.9 L260.7,17 L252.2,17 Z" id="Shape"></path>
                <path d="M291.5,20.9 L300.1,20.9 C300.1,20.9 299.1,9 308,9 C316.9,9 317.8,9 317.8,9 C317.8,9 325.2,8.9 325,12.1 C324.8,15.3 325.8,22.6 319.6,24.7 C313.4,26.8 292.8,28.7 288.7,40.1 C288.7,40.1 285.8,51.1 285.6,56 L326.1,56 L327.9,47.9 L295.7,47.9 C295.7,47.9 294.5,39.8 303.9,37.5 C313.3,35.2 329.7,31.9 331.7,23.6 C333.7,15.3 336.1,0.8 322.2,0.8 C308.3,0.8 293.7,-2.2 291.5,20.9 Z" id="Shape"></path>
                <path d="M368.3,35.5 L373.8,1.8 L363.7,1.8 L331.7,36.7 L330.9,43.7 L358.5,43.7 L356.6,55.8 L364.8,55.8 L366.8,43.7 L374.2,43.7 L376.1,35.3 L368.3,35.5 Z M359.8,35.6 L342.6,35.6 L363.5,13.5 L359.8,35.6 Z" id="Shape"></path>
            </g>
            <path d="M64.3,63.8 L89.8,63.8 C89.8,63.8 99.6,55 111.3,47.8 L96.3,41.3 C96.3,41.2 81.5,49.8 64.3,63.8 Z" id="Shape"></path>
            <path d="M108.1,35 L119.1,43 C119.1,43 133.6,34 157.1,26.2 C156.6,24.7 155.1,14.4 155.1,14.4 C155.1,14.4 134.2,19.5 108.1,35 Z" id="Shape"></path>
            <path d="M166.5,22.8 C166.5,22.8 190.5,17 218,19.6 L223.5,1 C223.5,1 181.6,4.2 164.6,11.9 L166.5,22.8 Z" id="Shape"></path>
            <path d="M228,21.2 C228,21.2 251.1,25.4 266.8,36.7 L315.3,11.8 C315.3,11.8 295.3,1.9 237.5,0.9 L228,21.2 Z" id="Shape"></path>
            <path d="M276,43 L335,18.9 C335,18.9 360.2,27.3 372.5,49.5 L285.6,49.5 L276,43 Z" id="Shape"></path>
        </g>
    </g>
</svg>