<?xml version="1.0" encoding="UTF-8"?>
<svg width="40px" height="40px" viewBox="0 0 40 40" version="1.1" xmlns="http://www.w3.org/2000/svg" xmlns:xlink="http://www.w3.org/1999/xlink">
    <title>Settings</title>
    <desc>Settings Icon</desc>
    
    <g id="Page-1" stroke="none" stroke-width="1" fill="none" fill-rule="evenodd">
        <g id="2.1_MyAccount_RAF" transform="translate(-1189.000000, -249.000000)" fill="#EE3536" fill-rule="nonzero">
            <g id="Group-5" transform="translate(1136.000000, 211.000000)">
                <g id="np_settings_1187771_000000" transform="translate(53.000000, 38.000000)">
                    <path d="M39.2,16.420198 L34.4,15.5213861 C34.1125,14.5591287 33.725,13.6309307 33.24376,12.7491089 L36,8.71306931 C36.254688,8.31857822 36.206248,7.80340594 35.884376,7.46150495 L32.448456,4.05960396 C32.10158,3.75329109 31.590656,3.71306931 31.200016,3.96059406 L27.123616,6.73287129 C26.206416,6.23627723 25.239256,5.83869307 24.236096,5.54475248 L23.340776,0.792277228 C23.232964,0.340554455 22.832976,0.0156831683 22.364216,0.000198019802 L17.505016,0.000198019802 C17.034696,0.0125742574 16.633136,0.33899802 16.528456,0.792277228 L15.620656,5.60059406 C14.665976,5.88834059 13.744096,6.26736634 12.864416,6.7330297 L8.840816,4.00871287 C8.44238,3.75654653 7.922056,3.80450693 7.576736,4.12319208 L4.140816,7.52509307 C3.81738,7.86698614 3.770504,8.38216238 4.023628,8.77665743 L6.800188,12.7849743 C6.329868,13.6544 5.951748,14.568697 5.668948,15.5139248 L0.868948,16.4127366 C0.384588,16.4962772 0.025188,16.9016079 0.000188,17.3858059 L0.000188,22.1786772 C0.012688,22.6458851 0.340812,23.0450139 0.800188,23.1532911 L5.600188,24.052103 C5.890812,25.0128158 6.278308,25.9410139 6.756428,26.8243802 L4.015788,30.7847762 C3.7486,31.1978455 3.814224,31.7408554 4.17204,32.0796277 L7.60016,35.4738059 C7.943912,35.7971366 8.46736,35.8450931 8.86424,35.5882851 L12.87984,32.8716911 C13.74704,33.3373545 14.65796,33.7163644 15.60016,34.0041267 L16.51264,38.8124436 C16.620452,39.2641663 17.02044,39.5890376 17.48764,39.6045228 L22.34844,39.6045228 C22.81876,39.5936935 23.22188,39.2672713 23.32344,38.8124436 L24.22344,34.0599683 C25.20936,33.7753149 26.16252,33.3916515 27.06876,32.9151762 L31.12036,35.6441267 C31.52036,35.9055762 32.05004,35.8622574 32.40004,35.5373822 L35.83596,32.1354812 C36.151584,31.7920396 36.193772,31.2799564 35.93596,30.8916792 L33.20004,26.8908871 C33.68596,25.9936198 34.08128,25.0499366 34.37972,24.0752832 L39.17972,23.1764713 C39.63908,23.0697267 39.96724,22.6690653 39.97972,22.2018574 L39.97972,17.3951248 C39.98597,16.9279168 39.659408,16.5210653 39.20004,16.4205109 L39.2,16.420198 Z M20,28.060198 C17.78752,28.0571042 15.6656,27.1845941 14.1032,25.6344554 C12.53912,24.0843168 11.66256,21.981901 11.66412,19.7912871 C11.66568,17.6006733 12.54692,15.499802 14.11256,13.9528713 C15.6782,12.4042772 17.80008,11.5348515 20.01416,11.536396 C22.22664,11.537943 24.34696,12.4104554 25.91096,13.9590495 C27.47504,15.5091881 28.35316,17.611604 28.3516,19.8022178 C28.3516,21.9943762 27.47192,24.0968713 25.90472,25.6453861 C24.33908,27.1939802 22.21408,28.0634059 19.99992,28.0603168 L20,28.060198 Z" id="Shape"></path>
                </g>
            </g>
        </g>
    </g>
</svg>