<svg id="Layer_3" data-name="Layer 3" xmlns="http://www.w3.org/2000/svg" xmlns:xlink="http://www.w3.org/1999/xlink" viewBox="0 0 53.31 90.79"><defs><style>.cls-1{fill:none;}.cls-2{fill:#b3b3b1;}.cls-3{clip-path:url(#clip-path);}</style><clipPath id="clip-path" transform="translate(-195.95 -172.68)"><path class="cls-1" d="M250.4,226.15l1.79-6.53-1.06-8.6-12.9-7.15,3.92-14.37-4.65-15.84-14.89-5.22-15.73,6.28,1.23,27.51-12.49,4.58-4,11.18,3.59,11.36,6.28-.18c0-2.17,0-4.35,0-6.52,0-5.78,3.15-9,8.87-9h26.14c5.55,0,8.79,3.2,8.84,8.8q0,3.43.05,6.88Z"/></clipPath></defs><path class="cls-2" d="M224.42,253.46a6,6,0,0,0-3.52,1.45c-3.06,2.62-6,5.44-9.3,8.56.25-3,.33-5.39.69-7.75.24-1.61-.35-2.13-1.81-2.39-5.28-.93-7-3-7-8.39,0-7.06,0-14.11,0-21.16,0-5.24,2.84-8.13,8-8.13h23.67c5,0,8,2.9,8,8q.09,10.92,0,21.84c-.05,5.42-2.33,7.59-7.76,7.64l-4.08,0S225.66,253.44,224.42,253.46Zm8.53-7.84a2.49,2.49,0,0,0,2.25-3.82q-4.81-8.38-9.68-16.73a3,3,0,0,0-1.31-1.12,2.4,2.4,0,0,0-3.1,1.22q-4.76,8.24-9.51,16.47a2.54,2.54,0,0,0,2.3,4c3.15,0,6.31,0,9.46,0Z" transform="translate(-195.95 -172.68)"/><g class="cls-3"><path class="cls-2" d="M246.45,211.83a55.12,55.12,0,0,0-17.2-4.93l.6-4.22a4.84,4.84,0,0,0,2.35-3.13l.45-3.92a1.19,1.19,0,0,0,.71.36,1.14,1.14,0,0,0,1.25-1l.63-6a1.14,1.14,0,0,0-1-1.25,1.24,1.24,0,0,0-.66.13c.14-1.14.27-2.29.4-3.44.11-1.57.89-5.77-2.15-8.47-4.38-4.3-14-4.3-18.41,0-3,2.7-2.25,6.9-2.15,8.47.14,1.15.27,2.3.4,3.44a1.21,1.21,0,0,0-.66-.13,1.14,1.14,0,0,0-1,1.25l.62,6a1.14,1.14,0,0,0,1.25,1,1.16,1.16,0,0,0,.71-.36c.15,1.31.3,2.62.46,3.92a4.8,4.8,0,0,0,2.35,3.13l.6,4.22a55,55,0,0,0-17.2,4.93A5.76,5.76,0,0,0,196,217q.32,3.18.64,6.36a4.77,4.77,0,0,0,3.53,4,140.57,140.57,0,0,0,44.94,0,4.79,4.79,0,0,0,3.53-4q.33-3.18.63-6.36A5.76,5.76,0,0,0,246.45,211.83Z" transform="translate(-195.95 -172.68)"/></g><path class="cls-2" d="M223.09,238.07c.58.07.58.07.67-.47s.21-1.25.34-1.87c.29-1.34.6-2.68.89-4a1.59,1.59,0,0,0-.58-1.7,1.67,1.67,0,0,0-1.79-.22c-.8.36-1.09,1.12-.85,2.22C222.2,234,222.64,236,223.09,238.07Z" transform="translate(-195.95 -172.68)"/><path class="cls-2" d="M223.32,242.34a1.64,1.64,0,0,0,1.69-1.53,1.71,1.71,0,0,0-1.66-1.65,1.65,1.65,0,0,0-1.64,1.59A1.59,1.59,0,0,0,223.32,242.34Z" transform="translate(-195.95 -172.68)"/></svg>