<svg id="Layer_3" data-name="Layer 3" xmlns="http://www.w3.org/2000/svg" xmlns:xlink="http://www.w3.org/1999/xlink" viewBox="0 0 327.81 285.18"><defs><style>.cls-1{fill:none;}.cls-2{clip-path:url(#clip-path);}.cls-3{fill:#f03031;}</style><clipPath id="clip-path" transform="translate(-50.95 -64.22)"><path class="cls-1" d="M105.88,304a69.56,69.56,0,0,0,22.48-133.77l35.47-93s71.56-29.43,74.91-29.09S329.69,81.9,329.69,81.9l45.48,110.35,19.39,97.44-34.11,57.88-97,23.91-87.61-4-55.51-18.06Z"/></clipPath></defs><g class="cls-2"><path class="cls-3" d="M225.07,199.66c0,7,7.4,10.21,17.62,11.6l3.84.85V187.24l-3.84.11C235.27,187.76,225.07,191,225.07,199.66Z" transform="translate(-50.95 -64.22)"/><path class="cls-3" d="M261.42,251.38l-3.56-.9v31.3l3.56-.33c7.69-.86,20.82-4.34,20.82-14.54C282.24,257.67,271.9,253.62,261.42,251.38Z" transform="translate(-50.95 -64.22)"/><path class="cls-3" d="M375.66,246.18c-21.21-69.74-47.27-107.76-87.7-107.51,12.51-15,23.51-32.22,26.35-48.85-24.32,11.09-59.69-6-70.72-25.6-11,19.63-46.4,36.69-70.72,25.6,2.55,15,11.74,30.46,22.68,44.32a198.88,198.88,0,0,0,40.72,10.68,5.07,5.07,0,0,1-.77,10.07,4.14,4.14,0,0,1-.79-.06,207.5,207.5,0,0,1-50.6-14.3c-32,8.36-54.14,45-72.59,105.65-15.15,49.83,26.93,107,88,103,32.61-3.93,45.78-21.79,64.66-35.65q2.26-1.68,4.46-3.27a11.19,11.19,0,0,1,13.21,18.06l-4.43,3.25c-5.44,4-11.05,8.11-16.72,12.09C335.7,369.41,393,303.05,375.66,246.18Zm-114.24,39-3.56.21v8.92a5.67,5.67,0,0,1-11.33,0v-8.74l-3.84-.12c-17.06-.69-41.53-3.5-41.53-18.44,0-5.73,2.94-14,16.63-14,12.73,0,17.34,6.57,17.34,12.59,0,7.69-7.26,10.19-9.78,10.75,3.07,2,8.11,4.34,17.34,5.17l3.84.25V247.45l-3.84-1C223,240.9,204,232.93,204,213.22c0-11.89,7.83-27.69,38.73-29.36l3.84-.12v-8.88a5.67,5.67,0,1,1,11.33,0v8.86h3.56c14.82,1,39.7,4,39.7,18.16,0,4.07-2.09,11.76-15.09,11.76-12.31,0-17.06-5.6-17.06-10.77s3.91-7.83,7.27-8.82c-1.69-1.52-6-5-14.82-6l-3.56-.44V214.7l3.56.9c38.87,6.71,41.8,26.84,41.8,35.78C303.22,259.63,299.31,281.45,261.42,285.22Z" transform="translate(-50.95 -64.22)"/></g><path class="cls-3" d="M135.73,270a49.66,49.66,0,1,1,0-70.23A49.65,49.65,0,0,1,135.73,270ZM93.15,228c-4.56,0-9.11.07-13.67,0a3.66,3.66,0,0,0-4,4c.1,2,0,4.1,0,6.15a3.41,3.41,0,0,0,3.59,3.56h14l.71,0a5.87,5.87,0,0,0-.08.62c0,4.67,0,9.34,0,14a3.41,3.41,0,0,0,3.53,3.57h6.32c2.46,0,3.82-1.35,3.82-3.79V242.36c0-.2,0-.4,0-.77a4.3,4.3,0,0,0,.65.12H122a3.41,3.41,0,0,0,3.66-3.67v-6.49a3.43,3.43,0,0,0-3.54-3.52H108.08l-.71,0c0-.29.08-.52.08-.75V213.31a3.42,3.42,0,0,0-3.48-3.5H97.53a3.41,3.41,0,0,0-3.75,3.74q0,6.88,0,13.78a6.71,6.71,0,0,0,.07.69Z" transform="translate(-50.95 -64.22)"/></svg>