<?xml version="1.0" encoding="UTF-8"?>
<svg id="Layer_1" xmlns="http://www.w3.org/2000/svg" width="379.5" height="147.7" viewBox="0 0 379.5 147.7"><style>.st0{fill:#fff}</style><path class="st0" d="M16.8 61.5L9.4 83.7H0L24 13h11l24.1 70.7h-9.8l-7.6-22.2H16.8zM40 54.4L33 34c-1.6-4.6-2.6-8.8-3.7-12.9h-.2c-1 4.2-2.2 8.5-3.6 12.8l-6.9 20.5H40zM67.3 74.3C70 76.1 74.9 78 79.5 78c6.7 0 9.9-3.4 9.9-7.6 0-4.4-2.6-6.8-9.4-9.3-9.1-3.3-13.4-8.3-13.4-14.4 0-8.2 6.6-14.9 17.5-14.9 5.1 0 9.6 1.5 12.5 3.1l-2.3 6.7c-2-1.3-5.7-2.9-10.4-2.9-5.5 0-8.5 3.1-8.5 6.9 0 4.2 3 6.1 9.6 8.6 8.8 3.4 13.3 7.8 13.3 15.3 0 8.9-6.9 15.2-19 15.2-5.6 0-10.7-1.4-14.3-3.5l2.3-6.9zM121.2 18.4V33h13.2v7h-13.2v27.4c0 6.3 1.8 9.9 6.9 9.9 2.4 0 4.2-.3 5.3-.6l.4 6.9c-1.8.7-4.6 1.3-8.2 1.3-4.3 0-7.8-1.4-10-3.9-2.6-2.7-3.6-7.2-3.6-13.2V40h-7.9v-7h7.9V20.8l9.2-2.4zM144.8 48.8c0-6-.1-11.1-.4-15.8h8.1l.3 10h.4c2.3-6.8 7.9-11.1 14.1-11.1 1 0 1.8.1 2.6.3v8.7c-.9-.2-1.9-.3-3.1-.3-6.5 0-11.1 4.9-12.4 11.9-.2 1.3-.4 2.7-.4 4.3v27.1h-9.1V48.8h-.1zM224 57.9c0 18.8-13 27-25.3 27-13.7 0-24.3-10.1-24.3-26.1 0-17 11.1-27 25.2-27 14.6 0 24.4 10.6 24.4 26.1zm-40.2.5c0 11.1 6.4 19.5 15.4 19.5 8.8 0 15.4-8.3 15.4-19.7 0-8.6-4.3-19.5-15.2-19.5s-15.6 10.1-15.6 19.7zM236 13.9c4.4-.7 10.2-1.4 17.5-1.4 9 0 15.6 2.1 19.8 5.9 3.9 3.4 6.2 8.5 6.2 14.8 0 6.4-1.9 11.4-5.5 15.1-4.8 5.1-12.7 7.8-21.6 7.8-2.7 0-5.2-.1-7.3-.6v28.3H236V13.9zm9.1 34.1c2 .5 4.5.7 7.6.7 11 0 17.7-5.3 17.7-15.1 0-9.3-6.6-13.8-16.7-13.8-4 0-7 .3-8.6.7V48zM316.9 83.7l-.7-6.4h-.3c-2.8 4-8.3 7.6-15.5 7.6-10.3 0-15.5-7.2-15.5-14.6 0-12.3 10.9-19 30.5-18.9v-1c0-4.2-1.2-11.7-11.5-11.7-4.7 0-9.7 1.5-13.2 3.8l-2.1-6.1c4.2-2.7 10.3-4.5 16.7-4.5 15.5 0 19.3 10.6 19.3 20.8v19c0 4.4.2 8.7.8 12.2h-8.5v-.2zm-1.4-25.9c-10.1-.2-21.5 1.6-21.5 11.4 0 6 4 8.8 8.7 8.8 6.6 0 10.8-4.2 12.3-8.5.3-.9.5-2 .5-2.9v-8.8zM341.8 33l11.1 30c1.2 3.4 2.4 7.3 3.3 10.4h.2c.9-3 2-6.9 3.3-10.6l10-29.8h9.8l-13.8 36.2c-6.6 17.4-11.1 26.3-17.4 31.8-4.5 4-9 5.6-11.3 6l-2.3-7.8c2.3-.7 5.3-2.2 8.1-4.5 2.5-2 5.7-5.6 7.8-10.3.4-.9.7-1.7.7-2.2s-.2-1.3-.6-2.4l-19-46.8h10.1z"/><g><path class="st0" d="M58 25.7S89.3-16 144.7 23c0 0-17.3-23-48.7-23S43.7 25.3 43.7 25.3 58 25 58 25.7z"/></g><path class="st0" d="M300.7 111.5c-4.5 0-7.1 3.9-7.1 9.2 0 4.8 2.4 8.8 7 8.8 2.9 0 5.5-1.9 6.3-5.2.1-.6.2-1.2.2-1.9v-4.1c0-.5 0-1.3-.2-1.8-.6-2.8-3-5-6.2-5zM254.1 125.7c0 2.8 1.9 4.1 4.1 4.1 3.1 0 5.1-2 5.7-4 .1-.4.2-.9.2-1.4v-4.1h.1c-4.7-.1-10.1.7-10.1 5.4z"/><path class="st0" d="M310.7 90.7H224c-4.9 0-9 4.1-9 9v39c0 4.9 4.1 9 9 9h86.7c4.9 0 9-4.1 9-9v-39c0-4.9-4-9-9-9zM299.8 108c3.6 0 6.1 1.7 7.2 3.6h.1V97.5h4.3v28.7c0 2.1 0 4.5.2 6.1h-3.9l-.2-4.1h-.1c-1.3 2.7-4.2 4.7-8.1 4.7-5.7 0-10.2-4.9-10.2-12.1 0-7.9 4.9-12.8 10.7-12.8zm-20.9.6l.1 4.7h.2c1.1-3.2 3.7-5.2 6.6-5.2.5 0 .8 0 1.2.1v4.1c-.4-.1-.9-.1-1.5-.1-3 0-5.2 2.3-5.8 5.5-.1.6-.2 1.3-.2 2v12.7h-4.3V116h.1c0-2.8 0-5.2-.2-7.4h3.8zm-20.2 2.7c-2.2 0-4.5.7-6.2 1.8l-1-2.8c2-1.3 4.8-2.1 7.8-2.1 7.3 0 9 5 9 9.7v8.9c0 2.1.1 4.1.4 5.7h-3.9v-.1l-.3-3h-.1c-1.3 1.9-3.9 3.5-7.3 3.5-4.8 0-7.3-3.4-7.3-6.8 0-5.7 5.1-8.9 14.3-8.8v-.5c0-2-.5-5.5-5.4-5.5zM239 98.8c4.1 0 6.7.9 7.9 1.5l-1 3.5c-1.6-.8-3.9-1.4-6.7-1.4-7.8 0-12.9 5-12.9 13.7 0 8.1 4.7 13.3 12.7 13.3 2.6 0 5.3-.5 7-1.4l.8 3.3c-1.6.8-4.7 1.6-8.7 1.6-9.3 0-16.4-5.9-16.4-16.7 0-10.4 7-17.4 17.3-17.4zm76 40.6h-93.3v-1.7H315v1.7z"/></svg>