<?xml version="1.0" encoding="UTF-8"?>
<svg width="29px" height="29px" viewBox="0 0 29 29" version="1.1" xmlns="http://www.w3.org/2000/svg" xmlns:xlink="http://www.w3.org/1999/xlink">
    <!-- Generator: Sketch 45.2 (43514) - http://www.bohemiancoding.com/sketch -->
    <title>LiteCoin</title>
    <desc>Created with Sketch.</desc>
    <defs></defs>
    <g id="Desktop" stroke="none" stroke-width="1" fill="none" fill-rule="evenodd" opacity="0.495867301">
        <g id="01_BetOnline_Desktop_HomePage" transform="translate(-1091.000000, -1951.000000)" fill-rule="nonzero" fill="#000000">
            <g id="Group-5" transform="translate(219.000000, 1948.000000)">
                <g id="LiteCoin" transform="translate(872.000000, 3.000000)">
                    <path d="M14.5049711,0.0174899169 C6.51790903,0.0174899169 0.0466397784,6.48875917 0.0466397784,14.4758212 C0.0466397784,22.4628833 6.51790903,28.9341525 14.5049711,28.9341525 C22.4920331,28.9341525 28.9633024,22.4628833 28.9633024,14.4758212 C28.9633024,6.48875917 22.4862032,0.0174899169 14.5049711,0.0174899169 Z M22.0664451,23.6988374 L6.733618,23.6988374 L8.28439063,17.7755855 L5.9757216,18.6267615 L6.733618,16.1198734 L8.93734753,15.2920173 L11.572495,5.24697507 L17.4899169,5.24697507 L15.4319367,12.8550889 L17.9271648,11.9222933 L17.3733174,14.4350114 L14.7498299,15.4027868 L13.467236,20.1425543 L23.0283906,20.1425543 L22.0664451,23.6988374 Z" id="Shape"></path>
                </g>
            </g>
        </g>
    </g>
</svg>