<svg xmlns="http://www.w3.org/2000/svg" viewBox="0 0 407.2 87.3"><defs><style>.a{fill:#fff;}</style></defs><title>cashlib-logo-white</title><path class="a" d="M63.6,62.8c-.1-.1-.3-.1-.3,0s-6.8,8.7-17.1,9.7H46a14.77,14.77,0,0,1-2.1.1c-8.8,0-20.3-3.5-25.5-20.3v-.1c-.2-.7-.4-1.5-.6-2.2a30.72,30.72,0,0,1,0-13c.2-.7.4-1.4.6-2,2.4-7.6,8.8-20.4,25.5-20.4a14.77,14.77,0,0,1,2.1.1h.2A23,23,0,0,1,62,23.8c0,.1.1.1.2.1h.2l12.3-9.3a.37.37,0,0,0,.1-.3,28.3,28.3,0,0,0-7.2-6.7A42.86,42.86,0,0,0,44,1,47.18,47.18,0,0,0,17.3,9,38.12,38.12,0,0,0,1.2,32.6v.1a53.15,53.15,0,0,0-1.1,14c.1,1.7.2,3.2.4,4.6v.3A38.55,38.55,0,0,0,16,77.8a47,47,0,0,0,27.9,8.8c21.4,0,31.9-13.9,32-14s.1-.3-.1-.3ZM18.2,52.4Z" transform="translate(0 0)"/><path class="a" d="M128.1,1.1a.22.22,0,0,0-.2-.2H114.7a.22.22,0,0,0-.2.2l-35.9,85v.2c0,.1.1.1.2.1H95.7a.22.22,0,0,0,.2-.2l7.5-19h34.3l8.2,19a.22.22,0,0,0,.2.2h17.3c.1,0,.2,0,.2-.1s.1-.2,0-.2Zm5.7,52.7H108.5l12.6-31.9Z" transform="translate(0 0)"/><path class="a" d="M190,35.2c-11.4-4-11.2-10.7-10.8-12.7.8-4.6,5.3-8,10.7-8a24.58,24.58,0,0,1,2.8.2,14,14,0,0,1,10.2,5.9c0,.1.1.1.2.1s.2,0,.2-.1L213.7,9.2c.1-.1.1-.3,0-.3A36.28,36.28,0,0,0,189.9,0c-15.4,0-26.6,10.4-26.6,24.8a21.35,21.35,0,0,0,7.1,16.4c4.2,3.8,9.5,6.2,13.7,7.8,8.3,3.2,15.2,6.3,15.2,12.9,0,6.3-7.1,10.5-13.8,10.5s-13.3-8.2-13.3-8.3-.1-.1-.2-.1-.1,0-.2.1L161,75.2a.19.19,0,0,0,0,.3,31.33,31.33,0,0,0,23.7,10.9c16,0,29-10.9,29-24.2C213.7,48.2,207.7,41.4,190,35.2Z" transform="translate(0 0)"/><path class="a" d="M281.7,1H268.1a.22.22,0,0,0-.2.2V34.7H235.4V1.2a.22.22,0,0,0-.2-.2H221.6a.22.22,0,0,0-.2.2V86.1a.22.22,0,0,0,.2.2h13.6a.22.22,0,0,0,.2-.2V48.9h32.5V86.2a.22.22,0,0,0,.2.2h13.6a.22.22,0,0,0,.2-.2V1.2A.22.22,0,0,0,281.7,1Z" transform="translate(0 0)"/><path class="a" d="M310.4.5h-16a.77.77,0,0,0-.8.7V86.1a.79.79,0,0,0,.8.8h16a.79.79,0,0,0,.8-.8V1.2A.85.85,0,0,0,310.4.5Z" transform="translate(0 0)"/><path class="a" d="M335.6,31.7h-16a.79.79,0,0,0-.8.8V86.2a.79.79,0,0,0,.8.8h16a.79.79,0,0,0,.8-.8V32.5A.86.86,0,0,0,335.6,31.7Z" transform="translate(0 0)"/><path class="a" d="M382.5,30.9c-8.7,0-15.1,2-19.6,6.1V1.2a.71.71,0,0,0-.8-.7h-16a.77.77,0,0,0-.8.7V86.1a.79.79,0,0,0,.8.8h16a.79.79,0,0,0,.8-.8V80.6c4.5,4.5,11.1,6.7,19.6,6.7,13.6,0,24.7-12.7,24.7-28.2S396.1,30.9,382.5,30.9Zm6.9,28.6A13.53,13.53,0,0,1,376,73.2a13.38,13.38,0,0,1-13.1-10.9V56.8a13.36,13.36,0,0,1,26.5,2.7Z" transform="translate(0 0)"/><path class="a" d="M327.6.6A10.4,10.4,0,1,0,338,11.1,10.39,10.39,0,0,0,327.6.6Z" transform="translate(0 0)"/></svg>