<?xml version="1.0" encoding="UTF-8"?>
<svg width="158px" height="32px" viewBox="0 0 158 32" version="1.1" xmlns="http://www.w3.org/2000/svg" xmlns:xlink="http://www.w3.org/1999/xlink">
    <!-- Generator: Sketch 45.2 (43514) - http://www.bohemiancoding.com/sketch -->
    <title>Postepay</title>
    <desc>Created with Sketch.</desc>
    <defs></defs>
    <g id="Page-1" stroke="none" stroke-width="1" fill="none" fill-rule="evenodd">
        <g id="Postepay" fill-rule="nonzero" fill="#FFFFFF">
            <path d="M20.8,6.7 C19.6,5.5 18.1,5 16.2,5 C15.3,5 14.3,5.1 13.4,5.5 C13.2,5.6 12.9,5.6 12.7,5.8 C11.6,6.3 10.5,7.2 9.5,8.2 L9.8,5.2 L6.3,5.2 C6.2,6.1 6.2,6.9 6.1,7.7 C6,8.6 5.8,9.4 5.7,10.2 L0.7,32 L4.5,32 L6.8,22 C7.5,23 8.4,23.8 9.3,24.3 C10.3,24.8 11.4,25.1 12.8,25.1 C13,25.1 13.2,25.1 13.4,25.1 C14.8,25 16.1,24.6 17.3,23.9 C18.7,23.1 19.9,22 20.8,20.4 C21.6,19.2 22.2,17.7 22.5,16.1 C22.9,14.4 23.1,12.9 22.9,11.4 C22.7,9.5 22.1,7.8 20.8,6.7 Z M18.8,15.4 C18.4,16.8 17.9,18 17.3,19.1 C16.7,20.3 15.9,21.1 14.9,21.7 C14.5,21.9 14,22.1 13.5,22.3 C13,22.4 12.4,22.5 11.8,22.5 C10.6,22.5 9.7,22.1 9,21.5 C8.3,20.8 7.8,19.9 7.8,18.8 C7.7,17.8 7.8,16.6 8.2,15 C8.6,13.5 9.1,12.1 9.7,11 C10.3,9.8 11.1,8.9 12,8.3 C12.5,8 13,7.7 13.5,7.6 C13.9,7.5 14.4,7.4 14.9,7.4 C16.1,7.4 17.1,7.8 17.9,8.6 C18.6,9.4 19.1,10.4 19.2,11.7 C19.2,12.7 19.1,14 18.8,15.4 Z" id="Shape"></path>
            <path d="M112.9,6.4 C111.8,5.3 110.3,4.7 108.4,4.7 C107.2,4.7 106,4.9 105,5.4 C104.9,5.5 104.7,5.5 104.5,5.6 C103.6,6.1 102.8,6.8 102,7.5 L102.1,5.1 L96.7,5.1 C96.6,6.4 96.2,8.4 95.6,11.1 L91,32 L97,32 L99.3,21.7 C99.9,22.8 100.7,23.6 101.7,24.1 C102.5,24.5 103.4,24.8 104.5,24.9 C104.7,24.9 105,25 105.2,25 C108.2,25 110.7,23.6 112.5,20.9 C114.4,18.2 115.1,14.9 114.7,11 C114.7,9.1 114,7.5 112.9,6.4 Z M108.7,14.9 C108.4,16.2 108,17.4 107.5,18.5 C107,19.5 106.5,20.2 105.8,20.7 C105.4,21 105,21.2 104.6,21.3 C104.3,21.4 104,21.4 103.7,21.4 C102.7,21.4 101.9,21 101.3,20.4 C100.7,19.8 100.4,18.8 100.2,17.6 C100,15.2 100.4,13.1 101.6,11.1 C102.4,9.7 103.4,8.8 104.6,8.4 C105,8.3 105.4,8.3 105.8,8.3 C106.7,8.3 107.5,8.6 108,9.2 C108.5,9.7 108.9,10.5 108.9,11.6 C109,12.5 109,13.6 108.7,14.9 Z" id="Shape"></path>
            <path d="M132.7,6.2 C131.3,5.3 129.5,5 126.9,5 C126.1,5 125.3,5 124.6,5.1 C123.1,5.3 121.9,5.7 120.8,6.4 C119.4,7.4 118.5,8.8 118.4,10.6 L124.1,10.6 C124.2,10 124.4,9.5 124.7,9.2 C124.8,9 124.9,8.9 125.1,8.8 C125.5,8.4 126.2,8.2 127,8.2 C127.7,8.2 128.3,8.3 128.7,8.6 C129.1,8.9 129.3,9.3 129.4,9.9 C129.4,10.2 129.4,10.5 129.3,10.8 C129.3,11.2 129.2,11.7 129,12.5 C128.8,12.5 128.6,12.5 128.4,12.5 C128.2,12.5 127.8,12.5 127.4,12.5 C126.5,12.5 125.5,12.5 124.7,12.6 C121.9,12.8 119.7,13.5 118.1,14.5 C116.1,15.8 115.1,17.7 115.4,20.1 C115.5,21.7 116.1,22.9 117.2,23.8 C118.3,24.7 119.6,25.2 121.4,25.2 C122.6,25.2 123.6,24.9 124.6,24.4 L124.7,24.3 C125.6,23.9 126.4,23.1 127.1,22.1 C127.1,22.6 127,23 127,23.5 C127,24 127,24.4 127,24.9 L132.5,24.9 C132.5,24 132.5,23.2 132.6,22.4 C132.7,21.5 132.8,20.7 133,20 L134.5,13.4 C134.6,12.8 134.8,12.1 134.9,11.6 C135,11 135,10.5 134.9,10 C134.7,8.3 134,7 132.7,6.2 Z M126.4,19.9 C125.8,20.5 125.2,21 124.7,21.3 C124.3,21.5 123.8,21.6 123.3,21.6 C122.7,21.6 122.1,21.5 121.8,21.1 C121.4,20.7 121.2,20.2 121.2,19.6 C121.1,18.4 121.6,17.4 122.8,16.6 C123.4,16.2 124,15.9 124.8,15.7 C125.5,15.5 126.4,15.4 127.3,15.4 C127.6,15.4 127.7,15.4 127.9,15.4 C128,15.4 128.2,15.4 128.3,15.5 C128,17.3 127.3,18.8 126.4,19.9 Z" id="Shape"></path>
            <polygon id="Shape" points="152.4 5.1 144.8 18.6 143.1 5.1 137.2 5.1 140.6 24.8 135.9 32 142.2 32 145.8 25.6 158 5.1"></polygon>
            <path d="M42.5,11.2 C42.3,9.2 41.6,7.6 40.1,6.4 C38.7,5.3 36.9,4.7 34.6,4.7 C34,4.7 33.3,4.7 32.7,4.8 C31.5,4.9 30.4,5.2 29.5,5.6 C28.1,6.2 26.9,7.1 26,8.3 C25,9.7 24.3,11.3 23.8,13.1 C23.2,15 23.1,16.7 23.2,18.4 C23.3,20.5 24.1,22.1 25.6,23.3 C27,24.5 28.8,25.1 31.1,25.1 C31.7,25.1 32.3,25 32.8,25 C34.2,24.9 35.5,24.6 36.5,24.1 C37.9,23.5 39.1,22.4 40.1,20.9 C41,19.6 41.6,18 42,16.2 C42.5,14.5 42.7,12.7 42.5,11.2 Z M38.2,15.5 C37.8,17 37.3,18.4 36.6,19.6 C36,20.7 35.2,21.5 34.4,22 C34,22.3 33.4,22.5 32.8,22.6 C32.4,22.7 31.9,22.7 31.4,22.7 C30.1,22.7 29.1,22.3 28.3,21.6 C27.6,20.9 27.1,19.9 27,18.6 C26.9,17.4 27,16.1 27.4,14.5 C27.8,12.9 28.3,11.6 28.9,10.5 C29.5,9.3 30.3,8.5 31.2,7.8 C31.7,7.5 32.3,7.3 32.8,7.2 C33.3,7.1 33.7,7 34.2,7 C35.6,7 36.6,7.4 37.3,8.1 C38,8.7 38.5,9.8 38.6,11.3 C38.7,12.6 38.6,13.9 38.2,15.5 Z" id="Shape"></path>
            <path d="M57.6,5.8 C56.5,5.2 54.9,4.8 52.6,4.8 C50.2,4.8 48.2,5.4 46.8,6.5 C45.4,7.7 44.8,9 44.9,10.7 C45,11.7 45.4,12.6 46.3,13.4 C47.1,14.2 48.5,15.1 50.5,16 C52.1,16.7 53.1,17.3 53.6,17.7 C54.1,18.1 54.4,18.6 54.4,19.2 C54.5,20.1 54.1,20.9 53.2,21.6 C52.3,22.2 51.2,22.5 49.7,22.5 C48.5,22.5 47.8,22.4 47.2,21.9 C46.6,21.5 46.3,21 46.3,20.2 C46.2,20 46.2,19.8 46.3,19.5 C46.3,19.2 46.4,18.9 46.5,18.6 L42.6,18.6 C42.5,19 42.5,19.5 42.4,19.8 C42.3,20.2 42.3,20.6 42.4,20.9 C42.5,22.3 43.2,23.4 44.4,24.2 C45.7,24.9 47.4,25.4 49.5,25.4 C52.2,25.4 54.5,24.8 56.1,23.5 C57.8,22.3 58.5,20.7 58.4,18.9 C58.3,17.8 57.9,16.9 57.2,16.2 C56.6,15.5 55,14.5 52.7,13.5 C51,12.7 50,12.1 49.5,11.7 C49,11.3 48.8,10.8 48.7,10.3 C48.6,9.4 48.9,8.7 49.6,8.2 C50.2,7.7 51.2,7.4 52.4,7.4 C53.5,7.4 54.3,7.6 54.8,8 C55.4,8.4 55.7,8.9 55.7,9.7 C55.7,9.8 55.7,10.1 55.7,10.2 C55.7,10.3 55.7,10.6 55.7,10.8 L59.2,10.8 C59.3,10.3 59.3,9.9 59.3,9.7 C59.3,9.4 59.3,9.2 59.3,9 C59.3,7.3 58.7,6.4 57.6,5.8 Z" id="Shape"></path>
            <path d="M68.5,22.4 C67.6,22.4 67,22.3 66.6,22 C66.2,21.8 66,21.4 66,20.8 C65.9,20.6 66,20.3 66.1,19.9 C66.1,19.5 66.2,19 66.5,18.2 L68.7,8 L72.9,8 L73.5,5.5 L69.3,5.5 L70.5,0.1 L66.7,1 L65.7,5.5 L62,5.5 L61.4,8 L65,8 L62.8,17.8 C62.7,18.7 62.4,19.6 62.4,20.5 C62.3,21.3 62.3,21.9 62.3,22.3 C62.4,23.4 62.7,24.2 63.5,24.6 C64.1,25.1 65.2,25.3 66.7,25.3 C67.2,25.3 67.8,25.2 68.4,25.2 C69,25.1 69.6,25.1 70.3,25 L70.9,22.1 C70.5,22.2 70.1,22.3 69.7,22.3 C69.2,22.3 68.8,22.4 68.5,22.4 Z" id="Shape"></path>
            <path d="M76.9,15.5 L82.6,15.5 L91,15.5 C91.2,14.6 91.4,13.8 91.4,13 C91.5,12.2 91.5,11.4 91.4,10.7 C91.3,8.6 90.5,7.1 89.2,6.2 C87.9,5.3 86,4.8 83.4,4.8 C83.1,4.8 82.9,4.8 82.6,4.8 C81.1,4.9 79.8,5.2 78.6,5.9 C77.2,6.5 76.1,7.6 75.2,8.9 C74.4,10.3 73.7,11.9 73.3,13.8 C72.8,15.7 72.7,17.5 72.8,19 C72.9,21 73.7,22.6 75,23.7 C76.4,24.8 78.2,25.4 80.5,25.4 C81.2,25.4 81.9,25.3 82.6,25.3 C84.2,25.1 85.6,24.6 86.7,23.8 C88.4,22.7 89.4,21.2 89.9,19.3 L85.7,19.3 C85.3,20.4 84.7,21.2 83.8,21.8 C83.4,22 83,22.2 82.6,22.4 C82.1,22.6 81.5,22.7 80.9,22.7 C79.5,22.7 78.5,22.3 77.7,21.7 C77,21.1 76.5,20.1 76.4,18.9 C76.4,18.5 76.4,18 76.5,17.5 C76.6,16.6 76.7,16 76.9,15.5 Z M79.7,8.5 C80.5,7.6 81.5,7.2 82.7,7.1 C82.9,7.1 83.2,7 83.4,7 C84.7,7 85.7,7.4 86.5,7.9 C87.2,8.5 87.7,9.3 87.7,10.3 C87.8,10.6 87.8,10.9 87.7,11.2 C87.7,11.6 87.6,12.1 87.6,12.7 L82.7,12.7 L77.7,12.7 C77.9,10.9 78.7,9.4 79.7,8.5 Z" id="Shape"></path>
        </g>
    </g>
</svg>