<?xml version="1.0" encoding="UTF-8"?>
<svg width="71px" height="72px" viewBox="0 0 71 72" version="1.1" xmlns="http://www.w3.org/2000/svg" xmlns:xlink="http://www.w3.org/1999/xlink">
    <!-- Generator: Sketch 45.2 (43514) - http://www.bohemiancoding.com/sketch -->
    <title>Group</title>
    <desc>Created with Sketch.</desc>
    <defs></defs>
    <g id="Desktop" stroke="none" stroke-width="1" fill="none" fill-rule="evenodd">
        <g id="9.5_BitcoinDeposit" transform="translate(-875.000000, -333.000000)">
            <g id="Group" transform="translate(875.000000, 333.000000)">
                <g id="np_money-wallet_953822_000000" fill-rule="nonzero" fill="#FFFFFF">
                    <path d="M0,52.976967 L21.7559778,52.976967 L21.7559778,37.6844835 L2.80269635e-15,37.6844835 L0,52.976967 Z M14.8500444,41.9775824 C16.6528133,41.9775824 18.1134411,43.4765275 18.1134411,45.3309626 C18.1134411,47.182233 16.6527344,48.6843429 14.8500444,48.6843429 C13.0472756,48.6843429 11.5866478,47.1853978 11.5866478,45.3309626 C11.5866478,43.4765275 13.0473544,41.9775824 14.8500444,41.9775824 Z" id="Shape"></path>
                    <path d="M71,26.0545055 C71,22.4136791 67.7458333,19.4528176 63.74593,19.4528176 L10.8777522,19.4528176 C6.87477222,19.4528176 3.61752889,22.4136791 3.61752889,26.0545055 L3.61752889,35.333011 L22.9019178,35.333011 C23.5336442,35.333011 24.0451756,35.8584211 24.0451756,36.510567 L24.0451756,54.1553143 C24.0451756,54.8043508 23.5336284,55.3297846 22.9019178,55.3297846 L3.62068444,55.3297846 L3.62068444,64.6082901 C3.62068444,68.2491165 6.87792778,71.2130637 10.8809078,71.2130637 L63.7490856,71.2130637 C67.7459122,71.2099733 71.0000789,68.2460308 71.0000789,64.6052044 L71,26.0545055 Z" id="Shape"></path>
                    <polygon id="Shape" points="47.5920889 0 22.4525667 16.6834286 28.52638 14.1150857 50.5971244 4.77803077"></polygon>
                    <path d="M56.8370778,4.68553846 L52.74164,6.41630769 L52.74164,6.41939815 L27.2565844,17.1932883 L38.1716511,17.1932883 L50.49804,11.9793806 C51.4256156,14.297385 54.0079644,15.4038113 56.2637133,14.4488223 L57.3638189,17.1933674 L61.8598544,17.1933674 L56.8370778,4.68553846 Z" id="Shape"></path>
                </g>
                <g id="Page-1" transform="translate(28.000000, 35.000000)">
                    <g id="Group-3" transform="translate(0.000000, 0.000184)" fill="#90918D">
                        <path d="M19.6986875,12.2360117 C18.3630625,17.505687 12.9368125,20.7117519 7.5793125,19.3984056 C2.2236875,18.0844446 -1.0369375,12.7474576 0.299625,7.47870433 C1.6343125,2.20872165 7.0605625,-0.997958009 12.4165,0.315695671 C17.7743125,1.62934935 21.034,6.96695108 19.6986875,12.2360117" id="Fill-1"></path>
                    </g>
                    <path d="M12.2404688,8.43668182 C11.9310938,9.65566883 10.0214063,9.03633983 9.40234375,8.88450433 L9.94859375,6.72991558 C10.5676563,6.88175108 12.5626563,7.16513636 12.2404688,8.43668182 M11.9010937,11.9132229 C11.5620312,13.2530022 9.26796875,12.529171 8.52390625,12.3472143 L9.12671875,9.9716342 C9.87046875,10.1542056 12.2554687,10.5159675 11.9010937,11.9132229 M14.4079687,8.45604545 C14.6070312,7.14730952 13.5939062,6.44376407 12.2082812,5.97442641 L12.6579687,4.20157792 L11.5607812,3.93263853 L11.1232812,5.6587684 C10.8348437,5.58807576 10.5385937,5.52137879 10.2445312,5.45529654 L10.6848437,3.71779437 L9.58859375,3.44885498 L9.13890625,5.22108874 C8.90015625,5.16760823 8.66578125,5.11474242 8.43828125,5.05911039 L8.43953125,5.05357792 L6.92640625,4.68198052 L6.63453125,5.83457792 C6.63453125,5.83457792 7.44859375,6.01807143 7.43109375,6.02944372 C7.87578125,6.13855628 7.95609375,6.42778139 7.94265625,6.65707143 L7.43046875,8.67672944 C7.46140625,8.68441342 7.50109375,8.69578571 7.54484375,8.71269048 C7.50796875,8.70377706 7.46890625,8.69394156 7.42890625,8.68441342 L6.71140625,11.5136558 C6.65703125,11.6464351 6.51890625,11.8452965 6.20859375,11.7699935 C6.21921875,11.7856688 5.41109375,11.5742056 5.41109375,11.5742056 L4.86609375,12.80979 L6.29421875,13.1601797 C6.55953125,13.2256472 6.81984375,13.293881 7.07640625,13.3584264 L6.62203125,15.1515606 L7.71796875,15.4205 L8.16765625,13.6461147 C8.46703125,13.7260281 8.75734375,13.7997944 9.04203125,13.8695649 L8.59390625,15.6350368 L9.69109375,15.9039762 L10.1451562,14.1145303 C12.0157812,14.4627684 13.4229687,14.3223052 14.0151562,12.6582619 C14.4923437,11.3184827 13.9914062,10.5451667 13.0070312,10.04079 C13.7239062,9.87788961 14.2639062,9.41408442 14.4079687,8.45604545" id="Fill-4" fill="#FFFFFF"></path>
                </g>
            </g>
        </g>
    </g>
</svg>