<svg id="Layer_3" data-name="Layer 3" xmlns="http://www.w3.org/2000/svg" xmlns:xlink="http://www.w3.org/1999/xlink" viewBox="0 0 71.71 85.51"><defs><style>.cls-1{fill:none;}.cls-2{fill:#f03031;}.cls-3{clip-path:url(#clip-path);}</style><clipPath id="clip-path" transform="translate(-178.29 -174.1)"><polygon class="cls-1" points="212.94 185.43 226.9 185.43 224.47 170.54 187.33 166.95 173.32 172 176.41 262.74 225.12 262.74 225.28 237.16 207.2 237.16 198.08 241.23 197.59 228.04 184.23 201.16 187.16 195.06 212.94 185.43"/></clipPath></defs><path class="cls-2" d="M207.7,212.59a6.73,6.73,0,0,0-1.62-3.93c-2.93-3.43-6.09-6.66-9.57-10.41,3.34.28,6,.37,8.66.77,1.8.28,2.39-.38,2.68-2,1-5.9,3.4-7.83,9.38-7.83q11.84,0,23.67,0c5.85,0,9.08,3.18,9.09,9,0,2.61,0,5.21,0,7.82v18.65c0,5.63-3.24,8.91-8.91,9-8.14.07-16.28.1-24.42,0-6.06,0-8.49-2.59-8.55-8.68,0-1.51,0-3,0-4.55C208.07,220.38,207.73,214,207.7,212.59Zm32.68,10.1a2.79,2.79,0,0,0,2.53-4.27q-5.39-9.37-10.83-18.71a3.44,3.44,0,0,0-1.46-1.26,2.7,2.7,0,0,0-3.48,1.37q-5.31,9.21-10.63,18.42a2.83,2.83,0,0,0,2.57,4.46c3.53,0,7.06,0,10.58,0Z" transform="translate(-178.29 -174.1)"/><path class="cls-2" d="M229.41,214.08c.66.08.65.08.76-.53s.23-1.4.38-2.09c.32-1.5.66-3,1-4.5a1.79,1.79,0,0,0-.65-1.9,1.85,1.85,0,0,0-2-.24c-.89.4-1.22,1.25-.95,2.48C228.42,209.54,228.91,211.78,229.41,214.08Z" transform="translate(-178.29 -174.1)"/><path class="cls-2" d="M229.53,218.85a1.84,1.84,0,0,0,1.89-1.7,1.91,1.91,0,0,0-1.86-1.85,1.84,1.84,0,0,0-1.83,1.77A1.78,1.78,0,0,0,229.53,218.85Z" transform="translate(-178.29 -174.1)"/><g class="cls-3"><path class="cls-2" d="M220.77,257.6a2,2,0,0,1-2,2H180.29a2,2,0,0,1-2-2V176.1a2,2,0,0,1,2-2h38.48a2,2,0,0,1,2,2ZM218,180.19a2,2,0,0,0-2-2H183a2,2,0,0,0-2,2v61a2,2,0,0,0,2,2h33a2,2,0,0,0,2-2Zm-18.22,65.32a4.48,4.48,0,1,0,4.48,4.47A4.48,4.48,0,0,0,199.81,245.51Z" transform="translate(-178.29 -174.1)"/></g></svg>