<?xml version="1.0" encoding="UTF-8"?>
<svg width="52px" height="41px" viewBox="0 0 52 41" version="1.1" xmlns="http://www.w3.org/2000/svg" xmlns:xlink="http://www.w3.org/1999/xlink">
    <!-- Generator: Sketch 45.2 (43514) - http://www.bohemiancoding.com/sketch -->
    <title>Group 4</title>
    <desc>Created with Sketch.</desc>
    <defs></defs>
    <g id="Desktop" stroke="none" stroke-width="1" fill="none" fill-rule="evenodd" opacity="0.495867301">
        <g id="01_BetOnline_Desktop_HomePage" transform="translate(-606.000000, -1949.000000)" fill-rule="nonzero">
            <g id="Group-5" transform="translate(219.000000, 1948.000000)">
                <g id="Group-4" transform="translate(388.000000, 2.000000)">
                    <g id="Group-3">
                        <g id="mastercard">
                            <g id="Group" transform="translate(2.537814, 33.193899)" fill="#000000">
                                <path d="M6.09075392,2.04728838 C5.95410239,1.90815228 5.77840757,1.78889276 5.5831911,1.70938642 C5.38797462,1.62988007 5.17323651,1.5901269 4.93897674,1.5901269 C4.82184686,1.5901269 4.68519533,1.61000348 4.5485438,1.62988007 C4.41189227,1.64975666 4.29476238,1.68950983 4.15811085,1.74913959 C4.04098097,1.80876935 3.90432944,1.88827569 3.8067212,1.96778204 C3.68959132,2.06716497 3.59198308,2.18642449 3.51389649,2.32556059 C3.37724496,2.08704155 3.20155014,1.90815228 2.96729037,1.78889276 C2.73303061,1.64975666 2.45972755,1.5901269 2.16690284,1.5901269 C2.0692946,1.5901269 1.97168637,1.5901269 1.85455648,1.61000348 C1.7374266,1.62988007 1.63981836,1.66963324 1.54221013,1.70938642 C1.44460189,1.74913959 1.32747201,1.80876935 1.22986377,1.88827569 C1.13225554,1.96778204 1.05416895,2.06716497 0.97608236,2.18642449 L0.97608236,1.68950983 L0.13665153,1.68950983 L0.13665153,5.80396318 L0.995604007,5.80396318 L0.995604007,3.51815576 C0.995604007,3.33926649 1.01512565,3.1802538 1.0736906,3.06099428 C1.13225554,2.92185818 1.21034213,2.80259866 1.28842871,2.72309231 C1.38603695,2.62370938 1.48364519,2.56407962 1.60077507,2.52432645 C1.71790495,2.48457328 1.85455648,2.44482011 1.99120801,2.44482011 C2.28403272,2.44482011 2.49877084,2.54420304 2.65494402,2.72309231 C2.8111172,2.90198159 2.88920378,3.1802538 2.88920378,3.51815576 L2.88920378,5.80396318 L3.74815626,5.80396318 L3.74815626,3.51815576 C3.74815626,3.33926649 3.76767791,3.1802538 3.82624285,3.06099428 C3.88480779,2.92185818 3.96289438,2.80259866 4.04098097,2.72309231 C4.1385892,2.62370938 4.23619744,2.56407962 4.35332732,2.52432645 C4.47045721,2.48457328 4.60710874,2.44482011 4.74376027,2.44482011 C5.03658498,2.44482011 5.25132309,2.54420304 5.40749627,2.72309231 C5.56366945,2.90198159 5.64175604,3.1802538 5.64175604,3.51815576 L5.64175604,5.80396318 L6.50070851,5.80396318 L6.50070851,3.22000697 C6.50070851,2.98148793 6.46166522,2.76284549 6.38357863,2.56407962 C6.34453534,2.36531376 6.22740545,2.18642449 6.09075392,2.04728838 Z" id="Shape"></path>
                                <path d="M10.6002544,2.18642449 C10.4636029,2.00753521 10.2879081,1.84852252 10.07317,1.74913959 C9.85843183,1.62988007 9.62417207,1.5901269 9.33134736,1.5901269 C9.03852265,1.5901269 8.78474124,1.64975666 8.53095982,1.74913959 C8.27717841,1.84852252 8.08196194,2.00753521 7.88674547,2.20630107 C7.71105064,2.40506693 7.55487746,2.62370938 7.45726923,2.882105 C7.35966099,3.14050062 7.30109605,3.43864942 7.30109605,3.7566748 C7.30109605,4.07470018 7.35966099,4.35297238 7.45726923,4.63124459 C7.55487746,4.88964021 7.71105064,5.12815925 7.88674547,5.30704852 C8.06244029,5.50581439 8.27717841,5.64495049 8.53095982,5.76421001 C8.78474124,5.86359294 9.03852265,5.9232227 9.33134736,5.9232227 C9.62417207,5.9232227 9.87795348,5.86359294 10.07317,5.76421001 C10.2879081,5.66482708 10.4636029,5.50581439 10.6002544,5.32692511 L10.6002544,5.82383977 L11.4787285,5.82383977 L11.4787285,1.70938642 L10.6002544,1.70938642 L10.6002544,2.18642449 Z M10.5807328,4.27346604 C10.5221678,4.43247873 10.4440812,4.57161483 10.3269514,4.69087435 C10.2293431,4.81013387 10.0926916,4.9095168 9.93651842,4.96914656 C9.78034524,5.02877632 9.62417207,5.06852949 9.44847724,5.06852949 C9.25326077,5.06852949 9.07756594,5.02877632 8.94091441,4.96914656 C8.78474124,4.88964021 8.66761135,4.81013387 8.55048147,4.69087435 C8.45287323,4.57161483 8.37478665,4.43247873 8.3162217,4.27346604 C8.25765676,4.11445335 8.23813511,3.93556407 8.23813511,3.7566748 C8.23813511,3.57778552 8.25765676,3.39889625 8.3162217,3.23988356 C8.37478665,3.08087087 8.45287323,2.94173476 8.55048147,2.82247524 C8.64808971,2.70321573 8.78474124,2.6038328 8.94091441,2.54420304 C9.09708759,2.46469669 9.25326077,2.44482011 9.44847724,2.44482011 C9.62417207,2.44482011 9.79986689,2.48457328 9.93651842,2.54420304 C10.0926916,2.6038328 10.2098215,2.70321573 10.3269514,2.82247524 C10.4245596,2.94173476 10.5221678,3.08087087 10.5807328,3.23988356 C10.6392977,3.39889625 10.678341,3.57778552 10.678341,3.7566748 C10.6588194,3.93556407 10.6392977,4.11445335 10.5807328,4.27346604 Z" id="Shape"></path>
                                <path d="M15.5392312,3.7566748 C15.2854498,3.55790894 14.9535817,3.43864942 14.5045839,3.35914307 L14.0946293,3.29951331 C13.997021,3.27963673 13.9189344,3.25976014 13.8408479,3.25976014 C13.7627613,3.23988356 13.6846747,3.22000697 13.6261097,3.1802538 C13.5675448,3.14050062 13.5285015,3.10074745 13.4894582,3.06099428 C13.4504149,3.02124111 13.4308933,2.96161135 13.4308933,2.882105 C13.4308933,2.7429689 13.4894582,2.62370938 13.6261097,2.52432645 C13.7627613,2.42494352 13.9384561,2.38519035 14.1922375,2.38519035 C14.3093674,2.38519035 14.4460189,2.40506693 14.5631488,2.42494352 C14.6802787,2.44482011 14.7974086,2.48457328 14.9145385,2.50444987 C15.0316683,2.54420304 15.1292766,2.58395621 15.2073632,2.62370938 C15.3049714,2.66346255 15.3635363,2.70321573 15.4416229,2.7429689 L15.8125342,2.04728838 C15.5977961,1.90815228 15.3635363,1.80876935 15.0707116,1.729263 C14.7974086,1.64975666 14.4850622,1.61000348 14.1727159,1.61000348 C13.9189344,1.61000348 13.6846747,1.64975666 13.4699366,1.70938642 C13.2551984,1.76901617 13.0990253,1.84852252 12.9428521,1.96778204 C12.8062006,2.08704155 12.6890707,2.22617766 12.6109841,2.38519035 C12.5328975,2.54420304 12.4938542,2.72309231 12.4938542,2.94173476 C12.4938542,3.27963673 12.6109841,3.53803235 12.8452439,3.73679821 C13.0795036,3.93556407 13.4113716,4.07470018 13.8603695,4.13432994 L14.2898457,4.19395969 C14.5241055,4.23371287 14.6998003,4.29334263 14.8169302,4.35297238 C14.9340601,4.43247873 14.992625,4.53186166 14.992625,4.65112118 C14.992625,4.81013387 14.9145385,4.92939339 14.7583653,5.00889973 C14.6021921,5.10828266 14.3679323,5.14803583 14.0751076,5.14803583 C13.9189344,5.14803583 13.7627613,5.12815925 13.6261097,5.10828266 C13.4894582,5.08840608 13.3723283,5.0486529 13.2747201,5.00889973 C13.1575902,4.96914656 13.059982,4.92939339 12.9818954,4.86976363 C12.9038088,4.81013387 12.8257222,4.7703807 12.7476356,4.71075094 L12.337681,5.38655487 C12.4743326,5.50581439 12.6305057,5.58532073 12.8062006,5.66482708 C12.9623737,5.72445683 13.1185469,5.78408659 13.2747201,5.82383977 C13.4308933,5.86359294 13.5675448,5.88346952 13.7041963,5.90334611 C13.8408479,5.9232227 13.9579777,5.9232227 14.0751076,5.9232227 C14.3679323,5.9232227 14.6217137,5.88346952 14.8559735,5.82383977 C15.0902333,5.76421001 15.2854498,5.66482708 15.4416229,5.54556756 C15.5977961,5.42630804 15.714926,5.28717194 15.7930126,5.12815925 C15.8710992,4.96914656 15.9101425,4.79025728 15.9101425,4.59149142 C15.9101425,4.21383628 15.7930126,3.93556407 15.5392312,3.7566748 Z" id="Shape"></path>
                                <path d="M23.7968879,2.18642449 C23.6211931,1.98765862 23.4259766,1.84852252 23.1917169,1.74913959 C22.9574571,1.64975666 22.7036757,1.5901269 22.410851,1.5901269 C22.1180263,1.5901269 21.8447232,1.64975666 21.5909418,1.74913959 C21.3371604,1.84852252 21.1419439,2.00753521 20.9467274,2.18642449 C20.7710326,2.38519035 20.6343811,2.6038328 20.5367728,2.86222842 C20.4391646,3.12062404 20.3805997,3.41877283 20.3805997,3.73679821 C20.3805997,4.05482359 20.4391646,4.35297238 20.5367728,4.63124459 C20.6343811,4.88964021 20.7710326,5.12815925 20.9662491,5.30704852 C21.1419439,5.50581439 21.3762037,5.64495049 21.6104634,5.74433342 C21.8642449,5.84371635 22.1375479,5.90334611 22.4498943,5.90334611 C22.7622406,5.90334611 23.0550653,5.86359294 23.3283684,5.78408659 C23.6016715,5.70458025 23.8749745,5.54556756 24.1092343,5.32692511 L23.679758,4.69087435 C23.5040632,4.83001045 23.3283684,4.92939339 23.1136303,5.00889973 C22.9184138,5.08840608 22.7036757,5.12815925 22.5084592,5.12815925 C22.3718077,5.12815925 22.2351562,5.10828266 22.0985046,5.06852949 C21.9618531,5.02877632 21.8447232,4.96914656 21.747115,4.88964021 C21.6495067,4.81013387 21.5518985,4.69087435 21.4738119,4.57161483 C21.3957253,4.43247873 21.3371604,4.27346604 21.3176387,4.09457676 L24.3044508,4.09457676 C24.3044508,4.034947 24.3239724,3.99519383 24.3239724,3.93556407 C24.3239724,3.87593432 24.3239724,3.81630456 24.3239724,3.7566748 C24.3239724,3.43864942 24.2849291,3.14050062 24.1873209,2.882105 C24.0897126,2.6038328 23.9530611,2.38519035 23.7968879,2.18642449 Z M21.3176387,3.39889625 C21.3371604,3.25976014 21.3762037,3.12062404 21.4347686,2.98148793 C21.4933336,2.86222842 21.5714201,2.7429689 21.6495067,2.66346255 C21.747115,2.56407962 21.8447232,2.50444987 21.9618531,2.46469669 C22.078983,2.42494352 22.2156345,2.38519035 22.3718077,2.38519035 C22.6451107,2.38519035 22.8793705,2.46469669 23.0550653,2.64358597 C23.2307602,2.82247524 23.34789,3.06099428 23.3869333,3.39889625 L21.3176387,3.39889625 L21.3176387,3.39889625 Z" id="Shape"></path>
                                <path d="M35.4903546,2.18642449 C35.3537031,2.00753521 35.1780082,1.84852252 34.9632701,1.74913959 C34.748532,1.62988007 34.5142722,1.5901269 34.2214475,1.5901269 C33.9286228,1.5901269 33.6748414,1.64975666 33.42106,1.74913959 C33.1672786,1.84852252 32.9720621,2.00753521 32.7768456,2.20630107 C32.6011508,2.40506693 32.4449776,2.62370938 32.3473694,2.882105 C32.2497612,3.14050062 32.1911962,3.43864942 32.1911962,3.7566748 C32.1911962,4.07470018 32.2497612,4.35297238 32.3473694,4.63124459 C32.4449776,4.88964021 32.6011508,5.12815925 32.7768456,5.30704852 C32.9525405,5.50581439 33.1672786,5.64495049 33.42106,5.76421001 C33.6748414,5.86359294 33.9286228,5.9232227 34.2214475,5.9232227 C34.5142722,5.9232227 34.7680536,5.86359294 34.9632701,5.76421001 C35.1780082,5.66482708 35.3537031,5.50581439 35.4903546,5.32692511 L35.4903546,5.82383977 L36.3688287,5.82383977 L36.3688287,1.70938642 L35.4903546,1.70938642 L35.4903546,2.18642449 Z M35.4513113,4.27346604 C35.3927464,4.43247873 35.3146598,4.57161483 35.1975299,4.69087435 C35.0999216,4.81013387 34.9632701,4.9095168 34.8070969,4.96914656 C34.6509238,5.02877632 34.4947506,5.06852949 34.3190558,5.06852949 C34.1238393,5.06852949 33.9481445,5.02877632 33.8114929,4.96914656 C33.6748414,4.9095168 33.5381899,4.81013387 33.42106,4.69087435 C33.3039301,4.57161483 33.2453652,4.43247873 33.1868002,4.27346604 C33.1282353,4.11445335 33.1087136,3.93556407 33.1087136,3.7566748 C33.1087136,3.57778552 33.1282353,3.39889625 33.1868002,3.23988356 C33.2453652,3.08087087 33.3234518,2.94173476 33.42106,2.82247524 C33.5186682,2.70321573 33.6553198,2.6038328 33.8114929,2.54420304 C33.9676661,2.46469669 34.1238393,2.44482011 34.3190558,2.44482011 C34.4947506,2.44482011 34.6704454,2.48457328 34.8070969,2.54420304 C34.9632701,2.6038328 35.0804,2.70321573 35.1975299,2.82247524 C35.2951381,2.94173476 35.3927464,3.08087087 35.4513113,3.23988356 C35.5098762,3.39889625 35.5489195,3.57778552 35.5489195,3.7566748 C35.5489195,3.93556407 35.5098762,4.11445335 35.4513113,4.27346604 Z" id="Shape"></path>
                                <path d="M19.3264307,4.98902314 C19.1897792,5.0486529 19.0531277,5.06852949 18.9164761,5.06852949 C18.8188679,5.06852949 18.7407813,5.0486529 18.6626947,5.02877632 C18.5846081,5.00889973 18.5260432,4.94926997 18.4674782,4.88964021 C18.4089133,4.83001045 18.36987,4.75050411 18.3308267,4.65112118 C18.2917834,4.55173825 18.2722618,4.43247873 18.2722618,4.29334263 L18.2722618,2.50444987 L19.6778204,2.50444987 L19.6778204,1.68950983 L18.2722618,1.68950983 L18.2722618,0.437284897 L17.374266,0.437284897 L17.374266,1.68950983 L16.5738785,1.68950983 L16.5738785,2.50444987 L17.374266,2.50444987 L17.374266,4.31321921 C17.374266,4.84988704 17.5109175,5.26729535 17.7646989,5.52569097 C18.0184804,5.78408659 18.36987,5.9232227 18.8383895,5.9232227 C19.092171,5.9232227 19.3264307,5.88346952 19.5216472,5.80396318 C19.6582987,5.74433342 19.7754286,5.68470366 19.8925585,5.6250739 L19.5997338,4.86976363 C19.5021255,4.9095168 19.4045173,4.94926997 19.3264307,4.98902314 Z" id="Shape"></path>
                                <path d="M27.2717411,1.5901269 C27.0179597,1.5901269 26.8032216,1.62988007 26.6080051,1.729263 C26.4127886,1.82864593 26.2370938,2.04728838 26.1004423,2.24605424 L26.1004423,1.70938642 L25.3000548,1.70938642 L25.3000548,5.82383977 L26.1004423,5.82383977 L26.1004423,3.55790894 C26.1004423,3.37901966 26.1199639,3.22000697 26.1785289,3.08087087 C26.2175722,2.94173476 26.2956588,2.82247524 26.3737454,2.7429689 C26.4518319,2.64358597 26.5689618,2.58395621 26.6860917,2.52432645 C26.8032216,2.48457328 26.9398731,2.44482011 27.0765247,2.44482011 C27.1741329,2.44482011 27.2912628,2.46469669 27.4279143,2.48457328 C27.4864792,2.50444987 27.5450442,2.50444987 27.6036091,2.52432645 L27.8573905,1.66963324 C27.779304,1.64975666 27.720739,1.62988007 27.6426524,1.61000348 C27.5255225,1.5901269 27.4083927,1.5901269 27.2717411,1.5901269 Z" id="Shape"></path>
                                <path d="M39.5118139,1.5901269 C39.2580325,1.5901269 39.0432944,1.62988007 38.8480779,1.729263 C38.6528614,1.82864593 38.4771666,2.04728838 38.3405151,2.24605424 L38.3405151,1.70938642 L37.5401275,1.70938642 L37.5401275,5.82383977 L38.3405151,5.82383977 L38.3405151,3.55790894 C38.3405151,3.37901966 38.3600367,3.22000697 38.4186017,3.08087087 C38.457645,2.94173476 38.5357316,2.82247524 38.6138181,2.7429689 C38.6919047,2.64358597 38.8090346,2.58395621 38.9261645,2.52432645 C39.0432944,2.48457328 39.1799459,2.44482011 39.3165974,2.44482011 C39.4142057,2.44482011 39.5313356,2.46469669 39.6679871,2.48457328 C39.726552,2.50444987 39.785117,2.50444987 39.8436819,2.52432645 L40.0974633,1.66963324 C40.0193767,1.64975666 39.9608118,1.62988007 39.8827252,1.61000348 C39.785117,1.5901269 39.6484654,1.5901269 39.5118139,1.5901269 Z" id="Shape"></path>
                                <path d="M43.6308815,0.0198765862 L43.6308815,2.18642449 C43.4942299,2.00753521 43.3185351,1.84852252 43.103797,1.74913959 C42.8890589,1.62988007 42.6547991,1.5901269 42.3619744,1.5901269 C42.0691497,1.5901269 41.8153683,1.64975666 41.5615869,1.74913959 C41.3078055,1.84852252 41.112589,2.00753521 40.9173725,2.20630107 C40.7416777,2.40506693 40.5855045,2.62370938 40.4878963,2.882105 C40.390288,3.14050062 40.3317231,3.43864942 40.3317231,3.7566748 C40.3317231,4.07470018 40.390288,4.35297238 40.4878963,4.63124459 C40.5855045,4.88964021 40.7416777,5.12815925 40.9173725,5.30704852 C41.0930673,5.50581439 41.3078055,5.64495049 41.5615869,5.76421001 C41.8153683,5.86359294 42.0691497,5.9232227 42.3619744,5.9232227 C42.6547991,5.9232227 42.9085805,5.86359294 43.103797,5.76421001 C43.3185351,5.66482708 43.4942299,5.50581439 43.6308815,5.32692511 L43.6308815,5.82383977 L44.5093556,5.82383977 L44.5093556,0.0397531725 L43.6308815,0.0397531725 L43.6308815,0.0198765862 Z M43.5918382,4.27346604 C43.5332732,4.43247873 43.4551866,4.57161483 43.3380568,4.69087435 C43.2404485,4.81013387 43.103797,4.9095168 42.9476238,4.96914656 C42.7914506,5.02877632 42.6352775,5.06852949 42.4595826,5.06852949 C42.2643662,5.06852949 42.0886713,5.02877632 41.9520198,4.96914656 C41.7958466,4.88964021 41.6787168,4.81013387 41.5615869,4.69087435 C41.4639786,4.57161483 41.385892,4.43247873 41.3273271,4.27346604 C41.2687622,4.11445335 41.2492405,3.93556407 41.2492405,3.7566748 C41.2492405,3.57778552 41.2687622,3.39889625 41.3273271,3.23988356 C41.385892,3.08087087 41.4639786,2.94173476 41.5615869,2.82247524 C41.6591951,2.70321573 41.7958466,2.6038328 41.9520198,2.54420304 C42.108193,2.46469669 42.2643662,2.44482011 42.4595826,2.44482011 C42.6352775,2.44482011 42.8109723,2.48457328 42.9476238,2.54420304 C43.103797,2.6038328 43.2209269,2.70321573 43.3380568,2.82247524 C43.435665,2.94173476 43.5332732,3.08087087 43.5918382,3.23988356 C43.6504031,3.39889625 43.6894464,3.57778552 43.6894464,3.7566748 C43.6894464,3.93556407 43.6504031,4.11445335 43.5918382,4.27346604 Z" id="Shape"></path>
                                <path d="M29.380079,2.80259866 C29.4972089,2.68333914 29.6338604,2.6038328 29.7900336,2.52432645 C29.9462068,2.46469669 30.10238,2.42494352 30.2975964,2.42494352 L30.2975964,2.42494352 C30.4928129,2.42494352 30.6880294,2.46469669 30.8442026,2.52432645 C31.0003757,2.58395621 31.1565489,2.66346255 31.2736788,2.78272207 L31.703155,2.06716497 C31.5469819,1.92802886 31.371287,1.82864593 31.1565489,1.74913959 C30.8832459,1.62988007 30.6099428,1.5901269 30.2975964,1.5901269 C29.9852501,1.5901269 29.6924254,1.64975666 29.438644,1.74913959 C29.1653409,1.86839911 28.9506028,2.00753521 28.7553863,2.20630107 C28.5601698,2.40506693 28.4039967,2.62370938 28.3063884,2.882105 C28.1892585,3.14050062 28.1502152,3.43864942 28.1502152,3.73679821 C28.1502152,4.05482359 28.2087802,4.3330958 28.3063884,4.59149142 C28.4235183,4.84988704 28.5601698,5.08840608 28.7553863,5.26729535 C28.9506028,5.46606121 29.1848626,5.60519732 29.438644,5.72445683 C29.711947,5.84371635 29.9852501,5.88346952 30.2975964,5.88346952 C30.6099428,5.88346952 30.9027675,5.82383977 31.1565489,5.72445683 C31.3517654,5.64495049 31.5274602,5.54556756 31.703155,5.40643145 L31.2736788,4.69087435 C31.1565489,4.81013387 31.0198974,4.88964021 30.8442026,4.94926997 C30.6685077,5.00889973 30.4928129,5.0486529 30.2975964,5.0486529 L30.2975964,5.0486529 C30.1219016,5.0486529 29.9462068,5.00889973 29.7900336,4.94926997 C29.6338604,4.88964021 29.4972089,4.79025728 29.380079,4.67099776 C29.2629491,4.55173825 29.1848626,4.41260214 29.106776,4.25358945 C29.048211,4.09457676 29.0091677,3.91568749 29.0091677,3.71692163 C29.0091677,3.51815576 29.048211,3.33926649 29.106776,3.1802538 C29.1848626,3.06099428 29.2629491,2.92185818 29.380079,2.80259866 Z" id="Shape"></path>
                            </g>
                            <path d="M48.9017262,38.4015646 C48.9602912,38.4015646 49.0188561,38.4214412 49.0578994,38.4413178 C49.1164643,38.4611944 49.1555076,38.5009475 49.1945509,38.5407007 C49.2335942,38.5804539 49.2531159,38.620207 49.2921592,38.6798368 C49.3116808,38.7394666 49.3312025,38.7792197 49.3312025,38.8388495 C49.3312025,38.8984793 49.3116808,38.958109 49.2921592,38.9978622 C49.2726375,39.0574919 49.2335942,39.0972451 49.1945509,39.1369983 C49.1555076,39.1767515 49.1164643,39.196628 49.0578994,39.2363812 C48.9993344,39.2562578 48.9602912,39.2761344 48.9017262,39.2761344 C48.8431613,39.2761344 48.7845963,39.2562578 48.7260314,39.2363812 C48.6674664,39.2165046 48.6284232,39.1767515 48.5893799,39.1369983 C48.5503366,39.0972451 48.5308149,39.0574919 48.4917716,38.9978622 C48.4527283,38.9382324 48.4527283,38.8984793 48.4527283,38.8388495 C48.4527283,38.7792197 48.47225,38.71959 48.4917716,38.6798368 C48.5112933,38.620207 48.5503366,38.5804539 48.5893799,38.5407007 C48.6284232,38.5009475 48.6674664,38.4810709 48.7260314,38.4413178 C48.7845963,38.4214412 48.8431613,38.4015646 48.9017262,38.4015646 Z M48.9017262,39.1171217 C48.9407695,39.1171217 48.9798128,39.1171217 49.0188561,39.0972451 C49.0578994,39.0773685 49.077421,39.0574919 49.1164643,39.0376154 C49.135986,39.0177388 49.1555076,38.9779856 49.1750293,38.9382324 C49.1945509,38.8984793 49.1945509,38.8587261 49.1945509,38.8189729 C49.1945509,38.7792197 49.1945509,38.7394666 49.1750293,38.6997134 C49.1555076,38.6599602 49.135986,38.6400836 49.1164643,38.6003305 C49.0969427,38.5804539 49.0578994,38.5605773 49.0188561,38.5407007 C48.9798128,38.5208241 48.9407695,38.5208241 48.9017262,38.5208241 C48.8626829,38.5208241 48.8236396,38.5208241 48.7845963,38.5407007 C48.745553,38.5605773 48.7260314,38.5804539 48.6869881,38.6003305 C48.6674664,38.620207 48.6479448,38.6599602 48.6284232,38.6997134 C48.6089015,38.7394666 48.6089015,38.7792197 48.6089015,38.8189729 C48.6089015,38.8587261 48.6089015,38.8984793 48.6284232,38.9382324 C48.6479448,38.9779856 48.6674664,38.9978622 48.6869881,39.0376154 C48.7065097,39.0574919 48.745553,39.0773685 48.7845963,39.0972451 C48.8236396,39.1171217 48.8626829,39.1171217 48.9017262,39.1171217 Z M48.9407695,38.6400836 C48.9993344,38.6400836 49.0383777,38.6599602 49.0578994,38.6798368 C49.077421,38.6997134 49.0969427,38.7394666 49.0969427,38.7792197 C49.0969427,38.8189729 49.0969427,38.8388495 49.077421,38.8587261 C49.0578994,38.8786027 49.0383777,38.8984793 48.9993344,38.8984793 L49.1164643,39.0376154 L48.9993344,39.0376154 L48.9017262,38.8984793 L48.8822046,38.8984793 L48.8822046,39.0376154 L48.7845963,39.0376154 L48.7845963,38.6599602 L48.9407695,38.6599602 L48.9407695,38.6400836 Z M48.8626829,38.71959 L48.8626829,38.7792197 L48.9407695,38.7792197 C48.9602912,38.7792197 48.9602912,38.7792197 48.9798128,38.7792197 C48.9798128,38.7792197 48.9993344,38.7593432 48.9993344,38.7593432 C48.9993344,38.7394666 48.9993344,38.7394666 48.9798128,38.7394666 C48.9798128,38.7394666 48.9602912,38.7394666 48.9407695,38.7394666 L48.8626829,38.7394666 L48.8626829,38.71959 Z" id="Shape" fill="#000000"></path>
                            <g id="Group">
                                <path d="M19.0531277,15.66275 C19.0531277,10.7333566 21.3176387,6.36050759 24.8315352,3.51815576 C22.2351562,1.43111421 18.9555194,0.178889276 15.383058,0.178889276 C6.96922805,0.178889276 0.156173178,7.11581787 0.156173178,15.6826265 C0.156173178,24.2494352 6.96922805,31.1863638 15.383058,31.1863638 C18.9555194,31.1863638 22.2351562,29.9341389 24.8315352,27.8470973 C21.3176387,24.9848689 19.0531277,20.5921433 19.0531277,15.66275 Z" id="Shape" stroke="#000000" stroke-width="2"></path>
                                <path d="M48.4527283,24.0506693 L48.4527283,23.5935079 L48.2770335,23.5935079 L48.2770335,23.4742483 L48.7650747,23.4742483 L48.7650747,23.5935079 L48.5893799,23.5935079 L48.5893799,24.0506693 L48.4527283,24.0506693 Z M49.409289,24.0506693 L49.409289,23.6531376 L49.2726375,23.9910396 L49.135986,23.9910396 L48.9993344,23.6531376 L48.9993344,24.0506693 L48.8626829,24.0506693 L48.8626829,23.4742483 L49.0578994,23.4742483 L49.1945509,23.8519035 L49.3312025,23.4742483 L49.5264189,23.4742483 L49.5264189,24.0506693 L49.409289,24.0506693 Z" id="Shape" fill="#000000"></path>
                                <path d="M34.2604908,0.178889276 C30.6880294,0.178889276 27.4083927,1.43111421 24.8120136,3.51815576 C28.3259101,6.36050759 30.5904211,10.7333566 30.5904211,15.66275 C30.5904211,20.5921433 28.3259101,24.9649923 24.8120136,27.8073441 C27.4083927,29.8943857 30.6880294,31.1466106 34.2604908,31.1466106 C42.6743208,31.1466106 49.4873756,24.209682 49.4873756,15.6428734 C49.4873756,7.11581787 42.6743208,0.178889276 34.2604908,0.178889276 Z" id="Shape" stroke="#000000" stroke-width="2"></path>
                            </g>
                        </g>
                    </g>
                </g>
            </g>
        </g>
    </g>
</svg>