<svg id="Layer_1" data-name="Layer 1" xmlns="http://www.w3.org/2000/svg" xmlns:xlink="http://www.w3.org/1999/xlink" viewBox="0 0 283.62 282.97"><defs><style>.cls-1{fill:url(#radial-gradient);}.cls-2{fill:#fff;}</style><radialGradient id="radial-gradient" cx="179.39" cy="661.86" r="264.58" gradientTransform="matrix(1, 0, 0, -1, 149.05, 868.31)" gradientUnits="userSpaceOnUse"><stop offset="0" stop-color="#9fd4f3"/><stop offset="0.07" stop-color="#99d2f2"/><stop offset="0.16" stop-color="#8bcdf1"/><stop offset="0.25" stop-color="#71c6ef"/><stop offset="0.35" stop-color="#51bcea"/><stop offset="0.45" stop-color="#21ade4"/><stop offset="0.5" stop-color="#1aa6df"/><stop offset="1" stop-color="#3078bc"/></radialGradient></defs><title>AmericanExpress</title><path class="cls-1" d="M560.64,157H278.69V440h282V346.6a10.7,10.7,0,0,0,1.67-6.23c0-2.89-.55-4.69-1.67-6.2" transform="translate(-278.69 -157.02)"/><path class="cls-2" d="M304.11,279.46l-5.43-13.22-5.39,13.22M423.6,274.2a7.36,7.36,0,0,1-3.92.68h-9.63v-7.36h9.76a8.16,8.16,0,0,1,3.75.59,3,3,0,0,1,1.67,2.93A3.42,3.42,0,0,1,423.6,274.2Zm68.67,5.26-5.48-13.22-5.45,13.22Zm-128,14.31h-8.12l0-26-11.49,26h-7l-11.52-26v26H310l-3-7.4h-16.5l-3.08,7.4h-8.61L293,260.61h11.78L318.23,292V260.61h12.93l10.37,22.49,9.53-22.49h13.19v33.16Zm32.38,0H370.16V260.61h26.47v6.91H378.09v6h18.1v6.8h-18.1v6.62h18.54ZM434,269.54a9.33,9.33,0,0,1-5.59,8.84,9.09,9.09,0,0,1,3.92,2.79c1.12,1.65,1.32,3.12,1.32,6.08v6.52h-8l0-4.19c0-2,.19-4.86-1.25-6.45-1.16-1.17-2.92-1.42-5.77-1.42h-8.51v12.06h-7.93V260.61h18.23c4,0,7,.11,9.6,1.59S434,265.84,434,269.54Zm12.68,24.23h-8.09V260.61h8.09Zm93.81,0H529.22l-15-24.89v24.89H498.06l-3.09-7.4H478.51l-3,7.4h-9.27c-3.85,0-8.73-.86-11.49-3.67s-4.24-6.63-4.24-12.66c0-4.92.87-9.41,4.27-13,2.57-2.65,6.58-3.87,12-3.87h7.67v7.11H467c-2.89,0-4.52.43-6.1,2-1.35,1.4-2.28,4-2.28,7.51s.71,6.11,2.18,7.79c1.22,1.31,3.44,1.71,5.53,1.71h3.56L481,260.61h11.88L506.34,292V260.61H518.4l13.93,23.09V260.61h8.12v33.16Zm-261.76,6.51h13.54l3-7.37h6.84l3,7.37h26.65v-5.63l2.37,5.65H348l2.38-5.74v5.72H416.6l0-12.09h1.28c.9,0,1.16.11,1.16,1.6v10.49h34.24v-2.82A27.12,27.12,0,0,0,466,300.28h14.41l3.08-7.37h6.84l3,7.37h27.76v-7l4.21,7h22.24V254h-22v5.46L522.41,254H499.82v5.46L497,254H466.48c-5.11,0-9.6.71-13.23,2.7V254H432.19v2.7c-2.3-2.05-5.45-2.7-8.95-2.7H346.31L341.15,266,335.85,254H311.62v5.46L309,254H288.29l-9.6,22v24.26Z" transform="translate(-278.69 -157.02)"/><path class="cls-2" d="M560.64,324.73H546.19a5.49,5.49,0,0,0-3.2.6,2.59,2.59,0,0,0-1.16,2.39,2.5,2.5,0,0,0,1.73,2.47,9.13,9.13,0,0,0,3.06.37l4.29.12c4.33.11,7.23.85,9,2.67a4.32,4.32,0,0,1,.74.82m0,12.43c-1.93,2.81-5.68,4.24-10.76,4.24h-15.3v-7.11h15.24c1.51,0,2.57-.2,3.21-.82a2.94,2.94,0,0,0,.93-2.17,2.73,2.73,0,0,0-1-2.19,4,4,0,0,0-2.8-.74c-7.44-.25-16.72.23-16.72-10.26,0-4.81,3-9.87,11.37-9.87h15.79v-6.6H546c-4.43,0-7.64,1.06-9.92,2.71v-2.71H514.36c-3.47,0-7.54.86-9.47,2.71v-2.71H466.15v2.71c-3.08-2.23-8.28-2.71-10.68-2.71H429.92v2.71c-2.44-2.37-7.87-2.71-11.17-2.71h-28.6l-6.54,7.08-6.13-7.08H334.76v46.27h41.91l6.74-7.19,6.36,7.19,25.83,0V346.49h2.54c3.43.05,7.47-.09,11-1.63v12.49h21.31V345.29h1c1.31,0,1.44,0,1.44,1.37v10.69H517.7c4.11,0,8.4-1.05,10.78-3v3H549c4.27,0,8.44-.6,11.62-2.13V346.6ZM529,333.35c1.54,1.59,2.37,3.61,2.37,7,0,7.14-4.46,10.47-12.45,10.47H503.51v-7.11h15.37a4.67,4.67,0,0,0,3.24-.82,2.94,2.94,0,0,0,.94-2.17,2.86,2.86,0,0,0-1-2.19,4.15,4.15,0,0,0-2.82-.74c-7.41-.25-16.69.23-16.69-10.26,0-4.81,3-9.87,11.33-9.87h15.88v7.06H515.26a5.43,5.43,0,0,0-3.18.59,2.78,2.78,0,0,0,.55,4.86,9.08,9.08,0,0,0,3.08.38l4.27.11C524.28,330.79,527.23,331.53,529,333.35Zm-71.51-2.05a7.59,7.59,0,0,1-3.92.68H444v-7.44h9.76a7.91,7.91,0,0,1,3.78.59,3.18,3.18,0,0,1,1.64,3A3.58,3.58,0,0,1,457.52,331.3Zm4.78,4.13a8.67,8.67,0,0,1,3.89,2.78c1.11,1.62,1.28,3.13,1.31,6.05v6.58h-8v-4.15c0-2,.19-4.95-1.28-6.49-1.16-1.19-2.92-1.47-5.81-1.47H444v12.11h-8V317.68h18.29c4,0,6.94.17,9.54,1.56a7.76,7.76,0,0,1,4.07,7.36A9.29,9.29,0,0,1,462.3,335.43Zm10-17.75h26.45v6.85H480.21v6h18.1v6.77h-18.1v6.6l18.55,0v6.88H472.31ZM418.85,333H408.61v-8.44h10.33c2.86,0,4.85,1.16,4.85,4.06S421.89,333,418.85,333Zm-18.14,14.84-12.16-13.51,12.16-13.07Zm-31.42-3.89H349.81v-6.6h17.4v-6.77h-17.4v-6h19.87l8.66,9.67Zm63-15.33c0,9.21-6.87,11.11-13.8,11.11h-9.88v11.13H393.2l-9.75-11-10.15,11H341.91V317.68h31.88l9.75,10.87,10.08-10.87h25.32C425.23,317.68,432.29,319.42,432.29,328.6Z" transform="translate(-278.69 -157.02)"/></svg>