<?xml version="1.0" encoding="UTF-8"?>
<svg width="706px" height="204px" viewBox="0 0 706 204" version="1.1" xmlns="http://www.w3.org/2000/svg" xmlns:xlink="http://www.w3.org/1999/xlink">
    <!-- Generator: Sketch 45.2 (43514) - http://www.bohemiancoding.com/sketch -->
    <title>Abaqoos</title>
    <desc>Created with Sketch.</desc>
    <defs></defs>
    <g id="Page-1" stroke="none" stroke-width="1" fill="none" fill-rule="evenodd">
        <g id="Abaqoos" fill-rule="nonzero" fill="#FFFFFF">
            <path d="M169.7,72.1 C166,69.4 161.7,68 156.8,68 C151.8,68 147.3,69.4 143.3,72.1 C139.4,74.8 136.3,78.8 134,84 C131.7,89.2 130.6,95.4 130.6,102.6 C130.6,113.1 133,121.2 137.8,126.9 C142.6,132.6 148.9,135.4 156.8,135.4 C163.5,135.4 169.2,132.5 174,126.7 C178.8,120.9 181.2,112.6 181.2,101.8 C181.2,94.8 180.2,88.8 178.2,83.8 C176.3,78.8 173.4,74.9 169.7,72.1 Z M167.3,121.1 C163.2,126.1 159.3,126.6 156.8,126.6 C151.6,126.6 147.6,124.9 144.5,121.2 C141.1,117.2 139.4,110.9 139.4,102.6 C139.4,96.7 140.3,91.6 142.1,87.5 C143.7,83.8 145.8,81.1 148.4,79.3 C150.9,77.6 153.6,76.8 156.9,76.8 C159.9,76.8 162.4,77.6 164.6,79.2 C167,81 168.8,83.6 170.2,87.1 C171.8,91.1 172.6,96.1 172.6,101.9 C172.5,110.5 170.8,117 167.3,121.1 Z" id="Shape"></path>
            <path d="M450,67.8 C444.8,67.8 440.3,69.1 436.3,71.8 C432.3,74.5 429.3,78.4 427.2,83.7 C425.1,88.9 424,95 424,102 C424,108.9 425,115 427.2,120.1 C429.3,125.3 432.3,129.2 436.2,132 C440.1,134.7 444.7,136.1 450,136.1 C458,136.1 464.4,133.1 469.1,127 C473.9,121 476.2,112.6 476.2,101.9 C476.2,91.1 473.8,82.7 469.1,76.7 C464.4,70.8 458,67.8 450,67.8 Z M462.3,121.7 C462.3,121.7 462.3,121.7 462.3,121.7 C459.2,125.6 455.3,127.4 450,127.4 C446.5,127.4 443.6,126.6 441.2,124.9 C438.7,123.1 436.7,120.5 435.3,116.9 C433.6,112.8 432.8,107.8 432.8,102.1 C432.8,96.3 433.7,91.2 435.4,87.1 C436.9,83.5 438.8,80.9 441.3,79.2 C443.8,77.5 446.6,76.7 450,76.7 C455.3,76.7 459.2,78.5 462.3,82.4 C465.8,86.8 467.5,93.5 467.5,102.2 C467.5,110.6 465.7,117.2 462.3,121.7 Z" id="Shape"></path>
            <path d="M698,70.3 C693,60.4 685.7,52.7 676.3,47.3 C667,42 656,39.3 643.4,39.3 C637.3,39.3 631.6,40 626.2,41.4 C622,36.2 616.3,33.5 609.8,33.5 C603,33.5 597.3,36.4 593.1,42 C591.1,44.7 589.7,47.8 588.8,51.5 C584.8,48.5 580.3,46 575.4,44 C567.9,41 559.4,39.5 550.4,39.5 C541.5,39.5 533.1,41 525.6,43.9 C517.9,46.9 511.3,51.3 505.8,56.9 C503.8,59 501.9,61.2 500.3,63.6 C498.7,61.3 496.9,59.1 494.9,57.1 C489.4,51.4 482.7,47 475.1,44 C467.6,41 459.1,39.5 450.1,39.5 C441.2,39.5 432.8,41 425.3,43.9 C418.5,46.5 412.6,50.2 407.5,54.9 C406.6,51.4 404.9,48.4 402.6,45.9 C398.6,41.6 393.3,39.4 387.2,39.4 C381.1,39.4 375.7,41.7 371.8,46 C371.1,46.8 370.5,47.6 369.9,48.4 C368.1,47.1 366.3,46 364.4,45 C357.5,41.4 349.7,39.6 341.2,39.6 C331.2,39.6 322,42.2 313.7,47.2 C309.3,49.9 305.5,53.2 302.1,57.1 C298.3,51.3 292.9,47 285.8,44 C278,40.8 267.9,39.2 255,39.2 C243.5,39.2 233.6,40.9 225.6,44.1 C217.2,47.5 210.7,52.2 206.5,57.8 C206,58.5 205.5,59.2 205,59.9 C201.3,54.7 196.8,50.5 191.6,47.2 C183.6,42.2 174.2,39.6 163.8,39.6 C154.8,39.6 146.9,41.3 140.5,44.7 C139.7,45.1 138.9,45.6 138.1,46 L138.1,24 C138.1,17.1 136.3,11.4 132.8,7.2 C130.1,4 125.1,0.2 116.7,0.2 C110.1,0.2 104.6,2.8 100.8,7.7 C97.4,12 95.7,17.9 95.7,25.3 L95.7,46.3 C94.3,45.5 92.8,44.8 91.3,44.2 C83.5,41 73.4,39.4 60.5,39.4 C49,39.4 39.1,41.1 31.1,44.3 C22.7,47.7 16.2,52.4 12,58 C7.6,63.9 5.3,70.3 5.3,76.8 C5.3,82.3 7.5,87.1 11.5,90.7 C13.5,92.5 15.7,93.8 18.2,94.6 C15,96.6 12.2,98.9 9.7,101.7 C3.6,108.4 0.6,116.6 0.6,126.1 C0.6,133.1 2.4,139.6 6,145.6 C9.6,151.6 14.8,156.3 21.3,159.7 C27.7,163 35.1,164.7 43.2,164.7 C51.8,164.7 59.7,163.2 66.7,160.3 C71,158.5 75.3,156.2 79.7,153.3 C81.2,155.3 82.7,157 84.2,158.4 C88.5,162.6 93.3,164.7 98.3,164.7 C101.5,164.7 104.6,164 107.4,162.7 C110.2,164 113.3,164.7 116.7,164.7 C122.8,164.7 128.2,162.4 132.2,158.1 C133,157.3 133.7,156.4 134.3,155.4 C135.5,156.3 136.8,157.2 138.2,158.1 C141.4,160.1 145.3,161.8 149.7,163 C154,164.2 158.6,164.8 163.5,164.8 C171.5,164.8 178.9,163.2 185.6,159.9 C191.8,156.9 197.1,152.7 201.6,147.4 C205.1,152.5 209.9,156.7 215.8,159.7 C222.2,163 229.6,164.7 237.7,164.7 C246.3,164.7 254.2,163.2 261.2,160.3 C265.5,158.5 269.8,156.2 274.2,153.3 C275.7,155.3 277.2,157 278.7,158.4 C283,162.6 287.8,164.7 292.8,164.7 C298.1,164.7 303.1,162.8 307.2,159.2 C308.7,157.9 309.8,156.6 310.8,155.3 C311.5,155.8 312.3,156.3 313.1,156.8 C321.3,162 330.4,164.7 340.3,164.7 C348.3,164.7 355.8,163.1 362.5,159.8 C363.6,159.3 364.8,158.7 365.9,158 L365.9,177.6 C365.9,184.5 367,190 369.2,194.4 C371,198 375.7,204 387.2,204 C406.9,204 408.5,183.8 408.5,177.6 L408.5,149.9 C413.4,154.2 419,157.7 425.2,160.2 C432.6,163.2 441,164.7 450.1,164.7 C459.2,164.7 467.7,163.2 475.1,160.3 C482.7,157.3 489.3,152.9 494.8,147.3 C496.8,145.2 498.7,142.9 500.4,140.5 C502.1,142.8 503.9,145.1 505.9,147.1 C511.4,152.8 518,157.2 525.5,160.2 C532.9,163.2 541.3,164.7 550.4,164.7 C559.5,164.7 568,163.2 575.4,160.3 C583,157.3 589.6,152.9 595.1,147.3 C595.7,146.7 596.3,146.1 596.8,145.4 C598.5,147.4 600.5,149.3 602.7,151.2 C607.6,155.3 613.7,158.6 620.8,161 C627.8,163.4 635.7,164.6 644.3,164.6 C663,164.6 678.1,158.9 688.9,147.6 C699.7,136.4 705.1,121.5 705.1,103.2 C705.3,90.8 702.8,79.8 698,70.3 Z M682.7,141.3 C673.5,150.8 660.8,155.6 644.4,155.6 C636.7,155.6 629.8,154.6 623.7,152.5 C617.6,150.4 612.5,147.7 608.4,144.3 C604.4,140.9 601.4,137.3 599.4,133.6 C598.5,131.9 597.9,130.3 597.4,128.8 C595.2,133.4 592.3,137.5 588.9,141 C584.2,145.8 578.7,149.5 572.2,152 C565.7,154.6 558.5,155.8 550.4,155.8 C542.4,155.8 535.2,154.5 528.8,151.9 C522.4,149.3 516.9,145.6 512.2,140.8 C507.5,136 504,130.3 501.5,123.7 C501.1,122.5 500.7,121.3 500.4,120.1 C500,121.3 499.7,122.6 499.2,123.8 C496.7,130.5 493.2,136.2 488.5,141 C483.8,145.8 478.3,149.5 471.8,152 C465.3,154.6 458.1,155.8 450,155.8 C442,155.8 434.8,154.5 428.4,151.9 C422,149.3 416.5,145.6 411.8,140.8 C407.1,136 403.6,130.3 401.1,123.7 C400.6,122.2 400.1,120.7 399.7,119.1 L399.7,177.3 C399.7,189.1 395.5,194.9 387.2,194.9 C382,194.9 378.7,193.3 377.1,190.1 C375.5,186.9 374.7,182.6 374.7,177.2 L374.7,139.9 C369.6,145 364.3,148.9 358.8,151.6 C353.3,154.3 347.1,155.6 340.4,155.6 C332.2,155.6 324.7,153.4 318,149.1 C311.2,144.8 305.9,138.5 302.1,130.4 C302,130.2 302,130 301.9,129.9 C302.2,131.4 302.6,132.9 303.1,134.4 C304.7,139.8 305.6,143.3 305.6,144.8 C305.6,147.5 304.3,150 301.8,152.2 C299.2,154.4 296.4,155.5 293.1,155.5 C290.4,155.5 287.7,154.2 285.1,151.7 C282.4,149.1 279.6,145.4 276.7,140.6 C270.3,145.6 264.1,149.3 258.1,151.8 C252.1,154.3 245.4,155.5 238,155.5 C231.2,155.5 225.3,154.2 220.1,151.5 C215,148.8 211,145.2 208.2,140.6 C205.4,136 204,131 204,125.7 C204,125.6 204,125.6 204,125.5 C202,131 199.4,135.9 196.1,140.1 C192.2,145 187.5,148.8 182,151.5 C176.5,154.2 170.4,155.5 163.7,155.5 C159.6,155.5 155.8,155 152.2,154 C148.6,153 145.6,151.8 143,150.2 C140.5,148.6 138.3,147 136.6,145.3 C134.8,143.6 132.5,141.1 129.6,137.7 L129.6,140.3 C129.6,145.3 128.4,149 126,151.6 C123.6,154.2 120.6,155.4 116.9,155.4 C113.2,155.4 110.2,154.1 107.9,151.6 C107.9,151.6 107.8,151.5 107.8,151.5 C107.6,151.7 107.4,151.9 107.2,152.1 C104.6,154.3 101.8,155.4 98.5,155.4 C95.8,155.4 93.1,154.1 90.5,151.6 C87.8,149 85,145.3 82.1,140.5 C75.7,145.5 69.5,149.2 63.5,151.7 C57.5,154.2 50.8,155.4 43.4,155.4 C36.6,155.4 30.7,154.1 25.5,151.4 C20.4,148.7 16.4,145.1 13.6,140.5 C10.8,135.9 9.4,130.9 9.4,125.6 C9.4,118.4 11.7,112.2 16.3,107.1 C20.9,102 27.2,98.6 35.2,96.8 C36.9,96.4 41,95.5 47.7,94.2 C54.4,92.8 60.1,91.6 64.8,90.5 C69.6,89.4 74.7,88 80.3,86.4 C80,79.4 78.6,74.3 76.1,71 C73.6,67.7 68.5,66.1 60.6,66.1 C53.9,66.1 48.8,67 45.4,68.9 C42,70.8 39.1,73.6 36.7,77.3 C34.3,81 32.6,83.5 31.6,84.7 C30.6,85.9 28.4,86.5 25.2,86.5 C22.2,86.5 19.7,85.5 17.5,83.6 C15.3,81.7 14.3,79.3 14.3,76.3 C14.3,71.6 15.9,67.1 19.2,62.7 C22.5,58.3 27.6,54.7 34.6,51.8 C41.6,49 50.3,47.5 60.7,47.5 C72.3,47.5 81.5,48.9 88.1,51.6 C94.8,54.3 99.5,58.7 102.2,64.6 C103.2,66.7 104,69.1 104.6,71.7 L104.6,24.6 C104.6,19.2 105.7,15.2 107.8,12.4 C110,9.7 113,8.3 116.9,8.3 C121,8.3 124.1,9.6 126.3,12.2 C128.5,14.8 129.6,18.5 129.6,23.4 L129.6,63.8 C134.6,58.6 139.6,54.7 144.8,51.9 C150,49.2 156.4,47.8 164,47.8 C172.8,47.8 180.5,49.9 187.1,54.1 C193.7,58.3 198.9,64.3 202.5,72.2 C206.2,80.1 208,89.5 208,100.4 C208,104.5 207.7,108.3 207.2,112.1 C208.2,110.3 209.4,108.5 210.8,106.9 C215.4,101.8 221.7,98.4 229.7,96.6 C231.4,96.2 235.5,95.3 242.2,94 C248.9,92.6 254.6,91.4 259.3,90.3 C264.1,89.2 269.2,87.8 274.8,86.2 C274.5,79.2 273.1,74.1 270.6,70.8 C268.1,67.5 263,65.9 255.1,65.9 C248.4,65.9 243.3,66.8 239.9,68.7 C236.5,70.6 233.6,73.4 231.2,77.1 C228.8,80.8 227.1,83.3 226.1,84.5 C225.1,85.7 222.9,86.3 219.7,86.3 C216.7,86.3 214.2,85.3 212,83.4 C209.8,81.5 208.8,79.1 208.8,76.1 C208.8,71.4 210.4,66.9 213.7,62.5 C217,58.1 222.1,54.5 229.1,51.6 C236.1,48.8 244.8,47.3 255.2,47.3 C266.8,47.3 276,48.7 282.6,51.4 C289.3,54.1 294,58.5 296.7,64.4 C298.4,68 299.5,72.3 300.2,77.3 C300.8,75.6 301.5,73.9 302.2,72.3 C306.1,64.3 311.5,58.1 318.3,53.9 C325.2,49.7 332.8,47.6 341.2,47.6 C348.3,47.6 354.7,49.1 360.3,52 C365.9,54.9 370.7,59.4 374.7,65.4 L374.7,63 C374.7,58.2 375.9,54.5 378.2,51.9 C380.5,49.4 383.5,48.1 387.2,48.1 C390.9,48.1 393.9,49.3 396.2,51.8 C398.5,54.3 399.7,58 399.7,62.9 L399.7,84.6 C400.1,83 400.6,81.4 401.2,79.9 C403.7,73.2 407.2,67.6 411.8,62.8 C416.4,58.1 421.9,54.4 428.5,51.9 C435,49.3 442.2,48.1 450.1,48.1 C458.1,48.1 465.4,49.4 471.9,52 C478.4,54.6 484,58.3 488.7,63.1 C493.4,67.9 496.9,73.6 499.3,80.2 C499.7,81.4 500.1,82.6 500.4,83.8 C500.8,82.5 501.1,81.3 501.6,80 C504.1,73.3 507.6,67.7 512.2,62.9 C516.8,58.2 522.3,54.5 528.9,52 C535.4,49.4 542.6,48.2 550.5,48.2 C558.5,48.2 565.8,49.5 572.3,52.1 C578.8,54.7 584.4,58.4 589.1,63.2 C592.2,66.3 594.7,69.9 596.8,73.8 C596.7,72.6 596.6,71.4 596.6,70.1 L596.6,62 C596.6,55.5 597.8,50.5 600.3,47.2 C602.8,43.9 606,42.2 610,42.2 C614,42.2 617.3,43.9 619.8,47.2 C620.9,48.6 621.6,50.2 622.3,52 C623.1,51.7 623.9,51.3 624.7,51.1 C630.4,49.1 636.7,48.1 643.6,48.1 C654.7,48.1 664.2,50.4 672.1,54.9 C680,59.5 686.1,65.9 690.3,74.2 C694.5,82.5 696.6,92.1 696.6,103 C696.5,119 691.9,131.8 682.7,141.3 Z M40.9,87 C41.7,85.8 42.7,84.4 43.9,82.4 C45.5,79.9 47.4,78.1 49.5,76.9 C50.7,76.3 53.6,75.2 60.4,75.2 C67.2,75.2 68.9,76.6 68.9,76.6 C68.9,76.6 68.9,76.6 68.9,76.6 C69.3,77.1 69.9,78.1 70.4,80.3 C67.7,81 65,81.7 62.5,82.3 C57.9,83.4 52.2,84.6 45.7,86 C44,86.4 42.3,86.7 40.9,87 Z M235.4,87 C236.2,85.8 237.2,84.4 238.4,82.4 C240,79.9 241.9,78.1 244,76.9 C245.2,76.3 248.1,75.2 254.9,75.2 C261.7,75.2 263.4,76.6 263.4,76.6 C263.4,76.6 263.4,76.6 263.4,76.6 C263.8,77.1 264.4,78.1 264.9,80.3 C262.2,81 259.5,81.7 257,82.3 C252.4,83.4 246.7,84.6 240.2,86 C238.5,86.4 236.9,86.7 235.4,87 Z" id="Shape"></path>
            <path d="M643.9,68.4 C638.5,68.4 634,69.6 630.5,72.1 C627.6,74.1 624.7,77.1 622,80.9 C621.4,82.5 620.7,84 619.8,85.2 C618.1,87.5 616,88.9 613.6,89.7 C613.3,89.8 613.1,89.9 612.8,90 C612.8,90 612.7,90 612.7,90 C611.9,90.2 611,90.4 610,90.4 C606.7,90.4 604,89.3 601.6,87.3 C602.7,92 603.2,96.9 603.2,102.2 C603.2,106 602.9,109.7 602.3,113.2 C603.9,112.3 605.7,111.7 607.7,111.7 C610.4,111.7 612.7,112.5 614.6,114.2 C616.5,115.9 618.2,118.2 619.8,121.2 C622.7,126.2 626.1,130 629.8,132.4 C633.6,134.9 638.1,136.1 643.4,136.1 C647.3,136.1 651,135.3 654.3,133.8 C657.6,132.3 660.4,130.1 662.7,127.1 C665,124.2 666.8,120.6 668,116.4 C669.2,112.2 669.8,107.7 669.8,102.7 C669.8,92.1 667.4,83.7 662.6,77.6 C657.8,71.5 651.7,68.4 643.9,68.4 Z M659.7,113.9 C658.8,117 657.5,119.6 655.9,121.6 C654.4,123.5 652.7,124.8 650.7,125.8 C648.5,126.8 646.2,127.3 643.5,127.3 C639.9,127.3 637,126.6 634.6,125 C632,123.3 629.6,120.5 627.5,116.9 C625.4,113.1 623,109.9 620.4,107.6 C618,105.4 615.1,104 611.9,103.3 C611.9,102.9 611.9,102.5 611.9,102.1 C611.9,101.1 611.9,100 611.8,99 C612.8,98.9 613.7,98.7 614.6,98.5 C614.7,98.5 614.7,98.5 614.8,98.5 C614.9,98.5 615,98.4 615.1,98.4 C615.6,98.3 616,98.1 616.4,97.9 C620.4,96.5 623.8,94.1 626.5,90.5 C627.6,89 628.6,87.2 629.5,85.1 C631.5,82.5 633.4,80.5 635.3,79.2 C637.3,77.8 640.1,77.1 643.7,77.1 C648.8,77.1 652.6,78.9 655.7,82.9 C659.2,87.4 661,94 661,102.6 C661.2,106.7 660.7,110.5 659.7,113.9 Z" id="Shape"></path>
            <path d="M47.8,110.6 C45,111.3 42.2,112.8 39.7,115 C37.1,117.2 35.8,120.2 35.8,124.1 C35.8,128.1 37.3,131.5 40.4,134.3 C43.4,137.1 47.4,138.5 52.3,138.5 C57.5,138.5 62.4,137.4 66.8,135.1 C71.2,132.8 74.5,129.8 76.5,126.2 C78.9,122.2 80.1,115.6 80.1,106.4 L80.1,102.6 C76.2,104 70.6,105.5 63.2,107.1 C55.8,108.7 50.7,109.9 47.8,110.6 Z M71,114.3 C70.5,118.8 69.5,120.9 69,121.8 C67.8,123.9 65.8,125.7 62.8,127.2 C59.6,128.9 56.2,129.7 52.3,129.7 C48.8,129.7 47.2,128.6 46.3,127.8 C45.1,126.7 44.6,125.5 44.6,124 C44.6,122.3 45.1,121.9 45.3,121.6 C46.9,120.3 48.4,119.4 50,119 C52.7,118.3 57.8,117.1 65,115.6 C67.1,115.2 69.1,114.8 71,114.3 Z" id="Shape"></path>
            <path d="M365.7,76.4 C363.3,73.6 360.6,71.5 357.5,70.1 C354.4,68.7 351.1,68 347.6,68 C340.5,68 334.6,70.9 329.9,76.8 C325.2,82.7 322.8,91 322.8,101.8 C322.8,108.9 323.9,115 326.2,120.2 C328.5,125.3 331.5,129.2 335.3,131.6 C339,134.1 343.1,135.3 347.4,135.3 C352.1,135.3 356.4,134.1 360.4,131.6 C364.3,129.1 367.5,125.3 369.9,120.2 C372.3,115.1 373.5,108.8 373.5,101.3 C373.5,96 372.8,91.2 371.4,87 C370,82.7 368.1,79.2 365.7,76.4 Z M362,116.5 C360.3,120.1 358.3,122.6 355.8,124.2 C353.3,125.8 350.5,126.6 347.5,126.6 C344.9,126.6 342.5,125.9 340.2,124.3 C337.9,122.8 335.9,120.2 334.3,116.6 C332.5,112.6 331.6,107.6 331.6,101.8 C331.6,93.1 333.3,86.5 336.8,82.3 C339.9,78.5 343.2,76.8 347.7,76.8 C350,76.8 352,77.2 354,78.1 C355.9,79 357.6,80.3 359.2,82.1 C360.8,84 362.2,86.6 363.2,89.8 C364.3,93.2 364.9,97.1 364.9,101.4 C364.7,107.5 363.8,112.6 362,116.5 Z" id="Shape"></path>
            <path d="M550.4,67.8 C545.2,67.8 540.7,69.1 536.7,71.8 C532.8,74.5 529.7,78.4 527.6,83.7 C525.5,88.9 524.4,95 524.4,102 C524.4,108.9 525.5,115 527.6,120.1 C529.7,125.3 532.7,129.2 536.6,132 C540.5,134.7 545.1,136.1 550.4,136.1 C558.4,136.1 564.8,133.1 569.5,127 C574.3,121 576.6,112.6 576.6,101.9 C576.6,91.1 574.2,82.7 569.5,76.7 C564.8,70.8 558.4,67.8 550.4,67.8 Z M562.6,121.7 C559.5,125.6 555.6,127.4 550.3,127.4 C546.8,127.4 543.9,126.6 541.5,124.9 C539,123.1 537,120.5 535.6,116.9 C533.9,112.8 533.1,107.8 533.1,102.1 C533.1,96.3 534,91.2 535.7,87.1 C537.2,83.5 539.1,80.9 541.6,79.2 C544.1,77.5 546.9,76.7 550.3,76.7 C555.6,76.7 559.5,78.5 562.6,82.4 C566.1,86.8 567.8,93.5 567.8,102.2 C567.9,110.6 566.1,117.2 562.6,121.7 Z" id="Shape"></path>
            <path d="M242.4,110.6 C239.6,111.3 236.8,112.8 234.3,115 C231.7,117.2 230.4,120.2 230.4,124.1 C230.4,128.1 231.9,131.5 235,134.3 C238,137.1 242,138.5 246.9,138.5 C252.1,138.5 257,137.4 261.4,135.1 C265.8,132.8 269.1,129.8 271.1,126.2 C273.5,122.2 274.7,115.6 274.7,106.4 L274.7,102.6 C270.8,104 265.2,105.5 257.8,107.1 C250.3,108.7 245.2,109.9 242.4,110.6 Z M265.5,114.3 C265,118.8 264,120.9 263.5,121.8 C262.3,123.9 260.3,125.7 257.3,127.2 C254.1,128.9 250.7,129.7 246.8,129.7 C243.3,129.7 241.7,128.6 240.8,127.8 C239.6,126.7 239.1,125.5 239.1,124 C239.1,122.3 239.6,121.9 239.8,121.6 C241.4,120.3 242.9,119.4 244.5,119 C247.2,118.3 252.3,117.1 259.5,115.6 C261.7,115.2 263.7,114.8 265.5,114.3 Z" id="Shape"></path>
        </g>
    </g>
</svg>