<svg id="Layer_1" data-name="Layer 1" xmlns="http://www.w3.org/2000/svg" viewBox="0 0 248.17 142.73"><defs><style>.cls-1{fill:#21254f;}.cls-2{fill:#e30613;}</style></defs><path class="cls-1" d="M74.45,123.9a28.25,28.25,0,1,1-.86-36.14L84.17,74.29a45.17,45.17,0,1,0,.11,64Z" transform="translate(-7.14 -8.8)"/><rect class="cls-1" x="86.19" y="54.18" width="19.07" height="87.56"/><rect class="cls-1" x="190.16" y="54.64" width="19.07" height="87.56"/><path class="cls-1" d="M164.68,151.43c-16.39,0-20.31-14-20.71-21.89h-.12v-50H127.09v-16h16.76v-17l17-10.33-.46,13v14.3h17.21v16H160.38v44.41a11.48,11.48,0,0,0,0,3.82v1a11.45,11.45,0,0,0,20.14,5.34,11.58,11.58,0,0,0,1.24-1.86l0,0S182.12,151.43,164.68,151.43Z" transform="translate(-7.14 -8.8)"/><path class="cls-1" d="M160.38,123.91v3.82a11.48,11.48,0,0,1,0-3.82Z" transform="translate(-7.14 -8.8)"/><path class="cls-2" d="M158,8.8A93.14,93.14,0,0,0,80.39,50.3h27a72.36,72.36,0,0,1,101.19,0h27A93.14,93.14,0,0,0,158,8.8Z" transform="translate(-7.14 -8.8)"/><path class="cls-1" d="M241.82,48.75v-9.7h4.66a6.32,6.32,0,0,1,2,.24,2.17,2.17,0,0,1,1.11.88,2.89,2.89,0,0,1,.42,1.57,2.78,2.78,0,0,1-.33,1.39,2.7,2.7,0,0,1-.88,1,3.39,3.39,0,0,1-1,.38,2.89,2.89,0,0,1,.73.36,2.58,2.58,0,0,1,.44.51,4,4,0,0,1,.4.6l1.35,2.81h-3.16l-1.5-3a2.18,2.18,0,0,0-.5-.74,1.12,1.12,0,0,0-.69-.23h-.25v3.94Zm2.8-5.77h1.18a3.81,3.81,0,0,0,.75-.13.73.73,0,0,0,.45-.31.91.91,0,0,0,.18-.56,1,1,0,0,0-.28-.72,1.61,1.61,0,0,0-1.05-.25h-1.23Z" transform="translate(-7.14 -8.8)"/><path class="cls-1" d="M245.53,34.23A9.79,9.79,0,1,0,255.32,44,9.79,9.79,0,0,0,245.53,34.23Zm0,17.78a8,8,0,1,1,8-8A8,8,0,0,1,245.53,52Z" transform="translate(-7.14 -8.8)"/><path class="cls-1" d="M160.38,123.91v3.82a11.48,11.48,0,0,1,0-3.82Z" transform="translate(-7.14 -8.8)"/></svg>