<?xml version="1.0" encoding="UTF-8"?>
<svg width="136px" height="52px" viewBox="0 0 136 52" version="1.1" xmlns="http://www.w3.org/2000/svg" xmlns:xlink="http://www.w3.org/1999/xlink">
    <!-- Generator: Sketch 45.2 (43514) - http://www.bohemiancoding.com/sketch -->
    <title>OnlineBankTransfer</title>
    <desc>Created with Sketch.</desc>
    <defs></defs>
    <g id="Page-1" stroke="none" stroke-width="1" fill="none" fill-rule="evenodd">
        <g id="OnlineBankTransfer" fill-rule="nonzero" fill="#FFFFFF">
            <path d="M14.2,13.5 C10.8,13.5 9.2,16.6 9.2,19.7 C9.2,23.2 11.2,25.9 14.1,25.9 C16.9,25.9 19,23.3 19,19.7 C19,17 17.6,13.5 14.2,13.5 Z" id="Shape"></path>
            <path d="M84,13.4 C81.1,13.4 79.8,16.1 79.5,18.1 L88,18.1 C88,16.2 87.2,13.4 84,13.4 Z" id="Shape"></path>
            <path d="M12.1,39.9 C10.9,39.9 9.8,40.7 9.4,42.1 C9.4,42.3 9.3,42.5 9.3,42.8 L9.3,44.5 L9.2,44.5 C9.2,44.7 9.2,44.9 9.3,45.1 C9.6,46.3 10.7,47.2 12,47.2 C13.9,47.2 15,45.7 15,43.5 C15,41.5 14,39.9 12.1,39.9 Z" id="Shape"></path>
            <path d="M21,45.6 C21,46.7 21.8,47.3 22.7,47.3 C24,47.3 24.8,46.5 25.1,45.7 C25.2,45.5 25.2,45.3 25.2,45.1 L25.2,43.4 L25.1,43.4 C23.2,43.4 21,43.7 21,45.6 Z" id="Shape"></path>
            <path d="M74.8,45.6 C74.8,46.7 75.6,47.3 76.5,47.3 C77.8,47.3 78.6,46.5 78.9,45.7 C79,45.5 79,45.3 79,45.1 L79,43.4 L78.9,43.4 C77,43.4 74.8,43.7 74.8,45.6 Z" id="Shape"></path>
            <path d="M116,39.6 C114.2,39.6 113.4,41.3 113.3,42.5 L118.5,42.5 C118.5,41.4 118,39.6 116,39.6 Z" id="Shape"></path>
            <path d="M128.4,21.7 C120.5,29.6 110,31.8 104.8,26.7 C99.7,21.6 101.9,11 109.8,3.1 C110.8,2.1 111.8,1.2 112.8,0.5 L3.5,0.5 C1.8,0.5 0.5,1.8 0.5,3.5 L0.5,49 C0.5,50.6 1.8,52 3.5,52 L132.5,52 C134.2,52 135.5,50.6 135.5,49 L135.5,10 C134.4,13.9 132,18.1 128.4,21.7 Z M84.2,11.4 C89.4,11.4 90.8,16 90.8,18.9 C90.8,19.5 90.7,20 90.7,20.3 L79.5,20.3 C79.6,24.1 82.1,25.8 85,25.8 C87.1,25.8 88.3,25.4 89.4,25 L89.9,27.1 C88.9,27.6 87.1,28.1 84.6,28.1 C79.7,28.1 76.7,24.9 76.7,20 C76.7,15.1 79.5,11.4 84.2,11.4 Z M43.9,4.2 L46.8,4.2 L46.8,27.7 L43.9,27.7 L43.9,4.2 Z M14.1,11.3 C18.8,11.3 21.9,14.6 21.9,19.5 C21.9,25.4 17.8,28 13.9,28 C9.6,28 6.2,24.8 6.2,19.8 C6.2,14.4 9.7,11.3 14.1,11.3 Z M12.3,48.6 C10.9,48.6 9.8,48.1 9,46.8 L8.9,48.4 L7.4,48.4 L7.4,48.4 C7.4,47.7 7.5,46.7 7.5,45.9 L7.5,34.1 L9.3,34.1 L9.3,40.2 C9.9,39.1 11.1,38.4 12.6,38.4 C15,38.4 16.7,40.4 16.7,43.4 C16.7,46.9 14.5,48.6 12.3,48.6 Z M25.4,48.2 L25.4,48.4 L25.3,47.2 L25.2,47.2 C24.7,48 23.6,48.7 22.2,48.7 C20.2,48.7 19.2,47.3 19.2,45.9 C19.2,43.5 21.3,42.3 25.1,42.3 L25.1,42 C25.1,41.2 24.9,39.7 22.9,39.7 C22,39.7 21,40 20.4,40.4 L20,39.2 C20.8,38.7 22,38.3 23.2,38.3 C26.2,38.3 26.9,40.3 26.9,42.3 L26.9,45.9 C26.9,46.7 26.9,47.6 27.1,48.2 L25.4,48.2 L25.4,48.2 Z M38.9,48.5 L37.1,48.5 L37.1,42.9 C37.1,41.3 36.5,40 34.8,40 C33.6,40 32.7,40.8 32.4,41.8 C32.3,42 32.3,42.3 32.3,42.6 L32.3,48.5 L30.5,48.5 L30.5,41.3 L30.7,41.3 C30.7,40.3 30.7,39.5 30.6,38.7 L32.2,38.7 L32.3,40.3 C32.8,39.4 33.9,38.5 35.5,38.5 C36.9,38.5 38.9,39.3 38.9,42.7 L38.9,48.5 L38.9,48.5 Z M39.4,27.7 L36.5,27.7 L36.5,18.5 C36.5,15.9 35.5,13.8 32.8,13.8 C30.9,13.8 29.4,15.2 28.9,16.8 C28.8,17.2 28.7,17.7 28.7,18.2 L28.7,27.8 L25.8,27.8 L25.8,16 L25.6,16 C25.6,14.3 25.6,13 25.5,11.7 L28.1,11.7 L28.3,14.3 L28.4,14.3 C29.2,12.8 31,11.3 33.7,11.3 C35.9,11.3 39.4,12.6 39.4,18.1 L39.4,27.7 L39.4,27.7 Z M48.8,48.3 L45.4,43.6 L44.5,44.6 L44.5,48.3 L42.7,48.3 L42.7,34 L44.5,34 L44.5,43.1 L44.6,43.1 C44.9,42.8 45.2,42.3 45.5,42 L48.4,38.6 L50.5,38.6 L46.7,42.6 L51,48.3 L48.8,48.3 Z M54.6,27.6 L51.7,27.6 L51.7,11.6 L54.6,11.6 L54.6,27.6 Z M53.1,8.9 C52.1,8.9 51.3,8.1 51.3,7.1 C51.3,6.1 52.1,5.3 53.1,5.3 C54.3,5.3 55,6.1 55,7.1 C55,8.1 54.3,8.9 53.1,8.9 Z M63.3,40 L60.8,40 L60.8,45.3 C60.8,46.5 61.1,47.2 62.1,47.2 C62.6,47.2 62.9,47.1 63.1,47.1 L63.2,48.4 C62.9,48.5 62.3,48.6 61.6,48.6 C60.8,48.6 60.1,48.3 59.7,47.9 C59.2,47.4 59,46.5 59,45.4 L59,40 L57.5,40 L57.5,38.6 L59,38.6 L59,36.3 L60.8,35.8 L60.8,38.6 L63.3,38.6 L63.3,40 L63.3,40 Z M62.8,16.8 C62.7,17.2 62.6,17.7 62.6,18.2 L62.6,27.8 L59.7,27.8 L59.7,16 L59.5,16 C59.5,14.3 59.5,13 59.4,11.7 L62,11.7 L62.2,14.3 L62.3,14.3 C63.1,12.8 64.9,11.3 67.6,11.3 C69.8,11.3 73.3,12.6 73.3,18.1 L73.3,27.7 L70.4,27.7 L70.4,18.5 C70.4,15.9 69.4,13.8 66.7,13.8 C64.8,13.8 63.3,15.2 62.8,16.8 Z M71.2,40.3 C71,40.3 70.8,40.2 70.6,40.2 C69.4,40.2 68.5,41.1 68.2,42.5 C68.2,42.7 68.1,43 68.1,43.3 L68.1,48.5 L66.3,48.5 L66.3,41.7 L66.3,41.7 C66.3,40.6 66.3,39.6 66.2,38.7 L67.8,38.7 L67.9,40.6 L68,40.6 C68.4,39.3 69.5,38.5 70.7,38.5 C70.9,38.5 71,38.5 71.2,38.6 L71.2,40.3 Z M79.2,48.2 L79.2,48.4 L79.1,47.2 L79,47.2 C78.5,48 77.4,48.7 76,48.7 C74,48.7 73,47.3 73,45.9 C73,43.5 75.1,42.3 78.9,42.3 L78.9,42 C78.9,41.2 78.7,39.7 76.7,39.7 C75.8,39.7 74.8,40 74.2,40.4 L73.8,39.2 C74.6,38.7 75.8,38.3 77,38.3 C80,38.3 80.7,40.3 80.7,42.3 L80.7,45.9 C80.7,46.7 80.7,47.6 80.9,48.2 L79.2,48.2 L79.2,48.2 Z M92.7,48.5 L90.9,48.5 L90.9,42.9 C90.9,41.3 90.3,40 88.6,40 C87.4,40 86.5,40.8 86.2,41.8 C86.1,42 86.1,42.3 86.1,42.6 L86.1,48.5 L84.3,48.5 L84.3,41.3 L84.5,41.3 C84.5,40.3 84.5,39.5 84.4,38.7 L86,38.7 L86.1,40.3 C86.6,39.4 87.7,38.5 89.3,38.5 C90.7,38.5 92.7,39.3 92.7,42.7 L92.7,48.5 L92.7,48.5 Z M99,48.4 C97.9,48.4 96.9,48.1 96.3,47.7 L96.5,46.6 C97,46.9 98,47.3 98.8,47.3 C100.1,47.3 100.7,46.7 100.7,45.8 C100.7,45 100.2,44.5 98.9,44 C97.1,43.4 96.3,42.4 96.3,41.2 C96.3,39.6 97.6,38.3 99.7,38.3 C100.7,38.3 101.6,38.6 102.1,38.9 L101.7,40.2 C101.3,40 100.6,39.6 99.7,39.6 C98.7,39.6 98.1,40.2 98.1,40.9 C98.1,41.7 98.7,42.1 100,42.6 C101.7,43.2 102.6,44.1 102.6,45.5 C102.6,47.2 101.3,48.4 99,48.4 Z M110.7,35.5 C110.4,35.4 110.1,35.3 109.6,35.3 C108.1,35.3 107.7,36.6 107.7,38.1 L107.7,38.6 L110.1,38.6 L110.1,40 L107.7,40 L107.7,48.4 L105.9,48.4 L105.9,40 L104.5,40 L104.5,38.6 L105.9,38.6 L105.9,38.1 C105.9,36.7 106.2,35.5 107,34.7 C107.7,34.1 108.6,33.8 109.4,33.8 C110,33.8 110.6,33.9 110.9,34.1 L110.7,35.5 Z M120.1,43.8 L113.3,43.8 C113.3,46.2 114.9,47.2 116.6,47.2 C117.9,47.2 118.6,47 119.3,46.7 L119.6,48 C119,48.3 117.9,48.6 116.4,48.6 C113.4,48.6 111.6,46.6 111.6,43.7 C111.6,40.8 113.3,38.4 116.2,38.4 C119.4,38.4 120.2,41.2 120.2,43 C120.2,43.4 120.2,43.6 120.1,43.8 Z M128.3,40.3 C128.1,40.3 127.9,40.2 127.7,40.2 C126.5,40.2 125.6,41.1 125.3,42.5 C125.3,42.7 125.2,43 125.2,43.3 L125.2,48.5 L123.4,48.5 L123.4,41.7 C123.4,40.6 123.4,39.6 123.3,38.7 L124.9,38.7 L125,40.6 L125.1,40.6 C125.5,39.3 126.6,38.5 127.8,38.5 C128,38.5 128.1,38.5 128.3,38.6 L128.3,40.3 Z" id="Shape"></path>
        </g>
    </g>
</svg>