<?xml version="1.0" encoding="UTF-8"?>
<svg width="622px" height="221px" viewBox="0 0 622 221" version="1.1" xmlns="http://www.w3.org/2000/svg" xmlns:xlink="http://www.w3.org/1999/xlink">
    <!-- Generator: Sketch 45.2 (43514) - http://www.bohemiancoding.com/sketch -->
    <title>Poli</title>
    <desc>Created with Sketch.</desc>
    <defs></defs>
    <g id="Page-1" stroke="none" stroke-width="1" fill="none" fill-rule="evenodd">
        <g id="Poli" fill-rule="nonzero" fill="#FFFFFF">
            <path d="M332.4,116.4 C333,115 333.9,113.7 334.1,112.3 C336.5,88.6 328.4,69.2 309.9,54.1 C307.9,52.5 306,50.7 304.3,48.7 C315,53.9 323,62.1 329.8,71.6 C324.2,59.9 314.6,51.7 304.8,43.1 C316.7,46.2 332.1,63.4 338.2,80.2 C344.2,96.7 343.1,113.5 338.5,131.5 C345,120.1 345.5,94.7 340.1,78.9 C334.1,61.3 320.6,49.9 306.3,38.7 C316.4,40.2 331.7,56 338.4,68.5 C345.6,81.9 347.7,96.3 347.2,111.3 C351.2,79 338,54.8 312.3,36.3 C328.3,45.2 340,57.9 346.7,75 C353.3,92 352.8,109.4 349,126.9 C357.9,97.5 354.6,60.1 310.8,28.9 C313.8,30.6 316.8,32.1 319.6,34 C322.7,36 325.6,38.2 328.4,40.5 C331.2,42.8 333.8,45.4 336.9,47.5 C330.2,38.1 320.9,31.6 312,25 C349,44.1 363.4,75.4 360.3,116.2 C366.1,73.1 348.3,42 312.1,19.8 C314.1,20.6 316.2,21.3 318.1,22.3 C344.9,36.6 360.5,59 363.9,89 C370.5,147.3 330.9,196.9 279.3,213.8 C243.6,225.5 210.2,221.3 180.4,197.7 C161.6,182.8 152.4,162.3 150.1,138.5 C143.8,75.3 197.5,19.9 250.5,12.1 C254.1,11.6 257.8,11.2 261.8,10.7 C262.6,7.5 263.5,4.2 264.4,0.9 C277.2,14.1 289.9,27.2 302.6,40.2 C287.1,48.6 270.5,57.5 253.2,66.8 C253.6,63.6 253.9,60.9 254.2,57.4 C251.7,57.9 249.5,58.1 247.4,58.7 C217.9,66.6 196.7,92.2 196.1,120.8 C195.4,152.9 219.3,176.2 251.4,174.8 C281.9,173.5 309.2,151.5 316.6,121.9 C321.1,103.7 318.4,86.8 302.5,69.5 C309.1,71.6 318.3,84.8 321.3,95.8 C324.4,107.2 322.5,118.2 318.9,129.7 C324.4,122.4 325.7,104.3 322.4,91.5 C319,78.4 309.4,69.5 301.3,59.6 C322.7,75.9 333.6,96.4 327.3,124 C335.1,96.2 325.4,74.2 303.9,54.8 C323.4,62.4 336.3,91.5 332.6,116.3 C329.7,125.8 326.8,135.3 323.9,144.8 C327.5,137.6 330.3,130 332.7,122.4 C333.1,120.7 332.4,118.5 332.4,116.4 Z M320.5,140.2 C311.7,154.7 300.2,166.1 285.3,174.1 C270.4,182.1 254.4,184.9 237.6,183.3 C276.5,190.8 312.5,162.1 320.5,140.2 Z M317.9,159.7 C310.6,165.6 303.6,172.2 295.8,177.4 C288,182.5 279.3,186 270.3,190.6 C290,185.2 305.5,174.8 317.9,159.7 Z M247,179.3 C263.9,180.5 283.9,174.1 291.6,164.9 C278.1,174 263.2,178.7 247,179.3 Z M336.1,124.3 C341,111 340,90.7 333.9,80.5 C338.9,94.9 338.8,109.5 336.1,124.3 Z M357.8,92.3 C357.4,92.3 357,92.3 356.6,92.3 C355.9,103.8 355.3,115.4 354.6,126.9 C355,126.9 355.4,126.9 355.9,127 C356.5,115.5 357.2,103.9 357.8,92.3 Z M238.9,188.2 C238.9,188.6 239,189 239,189.3 C246.3,188.9 253.7,188.5 261,188.2 C261,187.9 261,187.5 261,187.2 C253.6,187.5 246.2,187.9 238.9,188.2 Z" id="Shape"></path>
            <path d="M441.7,154 C462.9,154 483.4,154 504.3,154 C504.3,173 504.3,191.7 504.3,210.8 C463.2,210.8 422,210.8 380.5,210.8 C380.5,148 380.5,85.1 380.5,21.6 C382,21.5 383.6,21.3 385.1,21.3 C402.3,21.3 419.4,21.4 436.6,21.2 C440.8,21.1 441.9,22.5 441.9,26.6 C441.8,66.9 441.8,107.2 441.8,147.5 C441.7,149.5 441.7,151.4 441.7,154 Z" id="Shape"></path>
            <path d="M515.1,87 C534.6,87 553.9,87 573.5,87 C573.5,128.4 573.5,169.6 573.5,211.3 C554.2,211.3 534.8,211.3 515.1,211.3 C515.1,170 515.1,128.8 515.1,87 Z" id="Shape"></path>
            <path d="M514.3,73.6 C514.3,56.6 514.3,39.7 514.3,22.5 C534.1,22.5 553.8,22.5 573.9,22.5 C573.9,39.4 573.9,56.3 573.9,73.6 C554.2,73.6 534.4,73.6 514.3,73.6 Z" id="Shape"></path>
            <path d="M320.5,140.2 C312.5,162.1 276.4,190.7 237.6,183.2 C254.4,184.8 270.4,182.1 285.3,174 C300.2,166.1 311.8,154.7 320.5,140.2 Z" id="Shape"></path>
            <path d="M317.9,159.7 C305.5,174.8 290,185.3 270.3,190.5 C279.3,185.9 288,182.4 295.8,177.3 C303.6,172.2 310.6,165.6 317.9,159.7 Z" id="Shape"></path>
            <path d="M247,179.3 C263.2,178.7 278.1,174 291.6,164.9 C283.9,174.1 263.9,180.5 247,179.3 Z" id="Shape"></path>
            <path d="M336.1,124.3 C338.8,109.5 339,94.9 333.9,80.5 C340,90.7 341,110.9 336.1,124.3 Z" id="Shape"></path>
            <path d="M357.8,92.3 C357.2,103.9 356.5,115.5 355.9,127 C355.5,127 355.1,127 354.6,126.9 C355.3,115.4 355.9,103.8 356.6,92.3 C357,92.3 357.4,92.3 357.8,92.3 Z" id="Shape"></path>
            <path d="M332.4,116.4 C332.5,118.5 333.2,120.8 332.6,122.6 C330.2,130.3 327.4,137.8 323.8,145 C326.7,135.5 329.6,126 332.5,116.5 C332.4,116.5 332.4,116.4 332.4,116.4 Z" id="Shape"></path>
            <path d="M238.9,188.2 C246.2,187.9 253.6,187.5 260.9,187.2 C260.9,187.5 260.9,187.9 260.9,188.2 C253.6,188.6 246.2,189 238.9,189.3 C238.9,188.9 238.9,188.6 238.9,188.2 Z" id="Shape"></path>
            <path d="M138.9,62.4 C134.2,44.4 122.8,32.8 105.1,26.9 C95,23.6 84.7,22.4 74.2,22.3 C51.4,22.2 28.6,22.3 5.8,22.3 C4.1,22.3 2.3,22.3 0.2,22.3 C0.2,85.8 0.2,148.7 0.1,211.6 C18.6,211.6 36.6,211.6 55.2,211.6 C55.2,192.3 55.2,173.4 55.2,154.2 C60,154.2 64.3,154.2 68.6,154.2 C82.3,154.1 95.7,152.4 108.8,148.1 C123.7,143.3 133.4,133.3 138,118.5 C143.8,99.9 143.8,81.1 138.9,62.4 Z M84.3,103.8 C83.3,113.4 79.1,117.3 69.7,118.7 C67.9,119 66.2,119 64.4,119 C61.4,119 58.3,118.8 55.2,118.8 C55.2,98.6 55.2,78.5 55.2,57.6 C57.6,58 59.9,58.3 62.2,58.6 C66,59.2 69.8,59.7 73.4,60.7 C80.8,62.6 84.4,68.6 84.8,75.5 C84.8,75.5 84.8,75.5 84.8,75.5 C85,79 85.2,82.6 85.2,86.1 C85.2,92.1 84.9,98 84.3,103.8 Z" id="Shape"></path>
            <g id="Group" transform="translate(578.000000, 188.000000)">
                <polygon id="Shape" points="7.5 3 0.5 3 0.5 0.5 17.6 0.5 17.6 3 10.5 3 10.5 23.6 7.5 23.6"></polygon>
                <path d="M39.7,13.5 C39.5,10.3 39.3,6.4 39.4,3.5 L39.3,3.5 C38.5,6.2 37.6,9.1 36.4,12.3 L32.3,23.5 L30,23.5 L26.3,12.5 C25.2,9.2 24.3,6.3 23.6,3.5 L23.5,3.5 C23.4,6.4 23.3,10.3 23.1,13.7 L22.5,23.6 L19.7,23.6 L21.3,0.5 L25.1,0.5 L29,11.7 C30,14.5 30.8,17.1 31.3,19.5 L31.4,19.5 C32,17.2 32.8,14.6 33.8,11.7 L37.9,0.5 L41.7,0.5 L43.1,23.6 L40.2,23.6 L39.7,13.5 Z" id="Shape"></path>
            </g>
        </g>
    </g>
</svg>