<svg xmlns="http://www.w3.org/2000/svg" viewBox="0 0 344.36 394.94"><defs><style>.cls-1{fill:#fff;}</style></defs><g id="Layer_2" data-name="Layer 2"><g id="Layer_1-2" data-name="Layer 1"><path class="cls-1" d="M344.27,197.79c0,30.92-.08,61.84.09,92.75,0,4.31-1.12,6.87-5,9.12q-80.91,46.66-161.6,93.68c-3,1.73-5.33,2.33-8.65.41Q87.3,346.62,5.33,299.8C1.56,297.65,0,295.35,0,290.86q.24-93.49.05-187c0-3.62.68-6.09,4.18-8.1q81.85-47,163.52-94.36c3.36-1.95,5.76-1.8,9,.1q81.67,47.33,163.53,94.35c3.31,1.9,4,4.25,4,7.69C344.23,135,344.27,166.37,344.27,197.79ZM72,197.37c0,17.77.08,35.55-.08,53.32,0,3.58,1,5.74,4.2,7.56C107,276,137.87,294,168.85,311.66a7.89,7.89,0,0,0,6.62,0c31-17.7,61.8-35.66,92.75-53.4,3.54-2,4.8-4.54,4.79-8.4q-.09-52.59,0-105.16c0-4-1.63-6.33-5-8.28q-46-26.39-91.81-53.07c-2.73-1.59-4.77-1.9-7.67-.2q-46,26.85-92.22,53.37c-3.06,1.76-4.43,3.79-4.39,7.48C72.08,161.81,72,179.59,72,197.37Z"/></g></g></svg>