<?xml version="1.0" encoding="UTF-8"?>
<svg width="137px" height="29px" viewBox="0 0 137 29" version="1.1" xmlns="http://www.w3.org/2000/svg" xmlns:xlink="http://www.w3.org/1999/xlink">
    <!-- Generator: Sketch 45.2 (43514) - http://www.bohemiancoding.com/sketch -->
    <title>Nordea</title>
    <desc>Created with Sketch.</desc>
    <defs></defs>
    <g id="Page-1" stroke="none" stroke-width="1" fill="none" fill-rule="evenodd">
        <g id="Nordea" fill-rule="nonzero" fill="#FFFFFF">
            <path d="M124.3,6.4 C118.8,6.8 114.4,11.3 114,16.8 C113.6,23.3 118.7,28.7 125.1,28.7 C127.4,28.7 130.5,27.5 131.9,25.1 L131.9,28.4 L136.2,28.4 L136.2,17.8 C136.4,10.8 130.8,5.9 124.3,6.4 Z M131.6,17.8 C131.4,21.5 128.2,24.3 124.4,23.8 C121.5,23.4 119.2,21.1 118.8,18.2 C118.4,14.3 121.4,11 125.2,11 C128.6,11 131.4,13.7 131.6,17.1 L131.6,17.8 L131.6,17.8 Z" id="Shape"></path>
            <path d="M100.7,6.4 C94.8,6.6 89.8,11.1 89.8,17.7 C89.8,23.7 94.7,28.8 101,28.8 C105.4,28.8 109.7,26.2 111.4,21.9 L107.1,20.6 C106.3,22.4 104.4,23.9 102.3,24.3 C99.3,24.9 96.5,23 95.4,21 L112.1,16.4 C111.6,12 107.8,6.2 100.7,6.4 Z M94.5,17 C94.5,14.7 95.9,12 98.9,10.9 C102.3,9.6 105.3,11.3 106.6,13.7 L94.5,17 Z" id="Shape"></path>
            <g id="Group">
                <path d="M64,10.9 L64,6.3 C59.8,6.3 58.4,8.4 57.7,9.5 L57.7,7 L52.9,7 L52.9,17.2 L52.9,28.3 L57.8,28.3 C57.8,21.7 57.8,21.8 57.8,17.8 C57.8,13 60.6,11.1 64,10.9 Z" id="Shape"></path>
                <polygon id="Shape" points="19.9 19.8 5.3 2.6 0.3 2.6 0.3 28.3 5.5 28.3 5.5 11.1 20.3 28.4 24.8 28.4 24.8 2.6 19.9 2.6"></polygon>
                <path d="M86.9,0.3 L82.3,0.3 L82.3,8.7 C81.2,7.3 77.8,6.1 74.9,6.4 C69.4,6.8 65,11.3 64.6,16.8 C64.2,23.3 69.3,28.7 75.7,28.7 C78.1,28.7 81.4,27.6 82.5,25.5 L82.5,28.3 L86.8,28.3 L86.8,17.7 C86.8,17.6 86.8,17.6 86.8,17.5 C86.8,17.4 86.8,17.4 86.8,17.3 L86.9,0.3 L86.9,0.3 Z M82.1,17.8 C81.9,21.5 78.7,24.3 74.9,23.8 C72,23.4 69.7,21.1 69.3,18.2 C68.9,14.3 71.9,11 75.7,11 C79.1,11 81.9,13.7 82.1,17.1 C82.1,17.1 82.1,17.8 82.1,17.8 Z" id="Shape"></path>
                <path d="M38.9,6.3 C32.7,6.3 27.7,11.3 27.7,17.5 C27.7,23.7 32.7,28.7 38.9,28.7 C45.1,28.7 50.1,23.7 50.1,17.5 C50,11.3 45,6.3 38.9,6.3 Z M38.9,23.9 C35.4,23.9 32.5,21 32.5,17.5 C32.5,14 35.4,11.1 38.9,11.1 C42.4,11.1 45.3,14 45.3,17.5 C45.3,21.1 42.4,23.9 38.9,23.9 Z" id="Shape"></path>
            </g>
        </g>
    </g>
</svg>