<?xml version="1.0" encoding="UTF-8"?>
<svg width="62px" height="72px" viewBox="0 0 62 72" version="1.1" xmlns="http://www.w3.org/2000/svg" xmlns:xlink="http://www.w3.org/1999/xlink">
    <!-- Generator: Sketch 46.2 (44496) - http://www.bohemiancoding.com/sketch -->
    <title>Page 1</title>
    <desc>Created with Sketch.</desc>
    <defs></defs>
    <g id="Person-To-Person" stroke="none" stroke-width="1" fill="none" fill-rule="evenodd">
        <g id="1.1_P2P_Mobile_DepositFlow" transform="translate(-61.000000, -261.000000)" fill="#FFFFFF">
            <g id="Page-1" transform="translate(61.000000, 261.000000)">
                <path d="M44.8211668,0.624477038 C44.4235491,0.234559059 43.9451355,0 43.389107,0 L22.5547359,0.00304915859 C18.4201482,0.00304915859 15,3.35696765 15,7.41149076 L15,24.6474251 C15,25.7379477 15.8760313,26.597015 16.9880884,26.597015 C18.1001455,26.597015 18.9761768,25.7379477 18.9761768,24.6474251 L18.9761768,7.41149076 C18.9761768,5.46190086 20.5666475,3.90222895 22.5547359,3.90222895 L41.3238807,3.90222895 L41.3238807,19.2642175 C41.3238807,20.3547401 42.199912,21.2138074 43.3119691,21.2138074 L58.1049372,21.2138074 L58.1049372,54.5915584 C58.1049372,56.5411483 56.5144665,58.1008202 54.5263781,58.1008202 L42.5167338,58.1008202 C41.4046767,58.1008202 40.5286454,58.9598875 40.5286454,60.0504101 C40.5286454,61.1409327 41.4046767,62 42.5167338,62 L54.4452641,62 C58.5798518,62 62,58.6460815 62,54.5915584 L62,18.6395611 C62,18.0942842 61.7608091,17.6251505 61.4439555,17.2352325 L44.8211668,0.624477038 Z" id="Fill-1"></path>
                <path d="M31.3736269,60.076008 L24.7622239,56.8590641 L24.7622239,55.1341999 L24.9208982,54.8982938 C25.7982982,53.7218222 26.4329317,52.4656643 26.9930149,51.1329573 C28.2686537,50.2689566 28.9842094,48.8597005 28.9842094,47.3676208 L28.9842094,44.6255793 C28.9842094,43.7615785 28.7446448,42.9772642 28.2686219,42.1929498 L28.2686219,40.8602428 C28.4272962,38.7432214 27.7117087,36.6262 26.3583495,35.0575712 C24.5258134,33.0170989 21.7381411,32 17.9953326,32 C14.2525242,32 11.4648519,33.0202362 9.63231576,35.0575712 C8.27894068,36.7058863 7.56019912,38.7432214 7.72204341,40.8602428 L7.72204341,42.1929498 C7.24291422,42.8976092 7.0064559,43.7615785 7.0064559,44.6255793 L7.0064559,47.3706796 C7.0064559,48.5471512 7.48558508,49.6439364 8.28209474,50.5079372 C8.76122392,52.1562523 9.55773358,53.7248811 10.5128698,55.1341372 L10.5128698,56.7027659 L4.29970575,60.0759452 C1.67069183,61.4883386 0,64.2334389 0,67.2144611 L0,67.6862709 C0,70.039214 1.9911945,72 4.38062789,72 L31.6193721,72 C34.0088055,72 36,70.039214 36,67.6862709 L36,67.3737686 C35.9159955,64.2334546 34.1612514,61.4086679 31.3735791,60.0759609 L31.3736269,60.076008 Z" id="Fill-2"></path>
            </g>
        </g>
    </g>
</svg>