<?xml version="1.0" encoding="utf-8"?>
<!-- Generator: Adobe Illustrator 21.1.0, SVG Export Plug-In . SVG Version: 6.00 Build 0)  -->
<svg version="1.1" id="Layer_1" xmlns="http://www.w3.org/2000/svg" xmlns:xlink="http://www.w3.org/1999/xlink" x="0px" y="0px"
	 viewBox="0 0 27.8 8" style="enable-background:new 0 0 27.8 8;" xml:space="preserve">
<style type="text/css">
	.st0{fill:#FFFFFF;}
</style>
<title>Visa</title>

<g id="Page-1">
	<g id="_x32_.5_x5F_MyAccount_x5F_ProfileSeetings" transform="translate(-316.000000, -810.000000)">
		<g id="Card-Visa-Copy-3" transform="translate(295.000000, 802.000000)">
			<g id="Visa" transform="translate(21.216000, 8.112000)">
				<path id="Fill-1" class="st0" d="M20,0.3C19.6,0.2,18.9,0,18,0c-2.2,0-3.7,1-3.8,2.5c0,1.1,1.1,1.7,2,2.1
					c0.9,0.4,1.2,0.6,1.2,0.9c0,0.5-0.7,0.7-1.3,0.7c-0.9,0-1.4-0.1-2.1-0.4l-0.3-0.1l-0.3,1.7c0.5,0.2,1.5,0.4,2.5,0.4
					c2.3,0,3.9-1,3.9-2.6c0-0.9-0.6-1.5-1.9-2.1c-0.8-0.4-1.3-0.6-1.3-0.9c0-0.3,0.4-0.7,1.3-0.7c0.7,0,1.3,0.1,1.7,0.3L19.7,2
					L20,0.3"/>
				<path id="Fill-2" class="st0" d="M25.7,0H24c-0.5,0-0.9,0.1-1.1,0.7l-3.2,7.2h2.3c0,0,0.4-1,0.5-1.2c0.3,0,2.5,0,2.8,0
					c0.1,0.3,0.3,1.2,0.3,1.2h2L25.7,0L25.7,0z M23,5.1c0.2-0.5,0.9-2.2,0.9-2.2c0,0,0.2-0.5,0.3-0.7l0.1,0.7c0,0,0.4,1.9,0.5,2.3
					H23L23,5.1z"/>
				<path id="Fill-3" class="st0" d="M7.9,0L5.7,5.4L5.4,4.3C5,3,3.8,1.7,2.4,1l2,6.9l2.4,0L10.2,0H7.9"/>
				<path id="Fill-4" class="st0" d="M3.7,0H0l0,0.2c2.8,0.6,4.7,2.1,5.5,4L4.7,0.6C4.6,0.2,4.2,0,3.7,0"/>
				<polyline id="Fill-5" class="st0" points="9.8,7.8 11.2,0 13.4,0 12,7.8 9.8,7.8 				"/>
			</g>
		</g>
	</g>
</g>
</svg>
