<?xml version="1.0" encoding="UTF-8" standalone="no"?>
<!-- Generator: Adobe Illustrator 22.1.0, SVG Export Plug-In . SVG Version: 6.00 Build 0)  -->

<svg
   xmlns:dc="http://purl.org/dc/elements/1.1/"
   xmlns:cc="http://creativecommons.org/ns#"
   xmlns:rdf="http://www.w3.org/1999/02/22-rdf-syntax-ns#"
   xmlns:svg="http://www.w3.org/2000/svg"
   xmlns="http://www.w3.org/2000/svg"
   xmlns:sodipodi="http://sodipodi.sourceforge.net/DTD/sodipodi-0.dtd"
   xmlns:inkscape="http://www.inkscape.org/namespaces/inkscape"
   version="1.1"
   id="Layer_1"
   x="0px"
   y="0px"
   viewBox="0 0 90 90"
   style="enable-background:new 0 0 90 90;"
   xml:space="preserve"
   sodipodi:docname="icon-whitepayment-quickbit.svg"
   inkscape:version="0.92.4 (5da689c313, 2019-01-14)"><metadata
   id="metadata37"><rdf:RDF><cc:Work
       rdf:about=""><dc:format>image/svg+xml</dc:format><dc:type
         rdf:resource="http://purl.org/dc/dcmitype/StillImage" /></cc:Work></rdf:RDF></metadata><defs
   id="defs35" /><sodipodi:namedview
   pagecolor="#ffffff"
   bordercolor="#666666"
   borderopacity="1"
   objecttolerance="10"
   gridtolerance="10"
   guidetolerance="10"
   inkscape:pageopacity="0"
   inkscape:pageshadow="2"
   inkscape:window-width="1280"
   inkscape:window-height="737"
   id="namedview33"
   showgrid="false"
   inkscape:zoom="2.6222222"
   inkscape:cx="45.381356"
   inkscape:cy="45"
   inkscape:window-x="-8"
   inkscape:window-y="-8"
   inkscape:window-maximized="1"
   inkscape:current-layer="Layer_1" />
<style
   type="text/css"
   id="style2">
	.st0{fill:transparent;}
	.st1{fill:#FFFFFF;}
	.st2{fill:none;}
	.st3{fill:#24AE4B;}
</style>
<circle
   class="st0"
   cx="45.2"
   cy="45.2"
   r="34.8"
   id="circle4" />
<g
   id="g22">
	<path
   class="st1"
   d="M26.6,47.3c0.2-0.6,0.5-1.2,0.6-1.9c0.1-0.7,0.2-1.3,0.2-1.9c0-0.4,0-0.7-0.1-1.1c0-0.4-0.1-0.7-0.2-1   c-0.1-0.3-0.3-0.5-0.5-0.7c-0.2-0.2-0.5-0.3-0.8-0.3c-0.5,0-1,0.2-1.4,0.6c-0.4,0.4-0.7,0.9-1,1.6c-0.3,0.6-0.5,1.3-0.6,2   c-0.1,0.7-0.2,1.4-0.2,2.1c0,0.8,0.1,1.4,0.4,1.8c0.3,0.4,0.7,0.6,1.3,0.6l5.8,0.1L29.8,51h-5.7c-1.2,0-2-0.4-2.6-1.1   c-0.6-0.7-0.9-1.8-0.9-3.1c0-1,0.1-2,0.4-2.9c0.2-1,0.6-1.8,1.1-2.6c0.5-0.8,1-1.4,1.7-1.9c0.7-0.5,1.4-0.7,2.3-0.7   c0.6,0,1.1,0.1,1.6,0.3c0.4,0.2,0.8,0.5,1.1,0.9c0.3,0.4,0.5,0.9,0.7,1.4c0.1,0.6,0.2,1.2,0.2,1.8c0,0.6-0.1,1.1-0.2,1.8   c-0.1,0.6-0.3,1.2-0.5,1.8c-0.2,0.6-0.5,1.1-0.8,1.5l-0.5,0.4h-2.1C25.4,48.7,26.3,48.1,26.6,47.3z"
   id="path6" />
	<path
   class="st1"
   d="M37.5,41.6c0,0.4-0.1,0.8-0.2,1.2c-0.1,0.3-0.3,0.6-0.5,0.9c-0.2,0.3-0.4,0.5-0.7,0.6   c-0.3,0.2-0.5,0.3-0.8,0.4v0c0.2,0,0.4,0.1,0.6,0.2c0.2,0.1,0.4,0.3,0.5,0.5c0.2,0.2,0.3,0.4,0.4,0.7c0.1,0.3,0.1,0.6,0.1,0.9   c0,0.7-0.1,1.3-0.3,1.8c-0.2,0.5-0.5,0.9-0.9,1.2c-0.4,0.3-0.8,0.6-1.3,0.7C34,51,33.5,51,33,51h-3.6L31.5,39h3.1   c0.3,0,0.7,0,1,0.1c0.3,0.1,0.6,0.3,0.9,0.5c0.3,0.2,0.5,0.5,0.7,0.8C37.4,40.7,37.5,41.1,37.5,41.6z M35.1,47.1   c0-0.3,0-0.5-0.1-0.7c-0.1-0.2-0.2-0.4-0.4-0.5c-0.2-0.1-0.3-0.2-0.5-0.3c-0.2-0.1-0.4-0.1-0.6-0.1h-1.3l-0.7,3.9h1.4   c0.6,0,1.2-0.2,1.6-0.6C34.9,48.4,35.1,47.8,35.1,47.1z M35.6,42c0-0.5-0.1-0.8-0.4-1c-0.3-0.2-0.6-0.3-1.1-0.3h-1.1l-0.6,3.5h1.2   c0.2,0,0.5,0,0.7-0.1c0.2-0.1,0.5-0.2,0.6-0.4c0.2-0.2,0.3-0.4,0.5-0.7C35.6,42.6,35.6,42.3,35.6,42z"
   id="path8" />
	<path
   class="st1"
   d="M46.2,43.6c0,1-0.1,1.9-0.3,2.8c-0.2,0.9-0.6,1.7-1.1,2.4c-0.5,0.7-1.1,1.2-1.8,1.7c-0.7,0.4-1.6,0.6-2.6,0.6   h-3.1L39.4,39h2.9c0.7,0,1.3,0.1,1.8,0.3c0.5,0.2,0.9,0.5,1.2,1c0.3,0.4,0.5,0.9,0.7,1.5C46.1,42.3,46.2,42.9,46.2,43.6z    M44.2,43.8c0-0.9-0.2-1.7-0.5-2.3c-0.3-0.6-0.9-0.8-1.6-0.8h-1l-1.5,8.7h1.1c0.5,0,1-0.2,1.5-0.5c0.4-0.3,0.8-0.7,1.1-1.2   c0.3-0.5,0.6-1.1,0.7-1.8C44.1,45.2,44.2,44.5,44.2,43.8z"
   id="path10" />
	<path
   class="st1"
   d="M47.8,51h-1.8l1.5-8.7h1.8L47.8,51z M49.9,39.7c0,0.4-0.1,0.7-0.3,0.9C49.3,40.8,49,41,48.7,41   c-0.3,0-0.6-0.1-0.7-0.3c-0.2-0.2-0.3-0.4-0.3-0.7c0-0.3,0.1-0.6,0.3-0.9c0.2-0.3,0.5-0.4,0.9-0.4c0.3,0,0.5,0.1,0.7,0.3   C49.8,39.1,49.9,39.4,49.9,39.7z"
   id="path12" />
	<path
   class="st1"
   d="M54.3,44c-0.1,0-0.1,0-0.2,0c-0.1,0-0.1,0-0.2,0c-0.3,0-0.5,0.1-0.7,0.2c-0.2,0.2-0.4,0.4-0.6,0.6   c-0.2,0.3-0.3,0.5-0.5,0.9c-0.1,0.3-0.2,0.7-0.3,1L51.1,51h-1.9l1.1-6.5c0-0.1,0.1-0.3,0.1-0.5c0-0.2,0.1-0.4,0.1-0.6   c0-0.2,0.1-0.4,0.1-0.6c0-0.2,0-0.3,0.1-0.4h1.8c0,0.1,0,0.2-0.1,0.4c0,0.2,0,0.3-0.1,0.5c0,0.2,0,0.3-0.1,0.5c0,0.2,0,0.3-0.1,0.4   h0.1c0.3-0.6,0.6-1.1,1-1.5c0.4-0.3,0.8-0.5,1.2-0.5c0.1,0,0.2,0,0.3,0L54.3,44z"
   id="path14" />
	<path
   class="st1"
   d="M60.1,45c0,0.2,0,0.5,0,0.8c0,0.3-0.1,0.8-0.2,1.3h-4.5c0,0.1,0,0.3-0.1,0.4c0,0.1,0,0.3,0,0.4   c0,0.5,0.1,0.9,0.3,1.2c0.2,0.3,0.5,0.5,0.9,0.5c0.4,0,0.6-0.1,0.9-0.3c0.2-0.2,0.4-0.5,0.6-0.8l1.3,0.8c-0.3,0.6-0.7,1-1.2,1.4   c-0.5,0.4-1.1,0.6-1.8,0.6c-0.9,0-1.6-0.3-2.1-0.9c-0.5-0.6-0.7-1.4-0.7-2.5c0-0.8,0.1-1.5,0.3-2.2c0.2-0.7,0.5-1.3,0.8-1.9   c0.4-0.6,0.8-1,1.3-1.3c0.5-0.3,1-0.5,1.6-0.5c0.5,0,0.8,0.1,1.2,0.2c0.3,0.1,0.6,0.3,0.8,0.6c0.2,0.3,0.4,0.6,0.4,0.9   C60,44.2,60.1,44.6,60.1,45z M58.4,45c0-0.4-0.1-0.8-0.2-1c-0.2-0.3-0.4-0.4-0.7-0.4c-0.3,0-0.5,0.1-0.7,0.2   c-0.2,0.1-0.4,0.3-0.5,0.6c-0.2,0.2-0.3,0.5-0.4,0.7c-0.1,0.3-0.2,0.5-0.2,0.7h2.7c0-0.2,0.1-0.3,0.1-0.4   C58.4,45.3,58.4,45.1,58.4,45z"
   id="path16" />
	<path
   class="st1"
   d="M65.2,44.2c-0.1-0.1-0.2-0.2-0.4-0.3c-0.2-0.1-0.4-0.1-0.6-0.1c-0.3,0-0.6,0.1-0.9,0.4c-0.3,0.3-0.5,0.6-0.7,1   c-0.2,0.4-0.3,0.9-0.4,1.3c-0.1,0.5-0.1,0.9-0.1,1.4c0,0.5,0.1,1,0.3,1.3c0.2,0.3,0.5,0.5,1,0.5c0.2,0,0.4,0,0.6-0.1   c0.2-0.1,0.3-0.2,0.5-0.3l0.6,1.5c-0.3,0.2-0.5,0.4-0.9,0.5c-0.3,0.1-0.7,0.2-1.1,0.2c-0.5,0-0.9-0.1-1.3-0.3   c-0.3-0.2-0.6-0.4-0.9-0.7c-0.2-0.3-0.4-0.6-0.5-1.1c-0.1-0.4-0.2-0.8-0.2-1.3c0-0.7,0.1-1.4,0.3-2.1c0.2-0.7,0.4-1.3,0.8-1.9   c0.3-0.6,0.8-1,1.3-1.4c0.5-0.4,1.1-0.5,1.7-0.5c0.5,0,0.9,0.1,1.2,0.2c0.3,0.1,0.5,0.3,0.7,0.5L65.2,44.2z"
   id="path18" />
	<path
   class="st1"
   d="M69.7,43.9h-1.5l-0.8,4.4c0,0.1,0,0.2-0.1,0.3c0,0.1,0,0.2,0,0.3c0,0.5,0.2,0.7,0.7,0.7c0.1,0,0.2,0,0.3,0   c0.1,0,0.2-0.1,0.3-0.1L68.5,51c-0.1,0.1-0.3,0.1-0.5,0.2c-0.2,0-0.4,0.1-0.6,0.1c-0.6,0-1.1-0.2-1.4-0.5c-0.3-0.3-0.5-0.7-0.5-1.3   c0-0.2,0-0.4,0.1-0.7l0.9-4.8h-1.2l0.3-1.5h1.1l0.4-2.3h1.8l-0.4,2.3H70L69.7,43.9z"
   id="path20" />
</g>

</svg>