<?xml version="1.0" encoding="UTF-8"?>
<svg width="74px" height="59px" viewBox="0 0 74 59" version="1.1" xmlns="http://www.w3.org/2000/svg" xmlns:xlink="http://www.w3.org/1999/xlink">
    <!-- Generator: Sketch 45.2 (43514) - http://www.bohemiancoding.com/sketch -->
    <title>np_cards_62731_000000</title>
    <desc>Created with Sketch.</desc>
    <defs></defs>
    <g id="Desktop" stroke="none" stroke-width="1" fill="none" fill-rule="evenodd">
        <g id="01_BetOnline_Desktop_HomePage" transform="translate(-685.000000, -873.000000)" fill-rule="nonzero" fill="#EE3536">
            <g id="np_cards_62731_000000" transform="translate(685.000000, 873.000000)">
                <path d="M23.0384855,56.064692 C21.418828,56.7339325 19.5512938,55.9740988 18.8757127,54.3696886 L2.64061949,15.8550452 C1.96501575,14.2506425 2.73207406,12.4006977 4.3517391,11.7314796 L26.9181864,2.39684077 C28.5378439,1.72760021 30.4053781,2.48743398 31.0809591,4.09184419 L35.4679689,14.5015712 L36.3146922,11.3219435 L32.9426023,3.32349651 C31.8362958,0.702061797 28.7857206,-0.540013006 26.1393611,0.553030776 L3.57593487,9.88467698 C0.929575398,10.9805637 -0.324309129,14.0024071 0.779127381,16.6238418 L17.0142206,55.1414777 C18.1205271,57.7629124 21.1711023,59.0049872 23.8174618,57.9090257 L32.4440544,54.3407352 C31.5855491,54.0660229 30.8037028,53.6539581 30.1222307,53.1366663 L23.0384855,56.064692 Z" id="Shape"></path>
                <path d="M29.9476143,33.9472017 L30.044975,33.6052757 C30.044975,33.6052757 28.3810592,33.6929512 27.1596509,32.5794904 C26.643362,32.1060551 26.1830983,31.3988385 25.8173253,30.6389449 C26.5666879,31.5098637 27.9414972,31.8079257 29.0419127,31.3491017 C30.3665652,30.8026022 30.9919969,29.2946133 30.4374087,27.9824371 C29.8857131,26.6702608 28.3633861,26.0507197 27.0387336,26.6000846 C25.9766854,27.0384542 25.2420429,28.146057 25.2715736,29.2419437 C25.1624157,28.8766381 25.0827583,28.5288617 25.0385076,28.2103228 C26.0593185,27.5089344 26.4310581,26.0213923 25.9383257,24.8524115 C25.3866301,23.5402353 23.8643031,22.9206942 22.5396506,23.470059 C21.2149981,24.0165585 20.5895664,25.5245474 21.1441546,26.8367237 C21.6397947,28.0086222 22.9792126,28.7976936 24.2065119,28.5580619 C24.4041789,28.8152377 24.6018458,29.1250157 24.784755,29.4639939 C24.0206573,28.6603337 22.6989503,28.3943672 21.6309355,28.8356696 C20.306283,29.382169 19.6808513,30.890158 20.232494,32.2023342 C20.7841896,33.5145104 22.3065166,34.1340516 23.6311691,33.5876045 C24.7256935,33.1346235 25.4750636,31.9685381 25.3894925,30.8375632 C25.6609107,31.6032175 25.8349758,32.4127882 25.8290772,33.1287655 C25.8172762,34.7740919 24.5398464,35.8846423 24.5398464,35.8846423 L24.5427965,35.8846423 L24.7965189,36.0804476 C27.6169661,33.5554491 29.9476264,33.9470296 29.9476264,33.9470296" id="Shape"></path>
                <path d="M9.07521773,16.4824419 C9.78917363,16.1872752 10.1284294,15.3748092 9.82752579,14.6675852 C9.52955261,13.9603537 8.70936168,13.6242932 7.99541334,13.9223628 C7.4230689,14.1590842 7.02777278,14.7552756 7.04250037,15.3484819 C6.9834956,15.1526767 6.93924107,14.962722 6.91563916,14.7932142 C7.46733476,14.416215 7.66794722,13.6125623 7.40242762,12.984193 C7.10445444,12.2769615 6.28426351,11.9438188 5.57031517,12.2389706 C4.85636682,12.5341223 4.52004904,13.3466033 4.81800711,14.0538273 C5.08352671,14.6850769 5.80928734,15.1117829 6.46719531,14.9831763 C6.57340013,15.123454 6.67961251,15.2900366 6.77991874,15.471223 C6.3698346,15.0357786 5.6558636,14.8955009 5.0805812,15.1322148 C4.3666253,15.4273815 4.02736955,16.2398475 4.32827314,16.9470715 C4.62624631,17.654303 5.44643724,17.9903635 6.16038558,17.692294 C6.75043334,17.4468043 7.15461133,16.8213752 7.11035303,16.2105874 C7.25786308,16.6226522 7.35227072,17.0580892 7.34932521,17.4438341 C7.34342435,18.3322595 6.65306508,18.9284584 6.65306508,18.9284584 L6.65601513,18.9284584 L6.791728,19.0336629 C8.30814129,17.6747274 9.56497134,17.8851066 9.56497134,17.8851066 L9.61807602,17.7009949 C9.61807602,17.7009949 8.72120342,17.7477541 8.06329545,17.1486524 C7.78597112,16.8944019 7.53520177,16.5115598 7.33753483,16.1024427 C7.74172037,16.5671097 8.48220859,16.7278493 9.07523963,16.4823596" id="Shape"></path>
                <path d="M70.2951743,8.83188354 L46.6517247,2.6538295 C44.421363,2.07226437 42.1172124,3.4019772 41.5301479,5.60841438 L38.5799469,16.689978 L37.7332236,19.8696057 L30.7824799,45.9672418 C30.1953853,48.173679 31.5377411,50.4590457 33.7681027,51.0405809 L34.6383901,51.2685341 L37.8482499,52.1072824 L57.4110237,57.2186275 C59.6384398,57.8001926 61.945536,56.4734051 62.5326005,54.2640426 L73.2799663,13.9022226 C73.867061,11.6957854 72.5217597,9.41333645 70.2943436,8.83180124 M43.2227636,8.077818 C43.2906186,7.51378197 43.5236899,7.03452604 43.9809703,6.66920552 C44.5533147,6.21330676 45.187651,5.85088157 45.85145,5.54990175 C46.2379322,5.37455089 46.6302753,5.22843017 47.022709,5.07062337 C47.066962,5.05308829 47.0994133,5.05016602 47.1348199,5.09108072 C47.7691184,5.8158488 48.3385551,6.58737612 48.7574229,7.45829485 C48.8429789,7.6336457 48.9167377,7.81775737 48.9963951,7.996026 C49.194062,8.45777528 49.1704601,8.92245729 49.0288479,9.3900496 C48.9727932,9.57124349 48.8901895,9.74366909 48.7633283,9.88394679 C48.314892,10.38953 47.7248443,10.7081063 46.8957941,10.4304462 C46.4709597,10.2872433 46.1641349,9.99207657 45.9723363,9.59169785 C45.9723363,9.88102153 46.0195402,10.1498834 46.0962445,10.3924403 C46.3824205,11.2983724 47.0550485,11.8653935 47.0550485,11.8653935 L46.8898351,11.9881346 C46.8898351,11.9881346 45.9604863,11.0003552 43.7832195,11.175721 L43.7360157,10.9974524 L43.7330656,10.9974524 C43.7330656,10.9974524 44.6004075,10.8337951 45.2966828,10.1850388 C45.4795994,10.0155385 45.6536645,9.81096498 45.7923229,9.56840053 C45.6536645,9.64146239 45.5209047,9.71452126 45.3792932,9.76420575 C44.2818233,10.1558162 43.0899457,9.22647459 43.2226451,8.07795566 M51.7963694,33.827703 C52.3303617,35.5314598 53.5930601,36.5923332 53.5930601,36.5923332 L53.2803367,36.8232041 C53.2803367,36.8232041 51.5367408,34.9674237 47.444736,35.2976561 L47.3591801,34.9644985 L47.35623,34.9615762 C47.35623,34.9615762 48.9847241,34.654716 50.2975945,33.4360283 C50.6427715,33.1145567 50.9643466,32.7317145 51.2298888,32.272883 C50.9702678,32.4102355 50.7165454,32.5446701 50.4540091,32.6411139 C48.3858775,33.3775755 46.1466793,31.6299174 46.4003715,29.4731573 C46.5242797,28.4152016 46.9697704,27.5151051 47.8253227,26.8283055 C48.902174,25.9691327 50.0881606,25.2881687 51.3360785,24.7241401 C52.0588861,24.3968255 52.8023425,24.1221132 53.536985,23.8240436 C53.6195954,23.7889742 53.6785964,23.7831289 53.7464491,23.8620353 C54.9383267,25.2268063 56.0063415,26.6734247 56.7940788,28.3099978 C56.9533936,28.6431555 57.092052,28.9850814 57.2425151,29.3211942 C57.6171926,30.1862026 57.5729419,31.0600391 57.3015199,31.9397112 C57.1953151,32.2816371 57.0477975,32.6031087 56.8117784,32.8690602 C55.9709461,33.815916 54.8558031,34.4150326 53.303968,33.8919278 C52.5015031,33.6230584 51.9321117,33.070686 51.5662632,32.3167028 C51.5603624,32.8661275 51.6518192,33.3687481 51.7963838,33.8275871 M60.8330832,51.7951021 C60.7652275,52.3591381 60.5321569,52.8383941 60.0748765,53.2037146 C59.5025321,53.6596208 58.8711413,54.0220385 58.2043968,54.3230184 C57.8208676,54.495444 57.4255715,54.6444899 57.0331378,54.8022967 C56.985934,54.8198318 56.9564335,54.8227541 56.9210269,54.7818394 C56.2867284,54.054146 55.7172917,53.2884618 55.2984239,52.4146253 C55.2158134,52.2392744 55.1361636,52.0551627 55.0594517,51.8768941 C54.8588392,51.4151448 54.8853867,50.9504628 55.0269989,50.4828705 C55.0801036,50.3016766 55.1627118,50.129251 55.289573,49.9889733 C55.7409623,49.4833901 56.3310025,49.1648138 57.1571072,49.4424739 C57.5819415,49.5856768 57.8887664,49.8779183 58.0805649,50.2783045 C58.083515,49.9889808 58.0333611,49.720119 57.9566568,49.477562 C57.6704808,48.57163 57.0007983,48.0046088 57.0007983,48.0046088 L57.1660117,47.8818677 C57.1660117,47.8818677 58.0953605,48.8696471 60.2696818,48.6942813 L60.3168856,48.8696247 L60.3198364,48.8725477 C60.3198364,48.8725477 59.45544,49.036205 58.7562193,49.6849613 C58.5733026,49.8544616 58.3992376,50.0590351 58.2576261,50.3015996 C58.3992376,50.2285384 58.5290518,50.1554788 58.6736088,50.1057943 C59.7740243,49.7171092 60.9689229,50.6493685 60.8332025,51.7949622" id="Shape"></path>
            </g>
        </g>
    </g>
</svg>