<?xml version="1.0" encoding="UTF-8"?>
<svg width="32px" height="32px" viewBox="0 0 32 32" version="1.1" xmlns="http://www.w3.org/2000/svg" xmlns:xlink="http://www.w3.org/1999/xlink">
    <!-- Generator: Sketch 45.2 (43514) - http://www.bohemiancoding.com/sketch -->
    <title>Faceboomk</title>
    <desc>Created with Sketch.</desc>
    <defs></defs>
    <g id="Desktop" stroke="none" stroke-width="1" fill="none" fill-rule="evenodd">
        <g id="01_BetOnline_Desktop_HomePage" transform="translate(-909.000000, -2081.000000)" fill-rule="nonzero" fill="#FFFFFF">
            <g id="Faceboomk" transform="translate(909.000000, 2081.000000)">
                <path d="M28.7157895,0.0842105263 L3.32631579,0.0842105263 C1.64210526,0.0842105263 0.252631579,1.47368421 0.252631579,3.15789474 L0.252631579,28.5473684 C0.252631579,30.2315789 1.64210526,31.6210526 3.32631579,31.6210526 L18.9052632,31.6210526 L18.9052632,19.2 L14.7368421,19.2 L14.7368421,14.3578947 L18.9052632,14.3578947 L18.9052632,10.7789474 C18.9052632,6.65263158 21.4315789,4.37894737 25.1368421,4.37894737 C26.9052632,4.37894737 28.4210526,4.50526316 28.8842105,4.58947368 L28.8842105,8.92631579 L26.3157895,8.92631579 C24.2947368,8.92631579 23.9157895,9.89473684 23.9157895,11.2842105 L23.9157895,14.3578947 L28.7157895,14.3578947 L28.0842105,19.2 L23.9157895,19.2 L23.9157895,31.6210526 L28.7157895,31.6210526 C30.4,31.6210526 31.7894737,30.2315789 31.7894737,28.5473684 L31.7894737,3.15789474 C31.7894737,1.43157895 30.4,0.0842105263 28.7157895,0.0842105263 Z" id="Shape"></path>
            </g>
        </g>
    </g>
</svg>