<?xml version="1.0" encoding="UTF-8"?>
<svg xmlns="http://www.w3.org/2000/svg" width="145.973" height="89.552" viewBox="0 0 145.973 89.552"><path fill-rule="evenodd" clip-rule="evenodd" fill="#FFF" d="M38.593 52.952H66.39l14.003-15.066h24.893L83.451 62.363H0V45.346h45.292l-6.699 7.606z"/><path fill-rule="evenodd" clip-rule="evenodd" fill="#FFF" d="M108.286 36.886H79.393L64.39 53.047H39.404l22.835-25.478h83.545v16.922h-44.292l6.794-7.605zM134.933 21.295c-1.227.761-2.83 1.141-4.34 1.141-4.34 0-8.209-3.232-8.209-7.7s3.491-7.7 7.926-7.7c1.604 0 3.397.285 4.624 1.046v4.753c-.943-.856-2.359-1.141-3.963-1.141-1.51 0-3.302 1.236-3.302 3.232 0 1.711 1.793 2.757 3.302 2.757 1.699 0 2.737-.095 3.963-1.046v4.658h-.001zM145.973 17.682v3.612c-3.869 2.852-8.303.475-8.303-2.852v-6.654h-1.888V7.415h1.888V3.898l5.284-2.853v6.37h3.019v3.993h-2.737v6.179c0 1.141 1.888 1.046 2.737.095zM105.965 17.682v3.612c-3.963 2.852-8.304.475-8.304-2.852v-6.654h-1.887V7.415h1.887V3.898l5.378-2.853v6.37h2.925v3.993h-2.831v6.179c.001 1.141 1.982 1.046 2.832.095zM61.899 21.295c-1.227.761-2.642 1.141-4.246 1.141-4.435 0-8.209-3.232-8.209-7.7s3.491-7.7 7.832-7.7c1.604 0 3.397.285 4.624 1.046v4.753c-1.038-.856-2.265-1.141-3.869-1.141s-3.397 1.236-3.397 3.232c0 1.711 1.887 2.757 3.397 2.757 1.604 0 2.642-.095 3.869-1.046v4.658h-.001zM48.406 12.548v9.602h-5.284v-8.271c0-2.946-4.246-2.852-4.246 0v8.271h-5.284V7.415h5.379v1.236c4.434-3.327 9.435-.285 9.435 3.897zM95.019 12.548v9.602h-5.284v-8.271c0-2.946-4.246-2.852-4.246 0v8.271h-5.284V7.415h5.284v1.236c4.529-3.327 9.53-.285 9.53 3.897z"/><path fill-rule="evenodd" clip-rule="evenodd" fill="#FFF" d="M103.134 17.587v-6.179h2.831V7.415h-2.925v-6.37l-5.378 2.853v3.517h-1.887v4.374h1.887v6.654c0 3.327 4.34 5.704 8.304 2.852v-3.612c-.851.95-2.832 1.045-2.832-.096zM61.899 16.637c-1.227.95-2.265 1.046-3.869 1.046-1.51 0-3.397-1.046-3.397-2.757 0-1.997 1.793-3.232 3.397-3.232 1.604 0 2.831.285 3.869 1.141V8.081c-1.227-.761-3.02-1.046-4.624-1.046-4.34 0-7.832 3.232-7.832 7.7s3.774 7.7 8.209 7.7c1.604 0 3.019-.38 4.246-1.141v-4.657h.001zM38.97 8.651V7.415h-5.379V22.15h5.284v-8.271c0-2.852 4.246-2.946 4.246 0v8.271h5.284v-9.602c.001-4.182-5-7.224-9.435-3.897zM85.489 8.651V7.415h-5.284V22.15h5.284v-8.271c0-2.852 4.246-2.946 4.246 0v8.271h5.284v-9.602c0-4.182-5.001-7.224-9.53-3.897zM134.933 16.637c-1.227.95-2.265 1.046-3.963 1.046-1.51 0-3.302-1.046-3.302-2.757 0-1.997 1.793-3.232 3.302-3.232 1.604 0 3.02.285 3.963 1.141V8.081c-1.227-.761-3.019-1.046-4.624-1.046-4.435 0-7.926 3.232-7.926 7.7s3.869 7.7 8.209 7.7c1.51 0 3.114-.38 4.34-1.141v-4.657h.001zM143.236 17.587v-6.179h2.737V7.415h-3.019v-6.37l-5.284 2.853v3.517h-1.888v4.374h1.888v6.654c0 3.327 4.435 5.704 8.303 2.852v-3.612c-.849.95-2.737 1.045-2.737-.096zM10.285 82.993l4.341-6.275v12.454h5.661l.094-21.58h-5.755l-4.341 6.465-4.435-6.465H.094l.095 21.58H5.85V76.718l4.435 6.275zM71.807 80.521c.566-1.236 1.793-2.282 3.397-2.282.849 0 1.793.38 2.453.855v-4.658c-.472-.571-1.227-.761-1.981-.761-1.321 0-3.114.761-3.869 1.711v-1.521h-5.095v15.306h5.095v-8.65zM28.402 88.221c1.793.761 3.963 1.046 5.378 1.046 5.473 0 7.077-2.852 7.077-5.229 0-2.757-2.831-4.278-5.378-4.658-.378 0-1.416-.285-1.416-.761 0-.38.283-.856 1.51-.856 1.038 0 2.925.381 3.869.856l-.189-3.992c-1.415-.475-3.397-.855-4.906-.855-3.114 0-5.85 1.901-5.85 4.943 0 2.377 1.699 3.613 4.435 4.183 1.132.095 2.17.57 2.17 1.141 0 .76-.755.95-1.51.95-.66 0-2.359.19-5.189-.95v4.182h-.001zM47.745 84.514V78.24h2.925v-4.088h-3.114v-6.56l-5.378 2.852v3.707h-1.887v4.373h1.887v6.845c0 3.422 4.435 5.704 8.492 2.852v-3.707c-.849.856-2.925 1.046-2.925 0zM27.458 88.982v-14.83h-5.662v14.83h5.662zM24.627 73.676c1.699 0 3.114-1.426 3.114-3.137 0-1.616-1.416-2.947-3.114-2.947-1.604 0-2.925 1.331-2.925 2.947 0 1.711 1.321 3.137 2.925 3.137zM117.666 88.221c1.793.761 3.963 1.046 5.378 1.046 5.473 0 7.171-2.852 7.171-5.229 0-2.757-2.831-4.278-5.473-4.658-.378 0-1.416-.285-1.416-.761 0-.38.283-.856 1.604-.856 1.038 0 2.831.381 3.868.856l-.283-3.992c-1.415-.475-3.397-.855-4.907-.855-3.114 0-5.85 1.901-5.85 4.943 0 2.377 1.699 3.613 4.435 4.183 1.132.095 2.17.57 2.17 1.141 0 .76-.755.95-1.51.95-.66 0-2.359.19-5.189-.95v4.182h.002zM101.058 82.898c-1.793 1.331-3.208 1.616-5.568 1.616-3.585 0-6.794-2.947-6.794-5.989 0-3.327 1.793-6.464 6.794-6.464 2.265 0 4.152.38 5.568 1.711v-5.134c-1.793-1.046-4.246-1.331-6.417-1.331-6.511 0-11.512 4.659-11.512 11.028 0 6.274 5.473 11.028 11.889 11.028 2.17 0 4.247-.476 6.039-1.521v-4.944h.001zM136.254 75.292v-7.701h-5.284v21.58h5.284V80.71c0-2.852 4.34-2.948 4.34 0v8.461h5.378V79.38c.001-4.373-5.094-7.415-9.718-4.088z"/><path fill-rule="evenodd" clip-rule="evenodd" fill="#FFF" d="M55.86 82.232h9.814c0-5.134-2.076-8.461-7.266-8.461-4.907 0-7.832 3.708-7.832 7.89 0 4.563 3.491 7.891 8.398 7.891 4.246 0 6.417-1.711 6.417-1.711v-4.373c-1.793.951-3.774 1.521-5.19 1.521-2.831 0-4.341-.76-4.341-2.757zm2.265-4.848c1.038 0 2.359.476 2.359 1.902h-4.812c.283-1.427 1.415-1.902 2.453-1.902zM103.606 74.627l-.755 4.088c2.359-1.14 5.662-1.331 7.266-1.236 1.793.095 1.227 1.521-.189 1.521-2.831 0-7.36.951-7.926 4.848-1.227 6.655 7.265 6.084 9.53 4.659l.189.38h5.095V78.619c0-4.848-7.737-5.799-13.21-3.992zm7.737 9.507c0 2.091-3.963 2.567-3.963.475 0-1.901 2.925-2.377 3.963-2.281v1.806zM108.607 8.081l-.849 4.088c2.359-1.141 5.567-1.331 7.171-1.236 1.793.095 1.227 1.426-.188 1.426-2.736 0-7.171.95-7.832 4.848-1.132 6.56 7.171 5.894 9.436 4.468l.189.475h4.907V12.073c-.001-4.753-7.55-5.799-12.834-3.992zm7.549 9.411c0 1.996-3.869 2.566-3.869.475 0-1.901 2.831-2.472 3.869-2.282v1.807zM70.958 6.94c-4.341 0-8.115 3.422-8.115 7.795 0 4.468 3.774 7.796 8.209 7.796s8.115-3.137 8.115-7.605c0-4.564-3.68-7.986-8.209-7.986zm.094 10.932c-1.604 0-2.925-1.331-2.925-3.137 0-1.901 1.321-2.946 2.925-2.946 1.604 0 3.019 1.045 3.019 3.137 0 1.616-1.415 2.946-3.019 2.946zM19.438 8.081l-.755 4.088c2.17-1.141 5.473-1.331 7.077-1.236 1.698.095 1.132 1.426-.283 1.426-2.737 0-7.077.95-7.737 4.848-1.321 6.56 7.266 5.894 9.436 4.468l.094.475h5.001V12.073c-.001-4.753-7.549-5.799-12.833-3.992zm7.548 9.411c0 1.996-3.963 2.566-3.963.475 0-1.901 2.831-2.472 3.963-2.282v1.807z"/><path fill-rule="evenodd" clip-rule="evenodd" fill="#FFF" d="M13.871 10.647C18.4 6.559 14.814 0 9.907 0H.094v22.055h10.568c6.322-.095 8.87-7.89 3.209-11.408zM6.133 4.468c0-.095 1.699-.19 2.359 0 2.736 1.236 1.793 4.183.094 4.183H6.133V4.468zm2.453 13.214H6.133v-4.468h2.359c2.925 0 3.208 4.468.094 4.468z"/></svg>