<?xml version="1.0" encoding="UTF-8"?>
<svg width="103px" height="26px" viewBox="0 0 103 26" version="1.1" xmlns="http://www.w3.org/2000/svg" xmlns:xlink="http://www.w3.org/1999/xlink">
    <!-- Generator: Sketch 45.2 (43514) - http://www.bohemiancoding.com/sketch -->
    <title>espn_red</title>
    <desc>Created with Sketch.</desc>
    <defs></defs>
    <g id="Desktop" stroke="none" stroke-width="1" fill="none" fill-rule="evenodd">
        <g id="01_BetOnline_Desktop_HomePage" transform="translate(-219.000000, -1456.000000)" fill-rule="nonzero" fill="#FFFFFF">
            <g id="espn_red" transform="translate(219.000000, 1456.000000)">
                <path d="M31.1824415,0.0453661796 C29.2285104,0.0453661796 25.7803967,2.24562589 25.7803967,7.19053947 L76.5596178,7.19053947 C77.2492405,-0.147440084 72.0081077,0.0453661796 72.0081077,0.0453661796 C72.0081077,0.0453661796 32.2628505,0.0453661796 31.1824415,0.0453661796 L31.1824415,0.0453661796 Z M25.3436357,9.7990948 C25.3436357,9.7990948 25.3436357,11.3188618 25.3436357,12.11277 C25.3436357,13.6779032 26.929768,15.5946242 29.3549413,15.5946242 C30.8721113,15.5946242 41.6647072,15.6059658 41.6647072,15.6059658 L41.273921,18.5887921 L24.6080381,18.5887921 L23.7230222,25.3483529 C23.7230222,25.3483529 41.4808078,25.3483529 43.2508395,25.3483529 C44.8944403,25.3483529 48.7103528,24.0440752 49.3654944,20.1879499 C49.3654944,20.1879499 50.1240795,13.8593679 50.1470669,13.6211954 C50.2505103,12.3963086 49.4804316,9.81043635 46.1012801,9.81043635 C44.3427422,9.7990948 25.3436357,9.7990948 25.3436357,9.7990948 L25.3436357,9.7990948 Z M51.9056049,9.7990948 L76.272275,9.7990948 L75.7320705,12.4983825 C75.7320705,12.4983825 75.191866,15.5832827 71.4219284,15.5832827 C67.6519908,15.5832827 59.4799613,15.5832827 59.4799613,15.5832827 L58.3535775,25.3370113 L50.0895983,25.3370113 L51.9056049,9.7990948 L51.9056049,9.7990948 Z M77.5480771,7.19053947 L102.546901,7.19053947 C103.673285,2.41574907 101.328568,0.0453661796 98.8804071,0.0453661796 C95.9839916,0.0453661796 88.9268523,0.0453661796 78.4790678,0.0453661796 L77.5480771,7.19053947 L77.5480771,7.19053947 Z M83.7087069,25.3370113 L75.4447277,25.3370113 L77.2492405,9.7990948 L85.6166631,9.7990948 L83.7087069,25.3370113 L83.7087069,25.3370113 Z M100.340109,25.3370113 L92.0761295,25.3370113 L93.892136,9.7990948 L102.259559,9.7990948 L100.340109,25.3370113 L100.340109,25.3370113 Z M1.90795625,9.7990948 L24.2632267,9.7990948 L23.5276291,15.5946242 L9.78114919,15.5946242 L9.34438812,18.5887921 L23.1368429,18.5887921 L22.3092956,25.3483529 L0.0459748493,25.3483529 L1.90795625,9.7990948 L1.90795625,9.7990948 Z M3.03434005,0.0453661796 L25.3896105,0.0453661796 L24.4356324,7.19053947 L2.25276762,7.19053947 L3.03434005,0.0453661796 L3.03434005,0.0453661796 Z" id="Shape"></path>
            </g>
        </g>
    </g>
</svg>