<?xml version="1.0" encoding="UTF-8"?>
<svg width="18px" height="18px" viewBox="0 0 18 18" version="1.1" xmlns="http://www.w3.org/2000/svg" xmlns:xlink="http://www.w3.org/1999/xlink">
    <!-- Generator: Sketch 45.1 (43504) - http://www.bohemiancoding.com/sketch -->
    <title>np_gift_894514_000000</title>
    <desc>Created with Sketch.</desc>
    <defs></defs>
    <g id="Mobile" stroke="none" stroke-width="1" fill="none" fill-rule="evenodd" opacity="0.352807971">
        <g id="1.8.2_Deposit-Options-(credit-card)-Re-Select-Copy" transform="translate(-276.000000, -524.000000)" fill-rule="nonzero" fill="#000000">
            <g id="Group" transform="translate(31.000000, 503.000000)">
                <g id="Group-4" transform="translate(51.000000, 17.000000)">
                    <g id="np_gift_894514_000000" transform="translate(194.000000, 4.000000)">
                        <path d="M6.6,0 C4.95,0 3.6,1.32065217 3.6,2.93478261 C3.6,3.59434565 3.82656,4.20423261 4.20624,4.69565217 L0.60004,4.69565217 C0.28598,4.69565217 4e-05,4.97537609 4e-05,5.2826087 L4e-05,8.80434783 C4e-05,9.11158043 0.28598,9.39130435 0.60004,9.39130435 L1.20004,9.39130435 L1.20004,17.4130435 C1.20004,17.7202761 1.48598,18 1.80004,18 L16.20004,18 C16.5141,18 16.80004,17.7202761 16.80004,17.4130435 L16.80004,9.39130435 L17.40004,9.39130435 C17.7141,9.39130435 18.00004,9.11158043 18.00004,8.80434783 L18.00004,5.2826087 C18.00004,4.97537609 17.7141,4.69565217 17.40004,4.69565217 L13.79384,4.69565217 C14.17352,4.20423261 14.40008,3.59434565 14.40008,2.93478261 C14.40008,1.32065217 13.05008,0 11.40008,0 C10.42118,0 9.54852,0.470778261 9.00008,1.1861413 C8.45164,0.470797826 7.57898,0 6.60008,0 L6.6,0 Z M6.6,1.17391304 C7.60156,1.17391304 8.4,1.95499565 8.4,2.93478261 L8.4,4.69565217 L6.6,4.69565217 C5.59844,4.69565217 4.8,3.91456957 4.8,2.93478261 C4.8,1.95499565 5.59844,1.17391304 6.6,1.17391304 Z M11.4,1.17391304 C12.40156,1.17391304 13.2,1.95499565 13.2,2.93478261 C13.2,3.91456957 12.40156,4.69565217 11.4,4.69565217 L9.6,4.69565217 L9.6,2.93478261 C9.6,1.95499565 10.39844,1.17391304 11.4,1.17391304 Z M1.2,5.86956522 L8.4,5.86956522 L8.4,8.2173913 L1.2,8.2173913 L1.2,5.86956522 Z M9.6,5.86956522 L16.8,5.86956522 L16.8,8.2173913 L9.6,8.2173913 L9.6,5.86956522 Z M2.4,9.39130435 L8.4,9.39130435 L8.4,16.826087 L2.4,16.826087 L2.4,9.39130435 Z M9.6,9.39130435 L15.6,9.39130435 L15.6,16.826087 L9.6,16.826087 L9.6,9.39130435 Z" id="Shape"></path>
                    </g>
                </g>
            </g>
        </g>
    </g>
</svg>