<?xml version="1.0" encoding="UTF-8"?>
<svg width="36px" height="21px" viewBox="0 0 36 21" version="1.1" xmlns="http://www.w3.org/2000/svg" xmlns:xlink="http://www.w3.org/1999/xlink">
    <!-- Generator: Sketch 46.2 (44496) - http://www.bohemiancoding.com/sketch -->
    <title>Page 1</title>
    <desc>Created with Sketch.</desc>
    <defs></defs>
    <g id="Contact-Us-Modal" stroke="none" stroke-width="1" fill="none" fill-rule="evenodd">
        <g id="1.1_Help_Modal-Desktop" transform="translate(-629.000000, -425.000000)" fill="#ED3536">
            <g id="Group-10" transform="translate(548.000000, 218.000000)">
                <path d="M83.4600205,207 C83.1044726,207 82.7649475,207.069413 82.4606455,207.201923 L97.8356455,220.112481 C98.2136163,220.429565 99.0464165,220.429565 99.4243955,220.112481 L114.799396,207.201923 C114.495098,207.069413 114.155573,207 113.800021,207 L83.4600205,207 Z M81.2690625,208.3251 C81.0992979,208.654804 81,209.027106 81,209.423077 L81,225.576923 C81,226.919388 82.097078,228 83.46,228 L113.8,228 C115.162922,228 116.26,226.919388 116.26,225.576923 L116.26,209.423077 C116.26,209.027118 116.160702,208.65484 115.990938,208.3251 L100.488018,221.336619 C99.4245595,222.229483 97.8358095,222.229483 96.7723925,221.336619 L81.2690625,208.3251 Z" id="Page-1"></path>
            </g>
        </g>
    </g>
</svg>