<?xml version="1.0" encoding="UTF-8" standalone="no"?>
<!-- Generator: Adobe Illustrator 22.1.0, SVG Export Plug-In . SVG Version: 6.00 Build 0)  -->

<svg
   xmlns:dc="http://purl.org/dc/elements/1.1/"
   xmlns:cc="http://creativecommons.org/ns#"
   xmlns:rdf="http://www.w3.org/1999/02/22-rdf-syntax-ns#"
   xmlns:svg="http://www.w3.org/2000/svg"
   xmlns="http://www.w3.org/2000/svg"
   xmlns:sodipodi="http://sodipodi.sourceforge.net/DTD/sodipodi-0.dtd"
   xmlns:inkscape="http://www.inkscape.org/namespaces/inkscape"
   version="1.1"
   id="Layer_1"
   x="0px"
   y="0px"
   viewBox="0 0 90 90"
   style="enable-background:new 0 0 90 90;"
   xml:space="preserve"
   sodipodi:docname="icon-whitepayment-spv.svg"
   inkscape:version="0.92.4 (5da689c313, 2019-01-14)"><metadata
   id="metadata33"><rdf:RDF><cc:Work
       rdf:about=""><dc:format>image/svg+xml</dc:format><dc:type
         rdf:resource="http://purl.org/dc/dcmitype/StillImage" /></cc:Work></rdf:RDF></metadata><defs
   id="defs31" /><sodipodi:namedview
   pagecolor="#ffffff"
   bordercolor="#666666"
   borderopacity="1"
   objecttolerance="10"
   gridtolerance="10"
   guidetolerance="10"
   inkscape:pageopacity="0"
   inkscape:pageshadow="2"
   inkscape:window-width="1280"
   inkscape:window-height="737"
   id="namedview29"
   showgrid="false"
   inkscape:zoom="2.6222222"
   inkscape:cx="45.381356"
   inkscape:cy="45"
   inkscape:window-x="-8"
   inkscape:window-y="-8"
   inkscape:window-maximized="1"
   inkscape:current-layer="Layer_1" />
<style
   type="text/css"
   id="style2">
	.st0{fill:transparent;}
	.st1{fill:#FFFFFF;}
	.st2{fill:none;}
	.st3{fill:#24AE4B;}
</style>
<circle
   class="st0"
   cx="45.2"
   cy="45.2"
   r="34.8"
   id="circle4" />
<g
   id="g18">
	<path
   class="st1"
   d="M42.6,32c0,0,0.1-0.1,0.1-0.1c0,0,0.1-0.1,0.1-0.1C42.8,31.8,42.7,31.9,42.6,32z"
   id="path6" />
	<path
   class="st1"
   d="M42,32.6c0,0,0.1-0.1,0.1-0.1c0,0,0.1-0.1,0.1-0.1C42.1,32.5,42,32.6,42,32.6z"
   id="path8" />
	<path
   class="st1"
   d="M48.7,36c0-0.6,0-1.2,0-1.7c-0.1-0.3-0.1-0.6-0.3-0.9c-0.1-0.3-0.3-0.6-0.5-0.8c0,0,0.1,0.1,0.1,0.1   c-0.1-0.1-0.1-0.2-0.2-0.2c0,0,0.1,0.1,0.1,0.1c-0.2-0.2-0.4-0.5-0.7-0.7c0,0,0.1,0.1,0.1,0.1c-0.1-0.1-0.2-0.1-0.2-0.2   c0,0,0.1,0.1,0.1,0.1c-0.3-0.2-0.5-0.3-0.8-0.5c-0.3-0.1-0.6-0.2-1-0.3c-0.3,0-0.7,0-1,0c-0.3,0.1-0.6,0.1-0.9,0.3   c-0.3,0.1-0.6,0.3-0.8,0.5c-0.2,0.2-0.5,0.4-0.7,0.7c-0.2,0.3-0.3,0.5-0.5,0.8c-0.1,0.3-0.2,0.6-0.3,0.9c0,0.3,0,0.5,0,0.8v3.3h7.4   V36z"
   id="path10" />
	<path
   class="st1"
   d="M45.1,23.4L45.1,23.4L45.1,23.4l-0.1-0.1v0.1L27.8,33c0,27.5,15.5,33.1,17.1,33.6v0c0,0,0,0,0.1,0   c0,0,0.1,0,0.1,0v0c1.6-0.5,17.1-6.2,17.1-33.6L45.1,23.4z M41.8,57.2l-0.6,0.6l-3.3,0v-0.5l0.3-0.3h2.4l0.1-0.1v-0.5l-0.1-0.1   h-2.2l-0.5-0.5v-1l0.6-0.6h3.3v0.5L41.5,55h-2.4l-0.1,0.1v0.5l0.1,0.1h2.2l0.5,0.5V57.2z M47.1,56.1l-0.6,0.6h-2.2v1h-1.1v-3.4h3.3   l0.6,0.6V56.1z M50.9,57.7h-1.7l-1.1-3.4h1.2l0.9,2.7l0.9-2.7h1.1L50.9,57.7z M53.9,50.6c0,0.2,0,0.4,0,0.5c0,1-0.6,1.8-1.5,2.1   c-0.3,0.1-0.6,0.1-0.9,0.1h-13c-0.6,0-1.3-0.2-1.7-0.7c-0.4-0.5-0.6-1-0.6-1.6v-9.3c0-0.8-0.1-1.6,0.3-2.3c0.4-0.7,1.1-1,1.9-1   c0.2,0,0.4,0,0.6,0h0.1v-3.2c0-0.7,0-1.5,0.3-2.2c0.2-0.6,0.4-1.1,0.8-1.6c0.4-0.6,0.8-1,1.4-1.4c0.9-0.7,2.1-1.1,3.3-1.2   c0.7,0,1.4,0.1,2,0.3c0.7,0.2,1.4,0.6,2,1.1c1,0.8,1.8,2.1,2,3.4c0.1,0.7,0.1,1.3,0.1,1.9v2.9h0.4c0.2,0,0.4,0,0.5,0   c1.1,0.1,2,1.1,2,2.2c0,0,0,0,0,0.1h0V50.6z"
   id="path12" />
	<polygon
   class="st1"
   points="44.3,55 44.3,56 45.8,56 46,55.8 46,55.2 45.8,55  "
   id="polygon14" />
	<polygon
   class="st1"
   points="43.4,44.7 43.2,44.6 43.2,43.6 43.4,43.4 48.5,43.4 49.1,42.9 49.1,41.9 46.2,41.9 46.2,40.9    43.8,40.9 43.8,41.9 42,41.9 40.8,43.1 40.8,45.4 41.8,46.4 46.6,46.4 46.8,46.6 46.8,47.6 46.6,47.8 41.5,47.8 40.9,48.3    40.9,49.4 43.8,49.4 43.8,50.4 46.2,50.4 46.2,49.4 48,49.4 49.2,48.1 49.2,45.8 48.2,44.7  "
   id="polygon16" />
</g>

</svg>