<?xml version="1.0" encoding="utf-8"?>
<!-- Generator: Adobe Illustrator 21.1.0, SVG Export Plug-In . SVG Version: 6.00 Build 0)  -->
<svg version="1.1" id="Layer_2" xmlns="http://www.w3.org/2000/svg" xmlns:xlink="http://www.w3.org/1999/xlink" x="0px" y="0px"
	 width="288.7px" height="97.1px" viewBox="0 0 288.7 97.1" style="enable-background:new 0 0 288.7 97.1;" xml:space="preserve">
<style type="text/css">
	.st0{fill:#FFFFFF;}
</style>
<g>
	<g>
		<g>
			<path class="st0" d="M57.3,87.7c-2,1.8-4.8,2.8-8.4,2.8c-3.7,0-6.6-0.9-8.7-2.6C38,86.1,37,83.2,37,79.4V60.9h3.8v18.5
				c0,2.6,0.7,4.6,2.1,5.9c1.4,1.3,3.4,2,5.9,2c2.5,0,4.3-0.7,5.6-2c1.3-1.3,1.9-3.3,1.9-5.9V60.9h3.8v18.5
				C60.2,83.1,59.2,85.9,57.3,87.7z"/>
			<path class="st0" d="M66.4,85.2c0.3,0.5,0.7,0.9,1.3,1.3s1.1,0.5,1.8,0.7c0.7,0.1,1.3,0.2,2,0.2c0.5,0,1.1,0,1.7-0.1
				c0.6-0.1,1.1-0.2,1.6-0.4c0.5-0.2,0.9-0.5,1.2-1s0.5-1,0.5-1.6c0-0.9-0.3-1.6-1-2C74.9,81.7,74,81.3,73,81s-2.1-0.5-3.3-0.8
				c-1.2-0.2-2.3-0.6-3.3-1s-1.9-1-2.5-1.8c-0.7-0.8-1-1.8-1-3.2c0-1.1,0.2-2,0.7-2.7c0.5-0.8,1.1-1.4,1.8-1.8
				c0.7-0.5,1.6-0.8,2.5-1.1c0.9-0.2,1.9-0.3,2.8-0.3c1.2,0,2.3,0.1,3.3,0.3c1,0.2,1.9,0.6,2.6,1.1c0.8,0.5,1.4,1.2,1.8,2
				c0.5,0.9,0.7,1.9,0.8,3.2h-3.4c-0.1-0.7-0.2-1.2-0.5-1.7c-0.3-0.4-0.7-0.8-1.1-1.1c-0.5-0.3-1-0.5-1.5-0.6
				c-0.6-0.1-1.1-0.2-1.7-0.2c-0.5,0-1,0-1.6,0.1s-1,0.2-1.4,0.4s-0.8,0.5-1.1,0.8c-0.3,0.3-0.4,0.8-0.4,1.3c0,0.6,0.2,1.1,0.6,1.5
				c0.4,0.4,1,0.7,1.6,1c0.6,0.3,1.4,0.5,2.2,0.6c0.8,0.2,1.6,0.4,2.4,0.5c0.9,0.2,1.7,0.4,2.5,0.7c0.8,0.3,1.6,0.6,2.2,1.1
				c0.6,0.4,1.1,1,1.5,1.7c0.4,0.7,0.6,1.5,0.6,2.5c0,1.3-0.3,2.3-0.8,3.2c-0.5,0.8-1.2,1.5-2.1,2c-0.9,0.5-1.8,0.9-2.9,1.1
				c-1.1,0.2-2.1,0.3-3.2,0.3c-1.2,0-2.3-0.1-3.3-0.4c-1.1-0.2-2-0.6-2.8-1.2c-0.8-0.6-1.5-1.3-1.9-2.2c-0.5-0.9-0.8-2-0.8-3.3h3.4
				C65.9,84,66.1,84.6,66.4,85.2z"/>
			<path class="st0" d="M96.8,88.5c-1.6,1.2-3.5,1.8-5.9,1.8c-1.7,0-3.1-0.3-4.4-0.8c-1.2-0.5-2.3-1.3-3.1-2.3
				c-0.8-1-1.5-2.1-1.9-3.5c-0.4-1.3-0.7-2.8-0.7-4.4c0-1.6,0.2-3,0.7-4.4c0.5-1.3,1.2-2.5,2-3.4s1.9-1.7,3.1-2.3
				c1.2-0.5,2.5-0.8,3.9-0.8c1.9,0,3.4,0.4,4.6,1.2c1.2,0.8,2.2,1.7,3,2.9c0.7,1.2,1.3,2.5,1.5,3.9c0.3,1.4,0.4,2.7,0.3,4H84.5
				c0,0.9,0.1,1.8,0.3,2.6c0.2,0.8,0.6,1.6,1.2,2.2s1.2,1.1,2.1,1.5c0.8,0.4,1.8,0.6,3,0.6c1.5,0,2.7-0.3,3.6-1
				c0.9-0.7,1.5-1.7,1.8-3.1h3.4C99.4,85.5,98.4,87.3,96.8,88.5z M96,75.1c-0.3-0.7-0.7-1.4-1.3-1.9c-0.5-0.5-1.1-0.9-1.9-1.3
				c-0.7-0.3-1.5-0.5-2.4-0.5c-0.9,0-1.7,0.2-2.4,0.5c-0.7,0.3-1.3,0.7-1.8,1.3c-0.5,0.5-0.9,1.2-1.2,1.9c-0.3,0.7-0.5,1.5-0.5,2.3
				h12C96.5,76.6,96.3,75.8,96,75.1z"/>
			<path class="st0" d="M110.8,60.9l6.8,19.9h0.1l6.4-19.9h8.9v28.9h-5.9V69.4H127l-7.1,20.5H115l-7.1-20.3h-0.1v20.3h-5.9V60.9
				L110.8,60.9L110.8,60.9z"/>
			<path class="st0" d="M143.7,96.1c-1.1,0.7-2.6,1.1-4.6,1.1c-0.6,0-1.2,0-1.8-0.1c-0.6,0-1.2-0.1-1.8-0.1v-4.7
				c0.5,0.1,1.1,0.1,1.7,0.2c0.6,0.1,1.1,0.1,1.7,0c0.8-0.1,1.3-0.4,1.7-0.9s0.5-1.1,0.5-1.7c0-0.5-0.1-0.9-0.2-1.3l-7.3-19.6h6.1
				l4.7,14.3h0.1l4.6-14.3h5.9l-8.7,23.5C145.7,94.1,144.8,95.3,143.7,96.1z"/>
			<path class="st0" d="M174.9,60.9v3.2h-15.1v9.2H173v3.2h-13.3v13.2h-3.8V60.9L174.9,60.9L174.9,60.9z"/>
			<path class="st0" d="M190.6,89.8v-3.3h-0.1c-0.7,1.3-1.7,2.2-2.8,2.9s-2.5,0.9-4,0.9c-1.4,0-2.5-0.2-3.4-0.5
				c-0.9-0.4-1.7-0.9-2.2-1.6c-0.6-0.7-1-1.5-1.2-2.4s-0.3-2-0.3-3.1V68.9h3.4v14.2c0,1.3,0.4,2.3,1.1,3.1c0.8,0.8,1.8,1.1,3.1,1.1
				c1.1,0,2-0.2,2.7-0.5c0.8-0.3,1.4-0.8,1.9-1.4c0.5-0.6,0.9-1.3,1.2-2.1c0.3-0.8,0.4-1.7,0.4-2.6V68.9h3.4v20.9L190.6,89.8
				L190.6,89.8z"/>
			<path class="st0" d="M200.3,68.9v3.3h0.1c1.4-2.5,3.7-3.8,6.8-3.8c1.4,0,2.5,0.2,3.4,0.6s1.7,0.9,2.2,1.6c0.6,0.7,1,1.5,1.2,2.4
				s0.3,2,0.3,3.1v13.8h-3.4V75.7c0-1.3-0.4-2.3-1.1-3.1c-0.8-0.8-1.8-1.1-3.1-1.1c-1.1,0-2,0.2-2.7,0.5s-1.4,0.8-1.9,1.4
				c-0.5,0.6-0.9,1.3-1.2,2.1c-0.3,0.8-0.4,1.7-0.4,2.6v11.8H197V68.9H200.3z"/>
			<path class="st0" d="M232.8,89.8V87h-0.1c-0.6,1.2-1.5,2-2.7,2.5c-1.2,0.5-2.5,0.8-4,0.8c-1.6,0-3-0.3-4.2-0.9
				c-1.2-0.6-2.2-1.4-3-2.4c-0.8-1-1.4-2.2-1.8-3.5c-0.4-1.3-0.6-2.7-0.6-4.2s0.2-2.9,0.6-4.2c0.4-1.3,1-2.5,1.8-3.5
				c0.8-1,1.8-1.8,3-2.3c1.2-0.6,2.6-0.9,4.2-0.9c0.5,0,1.1,0.1,1.7,0.2c0.6,0.1,1.2,0.3,1.9,0.5c0.6,0.3,1.2,0.6,1.8,1
				c0.6,0.4,1,0.9,1.4,1.6h0.1V60.9h3.4v28.9L232.8,89.8L232.8,89.8z M220.4,82.4c0.3,0.9,0.6,1.8,1.2,2.5c0.5,0.7,1.2,1.3,2,1.7
				c0.8,0.4,1.8,0.6,2.9,0.6c1.2,0,2.1-0.2,3-0.7c0.8-0.5,1.5-1.1,2-1.8c0.5-0.7,0.9-1.6,1.1-2.5c0.2-0.9,0.3-1.9,0.3-2.9
				c0-1-0.1-2-0.4-3c-0.2-1-0.6-1.8-1.2-2.5s-1.2-1.3-2-1.8s-1.8-0.7-3-0.7c-1.2,0-2.1,0.2-3,0.7c-0.8,0.5-1.5,1.1-1.9,1.8
				c-0.5,0.8-0.8,1.6-1.1,2.6c-0.2,1-0.3,2-0.3,3C220,80.5,220.1,81.5,220.4,82.4z"/>
			<path class="st0" d="M242.1,85.2c0.3,0.5,0.7,0.9,1.3,1.3c0.5,0.3,1.1,0.5,1.8,0.7c0.7,0.1,1.3,0.2,2,0.2c0.5,0,1.1,0,1.7-0.1
				c0.6-0.1,1.1-0.2,1.6-0.4c0.5-0.2,0.9-0.5,1.2-1c0.3-0.4,0.5-1,0.5-1.6c0-0.9-0.3-1.6-1-2c-0.7-0.5-1.5-0.8-2.5-1.1
				s-2.1-0.5-3.3-0.8c-1.2-0.2-2.3-0.6-3.3-1s-1.9-1-2.5-1.8c-0.7-0.8-1-1.8-1-3.2c0-1.1,0.2-2,0.7-2.7c0.5-0.8,1.1-1.4,1.8-1.8
				c0.7-0.5,1.6-0.8,2.5-1.1c0.9-0.2,1.9-0.3,2.8-0.3c1.2,0,2.3,0.1,3.3,0.3c1,0.2,1.9,0.6,2.6,1.1c0.8,0.5,1.4,1.2,1.8,2
				s0.7,1.9,0.8,3.2h-3.4c-0.1-0.7-0.2-1.2-0.5-1.7s-0.7-0.8-1.1-1.1c-0.5-0.3-1-0.5-1.5-0.6c-0.6-0.1-1.1-0.2-1.7-0.2
				c-0.5,0-1,0-1.6,0.1c-0.5,0.1-1,0.2-1.4,0.4s-0.8,0.5-1.1,0.8c-0.3,0.3-0.4,0.8-0.4,1.3c0,0.6,0.2,1.1,0.6,1.5
				c0.4,0.4,1,0.7,1.6,1c0.6,0.3,1.4,0.5,2.2,0.6s1.6,0.4,2.4,0.5c0.9,0.2,1.7,0.4,2.5,0.7c0.8,0.3,1.6,0.6,2.2,1.1
				c0.6,0.4,1.1,1,1.5,1.7c0.4,0.7,0.6,1.5,0.6,2.5c0,1.3-0.3,2.3-0.8,3.2c-0.5,0.8-1.2,1.5-2.1,2c-0.9,0.5-1.8,0.9-2.9,1.1
				c-1.1,0.2-2.1,0.3-3.2,0.3c-1.2,0-2.3-0.1-3.3-0.4c-1.1-0.2-2-0.6-2.8-1.2c-0.8-0.6-1.5-1.3-1.9-2.2c-0.5-0.9-0.8-2-0.8-3.3h3.4
				C241.6,84,241.8,84.6,242.1,85.2z"/>
		</g>
		<g>
			<g>
				<path class="st0" d="M255.6,61.5V67h-1.1v-5.5h-2v-0.8h5v0.8H255.6z M264.7,67v-5.3h0l-2.1,5.3h-0.7l-2-5.3h0V67h-1v-6.3h1.6
					l1.9,4.8l1.9-4.8h1.6V67H264.7z"/>
			</g>
		</g>
	</g>
	<path class="st0" d="M288.7,77.7c0,0-31-64.3-135-64.3S0,88.7,0,88.7V68C0,68,43,0,152.3,0S288.7,77.7,288.7,77.7z"/>
</g>
</svg>
