<?xml version="1.0" encoding="UTF-8"?>
<svg width="545px" height="96px" viewBox="0 0 545 96" version="1.1" xmlns="http://www.w3.org/2000/svg" xmlns:xlink="http://www.w3.org/1999/xlink">
    <!-- Generator: Sketch 45.2 (43514) - http://www.bohemiancoding.com/sketch -->
    <title>PaySafe</title>
    <desc>Created with Sketch.</desc>
    <defs></defs>
    <g id="Page-1" stroke="none" stroke-width="1" fill="none" fill-rule="evenodd">
        <g id="PaySafe" fill-rule="nonzero" fill="#FFFFFF">
            <path d="M3.8,31.8 C5.9,29.4 8.7,28.3 11.8,28.3 C22.1,28.2 32.5,28.2 42.8,28.3 C49.2,28.4 53.4,32.1 53.6,38.5 C53.9,48.3 53.9,58.2 53.6,68 C53.4,74.2 49.9,77.8 43.7,78.2 C33,78.9 22.3,78.7 11.6,78.3 C4.9,78.1 1.1,73.9 1,67.5 C0.9,58.2 1,48.8 1,39.4 C2.5,39.9 2.3,41.2 2.2,42.3 C2,49.3 2.8,56.3 1.8,63.2 C1.7,64 2.3,64.9 2,65.4 C2.5,56.9 2.8,48 2.1,39.2 C1.8,35.8 3.3,34.4 7,34.4 C7.4,34.4 7.1,33.9 7.2,34.3 C7.2,34.4 7.1,34.4 7,34.4 C5.9,34.3 6,34.3 5.4,32.8 C5.2,32.3 4,32.7 3.8,31.8 Z" id="Shape"></path>
            <path d="M170.1,30.1 C170.1,28.6 171.2,29 172,29 C174.5,29 177.1,29.1 179.6,29 C181.4,28.9 181.9,29.6 181.9,31.3 C181.8,40.9 181.9,50.4 181.9,60 C181.9,64.3 182.5,64.9 186.9,64.9 C188.6,64.9 190.2,64.9 191.9,64.9 C196.2,64.9 197.1,64 197.1,59.8 C197.1,50.5 197.2,41.3 197.1,32 C197.1,29.7 197.6,28.8 200,29.1 C202.9,29.4 206.6,27.9 208.4,29.8 C210.1,31.5 208.9,35.2 208.9,38 C208.9,52.3 208.9,66.7 208.9,81 C208.9,83.6 208.6,86.1 207.7,88.4 C206,92.6 202.9,95.1 198.3,95.1 C189.6,95.2 180.9,95.1 172.3,95.2 C170.6,95.2 170.1,94.5 170.2,93 C170.3,90.5 170.3,87.9 170.2,85.4 C170.1,83.4 170.8,82.9 172.7,82.9 C179.2,83 185.8,82.9 192.3,82.9 C193.6,82.9 194.8,82.9 195.9,82 C197.2,81 197.4,79.5 197.1,78 C196.8,76.5 195.4,77.1 194.4,77 C190,76.9 185.6,77 181.2,77 C175.2,76.9 171,73 170.4,67 C171,65.9 170.4,64.7 170.9,63.6 C171,52.7 171,41.9 170.9,31 C170.6,30.6 170.4,30.3 170.1,30.1 Z" id="Shape"></path>
            <path d="M232.3,77 C228.3,77 224.3,76.9 220.3,77 C218.2,77.1 217.6,76.3 217.7,74.3 C217.8,72.1 217.9,69.8 217.7,67.6 C217.5,65.1 218.5,64.7 220.7,64.7 C226.6,64.8 232.6,64.7 238.5,64.7 C240.5,64.7 242,64 241.8,61.7 C241.6,60 240.7,59.1 238.9,59.2 C236,59.3 233.1,59.3 230.1,59.2 C222.6,59.1 218,54.4 218,46.9 C218,44.3 218,41.6 218,39 C218.1,33.5 220.9,30.2 226.3,29.4 C233.7,28.3 241.1,29.1 248.5,28.9 C253.8,28.8 253.8,28.9 253.8,34.3 C253.8,41.2 253.8,41.2 246.8,41.2 C242.3,41.2 237.8,41.2 233.3,41.2 C231.4,41.2 229.5,41.4 229.6,44.1 C229.7,46.6 231.5,46.8 233.3,46.8 C236.7,46.9 240.1,46.8 243.5,46.8 C249,46.9 253.5,51.2 253.7,56.8 C253.8,60.1 253.8,63.4 253.7,66.7 C253.5,72.2 248.6,76.7 243.2,76.8 C239.7,77 236,77 232.3,77 Z" id="Shape"></path>
            <path d="M310.7,48.1 C310.7,39.8 310.7,31.5 310.7,23.2 C310.7,16.5 314.8,11.9 321.5,11.4 C324.1,11.2 326.8,11.4 329.4,11.3 C330.7,11.3 331.1,11.7 331.1,13 C331,15.7 331,18.5 331.1,21.2 C331.2,22.9 330.4,23.1 329,23.1 C327.7,23.1 326.4,23 325.2,23.3 C322.9,23.8 322.6,25.7 322.7,27.7 C322.8,29.8 324.6,29 325.6,29 C331.1,29.1 331.1,29.1 331,34.6 C331,36.7 331.9,39.3 330.6,40.8 C329.4,42.2 326.7,41.3 324.7,41.3 C322.6,41.3 322.6,42.4 322.6,43.9 C322.6,53.9 322.5,64 322.7,74 C322.7,76.4 322.1,77.3 319.6,77.1 C317.5,76.9 315.3,76.9 313.2,77.1 C311.1,77.3 310.6,76.5 310.6,74.5 C310.8,65.6 310.7,56.8 310.7,48.1 Z" id="Shape"></path>
            <path d="M2.2,28.5 C1.9,18.8 5.2,10.9 13.2,5.5 C21.8,-0.3 30.8,-0.9 39.9,4.4 C48.9,9.6 52.8,17.8 52.6,28.4 C50.5,27.4 48.8,26.1 46.7,25.7 C45.6,25.5 45.6,24.5 45.3,23.7 C42.2,15.4 35.7,10.6 27.5,10.6 C19.2,10.6 12.6,15.4 9.7,23.6 C9.3,24.8 8.7,25.5 7.5,26 C5.7,26.6 4.2,27.5 2.2,28.5 Z" id="Shape"></path>
            <path d="M387.8,52.8 C387.8,47.9 387.5,43 387.9,38.2 C388.3,33 392.4,29.2 397.6,29 C403.9,28.8 410.3,28.9 416.6,28.8 C417.7,28.8 418.4,29 418.4,30.4 C418.4,31.9 417.5,31.8 416.5,31.8 C410.8,31.8 405.2,31.7 399.5,31.8 C393.9,31.9 390.9,34.4 390.7,39.8 C390.4,48.3 390.1,56.8 390.8,65.2 C391.3,71.1 394.5,73.9 400.4,74 C405.7,74.1 410.9,74 416.2,74.1 C417.3,74.1 418.7,73.7 418.7,75.6 C418.7,77.6 417.2,77 416.1,77 C410.8,77.1 405.6,77.1 400.3,77 C392.1,76.9 387.8,72.5 387.7,64.2 C387.7,60.4 387.8,56.6 387.8,52.8 C387.8,52.8 387.8,52.8 387.8,52.8 Z" id="Shape"></path>
            <path d="M481.6,57.5 C481.6,52 481.5,46.6 481.6,41.1 C481.7,32.4 488.1,27.2 496.6,28.7 C497.6,28.9 497.9,29.3 497.9,30.2 C497.9,31.1 497.7,31.7 496.6,31.7 C496.3,31.7 496,31.7 495.7,31.7 C486.6,31 484.2,36.7 484.4,43.5 C484.6,53.4 484.5,63.4 484.5,73.3 C484.5,73.9 484.5,74.5 484.5,75.1 C484.5,76.2 484.4,77 483,77 C481.5,77 481.6,76.1 481.6,75 C481.6,69.2 481.6,63.4 481.6,57.5 Z" id="Shape"></path>
            <path d="M3.8,31.8 C4.9,32.9 5.9,31.7 6.9,31.4 C7,32.7 5.4,32.7 5.3,33.7 C6.6,35.3 7.6,32.5 8.9,33.6 C8.7,34.4 7.9,34.4 7.4,34.7 C6.2,35.5 3.4,33.4 3.7,36.5 C3.8,38 3,39 3.1,40.6 C3.6,47.5 3.5,54.4 3.2,61.3 C3.1,63 3,65.2 1.6,67.6 C1.6,58.8 1.6,50.8 1.6,42.8 C1.6,41.7 2,40.4 1.1,39.4 C1.1,36.6 1.8,33.9 3.8,31.8 Z" id="Shape"></path>
            <path d="M170.8,64 C170.7,65 171.2,66.1 170.2,66.9 C169.8,54.6 170,42.3 170.1,30 C170.3,30 170.5,30 170.7,30 C171.3,31.2 171,32.5 171,33.7 C171,42.8 171,51.9 171,61.1 C171,62.1 171.3,63.1 170.8,64 Z" id="Shape"></path>
            <path d="M5,39.4 C5,48.5 5.6,57.7 4.1,66.8 C4.1,57.7 4.1,48.5 4.1,39.4 C4.4,39.4 4.7,39.4 5,39.4 Z" id="Shape"></path>
            <path d="M170.8,64 C170.8,52.7 170.8,41.4 170.8,30 C171.5,30.6 171.4,31.4 171.4,32.1 C171.4,42 171.4,51.9 171.4,61.8 C171.4,62.6 171.5,63.4 170.8,64 Z" id="Shape"></path>
            <path d="M112.1,40.9 C112,32.9 108,29.1 100.1,28.9 C95.6,28.8 91.1,28.9 86.6,28.9 C76.9,28.9 73,32.8 73,42.6 C73,50.6 73,58.6 73,66.6 C73,75.2 73.1,83.8 73,92.3 C73,94.2 73.4,95.2 75.5,95 C77.7,94.8 80,94.8 82.2,95 C84.4,95.2 85.1,94.5 85.1,92.2 C84.9,87.9 85.1,83.6 85,79.3 C84.9,77.4 85.5,76.8 87.5,76.8 C92,76.9 96.5,76.9 101,76.8 C107.1,76.7 112,71.9 112.1,65.9 C112.2,57.7 112.3,49.3 112.1,40.9 Z M96.9,64.7 C94.1,64.8 91.2,64.7 88.4,64.7 C86.3,64.7 85.2,63.4 85.2,61.3 C85.2,55.7 85.2,50.2 85.2,44.6 C85.2,42.3 86.6,41.3 88.7,41.2 C91.4,41.1 94.2,41.2 96.9,41.2 C99.1,41.2 100.1,42.3 100.1,44.4 C100.1,47.2 100.1,50.1 100.1,52.9 C100.1,52.9 100.1,52.9 100.1,52.9 C100.1,55.6 100.1,58.4 100.1,61.1 C100.2,63.4 99.1,64.7 96.9,64.7 Z" id="Shape"></path>
            <path d="M301.3,53 C301.3,48.8 301.3,44.6 301.3,40.4 C301.3,40.3 301.3,40.2 301.3,40.1 C301.2,33.8 298.2,30.1 292,29.4 C282.7,28.3 273.3,29.2 264,29 C262.7,29 262.6,29.8 262.6,30.7 C262.6,32.9 262.6,35.2 262.6,37.4 C262.6,41.8 262.1,41.2 266.5,41.2 C273,41.2 279.6,41.2 286.1,41.2 C287.8,41.2 289.5,41.6 289.4,43.6 C289.3,45.7 287.4,44.7 286.4,44.7 C281.3,44.9 276.3,44.4 271.2,45.1 C266.2,45.8 263.3,48.7 262.6,53.6 C261.9,57.9 262.1,62.2 262.3,66.4 C262.7,73.4 266.4,76.7 273.4,76.8 C278.9,76.9 284.3,76.8 289.8,76.8 C296.9,76.8 301.2,72.6 301.2,65.4 C301.3,61.3 301.3,57.2 301.3,53 Z M285.8,64.8 C283.1,64.7 280.3,64.8 277.6,64.8 C274.4,64.8 274.2,62.7 274.2,60.2 C274.2,57.8 274.7,56.2 277.6,56.4 C279,56.5 280.3,56.4 281.7,56.4 C282.8,56.4 283.8,56.4 284.9,56.4 C288.9,56.4 289.4,57.1 289.5,61 C289.6,63.7 288.5,64.9 285.8,64.8 Z" id="Shape"></path>
            <path d="M160.5,41.5 C160.5,33.9 157.6,30 150.5,29.3 C141.4,28.4 132.2,29.1 123,29 C121.8,29 121.6,29.7 121.6,30.7 C121.6,33.6 121.7,36.6 121.6,39.5 C121.6,40.9 122.1,41.4 123.5,41.3 C126.8,41.2 130.1,41.3 133.4,41.3 C137.5,41.3 141.6,41.3 145.7,41.3 C147.2,41.3 148.5,41.8 148.5,43.6 C148.5,45.6 146.8,44.8 145.8,44.8 C140.8,45 135.9,44.6 130.9,45.1 C125,45.8 121.8,49.2 121.5,55.1 C121.4,58.6 121.4,62.1 121.4,65.6 C121.5,73.2 125.1,76.8 132.8,76.9 C138.3,77 143.7,76.9 149.2,76.9 C155.6,76.9 159.8,73.2 160.1,66.8 C160.4,62.2 160.2,57.6 160.2,53.1 C160.3,53.1 160.3,53.1 160.4,53.1 C160.5,49.3 160.5,45.4 160.5,41.5 Z M145.1,64.8 C143.8,64.7 142.6,64.8 141.3,64.8 C140.2,64.8 139.2,64.8 138.1,64.8 C133.9,64.8 133.5,64.2 133.4,60 C133.4,57.4 134.3,56.2 137,56.3 C139.6,56.4 142.3,56.3 144.9,56.3 C148,56.4 148.5,57 148.6,60.5 C148.7,63.2 148.2,65 145.1,64.8 Z" id="Shape"></path>
            <path d="M373.8,64.7 C367,64.8 360.2,64.7 353.3,64.8 C351.5,64.8 350.6,63.9 350.1,62.4 C349.5,60.5 351.2,60.4 352.2,59.9 C357.5,57.8 363,55.9 368.2,53.5 C371.1,52.2 375.4,52.5 376.5,49.1 C377.4,46 376.6,42.3 376.6,38.9 C376.6,38.7 376.5,38.5 376.5,38.3 C375.5,32.3 373,29.6 367,29 C360.6,28.4 354.1,28.4 347.7,29 C340.8,29.7 338.1,33.1 338,40.1 C337.9,44.3 338,48.5 338,52.7 C338,52.7 338.1,52.7 338.1,52.7 C338.1,57.4 338,62.1 338.1,66.7 C338.3,72.4 342.3,76.5 348,76.6 C356.9,76.8 365.7,76.7 374.6,76.7 C376.1,76.7 376.7,76.2 376.6,74.7 C376.5,72.3 376.4,69.8 376.6,67.4 C376.9,65.3 376.1,64.7 373.8,64.7 Z M349.9,45.9 C349.9,42.6 351,41.4 354.4,41.3 C356.9,41.3 359.4,41.3 362,41.3 C363.1,41.3 364.3,41.7 364.4,42.9 C364.5,44 363.2,44 362.5,44.3 C359.3,45.5 356.2,46.7 353,47.9 C349.8,49.1 349.8,49.1 349.9,45.9 Z" id="Shape"></path>
            <path d="M544.8,40.2 C544.8,31.8 544.8,23.4 544.8,15.1 C544.8,14.2 545.1,13.1 543.5,13.1 C541.8,13 541.9,14 541.9,15.2 C541.9,18.8 541.7,22.4 542,26 C542.1,28.4 541.2,28.9 539,28.9 C531.9,28.8 524.8,28.8 517.7,29 C511.2,29.2 507,32.8 506.2,39.2 C505.1,48.3 505.3,57.5 506,66.6 C506.5,73.6 510.7,76.9 517.7,77.1 C522.6,77.2 527.4,77.3 532.3,77.1 C540.5,76.8 544.7,72.3 544.8,64.1 C544.9,56 544.8,48.1 544.8,40.2 C544.8,40.2 544.8,40.2 544.8,40.2 Z M541.9,49.2 C541.9,53.9 541.9,58.6 541.9,63.2 C541.9,69.6 538.6,73.4 532.2,73.8 C527.2,74.1 522,74.1 517,73.8 C511.2,73.4 508.7,70.3 508.6,64.6 C508.6,57.1 508.5,49.6 508.6,42.1 C508.6,35.9 512.6,31.8 518.8,31.8 C525.6,31.7 532.5,31.9 539.3,31.7 C541.3,31.7 542,32.1 542,34.3 C541.8,39.3 541.9,44.2 541.9,49.2 Z" id="Shape"></path>
            <path d="M467.6,53.7 C467.6,49.3 467.7,44.9 467.6,40.5 C467.3,33.4 462.8,28.9 455.7,28.8 C447.6,28.7 439.5,28.7 431.4,28.7 C430.4,28.7 429.1,28.2 429,30 C428.9,31.8 430.2,31.7 431.4,31.7 C438.9,31.7 446.4,31.7 453.9,31.7 C461.3,31.7 463.9,34.1 464.9,41.6 C465.2,44.2 464.4,44.8 462,44.7 C455.2,44.6 448.4,44.6 441.5,44.7 C434,44.8 430.1,48.1 429.2,55.6 C428.8,59.2 428.8,62.8 429.2,66.4 C429.9,73 434.4,76.9 441,77 C446.4,77.1 451.7,77.1 457.1,77 C463,76.9 467.4,72.5 467.6,66.6 C467.7,62.3 467.6,58 467.6,53.7 C467.6,53.7 467.6,53.7 467.6,53.7 Z M464.7,65.8 C464.5,71.1 461.7,73.8 456.4,74 C453.9,74.1 451.3,74 448.8,74 C446.2,74 443.5,74.1 440.9,74 C435.9,73.8 432.7,70.9 432.1,66 C431.7,62.5 431.6,59 432.2,55.5 C433,50.6 435.9,47.8 440.8,47.7 C448.1,47.6 455.4,47.7 462.7,47.6 C464.2,47.6 464.7,48.2 464.7,49.7 C464.7,55.1 464.8,60.5 464.7,65.8 Z" id="Shape"></path>
        </g>
    </g>
</svg>