<?xml version="1.0" encoding="UTF-8"?>
<svg width="31px" height="31px" viewBox="0 0 31 31" version="1.1" xmlns="http://www.w3.org/2000/svg" xmlns:xlink="http://www.w3.org/1999/xlink">
    <!-- Generator: Sketch 45.2 (43514) - http://www.bohemiancoding.com/sketch -->
    <title>MoneyGram</title>
    <desc>Created with Sketch.</desc>
    <defs></defs>
    <g id="Desktop" stroke="none" stroke-width="1" fill="none" fill-rule="evenodd" opacity="0.495867301">
        <g id="01_BetOnline_Desktop_HomePage" transform="translate(-1188.000000, -1951.000000)" fill-rule="nonzero" fill="#000000">
            <g id="Group-5" transform="translate(219.000000, 1948.000000)">
                <g id="MoneyGram" transform="translate(969.000000, 3.000000)">
                    <path d="M15.1833673,0 C14.6935813,0.0612232553 13.97931,0.244893021 13.3670774,0.448970539 C10.8977394,1.30609611 8.38758597,3.06116276 6.61211157,5.42846197 C5.1631612,7.34679063 4.08155035,9.57123558 4.08155035,12.1426123 C4.08155035,15.8772309 7.02026661,17.5302588 9.63245883,17.5302588 C12.2650588,17.5302588 15.4282603,16.2037549 17.9996371,13.7548247 C18.0608603,13.6936014 18.1220836,13.6323782 18.1833068,13.5915627 L14.4486882,13.5915627 C13.6936014,13.5915627 13.1629999,13.0201456 13.2650386,12.2650588 C13.2650386,12.2242433 13.3058541,11.9793503 13.3262619,11.9385348 C13.4691162,11.1426325 14.2037952,10.7140697 14.9996975,10.7140697 L22.1424107,10.7140697 C22.938313,10.7140697 23.4485068,11.3671177 23.3056525,12.1630201 L22.0403719,19.3057332 C21.8975176,20.1016355 21.3465083,20.7546835 20.550606,20.7546835 C20.5097905,20.7546835 20.2648975,20.7546835 20.2444897,20.7546835 C19.4894029,20.7546835 18.9792091,20.0812277 19.1220634,19.3057332 C19.2649177,18.5098308 19.7138882,15.9588619 19.7138882,15.9588619 C16.1833471,19.2036944 12.0201658,20.9587611 8.42840148,20.9791688 C6.08151003,20.9995766 0.551009298,20.0200045 0.551009298,13.1629999 C0.551009298,11.7956805 0.795902319,10.3467301 1.34691162,8.87737202 C0.489786042,10.7752929 0,12.8772914 0,15.1017363 C0,23.4485068 6.75496583,30.2034726 15.1017363,30.2034726 C23.4485068,30.2034726 30.2034726,23.4485068 30.2034726,15.1017363 C30.2238804,6.79578134 23.4893223,0.0408155035 15.1833673,0 Z" id="Shape"></path>
                </g>
            </g>
        </g>
    </g>
</svg>