<?xml version="1.0" encoding="UTF-8"?>
<svg width="14px" height="18px" viewBox="0 0 14 18" version="1.1" xmlns="http://www.w3.org/2000/svg" xmlns:xlink="http://www.w3.org/1999/xlink">
    <!-- Generator: Sketch 53.1 (72631) - https://sketchapp.com -->
    <title>np_list_1808291_000000</title>
    <desc>Created with Sketch.</desc>
    <g id="Update-For-Signoff" stroke="none" stroke-width="1" fill="none" fill-rule="evenodd">
        <g id="1.0_BetOnline_MyAccountAmendments_Promotions" transform="translate(-80.000000, -578.000000)" fill="#EE3536" fill-rule="nonzero">
            <g id="np_list_1808291_000000" transform="translate(80.000000, 578.000000)">
                <path d="M0,0 L0,18 L13.4302326,18 L13.4302326,3.34883721 L10.5813953,3.34883721 C10.3612209,3.3463844 10.1760058,3.13382093 10.1744186,2.93023256 L10.1744186,0 L0,0 Z M10.9883721,0.418604651 L10.9883721,2.51162791 L13.0232558,2.51162791 L10.9883721,0.418604651 Z M1.83139535,3.97674419 L3.45930233,3.97674419 L3.45930233,5.65116279 L1.83139535,5.65116279 L1.83139535,3.97674419 Z M5.29069767,4.39534884 L11.1918605,4.39534884 C11.4168169,4.39534884 11.5988372,4.58257605 11.5988372,4.81395349 C11.5988372,5.04533093 11.4168108,5.23255814 11.1918605,5.23255814 L5.29069767,5.23255814 C5.06574128,5.23255814 4.88372093,5.04533093 4.88372093,4.81395349 C4.88372093,4.58257605 5.06574738,4.39534884 5.29069767,4.39534884 Z M1.83139535,7.3255814 L3.45930233,7.3255814 L3.45930233,9 L1.83139535,9 L1.83139535,7.3255814 Z M5.29069767,7.74418605 L11.1918605,7.74418605 C11.4168169,7.74418605 11.5988372,7.93141326 11.5988372,8.1627907 C11.5988372,8.39416814 11.4168108,8.58139535 11.1918605,8.58139535 L5.29069767,8.58139535 C5.06574128,8.58139535 4.88372093,8.39416814 4.88372093,8.1627907 C4.88372093,7.93141326 5.06574738,7.74418605 5.29069767,7.74418605 Z M1.83139535,10.6744186 L3.45930233,10.6744186 L3.45930233,12.3488372 L1.83139535,12.3488372 L1.83139535,10.6744186 Z M5.29069767,11.0930233 L11.1918605,11.0930233 C11.4168169,11.0930233 11.5988372,11.2802505 11.5988372,11.5116279 C11.5988372,11.7430053 11.4168108,11.9302326 11.1918605,11.9302326 L5.29069767,11.9302326 C5.06574128,11.9302326 4.88372093,11.7430053 4.88372093,11.5116279 C4.88372093,11.2802505 5.06574738,11.0930233 5.29069767,11.0930233 Z M1.83139535,14.0232558 L3.45930233,14.0232558 L3.45930233,15.6976744 L1.83139535,15.6976744 L1.83139535,14.0232558 Z M5.29069767,14.4418605 L11.1918605,14.4418605 C11.4168169,14.4418605 11.5988372,14.6290877 11.5988372,14.8604651 C11.5988372,15.0918426 11.4168108,15.2790698 11.1918605,15.2790698 L5.29069767,15.2790698 C5.06574128,15.2790698 4.88372093,15.0918426 4.88372093,14.8604651 C4.88372093,14.6290877 5.06574738,14.4418605 5.29069767,14.4418605 Z" id="Shape"></path>
            </g>
        </g>
    </g>
</svg>