<?xml version="1.0" encoding="UTF-8"?>
<svg width="20px" height="20px" viewBox="0 0 20 20" version="1.1" xmlns="http://www.w3.org/2000/svg" xmlns:xlink="http://www.w3.org/1999/xlink">
    <!-- Generator: Sketch 57.1 (83088) - https://sketch.com -->
    <title>Shape</title>
    <desc>Created with Sketch.</desc>
    <g id="Page-1" stroke="none" stroke-width="1" fill="none" fill-rule="evenodd">
        <g id="1.1_BetOnline_CashierWithdrawal-@2x" transform="translate(-1131.000000, -454.000000)" fill="#EE3536">
            <path d="M1141,459 C1138.2,459 1136,461.2 1136,464 C1136,466.8 1138.2,469 1141,469 C1143.8,469 1146,466.8 1146,464 C1146,461.2 1143.8,459 1141,459 L1141,459 Z M1141,454 C1135.5,454 1131,458.5 1131,464 C1131,469.5 1135.5,474 1141,474 C1146.5,474 1151,469.5 1151,464 C1151,458.5 1146.5,454 1141,454 L1141,454 Z M1141,472 C1136.6,472 1133,468.4 1133,464 C1133,459.6 1136.6,456 1141,456 C1145.4,456 1149,459.6 1149,464 C1149,468.4 1145.4,472 1141,472 L1141,472 Z" id="Shape"></path>
        </g>
    </g>
</svg>