<?xml version="1.0" encoding="UTF-8"?>
<svg width="176px" height="54px" viewBox="0 0 176 54" version="1.1" xmlns="http://www.w3.org/2000/svg" xmlns:xlink="http://www.w3.org/1999/xlink">
    <!-- Generator: Sketch 45.1 (43504) - http://www.bohemiancoding.com/sketch -->
    <title>Group</title>
    <desc>Created with Sketch.</desc>
    <defs></defs>
    <g id="Page-1" stroke="none" stroke-width="1" fill="none" fill-rule="evenodd">
        <g id="Visa_FullColour" transform="translate(-9.000000, -70.000000)" fill-rule="nonzero">
            <g id="Group" transform="translate(9.000000, 70.000000)">
                <polygon id="Shape" fill="#0058A0" points="62 53.2 70.9 1 85.2 1 76.3 53.2"></polygon>
                <path d="M127.9,2.2 C125.1,1.1 120.7,0 115.1,0 C101,0 91.1,7.1 91.1,17.2 C91,24.7 98.2,28.9 103.6,31.4 C109.1,34 111,35.6 111,37.9 C111,41.4 106.6,43 102.5,43 C96.8,43 93.8,42.2 89.1,40.3 L87.3,39.5 L85.3,51.2 C88.6,52.7 94.8,53.9 101.2,54 C116.2,54 125.9,47 126,36.2 C126.1,30.3 122.3,25.7 114.1,22 C109.1,19.6 106.1,18 106.1,15.5 C106.1,13.3 108.7,11 114.2,11 C118.9,10.9 122.2,11.9 124.8,13 L126.1,13.6 L127.9,2.2" id="Shape" fill="#0058A0"></path>
                <path d="M164.4,1 L153.4,1 C150,1 147.4,1.9 145.9,5.3 L124.8,53.1 L139.7,53.1 C139.7,53.1 142.1,46.7 142.7,45.3 C144.3,45.3 158.8,45.3 160.9,45.3 C161.3,47.1 162.6,53.1 162.6,53.1 L175.8,53.1 L164.4,1 L164.4,1 Z M146.8,34.7 C148,31.7 152.5,20.1 152.5,20.1 C152.4,20.2 153.7,17.1 154.4,15.1 L155.4,19.6 C155.4,19.6 158.1,32.1 158.7,34.7 L146.8,34.7 Z" id="Shape" fill="#0058A0"></path>
                <path d="M50.1,1 L36.2,36.6 L34.7,29.4 C32.1,21 24,12 15,7.5 L27.7,53.2 L42.8,53.2 L65.2,1 L50.1,1" id="Shape" fill="#0058A0"></path>
                <path d="M23.3,1 L0.3,1 L0.1,2.1 C18,6.4 29.8,16.8 34.7,29.4 L29.7,5.4 C28.8,2.1 26.3,1.1 23.3,1" id="Shape" fill="#FAA61A"></path>
            </g>
        </g>
    </g>
</svg>