<?xml version="1.0" encoding="UTF-8"?>
<svg xmlns="http://www.w3.org/2000/svg" width="352.277" height="83.326" viewBox="0 0 352.277 83.326"><g fill="#FFF"><path d="M60.71 0C27.149 0 0 15.903 0 35.645c0 8.363 4.911 16.04 13.233 22.209-4.093-5.072-6.412-10.693-6.412-16.725 0-20.427 26.603-37.016 59.345-37.016 21.146 0 39.7 6.855 50.205 17.274C106.958 8.774 85.539 0 60.71 0z"/><path d="M55.371 45.72c2.468 0 4.455-.52 5.961-1.56 1.746-1.15 2.619-2.819 2.619-5.009 0-4.05-1.325-7.8-3.974-11.249-2.65-3.449-6.052-6.048-10.206-7.8-2.89-1.203-6.112-1.806-9.664-1.806-7.166 0-13.051 2.327-17.658 6.979-4.606 4.653-6.91 10.264-6.91 16.832 0 6.624 2.408 12.193 7.226 16.709 4.817 4.516 10.838 6.774 18.064 6.774 3.853 0 7.556-.548 11.109-1.642 4.214-1.259 7.285-3.092 9.213-5.501 1.084-1.314 1.626-2.627 1.626-3.941 0-3.449-1.928-5.173-5.781-5.173-.844 0-3.012.726-6.503 2.176-3.493 1.451-6.473 2.176-8.942 2.176-2.951 0-5.45-.684-7.497-2.053-2.048-1.368-3.222-3.338-3.522-5.912h24.839zM33.694 31.31c1.746-1.45 3.913-2.176 6.503-2.176 2.529 0 4.681.739 6.458 2.217 1.775 1.478 2.755 3.367 2.935 5.666H30.352c.482-2.353 1.595-4.256 3.342-5.707zM72.079 58.694c4.455 4.544 10.356 6.815 17.703 6.815 4.395 0 8.068-.657 11.019-1.971 4.094-1.86 6.142-4.132 6.142-6.815 0-1.587-.528-2.942-1.581-4.064-1.054-1.121-2.424-1.683-4.109-1.683-1.145 0-2.59.329-4.335.985-1.747.657-3.644.985-5.69.985-3.493 0-6.202-1.094-8.129-3.284-1.687-1.971-2.529-4.598-2.529-7.882 0-3.12.813-5.72 2.439-7.8 1.806-2.299 4.365-3.449 7.677-3.449 2.046 0 3.988.343 5.826 1.026 1.836.685 3.326 1.026 4.471 1.026 1.746 0 3.191-.547 4.335-1.642 1.143-1.094 1.716-2.435 1.716-4.023 0-3.065-1.987-5.364-5.961-6.897-2.951-1.094-6.413-1.642-10.387-1.642-7.587 0-13.669 2.204-18.245 6.61-4.577 4.407-6.864 10.087-6.864 17.038-.001 6.731 2.167 12.288 6.502 16.667zM114.168 58.776c4.697 4.653 10.688 6.979 17.974 6.979 7.346 0 13.336-2.299 17.974-6.897 4.455-4.488 6.684-10.099 6.684-16.832 0-6.787-2.258-12.452-6.774-16.997-4.516-4.543-10.477-6.815-17.883-6.815-7.286 0-13.232 2.286-17.838 6.856-4.606 4.571-6.91 10.223-6.91 16.956-.001 6.678 2.257 12.262 6.773 16.75zm10.567-24.469c1.746-2.353 4.214-3.531 7.406-3.531 3.13 0 5.569 1.205 7.316 3.613 1.565 2.081 2.348 4.598 2.348 7.554 0 3.066-.754 5.612-2.258 7.636-1.747 2.409-4.215 3.613-7.406 3.613-3.132 0-5.57-1.203-7.316-3.613-1.566-2.08-2.348-4.625-2.348-7.636 0-3.01.752-5.555 2.258-7.636zM177.302 17.064h6.503c6.864 0 10.296 2.601 10.296 7.8 0 5.31-3.432 7.965-10.296 7.965h-6.503V17.064zm0 38.385V45.228h10.116c7.104 0 12.704-1.778 16.8-5.337 4.094-3.558 6.142-8.566 6.142-15.026 0-6.514-2.258-11.577-6.774-15.19-4.276-3.449-10.057-5.173-17.342-5.173h-13.548c-3.915 0-6.624.711-8.129 2.132-1.506 1.421-2.258 3.909-2.258 7.462v41.327c0 6.451 2.498 9.676 7.497 9.676 4.996-.001 7.496-3.217 7.496-9.65zM228.61 34.553c1.737-2.244 4.104-3.366 7.102-3.366 3.055 0 5.422 1.123 7.1 3.366 1.438 1.971 2.158 4.407 2.158 7.308 0 2.902-.72 5.365-2.158 7.39-1.678 2.299-4.045 3.449-7.1 3.449-3.057 0-5.455-1.149-7.192-3.449-1.499-2.024-2.247-4.488-2.247-7.39 0-2.845.779-5.282 2.337-7.308zm23.946 30.545c4.817 0 7.226-3.234 7.226-9.706V28.658c0-6.415-2.409-9.623-7.226-9.623-2.951 0-5.27 1.396-6.955 4.188-2.951-3.174-6.864-4.762-11.742-4.762-6.684 0-12.193 2.463-16.529 7.39-4.096 4.598-6.142 9.99-6.142 16.176 0 6.131 1.956 11.468 5.871 16.011 4.275 4.927 9.694 7.39 16.258 7.39 5.178 0 9.272-1.669 12.284-5.009 1.445 3.119 3.763 4.679 6.955 4.679zM293.651 24.29l-8.942 21.184-8.31-20.035c-.903-2.244-1.716-3.749-2.439-4.516-1.205-1.259-2.861-1.888-4.968-1.888-2.048 0-3.748.63-5.103 1.888-1.355 1.259-2.032 2.817-2.032 4.678 0 1.314.271 2.545.813 3.695l14.716 31.273-6.015 11.896c-.804 1.687-1.205 3.184-1.205 4.492 0 1.96.662 3.512 1.987 4.656 1.324 1.142 3.071 1.714 5.239 1.714 2.588 0 4.726-1.78 6.413-5.337l22.309-48.034c.782-1.696 1.174-3.229 1.174-4.598 0-4.215-2.409-6.322-7.226-6.322-2.768-.001-4.906 1.751-6.411 5.254zM343.174 52.125h-14.422l19.386-22.651c1.976-2.302 2.964-4.247 2.964-5.836 0-1.754-.754-2.864-2.258-3.329-1.506-.466-3.824-.699-6.955-.699h-23.393c-6.203 0-9.303 1.999-9.303 5.994 0 4.052 3.071 6.076 9.213 6.076h12.554l-20.05 23.565c-1.445 1.697-2.168 3.395-2.168 5.091 0 2.738 2.559 4.105 7.677 4.105h26.645c6.142 0 9.213-2.024 9.213-6.076 0-4.159-3.034-6.24-9.103-6.24z"/></g></svg>