<?xml version="1.0" encoding="UTF-8"?>
<svg width="285px" height="283px" viewBox="0 0 285 283" version="1.1" xmlns="http://www.w3.org/2000/svg" xmlns:xlink="http://www.w3.org/1999/xlink">
    <!-- Generator: Sketch 45.1 (43504) - http://www.bohemiancoding.com/sketch -->
    <title>icon-cardtype-amex</title>
    <desc>Created with Sketch.</desc>
    <defs>
        <radialGradient cx="17.5380818%" cy="17.4735336%" fx="17.5380818%" fy="17.4735336%" r="93.2921368%" gradientTransform="translate(0.175381,0.174735),scale(0.997884,1.000000),translate(-0.175381,-0.174735)" id="radialGradient-1">
            <stop stop-color="#9DD5F6" offset="0%"></stop>
            <stop stop-color="#98D3F5" offset="7.11%"></stop>
            <stop stop-color="#89CEF3" offset="15.75%"></stop>
            <stop stop-color="#70C6EF" offset="25.16%"></stop>
            <stop stop-color="#4EBBEA" offset="35.14%"></stop>
            <stop stop-color="#23ADE3" offset="45.46%"></stop>
            <stop stop-color="#0DA6E0" offset="50%"></stop>
            <stop stop-color="#2E77BC" offset="100%"></stop>
        </radialGradient>
    </defs>
    <g id="Page-1" stroke="none" stroke-width="1" fill="none" fill-rule="evenodd">
        <g id="icon-cardtype-amex" fill-rule="nonzero">
            <path d="M282.6,0 L0.7,0 L0.7,283 L282.6,283 L282.6,189.6 C283.7,188 284.3,185.9 284.3,183.4 C284.3,180.5 283.7,178.7 282.6,177.2" id="Shape" fill="url(#radialGradient-1)"></path>
            <path d="M26.1,122.5 L20.7,109.3 L15.3,122.5 L26.1,122.5 Z M145.6,117.2 C144.5,117.9 143.2,117.9 141.7,117.9 L132,117.9 L132,110.5 L141.8,110.5 C143.2,110.5 144.6,110.6 145.6,111.1 C146.6,111.6 147.3,112.6 147.3,114 C147.2,115.5 146.6,116.7 145.6,117.2 Z M214.3,122.5 L208.8,109.3 L203.3,122.5 L214.3,122.5 Z M86.3,136.8 L78.2,136.8 L78.2,110.8 L66.7,136.8 L59.7,136.8 L48.2,110.8 L48.2,136.8 L32,136.8 L29,129.4 L12.5,129.4 L9.4,136.8 L0.8,136.8 L15,103.6 L26.8,103.6 L40.3,135 L40.3,103.6 L53.2,103.6 L63.6,126.1 L73.1,103.6 L86.3,103.6 L86.3,136.8 L86.3,136.8 Z M118.6,136.8 L92.1,136.8 L92.1,103.6 L118.6,103.6 L118.6,110.5 L100.1,110.5 L100.1,116.5 L118.2,116.5 L118.2,123.3 L100.1,123.3 L100.1,129.9 L118.6,129.9 L118.6,136.8 Z M156,112.5 C156,117.8 152.5,120.5 150.4,121.3 C152.1,122 153.6,123.1 154.3,124.1 C155.4,125.7 155.6,127.2 155.6,130.2 L155.6,136.7 L147.6,136.7 L147.6,132.5 C147.6,130.5 147.8,127.6 146.3,126 C145.1,124.8 143.4,124.6 140.5,124.6 L132,124.6 L132,136.7 L124.1,136.7 L124.1,103.5 L142.3,103.5 C146.3,103.5 149.3,103.6 151.9,105.1 C154.5,106.7 156,108.8 156,112.5 Z M168.6,136.8 L160.5,136.8 L160.5,103.6 L168.6,103.6 L168.6,136.8 Z M262.4,136.8 L251.2,136.8 L236.2,111.9 L236.2,136.8 L220.1,136.8 L217,129.4 L200.5,129.4 L197.5,136.8 L188.2,136.8 C184.3,136.8 179.5,135.9 176.7,133.1 C173.9,130.3 172.5,126.5 172.5,120.4 C172.5,115.5 173.4,111 176.8,107.4 C179.4,104.8 183.4,103.5 188.8,103.5 L196.5,103.5 L196.5,110.6 L189,110.6 C186.1,110.6 184.5,111 182.9,112.6 C181.5,114 180.6,116.6 180.6,120.1 C180.6,123.7 181.3,126.2 182.8,127.9 C184,129.2 186.2,129.6 188.3,129.6 L191.9,129.6 L203.1,103.5 L215,103.5 L228.4,134.9 L228.4,103.5 L240.5,103.5 L254.4,126.6 L254.4,103.5 L262.5,103.5 L262.5,136.8 L262.4,136.8 Z M0.7,143.3 L14.2,143.3 L17.3,135.9 L24.1,135.9 L27.1,143.3 L53.7,143.3 L53.7,137.7 L56.1,143.4 L70,143.4 L72.4,137.7 L72.4,143.4 L138.6,143.4 L138.6,131.3 L139.9,131.3 C140.8,131.3 141.1,131.4 141.1,132.9 L141.1,143.4 L175.3,143.4 L175.3,140.6 C178.1,142.1 182.4,143.4 188,143.4 L202.4,143.4 L205.5,136 L212.3,136 L215.3,143.4 L243.1,143.4 L243.1,136.4 L247.3,143.4 L269.5,143.4 L269.5,97 L247.5,97 L247.5,102.5 L244.4,97 L221.8,97 L221.8,102.5 L219,97 L188.5,97 C183.4,97 178.9,97.7 175.3,99.7 L175.3,97 L154.2,97 L154.2,99.7 C151.9,97.7 148.7,97 145.2,97 L68.3,97 L63.1,108.9 L57.8,97 L33.6,97 L33.6,102.5 L31,97 L10.3,97 L0.7,119 L0.7,143.3 L0.7,143.3 Z" id="Shape" fill="#FFFFFF"></path>
            <path d="M282.6,167.7 L268.2,167.7 C266.8,167.7 265.8,167.8 265,168.3 C264.2,168.8 263.8,169.6 263.8,170.7 C263.8,172 264.5,172.8 265.5,173.2 C266.3,173.5 267.2,173.6 268.6,173.6 L272.9,173.7 C277.2,173.8 280.1,174.6 281.9,176.4 C282.2,176.7 282.4,176.9 282.6,177.2 L282.6,167.7 Z M282.6,189.6 C280.7,192.4 276.9,193.8 271.8,193.8 L256.5,193.8 L256.5,186.7 L271.7,186.7 C273.2,186.7 274.3,186.5 274.9,185.9 C275.5,185.4 275.8,184.6 275.8,183.7 C275.8,182.7 275.4,182 274.8,181.5 C274.2,181 273.4,180.8 272,180.8 C264.6,180.5 255.3,181 255.3,170.5 C255.3,165.7 258.4,160.6 266.7,160.6 L282.5,160.6 L282.5,154 L268,154 C263.6,154 260.4,155.1 258.1,156.7 L258.1,154 L236.4,154 C232.9,154 228.9,154.9 226.9,156.7 L226.9,154 L188.2,154 L188.2,156.7 C185.1,154.5 179.9,154 177.5,154 L151.9,154 L151.9,156.7 C149.5,154.3 144,154 140.7,154 L112.1,154 L105.6,161.1 L99.5,154 L56.8,154 L56.8,200.3 L98.7,200.3 L105.4,193.1 L111.8,200.3 L137.6,200.3 L137.6,189.4 L140.1,189.4 C143.5,189.5 147.6,189.3 151.1,187.8 L151.1,200.3 L172.4,200.3 L172.4,188.2 L173.4,188.2 C174.7,188.2 174.8,188.3 174.8,189.6 L174.8,200.3 L239.5,200.3 C243.6,200.3 247.9,199.2 250.3,197.3 L250.3,200.3 L271,200.3 C275.3,200.3 279.4,199.7 282.6,198.2 L282.6,189.6 L282.6,189.6 Z M251,176.3 C252.5,177.9 253.4,179.9 253.4,183.3 C253.4,190.4 248.9,193.8 241,193.8 L225.6,193.8 L225.6,186.7 L241,186.7 C242.5,186.7 243.6,186.5 244.2,185.9 C244.7,185.4 245.1,184.6 245.1,183.7 C245.1,182.7 244.7,182 244.1,181.5 C243.5,181 242.7,180.8 241.3,180.8 C233.9,180.5 224.6,181 224.6,170.5 C224.6,165.7 227.6,160.6 235.9,160.6 L251.8,160.6 L251.8,167.7 L237.3,167.7 C235.9,167.7 234.9,167.8 234.1,168.3 C233.2,168.8 232.9,169.6 232.9,170.7 C232.9,172 233.6,172.8 234.6,173.2 C235.4,173.5 236.3,173.6 237.7,173.6 L242,173.7 C246.3,173.8 249.2,174.5 251,176.3 Z M179.5,174.3 C178.4,174.9 177.1,175 175.6,175 L166,175 L166,167.6 L175.8,167.6 C177.2,167.6 178.6,167.6 179.6,168.2 C180.6,168.7 181.2,169.8 181.2,171.2 C181.2,172.5 180.5,173.7 179.5,174.3 Z M184.3,178.4 C186.1,179.1 187.5,180.2 188.2,181.2 C189.3,182.8 189.5,184.3 189.5,187.3 L189.5,193.9 L181.5,193.9 L181.5,189.8 C181.5,187.8 181.7,184.9 180.2,183.3 C179,182.1 177.3,181.8 174.4,181.8 L166,181.8 L166,193.9 L158,193.9 L158,160.7 L176.3,160.7 C180.3,160.7 183.2,160.9 185.8,162.3 C188.3,163.8 189.9,165.9 189.9,169.7 C189.9,174.9 186.4,177.6 184.3,178.4 Z M194.3,160.7 L220.7,160.7 L220.7,167.6 L202.1,167.6 L202.1,173.6 L220.2,173.6 L220.2,180.4 L202.1,180.4 L202.1,187 L220.7,187 L220.7,193.9 L194.3,193.9 L194.3,160.7 Z M140.8,176 L130.6,176 L130.6,167.6 L140.9,167.6 C143.8,167.6 145.7,168.8 145.7,171.7 C145.8,174.5 143.9,176 140.8,176 Z M122.7,190.8 L110.5,177.3 L122.7,164.2 L122.7,190.8 Z M91.3,186.9 L71.8,186.9 L71.8,180.3 L89.2,180.3 L89.2,173.5 L71.8,173.5 L71.8,167.5 L91.7,167.5 L100.4,177.2 L91.3,186.9 Z M154.3,171.6 C154.3,180.8 147.4,182.7 140.5,182.7 L130.6,182.7 L130.6,193.8 L115.2,193.8 L105.4,182.8 L95.3,193.8 L63.9,193.8 L63.9,160.6 L95.8,160.6 L105.5,171.5 L115.6,160.6 L140.9,160.6 C147.2,160.7 154.3,162.4 154.3,171.6 Z" id="Shape" fill="#FFFFFF"></path>
        </g>
    </g>
</svg>