<?xml version="1.0" encoding="UTF-8"?>
<svg width="436px" height="214px" viewBox="0 0 436 214" version="1.1" xmlns="http://www.w3.org/2000/svg" xmlns:xlink="http://www.w3.org/1999/xlink">
    <!-- Generator: Sketch 45.2 (43514) - http://www.bohemiancoding.com/sketch -->
    <title>CobroExpress</title>
    <desc>Created with Sketch.</desc>
    <defs></defs>
    <g id="Page-1" stroke="none" stroke-width="1" fill="none" fill-rule="evenodd">
        <g id="CobroExpress" fill-rule="nonzero" fill="#FFFFFF">
            <path d="M127.7,49.6 C124.6,48.9 120.9,49.8 119.5,52.9 C118.4,56.6 117.9,60.5 117.8,64.4 C121.3,64.4 125.2,63.7 127.6,60.9 C130.2,57.7 129.7,53 127.7,49.6 Z" id="Shape"></path>
            <path d="M93.4,49.7 C88.1,52.6 87.5,64.3 95,64.2 C100.3,63.4 102.4,56.3 100.4,51.9 C99.5,49 95.7,48.3 93.4,49.7 Z" id="Shape"></path>
            <path d="M173.6,63.9 C178.5,61.4 179.5,54.3 176.3,50 C174.6,48.8 172.3,48.8 170.4,49.7 C166.5,52.2 165.6,57.9 167.4,61.9 C168.5,64.3 171.4,64.4 173.6,63.9 Z" id="Shape"></path>
            <path d="M197.7,118 C202.1,114.6 203.3,108 201.2,103 C199.2,99.3 194.6,99.5 191,100.3 C189.5,106.5 189,113 188,119.4 C191.2,120.1 194.9,120 197.7,118 Z" id="Shape"></path>
            <path d="M260,100.1 C255.8,98.6 251.5,101.8 251.1,106 C255,106 258.9,106 262.8,106 C262.5,103.8 262.8,100.5 260,100.1 Z" id="Shape"></path>
            <path d="M176.7,127.3 C177.7,119.3 179.5,111.3 180,103.1 C175.3,104.1 171.2,107 167.2,109.5 C169.1,114 171.8,118.1 173.7,122.6 C174.5,124.3 174.9,126.4 176.7,127.3 Z" id="Shape"></path>
            <path d="M59.6,12.6 C40,8.5 20.5,3.9 0.7,0.2 C2.4,4 5.4,7.1 7.8,10.5 C44.4,60.6 74.6,115.2 99.2,172.2 C104.9,185.7 110.5,199.2 115.3,213.1 C118.1,213.1 120.6,211.6 123.2,210.6 C161.8,196.3 200.4,181.9 239,167.6 L239,167.6 L239.1,167.6 C304,143.5 368.9,119.3 433.7,95.2 C434.6,94.9 435.4,94.4 436,93.6 C310.5,66.8 185.1,39.6 59.6,12.6 Z M215.2,111.3 C215.4,109.5 215.7,107.8 216.1,106 C216.9,101.8 217.7,97.5 216.7,93.3 L216.7,93.2 L216.8,93.2 C220.5,93.3 224.3,93.3 227.9,93.3 L228,93.3 L228,93.4 C227.8,94.8 227.6,96.3 227.4,97.8 L227.4,98 C228,97.5 228.5,97 229.1,96.4 C231.1,94.4 233.1,92.4 236.2,92.8 C236.4,92.8 236.6,92.9 236.8,92.9 C238.5,93.2 240.9,93.5 241.5,95.3 L241.5,95.3 L241.5,95.3 C240.7,97.7 239.5,100.1 238.5,102.3 C238.1,103.2 237.6,104.2 237.1,105.2 L237.1,105.2 L237.1,105.2 C236.8,105 236.5,104.8 236.2,104.6 C235,103.7 233.7,102.8 232.2,102.6 C230.3,102.8 227.7,104.2 226.2,107.5 C225.3,111.5 224.8,115.6 224.3,119.5 C223.9,122.3 223.5,125.2 223.1,128 L223.1,128 L223.1,128 C219.8,128 216.6,128 213.3,128.1 L213.2,128.1 L213.2,128 C213.4,123.9 214.1,119.8 214.7,115.8 C214.7,114.4 214.9,112.8 215.2,111.3 Z M170.4,42.8 C174.1,42.3 178.4,42.2 181.4,44.9 C187.8,49.5 187.8,59.5 182.8,65.1 C178.2,70.9 169.1,72.5 163,68.3 C158.3,64.7 157.2,57.8 159.2,52.4 C160.8,47.5 165.3,43.8 170.4,42.8 Z M139.5,57.1 C139.7,52.5 141.5,47.8 140.4,43.2 C143.3,43 146.2,42.9 149.1,43.3 C149.1,44 149.2,45.5 149.3,46.2 C151,44.8 152.5,42.4 155.1,42.6 C156.7,42.5 158.3,43.1 159.8,43.7 C159.6,46.8 157.7,49.3 156.6,52.1 C154.9,51.6 153.3,50.2 151.4,50.7 C149.3,51.6 147.7,53.5 147.5,55.8 C146.8,60.5 146,65.3 145.6,70 C143.1,70.1 140.5,70.1 138,70.1 C137.4,65.8 139.2,61.4 139.5,57.1 Z M109.3,30.5 C113.6,30.5 117.9,30 122.2,30.3 C122.6,35 121,39.7 120.8,44.4 C124.6,43 129.5,41.1 133,44.3 C137.5,47.3 137.8,53.4 137.1,58.3 C136.4,63.3 132.7,67.6 127.9,69.1 C121.9,71.5 115.4,70.5 109.2,69.9 C110.2,57.6 112.7,45.5 114.3,33.2 C115,30.2 111,31.3 109.2,31.1 L109.3,30.5 Z M58.8,61.5 C65,64.8 72.7,62.7 77.9,58.5 C77.6,61.6 77.7,64.8 76.4,67.7 C68.4,72.3 56.8,72.1 50.2,65.2 C45,59.5 44.4,51.1 46.8,44.1 C50.1,36 58.3,30.3 67.1,29.7 C72,29.5 76.9,29.5 81.8,30.6 C81.5,33 82.5,36.1 80.7,38 C74.2,37 67.1,36.2 61.1,39.5 C53.7,43.7 51,56.4 58.8,61.5 Z M83.2,65.1 C78.2,57 83.2,45.2 92.4,42.8 C96.2,42.5 100.6,41.9 103.8,44.5 C111.6,49.3 110.7,61.9 103.8,67.1 C98.1,72.2 87.3,72.3 83.2,65.1 Z M101,128 L101,128 C102.9,114.7 104.9,101.3 106.9,88.3 C107,87.4 107.2,86.5 107.4,85.6 C107.8,83.2 108.3,80.6 108.1,78.2 C107.4,78.1 106.7,78 106,78 C103.9,77.8 101.8,77.6 100,76.5 L99.8,76.4 L100,76.4 C109.9,76.8 119.9,76.7 129.7,76.6 C133.3,76.6 137.1,76.6 140.8,76.6 L140.9,76.6 L140.9,76.7 C140.6,78 140.4,79.4 140.2,80.8 C140,82.4 139.7,84 139.3,85.5 L139.3,85.5 L139.3,85.5 C135.8,86.1 132,86 128.4,85.9 C125.1,85.8 121.6,85.7 118.3,86.2 C118.1,88.1 117.9,90 117.6,91.8 C117.3,93.6 117.1,95.5 116.9,97.4 C121.2,97.6 125.5,97.6 129.7,97.5 C131.4,97.5 133.2,97.5 134.9,97.5 L135,97.5 L135,97.6 C134.9,99.1 134.7,100.5 134.5,101.9 C134.3,103.3 134.2,104.7 134,106.2 L134,106.2 L134,106.2 C130.9,106.3 127.7,106.3 124.7,106.3 C121.6,106.3 118.5,106.3 115.4,106.4 C115.3,108.4 115,110.4 114.7,112.3 C114.3,114.6 113.9,117 113.9,119.5 C122.5,119.6 131.3,119.6 140.1,119.5 L140.2,119.5 L140.2,119.6 C140,122.4 139.5,125.3 139,128 L139,128 L101,128 L101,128 Z M160.8,115.5 C157.1,118.7 154.3,123.1 152.8,128 L152.8,128 L141,128 L141,127.9 C142.9,122.3 146.1,116.7 150.2,111.6 C150.9,110.7 151.7,110 152.4,109.2 C153.4,108.2 154.4,107.3 155,106.2 C153.7,103.7 152,101.4 150.4,99.2 C149.4,97.8 148.3,96.3 147.3,94.8 C144.1,94.3 141,94 138.1,94 L138.1,94 L138.1,93.4 L138.1,93.4 C140.1,93.4 142.1,93.4 144.1,93.3 C147.8,93.2 151.7,93 155.5,93.6 L155.5,93.6 L155.5,93.6 C157.2,95.7 158.8,97.8 160.4,99.9 C161,100.7 161.5,101.4 162.1,102.2 C168.5,99.4 175,97.5 181.2,96.6 C181.3,95.7 181.4,94.7 181.6,93.8 C181.9,92 182.2,90.2 181.8,88.5 C181.3,88.5 180.7,88.4 180.2,88.4 C178.1,88.2 176.2,88.1 174.1,88.1 L174.1,88.1 L174.1,87.4 L174.1,87.4 C180.4,87 186.8,87 192.1,87.1 L192.1,87.1 L192.1,87.1 C192.2,89.2 192,91.4 191.8,93.2 C192.2,93.2 192.6,93.1 193,93.1 C196.8,92.7 200.6,92.3 204.2,93.8 C209.6,96.1 213.2,101.7 212.7,107.2 C212.8,111.2 211.7,115.3 209.4,118.9 C207.1,122.5 203.8,125.2 200.1,126.7 C196.6,128.4 192.8,128.4 189.1,128.4 C188.1,128.4 187.1,128.4 186.1,128.5 C185.6,134 184.6,139.6 183.6,145 L183.6,145 L174,145 L174,144.9 C174.2,142.7 174.6,140.4 175,138.3 C175.6,135 176.2,131.5 176.2,128 C174.9,128 173.6,128 172.4,128 C170.7,128 168.9,128 167.2,128.1 L167.2,128.1 L167.2,128.1 C166.7,127 166.2,125.9 165.6,124.9 C164.1,121.8 162.6,118.5 160.8,115.5 Z M272.7,112 L272.7,112 L272.7,112 C269.9,112.1 267.2,112 264.5,112 C259.5,111.9 254.2,111.8 249.2,112.5 C249.3,115.3 250.5,118.7 253.5,119.7 C258.4,121.7 263.4,119.8 268.1,118 C268.8,117.7 269.5,117.5 270.2,117.2 L270.3,117.2 L270.3,117.3 C270.3,119.9 269.7,122.3 269.1,124.9 C269,125.3 268.9,125.6 268.8,126 L268.8,126 L268.8,126 C266,127.2 261.5,128.7 256.6,128.8 C256.4,128.8 256.2,128.8 256.1,128.8 C251.7,128.8 247.9,127.6 244.8,125.4 C238.3,120.3 237.6,110.6 240.4,103.6 L240.4,103.6 C242.1,99.1 246,95.4 251.1,93.6 C256.4,91.7 262.2,92.1 266.7,94.7 C269.3,96.4 271.1,98.9 272.1,102.4 C272.8,105.2 273.1,108.5 272.7,112 Z M298.8,103.5 L298.8,103.5 C297.4,103.3 296,102.7 294.7,102.2 C292.5,101.4 290.3,100.5 287.9,100.9 C287.1,101.1 286.9,101.6 286.8,102 C286.6,102.8 287,104 287.7,104.5 C288.7,105.5 289.9,106.4 291,107.2 C293.2,109 295.4,110.8 297.1,113.2 C298.4,115.7 298.5,118.8 297.3,121.6 C296.1,124.6 293.6,126.9 290.6,127.8 C288.7,128.4 286.7,128.7 284.7,128.7 C280.9,128.7 277,127.7 273.5,125.7 L273.5,125.7 L273.5,125.7 C272.8,124 273.2,122.1 273.6,120.2 C273.7,119.5 273.9,118.8 274,118.1 L274,118.1 L274,118.1 C275.7,118.2 277.3,118.8 278.9,119.3 C281.1,120 283.4,120.8 285.8,120.4 C286.5,120.3 287.2,119.7 287.4,119 C287.6,118.3 287.5,117.7 287,117.2 C285.8,115.8 284.3,114.6 282.8,113.4 C280.6,111.6 278.3,109.8 276.9,107.3 C275.8,105.3 275.5,102.8 276.2,100.4 C276.9,98 278.4,96 280.4,94.8 C284,92.2 289,91.9 295.5,93.9 C295.7,94 296,94.1 296.2,94.2 C297.4,94.6 298.7,95 299.2,96.4 L299.2,96.4 C299.1,98.6 298.9,100.7 298.7,103 L298.8,103.5 Z M325.1,95.3 C325,96 325.1,96.8 325.1,97.6 C325.1,99.7 325.1,101.8 324,103.5 L324,103.5 L323.7,103.4 C320.2,101.8 316.6,100.1 312.8,101.1 C312.6,102.4 312.7,104.2 314.2,105.1 C315,105.7 315.8,106.4 316.5,107 C319,109 321.7,111 323.3,114 C324,115.9 324.1,118.2 323.6,120.3 C323.1,122.5 321.9,124.4 320.3,125.7 C318.2,127.5 315.5,128.6 312.3,128.8 C311.9,128.8 311.5,128.8 311.1,128.8 C308.8,128.8 306.3,128.4 303.6,127.6 C303.2,127.4 302.7,127.2 302.2,127.1 C301,126.7 299.7,126.2 298.9,125.2 L298.9,125.2 L298.9,125.2 C298.9,122.8 299.4,120.5 299.9,118.2 L299.9,118.2 L299.9,118.2 C301.5,118.4 303,118.9 304.5,119.4 C306.8,120.2 309.2,121 311.7,120.4 C312.3,120.4 312.8,120 313.1,119.3 C313.4,118.5 313.2,117.4 312.6,116.9 C311.5,115.8 310.3,114.9 309.1,113.9 C306.6,111.9 304,109.8 302.5,106.9 C300.4,102.6 302.4,96.8 306.8,94.5 C312.4,91 318.9,92.8 325.1,95.3 L325.1,95.3 L325.1,95.3 Z" id="Shape"></path>
        </g>
    </g>
</svg>