<?xml version="1.0" encoding="UTF-8"?>
<svg width="57px" height="23px" viewBox="0 0 57 23" version="1.1" xmlns="http://www.w3.org/2000/svg" xmlns:xlink="http://www.w3.org/1999/xlink">
    <!-- Generator: Sketch 45.1 (43504) - http://www.bohemiancoding.com/sketch -->
    <title>WUpay</title>
    <desc>Created with Sketch.</desc>
    <defs></defs>
    <g id="Mobile" stroke="none" stroke-width="1" fill="none" fill-rule="evenodd">
        <g id="1.4.2_Deposit-Process-(bitcoin-&amp;-credit-card-and-others-inactive)" transform="translate(-273.000000, -545.000000)" fill-rule="nonzero" fill="#FFFFFF">
            <g id="Group-2" transform="translate(17.000000, 355.000000)">
                <g id="WUpay" transform="translate(256.000000, 190.000000)">
                    <polygon id="Shape" points="33.327027 0.0496402878 31.2045045 13.7338129 29.0990991 0.0496402878 19.736036 0.0496402878 17.5108108 13.7338129 15.4054054 0.0496402878 7.36036036 0.0496402878 12.4441441 22.2719424 22.3720721 22.2719424 24.3405405 7.94244604 26.6513514 22.2719424 36.4594595 22.2719424 41.3036036 0.0496402878"></polygon>
                    <path d="M47.7054054,0.0496402878 L47.7054054,14.3956835 C47.7054054,14.3956835 48.0477477,16.9273381 45.9936937,16.9273381 C43.9396396,16.9273381 44.1621622,14.1805755 44.1621622,13.518705 C44.1621622,12.8568345 44.1621622,0.0661870504 44.1621622,0.0661870504 L42.2279279,0.0661870504 L37.554955,20.6338129 C37.554955,20.6338129 39.9513514,22.9007194 46.4045045,22.9007194 C52.8576577,22.9007194 56.9657658,20.0381295 56.9657658,14.6769784 C56.9657658,9.3323741 56.9657658,0.0661870504 56.9657658,0.0661870504 L47.7054054,0.0661870504 L47.7054054,0.0496402878 Z" id="Shape"></path>
                    <polygon id="Shape" points="3.71441441 0.0496402878 8.67837838 22.2719424 9.92792793 22.2719424 5.13513514 0.0496402878"></polygon>
                    <polygon id="Shape" points="0.0342342342 0.0496402878 4.9981982 22.2719424 6.24774775 22.2719424 1.45495495 0.0496402878"></polygon>
                </g>
            </g>
        </g>
    </g>
</svg>