<?xml version="1.0" encoding="UTF-8"?>
<svg width="55px" height="40px" viewBox="0 0 55 40" version="1.1" xmlns="http://www.w3.org/2000/svg" xmlns:xlink="http://www.w3.org/1999/xlink">
    <!-- Generator: Sketch 46.2 (44496) - http://www.bohemiancoding.com/sketch -->
    <title>np_cashout_597355_000000</title>
    <desc>Created with Sketch.</desc>
    <defs></defs>
    <g id="Page-1" stroke="none" stroke-width="1" fill="none" fill-rule="evenodd">
        <g id="2.1_Mobile_Withdrawl_Cashier_Withdraw-Copy" transform="translate(-233.000000, -511.000000)" fill-rule="nonzero" fill="#FFFFFF">
            <g id="np_cashout_597355_000000" transform="translate(233.000000, 511.000000)">
                <path d="M54.4929,5.31666667 C54.4907517,4.99982778 54.4886028,4.68516667 54.4886028,4.36833333 C54.4907517,2.96211111 54.1942648,2.00722222 53.5561879,1.3605 C52.9224229,0.720333333 51.9878078,0.420833333 50.6170979,0.420833333 L33.4598479,0.423003889 L10.8927978,0.423003889 C8.06546785,0.423003889 6.76350785,0.423003889 3.93639785,0.427343889 C2.00067285,0.429514444 0.60416785,1.72289944 0.53970785,3.57406611 C0.49244195,4.92389944 0.49244195,6.23901056 0.54185615,7.48251056 C0.60845565,9.17089944 1.85239615,10.3861772 3.63989615,10.5076772 L4.45417115,10.5619311 L4.45417115,6.93782 C4.45417115,5.56193111 5.55846115,4.44865333 6.91844615,4.44865333 L48.1211462,4.44865333 C49.4832761,4.44865333 50.5854212,5.56409778 50.5854212,6.93782 L50.5854212,10.5619311 L51.3996962,10.5055089 C53.2237162,10.3796422 54.4332762,9.12962 54.4827212,7.31756444 C54.502057,6.64700889 54.4977604,5.97206444 54.4934632,5.31667556 L54.4929,5.31666667 Z" id="Shape"></path>
                <path d="M47.49525,10.3711111 C47.49525,10.1323944 47.4866563,9.87197778 47.4157585,9.60288889 C47.089196,8.29644444 46.0450485,7.53038889 44.6055885,7.53038889 C39.2302185,7.58030167 35.1653885,7.61068333 30.2241885,7.64974444 L27.4999835,7.67144611 L24.7779235,7.651915 C19.8365035,7.61285222 15.7716735,7.58247056 10.3965235,7.53255944 C8.9570635,7.53255944 7.9107985,8.30078167 7.5863535,9.60505944 C7.5176035,9.87415944 7.506862,10.1324039 7.506862,10.3732817 C7.4552995,15.9810594 7.416629,21.6321706 7.375808,27.161615 C7.3564722,28.8543372 8.480098,30.0023372 10.147313,30.0218372 L28.608613,30.1455372 L28.6129102,30.1498772 L28.9480637,30.1477072 L29.3433762,30.1498772 L29.3498216,30.1433667 L44.8510216,30.0196667 C46.5181816,30.0001356 47.6439766,28.8542778 47.6225266,27.1594444 C47.5838545,21.6321111 47.5451801,15.9811111 47.4957681,10.3711111 L47.49525,10.3711111 Z M37.5221,26.1461111 C33.624855,26.1656422 30.47935,26.1960244 27.6782,26.2155556 L27.321558,26.2155556 C24.519968,26.1960244 21.372758,26.1656422 17.477658,26.1461111 C16.974925,24.0736111 15.651493,22.7086111 13.621223,22.1595556 C13.6405588,20.137 13.6706372,17.9646667 13.681382,15.4234444 C15.623542,15.0458389 16.886837,13.8479444 17.458342,11.9360556 L17.5077557,11.7971667 C17.5464278,11.6973389 17.5765057,11.6170444 17.6065852,11.5193889 C21.2073802,11.5497706 24.3440852,11.5693022 27.4999852,11.5996833 C30.6560502,11.5693017 33.7947352,11.54977 37.3933852,11.5193889 C37.4234636,11.6192167 37.4535442,11.6995111 37.4922147,11.7971667 L37.5416283,11.9360556 C38.1131333,13.8501111 39.3763733,15.0437222 41.3185883,15.4234444 C41.3271821,17.9646667 41.3572599,20.137 41.3787473,22.1595556 C39.3463323,22.7064333 38.0250123,24.0714444 37.5223123,26.1461111 L37.5221,26.1461111 Z" id="Shape"></path>
                <path d="M31.7581,18.8411111 C31.7581,21.2152222 29.85026,23.1401667 27.49989,23.1401667 C25.14952,23.1401667 23.24168,21.2152778 23.24168,18.8411111 C23.24168,16.4648333 25.14952,14.5398889 27.49989,14.5398889 C29.85026,14.5398889 31.7581,16.4647778 31.7581,18.8411111" id="Shape"></path>
                <polygon id="Shape" points="7.3755 32.4955556 47.6245 32.4955556 47.6245 35.8853333 7.3755 35.8853333"></polygon>
                <polygon id="Shape" points="7.3755 37.7411111 47.6245 37.7411111 47.6245 39.5770556 7.3755 39.5770556"></polygon>
            </g>
        </g>
    </g>
</svg>