<?xml version="1.0" encoding="UTF-8"?>
<svg width="58px" height="72px" viewBox="0 0 58 72" version="1.1" xmlns="http://www.w3.org/2000/svg" xmlns:xlink="http://www.w3.org/1999/xlink">
    <!-- Generator: Sketch 46.2 (44496) - http://www.bohemiancoding.com/sketch -->
    <title>Page 1</title>
    <desc>Created with Sketch.</desc>
    <defs></defs>
    <g id="Person-To-Person" stroke="none" stroke-width="1" fill="none" fill-rule="evenodd">
        <g id="1.1_P2P_Mobile_DepositFlow" transform="translate(-248.000000, -264.000000)" fill="#FFFFFF">
            <g id="Page-1" transform="translate(248.000000, 264.000000)">
                <path d="M20.5676923,40.7608163 L4.9084359,40.7608163 C3.70300256,40.7608163 3.70300256,40.7608163 3.70300256,39.5698041 L3.70300256,5.0560898 C3.70300256,3.86507755 3.70300256,3.86507755 4.9084359,3.86507755 L24.1807949,3.86507755 C25.3862282,3.86507755 25.3862282,3.86507755 25.3862282,5.0560898 L25.3862282,26.4768245 L28.9996282,30.0469959 L28.9996282,2.6767102 C28.9996282,1.48569796 27.7941949,0.29755102 26.5916615,0.29755102 L2.50084103,0.294678367 C1.29540769,0.294678367 0.092874359,1.48569061 0.092874359,2.67383755 L0.092874359,41.9483682 C0.092874359,43.1393804 1.29830769,44.3275273 2.50084103,44.3275273 L22.978559,44.3275273 L20.5676923,40.7608163 Z" id="Fill-1"></path>
                <path d="M35.0215897,34.8090612 C35.0215897,34.8090612 32.6136231,32.429902 31.4081897,32.429902 L31.4081897,34.8090612 L33.8161564,37.1882204 C35.0215897,36.0000735 35.0215897,36.0000735 35.0215897,34.8090612 Z" id="Fill-2"></path>
                <path d="M22.9784103,55.0417959 C24.1838436,56.2328082 27.7972436,55.0417959 27.7972436,52.6626367 L25.3892769,47.9014531 C22.9784103,52.6626367 21.7729769,53.8507837 22.9784103,55.0417959 Z" id="Fill-3"></path>
                <path d="M24.1815385,46.7103673 L16.9547385,46.7103673 C15.7493051,47.9013796 15.7493051,49.0895265 16.9547385,50.2805388 C19.3627051,52.659698 21.7735718,51.471551 22.9761051,49.0895265 L24.1815385,46.7103673 Z" id="Fill-4"></path>
                <path d="M49.4777179,30.050449 C44.6588846,27.6712898 41.0454103,22.9101061 33.8184615,21.7190204 L31.4104949,21.7190204 L31.4104949,30.050449 C32.6159282,30.050449 33.8184615,31.2414612 35.0238949,32.4296082 C36.2293282,33.6206204 37.4318615,33.6206204 37.4318615,35.9997796 C36.2264282,37.1907918 36.2264282,38.3789388 35.0238949,39.569951 C31.4075949,38.3789388 28.9996282,33.6206204 28.9996282,33.6206204 C28.9996282,33.6206204 21.7728282,22.9102531 16.9542179,26.4802776 C12.1356077,30.050302 18.1596513,35.9997061 20.5676179,38.3786449 C22.9755846,40.7578041 26.5889846,45.5189878 30.2052846,52.6596245 C30.2052846,58.6089551 32.6132513,64.5609306 35.0241179,66.9406041 C36.2295513,68.1316156 37.4320846,69.3197633 38.6375179,71.7017878 L57.9098769,71.7017878 C51.8856103,56.2328082 57.9098769,34.8091347 49.4775692,30.0512571 L49.4777179,30.050449 Z" id="Fill-5"></path>
            </g>
        </g>
    </g>
</svg>