<?xml version="1.0" encoding="UTF-8"?>
<svg xmlns="http://www.w3.org/2000/svg" width="226.772" height="77.456" viewBox="0 0 226.772 77.456"><path fill="#FFF" d="M180.334 7.612L199.2 4.234v72.441h-18.865V7.612zm27.554 0v69.063h18.884V4.234l-18.884 3.378zm-54.433 69.063h18.882V23.691h-18.882v52.984zM28.7 31.184c-2.386-.157-7.911-.513-7.911-5.486 0-6.001 7.953-6.001 10.936-6.001 5.246 0 12.038 1.549 16.889 3 0 0 2.706.954 5.009 1.932l.215.058V8.252l-.294-.086C47.819 6.162 41.162 4.234 28.82 4.234 7.54 4.234 0 16.631 0 27.251c0 6.122 2.624 20.53 26.995 22.192 2.066.127 7.549.442 7.549 5.582 0 4.243-4.489 6.745-12.038 6.745-8.274 0-16.301-2.11-21.175-4.111v16.927c7.298 1.913 15.525 2.869 25.167 2.869 20.807 0 30.126-11.729 30.126-23.354-.001-13.18-10.429-21.745-27.924-22.917zm114.116-8.268c-17.448.56-26.305 8.388-26.305 23.949v29.811h19.035v-24.31c0-9.318 1.22-13.312 12.276-13.693V23.189c-1.86-.395-5.006-.273-5.006-.273zm-51.212.715c-.42 1.056-3.442 9.594-10.754 18.444V4.234L61.37 8.085v68.59h19.48V55.473c5.642 8.462 8.428 21.202 8.428 21.202h23.333c-2.308-9.595-12.404-27.287-12.404-27.287 9.062-11.488 13.041-23.728 13.674-25.757H91.604zm71.287-5.022c5.141 0 9.308-4.165 9.308-9.302 0-5.139-4.167-9.307-9.308-9.307-5.135 0-9.3 4.168-9.3 9.307 0 5.137 4.165 9.302 9.3 9.302z"/></svg>