<?xml version="1.0" encoding="UTF-8"?>
<svg width="68px" height="53px" viewBox="0 0 68 53" version="1.1" xmlns="http://www.w3.org/2000/svg" xmlns:xlink="http://www.w3.org/1999/xlink">
    <!-- Generator: Sketch 45.2 (43514) - http://www.bohemiancoding.com/sketch -->
    <title>np_dice_911889_000000</title>
    <desc>Created with Sketch.</desc>
    <defs></defs>
    <g id="Desktop" stroke="none" stroke-width="1" fill="none" fill-rule="evenodd">
        <g id="01_BetOnline_Desktop_HomePage" transform="translate(-1022.000000, -1091.000000)" fill-rule="nonzero" fill="#EE3536">
            <g id="np_dice_911889_000000" transform="translate(1022.000000, 1091.000000)">
                <path d="M30.4513634,0.65767383 C29.3124827,0.608269079 28.1475746,0.777286594 27.0112234,1.20112676 L6.39634396,8.81230345 C1.85113882,10.4998892 -0.46596324,15.5574542 1.20364961,20.0946048 L8.81482631,40.696171 C10.5076042,45.2413761 15.559977,47.5631378 20.0971277,45.8992496 L25.289822,43.9568486 L25.289822,26.581745 C25.1260093,26.6779531 24.9543884,26.7507632 24.7905757,26.8261694 C22.9548137,27.5022155 20.9395892,26.5869439 20.2635431,24.7511685 C19.587497,22.9387712 20.5027686,20.9106329 22.338544,20.2345203 C23.3786405,19.8548867 24.4863683,19.9874998 25.3574533,20.5439465 C25.5498694,18.8278039 26.1401384,17.2650297 27.031992,15.8843141 C26.3038912,15.5046805 25.7240998,14.8676489 25.4354688,14.0433599 C24.7542306,12.2153861 25.6694889,10.2106125 27.5104697,9.52671163 C29.3176083,8.85066554 31.3276405,9.77373206 32.0036866,11.5782812 C33.3557788,10.9750252 34.8795452,10.6343728 36.476135,10.6343728 L39.8590281,10.6343728 L38.2936579,6.38558687 C37.0247734,2.96108988 33.86288,0.800285208 30.4488339,0.649446251 L30.4513634,0.65767383 Z M36.476135,13.0842478 C31.6240597,13.0842478 27.7000502,17.0079911 27.7000502,21.8603326 L27.7000502,43.827171 C27.7000502,48.6792462 31.6237935,52.6032558 36.476135,52.6032558 L58.4429734,52.6032558 C63.2950486,52.6032558 67.2290431,48.6795125 67.2290431,43.827171 L67.2290431,21.8603326 C67.2290431,17.0082574 63.2922528,13.0842478 58.4429734,13.0842478 L36.476135,13.0842478 Z M12.8111933,15.2580329 C14.1789286,15.3178386 15.4556678,16.17851 15.9627024,17.5540334 C16.6387485,19.3664307 15.7000789,21.394569 13.8877015,22.0472504 C12.0519395,22.7284887 10.0471659,21.8132303 9.37105328,19.9722495 C8.69500719,18.1598522 9.59987452,16.1317139 11.4356698,15.4790326 C11.8881135,15.3100144 12.3561469,15.237211 12.8111933,15.2580129 L12.8111933,15.2580329 Z M39.7052602,21.6260196 C40.6049687,21.6260196 41.5072066,21.9744536 42.1911075,22.6583279 C43.566631,24.0338514 43.566631,26.2596912 42.1911075,27.6300225 C40.8233723,29.005546 38.5950029,29.005546 37.2194129,27.6300225 C35.8516776,26.2622873 35.8516776,24.033918 37.2194129,22.6583279 C37.9058433,21.9744936 38.8055518,21.6260196 39.7052602,21.6260196 Z M47.4043043,29.3250637 C48.3040127,29.3250637 49.2010585,29.6734977 49.8901516,30.357372 C51.2578868,31.7328954 51.2578868,33.9534765 49.8901516,35.3290666 C48.5146281,36.7045901 46.294047,36.7045901 44.9184569,35.3290666 C43.5507217,33.9613313 43.5507217,31.732962 44.9184569,30.357372 C45.6048874,29.6735376 46.5019997,29.3250637 47.4043043,29.3250637 L47.4043043,29.3250637 Z M18.3594842,30.2247721 C19.7272194,30.289778 20.9935078,31.1504414 21.500609,32.5103884 C22.176655,34.317527 21.2327866,36.350924 19.4256081,37.0270366 C17.589846,37.7030827 15.5746216,36.7696119 14.8985755,34.9624201 C14.2225294,33.1500228 15.1508014,31.1114336 16.9839607,30.4353875 C17.4364043,30.2663693 17.9044378,30.2039635 18.3594842,30.2247655 L18.3594842,30.2247721 Z M55.1060109,37.0271698 C56.0057194,37.0271698 56.9027652,37.3756038 57.5918583,38.059478 C58.9595935,39.4350015 58.9595935,41.6608414 57.5918583,43.0311727 C56.2163348,44.4066962 53.990495,44.4066962 52.6201636,43.0311727 C51.2446401,41.6634374 51.2446401,39.4350681 52.6201636,38.059478 C53.303998,37.3756437 54.2063025,37.0271698 55.1060109,37.0271698 L55.1060109,37.0271698 Z" id="Shape"></path>
            </g>
        </g>
    </g>
</svg>