<svg id="Layer_3" data-name="Layer 3" xmlns="http://www.w3.org/2000/svg" xmlns:xlink="http://www.w3.org/1999/xlink" viewBox="0 0 289.53 235.15"><defs><style>.cls-1,.cls-2,.cls-5,.cls-6{fill:none;}.cls-2,.cls-5,.cls-6{stroke:#fff;}.cls-2{stroke-width:12px;}.cls-3{clip-path:url(#clip-path);}.cls-4{fill:#2c2c2c;}.cls-5{stroke-miterlimit:10;}.cls-5,.cls-6{stroke-width:20px;}</style><clipPath id="clip-path" transform="translate(-71.26 -119.07)"><path class="cls-1" d="M342,291.44c-18-4.69-21.59,0-21.59,0s-20.79-11.61-17.76,0L156.4,285.93l-7.48-101.74,61.73-44,9.54,15.95,10.14,20.39,13.74,6,18.69-2.34,12.74-8.12,8.74-31.9,63.42,42.37Z"/></clipPath></defs><path class="cls-2" d="M251.71,154.5v8.79c2.66-.18,5.46-1.42,5.46-4.36s-3.07-3.9-5.46-4.43Zm0,0" transform="translate(-71.26 -119.07)"/><path class="cls-2" d="M244.07,144c0,2.23,1.64,3.5,5,4.18v-8c-3,.09-5,1.87-5,3.78Zm0,0" transform="translate(-71.26 -119.07)"/><path class="cls-2" d="M250.28,125.07a26.87,26.87,0,1,0,26.87,26.87,26.9,26.9,0,0,0-26.87-26.87Zm1.43,42.76v2.75a1.35,1.35,0,1,1-2.67,0v-2.75c-7.5-.18-11.24-4.67-11.24-8.18a2.56,2.56,0,0,1,2.76-2.8c5,0,1.1,6.13,8.48,6.45V154c-6.58-1.2-10.57-4.08-10.57-9,0-6.05,5-9.16,10.57-9.34v-2.37a1.34,1.34,0,1,1,2.67,0v2.37c3.46.1,10.57,2.26,10.57,6.62a2.68,2.68,0,0,1-2.81,2.75c-2.88,0-2.84-4.75-7.76-4.84v8.44c5.86,1.25,11,3,11,9.83,0,5.95-4.44,9-11,9.37Zm0,0" transform="translate(-71.26 -119.07)"/><g class="cls-3"><path class="cls-2" d="M324.21,259.73h-9.34l0-53.15h9.33V195.94L175.34,196v10.63h9.34l0,53.15h-9.34v10.06h-8.22v11.8l165.26-.08v-11.8h-8.21Zm-83.28,0,0-53.15h17.71l0,53.15Zm54.68,0h-17.7l0-53.16h17.69ZM204,206.64h17.71l0,53.15H204Z" transform="translate(-71.26 -119.07)"/><path class="cls-2" d="M284.42,158a35.41,35.41,0,0,1-69.74-.12l-.41-1.57L167.12,188v5l165.27-.08v-5l-47.3-31.74Z" transform="translate(-71.26 -119.07)"/></g><path class="cls-4" d="M251.71,154.5v8.79c2.66-.18,5.46-1.42,5.46-4.36s-3.07-3.9-5.46-4.43Zm0,0" transform="translate(-71.26 -119.07)"/><path class="cls-4" d="M244.07,144c0,2.23,1.64,3.5,5,4.18v-8c-3,.09-5,1.87-5,3.78Zm0,0" transform="translate(-71.26 -119.07)"/><path class="cls-4" d="M250.28,125.07a26.87,26.87,0,1,0,26.87,26.87,26.9,26.9,0,0,0-26.87-26.87Zm1.43,42.76v2.75a1.35,1.35,0,1,1-2.67,0v-2.75c-7.5-.18-11.24-4.67-11.24-8.18a2.56,2.56,0,0,1,2.76-2.8c5,0,1.1,6.13,8.48,6.45V154c-6.58-1.2-10.57-4.08-10.57-9,0-6.05,5-9.16,10.57-9.34v-2.37a1.34,1.34,0,1,1,2.67,0v2.37c3.46.1,10.57,2.26,10.57,6.62a2.68,2.68,0,0,1-2.81,2.75c-2.88,0-2.84-4.75-7.76-4.84v8.44c5.86,1.25,11,3,11,9.83,0,5.95-4.44,9-11,9.37Zm0,0" transform="translate(-71.26 -119.07)"/><g class="cls-3"><path class="cls-4" d="M324.21,259.73h-9.34l0-53.15h9.33V195.94L175.34,196v10.63h9.34l0,53.15h-9.34v10.06h-8.22v11.8l165.26-.08v-11.8h-8.21Zm-83.28,0,0-53.15h17.71l0,53.15Zm54.68,0h-17.7l0-53.16h17.69ZM204,206.64h17.71l0,53.15H204Z" transform="translate(-71.26 -119.07)"/><path class="cls-4" d="M284.42,158a35.41,35.41,0,0,1-69.74-.12l-.41-1.57L167.12,188v5l165.27-.08v-5l-47.3-31.74Z" transform="translate(-71.26 -119.07)"/></g><polygon class="cls-5" points="205.96 127.81 220.75 184.47 230.59 166.5 248.35 184.26 262.43 170.16 244.65 152.43 262.62 142.61 205.96 127.81"/><polygon class="cls-4" points="205.96 127.81 220.75 184.47 230.59 166.5 248.35 184.26 262.43 170.16 244.65 152.43 262.62 142.61 205.96 127.81"/><path class="cls-6" d="M233.14,292.08a165.76,165.76,0,0,0-51.74-14.84c.61-4.23,1.21-8.48,1.81-12.71,4-2.54,6.82-6.27,7.07-9.39.46-3.93.92-7.85,1.37-11.79a3.5,3.5,0,0,0,2.14,1.08,3.43,3.43,0,0,0,3.76-3.06l1.88-18.15a3.43,3.43,0,0,0-5.05-3.35c.41-3.46.81-6.9,1.2-10.36.33-4.73,2.67-17.35-6.45-25.49-13.19-12.94-42.2-12.94-55.38,0-9.11,8.14-6.78,20.76-6.46,25.49.4,3.46.81,6.9,1.2,10.36a3.36,3.36,0,0,0-2-.4,3.43,3.43,0,0,0-3,3.75l1.88,18.15a3.42,3.42,0,0,0,3.75,3.06,3.5,3.5,0,0,0,2.14-1.08c.45,3.94.91,7.86,1.37,11.79.28,3.12,3.12,6.85,7.08,9.39q.9,6.35,1.79,12.71a165.72,165.72,0,0,0-51.72,14.84c-5.28,2.78-9,9.95-8.42,15.51q.93,9.57,1.91,19.13c.57,5.56,5.34,11,10.62,12.07a424,424,0,0,0,135.19,0c5.27-1,10-6.51,10.61-12.07.66-6.37,1.28-12.75,1.9-19.13C242.1,302,238.42,294.85,233.14,292.08Z" transform="translate(-71.26 -119.07)"/><path class="cls-4" d="M233.14,292.08a165.76,165.76,0,0,0-51.74-14.84c.61-4.23,1.21-8.48,1.81-12.71,4-2.54,6.82-6.27,7.07-9.39.46-3.93.92-7.85,1.37-11.79a3.5,3.5,0,0,0,2.14,1.08,3.43,3.43,0,0,0,3.76-3.06l1.88-18.15a3.43,3.43,0,0,0-5.05-3.35c.41-3.46.81-6.9,1.2-10.36.33-4.73,2.67-17.35-6.45-25.49-13.19-12.94-42.2-12.94-55.38,0-9.11,8.14-6.78,20.76-6.46,25.49.4,3.46.81,6.9,1.2,10.36a3.36,3.36,0,0,0-2-.4,3.43,3.43,0,0,0-3,3.75l1.88,18.15a3.42,3.42,0,0,0,3.75,3.06,3.5,3.5,0,0,0,2.14-1.08c.45,3.94.91,7.86,1.37,11.79.28,3.12,3.12,6.85,7.08,9.39q.9,6.35,1.79,12.71a165.72,165.72,0,0,0-51.72,14.84c-5.28,2.78-9,9.95-8.42,15.51q.93,9.57,1.91,19.13c.57,5.56,5.34,11,10.62,12.07a424,424,0,0,0,135.19,0c5.27-1,10-6.51,10.61-12.07.66-6.37,1.28-12.75,1.9-19.13C242.1,302,238.42,294.85,233.14,292.08Z" transform="translate(-71.26 -119.07)"/></svg>