<?xml version="1.0" encoding="UTF-8"?>
<svg width="18px" height="18px" viewBox="0 0 18 18" version="1.1" xmlns="http://www.w3.org/2000/svg" xmlns:xlink="http://www.w3.org/1999/xlink">
    <!-- Generator: Sketch 57.1 (83088) - https://sketch.com -->
    <title>Group 7</title>
    <desc>Created with Sketch.</desc>
    <g id="Page-1" stroke="none" stroke-width="1" fill="none" fill-rule="evenodd">
        <g id="0.0_BetOnline_CashierWithdrawal-@2x" transform="translate(-34.000000, -153.000000)">
            <g id="Group-5-Copy" transform="translate(34.000000, 152.000000)">
                <g id="Group-7" transform="translate(0.000000, 1.000000)">
                    <path d="M9,0 C6.61284,0 4.3236,0.94851 2.6361,2.6361 C0.9486,4.32369 0,6.61302 0,9 C0,11.38698 0.94851,13.6764 2.6361,15.3639 C4.32369,17.0514 6.61302,18 9,18 C11.38698,18 13.6764,17.05149 15.3639,15.3639 C17.0514,13.67631 18,11.38698 18,9 C18,6.61302 17.05149,4.3236 15.3639,2.6361 C13.67631,0.9486 11.38698,0 9,0 Z" id="Page-1" fill="#EE3536"></path>
                    <g id="Group-8" transform="translate(6.000000, 5.000000)"></g>
                    <polygon id="Disclosure-Indicator" fill="#FFFFFF" transform="translate(8.500000, 9.000000) rotate(-180.000000) translate(-8.500000, -9.000000) " points="6 5.92307692 6.9375 5 11 9 6.9375 13 6 12.0769231 9.125 9"></polygon>
                </g>
            </g>
        </g>
    </g>
</svg>