<svg id="Layer_3" data-name="Layer 3" xmlns="http://www.w3.org/2000/svg" xmlns:xlink="http://www.w3.org/1999/xlink" viewBox="0 0 318.39 311.95"><defs><style>.cls-1{fill:none;}.cls-2{fill:#f02f30;}.cls-3{clip-path:url(#clip-path);}</style><clipPath id="clip-path" transform="translate(-57.27 -66.93)"><path class="cls-1" d="M329.47,286.84l18.65-1.33,23.14-28.74,17.55-50.51-3.54-70.61L352,77.48,284.26,54.29l-66.82,9.43-55,24.52-43.24,57.13,1.6,80.5a139.77,139.77,0,0,1,32.11-7.49,92,92,0,0,1,39.3,3.72,114.42,114.42,0,0,1,22.55,10.7c2.08,1.23,4.22,2.36,6.22,3.7.6.4,1.21.77,1.82,1.13l56.16,15.89A142.39,142.39,0,0,1,296.6,257,121.36,121.36,0,0,1,313,262.37c10.2,4.37,13.66,12.06,10.78,22.79a32.27,32.27,0,0,1-2,5.63Z"/></clipPath></defs><path class="cls-2" d="M217.46,378.6c-21-8.23-39.94-20.3-59.54-31.15-9.71-5.38-19.49-10.64-29.16-16.08-5.43-3.05-11.34-4.2-17.39-5-.85-.11-1.69-.24-2.53-.4-2.88-.51-4.1-2-3.9-4.91.3-4.36.67-8.72,1-13.07q1.29-15.56,2.59-31.1c.74-9,1.49-17.92,2.19-26.89a4.89,4.89,0,0,1,3.48-4.42,142.57,142.57,0,0,1,38.66-10,92,92,0,0,1,39.3,3.72A114.42,114.42,0,0,1,214.74,250c2.08,1.23,4.22,2.36,6.22,3.7,5.64,3.77,12,5.3,18.62,5.81,12.67,1,25.34,2.16,37.67,5.47a123.24,123.24,0,0,1,16.43,5.38c10.2,4.37,13.65,12.06,10.77,22.79a25.15,25.15,0,0,1-5.37,10.67c-3.75,4.14-8.31,5.54-13.87,4.56-16.42-2.89-32.84-5.8-49.32-8.25a48.73,48.73,0,0,0-14.25.45,116.87,116.87,0,0,1-21.79,1.06c-.52,0-1,0-1.58,0l-.12.42a14.53,14.53,0,0,0,1.35.59c4.08,1.26,8.09,2.91,12.26,3.64,6.78,1.19,12.79,4.14,18.65,7.38a63,63,0,0,0,33.8,7.64A163.14,163.14,0,0,0,295,317.41a44.49,44.49,0,0,0,23.38-14.07,45.27,45.27,0,0,1,20-13.21,17.89,17.89,0,0,1,10.83-.43c4.55,1.36,7.91,4.07,9.39,8.76a2.37,2.37,0,0,0,.3.5v3.32c-1.11,2-2.22,4-3.41,6.05A20.35,20.35,0,0,1,357,312c1.24,5.06-.2,9.58-3.4,13.51a47.59,47.59,0,0,1-6.22,6.55q-11,9.25-22.28,18.21c-5.15,4.09-10.39,8.08-15.74,11.9a28,28,0,0,1-12.2,4.88c-6.85,1-13.69,2.1-20.51,3.3-12.72,2.22-25.4,4.58-38.11,6.82-3,.54-6,.87-9.06,1.27C227.11,378.7,219,379.21,217.46,378.6Z" transform="translate(-57.27 -66.93)"/><g class="cls-3"><path class="cls-2" d="M199.67,167.17l-3.31,15.66a10,10,0,0,1,5.93-2c6.62,0,8.76,4.69,8.76,8.75,0,10.83-5.93,26.07-18.27,26.07-6.83,0-11.38-1.93-11.38-7.86a16.38,16.38,0,0,1,.41-3.38l7.66-35.86ZM199.4,185a10.36,10.36,0,0,0-3.73,1l-3.93,18.48a21.14,21.14,0,0,0-.55,3.79c0,2.07,1,2.55,3,2.55,5.65,0,9.1-15.72,9.1-20.68C203.33,185.93,201.12,185,199.4,185Z" transform="translate(-57.27 -66.93)"/><path class="cls-2" d="M239.11,190.41a2.66,2.66,0,0,0,2,.62c3.25,0,4.69-2.34,7.24-3.38l.28,1.45a19.15,19.15,0,0,1-9.72,6.07c-1.31,13.86-8.83,20.69-15.72,20.69-7.38,0-10.56-3.11-10.56-11.31,0-17,8.62-24.27,18.14-24.27C237.32,180.28,239,185.38,239.11,190.41Zm-5.31,5.45a2.8,2.8,0,0,1-2.89-3.1,5.2,5.2,0,0,1,3-4.83c-.2-2.28-1-3.59-2.89-3.59-6.49,0-9.24,14.07-9.24,19.59,0,4.14,1.93,5.24,4.62,5.24C230.63,209.17,233,202.55,233.8,195.86Z" transform="translate(-57.27 -66.93)"/><path class="cls-2" d="M270.21,204.41a8.49,8.49,0,0,0-.34,2.21c0,1.51.76,2.55,3.44,2.55s3.8-2.14,6.56-4.35h2.34c-3.17,3.18-8.41,10.62-13.79,10.62s-8.55-2.34-8.55-7.51a17.09,17.09,0,0,1,.41-3.52L262.9,192a8.29,8.29,0,0,0,.21-1.79c0-2.49-1.31-4.07-3.17-4.07a7.29,7.29,0,0,0-4.35,1.45l-5.86,27.85H239.8L247.11,181H257l-.83,3.72c2.83-2.07,6-3.72,9-3.72,3.72,0,7.93,4,7.93,8.61a6.62,6.62,0,0,1-.14,1.66Z" transform="translate(-57.27 -66.93)"/><path class="cls-2" d="M309.72,181l-5,23.44a12.85,12.85,0,0,0-.28,2.14c0,1.52.69,2.62,3.45,2.62s6.34-3.86,9.1-6.07h2.35c-3.18,3.17-11,12.34-16.35,12.34-4.69,0-7.86-1.79-8.48-5.79-3.24,3-7,5.79-9.93,5.79-5.31,0-8.62-2.34-8.62-7.51a17.64,17.64,0,0,1,.41-3.52l5-23.44h9.93l-5,23.44a13.9,13.9,0,0,0-.27,2.14c0,1.52.69,2.62,3.45,2.62,1.44,0,3.17-1.1,4.89-2.48a15.93,15.93,0,0,1,.42-2.28l5-23.44Z" transform="translate(-57.27 -66.93)"/><path class="cls-2" d="M332.34,179.72v1c0,11.38,5,14.69,5,22.76,0,6.41-4.07,12-13.38,12-7.93,0-11.79-2.27-11.79-9,0-5.45,2.48-8.62,5.24-8.83,2.35-4.48,3.72-10.55,4.9-15.79ZM318.2,206.13a5.39,5.39,0,0,1-2.48-.62c0,4.07,2.2,5.87,5.86,5.87,2.34,0,5.72-2.9,5.72-8.21,0-4.28-3.1-7.93-3.24-16.55-1.1,3.38-2.07,7.79-3.58,11.24,1.65.55,2.27,1.79,2.27,3.86A4.47,4.47,0,0,1,318.2,206.13Z" transform="translate(-57.27 -66.93)"/><path class="cls-2" d="M256.46,66.93a119.2,119.2,0,1,0,119.2,119.2A119.19,119.19,0,0,0,256.46,66.93Zm5,8.44a5.21,5.21,0,1,1-5.21-5.21A5.22,5.22,0,0,1,261.44,75.37ZM151.8,185.19a5.22,5.22,0,1,1-5.22-5.21A5.22,5.22,0,0,1,151.8,185.19Zm2.1-20.89a5.21,5.21,0,1,1-5.21-5.21A5.22,5.22,0,0,1,153.9,164.3Zm6.24-20.25a5.21,5.21,0,1,1-5.21-5.22A5.21,5.21,0,0,1,160.14,144.05Zm9.73-18.62a5.21,5.21,0,1,1-5.21-5.21A5.21,5.21,0,0,1,169.87,125.43Zm13.44-16.86a5.22,5.22,0,1,1-5.21-5.21A5.21,5.21,0,0,1,183.31,108.57Zm17.24-13.9a5.21,5.21,0,1,1-5.21-5.21A5.21,5.21,0,0,1,200.55,94.67Zm19.27-10.43A5.22,5.22,0,1,1,214.6,79,5.22,5.22,0,0,1,219.82,84.24Zm21.25-6.59a5.22,5.22,0,1,1-5.21-5.22A5.21,5.21,0,0,1,241.07,77.65Zm125,112.58a5.21,5.21,0,1,1,5.21-5.21A5.21,5.21,0,0,1,366.05,190.23ZM277.12,82.69a5.21,5.21,0,1,1,5.21-5.21A5.21,5.21,0,0,1,277.12,82.69Zm20.26,6.24a5.21,5.21,0,1,1,5.21-5.21A5.21,5.21,0,0,1,297.38,88.93ZM316,98.67a5.22,5.22,0,1,1,5.22-5.22A5.22,5.22,0,0,1,316,98.67Zm16.86,13.43a5.21,5.21,0,1,1,5.21-5.21A5.21,5.21,0,0,1,332.85,112.1Zm13.9,17.24a5.21,5.21,0,1,1,5.22-5.21A5.21,5.21,0,0,1,346.75,129.34Zm10.43,19.27a5.22,5.22,0,1,1,5.21-5.22A5.22,5.22,0,0,1,357.18,148.61Zm6.6,21.25a5.22,5.22,0,1,1,5.21-5.21A5.22,5.22,0,0,1,363.78,169.86Zm-4.9,36.4a5.21,5.21,0,1,1,5.21,5.21A5.22,5.22,0,0,1,358.88,206.26Zm-6.24,20.25a5.21,5.21,0,1,1,5.21,5.22A5.21,5.21,0,0,1,352.64,226.51Zm-9.73,18.62a5.21,5.21,0,1,1,5.21,5.21A5.21,5.21,0,0,1,342.91,245.13ZM329.47,262a5.21,5.21,0,1,1,5.21,5.21A5.22,5.22,0,0,1,329.47,262Zm-17.24,13.9a5.21,5.21,0,1,1,5.21,5.21A5.21,5.21,0,0,1,312.23,275.89ZM293,286.31a5.22,5.22,0,1,1,5.22,5.22A5.22,5.22,0,0,1,293,286.31Zm-21.25,6.6a5.22,5.22,0,1,1,5.21,5.21A5.21,5.21,0,0,1,271.71,292.91ZM256.55,290a5.22,5.22,0,1,1-5.21,5.21A5.21,5.21,0,0,1,256.55,290Zm-20.89-2.11a5.22,5.22,0,1,1-5.21,5.22A5.22,5.22,0,0,1,235.66,287.86Zm-20.26-6.24a5.22,5.22,0,1,1-5.21,5.22A5.22,5.22,0,0,1,215.4,281.62Zm-18.61-9.73a5.22,5.22,0,1,1-5.22,5.22A5.22,5.22,0,0,1,196.79,271.89Zm-16.86-13.43a5.21,5.21,0,1,1-5.21,5.21A5.21,5.21,0,0,1,179.93,258.46ZM166,241.22a5.21,5.21,0,1,1-5.22,5.21A5.21,5.21,0,0,1,166,241.22ZM155.6,222a5.22,5.22,0,1,1-5.21,5.21A5.21,5.21,0,0,1,155.6,222ZM149,200.7a5.21,5.21,0,1,1-5.21,5.21A5.22,5.22,0,0,1,149,200.7ZM357,185A100.49,100.49,0,1,1,256.55,84.53,100.49,100.49,0,0,1,357,185Z" transform="translate(-57.27 -66.93)"/><polygon class="cls-2" points="215.34 87.03 216.2 98.36 205.74 93.89 195.23 98.2 196.23 86.88 188.91 78.21 199.98 75.68 205.95 66.02 211.78 75.77 222.82 78.47 215.34 87.03"/><polygon class="cls-2" points="179.11 91.39 179.62 98.36 173.19 95.61 166.73 98.26 167.35 91.29 162.81 85.95 169.65 84.4 173.31 78.44 176.91 84.45 183.71 86.11 179.11 91.39"/><polygon class="cls-2" points="245.31 91.39 245.85 98.36 239.41 95.61 232.94 98.26 233.56 91.29 229.04 85.95 235.86 84.4 239.54 78.44 243.12 84.45 249.92 86.11 245.31 91.39"/><polygon class="cls-2" points="265.3 96.02 265.55 99.39 262.44 98.06 259.31 99.34 259.61 95.98 257.42 93.4 260.72 92.64 262.51 89.77 264.23 92.67 267.51 93.47 265.3 96.02"/><polygon class="cls-2" points="155.85 96.02 156.1 99.39 152.99 98.06 149.86 99.34 150.16 95.98 147.99 93.4 151.26 92.64 153.05 89.77 154.78 92.67 158.06 93.47 155.85 96.02"/></g><path class="cls-2" d="M57.27,321.88c.09-.84.24-1.68.25-2.52a480.28,480.28,0,0,1,3.83-55.45c1.45-10.89,3.53-21.69,5.39-32.53a4.05,4.05,0,0,1,4.6-3.62Q84.68,228.33,98,229a4.18,4.18,0,0,1,4,5.06c-3.23,21.46-6.12,43-7.87,64.59C93.26,309.74,93,320.9,92.54,332c-.1,2.3.2,4.61.29,6.92a4.14,4.14,0,0,1-4.42,4.58q-13.47-.56-26.95-1.22a4.12,4.12,0,0,1-3.92-4c0-.74-.17-1.48-.27-2.22Z" transform="translate(-57.27 -66.93)"/></svg>