<?xml version="1.0" encoding="UTF-8"?>
<svg width="26" height="26" viewBox="0 0 26 26" xmlns="http://www.w3.org/2000/svg"><g fill-rule="nonzero" fill="none"><g fill="#000"><path d="M4.896 5.204C6.902 3.1 9.582 1.921 12.444 1.886h.142c2.428 0 4.756.841 6.646 2.39l-.137.002c-.5.01-.908.44-.908.963.01.523.418.934.933.934l2.431-.031a.91.91 0 0 0 .651-.28.956.956 0 0 0 .267-.674l-.03-2.512c-.01-.527-.413-.933-.92-.933h-.017c-.5.01-.907.439-.907.958l.003.283A12.296 12.296 0 0 0 12.566 0h-.148C9.064.037 5.925 1.419 3.579 3.89a12.983 12.983 0 0 0-3.315 6.386 13.343 13.343 0 0 0 .48 7.039c.14.358.486.6.863.6.096 0 .194-.017.314-.055a.96.96 0 0 0 .556-1.21c-1.402-4.01-.475-8.395 2.42-11.446M24.62 8.057v-.001a.916.916 0 0 0-1.178-.572.956.956 0 0 0-.556 1.21c1.398 4.013.47 8.396-2.425 11.441-2.032 2.136-4.755 3.313-7.67 3.313-2.435 0-4.774-.842-6.663-2.385h.136c.5-.012.907-.44.907-.964a.935.935 0 0 0-.933-.934l-2.441.031c-.5.01-.908.44-.908.96l.03 2.51c.01.524.418.934.936.934.5-.01.908-.438.908-.958l-.003-.285a12.312 12.312 0 0 0 8.037 2.983c3.414 0 6.606-1.38 8.987-3.885a12.983 12.983 0 0 0 3.314-6.385c.473-2.34.307-4.764-.478-7.013"/><path d="M12.856 4.457c-4.299 0-7.8 3.602-7.8 8.023 0 4.42 3.501 8.023 7.8 8.023 4.298 0 7.8-3.602 7.8-8.023 0-4.42-3.502-8.023-7.8-8.023zm0 1.72c3.395 0 6.128 2.811 6.128 6.303s-2.733 6.304-6.128 6.304-6.128-2.812-6.128-6.304c0-3.492 2.733-6.304 6.128-6.304z"/></g><circle fill="#000" cx="13.406" cy="12.594" r="6.906"/><path d="M12.928 7.321a.852.852 0 0 0-.74.87v4.297c-.002.312.162.6.426.753l2.508 1.432c.193.112.423.14.636.077a.84.84 0 0 0 .504-.408.876.876 0 0 0-.322-1.173l-2.08-1.191V8.19a.872.872 0 0 0-.243-.622.823.823 0 0 0-.603-.255.874.874 0 0 0-.086.008z" fill="#FFF"/></g></svg>