<svg id="Layer_3" data-name="Layer 3" xmlns="http://www.w3.org/2000/svg" viewBox="0 0 179.41 179.41"><defs><style>.cls-1{fill:#f02f30;}.cls-2{fill:#fff;}</style></defs><circle class="cls-1" cx="89.7" cy="89.7" r="89.7"/><path class="cls-2" d="M195.24,172.22a43,43,0,0,1,4.71-3.61,33.81,33.81,0,0,1,5.55-3,35.11,35.11,0,0,1,6.46-2,37.26,37.26,0,0,1,7.54-.72,31.25,31.25,0,0,1,10,1.52,22.65,22.65,0,0,1,7.76,4.34,19.19,19.19,0,0,1,5,6.81,21.76,21.76,0,0,1,1.78,8.92,22.58,22.58,0,0,1-1.4,8.34,22.85,22.85,0,0,1-3.52,6.11,27.36,27.36,0,0,1-4.59,4.49c-1.64,1.27-3.21,2.47-4.69,3.59a36.85,36.85,0,0,0-3.83,3.29,6.51,6.51,0,0,0-1.93,3.64l-1.46,9.25H212l-1.08-10.33a2.86,2.86,0,0,1-.06-.53v-.54a8.53,8.53,0,0,1,1.39-4.85,19.58,19.58,0,0,1,3.49-3.86q2.09-1.82,4.49-3.52a39.54,39.54,0,0,0,4.5-3.7,18.73,18.73,0,0,0,3.48-4.53,12,12,0,0,0,1.4-6,9.4,9.4,0,0,0-.86-4.08,9.27,9.27,0,0,0-2.37-3.11,10.75,10.75,0,0,0-3.64-2,14.54,14.54,0,0,0-4.6-.7,20.75,20.75,0,0,0-6.11.79,22.17,22.17,0,0,0-4.24,1.78c-1.17.65-2.15,1.24-2.95,1.77a4,4,0,0,1-2.15.79,3.45,3.45,0,0,1-3.3-1.9Zm12,74.68a9.84,9.84,0,0,1,.72-3.74,9,9,0,0,1,2-3,9.76,9.76,0,0,1,3.07-2,9.32,9.32,0,0,1,3.8-.77,9.13,9.13,0,0,1,3.73.77,9.21,9.21,0,0,1,5.07,5.06,9.66,9.66,0,0,1,0,7.51,9.71,9.71,0,0,1-2,3,9.26,9.26,0,0,1-3.05,2,9.61,9.61,0,0,1-3.73.73,9.82,9.82,0,0,1-3.8-.73,9.35,9.35,0,0,1-3.07-2,9.11,9.11,0,0,1-2-3A9.77,9.77,0,0,1,207.21,246.9Z" transform="translate(-129.95 -119.95)"/></svg>