<svg width="28" height="14" viewBox="0 0 28 14" fill="none" xmlns="http://www.w3.org/2000/svg">
<path fill-rule="evenodd" clip-rule="evenodd" d="M7.31816 0H27.3636C27.6818 0 27.9204 0.237793 27.9204 0.71344V12.6036C27.9204 12.9207 27.6818 13.1585 27.3636 13.1585H7.31816C6.99998 13.1585 6.76134 12.8415 6.76134 12.6036V9.67072H9.70453C10.3867 9.53479 10.3083 8.6991 10.2722 8.3139L10.2675 8.26355C10.2639 8.22272 10.2613 8.18909 10.2613 8.16461C10.2613 8.48169 10.0227 8.71948 9.70453 8.71948H3.97725C3.65907 8.71948 3.42044 8.40247 3.42044 8.16461C3.42044 7.84753 3.65907 7.60974 3.97725 7.60974H6.76134V4.20123H4.21588C3.89771 4.20123 3.65907 3.88416 3.65907 3.64636C3.65907 3.32928 3.89771 3.09149 4.21588 3.09149H6.76134V0.554871C6.76134 0.237793 6.99998 0 7.31816 0ZM7.87498 1.03052V2.85364C8.82953 2.61584 9.62498 1.90247 9.78407 1.03052H7.87498ZM7.87498 10.1464V11.8903H9.78407C9.62498 11.0183 8.82953 10.3842 7.87498 10.1464ZM11.8522 6.5C11.8522 9.27441 14.3182 11.5732 17.3409 11.5732C20.3636 11.5732 22.8295 9.27441 22.8295 6.5C22.8295 3.72559 20.3636 1.42682 17.3409 1.42682C14.3182 1.42682 11.8522 3.72559 11.8522 6.5ZM24.8977 11.8903H26.8068V10.1464C25.8522 10.3049 25.1363 11.0183 24.8977 11.8903ZM24.8977 1.10974C25.0568 1.98169 25.8522 2.61584 26.8068 2.85364V1.10974H24.8977ZM12.9659 6.50012C12.9659 4.28058 14.875 2.4574 17.3409 2.4574C19.8068 2.4574 21.7955 4.28058 21.7159 6.50012C21.7159 8.7196 19.8068 10.5428 17.3409 10.5428C14.9546 10.5428 12.9659 8.7196 12.9659 6.50012ZM16.4659 5.78668C16.2273 5.62817 16.1477 5.54889 16.1477 5.54889L16.0682 5.39038C16.0682 5.23181 16.3864 4.99402 16.7841 4.99402H17.8182C18.2159 4.99402 18.5341 5.15253 18.5341 5.39038H19.6477C19.6477 4.67694 18.9318 4.04279 17.9773 3.9635V3.48792H16.8636V3.9635C15.8296 3.9635 15.0341 4.67694 15.0341 5.4696V5.54889C15.0341 6.02448 15.4318 6.42084 16.0682 6.73792H16.1477L18.2159 7.13428C18.4647 7.19623 18.5676 7.3067 18.6007 7.35193C18.5372 7.50433 18.2484 7.68915 17.8977 7.68915H16.8636C16.4659 7.68915 16.1477 7.53058 16.1477 7.29279H15.0341C15.0341 8.16473 15.8296 8.79889 16.8636 8.79889V9.35376H17.9773V8.79889C18.9318 8.7196 19.6477 8.16473 19.6477 7.37207C19.6477 7.05499 19.4886 6.57941 18.6136 6.18304H18.5341H18.4546L17.5796 6.02448L16.4659 5.78668ZM18.6007 7.35193C18.6063 7.33844 18.6102 7.3252 18.6121 7.31232C18.6131 7.30573 18.6136 7.29919 18.6136 7.29279V7.37207C18.6136 7.37207 18.6122 7.3692 18.6089 7.36395C18.6068 7.36078 18.6041 7.35669 18.6007 7.35193ZM5.88637 5.86591C5.88637 5.62811 5.64772 5.31104 5.32954 5.31104H0.556824C0.238632 5.39026 0 5.62811 0 5.86591C0 6.1037 0.238632 6.42078 0.556824 6.42078H5.32954C5.64772 6.42078 5.88637 6.18298 5.88637 5.86591ZM2.4659 4.04272H2.06818C1.75 4.04272 1.51135 3.80493 1.51135 3.48785C1.51135 3.17078 1.75 2.93298 2.06818 2.93298H2.4659C2.78409 2.93298 3.02272 3.25006 3.02272 3.48785C3.02272 3.80493 2.78409 4.04272 2.4659 4.04272Z" fill="white"/>
</svg>
