<?xml version="1.0" encoding="UTF-8"?>
<svg width="55px" height="53px" viewBox="0 0 55 53" version="1.1" xmlns="http://www.w3.org/2000/svg" xmlns:xlink="http://www.w3.org/1999/xlink">
    <!-- Generator: Sketch 45.2 (43514) - http://www.bohemiancoding.com/sketch -->
    <title>Promotions</title>
    <desc>Created with Sketch.</desc>
    <defs></defs>
    <g id="Mobile-V3" stroke="none" stroke-width="1" fill="none" fill-rule="evenodd">
        <g id="4.2.5_Deposit-Options-(bonus-options-with-expand-/-collapse-OPTION-1)" transform="translate(-38.000000, -205.000000)" fill-rule="nonzero" fill="#EE3536">
            <g id="Promotions" transform="translate(38.000000, 205.000000)">
                <path d="M27.197255,7.94056398 C25.8398739,4.11234206 23.1251117,0.718617824 18.1835659,0.72676211 C16.4788987,0.851362909 14.9916163,1.56718462 13.8993317,2.57198598 C12.4438798,3.91083883 11.6034573,5.73210493 11.5875759,7.53755754 C11.5875759,8.88964485 12.226502,10.0083984 13.1146297,10.891239 L0.0498365574,10.891239 L0.0498365574,21.7557174 L25.8400775,21.7557174 L25.8400775,16.3235461 L28.5548396,16.3235461 L28.5548396,21.7557174 L54.3450808,21.7557174 L54.3450808,10.891239 L41.2802876,10.891239 C42.1684221,10.0083984 42.8073414,8.88964485 42.8073414,7.53755754 C42.7914342,5.73481969 41.9510374,3.91077096 40.4955855,2.57198598 C39.403301,1.56718462 37.9160185,0.851369695 36.2113515,0.72676211 C31.2696699,0.718808536 28.5550433,4.11227419 27.1976623,7.94056398 L27.197255,7.94056398 Z M18.3532385,3.44159219 C22.0383245,3.35940955 24.7186092,8.6882095 25.0553077,10.8888636 L19.7317948,10.8888636 C18.7482363,10.8888636 17.2052334,10.4487735 16.0626578,9.7435733 C14.9279551,9.04370761 14.3129257,8.20857888 14.3022703,7.55900415 C14.3022703,6.15126421 15.0154383,5.281658 15.7444877,4.58973299 C16.4258251,3.96141486 17.2821291,3.51604454 18.3532385,3.44444268 L18.3532385,3.44159219 Z M36.0867438,3.44954576 C37.1366103,3.52908151 37.9796796,3.96916482 38.6503617,4.58689539 C39.5570244,5.42202411 40.0793447,6.62032015 40.0925791,7.5349914 C39.7240705,8.61132675 39.0613089,9.28207663 38.3321916,9.7407357 C37.1895482,10.445963 35.646613,10.886026 34.6630546,10.886026 L29.3395417,10.886026 C29.9121869,8.86054192 32.6269831,3.43128898 36.086676,3.44689886 L36.0867438,3.44954576 Z M3.44308571,23.1105323 L3.44308571,52.3050851 L25.8398739,52.3050851 L25.8398739,27.1826756 L28.5546362,27.1826756 L28.5546362,52.3050851 L50.9514243,52.3050851 L50.9514243,23.1105323 L3.44308571,23.1105323 Z" id="Shape"></path>
            </g>
        </g>
    </g>
</svg>