<?xml version="1.0" encoding="UTF-8"?>
<svg xmlns="http://www.w3.org/2000/svg" width="500.586" height="423.561" viewBox="0 0 500.586 423.561"><g fill="#FFF"><path d="M282.695 184.512l-.043-94.634 24.708-5.85v12.394s6.388-16.308 21.229-20.101c4.574-1.146 6.874-.46 6.874-.46v24.145s-5.606-.234-12.94 2.699c-9.121 3.61-13.721 11.465-13.721 23.468l.025 52.246-26.132 6.093zM152.479 215.278s-4.001-6.023-4.001-27.312v-47.117l-12.715 3.02v-19.406l12.732-3.012v-21.15l26.271-6.196v21.15l18.555-4.4v19.38l-18.555 4.409s-.026 38.595 0 47.977c0 21.81 5.788 25.993 5.788 25.993l-28.075 6.664zM196.063 158.987c0-16.828 2.396-29.092 7.542-38.517 6.109-11.179 16.151-18.46 30.774-21.784 28.814-6.553 39.203 10.502 38.795 33.361-.139 8.176-.105 12.168-.105 12.168l-50.763 11.925v.824c0 15.986 3.359 23.563 13.478 21.411 8.748-1.84 11.179-7.325 11.864-14.086.121-1.111.165-3.88.165-3.88l23.788-5.701s.053 1.952.026 4.122c-.217 9.087-2.855 31.626-35.904 39.428-31.302 7.438-39.66-11.69-39.66-39.271m39.368-42.682c-8.41 1.909-12.818 10.154-13.01 23.832l25.542-6.084c.043-.616.043-1.987.043-4.122-.043-10.311-3.237-15.752-12.575-13.626M424.36 103.651c-.98-28.823 6.482-51.7 38.629-58.973 20.518-4.661 28.293.668 32.233 5.814 3.784 4.921 5.251 11.552 5.251 20.838l.026 1.719-25.178 5.979-.009-3.507c.009-11.021-3.037-15.205-11.039-13.2-9.513 2.387-13.357 11.413-13.357 29.369 0 6.379.035 7.516.035 8.375 0 18.243 2.499 26.601 13.452 24.301 9.512-1.961 10.813-10.319 10.97-17.635.018-1.154.069-4.835.069-4.835l25.117-5.928s.025 1.866.025 3.915c-.069 23.918-12.671 39.002-36.312 44.496-32.535 7.639-38.914-11.186-39.912-40.728M337.39 143.99c0-21.914 12.862-28.849 32.189-36.842 17.375-7.186 17.739-10.753 17.817-17.011.096-5.25-2.334-9.755-10.987-7.55-7.949 2.013-10.059 7.784-10.483 12.384-.234 2.474-.156 4.86-.156 4.86l-24.37 5.754s-.391-7.516 1.684-14.406c3.897-13.105 15.466-21.923 35.409-26.54 25.915-5.971 34.568 5.399 34.611 23.103v41.91c0 20.274 3.758 23.233 3.758 23.233l-23.928 5.668s-2.238-4.626-3.22-8.602c0 0-5.233 13.192-23.294 17.445-18.972 4.47-29.03-7.272-29.03-23.406m49.85-29.925s-4.981 3.671-12.74 7.446c-7.967 3.905-11.586 8.714-11.586 16.108 0 6.413 3.983 10.632 11.195 8.835 7.75-1.944 13.131-9.174 13.131-19.206v-13.183zM15.161 281.61C6.804 281.61 0 274.807 0 266.423c0-2.942.842-5.78 2.447-8.271l.165-.208.286-.069 35.722-8.428v27.122l-.563.13c-8.098 1.953-17.774 4.166-19.779 4.574-.999.234-2.066.337-3.117.337M15.161 316.317C6.804 316.317 0 309.539 0 301.173c0-2.978.842-5.815 2.447-8.245l.165-.269.286-.062 35.722-8.436v27.13l-.563.147c-8.098 1.944-17.774 4.192-19.779 4.583-.999.201-2.066.296-3.117.296M15.161 351.094C6.804 351.094 0 344.298 0 335.923c0-2.969.842-5.823 2.447-8.245l.165-.277 36.008-8.479v27.13l-.563.139c-8.549 2.065-18.053 4.21-19.779 4.601-.999.188-2.066.302-3.117.302M10.952 248.37l-.009-151.792 27.677-6.544v151.784zM79.889 235.448c0-9.408-7.655-17.071-17.062-17.071-9.46 0-17.089 7.663-17.089 17.071l.018 141.881c0 25.464 20.742 46.232 46.215 46.232 12.922 0 48.323-.061 48.323-.061l.018-59.189.017-66.003c0-7.49-3.697-14.433-9.929-18.607l-43.082-29.257-.009 66.437c0 2.04-1.641 3.706-3.68 3.706-2.022 0-3.653-1.666-3.653-3.706 0-.711-.087-72.659-.087-81.433M102.948 129.601c-17.87 4.122-24.64 19.041-24.64 19.041v-10.666L53.4 143.869l.026 68.137a25.37 25.37 0 0 1 9.399-1.787c6.448 0 12.323 2.395 16.828 6.37v-43.993c0-10.536 5.259-18.955 12.74-20.604 5.642-1.241 10.345.781 10.345 10.813l.018 64.188 26.236-6.161v-67.895c.001-16.462-6.317-27.954-26.044-23.336M484.305 32.45c-8.931 0-16.212-7.282-16.212-16.213C468.093 7.29 475.374 0 484.305 0s16.212 7.29 16.212 16.237c0 8.931-7.282 16.213-16.212 16.213m0-30.411c-7.81 0-14.19 6.37-14.19 14.198 0 7.829 6.379 14.182 14.19 14.182 7.819 0 14.182-6.352 14.182-14.182-.001-7.828-6.363-14.198-14.182-14.198"/><path d="M478.386 6.56h7.004c2.786 0 5.034 1.389 5.034 5.086 0 2.569-1.146 4.548-3.307 4.887v.034c1.961.2 2.994 1.284 3.098 4.07.035 1.259.053 2.812.113 4.027.069.972.529 1.441.946 1.701h-3.567c-.33-.373-.469-.955-.538-1.754-.122-1.188-.096-2.3-.139-3.74-.053-2.161-.712-3.106-2.891-3.106h-2.577v8.601h-3.177V6.56zm5.693 8.827c2.04 0 3.159-1.224 3.159-3.229 0-2.108-.894-3.202-2.985-3.202h-2.69v6.431h2.516z"/></g></svg>