<svg xmlns="http://www.w3.org/2000/svg" width="179.913" height="179.913" viewBox="0 0 179.913 179.913">
  <title>zCash_Icon_Black</title>
  <path d="M123.664,111.833H86.386v-.35A201.221,201.221,0,0,0,99.057,95.7l23.312-32.482V47.254H99.3V31.607H79.946V47.254h-21V68.36H93.037v.35c-4.41,5.25-7.911,9.451-12.356,15.261L56.249,117.854V133.08h23.7v15.226H99.3V133.08h24.362Z" fill="#ffffff"/>
  <path d="M89.957,0a89.957,89.957,0,1,0,89.957,89.957A89.973,89.973,0,0,0,89.957,0Zm0,159.962a70.005,70.005,0,1,1,70.005-70.005A69.986,69.986,0,0,1,89.957,159.962Z" fill="#ffffff"/>
</svg>
