<?xml version="1.0" encoding="utf-8"?>
<!-- Generator: Adobe Illustrator 24.0.2, SVG Export Plug-In . SVG Version: 6.00 Build 0)  -->
<svg version="1.1" id="Layer_1" xmlns="http://www.w3.org/2000/svg" xmlns:xlink="http://www.w3.org/1999/xlink" x="0px" y="0px"
	 viewBox="0 0 116 106.4" style="enable-background:new 0 0 116 106.4;" xml:space="preserve">
<style type="text/css">
	.st0{fill-rule:evenodd;clip-rule:evenodd;fill:#FFFFFF;}
</style>
<g>
	<path class="st0" d="M82.4,39.4c0,1.4,0.9,2.3,2.5,1.9c1.7-0.4,2.9-2,2.9-4.2v-2.9c0,0-1.1,0.8-2.8,1.6
		C83.2,36.7,82.4,37.7,82.4,39.4z"/>
	<path class="st0" d="M54.4,34.7c-1.8,0.4-2.8,2.2-2.9,5.2l5.6-1.3c0-0.1,0-0.4,0-0.9C57.1,35.4,56.4,34.2,54.4,34.7z"/>
	<path class="st0" d="M109.7,11.8c0-0.5-0.2-0.7-0.7-0.7h-0.6v1.4h0.6C109.4,12.5,109.7,12.3,109.7,11.8z"/>
	<path class="st0" d="M109,15.8c1.7,0,3.1-1.4,3.1-3.1s-1.4-3.1-3.1-3.1s-3.1,1.4-3.1,3.1C105.9,14.4,107.3,15.8,109,15.8z
		 M107.7,10.6h1.5c0.6,0,1.1,0.3,1.1,1.1c0,0.6-0.3,1-0.7,1.1l0,0c0.4,0,0.7,0.3,0.7,0.9c0,0.3,0,0.6,0,0.9c0,0.2,0.1,0.3,0.2,0.4
		h-0.8c-0.1-0.1-0.1-0.2-0.1-0.4c0-0.3,0-0.5,0-0.8c0-0.5-0.2-0.7-0.6-0.7h-0.6V15h-0.7V10.6z"/>
	<path class="st0" d="M106.3,0H9.7C4.3,0,0,4.3,0,9.7v87.1c0,5.3,4.3,9.7,9.7,9.7h96.7c5.3,0,9.7-4.3,9.7-9.7V9.7
		C116,4.3,111.7,0,106.3,0z M109,9.2c2,0,3.6,1.6,3.6,3.6s-1.6,3.6-3.6,3.6s-3.6-1.6-3.6-3.6S107,9.2,109,9.2z M19.9,39.4v2.3
		c0,0,1.5-3.3,5.4-4.2c4.3-1,5.7,1.5,5.7,5.1v14.9L25.3,59V44.9c0-2.2-1-2.6-2.3-2.4c-1.6,0.4-2.8,2.2-2.8,4.5v9.7
		c-1-0.9-2.3-1.4-3.7-1.4c-0.7,0-1.4,0.1-2.1,0.4v-15L19.9,39.4z M11.2,85.1h-0.1c-1.9,0.5-4,0.9-4.3,1c-0.2,0-0.5,0.1-0.7,0.1
		c-1.8,0-3.3-1.5-3.3-3.3c0-0.7,0.2-1.3,0.5-1.8V81l7.9-1.9V85.1z M11.2,77.5h-0.1c-1.8,0.4-3.9,0.9-4.3,1c-0.2,0-0.5,0.1-0.7,0.1
		c-1.8,0-3.3-1.5-3.3-3.3c0-0.7,0.2-1.3,0.5-1.8v-0.1h0.1l7.8-1.9V77.5z M11.2,69.9h-0.1c-1.8,0.4-3.9,0.9-4.3,1
		C6.5,70.9,6.3,71,6,71c-1.8,0-3.3-1.5-3.3-3.3c0-0.6,0.2-1.3,0.5-1.8l0,0h0.1l7.8-1.8L11.2,69.9L11.2,69.9z M11.2,62.2l-6.1,1.4
		V30.3l6.1-1.4V62.2z M33.5,89.1v13c0,0-7.8,0-10.6,0c-5.6,0-10.1-4.6-10.1-10.1V60.9c0-2.1,1.7-3.7,3.8-3.7s3.7,1.7,3.7,3.7
		c0,1.9,0,17.7,0,17.9c0,0.4,0.4,0.8,0.8,0.8s0.8-0.4,0.8-0.8c0-0.6,0-14.6,0-14.6l9.5,6.4c1.4,0.9,2.2,2.4,2.2,4.1
		C33.5,74.8,33.5,82,33.5,89.1z M45.1,37.7l-4.1,1c0,0,0,8.5,0,10.5c0,4.8,1.3,5.7,1.3,5.7l-6.2,1.5c0,0-0.9-1.3-0.9-6V40.1
		l-2.8,0.7v-4.3l2.8-0.7v-4.6l5.8-1.4v4.6l4.1-1C45.1,33.4,45.1,37.7,45.1,37.7z M62.6,40.8l-11.1,2.6v0.2c0,3.5,0.7,5.2,3,4.7
		c1.9-0.4,2.5-1.6,2.6-3.1c0-0.2,0-0.9,0-0.9l5.2-1.3c0,0,0,0.4,0,0.9c0,2-0.6,6.9-7.9,8.7c-6.9,1.6-8.7-2.6-8.7-8.6
		c0-3.7,0.5-6.4,1.7-8.5c1.3-2.5,3.5-4.1,6.8-4.8c6.3-1.4,8.6,2.3,8.5,7.3C62.6,39.9,62.6,40.8,62.6,40.8z M76.3,31.1
		c0,0-1.2-0.1-2.8,0.6c-2,0.8-3,2.5-3,5.2v11.5l-5.7,1.3V28.9l5.4-1.3v2.7c0,0,1.4-3.6,4.7-4.4c1-0.3,1.5-0.1,1.5-0.1L76.3,31.1
		L76.3,31.1z M89,44c0,0-0.5-1-0.7-1.9c0,0-1.1,2.9-5.1,3.8c-4.2,1-6.4-1.6-6.4-5.1c0-4.8,2.8-6.3,7.1-8.1c3.8-1.6,3.9-2.4,3.9-3.7
		c0-1.2-0.5-2.1-2.4-1.7C83.6,27.7,83.1,29,83,30c-0.1,0.5,0,1.1,0,1.1l-5.3,1.3c0,0-0.1-1.6,0.4-3.2c0.9-2.9,3.4-4.8,7.8-5.8
		c5.7-1.3,7.6,1.2,7.6,5.1v9.2c0,4.4,0.8,5.1,0.8,5.1L89,44z M104.6,40.8c-7.1,1.7-8.5-2.5-8.8-8.9c-0.2-6.3,1.4-11.3,8.5-12.9
		c4.5-1,6.2,0.1,7.1,1.3c0.8,1.1,1.2,2.5,1.2,4.6v0.4l-5.5,1.3c0,0,0-0.7,0-0.8c0-2.4-0.7-3.3-2.4-2.9c-2.1,0.5-2.9,2.5-2.9,6.4
		c0,1.4,0,1.6,0,1.8c0,4,0.5,5.8,3,5.3c2.1-0.4,2.4-2.3,2.4-3.9c0-0.3,0-1.1,0-1.1l5.5-1.3c0,0,0,0.4,0,0.9
		C112.6,36.3,109.8,39.6,104.6,40.8z"/>
</g>
</svg>
