<?xml version="1.0" encoding="utf-8"?>
<!-- Generator: Adobe Illustrator 21.1.0, SVG Export Plug-In . SVG Version: 6.00 Build 0)  -->
<svg version="1.1" id="Layer_2" xmlns="http://www.w3.org/2000/svg" xmlns:xlink="http://www.w3.org/1999/xlink" x="0px" y="0px"
	 width="330.8px" height="38.6px" viewBox="0 0 330.8 38.6" style="enable-background:new 0 0 330.8 38.6;" xml:space="preserve">
<style type="text/css">
	.st0{fill:#FFFFFF;}
</style>
<g>
	<g>
		<path class="st0" d="M44.8,38L59.2,0.6h7.7L52.4,38H44.8z"/>
		<path class="st0" d="M86.8,38h-7.2L74,12.9L64.3,38h-7.2L71.6,0.6h7.2l5.7,25l9.7-25h7.1L86.8,38z"/>
		<path class="st0" d="M95.3,25.9l7.4-0.4c-0.3,2.3-0.2,3.9,0.4,4.7c0.9,1.3,2.8,2,5.9,2c2.5,0,4.4-0.5,5.7-1.3c1.3-0.9,2-2,2.3-3.3
			c0.2-1.1-0.1-2-0.9-2.8c-0.5-0.6-2.2-1.5-4.8-2.7c-2.7-1.3-4.6-2.3-5.8-3.1c-1.2-0.8-2-1.9-2.6-3.3s-0.6-2.9-0.3-4.7
			c0.6-3.1,2.2-5.7,4.8-7.8C110,1,113.5,0,117.8,0c4.4,0,7.6,1,9.6,3.1c2,2.1,2.9,4.8,2.5,8.2l-7.4,0.3c0.1-1.8-0.3-3.1-1.2-4.1
			c-0.9-1-2.5-1.4-4.6-1.4c-2.1,0-3.7,0.4-4.7,1.1c-1,0.7-1.7,1.7-1.9,2.8c-0.2,1.1,0.1,2,0.8,2.6c0.7,0.7,2.4,1.7,5,2.9
			c4,1.9,6.4,3.4,7.4,4.5c1.4,1.7,1.9,3.9,1.5,6.5c-0.6,3.3-2.4,6.1-5.4,8.4c-3,2.3-6.9,3.5-11.5,3.5c-3.2,0-5.9-0.5-8.1-1.6
			c-2.2-1.1-3.6-2.6-4.2-4.5C94.9,30.6,94.8,28.4,95.3,25.9z"/>
		<path class="st0" d="M140.4,38h-7.7l12-31.1h-11l2.4-6.2h29.4l-2.4,6.2h-10.8L140.4,38z"/>
		<path class="st0" d="M175.5,29.7h-14.8l-5.9,8.3h-7.9l27.7-37.3h8.5L182.6,38h-7.3L175.5,29.7z M175.7,23.5l0.5-15l-11.7,15H175.7
			z"/>
		<path class="st0" d="M189.6,0.6h13.8c3.1,0,5.5,0.2,7.1,0.7c2.2,0.6,4.1,1.8,5.6,3.4c1.6,1.6,2.8,3.7,3.6,6s1.2,5.3,1.2,8.8
			c0,3.1-0.4,5.7-1.1,7.9c-0.9,2.7-2.3,4.9-4,6.6c-1.3,1.3-3.1,2.3-5.3,3c-1.7,0.5-3.9,0.8-6.7,0.8h-14.2L189.6,0.6L189.6,0.6z
			 M197.1,7v24.7h5.6c2.1,0,3.6-0.1,4.6-0.4c1.2-0.3,2.2-0.8,3-1.6c0.8-0.7,1.5-1.9,2-3.6c0.5-1.7,0.8-4,0.8-6.8
			c0-2.9-0.3-5.1-0.8-6.6c-0.5-1.5-1.2-2.8-2.1-3.6c-0.9-0.9-2.1-1.5-3.5-1.8c-1.1-0.2-3.1-0.4-6.2-0.4H197.1z"/>
		<path class="st0" d="M224.7,38V0.6h27.7V7h-20.1v8.3h18.7v6.3h-18.7v10.2h20.9V38L224.7,38L224.7,38z"/>
		<path class="st0" d="M256.9,0.6h14.9c3,0,5.2,0.1,6.6,0.4c1.5,0.2,2.8,0.8,3.9,1.5c1.1,0.8,2.1,1.8,2.9,3.1
			c0.8,1.3,1.1,2.8,1.1,4.4c0,1.7-0.5,3.4-1.4,4.8c-0.9,1.5-2.2,2.6-3.8,3.3c2.3,0.7,4,1.8,5.2,3.4c1.2,1.6,1.8,3.5,1.8,5.6
			c0,1.7-0.4,3.3-1.2,5c-0.8,1.6-1.9,2.9-3.2,3.8c-1.4,1-3.1,1.5-5.1,1.8c-1.3,0.1-4.3,0.2-9.1,0.3h-12.7V0.6z M264.4,6.9v8.6h4.9
			c2.9,0,4.8,0,5.5-0.1c1.3-0.2,2.3-0.6,3-1.3c0.7-0.7,1.1-1.7,1.1-2.9c0-1.2-0.3-2.1-1-2.8c-0.6-0.7-1.6-1.2-2.8-1.3
			c-0.7-0.1-2.9-0.1-6.4-0.1H264.4z M264.4,21.7v10h7c2.7,0,4.4-0.1,5.2-0.2c1.1-0.2,2-0.7,2.7-1.5c0.7-0.8,1.1-1.8,1.1-3.2
			c0-1.1-0.3-2.1-0.8-2.9c-0.5-0.8-1.3-1.4-2.4-1.7c-1-0.4-3.3-0.5-6.7-0.5L264.4,21.7L264.4,21.7z"/>
		<path class="st0" d="M291.8,7.3V0.6h7.2v6.6H291.8z M291.8,38v-27h7.2v27H291.8z"/>
		<path class="st0" d="M312.2,38V7h-11.1V0.6h29.7V7h-11.1v31H312.2z"/>
	</g>
	<g>
		<polygon class="st0" points="45.6,17.4 28.8,17.4 35.7,0.6 52.5,0.6 		"/>
		<polygon class="st0" points="37.3,37.8 20.5,37.8 27.4,20.9 44.2,20.9 		"/>
		<polygon class="st0" points="16.8,37.8 0,37.8 6.9,20.9 23.7,20.9 		"/>
	</g>
</g>
</svg>
