<?xml version="1.0" encoding="UTF-8"?>
<svg width="147px" height="180px" viewBox="0 0 147 180" version="1.1" xmlns="http://www.w3.org/2000/svg" xmlns:xlink="http://www.w3.org/1999/xlink">
    <!-- Generator: Sketch 57.1 (83088) - https://sketch.com -->
    <title>Shape</title>
    <desc>Created with Sketch.</desc>
    <g id="Page-1" stroke="none" stroke-width="1" fill="none" fill-rule="evenodd">
        <g id="1.2_BetOnline_CashierWithdrawal-@2x" transform="translate(-633.000000, -194.000000)" fill="#EE3536" fill-rule="nonzero">
            <g id="Group-33" transform="translate(519.000000, 144.000000)">
                <path d="M187.089544,50.0271789 C186.633468,50.0271789 186.168959,50.1778704 185.788903,50.328549 L116.60124,80.2490964 C115.064106,80.8518579 114,82.5261955 114,84.2006403 C114,130.370567 116.829343,156.941368 127.479486,177.217731 C138.20552,197.418654 156.363173,210.327288 185.1647,229.315617 C186.541362,230.228128 188.458465,230.228128 189.8353,229.315617 C218.718987,210.328574 236.794264,197.419083 247.520514,177.217731 C258.170657,156.941582 261,130.361995 261,84.1920677 C261,82.5177301 260.003395,80.8517508 258.47465,80.2405238 L189.228611,50.328549 C188.620516,50.0271789 187.851949,49.9518257 187.083382,50.0271789 L187.089544,50.0271789 Z M187.040792,59 L252,87.0892815 C251.923719,131.090236 248.931698,155.907376 239.549087,173.649558 C230.319013,191.156266 214.182059,203.032227 187.042311,221 C159.817941,203.031583 143.757147,191.155407 134.450913,173.649558 C125.144461,155.907806 122.152536,131.090236 122,87.0892815 L187.040792,59 Z M176,105.732363 L178.253907,144.39903 C178.253907,149.114859 182.144765,153 187.038505,153 C191.855016,153 195.746093,149.114859 195.746093,144.39903 L198,105.732363 C198,99.7914444 193.020694,95 187.038505,95 C180.97075,95 176,99.7914444 176,105.732363 Z M187.038505,159 C180.97075,159 176,163.687706 176,169.5 C176,175.312294 180.979306,180 187.038505,180 C193.020694,180 198,175.312294 198,169.5 C198,163.687706 193.020694,159 187.038505,159 L187.038505,159 Z" id="Shape"></path>
            </g>
        </g>
    </g>
</svg>