<svg id="Layer_3" data-name="Layer 3" xmlns="http://www.w3.org/2000/svg" xmlns:xlink="http://www.w3.org/1999/xlink" viewBox="0 0 237.31 217.93"><defs><style>.cls-1{fill:none;}.cls-2{fill:#2c2c2c;}.cls-3{clip-path:url(#clip-path);}</style><clipPath id="clip-path" transform="translate(-83.26 -126.03)"><path class="cls-1" d="M130.63,220.14c31.45,5,54-21.15,46.47-43.81l-.33-1,155.72,3.76-11.92,130.7L74.69,353l8.57-129.84Z"/></clipPath></defs><path class="cls-2" d="M122.78,166.47c0,2.08,2.21,3.05,5.26,3.46l1.15.25v-7.42l-1.15,0C125.83,162.92,122.78,163.88,122.78,166.47Z" transform="translate(-83.26 -126.03)"/><path class="cls-2" d="M133.63,181.91l-1.06-.27V191l1.06-.1c2.3-.26,6.22-1.3,6.22-4.34C139.85,183.79,136.77,182.58,133.63,181.91Z" transform="translate(-83.26 -126.03)"/><path class="cls-2" d="M167.74,180.36c-6.33-20.82-14.11-32.18-26.18-32.1,3.73-4.47,7-9.62,7.87-14.59-7.27,3.32-17.82-1.78-21.12-7.64-3.29,5.86-13.85,11-21.11,7.64.76,4.48,3.5,9.1,6.77,13.24a59.56,59.56,0,0,0,12.16,3.19,1.51,1.51,0,0,1-.23,3h-.24a61.68,61.68,0,0,1-15.11-4.28c-9.56,2.5-16.16,13.44-21.67,31.55-4.52,14.88,8,31.93,26.28,30.76,9.74-1.17,13.67-6.5,19.3-10.64l1.34-1a3.34,3.34,0,0,1,3.94,5.4l-1.32,1c-1.63,1.2-3.3,2.42-5,3.62C155.81,217.15,172.91,197.34,167.74,180.36ZM133.63,192l-1.06.07v2.66a1.69,1.69,0,0,1-3.38,0v-2.61l-1.15,0c-5.09-.21-12.4-1-12.4-5.51,0-1.71.88-4.18,5-4.18,3.8,0,5.18,2,5.18,3.76,0,2.3-2.17,3.05-2.92,3.21a10.94,10.94,0,0,0,5.17,1.55l1.15.07V180.74l-1.15-.29c-5.88-1.67-11.56-4-11.56-9.93,0-3.55,2.34-8.27,11.56-8.77l1.15,0v-2.65a1.69,1.69,0,0,1,3.38,0v2.65h1.06c4.43.29,11.86,1.21,11.86,5.42,0,1.22-.62,3.51-4.51,3.51-3.67,0-5.09-1.67-5.09-3.21a2.79,2.79,0,0,1,2.17-2.63,7.55,7.55,0,0,0-4.43-1.8l-1.06-.13V171l1.06.27c11.61,2,12.49,8,12.49,10.68C146.12,184.37,145,190.89,133.63,192Z" transform="translate(-83.26 -126.03)"/><g class="cls-3"><path class="cls-2" d="M130.62,258.88a60.3,60.3,0,0,0-.82-12.51c-1.51-7.25-5-8.15-9.23-7.42a14.21,14.21,0,0,0-7,3.85l-1.09,42.27a14.82,14.82,0,0,0,9.07.68C128.14,284.61,130.24,278.86,130.62,258.88Z" transform="translate(-83.26 -126.03)"/><path class="cls-2" d="M205.56,262.07c1.5,7.25,6.15,7.82,9.47,7.25,3-.53,5.41-3.69,7.22-7.51a25.59,25.59,0,0,1,0-4.13l.76-33.32a10.85,10.85,0,0,0-6.95-1.05C206.09,225,202.14,245.62,205.56,262.07Z" transform="translate(-83.26 -126.03)"/><path class="cls-2" d="M284.89,287c2.65-.46,5.75-3.38,5.86-10.79l.1-7.41c-7.82,4-13.45,8.6-12.09,15.12C279.11,285.66,282,287.54,284.89,287Z" transform="translate(-83.26 -126.03)"/><path class="cls-2" d="M113.74,233.87l0,2.39a21.35,21.35,0,0,1,8.83-3.78c13.78-2.39,21.2,1,23.79,13.41a51.44,51.44,0,0,1,1,8.6c1.3,26.71-8.26,37.5-21.78,39.84a25.56,25.56,0,0,1-13.22-1.47l-.73,30.81-19.1,7.82,2.21-94.32Zm143.64,28.82c-4.79,5.67-10.24,10.71-15.37,11.6-8.61,1.49-15-.4-18.08-6.39-2.94,5.65-7.88,11.64-16,13-9.3,1.61-14.7-2-17.51-6.86l-.11.05c-4.83,5.74-10.34,10.89-15.53,11.79-10.21,1.77-17.29-1.26-19.18-10.33a28.16,28.16,0,0,1-.48-6.3l1.63-65.42,19.11-5.81L174.24,266a20.55,20.55,0,0,0,.14,4c.56,2.66,2.39,4.22,7.56,3.32,2.17-.37,4.38-1.93,6.53-4l0-.16c-.06-.25-.12-.49-.17-.73-4.32-20.8-1.29-47.12,25.22-51.71a15.88,15.88,0,0,1,9.51,1.48l.14-3.28,19.08-3.3-1,42.76a20.75,20.75,0,0,0,.25,3.84c.55,2.66,2.28,4.36,7.58,3.44,2.18-.37,4.38-1.93,6.54-4l.17-.16a27.37,27.37,0,0,1-.36-5.61l.73-42.71,19.48-3.37-1.13,42.78a14.08,14.08,0,0,0,.15,4c.55,2.66,2.38,4.22,7.55,3.33,3.05-.53,6.18-3.32,9.07-6.58l1.06-46.4,19.22-3.33L310,272.54c-.38,18-11.1,23.21-19.84,24.73-8.09,1.4-16.72-2.49-18.36-10.35-2.34-11.24,7.27-16.54,19.16-22.1l.25-8.69c-4.93,6-10.79,11.51-16.09,12.43-8.44,1.46-14.62-.31-17.63-5.94ZM83.26,344c-.08,0,36.89-15.14,36.89-15.14l.63-26.2A35.26,35.26,0,0,0,131,301.32a33.88,33.88,0,0,0,12.93-7,37.25,37.25,0,0,0,6.71-8.66,18,18,0,0,0,2,2.48,23.13,23.13,0,0,0,6.4,4.25,25,25,0,0,0,8.21,1.86c2.17.17,8.65.5,14.36-2.13a30.72,30.72,0,0,0,9-6.16l2.19,1.1a26,26,0,0,0,10.77,2.25A32.89,32.89,0,0,0,218,286a25.69,25.69,0,0,0,7.33-5.59,18.33,18.33,0,0,0,2,.81,24.7,24.7,0,0,0,7.09,1.47A33.8,33.8,0,0,0,247.84,281c4.67-1.63,10-6.62,10-6.62a18.3,18.3,0,0,0,2.77,1.23,33.77,33.77,0,0,0,3.38.9,18.74,18.74,0,0,0-1.32,7,23.42,23.42,0,0,0,2.86,10.94c1.78,3.44,6.37,7,8.93,8.15a25.36,25.36,0,0,0,10.71,2.9,34.48,34.48,0,0,0,12.58-1.78,32.71,32.71,0,0,0,12-7.24c3.63-3.73,5.17-6.71,7.2-11.92s1.89-12.58,1.95-16.11,1.73-78.55,1.73-78.55-100.42,17.34-104.92,18.19a115.86,115.86,0,0,0-12.06,3c-4.89,1.4-10.3,5.54-13.1,8.09s-6.65,8.57-6.65,8.57l1.1-40.86-36.75,11.23-.79,31.76a20.34,20.34,0,0,0-4.81-3.33,25.39,25.39,0,0,0-8.68-2.56,46.52,46.52,0,0,0-9.94.23c-2.26.25-37.91,6.31-37.91,6.31S83.34,344,83.26,344Z" transform="translate(-83.26 -126.03)"/></g></svg>