<?xml version="1.0" encoding="UTF-8"?>
<svg width="31px" height="28px" viewBox="0 0 31 28" version="1.1" xmlns="http://www.w3.org/2000/svg" xmlns:xlink="http://www.w3.org/1999/xlink">
    <!-- Generator: Sketch 46.2 (44496) - http://www.bohemiancoding.com/sketch -->
    <title>Page 1</title>
    <desc>Created with Sketch.</desc>
    <defs></defs>
    <g id="Skrill-Flow" stroke="none" stroke-width="1" fill="none" fill-rule="evenodd">
        <g id="3.7_Mobile_Rejction_DepositError-_HelpMessage" transform="translate(-58.000000, -458.000000)" fill="#EE3536">
            <g id="Group-13" transform="translate(15.000000, 87.000000)">
                <g id="Group-9">
                    <path d="M44.684949,379.432763 L67.31713,374.296725 L67.0035071,372.912771 C66.9163208,372.51892 66.5191385,372.271689 66.1292257,372.357719 L44.9186878,377.138531 C44.525148,377.225787 44.2781122,377.619653 44.3640741,378.013504 C44.4718473,378.483705 44.5771963,378.962407 44.6849819,379.432608 L44.684949,379.432763 Z M44.4972558,375.883297 L65.975322,371.046641 C66.9997655,370.816383 68.020582,371.461091 68.25063,372.486345 L70.5017272,382.441976 L69.156407,382.441976 L68.1355905,377.932624 L45.5034098,383.069904 L46.904436,389.253006 L47.0303718,389.800767 C47.0788087,390.020117 47.2991972,390.163128 47.5219943,390.111008 L47.6891007,390.072228 L47.6891007,391.390752 L47.6648838,391.398024 C46.8148131,391.589501 45.9683677,391.049003 45.7722023,390.20189 L43.0500661,378.164231 C42.9350297,377.65162 43.018583,377.170499 43.2970957,376.724527 C43.5756085,376.278556 43.9836747,375.998626 44.495912,375.883495 L44.4972558,375.883297 Z M50.0722221,382.80198 C49.023568,382.80198 48.1698703,383.659982 48.1698703,384.709465 L48.1698703,397.096144 C48.1698703,398.145627 49.023568,399 50.0722221,399 L72.0940212,399 C73.1426753,399 74,398.141998 74,397.096144 L74,384.709465 C74,383.659982 73.1426753,382.80198 72.0940212,382.80198 L50.0722221,382.80198 Z M71.6315073,388.346295 L71.6315073,385.824378 C71.6315073,385.660775 71.5019383,385.531104 71.3384651,385.531104 L65.7039795,385.531104 C65.5441394,385.531104 65.4109373,385.663198 65.4109373,385.824378 L65.4109373,388.346295 C65.4109373,388.506262 65.5429273,388.639569 65.7039795,388.639569 L71.3384651,388.639569 C71.4946751,388.639569 71.6315073,388.511111 71.6315073,388.346295 Z M67.4781822,395.990942 C67.3147089,395.990942 67.1815068,395.858848 67.1815068,395.697668 L67.1815068,395.112337 C67.1815068,394.95237 67.3134968,394.819063 67.4781822,394.819063 L71.3348412,394.819063 C71.4946813,394.819063 71.6278834,394.951157 71.6278834,395.112337 L71.6278834,395.697668 C71.6278834,395.857635 71.4958934,395.990942 71.3348412,395.990942 L67.4781822,395.990942 Z M62.0944833,395.990942 C61.9346432,395.990942 61.8014411,395.858848 61.8014411,395.697668 L61.8014411,395.114757 C61.8014411,394.951154 61.9334311,394.821483 62.0944833,394.821483 L65.9548623,394.821483 C66.1147024,394.821483 66.2479045,394.953577 66.2479045,395.114757 L66.2479045,395.697668 C66.2479045,395.857635 66.1159145,395.990942 65.9548623,395.990942 L62.0944833,395.990942 Z M56.7145044,395.990942 C56.5546643,395.990942 56.4214621,395.858848 56.4214621,395.697668 L56.4214621,395.114757 C56.4214621,394.951154 56.5534522,394.821483 56.7145044,394.821483 L60.5748834,394.821483 C60.7347235,394.821483 60.8679256,394.953577 60.8679256,395.114757 L60.8679256,395.697668 C60.8679256,395.857635 60.7359355,395.990942 60.5748834,395.990942 L56.7145044,395.990942 Z M51.3345255,395.990942 C51.1746854,395.990942 51.0414832,395.858848 51.0414832,395.697668 L51.0414832,395.114757 C51.0414832,394.951154 51.1734733,394.821483 51.3345255,394.821483 L55.1949044,394.821483 C55.3547445,394.821483 55.4879467,394.953577 55.4879467,395.114757 L55.4879467,395.697668 C55.4879467,395.857635 55.3559566,395.990942 55.1949044,395.990942 L51.3345255,395.990942 Z" id="Page-1"></path>
                </g>
            </g>
        </g>
    </g>
</svg>