<?xml version="1.0" encoding="UTF-8"?>
<svg width="670px" height="421px" viewBox="0 0 670 421" version="1.1" xmlns="http://www.w3.org/2000/svg" xmlns:xlink="http://www.w3.org/1999/xlink">
    <!-- Generator: Sketch 45.2 (43514) - http://www.bohemiancoding.com/sketch -->
    <title>eNet</title>
    <desc>Created with Sketch.</desc>
    <defs></defs>
    <g id="Page-1" stroke="none" stroke-width="1" fill="none" fill-rule="evenodd">
        <g id="eNet" fill-rule="nonzero" fill="#FFFFFF">
            <g id="lcYmpV.tif" transform="translate(67.000000, 149.000000)">
                <g id="Group">
                    <path d="M223.4,94.1 C221.9,91.6 220.8,89.9 219.9,88.1 C214.1,77.1 208.3,66.2 202.6,55.2 C194,38.8 185.4,22.3 176.9,5.9 C175.7,3.6 174.1,2.5 171.5,2.6 C163.4,2.7 155.3,2.6 147.2,2.6 C143.2,2.6 142.2,3.6 142.2,7.6 C142.2,47.8 142.2,88 142.2,128.2 C142.2,131.5 142.8,132.1 146.3,132.1 C151.2,132.1 156,132.1 160.9,132.1 C165.2,132.1 165.5,131.8 165.5,127.6 C165.5,100.2 165.5,72.7 165.5,45.3 C165.5,44.6 165.6,43.9 165.7,42.6 C166.6,44 167.2,44.8 167.7,45.7 C173.6,56.6 179.4,67.6 185.2,78.5 C194.5,96 203.9,113.5 213.2,131 C214.1,132.7 215,133.2 216.9,133.2 C225.6,133.1 234.2,133.2 242.9,133.2 C246.7,133.2 246.7,133.2 246.7,129.5 C246.7,88.5 246.7,47.6 246.7,6.6 C246.7,3.2 246,2.5 242.5,2.5 C237.6,2.5 232.8,2.5 227.9,2.5 C224.1,2.5 223.5,3.3 223.5,7 C223.5,32.9 223.5,58.8 223.5,84.7 C223.4,87.6 223.4,90.4 223.4,94.1 Z M293,25.8 C294.5,25.8 295.6,25.8 296.7,25.8 C311,25.8 325.3,25.8 339.6,25.8 C342.3,25.8 343.3,24.8 343.2,22.1 C343.1,17 343.2,11.8 343.2,6.7 C343.2,3.5 342.5,2.6 339.3,2.6 C314.8,2.6 290.3,2.6 265.8,2.6 C262.9,2.6 261.7,3.9 261.7,6.8 C261.7,47.3 261.7,87.8 261.7,128.3 C261.7,130.9 262.9,132.1 265.5,132.1 C291.5,132.1 317.5,132.1 343.5,132.1 C346.1,132.1 347.3,131 347.2,128.3 C347.1,123.3 347.2,118.2 347.2,113.1 C347.2,109.6 346.4,108.8 342.8,108.8 C327.3,108.8 311.7,108.8 296.2,108.8 C295.1,108.8 294,108.8 293,108.8 C293,97.4 293,86.5 293,75.4 C294.3,75.4 295.4,75.4 296.6,75.4 C307.7,75.4 318.7,75.3 329.8,75.4 C332.5,75.4 333.6,74.6 333.5,71.8 C333.4,66.7 333.4,61.5 333.5,56.4 C333.6,53.7 332.6,52.7 329.9,52.7 C318.8,52.8 307.6,52.7 296.5,52.7 C295.4,52.7 294.3,52.7 293.1,52.7 C293,43.7 293,34.9 293,25.8 Z M66.7,0.8 C56.1,0.7 44.7,3.8 34,10.1 C22.9,16.7 14.3,25.7 8.4,37.1 C2.7,48.1 0.2,59.8 0.9,72.3 C1.3,80.5 3,88.4 6.3,95.8 C12.1,109.2 21.4,119.7 34,127.1 C48.8,135.8 64.8,138.5 81.7,135.4 C92,133.5 101.3,129.3 109.6,122.9 C112.9,120.4 116.2,117.6 118.5,114.2 C122.2,108.9 120.4,101.4 115.3,97.4 C110.1,93.3 103.2,93.7 98.2,98.3 C88.3,107.5 76.7,112 63,110.1 C54.3,108.9 46.6,105.5 40.3,99.5 C30,89.6 25.2,77.7 27,63.2 C28.2,54.2 31.8,46.2 38,39.8 C47.4,30.1 59,25.5 72.7,26.9 C82.5,27.9 91.1,31.6 97.8,38.6 C102.5,43.4 111.6,43.5 115.8,39.2 C121.6,33.1 122,25.6 116.3,20.1 C114.9,18.8 113.5,17.6 112,16.4 C99.4,5.8 84.9,0.7 66.7,0.8 Z M499.9,133.3 C499.9,133.6 500,133.9 500,134.2 C507.1,133.2 514.4,132.6 521.4,130.9 C531.7,128.4 539.9,122.6 544.7,112.8 C548.5,105.2 548.4,97 547.6,88.7 C546.8,80.3 542.9,73.1 536.8,68 C529.5,61.8 521,57 513.1,51.5 C508.3,48.1 503.2,45 498.8,41 C494.1,36.7 495.4,29.2 500.8,25.7 C507.4,21.5 514.6,22 521.8,23.2 C528.7,24.3 535,27.3 541.2,30.6 C544.8,32.5 546.3,31.6 546.3,27.6 C546.3,22.1 546.1,16.5 546.4,11 C546.5,8.1 545.1,6.6 542.7,6.1 C535.4,4.4 528.1,2.2 520.8,1.7 C509.4,0.8 498,1.2 487.1,5.6 C480,8.5 474,12.8 470.4,20 C466.5,27.9 466.1,36.1 467.6,44.6 C469.4,54.9 474.7,62.9 483.2,68.8 C493,75.6 503,82.2 512.9,88.9 C516.9,91.6 519.4,95.3 519,100.3 C518.5,105.9 515.3,109.6 509.8,111.2 C500.8,113.8 491.8,112.9 483.1,110.3 C477.9,108.7 472.9,106.2 468,103.8 C464.5,102.1 463,102.9 463,106.7 C463,111.6 463.1,116.4 462.9,121.3 C462.8,124.1 464.1,125.9 466.2,127.2 C467.8,128.2 469.7,129 471.6,129.7 C480.7,132.7 490.2,133.6 499.9,133.3 Z M422.7,25.8 C424,25.8 425.1,25.8 426.1,25.8 C436.6,25.8 447.1,25.8 457.5,25.8 C460.1,25.8 461.1,24.9 461,22.3 C460.9,17.4 461,12.6 461,7.7 C461,2.9 460.7,2.6 455.8,2.6 C423,2.6 390.2,2.6 357.5,2.6 C357.1,2.6 356.7,2.5 356.4,2.6 C354.1,3 352.5,3.8 352.6,6.6 C352.7,11.6 352.6,16.5 352.6,21.5 C352.6,25.1 353.3,25.8 356.9,25.8 C367.4,25.8 377.9,25.8 388.3,25.8 C389.3,25.8 390.3,25.8 391.5,25.8 C391.5,27.3 391.5,28.3 391.5,29.3 C391.5,62.2 391.5,95 391.5,127.9 C391.5,131.6 392,132.1 395.8,132.1 C403.3,132.1 410.9,132.1 418.4,132.1 C421.8,132.1 422.7,131.2 422.7,127.7 C422.7,94.9 422.7,62.1 422.7,29.4 C422.7,28.4 422.7,27.3 422.7,25.8 Z M77.9,81.2 C88.9,81.2 100,81.1 111,81.2 C116.4,81.2 120,78.9 122,74 C125.8,64.6 119.7,55.5 110.3,55.6 C89,55.8 67.7,55.8 46.3,55.6 C39.5,55.5 33.2,59.4 32.7,67.1 C32.1,76.2 38,81.3 44.4,81.2 C55.7,81.2 66.8,81.2 77.9,81.2 Z" id="Shape"></path>
                    <path d="M223.4,94.1 C223.4,90.4 223.4,87.6 223.4,84.8 C223.4,58.9 223.4,33 223.4,7.1 C223.4,3.4 224.1,2.7 227.8,2.6 C232.7,2.6 237.5,2.6 242.4,2.6 C245.9,2.6 246.6,3.3 246.6,6.7 C246.6,47.7 246.6,88.6 246.6,129.6 C246.6,133.3 246.6,133.3 242.8,133.3 C234.1,133.3 225.5,133.2 216.8,133.3 C214.9,133.3 214,132.8 213.1,131.1 C203.9,113.6 194.5,96.1 185.1,78.6 C179.3,67.7 173.4,56.7 167.6,45.8 C167.1,44.9 166.5,44.1 165.6,42.7 C165.5,44 165.4,44.7 165.4,45.4 C165.4,72.8 165.4,100.3 165.4,127.7 C165.4,131.8 165.1,132.2 160.8,132.2 C155.9,132.2 151.1,132.2 146.2,132.2 C142.7,132.2 142.1,131.6 142.1,128.3 C142.1,88.1 142.1,47.9 142.1,7.7 C142.1,3.7 143.1,2.7 147.1,2.7 C155.2,2.7 163.3,2.8 171.4,2.7 C174,2.7 175.6,3.7 176.8,6 C185.3,22.5 193.9,38.9 202.5,55.3 C208.2,66.3 214,77.3 219.8,88.2 C220.8,89.9 221.9,91.6 223.4,94.1 Z" id="Shape"></path>
                    <path d="M293,25.8 C293,35 293,43.8 293,52.9 C294.2,52.9 295.3,52.9 296.4,52.9 C307.5,52.9 318.7,53 329.8,52.9 C332.5,52.9 333.5,53.9 333.4,56.6 C333.3,61.7 333.3,66.9 333.4,72 C333.5,74.8 332.3,75.6 329.7,75.6 C318.6,75.5 307.6,75.6 296.5,75.6 C295.4,75.6 294.2,75.6 292.9,75.6 C292.9,86.7 292.9,97.6 292.9,109 C293.9,109 295,109 296.1,109 C311.6,109 327.2,109 342.7,109 C346.3,109 347,109.8 347.1,113.3 C347.1,118.4 347.1,123.4 347.1,128.5 C347.1,131.1 346,132.3 343.4,132.3 C317.4,132.3 291.4,132.3 265.4,132.3 C262.9,132.3 261.6,131 261.6,128.5 C261.6,88 261.6,47.5 261.6,7 C261.6,4.1 262.8,2.8 265.7,2.8 C290.2,2.8 314.7,2.8 339.2,2.8 C342.4,2.8 343.1,3.7 343.1,6.9 C343.1,12 343,17.2 343.1,22.3 C343.2,25 342.2,26 339.5,26 C325.2,25.9 310.9,26 296.6,26 C295.6,25.8 294.5,25.8 293,25.8 Z" id="Shape"></path>
                    <path d="M66.7,0.8 C84.9,0.7 99.5,5.8 112.1,16.4 C113.5,17.6 115,18.8 116.4,20.1 C122.1,25.6 121.7,33.1 115.9,39.2 C111.8,43.5 102.6,43.4 97.9,38.6 C91.1,31.6 82.5,27.9 72.8,26.9 C59,25.5 47.5,30.2 38.1,39.8 C31.8,46.2 28.2,54.1 27.1,63.2 C25.3,77.6 30.1,89.6 40.4,99.5 C46.7,105.5 54.4,108.9 63.1,110.1 C76.8,112 88.3,107.5 98.3,98.3 C103.3,93.7 110.2,93.3 115.4,97.4 C120.5,101.4 122.3,108.9 118.6,114.2 C116.3,117.6 113,120.3 109.7,122.9 C101.4,129.3 92.1,133.5 81.8,135.4 C64.9,138.5 48.9,135.9 34.1,127.1 C21.5,119.7 12.2,109.1 6.4,95.8 C3.2,88.4 1.5,80.5 1,72.3 C0.3,59.8 2.8,48.2 8.5,37.1 C14.4,25.6 23,16.7 34.1,10.1 C44.6,3.7 56.1,0.6 66.7,0.8 Z" id="Shape"></path>
                    <path d="M499.9,133.3 C490.2,133.6 480.7,132.7 471.6,129.3 C469.8,128.6 467.9,127.9 466.2,126.8 C464.2,125.5 462.8,123.7 462.9,120.9 C463.1,116.1 463,111.2 463,106.3 C463,102.5 464.5,101.8 468,103.4 C473,105.8 477.9,108.3 483.1,109.9 C491.8,112.5 500.8,113.4 509.8,110.8 C515.3,109.2 518.5,105.5 519,99.9 C519.4,95 516.9,91.2 512.9,88.5 C503,81.8 493,75.3 483.2,68.4 C474.8,62.5 469.4,54.5 467.6,44.2 C466.1,35.7 466.5,27.5 470.4,19.6 C474,12.4 479.9,8.1 487.1,5.2 C497.9,0.8 509.4,0.4 520.8,1.3 C528.2,1.9 535.5,4.1 542.7,5.7 C545,6.2 546.5,7.7 546.4,10.6 C546.2,16.1 546.4,21.6 546.3,27.2 C546.3,31.2 544.8,32.1 541.2,30.2 C535,27 528.8,23.9 521.8,22.8 C514.6,21.7 507.4,21.1 500.8,25.3 C495.4,28.7 494.1,36.2 498.8,40.6 C503.1,44.6 508.2,47.7 513.1,51.1 C521,56.6 529.5,61.5 536.8,67.6 C542.9,72.8 546.8,79.9 547.6,88.3 C548.4,96.6 548.5,104.7 544.7,112.4 C539.9,122.2 531.7,128 521.4,130.5 C514.4,132.2 507.2,132.7 500,133.8 C499.9,133.8 499.9,133.5 499.9,133.3 Z" id="Shape"></path>
                    <path d="M422.7,25.8 C422.7,27.3 422.7,28.4 422.7,29.4 C422.7,62.2 422.7,95 422.7,127.7 C422.7,131.2 421.8,132.1 418.4,132.1 C410.9,132.1 403.3,132.1 395.8,132.1 C392,132.1 391.5,131.6 391.5,127.9 C391.5,95 391.5,62.2 391.5,29.3 C391.5,28.3 391.5,27.2 391.5,25.8 C390.3,25.8 389.3,25.8 388.3,25.8 C377.8,25.8 367.3,25.8 356.9,25.8 C353.3,25.8 352.6,25.1 352.6,21.5 C352.6,16.5 352.7,11.6 352.6,6.6 C352.5,3.8 354.1,3 356.4,2.6 C356.8,2.5 357.2,2.6 357.5,2.6 C390.3,2.6 423.1,2.6 455.8,2.6 C460.6,2.6 461,2.9 461,7.7 C461,12.6 460.9,17.4 461,22.3 C461.1,24.9 460,25.8 457.5,25.8 C447,25.7 436.5,25.8 426.1,25.8 C425.1,25.8 424,25.8 422.7,25.8 Z" id="Shape"></path>
                    <path d="M77.9,81.2 C66.8,81.2 55.6,81.1 44.5,81.2 C38,81.3 32.2,76.2 32.8,67.1 C33.3,59.3 39.6,55.5 46.4,55.6 C67.7,55.8 89,55.8 110.4,55.6 C119.7,55.5 125.9,64.6 122.1,74 C120.1,78.9 116.5,81.2 111.1,81.2 C100,81.2 89,81.2 77.9,81.2 Z" id="Shape"></path>
                </g>
            </g>
            <rect id="Rectangle-path" x="0.9" y="303.9" width="668.2" height="116.5"></rect>
            <rect id="Rectangle-path" x="0.9" y="0.9" width="668.2" height="116.5"></rect>
        </g>
    </g>
</svg>