<?xml version="1.0" encoding="UTF-8"?>
<svg width="214px" height="105px" viewBox="0 0 214 105" version="1.1" xmlns="http://www.w3.org/2000/svg" xmlns:xlink="http://www.w3.org/1999/xlink">
    <!-- Generator: Sketch 45.2 (43514) - http://www.bohemiancoding.com/sketch -->
    <title>MoneyOrders</title>
    <desc>Created with Sketch.</desc>
    <defs></defs>
    <g id="Page-1" stroke="none" stroke-width="1" fill="none" fill-rule="evenodd">
        <g id="MoneyOrders" fill-rule="nonzero" fill="#FFFFFF">
            <polygon id="Shape" points="0.2 45.4 6.7 0.3 7.4 0.3 25.7 37.3 43.9 0.3 44.6 0.3 51.1 45.4 46.7 45.4 42.2 13.1 26.2 45.4 25 45.4 9 12.8 4.6 45.3 0.2 45.3"></polygon>
            <path d="M76.7,11.1 C81.8,11.1 86.1,13 89.5,16.7 C92.6,20.1 94.1,24.1 94.1,28.8 C94.1,33.5 92.5,37.5 89.2,41 C86,44.5 81.8,46.2 76.7,46.2 C71.6,46.2 67.4,44.5 64.1,41 C60.9,37.5 59.2,33.4 59.2,28.8 C59.2,24.2 60.7,20.2 63.8,16.8 C67.3,13 71.5,11.1 76.7,11.1 Z M76.7,15.3 C73.1,15.3 70.1,16.6 67.5,19.3 C64.9,21.9 63.7,25.1 63.7,28.9 C63.7,31.3 64.3,33.6 65.5,35.6 C66.7,37.7 68.3,39.3 70.2,40.4 C72.2,41.5 74.4,42.1 76.8,42.1 C79.2,42.1 81.4,41.5 83.4,40.4 C85.4,39.3 87,37.7 88.1,35.6 C89.3,33.5 89.9,31.3 89.9,28.9 C89.9,25.2 88.6,22 86,19.3 C83.4,16.6 80.2,15.3 76.7,15.3 Z" id="Shape"></path>
            <path d="M103.6,12 L107.9,12 L107.9,18 C109.6,15.7 111.5,14 113.6,12.9 C115.7,11.8 118,11.2 120.4,11.2 C122.9,11.2 125.1,11.8 127,13.1 C128.9,14.4 130.4,16.1 131.3,18.2 C132.2,20.3 132.7,23.7 132.7,28.2 L132.7,45.4 L128.4,45.4 L128.4,29.5 C128.4,25.7 128.2,23.1 127.9,21.8 C127.4,19.6 126.4,17.9 125,16.8 C123.6,15.7 121.7,15.1 119.5,15.1 C116.9,15.1 114.6,16 112.5,17.7 C110.4,19.4 109.1,21.5 108.4,24.1 C108,25.8 107.8,28.8 107.8,33.2 L107.8,45.4 L103.5,45.4 L103.5,12 L103.6,12 Z" id="Shape"></path>
            <path d="M171.6,34.3 L175.2,36.2 C174,38.5 172.6,40.4 171.1,41.8 C169.5,43.2 167.8,44.3 165.8,45.1 C163.8,45.9 161.7,46.2 159.2,46.2 C153.8,46.2 149.5,44.4 146.4,40.8 C143.3,37.2 141.8,33.2 141.8,28.7 C141.8,24.5 143.1,20.7 145.7,17.4 C149,13.2 153.4,11.1 158.9,11.1 C164.6,11.1 169.1,13.3 172.5,17.6 C174.9,20.6 176.1,24.5 176.2,29 L146.2,29 C146.3,32.9 147.5,36.1 149.9,38.5 C152.3,40.9 155.3,42.2 158.8,42.2 C160.5,42.2 162.2,41.9 163.8,41.3 C165.4,40.7 166.8,39.9 167.9,38.9 C169,37.9 170.3,36.5 171.6,34.3 Z M171.6,25.3 C171,23 170.2,21.2 169.1,19.8 C168,18.4 166.6,17.3 164.8,16.5 C163,15.7 161.1,15.2 159.1,15.2 C155.8,15.2 153,16.3 150.7,18.4 C149,19.9 147.7,22.2 146.8,25.3 L171.6,25.3 L171.6,25.3 Z" id="Shape"></path>
            <polygon id="Shape" points="182.3 12 186.8 12 198.3 37.7 209.4 12 214 12 194.1 57.6 189.6 57.6 196 42.9"></polygon>
            <path d="M28.7,57.1 C35.5,57.1 41.3,59.4 45.9,63.9 C50.5,68.5 52.8,74.1 52.8,80.7 C52.8,87.3 50.5,92.9 45.9,97.5 C41.3,102.1 35.7,104.4 29.1,104.4 C22.4,104.4 16.8,102.1 12.2,97.5 C7.6,92.9 5.3,87.4 5.3,80.9 C5.3,76.6 6.3,72.5 8.4,68.8 C10.5,65.1 13.4,62.2 17,60.1 C20.6,58.1 24.5,57.1 28.7,57.1 Z M28.9,61.5 C25.6,61.5 22.4,62.4 19.4,64.1 C16.4,65.8 14.1,68.2 12.4,71.1 C10.7,74 9.9,77.3 9.9,81 C9.9,86.4 11.8,90.9 15.5,94.6 C19.2,98.3 23.7,100.1 28.9,100.1 C32.4,100.1 35.6,99.3 38.6,97.6 C41.6,95.9 43.9,93.6 45.6,90.6 C47.3,87.7 48.1,84.4 48.1,80.8 C48.1,77.2 47.3,74 45.6,71.1 C43.9,68.2 41.6,65.9 38.5,64.1 C35.5,62.4 32.3,61.5 28.9,61.5 Z" id="Shape"></path>
            <path d="M61.1,70 L65.5,70 L65.5,74.9 C66.8,73 68.2,71.5 69.6,70.6 C71.1,69.6 72.6,69.2 74.1,69.2 C75.3,69.2 76.6,69.6 77.9,70.3 L75.7,73.9 C74.8,73.5 74,73.3 73.4,73.3 C72,73.3 70.6,73.9 69.3,75.1 C68,76.3 67,78.1 66.3,80.6 C65.8,82.5 65.5,86.3 65.5,92.1 L65.5,103.4 L61.1,103.4 L61.1,70 Z" id="Shape"></path>
            <path d="M116.1,57.1 L116.1,103.4 L111.9,103.4 L111.9,97.7 C110.1,99.9 108.1,101.5 105.8,102.6 C103.5,103.7 101.1,104.3 98.5,104.3 C93.8,104.3 89.7,102.6 86.4,99.2 C83.1,95.8 81.4,91.6 81.4,86.7 C81.4,81.9 83.1,77.8 86.5,74.4 C89.9,71 93.9,69.3 98.7,69.3 C101.4,69.3 103.9,69.9 106.1,71 C108.3,72.2 110.3,73.9 111.9,76.2 L111.9,57.2 L116.1,57.2 L116.1,57.1 Z M98.9,73.3 C96.5,73.3 94.3,73.9 92.3,75.1 C90.3,76.3 88.7,77.9 87.5,80 C86.3,82.1 85.7,84.4 85.7,86.7 C85.7,89.1 86.3,91.3 87.5,93.4 C88.7,95.5 90.3,97.2 92.4,98.4 C94.4,99.6 96.6,100.2 98.9,100.2 C101.2,100.2 103.5,99.6 105.6,98.4 C107.7,97.2 109.3,95.6 110.5,93.6 C111.6,91.6 112.2,89.3 112.2,86.8 C112.2,82.9 110.9,79.7 108.4,77.1 C105.8,74.6 102.7,73.3 98.9,73.3 Z" id="Shape"></path>
            <path d="M155.5,92.3 L159.1,94.2 C157.9,96.5 156.5,98.4 155,99.8 C153.4,101.2 151.7,102.3 149.7,103.1 C147.7,103.9 145.6,104.2 143.1,104.2 C137.7,104.2 133.4,102.4 130.3,98.8 C127.2,95.2 125.7,91.2 125.7,86.7 C125.7,82.5 127,78.7 129.6,75.4 C132.9,71.2 137.3,69.1 142.8,69.1 C148.5,69.1 153,71.3 156.4,75.6 C158.8,78.6 160,82.5 160.1,87 L130.1,87 C130.2,90.9 131.4,94.1 133.8,96.5 C136.2,98.9 139.2,100.2 142.7,100.2 C144.4,100.2 146.1,99.9 147.7,99.3 C149.3,98.7 150.7,97.9 151.8,96.9 C152.9,95.9 154.2,94.5 155.5,92.3 Z M155.5,83.3 C154.9,81 154.1,79.2 153,77.8 C151.9,76.4 150.5,75.3 148.7,74.5 C146.9,73.7 145,73.2 143,73.2 C139.7,73.2 136.9,74.3 134.6,76.4 C132.9,77.9 131.6,80.2 130.7,83.3 L155.5,83.3 L155.5,83.3 Z" id="Shape"></path>
            <path d="M168.2,70 L172.6,70 L172.6,74.9 C173.9,73 175.3,71.5 176.7,70.6 C178.2,69.6 179.7,69.2 181.2,69.2 C182.4,69.2 183.7,69.6 185,70.3 L182.8,73.9 C181.9,73.5 181.1,73.3 180.5,73.3 C179.1,73.3 177.7,73.9 176.4,75.1 C175.1,76.3 174.1,78.1 173.4,80.6 C172.9,82.5 172.6,86.3 172.6,92.1 L172.6,103.4 L168.2,103.4 L168.2,70 Z" id="Shape"></path>
            <path d="M207.1,73.6 L204.3,76.5 C202,74.3 199.8,73.2 197.6,73.2 C196.2,73.2 195,73.7 194,74.6 C193,75.5 192.5,76.6 192.5,77.8 C192.5,78.9 192.9,79.9 193.7,80.9 C194.5,81.9 196.2,83.1 198.9,84.4 C202.1,86.1 204.3,87.7 205.4,89.2 C206.5,90.8 207.1,92.5 207.1,94.4 C207.1,97.1 206.1,99.5 204.2,101.4 C202.3,103.3 199.9,104.3 197,104.3 C195.1,104.3 193.2,103.9 191.5,103 C189.8,102.1 188.3,101 187.2,99.5 L189.9,96.4 C192.1,98.9 194.4,100.1 196.9,100.1 C198.6,100.1 200.1,99.5 201.3,98.4 C202.5,97.3 203.1,96 203.1,94.5 C203.1,93.3 202.7,92.2 201.9,91.2 C201.1,90.3 199.3,89.1 196.5,87.6 C193.5,86 191.4,84.5 190.4,83 C189.3,81.5 188.8,79.8 188.8,77.8 C188.8,75.3 189.7,73.2 191.4,71.5 C193.1,69.8 195.3,69 198,69 C200.9,69.1 204,70.6 207.1,73.6 Z" id="Shape"></path>
        </g>
    </g>
</svg>