<?xml version="1.0" encoding="UTF-8"?>
<svg width="60px" height="32px" viewBox="0 0 60 32" version="1.1" xmlns="http://www.w3.org/2000/svg" xmlns:xlink="http://www.w3.org/1999/xlink">
    <!-- Generator: Sketch 45.1 (43504) - http://www.bohemiancoding.com/sketch -->
    <title>RIA</title>
    <desc>Created with Sketch.</desc>
    <defs></defs>
    <g id="Mobile" stroke="none" stroke-width="1" fill="none" fill-rule="evenodd">
        <g id="1.4.2_Deposit-Process-(bitcoin-&amp;-credit-card-and-others-inactive)" transform="translate(-157.000000, -381.000000)" fill-rule="nonzero" fill="#FFFFFF">
            <g id="Group-2" transform="translate(17.000000, 355.000000)">
                <g id="Group-7" transform="translate(140.000000, 26.000000)">
                    <g id="RIA">
                        <path d="M42.2874026,6.72932221 C42.1340206,6.47050212 41.9346241,6.22690675 41.7198894,6.0137608 C39.802615,4.17157078 36.2441539,4.67398624 33.7747046,7.1403894 C32.3789288,8.5410628 31.6273573,10.2614551 31.5660045,11.8296004 C31.2592406,10.0330845 32.0108122,7.85595081 33.6980136,6.16600791 C36.1828011,3.69960474 39.7412623,3.18196457 41.6431984,5.0393793 C41.8579331,5.25252525 42.0419915,5.48089592 42.1953734,5.72449129 C42.1340206,5.32864881 42.0419915,4.94803103 41.9192859,4.59786268 C41.7812421,4.43039087 41.6431984,4.26291905 41.4898164,4.11067194 C39.1737491,1.85741473 35.1398039,2.17713366 32.4862962,4.82623335 C30.9831531,6.31825501 30.2469198,8.23656858 30.3082726,10.0330845 C29.8174503,7.94729908 30.5076691,5.51134534 32.3329143,3.69960474 C34.756349,1.27887571 38.3148102,0.806909676 40.6768921,2.45117845 C39.4498366,1.02005563 37.6245914,0.106572976 35.5846115,0.106572976 C31.8881066,0.106572976 28.8971587,3.0753916 28.8971587,6.74454692 C28.8971587,10.4137022 31.8881066,13.3825209 35.5846115,13.3825209 C39.2964546,13.3825209 42.2874026,10.3984775 42.2874026,6.72932221 C42.2874026,6.74454692 42.2874026,6.72932221 42.2874026,6.72932221 Z" id="Shape"></path>
                        <g id="Group" transform="translate(0.000000, 8.982579)">
                            <path d="M26.6884586,3.18196457 C26.4890621,2.43595374 26.0749309,1.82696531 25.4614031,1.35499927 C24.8478753,0.883033231 24.0196128,0.532864881 23.0226301,0.334943639 C22.0103093,0.121797687 20.8446065,0.0152247109 19.5101836,0.0152247109 L4.2793563,0.0152247109 L4.03394518,0.989606207 C4.03394518,0.989606207 5.33769173,1.35499927 4.95423686,3.04494218 L0.0306763892,22.0758308 L8.57405079,22.0758308 L10.4913251,14.585273 L12.4085994,14.585273 C12.9454363,14.585273 13.3902439,14.6461719 13.7736988,14.7679696 C14.1571536,14.8897672 14.4025647,15.2094862 14.5406085,15.7119016 C14.6172995,16.0468453 14.6479759,16.4883619 14.6326377,17.0364515 C14.6019613,17.5845411 14.5559467,18.1630801 14.4639175,18.7872932 C14.3718884,19.4115064 14.2951974,20.0052701 14.2185064,20.5838091 C14.1418154,21.1623481 14.0958009,21.6495389 14.0804627,22.0606061 L23.6821725,22.0606061 L23.9275836,21.0862246 C23.9275836,21.0862246 22.9612773,20.8883033 22.9459392,19.7768994 C22.9766155,19.2135851 23.0226301,18.7720685 23.0686447,18.1935295 C23.1299975,17.4931928 23.1453357,16.7928561 23.1453357,16.0925194 C23.1453357,15.3921827 23.0533065,14.7527448 22.8845864,14.1589811 C22.6391753,13.5652174 22.2710586,13.0628019 21.7955746,12.6517347 C21.3200905,12.2406675 20.6298718,11.951398 19.7402565,11.7839262 L19.7555947,11.7230274 C21.4427961,11.3424096 22.8999246,10.7029717 24.1116419,9.77426438 C25.3233593,8.86078173 26.1516218,7.55145659 26.5810913,5.86151369 C26.8571788,4.84145806 26.8878552,3.94320012 26.6884586,3.18196457 Z M17.7002766,7.21651296 C17.5468946,7.77982726 17.3321599,8.22134387 17.0560724,8.5410628 C16.7646467,8.86078173 16.4425446,9.1043771 16.0897662,9.27184892 C15.7216495,9.43932074 15.3381946,9.54589372 14.9087252,9.59156785 C14.4792557,9.63724199 14.0497863,9.6524667 13.6049786,9.6524667 L11.7490571,9.6524667 L12.9607745,4.94803103 L14.9394016,4.94803103 C15.368871,4.94803103 15.7676641,4.97848046 16.1664571,5.02415459 C16.549912,5.08505343 16.8873523,5.1764017 17.1481016,5.34387352 C17.4088509,5.49612063 17.6082474,5.72449129 17.7156148,6.02898551 C17.8383203,6.31825501 17.8383203,6.7140975 17.7002766,7.21651296 Z" id="Shape"></path>
                            <path d="M57.6255972,11.9057239 C59.0980639,5.78539013 53.6223284,4.94803103 48.9595172,4.94803103 C45.7845109,4.94803103 44.3427206,5.22207583 41.7505658,5.89196311 L40.5388484,10.6116235 C42.3487553,9.8047138 44.5727936,9.19572537 46.5207443,9.19572537 C48.5607242,9.19572537 50.7387478,9.45454545 50.2479256,11.6164544 C49.5116922,11.5555556 48.2539603,11.3880837 47.1189339,11.3880837 C43.0696505,11.3880837 38.14609,12.4233641 36.9036963,17.5693164 C36.0600955,21.0709999 38.7596178,22.486898 41.9039477,22.486898 C44.2046769,22.486898 46.5360825,21.58864 48.1312547,19.6855512 L48.1926075,19.6855512 L47.5790797,22.0758308 L56.5365854,22.0758308 L56.7819965,21.1318987 C56.7819965,21.1318987 55.5702791,20.7056068 55.8156902,19.3353828 L57.6255972,11.9057239 Z M49.3583103,15.2399356 C49.0055318,16.6862831 47.8091526,18.2392036 46.1219512,18.2392036 C44.8642193,18.2392036 44.3120443,17.7824623 44.60347,16.6253843 C45.0176012,14.8897672 47.0115665,14.7222954 48.6987679,14.7222954 L49.496354,14.7222954 L49.3583103,15.2399356 Z" id="Shape"></path>
                            <path d="M34.5569525,19.0308886 C34.5569525,18.9852145 34.5876289,18.9395403 34.5876289,18.8938662 L37.8546643,6.16600791 C36.8576817,6.95769287 35.5999497,7.44488362 34.2348504,7.46010833 C32.547649,7.47533304 31.0291677,6.77499634 29.9708323,5.64836774 L25.7528288,22.0758308 L35.2164948,22.0758308 L35.4772442,21.0862246 C35.4772442,21.0862246 34.2655268,20.903528 34.5569525,19.0308886 Z" id="Shape"></path>
                        </g>
                        <g id="Group" transform="translate(57.364848, 26.795491)">
                            <path d="M0.0153381946,1.11140389 C0.0153381946,0.532864881 0.475484033,0.0761235544 1.07367362,0.0761235544 C1.65652502,0.0761235544 2.13200905,0.532864881 2.13200905,1.11140389 C2.13200905,1.68994291 1.67186321,2.14668423 1.07367362,2.14668423 C0.475484033,2.14668423 0.0153381946,1.68994291 0.0153381946,1.11140389 Z M1.94795072,1.11140389 C1.94795072,0.624213146 1.53381946,0.228370663 1.05833543,0.228370663 C0.582851396,0.228370663 0.168720141,0.624213146 0.168720141,1.11140389 C0.168720141,1.59859464 0.582851396,1.99443712 1.05833543,1.99443712 C1.54915766,1.99443712 1.94795072,1.59859464 1.94795072,1.11140389 Z" id="Shape"></path>
                            <path d="M0.674880563,0.548089592 L0.920291677,0.548089592 C1.16570279,0.548089592 1.45712849,0.532864881 1.45712849,0.852583809 C1.45712849,0.989606207 1.36509932,1.09617918 1.22705557,1.11140389 L1.22705557,1.11140389 C1.28840835,1.11140389 1.31908474,1.17230274 1.34976113,1.23320158 L1.53381946,1.6747182 L1.27307015,1.6747182 L1.1350264,1.32454985 C1.10435001,1.23320158 1.07367362,1.20275216 0.981644456,1.20275216 L0.904953483,1.20275216 L0.904953483,1.6747182 L0.674880563,1.6747182 L0.674880563,0.548089592 Z M0.904953483,1.02005563 L0.981644456,1.02005563 C1.08901182,1.02005563 1.22705557,1.00483092 1.22705557,0.86780852 C1.22705557,0.730786122 1.10435001,0.715561411 0.981644456,0.715561411 L0.904953483,0.715561411 L0.904953483,1.02005563 Z" id="Shape"></path>
                        </g>
                    </g>
                </g>
            </g>
        </g>
    </g>
</svg>