<svg width="27" height="22" viewBox="0 0 27 22" fill="none" xmlns="http://www.w3.org/2000/svg">
<path fill-rule="evenodd" clip-rule="evenodd" d="M25.7731 5.7998C25.5462 5.44781 25.1896 5.19177 24.7357 5.09576L6.48387 1.03179C5.60855 0.839777 4.73325 1.38378 4.57115 2.21575L3.56616 6.66381H18.5113L5.38162 3.75176L5.64098 2.59979C5.70581 2.27978 6.06242 2.08776 6.38661 2.15179L24.3791 6.15179C24.7357 6.21575 24.9302 6.5678 24.8654 6.88781C24.833 7.07983 24.7843 7.27984 24.7357 7.47985C24.6871 7.6798 24.6385 7.87982 24.606 8.07177L22.1098 7.52777C22.4664 7.94378 22.7258 8.48779 22.7258 9.09576V10.8558L23.9253 11.1118L22.6933 16.2958V18.0878C23.1796 17.9598 23.5362 17.6078 23.6335 17.0958L25.9352 7.0158C26.0649 6.5678 26.0001 6.18377 25.7731 5.7998ZM6.09474 13.6713C6.09474 12.7753 5.60846 12.0713 4.76556 12.0713C4.21443 12.0713 3.72815 12.4553 3.56606 13.0633C3.53365 13.1593 3.50122 13.2553 3.50122 13.4153V14.1833C3.50122 14.2278 3.50821 14.2793 3.5157 14.3344C3.52434 14.3981 3.53365 14.4667 3.53365 14.5353C3.66331 15.0793 4.1496 15.4633 4.73314 15.4633C5.60846 15.3353 6.09474 14.6633 6.09474 13.6713ZM1.62094 7.46386H20.2943C21.1696 7.46386 21.9152 8.19988 21.9152 9.09588V19.4319C21.9152 20.2958 21.202 21.0319 20.2943 21.0319H1.62094C0.745636 21.0319 0 20.3279 0 19.4319V9.06384C0 8.19988 0.713211 7.46386 1.62094 7.46386ZM15.2369 12.7439C15.2369 13.2559 15.6259 13.6719 16.404 13.9598C16.9875 14.1518 17.2145 14.3758 17.182 14.7919C17.182 15.1439 16.9227 15.4319 16.3392 15.4319C15.9501 15.4319 15.5287 15.2718 15.3017 15.1119L15.1072 15.7198C15.4314 15.9119 15.8529 16.0079 16.3392 16.0079C17.3766 16.0079 17.9925 15.4639 17.9925 14.6959C17.9925 14.0558 17.6035 13.6719 16.8254 13.3838C16.2419 13.1598 15.9825 12.9999 15.9825 12.6479C15.9825 12.2958 16.2419 12.0399 16.7282 12.0399C17.1223 12.0399 17.403 12.1798 17.5968 12.2764L17.6359 12.2958L17.8304 11.7198C17.6035 11.5919 17.2145 11.4639 16.7606 11.4639C15.8204 11.4639 15.2369 12.0399 15.2369 12.7439ZM11.0873 11.5279H10.2768C10.2768 11.5279 10.2768 14.0879 10.212 14.0558C10.212 15.5919 11.0549 15.9438 11.7357 15.9438C12.5137 15.9438 13 15.4958 13.1945 15.1439H13.2269L13.2918 15.8478H14.005C13.9726 15.4958 13.9726 15.1119 13.9726 14.6639V11.4958H13.1621V14.1518C13.1621 14.3119 13.1621 14.4719 13.0973 14.5679C12.9676 14.9518 12.5786 15.3039 12.0598 15.3039C11.3466 15.3039 11.0873 14.7599 11.0873 13.9279V11.5279ZM8.85037 9.51183H8.0399V15.9119H8.85037V9.51183ZM3.53366 17.6719L3.56609 15.3039C3.82544 15.7198 4.31172 15.9759 4.89526 15.9759C5.93266 15.9759 6.90524 15.2079 6.90524 13.6399C6.90524 12.3279 6.06235 11.4319 5.02493 11.4319C4.31172 11.4319 3.82544 11.7519 3.46883 12.2638H3.43642L3.40399 11.4958H2.69078C2.69078 11.6869 2.69762 11.8848 2.70502 12.0987C2.71371 12.3505 2.72319 12.6245 2.72319 12.9358V17.6719H3.53366ZM3.89027 18.3439C3.89027 18.3439 3.2419 18.9839 6.15961 18.6639C7.59891 18.5218 10.261 18.1383 12.8656 17.7631C15.5408 17.3778 18.1554 17.0012 19.3217 16.9039C19.3217 16.9039 6.4838 16.5839 3.89027 18.3439Z" fill="white"/>
</svg>
