<svg xmlns="http://www.w3.org/2000/svg" width="196.223" height="212.817" viewBox="0 0 196.223 212.817">
  <title>Ripple_Icon</title>
  <path d="M173.992,129.878c-7.524-4.344-16-5.6-24.391-5.9-7.042-.246-17.548-4.758-17.548-17.568,0-9.544,7.737-17.225,17.551-17.568,8.392-.293,16.865-1.554,24.387-5.9a44.448,44.448,0,1,0-66.671-38.491c0,8.612,3.063,16.537,6.971,23.887,3.287,6.182,4.95,17.656-6.324,24.164-8.386,4.842-18.852,1.776-24.08-6.59-4.416-7.067-9.746-13.688-17.21-18a44.447,44.447,0,1,0,0,76.985c7.461-4.308,12.792-10.925,17.205-17.987,3.624-5.8,12.674-13.191,24.084-6.6,8.373,4.838,10.962,15.438,6.32,24.169-3.908,7.349-6.967,15.272-6.967,23.883a44.447,44.447,0,1,0,66.671-38.492Z" fill="#ffffff"/>
</svg>
