<?xml version="1.0" encoding="UTF-8"?>
<svg xmlns="http://www.w3.org/2000/svg" width="738.273" height="133.617" viewBox="0 0 738.273 133.617"><path fill="#FFF" d="M201.853 2.788c-1.096-.246-1.438-.389-1.779-.389-27.69.023-55.384-.201-83.07.194-14.676.21-27.2 5.636-35.857 18.229-6.003 8.733-10.153 18.317-12.548 28.566-2.451 10.49.515 17.469 9.66 23.279 3.312 2.104 7.111 3.524 10.82 4.901 3.838 1.425 7.846 2.387 11.761 3.612 3.592 1.124 6.306 3.166 6.418 7.289.112 4.12-2.714 8.049-6.993 9.045-3.723.866-7.614 1.373-11.435 1.396-21.453.129-42.908.048-64.361.076-4.101.005-9.274-1.306-12.009.674-2.884 2.088-3.523 7.36-4.995 11.296C4.996 117.555 2.644 124.2 0 131.498h4.552c25.321 0 50.642.095 75.962-.064a163.94 163.94 0 0 0 20.096-1.389c25.348-3.3 43.267-20.114 48.161-45.305.861-4.434 1.105-9.253.356-13.678-1.535-9.075-8.257-13.885-16.333-16.868-4.89-1.806-9.988-3.04-14.969-4.607-3.583-1.127-6.199-3.219-6.428-7.31-.214-3.824 1.904-7.31 5.956-8.503 3.291-.969 6.841-1.405 10.284-1.445 13.594-.158 27.192-.004 40.786-.15 1.639-.018 3.919-.675 4.797-1.857 7.878-10.597 17.043-19.817 28.633-27.534zm388.202 128.729c-4.972-19.056-9.067-37.727-17.902-54.789.27-.352.378-.631.577-.729a76.43 76.43 0 0 1 3.035-1.402c16.226-7.158 28.599-17.933 33.79-35.604 5.307-18.066-1.323-30.051-19.588-34.523a67.634 67.634 0 0 0-14.754-1.909c-14.585-.259-29.18.002-43.766-.225-3.262-.051-4.491 1.187-5.513 4.008-14.157 39.06-28.417 78.082-42.638 117.119-.921 2.529-1.734 5.097-2.735 8.054 12.211 0 23.916-.094 35.618.067 2.865.039 4.057-.943 5.02-3.605 4.525-12.517 9.305-24.943 14.011-37.395.513-1.358 1.134-2.676 2.09-4.912.644 2.077 1.063 3.204 1.343 4.365 2.97 12.324 6.01 24.632 8.811 36.994.727 3.208 1.674 4.731 5.489 4.608 10.838-.349 21.694-.123 32.543-.123l4.569.001zM416.232 2.483c-25.172 0-51.226-.028-77.28.049-2.33.007-4.686.574-6.982 1.092-17.074 3.856-27.157 15.107-32.92 31.034-9.141 25.262-18.396 50.482-27.588 75.725-2.499 6.863-4.94 13.746-7.523 20.94 1.576.073 2.666.167 3.756.168 10.349.011 20.701-.136 31.045.094 3.113.069 4.254-1.08 5.226-3.836 5.128-14.545 10.543-28.989 15.688-43.528.996-2.813 2.384-3.802 5.396-3.693 6.849.248 13.713.078 20.57.078 10.351 0 10.36.003 13.971-9.858 1.95-5.324 3.862-10.662 6.054-16.719h-34.028c-.042-.935-.168-1.34-.058-1.665a811.113 811.113 0 0 1 3.892-11.28c2.562-7.218 4.664-8.757 12.341-8.805 9.226-.057 18.476-.41 27.673.11 7.11.402 11.816-1.588 16.691-7.36 7.144-8.458 16.182-15.315 24.076-22.546zM646.017 32.53l-35.921 98.778c1.75.094 2.945.212 4.139.214 8.979.016 17.961-.142 26.933.09 3.175.082 4.509-1.002 5.566-3.937 11.003-30.546 22.195-61.024 33.216-91.564.96-2.66 2.204-3.62 5.064-3.585 12.842.156 25.689-.048 38.531.149 3.22.049 4.582-1.076 5.565-4.023 2.48-7.43 5.325-14.738 7.996-22.106.442-1.221.745-2.492 1.166-3.921H611.093c8.909 8.275 11.786 18.259 11.218 29.904l23.706.001z"/><path fill="#FFF" d="M201.853 2.788c-11.59 7.717-20.755 16.937-28.634 27.534-.879 1.182-3.158 1.84-4.797 1.857-13.594.146-27.192-.008-40.786.15-3.443.04-6.993.476-10.284 1.445-4.052 1.193-6.169 4.679-5.956 8.503.229 4.091 2.845 6.183 6.428 7.31 4.981 1.567 10.079 2.801 14.969 4.607 8.077 2.983 14.798 7.794 16.333 16.868.749 4.425.505 9.244-.356 13.678-4.894 25.191-22.813 42.005-48.161 45.305a164.139 164.139 0 0 1-20.096 1.389c-25.32.159-50.641.064-75.962.064H-.001c2.644-7.298 4.996-13.942 7.465-20.543 1.472-3.936 2.111-9.208 4.995-11.296 2.735-1.98 7.908-.669 12.009-.674 21.454-.028 42.908.053 64.361-.076 3.821-.023 7.712-.53 11.435-1.396 4.279-.995 7.105-4.924 6.993-9.045-.113-4.122-2.826-6.165-6.418-7.289-3.915-1.225-7.923-2.187-11.761-3.612-3.709-1.377-7.508-2.797-10.82-4.901-9.145-5.81-12.11-12.788-9.66-23.279 2.394-10.249 6.545-19.833 12.548-28.566 8.657-12.594 21.182-18.02 35.857-18.229 27.685-.396 55.379-.172 83.07-.194.343 0 .685.144 1.78.39zM416.232 2.483c-7.893 7.231-16.932 14.089-24.074 22.547-4.874 5.772-9.58 7.762-16.691 7.36-9.197-.52-18.447-.167-27.673-.11-7.677.048-9.78 1.587-12.341 8.805a802.62 802.62 0 0 0-3.892 11.28c-.11.325.016.729.058 1.665h34.028c-2.192 6.057-4.105 11.395-6.054 16.719-3.611 9.861-3.62 9.857-13.971 9.858-6.858 0-13.722.17-20.57-.078-3.011-.109-4.4.88-5.396 3.693-5.146 14.539-10.561 28.983-15.688 43.528-.972 2.756-2.112 3.905-5.226 3.836-10.344-.23-20.696-.082-31.045-.094-1.09-.001-2.18-.095-3.756-.168 2.583-7.194 5.025-14.078 7.523-20.94 9.191-25.243 18.447-50.463 27.588-75.725 5.763-15.927 15.847-27.178 32.92-31.034 2.296-.519 4.652-1.085 6.982-1.092 26.051-.079 52.105-.05 77.278-.05zM646.017 32.53h-23.705c.568-11.645-2.309-21.629-11.218-29.904h127.179c-.421 1.43-.724 2.701-1.166 3.921-2.671 7.367-5.516 14.675-7.996 22.106-.983 2.946-2.346 4.072-5.565 4.023-12.841-.196-25.688.008-38.531-.149-2.861-.035-4.104.925-5.064 3.585-11.02 30.54-22.212 61.018-33.216 91.564-1.057 2.935-2.391 4.019-5.566 3.937-8.972-.232-17.955-.074-26.933-.09-1.194-.002-2.389-.12-4.139-.214l35.92-98.779z"/><path fill="#FFF" d="M282.862 33.888c-.336-17.074-10.237-28.949-26.996-32.267-2.898-.574-5.809-1.083-8.713-1.621h-5.24c-1.202.283-2.392.74-3.606.821-10.803.716-20.87 4.015-29.787 9.936-30.723 20.4-46.615 49.809-49.802 86-1.567 17.795 8.693 30.925 25.496 35.084 4.784 1.184 9.849 1.821 14.772 1.753 19.874-.274 36.807-7.6 50.614-22.022 11.393-11.9 19.081-26.042 25.226-41.154 4.767-11.725 8.288-23.7 8.036-36.53zm-37.077 4.149c-.267 4.924-.652 10.038-2.21 14.656-3.731 11.062-7.957 21.974-12.454 32.75-1.699 4.071-4.473 7.768-7.156 11.335-3.342 4.444-7.924 7.171-13.549 7.807-9.5 1.074-15.155-2.546-14.568-12.374 1.065-12.578 5.215-24.332 10.584-35.563a101.058 101.058 0 0 1 12.038-19.21c5.029-6.315 11.931-9.813 20.482-7.842 4.605 1.063 7.087 3.756 6.833 8.441zM470.705 1.505c-2.662-.469-5.312-1.002-7.968-1.505h-5.24c-1.079.268-2.146.705-3.238.78-15.094 1.03-28.309 6.89-39.662 16.528-23.778 20.187-37.059 46.227-40.49 77.055-1.217 10.939 1.551 21.375 10.042 29.368 8.687 8.177 19.588 10.079 30.855 9.872 19.88-.365 37.016-7.695 50.373-22.518 18.508-20.539 30.064-44.619 32.747-72.211 1.745-17.934-6.605-33.704-27.419-37.369zm-12.213 53.326c-3.84 12.753-8.329 25.276-15.259 36.741-4.052 6.705-9.261 11.932-17.595 13.116-9.807 1.394-15.586-3.964-14.27-13.723 2.243-16.624 8.094-32.006 16.796-46.259 4.485-7.346 10.115-13.823 19.227-15.357 7.997-1.346 14.548 1.431 14.564 11.04-1.139 4.82-2.039 9.71-3.463 14.442zM589.967 4.471a67.634 67.634 0 0 0-14.754-1.909c-14.585-.259-29.18.002-43.766-.225-3.262-.051-4.491 1.187-5.513 4.008-14.157 39.06-28.417 78.082-42.638 117.119-.921 2.529-1.734 5.097-2.735 8.054 12.211 0 23.916-.094 35.618.067 2.865.039 4.057-.943 5.02-3.605 4.525-12.517 9.305-24.943 14.011-37.395.513-1.358 1.134-2.676 2.09-4.912.644 2.077 1.063 3.204 1.343 4.365 2.97 12.324 6.01 24.632 8.811 36.994.727 3.207 1.674 4.731 5.489 4.608 10.838-.349 21.694-.122 32.543-.122h4.571c-4.972-19.056-9.067-37.727-17.902-54.789.27-.352.378-.631.577-.729a75.015 75.015 0 0 1 3.035-1.401c16.226-7.158 28.599-17.933 33.79-35.604 5.305-18.068-1.325-30.052-19.59-34.524zm-15.922 36.321c-4.056 14.067-13.079 21.763-32.349 19.435 1.778-4.861 3.419-9.372 5.077-13.877 1.888-5.128 3.635-10.318 5.799-15.327.523-1.212 2.404-2.497 3.729-2.573 3.324-.193 6.708.123 10.031.53 7.068.865 9.71 4.886 7.713 11.812z"/></svg>