<svg id="Layer_1" data-name="Layer 1" xmlns="http://www.w3.org/2000/svg" viewBox="0 0 628.02 307.49"><defs><style>.cls-1{fill:#0067b1;}.cls-1,.cls-2{fill-rule:evenodd;}.cls-2{fill:#ee2a24;}</style></defs><path class="cls-1" d="M317.23,229.63c18.06,7,36.12,14.54,53.68,23.07a1140.06,1140.06,0,0,0-162.53,80.76c-17.55-9-35.61-18.06-53.67-26.08a1149.66,1149.66,0,0,1,162.52-77.75Z" transform="translate(-81.98 -153.88)"/><path class="cls-1" d="M250,206.05A973.22,973.22,0,0,0,82,277.78c17,6.52,34.11,13.05,50.66,20.07a927.82,927.82,0,0,1,163-76.25c-15.05-5.51-30.1-11-45.65-15.55Z" transform="translate(-81.98 -153.88)"/><path class="cls-2" d="M672.88,316.41c1,3,3.51,4,6,4,1.5,0,3,0,4-1a3.87,3.87,0,0,0,1-2.51c0-2-1.51-3-3.52-3l-3.51-1c-1-.5-2.51-.5-3.51-1.5a5.7,5.7,0,0,1-1.5-4c0-4,3.51-5.52,7-5.52a6.92,6.92,0,0,1,7,5l-2.51.51c0-2-2.5-3.51-5-3.51-1.51,0-4,1-4,3,0,2.51,1.51,3,3.52,3.52l3,.5a34.68,34.68,0,0,1,4,1.5,7,7,0,0,1,1.5,4.52,5.45,5.45,0,0,1-2,4.51,10.07,10.07,0,0,1-5.52,1.51c-4,0-6.52-2-8-6l2-.5Z" transform="translate(-81.98 -153.88)"/><polygon class="cls-2" points="610.47 168.54 608.46 168.54 608.46 148.48 611.97 148.48 618.49 164.53 624.01 148.48 628.02 148.48 628.02 168.54 625.52 168.54 625.52 150.99 625.52 150.99 618.99 168.54 616.99 168.54 610.47 150.99 610.47 150.99 610.47 168.54 610.47 168.54"/><path class="cls-2" d="M439.13,227.12a1047.87,1047.87,0,0,0-142.46-55.68c-17.56,5-34.61,10.53-51.17,16.05A1016.77,1016.77,0,0,1,392,244.17c15.54-6,31.1-11.53,47.15-17Z" transform="translate(-81.98 -153.88)"/><path class="cls-2" d="M513.87,205.05a1035.09,1035.09,0,0,0-145-51.17c-16,3-31.6,6.52-47.15,10.54A969.4,969.4,0,0,1,465.21,219.1c16.05-5,32.61-10,48.66-14Z" transform="translate(-81.98 -153.88)"/><path class="cls-2" d="M634.26,245.18a1264.77,1264.77,0,0,0-328.06,167c25.08,15.55,49.16,31.6,72.73,49.15A1331,1331,0,0,1,690.44,277.28c-18.56-11.54-37.12-22.07-56.18-32.1Z" transform="translate(-81.98 -153.88)"/><path class="cls-2" d="M553,207.06a1132.53,1132.53,0,0,0-341.1,153.49c23.08,11.54,46.16,23.58,68.73,36.62C382.45,326.94,495.31,271.76,615.7,235.65c-20.57-10-41.14-20.07-62.71-28.59Z" transform="translate(-81.98 -153.88)"/></svg>