<?xml version="1.0" encoding="UTF-8"?>
<svg xmlns="http://www.w3.org/2000/svg" width="281.896" height="88.841" viewBox="0 0 281.896 88.841"><path d="M97.23 1.008H34.896s-19.667-3-25.167 21.667-9.167 43-9.167 43-5.332 23.166 16.834 23.166h62.333l3.833-18.667s-33.667-.333-49.5-.333S23.73 54.008 23.73 54.008h63.333l3.333-19h-62.5s1.5-15.333 13.333-15.333h52.5L97.23 1.008zm-7.5 87.833h20.833l7.667-35.333h61.667l4-18.5h-61.5s.333-15.5 14.417-15.5h49.583l4.333-19.5h-59s-23.667-1-28.167 20S89.73 88.841 89.73 88.841zM199.063 0l-3.667 19.008h30.5l-13 69.833h20.5l13.167-69.333h32.167L281.896 0z" fill="#FFF"/></svg>