<?xml version="1.0" encoding="utf-8"?>
<!-- Generator: Adobe Illustrator 16.0.0, SVG Export Plug-In . SVG Version: 6.00 Build 0)  -->
<!DOCTYPE svg PUBLIC "-//W3C//DTD SVG 1.1//EN" "http://www.w3.org/Graphics/SVG/1.1/DTD/svg11.dtd">
<svg version="1.1" id="Layer_1" xmlns="http://www.w3.org/2000/svg" xmlns:xlink="http://www.w3.org/1999/xlink" x="0px" y="0px"
	 width="1920px" height="1080px" viewBox="0 0 1920 1080" enable-background="new 0 0 1920 1080" xml:space="preserve">
<g>
	<path fill="#FFFFFF" d="M1267.637,114.221c-31.575,16.686-56.221,32.09-82.662,42.614c-10.526,4.108-26.442,0.77-37.738-4.62
		C889.492,32.841,595.55,178.657,538.815,456.425c-8.729,42.358-6.417,87.027-10.012,141.708
		c354.272-180.216,699.3-355.811,1052.03-535.257c0,35.94,2.824,65.721-1.54,94.472c-1.541,10.782-17.971,22.078-30.036,28.239
		C1225.791,350.914,902.071,515.727,578.35,680.541c-77.273,39.276-154.545,78.554-239.261,121.684
		c0-35.685-2.053-66.491,1.283-96.525c1.028-8.986,15.146-19.255,25.415-23.875c51.345-22.592,71.625-59.815,70.341-116.294
		C429.71,300.084,584.254,93.169,841.742,28.99C991.922-8.234,1132.86,22.316,1267.637,114.221z"/>
	<path fill="#FFFFFF" d="M651.515,964.983c30.292-15.66,52.884-29.523,77.272-38.764c12.065-4.622,29.265-5.134,40.816,0.256
		c261.083,120.658,551.432-22.078,611.247-303.184c8.984-42.357,6.417-87.027,10.012-141.452
		c-354.271,179.704-699.299,355.298-1051.773,534.743c0-36.71-2.311-67.516,1.283-97.553c1.284-9.498,17.713-18.997,29.265-24.9
		c323.465-165.069,646.929-329.883,970.651-494.439c78.042-39.791,156.084-79.326,240.545-122.198
		c0,34.657,2.311,63.152-1.284,91.134c-1.283,10.526-13.862,23.619-24.389,28.239c-53.14,23.105-73.164,61.356-71.623,119.375
		c6.418,265.959-151.206,474.157-410.748,536.027C924.405,1087.438,784.238,1057.145,651.515,964.983z"/>
</g>
</svg>
