<?xml version="1.0" encoding="UTF-8"?>
<svg width="48px" height="48px" viewBox="0 0 48 48" version="1.1" xmlns="http://www.w3.org/2000/svg" xmlns:xlink="http://www.w3.org/1999/xlink">
    <!-- Generator: Sketch 45.1 (43504) - http://www.bohemiancoding.com/sketch -->
    <title>MoneyGram</title>
    <desc>Created with Sketch.</desc>
    <defs></defs>
    <g id="Mobile" stroke="none" stroke-width="1" fill="none" fill-rule="evenodd">
        <g id="1.4.2_Deposit-Process-(bitcoin-&amp;-credit-card-and-others-inactive)" transform="translate(-51.000000, -378.000000)" fill-rule="nonzero" fill="#FFFFFF">
            <g id="Group-2" transform="translate(17.000000, 355.000000)">
                <g id="MoneyGram" transform="translate(34.000000, 23.000000)">
                    <path d="M24.0644295,0.193288591 C23.2912752,0.289932886 22.1637584,0.579865772 21.1973154,0.902013423 C17.2993289,2.25503356 13.3369128,5.02550336 10.5342282,8.76241611 C8.24697987,11.790604 6.53959732,15.3020134 6.53959732,19.3610738 C6.53959732,25.2563758 11.1785235,27.8657718 15.3020134,27.8657718 C19.4577181,27.8657718 24.4510067,25.7718121 28.5100671,21.9060403 C28.6067114,21.809396 28.7033557,21.7127517 28.8,21.6483221 L22.904698,21.6483221 C21.7127517,21.6483221 20.8751678,20.7463087 21.0362416,19.5543624 C21.0362416,19.4899329 21.1006711,19.1033557 21.1328859,19.0389262 C21.3583893,17.7825503 22.5181208,17.1060403 23.7744966,17.1060403 L35.0496644,17.1060403 C36.3060403,17.1060403 37.1114094,18.1369128 36.885906,19.3932886 L34.8885906,30.6684564 C34.6630872,31.9248322 33.7932886,32.9557047 32.5369128,32.9557047 C32.4724832,32.9557047 32.085906,32.9557047 32.0536913,32.9557047 C30.861745,32.9557047 30.0563758,31.8926174 30.2818792,30.6684564 C30.5073826,29.4120805 31.2161074,25.3852349 31.2161074,25.3852349 C25.642953,30.5073826 19.0711409,33.2778523 13.4013423,33.3100671 C9.6966443,33.3422819 0.966442953,31.7959732 0.966442953,20.9718121 C0.966442953,18.8134228 1.35302013,16.5261745 2.22281879,14.2067114 C0.869798658,17.2026846 0.0966442953,20.5208054 0.0966442953,24.0322148 C0.0966442953,37.2080537 10.7597315,47.8711409 23.9355705,47.8711409 C37.1114094,47.8711409 47.7744966,37.2080537 47.7744966,24.0322148 C47.8067114,10.9208054 37.1758389,0.257718121 24.0644295,0.193288591 Z" id="Shape"></path>
                </g>
            </g>
        </g>
    </g>
</svg>