<?xml version="1.0" encoding="UTF-8"?>
<svg width="55px" height="17px" viewBox="0 0 55 17" version="1.1" xmlns="http://www.w3.org/2000/svg" xmlns:xlink="http://www.w3.org/1999/xlink">
    <!-- Generator: Sketch 45.2 (43514) - http://www.bohemiancoding.com/sketch -->
    <title>Visa</title>
    <desc>Created with Sketch.</desc>
    <defs></defs>
    <g id="Desktop" stroke="none" stroke-width="1" fill="none" fill-rule="evenodd" opacity="0.495867301">
        <g id="01_BetOnline_Desktop_HomePage" transform="translate(-869.000000, -1960.000000)" fill-rule="nonzero" fill="#000000">
            <g id="Group-5" transform="translate(219.000000, 1948.000000)">
                <g id="Visa" transform="translate(650.000000, 12.000000)">
                    <polygon id="Shape" points="19.2837012 16.6068294 22.0518454 0.312158447 26.4995377 0.312158447 23.7313935 16.6068294"></polygon>
                    <path d="M39.7804093,0.686748583 C38.9095325,0.343374292 37.5410118,0 35.7992581,0 C31.4137712,0 28.3345996,2.21632497 28.3345996,5.36912529 C28.3034969,7.71031364 30.5428944,9.02137911 32.2224426,9.80177523 C33.9330935,10.6133872 34.5240456,11.1128407 34.5240456,11.8308051 C34.5240456,12.9233597 33.1555249,13.4228132 31.8803124,13.4228132 C30.107456,13.4228132 29.1743737,13.1730865 27.7125447,12.5799854 L27.1526953,12.3302587 L26.5306405,15.9825125 C27.557031,16.4507502 29.4854011,16.8253403 31.4759767,16.8565561 C36.1413883,16.8565561 39.1583544,14.671447 39.1894572,11.3001358 C39.2205599,9.45840094 38.0386557,8.02247208 35.4882307,6.86748583 C33.9330935,6.11830556 33.0000112,5.61885204 33.0000112,4.83845593 C33.0000112,4.15170734 33.8086825,3.43374292 35.5193334,3.43374292 C36.9811624,3.40252707 38.0075529,3.71468552 38.8162243,4.05805981 L39.2205599,4.24535488 L39.7804093,0.686748583" id="Shape"></path>
                    <path d="M51.1329108,0.312158447 L47.711609,0.312158447 C46.6541157,0.312158447 45.8454444,0.593101049 45.3789032,1.65443977 L38.8162243,16.5756135 L43.4505331,16.5756135 C43.4505331,16.5756135 44.1969989,14.5777995 44.3836154,14.1407776 C44.8812593,14.1407776 49.3911572,14.1407776 50.0443148,14.1407776 C50.1687258,14.7026628 50.5730614,16.5756135 50.5730614,16.5756135 L54.6786236,16.5756135 L51.1329108,0.312158447 L51.1329108,0.312158447 Z M45.6588279,10.8318981 C46.0320608,9.89542277 47.4316843,6.27438478 47.4316843,6.27438478 C47.4005816,6.30560063 47.8049172,5.33790944 48.0226364,4.71359255 L48.3336639,6.11830556 C48.3336639,6.11830556 49.1734379,10.0202861 49.3600544,10.8318981 L45.6588279,10.8318981 Z" id="Shape"></path>
                    <path d="M15.5824746,0.312158447 L11.2591933,11.4249992 L10.7926521,9.17745834 C9.98398076,6.55532738 7.46465851,3.74590136 4.66541157,2.34118835 L8.61546003,16.6068294 L13.3119743,16.6068294 L20.278989,0.312158447 L15.5824746,0.312158447" id="Shape"></path>
                    <path d="M7.24693931,0.312158447 L0.0933082314,0.312158447 L0.0311027438,0.655532738 C5.59849388,1.99781406 9.26861765,5.24426191 10.7926521,9.17745834 L9.23751491,1.68565561 C8.95759021,0.655532738 8.18002162,0.343374292 7.24693931,0.312158447" id="Shape"></path>
                </g>
            </g>
        </g>
    </g>
</svg>