<?xml version="1.0" encoding="UTF-8" standalone="no"?>
<!-- Generator: Adobe Illustrator 22.1.0, SVG Export Plug-In . SVG Version: 6.00 Build 0)  -->

<svg
   xmlns:dc="http://purl.org/dc/elements/1.1/"
   xmlns:cc="http://creativecommons.org/ns#"
   xmlns:rdf="http://www.w3.org/1999/02/22-rdf-syntax-ns#"
   xmlns:svg="http://www.w3.org/2000/svg"
   xmlns="http://www.w3.org/2000/svg"
   xmlns:sodipodi="http://sodipodi.sourceforge.net/DTD/sodipodi-0.dtd"
   xmlns:inkscape="http://www.inkscape.org/namespaces/inkscape"
   version="1.1"
   id="Layer_1"
   x="0px"
   y="0px"
   viewBox="0 0 90 90"
   style="enable-background:new 0 0 90 90;"
   xml:space="preserve"
   sodipodi:docname="icon-whitepayment-gold.svg"
   inkscape:version="0.92.4 (5da689c313, 2019-01-14)"><metadata
   id="metadata41"><rdf:RDF><cc:Work
       rdf:about=""><dc:format>image/svg+xml</dc:format><dc:type
         rdf:resource="http://purl.org/dc/dcmitype/StillImage" /></cc:Work></rdf:RDF></metadata><defs
   id="defs39" /><sodipodi:namedview
   pagecolor="#ffffff"
   bordercolor="#666666"
   borderopacity="1"
   objecttolerance="10"
   gridtolerance="10"
   guidetolerance="10"
   inkscape:pageopacity="0"
   inkscape:pageshadow="2"
   inkscape:window-width="1280"
   inkscape:window-height="737"
   id="namedview37"
   showgrid="false"
   inkscape:zoom="2.6222222"
   inkscape:cx="45.381356"
   inkscape:cy="45"
   inkscape:window-x="-8"
   inkscape:window-y="-8"
   inkscape:window-maximized="1"
   inkscape:current-layer="Layer_1" />
<style
   type="text/css"
   id="style2">
	.st0{fill:transparent;}
	.st1{fill:#FFFFFF;}
	.st2{fill:none;}
	.st3{fill:#24AE4B;}
</style>
<circle
   class="st0"
   cx="45.2"
   cy="45.2"
   r="34.8"
   id="circle4" />
<g
   id="g26">
	<g
   id="g20">
		<path
   class="st2"
   d="M41.4,53.9h-4c-0.2,0-0.3,0.1-0.3,0.3v0.6c0,0.2,0.1,0.3,0.3,0.3h4c0.2,0,0.3-0.1,0.3-0.3v-0.6    C41.7,54,41.5,53.9,41.4,53.9z"
   id="path6" />
		<path
   class="st2"
   d="M53.5,31.3c-0.1-0.4-0.5-0.7-0.9-0.6l-21.9,4.9c-0.4,0.1-0.7,0.5-0.6,0.9c0.1,0.5,0.2,1,0.3,1.5l23.4-5.3    L53.5,31.3z"
   id="path8" />
		<path
   class="st2"
   d="M52.5,53.9h-4c-0.2,0-0.3,0.1-0.3,0.3v0.6c0,0.2,0.1,0.3,0.3,0.3h4c0.2,0,0.3-0.1,0.3-0.3v-0.6    C52.8,54,52.6,53.9,52.5,53.9z"
   id="path10" />
		<path
   class="st2"
   d="M46.9,53.9h-4c-0.2,0-0.3,0.1-0.3,0.3v0.6c0,0.2,0.1,0.3,0.3,0.3h4c0.2,0,0.3-0.1,0.3-0.3v-0.6    C47.2,54,47.1,53.9,46.9,53.9z"
   id="path12" />
		<path
   class="st2"
   d="M58,53.9h-4c-0.2,0-0.3,0.1-0.3,0.3v0.6c0,0.2,0.1,0.3,0.3,0.3h4c0.2,0,0.3-0.1,0.3-0.3v-0.6    C58.3,54,58.2,53.9,58,53.9z"
   id="path14" />
		<path
   class="st1"
   d="M32.9,48.7l-0.1-0.6l-1.4-6.4l23.4-5.3l1.1,4.6h1.4l-2.3-10.3c-0.2-1.1-1.3-1.7-2.3-1.5l-22.2,5l0,0    c-0.5,0.1-0.9,0.4-1.2,0.9c-0.3,0.5-0.4,1-0.3,1.5l2.8,12.4c0.2,0.9,1.1,1.4,2,1.2l0,0V49l-0.2,0C33.2,49.1,33,48.9,32.9,48.7z     M30.2,36.6c-0.1-0.4,0.2-0.8,0.6-0.9l21.9-4.9c0.4-0.1,0.8,0.2,0.9,0.6l0.3,1.4L30.5,38C30.4,37.5,30.3,37,30.2,36.6z"
   id="path16" />
		<path
   class="st1"
   d="M58.8,41.5H36.1h0c-1.1,0-2,0.9-2,2v12.8c0,1.1,0.9,2,2,2h22.7c1.1,0,2-0.9,2-2V43.5    C60.8,42.4,59.9,41.5,58.8,41.5z M41.7,54.8c0,0.2-0.1,0.3-0.3,0.3h-4c-0.2,0-0.3-0.1-0.3-0.3v-0.6c0-0.2,0.1-0.3,0.3-0.3h4    c0.2,0,0.3,0.1,0.3,0.3V54.8z M47.2,54.8c0,0.2-0.1,0.3-0.3,0.3h-4c-0.2,0-0.3-0.1-0.3-0.3v-0.6c0-0.2,0.1-0.3,0.3-0.3h4    c0.2,0,0.3,0.1,0.3,0.3V54.8z M52.8,54.8c0,0.2-0.1,0.3-0.3,0.3h-4c-0.2,0-0.3-0.1-0.3-0.3v-0.6c0-0.2,0.1-0.3,0.3-0.3h4    c0.2,0,0.3,0.1,0.3,0.3V54.8z M58.3,54.8c0,0.2-0.1,0.3-0.3,0.3h-4c-0.2,0-0.3-0.1-0.3-0.3v-0.6c0-0.2,0.1-0.3,0.3-0.3h4    c0.2,0,0.3,0.1,0.3,0.3V54.8z M58.3,47.2c0,0.2-0.1,0.3-0.3,0.3c-1.9,0-3.9,0-5.8,0c-0.2,0-0.3-0.1-0.3-0.3c0-0.9,0-1.7,0-2.6    c0-0.2,0.1-0.3,0.3-0.3c1.9,0,3.9,0,5.8,0c0.2,0,0.3,0.1,0.3,0.3C58.3,45.5,58.3,46.3,58.3,47.2z"
   id="path18" />
	</g>
	<path
   class="st1"
   d="M25.5,46.5L23.2,49c-0.3,0.4-0.3,0.9,0.1,1.2s0.9,0.3,1.2-0.1l0.9-1l0.1,2.8c0.1,1.4,1.3,2.5,2.7,2.5l3.9-0.2   c0.5,0,0.9-0.4,0.8-0.9c0-0.5-0.4-0.9-0.9-0.8l-3.9,0.2c-0.5,0-0.9-0.3-0.9-0.8l-0.1-2.8l1,0.9c0.4,0.3,0.9,0.3,1.2-0.1   c0.2-0.2,0.2-0.4,0.2-0.6s-0.1-0.4-0.3-0.6l-2.5-2.3C26.4,46.2,25.9,46.2,25.5,46.5z"
   id="path22" />
	<path
   class="st1"
   d="M65,43.8l2.4-2.4c0.3-0.3,0.3-0.9,0-1.2c-0.3-0.3-0.9-0.3-1.2,0l-0.9,0.9l0-2.8c0-1.4-1.2-2.6-2.6-2.6l-3.9,0   c-0.5,0-0.9,0.4-0.9,0.9c0,0.5,0.4,0.9,0.9,0.9l3.9,0c0.5,0,0.8,0.4,0.8,0.8l0,2.8l-0.9-0.9c-0.3-0.3-0.9-0.3-1.2,0   c-0.2,0.2-0.3,0.4-0.3,0.6c0,0.2,0.1,0.4,0.3,0.6l2.4,2.4C64.1,44.1,64.7,44.1,65,43.8z"
   id="path24" />
</g>

</svg>