<?xml version="1.0" encoding="UTF-8"?>
<svg width="77px" height="77px" viewBox="0 0 77 77" version="1.1" xmlns="http://www.w3.org/2000/svg" xmlns:xlink="http://www.w3.org/1999/xlink">
    <!-- Generator: Sketch 46.2 (44496) - http://www.bohemiancoding.com/sketch -->
    <title>Group-4</title>
    <desc>Created with Sketch.</desc>
    <defs></defs>
    <g id="Page-1" stroke="none" stroke-width="1" fill="none" fill-rule="evenodd">
        <g id="3.2.1_Rejection_DepositError-Copy" transform="translate(-758.000000, -665.000000)" fill-rule="nonzero">
            <g id="Group-4" transform="translate(758.000000, 665.000000)">
                <circle id="Oval-3-Copy-2" fill="#EE3536" cx="38.5" cy="38.5" r="38.5"></circle>
                <path d="M47.6233687,34.831255 C46.5339778,39.2272647 39.8094646,36.9937903 37.6295823,36.4462288 L39.5530726,28.6761764 C41.7329549,29.2237379 48.7578759,30.2457049 47.6233687,34.831255 M46.4283399,47.3686392 C45.2344114,52.2002595 37.1564125,49.5899209 34.5363723,48.9337339 L36.659034,40.3667246 C39.2779739,41.0251285 47.6761877,42.3297436 46.4283399,47.3686392 M55.2557077,34.9010858 C55.9566593,30.1814163 52.389179,27.6442337 47.5100281,25.9516702 L49.0934963,19.5582804 L45.2300098,18.5884094 L43.689457,24.8133187 C42.6737925,24.5583812 41.6306181,24.3178532 40.5951465,24.079542 L42.145603,17.813621 L38.2854177,16.84375 L36.7019494,23.2349229 C35.8612477,23.0420571 35.0359515,22.8514082 34.234864,22.6507835 L34.2392656,22.6308318 L28.9111535,21.2907472 L27.8833847,25.4473373 C27.8833847,25.4473373 30.7499134,26.1090664 30.6882913,26.1500781 C32.2541532,26.5435686 32.5369547,27.5865956 32.4896377,28.4134799 L30.6860905,35.6969342 C30.7950296,35.7246448 30.9347798,35.7656565 31.088835,35.8266198 C30.9589884,35.7944755 30.8214391,35.7590059 30.6805885,35.7246448 L28.1540819,45.9276879 C27.9626131,46.4065271 27.4762386,47.1236774 26.3835465,46.8521136 C26.4209599,46.9086432 23.5753387,46.1460475 23.5753387,46.1460475 L21.65625,50.601912 L26.6850547,51.8655154 C27.6192899,52.1016097 28.5359189,52.3476799 29.4393431,52.5804489 L27.8393689,59.0469947 L31.6984538,60.0168657 L33.2819221,53.6179338 C34.3361004,53.906124 35.3583672,54.1721458 36.360827,54.4237581 L34.7828607,60.7905456 L38.6463472,61.7604167 L40.245221,55.307172 C46.8321848,56.5630164 51.787263,56.0564666 53.8725114,50.055459 C55.5528144,45.2238387 53.7888813,42.4350438 50.3226374,40.61612 C52.8469433,40.0286553 54.7484257,38.3560434 55.2557077,34.9010858" id="Fill-4" fill="#FFFFFF"></path>
            </g>
        </g>
    </g>
</svg>