<?xml version="1.0" encoding="UTF-8"?>
<svg xmlns="http://www.w3.org/2000/svg" width="505.73" height="111.7" viewBox="0 0 505.73 111.7"><g fill="#FFF"><path d="M16.063.092c0 19.939-.003 39.42.001 58.901.002 8.787 1.54 11.134 10.115 12.302 5.549.756 11.356.724 16.916.016 7.815-.996 9.748-3.775 9.785-12.23.076-17.821.026-35.642.028-53.463V0h16.147v5.221c-.001 19.153.001 38.307-.006 57.46-.006 14.332-8.44 23.012-22.732 22.928-10.25-.06-20.593.125-30.718-1.178-9-1.158-15.283-8.688-15.416-17.576C-.15 44.727.073 22.591.073.092h15.99zM206.953 85.165h-13.665l-.411-5.097c-8.597 8.243-18.741 6.151-28.652 4.635-4.785-.732-8.532-3.983-9.219-8.715-.814-5.614-.708-11.466-.127-17.125.233-2.268 2.394-4.805 4.362-6.344 7.739-6.055 25.876-4.925 33.711 2.393 0-2.462-.112-4.34.018-6.201.924-13.199-5.101-15.367-18.418-12.985-1.516.271-3.826 2.008-3.931 3.224-.417 4.8-3.541 4.39-6.76 4.309-2.318-.059-4.638-.011-6.856-.011-2.773-7.711 2.1-16.179 10.899-17.134 8.508-.923 17.287-.738 25.806.218 7.803.876 11.211 5.411 12.426 13.425.373 2.462.765 4.952.781 7.431.079 12.464.036 24.929.036 37.977zm-26.566-9.09c.79-.047 2.788-.088 4.769-.296 5.021-.528 7.442-3.072 7.754-8.024.304-4.845-2.03-8.391-6.808-8.781-10.135-.827-16.678-1.165-18.108 4.729-.039.161-.056.328-.097.489-2.088 8.334 1.147 11.736 12.49 11.883zM267.207 26.065c-5.893 23.877-11.426 47.453-17.606 70.858-3.216 12.179-12.35 16.836-25.278 13.946v-9.694c10.006-1.525 11.884-3.612 13.664-15.7-6.935 1.738-7.538-3.344-8.987-7.998-4.687-15.045-9.604-30.018-14.416-45.024-.649-2.023-1.203-4.076-1.915-6.502h14.242c2.373 8.136 4.777 16.382 7.184 24.627 2.366 8.102 4.736 16.204 7.895 24.316 2.69-12.065 5.382-24.131 8.068-36.197.108-.486.145-.988.256-1.474 2.87-12.538 2.87-12.537 16.893-11.158zM331.634 56.999l9.054.108c-.058 4.868.435 9.569-.285 14.076-1.401 8.773-7.682 13.977-17.76 14.436-9.306.424-18.675.346-27.974-.206-10.839-.644-18.709-9.011-19.295-22.313-.651-14.762.029-29.629.963-44.398.598-9.453 6.417-16.236 15.847-17.359 10.814-1.287 21.924-1.71 32.755-.772 10.222.886 14.708 7.372 15.35 18.323.145 2.476-.034 4.97-.068 7.847l-8.795-.105c-.333-3.048-.636-6.294-1.053-9.526-.581-4.498-3.257-7.862-7.583-8.044-8.937-.377-17.969-.418-26.852.484-6.901.702-10.351 4.991-10.551 11.841-.4 13.654-.645 27.327-.385 40.982.192 10.081 4.893 14.597 14.895 14.951 6.807.241 13.657.059 20.454-.414 7.66-.533 10.243-3.188 11.126-10.796.337-2.92.118-5.906.157-9.115zM408.201 84.988V26.016h7.961v5.803c8.201-7.574 17.328-9.095 26.533-4.136 6.824 3.677 6.301 11.049 6.259 18.213h-8.15c-.147-.868-.356-1.645-.399-2.431-.505-9.342-1.884-10.897-9.736-10.9-8.769-.004-13.417 3.776-13.596 11.721-.255 11.325-.124 22.658-.146 33.988-.015 7.769-.006 7.769-8.726 6.714zM146.17 21.596C144.891 6.758 138.68 1.015 123.745.644 110.602.317 97.447.424 84.297.381c-1.102-.004-2.204.31-3.335.481V85.13h15.666V57.694c2.261 0 3.887.004 5.514-.001 7.491-.022 14.988.144 22.471-.112 13.154-.451 20.082-5.864 21.303-17.11.676-6.234.792-12.63.254-18.875zm-15.885 13.406c-.547 6.144-2.683 8.198-8.931 8.472-7.947.348-15.922.084-24.5.084V14.974c9.258 0 18.351-.373 27.369.28 2.08.151 5.076 3.557 5.597 5.918.98 4.439.873 9.244.465 13.83zM497.193.728v31.376c-5.198-6.409-11.536-6.778-17.823-7.041-13.703-.574-21.568 4.872-22.794 17.512-.923 9.514-.386 19.296.652 28.834.882 8.1 6.698 13.279 14.673 14.031 8.835.833 17.986 1.896 24.953-6.304l.723 6.011h8.154V.728h-8.538zm-1.244 69.284c-.78 4.243-3.539 7.058-7.967 7.899-1.302.247-2.603.579-3.918.667-14.289.958-18.852-3.109-18.943-17.428-.042-6.623.185-13.305 1.05-19.86.773-5.857 4.002-8.176 9.885-8.617 17.303-1.299 21.179 2.916 21.489 23.019-.504 4.779-.729 9.609-1.596 14.32zM398.759 39.421c-.309-8.172-6.253-13.249-14.508-13.704-6.628-.365-13.307-.428-19.932-.054-9.559.54-14.282 6.9-12.807 16.709h8.207c.896-7.558 3.131-9.584 10.689-9.739 3.494-.072 7.004-.144 10.486.091 4.308.291 8.155 2.144 8.831 6.653.688 4.583.152 9.35.152 13.948-9.652-5.585-19.77-4.431-29.783-2.962-5.865.86-9.631 4.758-10.247 10.699-.473 4.551-.43 9.257.17 13.791.698 5.273 4.281 8.872 9.433 9.746 10.416 1.767 20.992 3.486 30.468-3.621.947 4.863.947 4.863 9.004 4.079 0-15.405.408-30.539-.163-45.636zm-18.687 38.87c-4.418.547-8.984.498-13.428.102-6.369-.567-8.821-4.372-8.524-12.195.241-6.353 2.802-9.071 9.089-9.475 2.152-.138 4.319-.022 6.48-.022v-.04c1.662 0 3.325-.034 4.986.006 7.488.18 10.967 2.944 11.384 9.012.541 7.89-2.19 11.647-9.987 12.612z"/></g></svg>