<?xml version="1.0" encoding="utf-8"?>
<!-- Generator: Adobe Illustrator 24.0.1, SVG Export Plug-In . SVG Version: 6.00 Build 0)  -->
<svg version="1.1" id="Layer_1" xmlns="http://www.w3.org/2000/svg" xmlns:xlink="http://www.w3.org/1999/xlink" x="0px" y="0px"
	 viewBox="0 0 90.29 90.29" style="enable-background:new 0 0 90.29 90.29;" xml:space="preserve">
<style type="text/css">
	.st0{fill:#FFFFFF;}
</style>
<g>
	<path class="st0" d="M38.9,58.89L38.9,58.89c-1.39,0.81-3.18,0.34-4-1.06L23.04,37.45c-0.81-1.39-0.34-3.18,1.06-4l0,0
		c1.39-0.81,3.18-0.34,4,1.06L39.96,54.9C40.77,56.29,40.3,58.08,38.9,58.89z"/>
	<path class="st0" d="M58.24,37.89c-0.71-0.12-1.43-0.16-2.2-0.24c0,0,1.92-5.35-0.51-9.9c-1.09-2.04-2.53-3.72-4.71-4.65
		c-3.1-1.32-6.23-0.98-9.24,0.15c-3.32,1.25-6.23,3.34-9.28,5.12c-1.09,0.64-1.56,2.32-1.17,3.61c0.4,1.32,1.54,2.18,2.92,2.27
		c1.28,0.08,2.26-0.6,3.28-1.17c1.76-0.98,3.49-2,5.25-2.99c3.26-1.82,6.64-0.04,7.65,3.17c0.76,2.43,0.09,4.65-2.17,5.88
		c-0.91,0.5-1.77,1.09-2.67,1.62c-1.37,0.82-2.77,1.59-4.11,2.45c-1.08,0.69-1.53,1.89-1.26,3.06c0.49,2.18,2.72,3.13,4.72,2.03
		c2.55-1.41,5.11-2.8,7.67-4.2c0.68-0.37,1.38-0.63,2.18-0.61c2.37,0.04,4.54,1.69,5.17,3.96c0.7,2.49-0.12,4.71-2.48,6
		c-3.55,1.94-9.71,5.35-10.66,5.83c-0.95,0.48-3.44,1.81-5.1,2.82c-1.81,1.1-2.09,2.88-0.97,4.64c1.08,1.7,3.08,1.48,4.44,0.75
		c1.36-0.73,9.77-5.27,14.66-7.89c1.91-1.03,3.65-2.29,5.08-3.92c1.9-2.15,3-4.64,2.93-7.55c-0.04-1.71-0.74-3.2-1.56-4.67
		C64.36,40.35,61.76,38.48,58.24,37.89z"/>
</g>
</svg>
