<?xml version="1.0" encoding="UTF-8"?>
<svg width="188px" height="114px" viewBox="0 0 188 114" version="1.1" xmlns="http://www.w3.org/2000/svg" xmlns:xlink="http://www.w3.org/1999/xlink">
    <!-- Generator: Sketch 45.2 (43514) - http://www.bohemiancoding.com/sketch -->
    <title>Maestro</title>
    <desc>Created with Sketch.</desc>
    <defs></defs>
    <g id="Page-1" stroke="none" stroke-width="1" fill="none" fill-rule="evenodd">
        <g id="Maestro" fill-rule="nonzero" fill="#FFFFFF">
            <path d="M59.5,63.7 C59.5,65.1 60.5,66.1 62,66.1 C64.8,66.2 66.9,63.8 67,60.3 C66.3,60.2 65.9,60.2 65.4,60.2 C61.5,60.2 59.5,61.4 59.5,63.7 Z" id="Shape"></path>
            <path d="M88,52.2 C85.8,52.2 84.2,53.7 83.6,56.4 L91.2,56.4 C91.2,55.9 91.3,55.5 91.3,55.2 C91.3,53.3 90.1,52.2 88,52.2 Z" id="Shape"></path>
            <g id="Group">
                <path d="M131.6,0.3 C117.1,0.3 104,5.8 94,14.9 L94,14.9 C84.1,5.8 70.9,0.3 56.4,0.3 C25.5,0.3 0.4,25.5 0.4,56.7 C0.4,87.8 25.5,113.1 56.4,113.1 C70.8,113 83.9,107.5 93.9,98.6 L94.1,98.6 C94.1,98.6 94,98.7 94,98.7 C103.9,107.8 117.1,113.3 131.6,113.3 C162.5,113.3 187.6,88.1 187.6,56.9 C187.5,25.5 162.5,0.3 131.6,0.3 Z M42.4,70.7 L46.6,48.7 L37.1,70.7 L30.7,70.7 L29.5,48.8 L25.4,70.7 L19.1,70.7 L24.5,42.1 L35.3,42.1 L35.9,59.8 L43.6,42.1 L54.9,42.1 L49.4,70.7 L42.4,70.7 Z M74,58.4 L72.5,66.6 L72.3,68.1 L72.1,69.3 L72,70.1 L72.1,70.7 L66.3,70.7 L66.4,68.3 C64.6,70.2 62.3,71.1 59.1,71.1 C55.3,71.1 52.7,68.5 52.7,64.8 C52.7,59.1 57.2,55.8 64.9,55.8 C65.7,55.8 66.7,55.9 67.7,56 C67.9,55.2 68,54.9 68,54.5 C68,53 66.8,52.4 63.5,52.4 C61.5,52.4 59.3,52.7 57.7,53 L56.7,53.2 L56.1,53.4 L57.1,48.2 C60.6,47.3 62.9,47 65.4,47 C71.4,47 74.6,49.4 74.6,53.8 C74.6,54.9 74.5,55.8 74,58.4 Z M88.8,65.8 C91.3,65.8 93.5,65.3 96,64.3 L94.9,70.2 C92.5,70.8 90.2,71.1 87.8,71.1 C80,71.1 76,67.5 76,60.7 C76,52.7 81.2,46.8 88.2,46.8 C93.9,46.8 97.6,50.1 97.6,55.3 C97.6,57 97.4,58.7 96.7,61 L82.8,61 C82.7,61.4 82.7,61.5 82.7,61.7 C82.7,64.4 84.8,65.8 88.8,65.8 Z M115.4,52.8 C113.6,52.6 111.7,52.5 110.3,52.5 C108.1,52.5 106.9,53.1 106.9,54.4 C106.9,55.5 107.2,55.7 110.2,56.9 C113.8,58.3 115.2,60.2 115.2,63.4 C115.2,68.7 111.7,71.2 104.3,71.2 C103.4,71.2 102.1,71.1 100.4,71 C99.6,70.9 99,70.9 98.6,70.8 L97.3,70.6 L97,70.5 L98,65.1 C100.2,65.7 102.2,66 104.3,66 C107,66 108.3,65.3 108.3,63.9 C108.3,62.8 107.9,62.5 105,61.3 C101.2,59.8 99.6,57.7 99.6,54.8 C99.6,50.5 102.4,46.9 110.2,46.9 C111.8,46.9 114.6,47.1 116.4,47.4 L115.4,52.8 Z M126.3,65.5 C127.1,65.5 127.7,65.4 128.2,65.3 L127.3,70.4 C125.4,70.9 123.9,71.2 122.3,71.2 C118.7,71.2 116.8,69.4 116.8,66.1 C116.8,65.4 116.9,64.7 117,64 L117.4,61.7 L117.7,59.9 L120.9,42.1 L127.8,42.1 L126.8,47.4 L130.4,47.4 L129.4,53.1 L125.8,53.1 L124,62.8 C123.9,63.2 123.9,63.5 123.9,63.8 C123.9,65 124.6,65.5 126.3,65.5 Z M143.4,54 C140.1,54 139,56.5 136.5,70.7 L129.5,70.7 L133.7,47.4 L140,47.4 L139.4,50.9 C141.6,48.1 143.2,47.1 145.5,47.1 C145.8,47.1 146,47.2 146.2,47.2 C146.2,47.2 146.4,47.2 146.8,47.3 C146.9,47.4 147,47.4 147.6,47.6 L145.1,54.3 L144.3,54.1 C143.9,54 143.7,54 143.4,54 Z M169.3,60.2 C168.3,67.9 162.9,71.4 155.8,71.4 C147.9,71.4 144.7,66.6 144.7,60.7 C144.7,52.5 150.1,46.9 158.4,46.9 C165.6,46.9 169.5,51.5 169.5,57.4 C169.4,58.7 169.4,58.8 169.3,60.2 Z" id="Shape"></path>
                <path d="M158.3,52.5 C154.7,52.5 152.5,56.7 152.5,60.5 C152.5,63.7 154,65.8 156.5,65.7 C158,65.7 161.2,63.6 161.9,60 C162,59.1 162.1,58.2 162.1,57.2 C162.1,54.8 161.1,52.5 158.3,52.5 Z" id="Shape"></path>
            </g>
        </g>
    </g>
</svg>