<?xml version="1.0" encoding="UTF-8"?>
<svg width="99px" height="63px" viewBox="0 0 99 63" version="1.1" xmlns="http://www.w3.org/2000/svg" xmlns:xlink="http://www.w3.org/1999/xlink">
    <!-- Generator: Sketch 45.2 (43514) - http://www.bohemiancoding.com/sketch -->
    <title>np_boxing-gloves_929300_000000</title>
    <desc>Created with Sketch.</desc>
    <defs></defs>
    <g id="Desktop" stroke="none" stroke-width="1" fill="none" fill-rule="evenodd">
        <g id="01_BetOnline_Desktop_HomePage" transform="translate(-1007.000000, -868.000000)" fill-rule="nonzero" fill="#EE3536">
            <g id="np_boxing-gloves_929300_000000" transform="translate(1007.000000, 868.000000)">
                <path d="M35.7537976,23.7967584 C34.0248211,23.7967584 32.3875674,24.2050426 31.146002,24.9424414 L27.7839313,26.9505328 L20.7471855,33.3290069 C20.5430381,33.5164842 20.2847421,33.603973 20.030595,33.603973 C19.7389589,33.603973 19.4514929,33.4873249 19.2390158,33.2540181 C18.8432315,32.8165639 18.876561,32.1416114 19.3140078,31.749976 L25.8632358,25.8173178 C25.8424051,25.7756564 25.8299062,25.7256621 25.8049085,25.6839996 C25.3007953,24.8382612 24.5675027,24.4049985 23.6259565,24.4049985 C22.9385361,24.4049985 22.1844139,24.6383053 21.4470045,25.0757595 L14.6186616,29.146123 C8.01525314,33.0831682 10.2233218,40.298987 10.2441195,40.3736452 C10.3940971,40.8444289 10.1982911,41.3610315 9.77333572,41.6152106 L1.54515215,46.5230253 C0.957720338,46.8646505 0.611925025,47.2271159 0.520266123,47.5895706 C0.428610421,47.9520254 0.557762656,48.4311388 0.907720695,49.0143685 L4.55733201,55.1345253 C3.56577552,52.3931839 4.6198241,49.23525 7.21537617,47.6895059 C10.1608543,45.9355722 13.9813262,46.9020969 15.7352599,49.8433941 L20.1513973,57.2508711 C20.1597302,57.2508711 20.172228,57.2467041 20.1805609,57.2508711 C21.3513077,57.4758482 22.5761283,57.5883367 23.8301722,57.5883367 L23.8343381,57.5883367 C32.5083376,57.5883367 42.2109134,52.0180906 46.4067026,44.6351442 C48.3398159,41.227212 49.9437934,35.9819423 46.5900204,30.3573025 C44.1402725,26.2452371 40.0907067,23.7955959 35.7539203,23.7955959 L35.7537976,23.7967584 Z" id="Shape"></path>
                <path d="M8.30732123,49.5196976 C6.3742079,50.6695401 5.74515949,53.1817875 6.89500197,55.1149009 L11.3987027,62.6723341 L18.4062252,58.4936097 L13.9025245,50.9361764 C12.752682,49.0030631 10.2445941,48.365589 8.30732123,49.5196976 L8.30732123,49.5196976 Z" id="Shape"></path>
                <path d="M97.6475537,46.5152396 L89.4193701,41.6115843 C88.9944158,41.3574479 88.7986087,40.8450049 88.9485863,40.3700189 C89.040242,40.0783828 91.1441765,33.0583177 84.5740442,29.1424967 L77.7457013,25.0721333 C77.0082812,24.6346791 76.2542444,24.4013723 75.5667493,24.4013723 C74.6251924,24.4013723 73.8919532,24.8304861 73.3836377,25.6803734 C73.3586401,25.7178689 73.3461412,25.7720291 73.3253105,25.8095214 L79.8745385,31.7421795 C80.3119927,32.1379638 80.3453222,32.8128843 79.9495305,33.2503812 C79.7412235,33.483688 79.4495874,33.600336 79.1579512,33.600336 C78.9038148,33.600336 78.6455082,33.5086803 78.4413608,33.32537 L71.4004554,26.9468959 L68.0383847,24.942964 C66.7968194,24.2013844 65.1595657,23.797281 63.4305891,23.797281 C59.0935894,23.797281 55.0440236,26.2511884 52.5987552,30.3548281 C49.2450036,35.979148 50.8448215,41.2239911 52.782073,44.6326698 C56.9774356,52.0193492 66.6802246,57.5858623 75.3544374,57.5858623 C76.6084814,57.5858623 77.8374615,57.4733738 79.0082083,57.2483967 C79.0207071,57.2442308 79.029039,57.2483967 79.0415378,57.2442308 L83.4535157,49.8409133 C85.2074494,46.8954352 89.0320808,45.9288252 91.9733994,47.6828656 C94.568944,49.2326626 95.6230107,52.3907032 94.6314436,55.1320445 L98.2810549,49.0160472 C98.976805,47.8453005 98.8143275,47.216252 97.6477936,46.5162784 L97.6475537,46.5152396 Z" id="Shape"></path>
                <path d="M90.8813904,49.5196976 C88.948277,48.3698552 86.4360296,49.0030844 85.2861871,50.9361764 L80.7824864,58.4936097 L87.7900089,62.6723341 L92.2937096,55.1149009 C93.4435521,53.1817875 92.8103228,50.6695401 90.8813904,49.5196976 L90.8813904,49.5196976 Z" id="Shape"></path>
                <path d="M45.3612376,13.4278052 L48.5025334,13.4278052 L46.9901722,21.7477116 C46.9443438,22.001848 47.0901608,22.2559844 47.3317973,22.3434731 C47.3942904,22.3643038 47.4526155,22.3768027 47.5151151,22.3768027 C47.7025924,22.3768027 47.88174,22.2768141 47.9775585,22.1101664 L54.4059469,10.8943761 C54.5017685,10.7277284 54.5017685,10.5277512 54.4059469,10.3611035 C54.3101242,10.198626 54.1351404,10.0944672 53.9435035,10.0944672 L50.7980481,10.0944672 L52.3145689,1.31210667 C52.3562313,1.05380007 52.2104143,0.803833851 51.964614,0.716345141 C51.7188074,0.628855365 51.4480008,0.733009911 51.3230231,0.962151833 L44.8946347,12.63549 C44.8029779,12.8021377 44.8071449,13.0021149 44.9029665,13.1645924 C44.9987892,13.3270699 45.173773,13.4270586 45.3612504,13.4270586 L45.3612376,13.4278052 Z" id="Shape"></path>
                <path d="M55.2267815,22.3729205 C55.3226041,22.3729205 55.418429,22.3479238 55.5059177,22.2937636 L66.5254636,15.5320798 C66.6879411,15.4320912 66.7837702,15.2529436 66.7796,15.0654662 C66.7754341,14.8738187 66.6671115,14.7030115 66.5004638,14.6113526 L63.7383248,13.1031509 L69.2793475,6.12474509 C69.441825,5.92059766 69.4334953,5.62897218 69.2585168,5.43732466 C69.0835394,5.24151761 68.7960734,5.20401788 68.5752666,5.34566896 L57.339212,12.5073072 C57.180894,12.6072959 57.0850756,12.7864435 57.0934053,12.9739208 C57.1017371,13.1613981 57.2058938,13.332216 57.3725415,13.4238749 L60.130521,14.9279171 L54.8144327,21.5063684 C54.6519551,21.7063457 54.6561147,21.9979818 54.8269315,22.1937889 C54.931086,22.3104476 55.0769084,22.3729365 55.226886,22.3729365 L55.2267815,22.3729205 Z" id="Shape"></path>
                <path d="M35.2247912,12.7068205 L32.4668117,14.2108627 C32.300164,14.3025184 32.1960052,14.4733288 32.1876755,14.6608168 C32.1793426,14.8482942 32.2751653,15.0274418 32.4334822,15.1274304 L43.6738029,22.2890687 C43.7612927,22.3473948 43.8612803,22.3723915 43.9612689,22.3723915 L43.9820996,22.3723915 C44.2778953,22.3723915 44.5153722,22.1349145 44.5153722,21.8391188 C44.5153722,21.6641414 44.4320484,21.5099936 44.3070653,21.4141645 L38.8410207,14.5274816 L41.6031597,13.0192799 C41.7698074,12.9276242 41.8781257,12.7568138 41.8822959,12.5651663 C41.8864629,12.3735187 41.7906402,12.1943711 41.6281595,12.0985527 L30.6086136,5.33686889 C30.3878067,5.19938054 30.1003408,5.24521319 29.9295229,5.44102344 C29.758705,5.63683049 29.7545454,5.9243071 29.917024,6.12844387 L35.2247912,12.7068205 Z" id="Shape"></path>
            </g>
        </g>
    </g>
</svg>