<?xml version="1.0" encoding="UTF-8"?>
<svg width="10px" height="6px" viewBox="0 0 10 6" version="1.1" xmlns="http://www.w3.org/2000/svg" xmlns:xlink="http://www.w3.org/1999/xlink">
    <!-- Generator: Sketch 45.2 (43514) - http://www.bohemiancoding.com/sketch -->
    <title>np_up_615161_000000 copy</title>
    <desc>Created with Sketch.</desc>
    <defs></defs>
    <g id="Desktop" stroke="none" stroke-width="1" fill="none" fill-rule="evenodd">
        <g id="3.0_BetOnline_Desktop_SubPages_Sportsbook" transform="translate(-1199.000000, -47.000000)" fill-rule="nonzero" fill="#EE3536">
            <g id="Group-3" transform="translate(1044.000000, 32.000000)">
                <g id="np_up_615161_000000-copy" transform="translate(160.000000, 18.000000) rotate(-180.000000) translate(-160.000000, -18.000000) translate(155.000000, 15.000000)">
                    <path d="M4.77464359,1.93742433 L1.36943022,5.3426377 C1.05711357,5.65564269 0.549676239,5.65495434 0.235965243,5.34125888 C-0.0791224528,5.02617119 -0.0777281032,4.52081655 0.234586425,4.20848226 L4.20865911,0.234409572 C4.36516514,0.0779035442 4.56924849,-5.68434189e-14 4.77400607,-5.68434189e-14 C4.98084635,-5.68434189e-14 5.18422724,0.078597189 5.34072973,0.234409572 L9.31480242,4.20848226 C9.62711906,4.5207989 9.62643071,5.02823623 9.3134236,5.34125888 C8.99764755,5.65703493 8.49229292,5.65564058 8.17995863,5.3426377 L4.77464359,1.93742433 Z" id="Shape"></path>
                </g>
            </g>
        </g>
    </g>
</svg>