<?xml version="1.0" encoding="utf-8"?>
<!-- Generator: Adobe Illustrator 21.1.0, SVG Export Plug-In . SVG Version: 6.00 Build 0)  -->
<svg version="1.1" id="Layer_1" xmlns="http://www.w3.org/2000/svg" xmlns:xlink="http://www.w3.org/1999/xlink" x="0px" y="0px"
	 viewBox="0 0 23 14.3" style="enable-background:new 0 0 23 14.3;" xml:space="preserve">
<style type="text/css">
	.st0{display:none;fill:none;}
	.st1{display:none;fill:#FFFFFF;}
	.st2{fill:#FF5F00;}
	.st3{fill:#EB001B;}
	.st4{fill:#F79E1B;}
</style>
<title>mc_vrt_rev</title>

<g id="Page-1">
	<g id="_x32_.5_x5F_MyAccount_x5F_ProfileSeetings" transform="translate(-319.000000, -894.000000)">
		<g id="mc_vrt_rev" transform="translate(316.000000, 891.000000)">
			<rect id="Rectangle-path" class="st0" width="29" height="23.9"/>
			<path id="Shape" class="st1" d="M7.2,20.9v-1.2c0-0.2-0.1-0.4-0.2-0.5c-0.1-0.1-0.3-0.2-0.5-0.2c-0.3,0-0.5,0.1-0.7,0.3
				c-0.1-0.2-0.4-0.3-0.6-0.3c-0.2,0-0.4,0.1-0.6,0.3V19H4.2v1.9h0.4v-1c0-0.1,0-0.3,0.1-0.4c0.1-0.1,0.2-0.1,0.3-0.1
				c0.3,0,0.4,0.2,0.4,0.5v1.1h0.4v-1.1c0-0.1,0-0.3,0.1-0.4s0.2-0.1,0.3-0.1c0.3,0,0.4,0.2,0.4,0.5v1.1L7.2,20.9z M13.3,19h-0.7
				v-0.6h-0.4V19h-0.4v0.4h0.4v0.9c0,0.4,0.2,0.7,0.7,0.7c0.2,0,0.4-0.1,0.5-0.1l-0.1-0.4c-0.1,0.1-0.2,0.1-0.4,0.1
				c-0.2,0-0.3-0.1-0.3-0.3v-0.9h0.7L13.3,19z M16.8,18.9c-0.2,0-0.4,0.1-0.5,0.3V19h-0.4v1.9h0.4v-1.1c0-0.3,0.1-0.5,0.4-0.5
				c0.1,0,0.2,0,0.3,0l0.1-0.4C17,18.9,16.9,18.9,16.8,18.9L16.8,18.9z M11.5,19.1c-0.2-0.1-0.5-0.2-0.8-0.2c-0.5,0-0.8,0.2-0.8,0.6
				c0,0.3,0.2,0.5,0.7,0.6l0.2,0c0.2,0,0.3,0.1,0.3,0.2c0,0.1-0.1,0.2-0.4,0.2c-0.2,0-0.4-0.1-0.6-0.2l-0.2,0.3
				c0.2,0.2,0.5,0.3,0.8,0.2c0.5,0,0.9-0.3,0.9-0.6c0-0.4-0.2-0.5-0.7-0.6l-0.2,0c-0.2,0-0.3-0.1-0.3-0.2s0.1-0.2,0.4-0.2
				c0.2,0,0.4,0.1,0.6,0.2L11.5,19.1z M22.5,18.9c-0.2,0-0.4,0.1-0.5,0.3V19h-0.4v1.9H22v-1.1c0-0.3,0.1-0.5,0.4-0.5
				c0.1,0,0.2,0,0.3,0l0.1-0.4C22.7,18.9,22.6,18.9,22.5,18.9L22.5,18.9z M17.2,19.9c0,0.3,0.1,0.5,0.3,0.7c0.2,0.2,0.5,0.3,0.7,0.3
				c0.2,0,0.5-0.1,0.7-0.2l-0.2-0.3c-0.1,0.1-0.3,0.2-0.5,0.2c-0.3,0-0.6-0.3-0.6-0.6c0-0.3,0.2-0.6,0.6-0.6c0.2,0,0.4,0.1,0.5,0.2
				l0.2-0.3c-0.2-0.2-0.4-0.2-0.7-0.2c-0.3,0-0.5,0.1-0.7,0.3S17.2,19.6,17.2,19.9L17.2,19.9z M21.1,19.9V19h-0.4v0.2
				c-0.1-0.2-0.4-0.3-0.6-0.3c-0.5,0-1,0.4-1,1c0,0.5,0.4,1,1,1c0.2,0,0.5-0.1,0.6-0.3v0.2h0.4V19.9z M19.5,19.9
				c0-0.3,0.3-0.6,0.6-0.5c0.3,0,0.6,0.3,0.5,0.6c0,0.3-0.3,0.6-0.6,0.6c-0.2,0-0.3-0.1-0.4-0.2C19.6,20.2,19.5,20.1,19.5,19.9z
				 M14.6,18.9c-0.5,0-1,0.5-1,1s0.5,1,1,1c0.3,0,0.6-0.1,0.8-0.3l-0.2-0.3c-0.2,0.1-0.3,0.2-0.5,0.2c-0.3,0-0.5-0.2-0.6-0.5h1.4
				c0-0.1,0-0.1,0-0.2C15.5,19.3,15.1,18.9,14.6,18.9L14.6,18.9z M14.6,19.3c0.1,0,0.2,0,0.3,0.1s0.1,0.2,0.1,0.3h-1
				C14.1,19.5,14.3,19.3,14.6,19.3L14.6,19.3z M24.9,19.9v-1.7h-0.4v1c-0.1-0.2-0.4-0.3-0.6-0.3c-0.5,0-1,0.4-1,1c0,0.5,0.4,1,1,1
				c0.2,0,0.5-0.1,0.6-0.3v0.2h0.4V19.9z M25.5,20.6C25.6,20.6,25.6,20.6,25.5,20.6c0.1,0,0.1,0,0.1,0.1c0,0,0,0,0,0.1
				c0,0,0,0.1,0,0.1c0,0,0,0,0,0.1c0,0,0,0-0.1,0c0,0,0,0-0.1,0c-0.1,0-0.1,0-0.2-0.1c0,0,0-0.1,0-0.1c0,0,0,0,0-0.1
				C25.4,20.6,25.4,20.6,25.5,20.6C25.5,20.6,25.5,20.6,25.5,20.6L25.5,20.6z M25.5,20.9C25.6,20.9,25.6,20.9,25.5,20.9
				c0.1,0,0.1,0,0.1,0c0.1-0.1,0.1-0.1,0-0.2c0,0,0,0,0,0c0,0,0,0-0.1,0c0,0,0,0-0.1,0c0,0,0,0,0,0c-0.1,0.1-0.1,0.1,0,0.2
				C25.5,20.9,25.5,20.9,25.5,20.9C25.5,20.9,25.5,20.9,25.5,20.9L25.5,20.9z M25.6,20.7C25.6,20.7,25.6,20.7,25.6,20.7
				C25.6,20.7,25.6,20.7,25.6,20.7C25.6,20.8,25.6,20.8,25.6,20.7c0,0.1,0,0.1,0,0.1l0.1,0.1h0l-0.1-0.1h0v0.1h0L25.6,20.7
				L25.6,20.7z M25.5,20.7L25.5,20.7L25.5,20.7C25.6,20.8,25.6,20.8,25.5,20.7C25.6,20.8,25.6,20.8,25.5,20.7
				C25.6,20.8,25.6,20.8,25.5,20.7C25.6,20.7,25.6,20.7,25.5,20.7L25.5,20.7z M23.3,19.9c0-0.3,0.3-0.6,0.6-0.5
				c0.3,0,0.6,0.3,0.5,0.6c0,0.3-0.3,0.6-0.6,0.6c-0.2,0-0.3-0.1-0.4-0.2C23.4,20.2,23.3,20.1,23.3,19.9z M9.5,19.9V19H9.1v0.2
				c-0.1-0.2-0.4-0.3-0.6-0.3c-0.5,0-1,0.4-1,1c0,0.5,0.4,1,1,1c0.2,0,0.5-0.1,0.6-0.3v0.2h0.4V19.9z M8,19.9c0-0.3,0.3-0.6,0.6-0.5
				c0.3,0,0.6,0.3,0.5,0.6c0,0.3-0.3,0.6-0.6,0.6c-0.2,0-0.3-0.1-0.4-0.2C8,20.2,7.9,20.1,8,19.9L8,19.9z"/>
			<g id="_Group_" transform="translate(2.959184, 2.975207)">
				<rect id="Rectangle-path_1_" x="8.4" y="1.6" class="st2" width="6.2" height="11.2"/>
				<path id="_Path_" class="st3" d="M8.8,7.2c0-2.2,1-4.3,2.7-5.6c-2.9-2.3-7.1-2-9.6,0.8s-2.5,7,0,9.7s6.7,3.1,9.6,0.8
					C9.8,11.4,8.8,9.4,8.8,7.2z"/>
				<path id="Shape_1_" class="st4" d="M23,7.2c0,2.7-1.6,5.2-4,6.4s-5.4,0.9-7.5-0.8c1.7-1.4,2.7-3.4,2.7-5.6s-1-4.3-2.7-5.6
					c2.1-1.7,5-2,7.5-0.8S23,4.4,23,7.2L23,7.2z"/>
				<path id="Shape_2_" class="st4" d="M22.3,11.6v-0.2h0.1v0h-0.2v0h0.1L22.3,11.6L22.3,11.6z M22.8,11.6v-0.3h-0.1l-0.1,0.2
					l-0.1-0.2h-0.1v0.3h0.1v-0.2l0.1,0.2h0.1l0.1-0.2L22.8,11.6L22.8,11.6z"/>
			</g>
		</g>
	</g>
</g>
</svg>
