<?xml version="1.0" encoding="UTF-8"?>
<svg width="30px" height="30px" viewBox="0 0 30 30" version="1.1" xmlns="http://www.w3.org/2000/svg" xmlns:xlink="http://www.w3.org/1999/xlink">
    <!-- Generator: Sketch 45.2 (43514) - http://www.bohemiancoding.com/sketch -->
    <title>Instagram</title>
    <desc>Created with Sketch.</desc>
    <defs></defs>
    <g id="Desktop" stroke="none" stroke-width="1" fill="none" fill-rule="evenodd">
        <g id="01_BetOnline_Desktop_HomePage" transform="translate(-993.000000, -2081.000000)" fill-rule="nonzero" fill="#FFFFFF">
            <g id="Instagram" transform="translate(993.000000, 2081.000000)">
                <path d="M4.05405405,0.162162162 L25.9864865,0.162162162 C28.0540541,0.162162162 29.7567568,1.86486486 29.7567568,3.93243243 L29.7567568,25.8648649 C29.7567568,27.9324324 28.0540541,29.6351351 25.9864865,29.6351351 L4.05405405,29.6351351 C1.98648649,29.6351351 0.283783784,27.9324324 0.283783784,25.8648649 L0.283783784,3.93243243 C0.283783784,1.86486486 1.98648649,0.162162162 4.05405405,0.162162162 Z M21.7702703,3.40540541 C21.0405405,3.40540541 20.4324324,4.01351351 20.4324324,4.74324324 L20.4324324,7.90540541 C20.4324324,8.63513514 21.0405405,9.24324324 21.7702703,9.24324324 L25.0945946,9.24324324 C25.8243243,9.24324324 26.4324324,8.63513514 26.4324324,7.90540541 L26.4324324,4.74324324 C26.4324324,4.01351351 25.8243243,3.40540541 25.0945946,3.40540541 L21.7702703,3.40540541 Z M26.472973,12.6081081 L23.8783784,12.6081081 C24.1216216,13.4189189 24.2432432,14.2702703 24.2432432,15.1621622 C24.2432432,20.0675676 20.1486486,24.0405405 15.0810811,24.0405405 C10.0135135,24.0405405 5.91891892,20.0675676 5.91891892,15.1621622 C5.91891892,14.2702703 6.04054054,13.4189189 6.28378378,12.6081081 L3.56756757,12.6081081 L3.56756757,25.0945946 C3.56756757,25.7432432 4.09459459,26.2702703 4.74324324,26.2702703 L25.2972973,26.2702703 C25.9459459,26.2702703 26.472973,25.7432432 26.472973,25.0945946 L26.472973,12.6081081 L26.472973,12.6081081 Z M15.0810811,9.08108108 C11.7972973,9.08108108 9.16216216,11.6351351 9.16216216,14.8378378 C9.16216216,18 11.7972973,20.5945946 15.0810811,20.5945946 C18.3648649,20.5945946 21,18.0405405 21,14.8378378 C21,11.6756757 18.3243243,9.08108108 15.0810811,9.08108108 Z" id="Shape"></path>
            </g>
        </g>
    </g>
</svg>