<?xml version="1.0" encoding="UTF-8"?>
<svg width="716px" height="181px" viewBox="0 0 716 181" version="1.1" xmlns="http://www.w3.org/2000/svg" xmlns:xlink="http://www.w3.org/1999/xlink">
    <!-- Generator: Sketch 45.2 (43514) - http://www.bohemiancoding.com/sketch -->
    <title>CartaSi</title>
    <desc>Created with Sketch.</desc>
    <defs></defs>
    <g id="Page-1" stroke="none" stroke-width="1" fill="none" fill-rule="evenodd">
        <g id="CartaSi" fill-rule="nonzero" fill="#FFFFFF">
            <path d="M74,49.4 C99.6,49.9 119.9,55.2 137.2,69.3 C143.8,74.7 149.2,81.1 152.3,89.2 C152.7,90.4 153.1,91.7 153,92.9 C152.9,95.2 150.7,96.3 148.7,95.1 C147.6,94.5 146.7,93.5 145.8,92.6 C133.4,80.5 118.6,73.8 101.3,72.3 C92.6,71.6 84.1,72.1 75.7,74.8 C63.7,78.6 57.6,87.1 57.6,99.7 C57.6,109.5 57.4,119.4 57.7,129.2 C57.9,137.9 54.5,143.9 43.4,141.6 C29.5,138.8 17.3,133 9.1,121 C-2.2,104.4 0.6,83.6 15.7,69.8 C26.4,60 39.3,54.6 53.3,51.9 C61.3,50.6 69.5,50 74,49.4 Z" id="Shape"></path>
            <path d="M96.4,113.9 C96.4,108.4 96.3,103 96.4,97.5 C96.5,90 100.5,86.1 108,87.2 C123.3,89.4 136.5,95.7 145.4,108.9 C155.7,124.1 153.2,144.4 139.6,157.9 C128.8,168.6 115.4,174.2 100.8,177.2 C76.5,182.1 52.8,180.6 30.4,169 C18.9,163.1 9.1,155.2 3,143.4 C2.1,141.6 1.2,139.8 0.9,137.9 C0.7,136.8 1.1,134.8 1.9,134.3 C2.9,133.7 4.6,134.2 5.9,134.5 C6.6,134.7 7.1,135.5 7.7,136.1 C22.6,150.9 40.6,157.6 61.5,157 C68.2,156.8 74.7,155.9 80.9,153.3 C90.9,149.1 95.9,141.4 96.2,130.6 C96.5,125.1 96.4,119.5 96.4,113.9 L96.4,113.9 Z" id="Shape"></path>
            <path d="M263.3,179.9 C243.3,179.3 224.7,172.6 210.7,155.7 C202.7,146.1 198.5,134.9 197.3,122.6 C195.9,107.4 198.1,92.9 206.3,79.8 C216,64.2 230.4,55.2 248.1,51.3 C262.3,48.2 276.2,49 289.9,54.1 C292.2,55 293,56 292.4,58.4 C291.5,62.7 290.9,67 290.2,71.3 C289.5,75.2 289.4,75.2 286.1,73.4 C278.9,69.6 271.1,67.8 263,67.8 C239.7,68 222.1,82.2 217.8,105.1 C213.2,129.4 225.2,155.1 254.3,160.5 C265.4,162.6 276,161.1 286,155.9 C289.5,154.1 289.6,154.1 290.2,157.8 C291,162.3 291.6,166.8 292.5,171.3 C293,173.5 292.2,174.3 290.3,175 C282.1,178.2 273.6,179.8 263.3,179.9 Z" id="Shape"></path>
            <path d="M364.2,166.7 C358.9,172.2 353.7,176.2 347.1,178.4 C329.3,184.2 311.3,175.3 307.1,158 C303.6,143.3 309.1,128.2 328.1,121.6 C335.3,119.1 342.9,118.8 350.4,118.6 C354.8,118.5 359.1,118.6 363.4,118.6 C365.8,108.6 360.5,101.7 350.2,101.4 C340.2,101.2 330.2,101.3 320.1,101.3 C317.6,101.3 316.4,101 317.2,98 C318.1,94.2 318.6,90.2 319.1,86.3 C319.3,84.7 319.9,84 321.5,84 C332.9,84.2 344.3,84 355.7,84.7 C369.2,85.5 378.3,94.2 380.4,107.5 C381.1,111.8 381.5,116.2 381.5,120.5 C381.6,138.4 381.5,156.2 381.6,174.1 C381.6,176.9 380.9,178 377.9,177.9 C374.1,177.7 370.4,177.8 366.6,177.9 C364.7,177.9 363.9,177.2 364,175.3 C364.3,172.7 364.2,170.1 364.2,166.7 Z M363.6,133.7 C356,134.1 348.5,134.3 341,135.1 C337.4,135.5 333.8,136.6 330.6,138.1 C324.8,140.8 322.7,145.7 323.9,152.4 C324.9,158.1 329,161.9 335,162.7 C352.4,165 364.8,152.8 363.6,133.7 Z" id="Shape"></path>
            <path d="M573.4,177.8 C573.4,173.9 573.4,170.7 573.4,167 C570.8,169.3 568.6,171.3 566.2,173.2 C554.3,182.3 537.3,182.4 526.1,173.5 C511.1,161.7 511.9,137.3 527.6,126.4 C536.1,120.5 545.8,119 555.9,118.7 C561.5,118.5 567.2,118.7 572.8,118.7 C575.1,108.6 569.8,101.7 559.5,101.4 C549.7,101.2 539.8,101.3 530,101.3 C528.9,101.3 527.9,101.3 526.1,101.3 C526.7,97.1 527.2,93.2 527.8,89.4 C528.7,84 528.8,84 534.2,84.1 C544.4,84.2 554.7,84 564.8,84.7 C579.5,85.8 588.8,95.5 590.1,110.3 C590.5,114.8 590.7,119.4 590.7,124 C590.8,140.9 590.7,157.8 590.8,174.6 C590.8,177 590.2,178 587.7,177.9 C583.1,177.7 578.4,177.8 573.4,177.8 Z M572.7,133.8 C565.4,134.1 558.3,134.2 551.2,134.9 C547.5,135.3 543.8,136.4 540.4,137.8 C534.3,140.3 532,145.4 533,152.4 C533.8,157.7 538.3,161.9 544.2,162.7 C561.7,165.1 574.2,152.7 572.7,133.8 Z" id="Shape"></path>
            <path d="M609.4,154.6 C614.4,156.7 618.7,159 623.3,160.4 C630.8,162.7 638.5,163.1 646.2,160.9 C655.8,158.2 661.6,149.5 659.8,139.8 C659.3,136.9 657.2,133.8 655,131.9 C650.8,128.4 645.9,125.6 641.3,122.6 C633.5,117.6 625.3,113 617.7,107.7 C612,103.7 608.1,98 606.4,91 C603.3,78.1 608.6,64.7 619.6,57.1 C630,50 641.6,48.4 653.7,49.7 C659.4,50.3 664.9,51.9 670.5,53 C672.2,53.4 672.9,54.2 672.5,56.1 C671.5,61.3 670.8,66.6 670,72.2 C668.8,71.8 668.1,71.6 667.4,71.3 C658.1,66.7 648.2,65.8 638.2,67.9 C629.3,69.8 624.3,75.7 624.9,83.8 C625.1,86.6 626.5,90 628.6,91.8 C633,95.6 638,98.6 642.9,101.7 C650.3,106.3 658.2,110.2 665.2,115.3 C684.2,129.1 681.6,152.3 672.3,164.4 C665.5,173.1 656.1,177.4 645.6,179 C632.9,180.9 620.5,179.3 608.6,174.4 C607.7,174 606.3,172.9 606.4,172.2 C607.2,166.5 608.3,160.6 609.4,154.6 Z" id="Shape"></path>
            <path d="M468.8,101.3 C464.1,101.3 459.8,101.2 455.6,101.3 C453.5,101.4 452.9,100.5 453.3,98.6 C454.1,94.4 454.7,90.2 455.7,86.1 C455.9,85.3 457.4,84.2 458.3,84.2 C461.6,84 465,84.1 468.8,84.1 C468.8,79.5 468.9,75 468.7,70.6 C468.6,68.4 469.4,67.4 471.4,66.8 C475.5,65.5 479.6,64 483.7,62.6 C486.7,61.6 487,61.8 487,64.8 C487,70.2 487,75.5 487,80.9 C487,81.9 487,82.8 487,84.1 C493.4,84.1 499.5,84.2 505.7,84.1 C508.1,84.1 509.5,84.3 508.7,87.4 C507.8,90.8 507.2,94.4 507,97.9 C506.8,101 505.4,101.4 502.8,101.3 C497.7,101.2 492.5,101.3 487,101.3 C487,102.6 487,103.7 487,104.7 C487,120.7 487.3,136.7 486.9,152.6 C486.7,162 493.2,163.6 499.6,161.7 C502.1,161 504.5,159.8 507.4,158.7 C507.4,164.7 507.4,170.2 507.3,175.6 C507.3,176.2 506.5,177.3 505.9,177.5 C497.9,180.1 489.8,181.2 481.8,178.1 C472.9,174.7 469.7,167.1 469.4,158.5 C468.8,141 468.9,123.4 468.8,105.9 C468.8,104.4 468.8,103 468.8,101.3 Z" id="Shape"></path>
            <path d="M417.4,94.3 C424,86.6 432.2,84 441.6,84.1 C444.1,84.1 444.8,85 444.3,87.4 C443.5,91.3 442.7,95.2 442.1,99.1 C441.8,100.8 441.2,101.4 439.4,101.5 C437.2,101.6 435,101.8 432.9,102.3 C422.9,104.5 418.2,110.7 418.1,121.9 C418,139.3 418,156.6 418,174 C418,177.9 418,178 414.1,178 C410.2,178 406.4,177.9 402.5,178 C400.6,178 399.6,177.5 399.7,175.3 C399.8,145.7 399.8,116.1 399.7,86.5 C399.7,84.6 400.4,83.8 402.3,83.8 C406.5,83.8 410.6,83.9 414.8,83.8 C416.9,83.8 417.6,84.8 417.5,86.7 C417.3,89.2 417.4,91.7 417.4,94.3 Z" id="Shape"></path>
            <path d="M711.4,177.8 C706.1,177.8 700.6,177.8 695.2,177.7 C694.7,177.7 694,176.7 693.7,176 C693.4,175.3 693.6,174.4 693.6,173.6 C693.6,145.5 693.6,117.5 693.6,89.4 C693.6,84.9 693.6,84.9 698.2,84.9 C701.9,84.9 705.5,84.9 709.2,84.9 C710.8,84.9 711.7,85.3 711.7,87.2 C711.6,117.1 711.6,146.9 711.6,176.8 C711.7,176.9 711.6,177 711.4,177.8 Z" id="Shape"></path>
            <path d="M76.7,32.9 C71.7,33.1 67.3,31.5 63.5,28.3 C56.1,22 56.1,11.9 63.5,5.6 C70.7,-0.6 82.7,-0.6 89.9,5.5 C99.1,13.3 96.3,27 84.6,31.5 C83.4,32 82.2,32.4 80.9,32.6 C79.5,32.8 78,32.8 76.7,32.9 Z" id="Shape"></path>
            <path d="M715.3,60.5 C715.3,67.4 709.6,73.2 702.7,73.2 C695.9,73.3 690.1,67.4 690.2,60.4 C690.3,53.5 695.7,47.9 702.6,47.8 C709.4,47.8 715.3,53.5 715.3,60.5 Z" id="Shape"></path>
        </g>
    </g>
</svg>