<svg id="Layer_3" data-name="Layer 3" xmlns="http://www.w3.org/2000/svg" viewBox="0 0 327.19 306.68"><defs><style>.cls-1{fill:#f03031;}</style></defs><path class="cls-1" d="M201.85,183.94l27.59,8.83c8.83,2.82,17.1,13,19.24,23.59l6.14,30.52,19.44-62.35c2.09-6.74-1-17.2-6.89-23.41L214,105c-5.9-6.19-12.37-5.76-14.46,1l-21.88,70.2,12.48,4C197.77,182.38,190.13,180.19,201.85,183.94ZM204,137.69c.39-7.09,3.52-12.68,7-12.5s6,6.09,5.59,13.18-3.51,12.68-7,12.48S203.62,144.76,204,137.69Z" transform="translate(-61.62 -80.66)"/><path class="cls-1" d="M377,156.4l-75.89,15.36c-8.39,1.71-16.91,8.51-19.06,15.22L258,262.64l2.91,14.48a14.77,14.77,0,0,0,6.65,0l75.89-15.35c8.38-1.71,16.93-8.53,19.05-15.23l25.84-81.09C390.46,158.77,385.4,154.71,377,156.4Zm-85.65,93.65c-3,6.43-8,10.46-11.13,9s-3.28-7.86-.3-14.29,8-10.45,11.13-9S294.37,243.61,291.37,250.05ZM330,219.72c-2.92,6.45-7.87,10.53-11,9.09s-3.37-7.85-.44-14.3,7.87-10.53,11-9.09S332.88,213.24,330,219.72Zm37.1-32.28c-2.92,6.46-7.87,10.53-11,9.09s-3.38-7.83-.45-14.29,7.87-10.53,11-9.09S370,181,367.05,187.44Z" transform="translate(-61.62 -80.66)"/><path class="cls-1" d="M287.66,130.94c-6.84-1.84-13.13-.6-14,2.76s3.93,7.58,10.78,9.43,13.13.58,14-2.78S294.52,132.78,287.66,130.94Z" transform="translate(-61.62 -80.66)"/><path class="cls-1" d="M353.67,122.32c-6.85-1.82-13.14-.58-14,2.78s3.91,7.58,10.77,9.42,13.14.6,14-2.78S360.51,124.17,353.67,122.32Z" transform="translate(-61.62 -80.66)"/><path class="cls-1" d="M244.56,91.42c-6.89-1.7-13.14-.33-14,3s4.09,7.5,11,9.2,13.14.32,14-3.07S251.45,93.1,244.56,91.42Z" transform="translate(-61.62 -80.66)"/><path class="cls-1" d="M310.38,81.39c-6.89-1.7-13.16-.32-14,3.06s4.09,7.48,11,9.17,13.14.32,14-3.06S317.26,83.06,310.38,81.39Z" transform="translate(-61.62 -80.66)"/><path class="cls-1" d="M246.67,312.05l-81.22-25.43c-6.73-2.1-17.2,1-23.41,6.86L85.89,346.79c-6.2,5.9-5.78,12.36,1,14.46l81.23,25.43c6.71,2.11,17.2-1,23.4-6.86l56.14-53.32C253.82,320.62,253.41,314.15,246.67,312.05ZM118.53,356.81c-7.09-.4-12.67-3.53-12.48-7s6.09-6,13.18-5.57,12.67,3.52,12.46,7S125.6,357.21,118.53,356.81Zm30-46.6c.25-3.47,6.19-5.87,13.25-5.38s12.61,3.73,12.38,7.22-6.19,5.87-13.25,5.36S148.32,313.69,148.55,310.21Zm16.73,61.49c-7-.93-12.37-4.47-11.91-7.93s6.51-5.49,13.55-4.56,12.36,4.47,11.9,7.93S172.3,372.64,165.28,371.7ZM209,332.75c-7-1.25-12.15-5-11.55-8.47s6.78-5.19,13.75-3.95,12.16,5,11.54,8.47S216,334,209,332.75Z" transform="translate(-61.62 -80.66)"/><path class="cls-1" d="M242.82,217.54c-1.69-8.39-8.5-16.93-15.21-19.08l-81.06-25.92c-6.71-2.15-10.78,2.9-9.1,11.28l15.27,75.91c1.7,8.39,8.49,16.92,15.2,19.09L249,304.73c6.72,2.15,10.79-2.9,9.1-11.28Zm-88.64-23.29c1.43-3.17,7.85-3.35,14.3-.42s10.52,7.89,9.08,11-7.84,3.37-14.3.42S152.75,197.42,154.18,194.25Zm62.5,75.61c1.49-3.15,7.89-3.28,14.32-.28s10.45,8,9,11.14-7.87,3.28-14.3.28S215.22,273,216.68,269.86Zm9.54-49.47c-1.47,3.17-7.86,3.3-14.3.31s-10.45-8-9-11.15,7.87-3.29,14.3-.28S227.7,217.25,226.22,220.39ZM209.79,242c-1.44,3.18-7.85,3.36-14.3.42s-10.52-7.88-9.08-11.05,7.83-3.36,14.3-.42S211.23,238.85,209.79,242Zm-41.87,12.54c1.44-3.16,7.83-3.36,14.31-.42s10.51,7.89,9.07,11.05-7.83,3.37-14.3.42S166.49,257.73,167.92,254.56Z" transform="translate(-61.62 -80.66)"/><path class="cls-1" d="M121.31,262.39c-3.37-.9-7.58,3.91-9.42,10.76s-.62,13.14,2.74,14.05,7.59-3.93,9.44-10.77S124.67,263.3,121.31,262.39Z" transform="translate(-61.62 -80.66)"/><path class="cls-1" d="M121.29,242.42c1.83-6.84.62-13.12-2.75-14s-7.59,3.91-9.43,10.76-.62,13.12,2.74,14S119.44,249.28,121.29,242.42Z" transform="translate(-61.62 -80.66)"/><path class="cls-1" d="M115.54,210.41c1.84-6.85.61-13.13-2.76-14s-7.57,3.92-9.43,10.75-.6,13.15,2.76,14S113.69,217.26,115.54,210.41Z" transform="translate(-61.62 -80.66)"/><path class="cls-1" d="M81.5,305.24c-3.38-.83-7.5,4.07-9.19,11s-.34,13.15,3,14,7.5-4.07,9.22-11S84.88,306.08,81.5,305.24Z" transform="translate(-61.62 -80.66)"/><path class="cls-1" d="M81,285.28c1.71-6.89.32-13.14-3-14s-7.5,4.08-9.2,10.95-.33,13.15,3,14S79.34,292.17,81,285.28Z" transform="translate(-61.62 -80.66)"/><path class="cls-1" d="M74.59,253.4c1.69-6.89.34-13.15-3-14s-7.5,4.06-9.18,10.95-.34,13.15,3,14S72.89,260.28,74.59,253.4Z" transform="translate(-61.62 -80.66)"/></svg>