<?xml version="1.0" encoding="UTF-8"?>
<svg width="15px" height="12px" viewBox="0 0 15 12" version="1.1" xmlns="http://www.w3.org/2000/svg" xmlns:xlink="http://www.w3.org/1999/xlink">
    <!-- Generator: Sketch 45.1 (43504) - http://www.bohemiancoding.com/sketch -->
    <title>Page 1 Copy 5</title>
    <desc>Created with Sketch.</desc>
    <defs></defs>
    <g id="Mobile" stroke="none" stroke-width="1" fill="none" fill-rule="evenodd">
        <g id="1.0.1_Create-Account-Error" transform="translate(-324.000000, -479.000000)" fill="#D1F1B1">
            <g id="Group-6" transform="translate(35.000000, 474.000000)">
                <path d="M303.82883,6.3005059 L303.826124,6.29840583 C303.933022,6.1612168 304,5.98902182 304,5.79863579 C304,5.35767487 303.654275,5 303.228047,5 C302.97502,5 302.752423,5.12808993 302.611698,5.32267968 L302.610345,5.32128023 L294.369834,13.1698435 L290.604119,11.1609797 C290.583822,11.1490799 290.562849,11.1378807 290.541199,11.1273821 L290.521579,11.1168818 L290.514136,11.1140829 C290.482339,11.0993842 290.449864,11.0860849 290.416034,11.0741851 L290.403855,11.0692862 L290.403855,11.069985 C290.30034,11.0356869 290.189381,11.0160892 290.075052,11.0160892 C289.481028,11.0160892 289,11.5144437 289,12.128302 C289,12.47338 289.152227,12.7820473 289.391051,12.9864457 L289.391728,12.9871463 L293.442357,16.4827234 C293.519484,16.5639165 293.604732,16.6374118 293.69606,16.7018152 L293.696737,16.702514 C293.96466,16.8901047 294.288059,17 294.636486,17 C295.097908,17 295.516013,16.8068187 295.819788,16.4946393 L295.823171,16.4981406 L295.874591,16.4330456 C295.919921,16.3819487 295.961868,16.3280529 296.001108,16.272057 L303.82883,6.3005059 Z" id="Page-1-Copy-5"></path>
            </g>
        </g>
    </g>
</svg>