<svg id="Layer_1" data-name="Layer 1" xmlns="http://www.w3.org/2000/svg" viewBox="0 0 186.77 149.41"><defs><style>.cls-1{fill:#22ae01;fill-rule:evenodd;}</style></defs><path class="cls-1" d="M241.25,101.22A10.38,10.38,0,0,0,243.38,95,9.78,9.78,0,0,0,233.77,85a9.46,9.46,0,0,0-7.67,4L123.48,186.75l-46.89-25q-.37-.23-.78-.42a15.65,15.65,0,0,0-1.56-.66,13.23,13.23,0,0,0-4.25-.73,13.63,13.63,0,0,0-13.38,13.85,14,14,0,0,0,4.86,10.69L111.93,228a21.07,21.07,0,0,0,3.16,2.73,20.37,20.37,0,0,0,26.44-2.58l.68-.77a21.68,21.68,0,0,0,1.58-2Z" transform="translate(-56.62 -85.03)"/></svg>