<svg xmlns="http://www.w3.org/2000/svg" viewBox="0 0 388.73 388.9"><defs><style>.cls-1{fill:#fff;}</style></defs><g id="Layer_2" data-name="Layer 2"><g id="Layer_1-2" data-name="Layer 1"><path class="cls-1" d="M206.35,388.9h-24.1c-7.38-1-14.82-1.82-22.15-3.16C52.09,366-17.66,263,3.92,155.38,24.55,52.44,125.12-15.67,228.73,3.12A193.85,193.85,0,0,1,384.84,156.29c1.74,8.61,2.62,17.39,3.89,26.09v24.11c-1,7.52-1.83,15.08-3.18,22.54a194,194,0,0,1-157,156.74C221.17,387.07,213.74,387.87,206.35,388.9ZM206.81,269c3.67-1,7-1.8,10.31-2.89,23.67-7.87,35.92-30.92,29-54.56a30.77,30.77,0,0,0-11.6-16.87c-8.81-6.4-19.08-8.7-29.47-10.84-9.26-1.9-18.57-3.76-27.65-6.36-5.9-1.68-9-6.46-9.47-12.68-.52-7,1.14-13,7.33-17.13,14.63-9.73,36.08-3.45,42.68,12.55,1.27,3.07,3.35,4.7,6.71,4.67s7,0,10.44,0c6.64,0,8.85-3.08,7.08-9.53-4.58-16.66-15.84-26.17-32.26-30-2.48-.58-3.27-1.51-3.19-4,.15-5.09.12-10.18,0-15.26-.09-4.6-2.41-7-6.89-7.12-3.74-.11-7.49-.12-11.24,0-4.34.15-6.61,2.47-6.7,6.84-.09,4.82-.21,9.65.05,14.45.15,2.92-.9,3.81-3.68,4.35-11.52,2.23-21.26,7.5-28.74,16.88-10.65,13.34-11.89,43.91,9.94,55,7,3.58,14.94,5.67,22.65,7.7,8.76,2.31,17.83,3.46,26.59,5.76,6.66,1.76,11.75,5.73,12.84,13.29,1.19,8.21-.84,15.3-7.69,20.25-10.1,7.29-21.4,6.8-32.69,3.7-9.5-2.61-14.36-9.66-16.35-19-.79-3.71-3.32-5.3-7-5.3-4,0-8-.06-12,0-5.25.09-7.69,2.85-6.72,8,2.38,12.67,8.2,23.43,19.7,29.77,7,3.87,14.91,6.14,23.1,9.4,0,4.91-.06,10.91,0,16.92.07,4.58,2.36,6.83,7,6.95,3.21.09,6.42,0,9.63,0,6.13,0,8.21-2.08,8.25-8.16C206.83,280.18,206.81,274.59,206.81,269Zm134-72.78c-.12-2.27-.23-4.54-.36-6.81-2.48-42.46-20-77.48-52.26-105.07a140,140,0,0,0-48.49-26.81c-5.8-1.87-9.12.52-9.21,6.61,0,2.81,0,5.62,0,8.44,0,6.34,1.58,8.62,7.45,10.87,49.11,18.9,79.84,67,77.3,117-2.52,49.75-27.08,85.49-72,106.82-12.73,6-12.85,4.23-12.73,19.78.07,8.6,2.84,10.66,10.89,7.92A146.4,146.4,0,0,0,340.83,196.18ZM158.14,68.8c0-1.47,0-3,0-4.42-.06-6.61-3.34-9-9.65-6.71-5.89,2.15-11.78,4.38-17.45,7.06C41.68,107,19.88,226,88.39,297.32a144.38,144.38,0,0,0,60.49,38c5.74,1.86,9.13-.31,9.25-6,.06-2.81,0-5.63,0-8.44,0-7-1.48-9.1-8.08-11.65-75-29-101-123.67-51.42-187.13a120.16,120.16,0,0,1,52.55-38.89c4.17-1.59,6.76-4.21,6.93-8.81C158.19,72.55,158.13,70.67,158.14,68.8Z"/></g></g></svg>