<?xml version="1.0" encoding="UTF-8"?>
<svg width="84px" height="83px" viewBox="0 0 84 83" version="1.1" xmlns="http://www.w3.org/2000/svg" xmlns:xlink="http://www.w3.org/1999/xlink">
    <title>bank-building</title>
    
    <g id="Page-1" stroke="none" stroke-width="1" fill="none" fill-rule="evenodd">
        <g id="icon-bank-wrapper" transform="translate(-106.000000, -1024.000000)" fill="#4B4B4B" fill-rule="nonzero">
            <g id="icon-bank" transform="translate(106.000000, 1024.000000)">
                <path d="M79.4130208,75.4381702 L3.7825,75.4381702 C1.69291667,75.4381702 0,77.1264255 0,79.2120213 C0,81.2940851 1.69291667,82.9823404 3.7825,82.9823404 L79.41125,82.9823404 C81.5008333,82.9823404 83.19375,81.2940851 83.19375,79.2120213 C83.1919792,77.1264255 81.4990625,75.4381702 79.4130208,75.4381702 Z" id="Shape"></path>
                <path d="M8.50885417,65.6318085 C6.41927083,65.6318085 4.72635417,67.3200638 4.72635417,69.4038936 C4.72635417,71.4877234 6.41927083,73.1777447 8.50885417,73.1777447 L74.6848958,73.1777447 C76.7744792,73.1777447 78.4673958,71.4877234 78.4673958,69.4038936 C78.4673958,67.3200638 76.7744792,65.6318085 74.6848958,65.6318085 L73.7410417,65.6318085 L73.7410417,31.6901064 L74.6848958,31.6901064 C75.7314583,31.6901064 76.574375,30.8459787 76.574375,29.8058298 C76.574375,28.7656809 75.7279167,27.9215532 74.6848958,27.9215532 L8.50885417,27.9215532 C7.4640625,27.9215532 6.619375,28.7656809 6.619375,29.8058298 C6.619375,30.8459787 7.46583333,31.6901064 8.50885417,31.6901064 L9.45447917,31.6901064 L9.45447917,65.6300426 L8.50885417,65.6300426 L8.50885417,65.6318085 Z M66.1760417,31.6901064 L66.1760417,65.6300426 L54.8320833,65.6300426 L54.8320833,31.6901064 L66.1760417,31.6901064 Z M47.2670833,31.6901064 L47.2670833,65.6300426 L35.923125,65.6300426 L35.923125,31.6901064 L47.2670833,31.6901064 Z M17.0159375,31.6901064 L28.3598958,31.6901064 L28.3598958,65.6300426 L17.0159375,65.6300426 L17.0159375,31.6901064 Z" id="Shape"></path>
                <path d="M3.7825,24.5309149 L79.41125,24.5309149 C79.4236458,24.5309149 79.4378125,24.5309149 79.4484375,24.5309149 C81.5397917,24.5309149 83.2309375,22.8426596 83.2309375,20.7588298 C83.2309375,19.1023617 82.1613542,17.6984255 80.675625,17.1898298 L43.1516667,0.351425532 C42.1653125,-0.0900638298 41.0372917,-0.0900638298 40.0491667,0.351425532 L2.23125,17.3205106 C0.603854167,18.051617 -0.290416667,19.8140426 0.085,21.5517447 C0.458645833,23.2894468 1.99927083,24.5309149 3.7825,24.5309149 Z" id="Shape"></path>
            </g>
        </g>
    </g>
</svg>