<svg id="Layer_3" data-name="Layer 3" xmlns="http://www.w3.org/2000/svg" viewBox="0 0 248.56 189.9"><defs><style>.cls-1{fill:#2c2c2c;}.cls-2,.cls-3{fill:none;stroke:#fff;stroke-width:20px;}.cls-2{stroke-miterlimit:10;}</style></defs><path class="cls-1" d="M233.34,162.18l-9.26,8.15-5.55-6.39,15.07-12.72h9.13v46.19h-9.39Z" transform="translate(-71.47 -98.37)"/><path class="cls-2" d="M310,203.85c-.11,1.19-.21,2.38-.34,3.57a46.36,46.36,0,0,1-7.55,20.92c-7.52,11.32-18,18.47-31.12,21.88-1.43.37-2.89.62-4.34.91a1.38,1.38,0,0,1-.3,0c1.63-.56,3.37-1,5-1.76,9.86-4.18,16.62-11.26,19.85-21.56a32.36,32.36,0,0,0,1.18-12.46,30.32,30.32,0,0,0-2.66-10.54,25.4,25.4,0,0,0-11.95-12,44.18,44.18,0,0,0-12.74-4,91.27,91.27,0,0,0-15.67-1.08l-.33,0v22.6L208.53,173c13.5-12.51,26.95-25,40.51-37.57v19.19l1,.05a91.09,91.09,0,0,1,26.8,3.93,53.8,53.8,0,0,1,18,9.25,39.11,39.11,0,0,1,14,22.81,49.43,49.43,0,0,1,1.09,8.66,5.36,5.36,0,0,0,.1.7Z" transform="translate(-71.47 -98.37)"/><path class="cls-1" d="M310,203.85c-.11,1.19-.21,2.38-.34,3.57a46.36,46.36,0,0,1-7.55,20.92c-7.52,11.32-18,18.47-31.12,21.88-1.43.37-2.89.62-4.34.91a1.38,1.38,0,0,1-.3,0c1.63-.56,3.37-1,5-1.76,9.86-4.18,16.62-11.26,19.85-21.56a32.36,32.36,0,0,0,1.18-12.46,30.32,30.32,0,0,0-2.66-10.54,25.4,25.4,0,0,0-11.95-12,44.18,44.18,0,0,0-12.74-4,91.27,91.27,0,0,0-15.67-1.08l-.33,0v22.6L208.53,173c13.5-12.51,26.95-25,40.51-37.57v19.19l1,.05a91.09,91.09,0,0,1,26.8,3.93,53.8,53.8,0,0,1,18,9.25,39.11,39.11,0,0,1,14,22.81,49.43,49.43,0,0,1,1.09,8.66,5.36,5.36,0,0,0,.1.7Z" transform="translate(-71.47 -98.37)"/><path class="cls-3" d="M233.34,226.13a165.7,165.7,0,0,0-51.73-14.84c.6-4.23,1.21-8.47,1.8-12.7,4-2.54,6.82-6.28,7.07-9.4.47-3.93.93-7.85,1.38-11.79a3.5,3.5,0,0,0,2.13,1.08,3.43,3.43,0,0,0,3.76-3.06l1.88-18.15a3.42,3.42,0,0,0-5-3.35c.41-3.45.81-6.89,1.19-10.36.33-4.73,2.67-17.35-6.44-25.49-13.19-12.94-42.2-12.94-55.39,0-9.11,8.14-6.77,20.76-6.45,25.49.4,3.47.81,6.91,1.2,10.36a3.36,3.36,0,0,0-2-.4,3.42,3.42,0,0,0-3,3.75l1.88,18.15a3.41,3.41,0,0,0,3.75,3.06,3.48,3.48,0,0,0,2.13-1.08c.45,3.94.92,7.86,1.38,11.79.27,3.12,3.12,6.86,7.08,9.4q.9,6.34,1.78,12.7a165.87,165.87,0,0,0-51.72,14.84c-5.28,2.78-9,10-8.41,15.52q.91,9.56,1.9,19.12c.57,5.56,5.34,11.05,10.62,12.07a424.08,424.08,0,0,0,135.2,0c5.27-1,10-6.51,10.6-12.07q1-9.55,1.91-19.12C242.3,236.08,238.62,228.9,233.34,226.13Z" transform="translate(-71.47 -98.37)"/><path class="cls-1" d="M233.34,226.13a165.7,165.7,0,0,0-51.73-14.84c.6-4.23,1.21-8.47,1.8-12.7,4-2.54,6.82-6.28,7.07-9.4.47-3.93.93-7.85,1.38-11.79a3.5,3.5,0,0,0,2.13,1.08,3.43,3.43,0,0,0,3.76-3.06l1.88-18.15a3.42,3.42,0,0,0-5-3.35c.41-3.45.81-6.89,1.19-10.36.33-4.73,2.67-17.35-6.44-25.49-13.19-12.94-42.2-12.94-55.39,0-9.11,8.14-6.77,20.76-6.45,25.49.4,3.47.81,6.91,1.2,10.36a3.36,3.36,0,0,0-2-.4,3.42,3.42,0,0,0-3,3.75l1.88,18.15a3.41,3.41,0,0,0,3.75,3.06,3.48,3.48,0,0,0,2.13-1.08c.45,3.94.92,7.86,1.38,11.79.27,3.12,3.12,6.86,7.08,9.4q.9,6.34,1.78,12.7a165.87,165.87,0,0,0-51.72,14.84c-5.28,2.78-9,10-8.41,15.52q.91,9.56,1.9,19.12c.57,5.56,5.34,11.05,10.62,12.07a424.08,424.08,0,0,0,135.2,0c5.27-1,10-6.51,10.6-12.07q1-9.55,1.91-19.12C242.3,236.08,238.62,228.9,233.34,226.13Z" transform="translate(-71.47 -98.37)"/></svg>