<?xml version="1.0" encoding="UTF-8"?>
<svg width="55px" height="54px" viewBox="0 0 55 54" version="1.1" xmlns="http://www.w3.org/2000/svg" xmlns:xlink="http://www.w3.org/1999/xlink">
    <!-- Generator: Sketch 45.2 (43514) - http://www.bohemiancoding.com/sketch -->
    <title>np_football_762908_000000</title>
    <desc>Created with Sketch.</desc>
    <defs></defs>
    <g id="Desktop" stroke="none" stroke-width="1" fill="none" fill-rule="evenodd">
        <g id="01_BetOnline_Desktop_HomePage" transform="translate(-694.000000, -1093.000000)" fill-rule="nonzero" fill="#EE3536">
            <g id="np_football_762908_000000" transform="translate(694.000000, 1093.000000)">
                <polygon id="Shape" points="35.7218807 21.1615399 36.6136561 20.2731027 35.6461885 19.3092567 34.7544131 20.1976938 33.5835454 19.0312091 32.8100921 19.8017671 33.9809598 20.9682519 32.5333613 22.4104315 31.3624936 21.2439467 30.5890403 22.0145048 31.759908 23.1809896 30.3123096 24.6231692 29.1414419 23.4566844 28.3679885 24.2272424 29.5388563 25.3937272 28.0912578 26.8359069 26.9203901 25.6694221 26.1469368 26.4423329 27.3178045 27.6088177 25.870206 29.0509973 24.6993383 27.8845125 23.925885 28.6550706 25.0967527 29.8215554 23.6491542 31.263735 22.4782865 30.0972502 21.7048332 30.8678082 22.8757009 32.034293 21.4281025 33.4764727 20.2572348 32.3099879 19.4837814 33.0805459 20.6546492 34.2470307 19.7628738 35.1354679 20.7303414 36.099314 21.6197552 35.2108768 22.7906229 36.3773616 23.5640762 35.6068035 22.3955701 34.4403187 23.8431685 32.9981391 25.0116747 34.1646239 25.7874896 33.3917131 24.6166218 32.2275811 26.0642203 30.7854014 27.235088 31.9495335 28.0085413 31.1789754 26.8376736 30.0124906 28.2852721 28.570311 29.4561398 29.7367958 30.2295931 28.9662377 29.0587254 27.7997529 30.5063239 26.3575733 31.6771916 27.5240581 32.4506449 26.7535001 31.2797772 25.5870153 32.7273756 24.1448356 33.8982433 25.3113204 34.6716967 24.5407624 33.5008289 23.3742776 34.9484274 21.932098 36.1192951 23.0985827 36.8927484 22.3280247"></polygon>
                <path d="M1.81897473,30.3330688 L24.2547525,52.6848624 C37.1272732,48.7871888 49.3561073,36.5895923 53.2448705,23.7652575 L30.8472416,1.45147001 C17.9722987,5.32796876 5.73135389,17.5111471 1.81897473,30.3330688 Z M39.925463,15.1897603 L40.7012779,15.9626711 C41.7798617,17.0372174 41.2878925,19.2877199 39.608464,20.9632447 L21.5888727,38.915383 C19.9071128,40.5908475 17.6481544,41.0810052 16.5695101,40.0041061 L15.7936952,39.2311953 C14.7151114,38.156649 15.2070805,35.9061466 16.8865091,34.2306217 L34.9061003,16.2784835 C36.5878602,14.603019 38.8468186,14.1128613 39.925463,15.1897603 L39.925463,15.1897603 Z" id="Shape"></path>
                <path d="M38.2342567,0.207404568 L54.4917332,16.4040242 C54.730636,6.40541076 48.2728609,-0.0302842039 38.2342567,0.207404568 Z" id="Shape"></path>
                <path d="M16.8769416,53.9408726 L0.55588362,37.6809095 C0.288593218,47.7410566 6.78141684,54.2093282 16.8769416,53.9408726 Z" id="Shape"></path>
            </g>
        </g>
    </g>
</svg>