<svg xmlns="http://www.w3.org/2000/svg" width="0.391in" height="0.391in" viewBox="0 0 28.167 28.167" fill="#ffffff">
  <title>American Express</title>
  <g>
    <path d="M3.309,27.236H2.993a1.8,1.8,0,0,1-.046-.418c0-.117-.019-.234-.234-.234H2.25v.652H1.973V25.642h.74c.255,0,.536.092.536.445a.4.4,0,0,1-.172.359c.072.041.134.109.143.289l.012.275c0,.08.011.1.077.133Zm-.344-1.127c0-.2-.138-.219-.238-.219H2.25v.445h.441C2.838,26.335,2.965,26.3,2.965,26.109Zm1.309.348a1.709,1.709,0,1,0-1.709,1.7A1.7,1.7,0,0,0,4.274,26.456Zm-.258,0a1.431,1.431,0,0,1-1.451,1.451,1.451,1.451,0,1,1,0-2.9A1.428,1.428,0,0,1,4.017,26.456Z" fill="#ffffff"/>
    <g>
      <path d="M26.675,16.5h1.269c.041-.234.079-.469.108-.707H26.542c-.832,0-1.137.507-1.137.988,0,1.051.93,1,1.675,1.028a.409.409,0,0,1,.28.075.28.28,0,0,1,.1.22.289.289,0,0,1-.1.215.45.45,0,0,1-.321.083H25.512v.713h1.534c.065,0,.122-.009.183-.014a13.959,13.959,0,0,0,.573-1.877,1.741,1.741,0,0,0-.653-.129l-.429-.011a.926.926,0,0,1-.306-.038.251.251,0,0,1-.175-.248.263.263,0,0,1,.117-.24A.546.546,0,0,1,26.675,16.5Z"/>
      <path d="M23.941,18.4H22.4v.713h1.548c.8,0,1.247-.334,1.247-1.05a.922.922,0,0,0-.238-.7,1.3,1.3,0,0,0-.905-.266l-.429-.011a.937.937,0,0,1-.307-.038.28.28,0,0,1-.055-.487.547.547,0,0,1,.32-.06h1.456v-.707H23.441c-.832,0-1.134.507-1.134.988,0,1.051.93,1,1.672,1.028a.411.411,0,0,1,.281.075.276.276,0,0,1,.1.22.288.288,0,0,1-.094.215A.461.461,0,0,1,23.941,18.4Z"/>
      <path d="M18.742,10.788h.75v-.712h-.767a1.613,1.613,0,0,0-1.207.389,1.765,1.765,0,0,0-.427,1.3,1.668,1.668,0,0,0,.424,1.27,1.674,1.674,0,0,0,1.151.366h.93l.3-.741h1.652l.309.741h1.617l0-2.492,1.5,2.492H26.1V10.077h-.812V12.39l-1.4-2.313H22.682v3.142l-1.343-3.142h-1.19L19.03,12.69h-.357a.768.768,0,0,1-.552-.171,1.139,1.139,0,0,1-.22-.781,1.117,1.117,0,0,1,.226-.753A.773.773,0,0,1,18.742,10.788Zm1.981-.146.55,1.323H20.18Z"/>
      <polygon points="21.926 16.482 21.926 15.794 19.274 15.794 19.274 19.117 21.926 19.117 21.926 18.427 20.066 18.424 20.066 17.763 21.88 17.763 21.88 17.085 20.066 17.085 20.066 16.482 21.926 16.482"/>
      <rect x="15.893" y="10.077" width="0.81" height="3.322"/>
      <path d="M15.432,10.973a.772.772,0,0,0-.4-.736,1.881,1.881,0,0,0-.961-.16H12.242V13.4h.793V12.192h.853c.287,0,.461.025.578.143a.975.975,0,0,1,.128.646l0,.418h.8v-.653a.948.948,0,0,0-.134-.607.889.889,0,0,0-.39-.28A.941.941,0,0,0,15.432,10.973Zm-1.039.467a.761.761,0,0,1-.392.068h-.965V10.77h.978a.817.817,0,0,1,.378.058.305.305,0,0,1,.166.294A.347.347,0,0,1,14.393,11.44Z"/>
      <path d="M1.055,12.657H2.709l.3.741H4.627v-2.6l1.157,2.6h.7L7.63,10.8l0,2.6h.813V10.077H7.126l-.955,2.255L5.133,10.077h-1.3v3.146l-1.35-3.146H1.3L.055,13c-.01.131-.014.265-.02.4H.748Zm.824-2.015.543,1.323H1.338Z"/>
      <path d="M13.927,15.794H11.39l-1.01,1.088L9.4,15.794H6.211v3.323H9.355l1.016-1.1.978,1.1H12.89V18h.99c.7,0,1.383-.192,1.383-1.113S14.557,15.794,13.927,15.794Zm-4.974,2.63H7v-.661H8.743v-.678H7v-.6H8.99l.868.967Zm3.147.392-1.217-1.354,1.217-1.31Zm1.82-1.489H12.89v-.844h1.036c.287,0,.486.115.486.407S14.223,17.326,13.919,17.326Z"/>
      <polygon points="11.691 10.77 11.691 10.077 9.039 10.077 9.039 13.398 11.691 13.398 11.691 12.711 9.835 12.711 9.835 12.047 11.646 12.049 11.646 11.366 9.835 11.366 9.835 10.77 11.691 10.77"/>
      <path d="M26.96,19.77H24.9v-.3a1.852,1.852,0,0,1-1.079.3H17.336V18.7c0-.129-.012-.137-.144-.137h-.1v1.21H14.954V18.519a2.72,2.72,0,0,1-1.105.161h-.257v1.091l-2.587,0-.637-.721-.676.721h-4.2V15.133H9.773l.613.712.656-.712h2.866a1.812,1.812,0,0,1,1.119.272v-.272h2.558a2.078,2.078,0,0,1,1.071.272v-.272h3.883l0,.272a1.516,1.516,0,0,1,.948-.272h2.173V15.4a1.652,1.652,0,0,1,.995-.272h1.46c.026-.348.053-.7.053-1.049A14.083,14.083,0,0,0,.659,9.825l.178-.406h2.07l.269.547V9.419H5.6l.528,1.2.52-1.2h7.708a1.312,1.312,0,0,1,.9.271V9.419h2.107v.271a2.741,2.741,0,0,1,1.326-.271h3.057l.283.547V9.419h2.264l.307.547V9.419h2.206v4.633H24.58l-.421-.7v.7H21.379l-.3-.739H20.39l-.309.739H18.636a2.711,2.711,0,0,1-1.273-.283v.283H13.934V13c0-.148-.026-.157-.117-.16h-.129l0,1.211H7.058V13.48l-.237.575H5.436L5.2,13.487v.564H2.527l-.3-.739H1.538l-.306.739H0l0,.032A14.08,14.08,0,0,0,26.961,19.77Z"/>
      <path d="M18.833,16.69a.776.776,0,0,0-.407-.738,1.934,1.934,0,0,0-.956-.158H15.639v3.323h.8V17.9h.85c.289,0,.466.028.581.149.148.154.129.449.129.649v.417h.8v-.658a.958.958,0,0,0-.132-.607.847.847,0,0,0-.389-.28A.93.93,0,0,0,18.833,16.69Zm-1.042.47a.768.768,0,0,1-.39.068h-.965v-.746h.978a.793.793,0,0,1,.378.058.318.318,0,0,1,.164.3A.361.361,0,0,1,17.791,17.16Z"/>
    </g>
  </g>
</svg>
