<?xml version="1.0" encoding="UTF-8"?>
<svg width="36px" height="29px" viewBox="0 0 36 29" version="1.1" xmlns="http://www.w3.org/2000/svg" xmlns:xlink="http://www.w3.org/1999/xlink">
    <!-- Generator: Sketch 45.2 (43514) - http://www.bohemiancoding.com/sketch -->
    <title>Twitter</title>
    <desc>Created with Sketch.</desc>
    <defs></defs>
    <g id="Desktop" stroke="none" stroke-width="1" fill="none" fill-rule="evenodd">
        <g id="01_BetOnline_Desktop_HomePage" transform="translate(-1077.000000, -2082.000000)" fill-rule="nonzero" fill="#FFFFFF">
            <g id="Twitter" transform="translate(1077.000000, 2082.000000)">
                <path d="M35.5813953,3.61449275 C34.2837209,4.20289855 32.8604651,4.58115942 31.3953488,4.74927536 C32.9023256,3.86666667 34.0325581,2.43768116 34.5767442,0.714492754 C33.1953488,1.55507246 31.6046512,2.14347826 29.972093,2.47971014 C28.6325581,1.05072464 26.7488372,0.168115942 24.655814,0.168115942 C20.6372093,0.168115942 17.4139535,3.44637681 17.4139535,7.43913043 C17.4139535,8.02753623 17.4976744,8.57391304 17.5813953,9.07826087 C11.5534884,8.78405797 6.19534884,5.88405797 2.6372093,1.47101449 C2.00930233,2.56376812 1.6744186,3.7826087 1.6744186,5.12753623 C1.6744186,7.64927536 2.97209302,9.87681159 4.89767442,11.1797101 C3.7255814,11.1376812 2.59534884,10.8014493 1.59069767,10.2550725 L1.59069767,10.3391304 C1.59069767,13.8695652 4.10232558,16.8115942 7.40930233,17.484058 C6.78139535,17.6521739 6.15348837,17.7362319 5.48372093,17.7362319 C5.02325581,17.7362319 4.5627907,17.6942029 4.10232558,17.6101449 C5.02325581,20.5101449 7.70232558,22.6115942 10.8837209,22.6536232 C8.41395349,24.5869565 5.2744186,25.7637681 1.88372093,25.7637681 C1.29767442,25.7637681 0.711627907,25.7217391 0.16744186,25.6797101 C3.39069767,27.7391304 7.2,28.957971 11.3023256,28.957971 C24.655814,28.957971 31.9395349,17.8623188 31.9395349,8.23768116 C31.9395349,7.94347826 31.9395349,7.60724638 31.9395349,7.31304348 C33.4046512,6.3884058 34.6186047,5.08550725 35.5813953,3.61449275 Z" id="Shape"></path>
            </g>
        </g>
    </g>
</svg>