<?xml version="1.0" encoding="UTF-8"?>
<svg width="306px" height="111px" viewBox="0 0 306 111" version="1.1" xmlns="http://www.w3.org/2000/svg" xmlns:xlink="http://www.w3.org/1999/xlink">
    <!-- Generator: Sketch 45.2 (43514) - http://www.bohemiancoding.com/sketch -->
    <title>Shape</title>
    <desc>Created with Sketch.</desc>
    <defs></defs>
    <g id="Page-1" stroke="none" stroke-width="1" fill="none" fill-rule="evenodd">
        <g id="Epay" fill-rule="nonzero" fill="#FFFFFF">
            <path d="M303.8,0.9 L292.5,0.9 C290.9,0.9 289.2,2.1 288.7,3.6 L266.9,61.3 C266.3,62.8 265.5,62.7 265,61.3 L244.7,3.6 C244.2,2.1 242.5,0.9 240.9,0.9 L228.6,0.9 C227,0.9 226.2,2.1 226.8,3.5 L257.2,82.4 C257.8,83.9 257.8,86.3 257.3,87.7 L250.5,107.8 C250,109.3 250.9,110.5 252.4,110.5 L262.7,110.5 C264.3,110.5 265.9,109.3 266.4,107.8 L273.3,86.9 C273.8,85.4 274.7,83 275.2,81.6 L305.7,3.5 C306.1,2.1 305.3,0.9 303.8,0.9 Z M115,0.9 L95.6,0.9 C93.9,0.9 92.8,0.9 92.8,0.9 L80.2,0.9 C78.6,0.9 77.4,2.2 77.4,3.7 L77.4,107.7 C77.4,109.3 78.7,110.5 80.2,110.5 L89.9,110.5 C91.5,110.5 92.7,109.2 92.7,107.7 L92.7,88.8 L92.7,67.3 L92.7,17.9 C92.7,16.3 94,15.1 95.5,15.1 C95.5,15.1 106.7,15.1 115.1,15.1 C124.7,15.1 131.3,19.7 131.3,31.1 L131.3,52.3 C131.3,66.7 124.3,70.9 111.5,70.9 C110.3,70.9 112.1,70.9 110.9,70.9 L110.9,70.9 C110.3,70.9 110.3,70.9 110.3,70.9 C109,70.9 107.5,72.1 106.9,73.5 L103.4,82.3 C102.8,83.8 103.6,84.9 105.2,85 L112.1,85 C132.3,85 146.7,75.2 146.7,52.2 L146.7,31 C146.8,11.1 132.4,0.9 115,0.9 Z M43.6,0.9 L31.6,0.9 C11.2,0.9 0,11.1 0,30.1 L0,55.1 C0,74.7 14.8,85.1 34.8,85.1 L34.8,85.1 C45.3,85.1 59.4,85 59.4,85 C61,85 62.7,83.8 63.3,82.3 L66.8,73.5 C67.4,72 66.6,70.9 65,70.9 C65,70.9 64.9,70.9 64.8,70.9 L64.8,70.9 C53.6,70.9 44.9,71 34.7,71 C21.7,71 15.5,65.8 15.5,55.2 L15.5,48.6 L15.5,48.6 L15.5,48.6 L15.5,48.6 L66.7,48.6 C68.3,48.6 69.5,47.3 69.5,45.8 L69.5,24.8 C69.4,11.1 58.2,0.9 43.6,0.9 Z M54.2,34.7 L15.4,34.7 L15.4,30.1 C15.4,18.9 19.2,15.3 31.8,15.3 L44,15.3 C50.4,15.3 54.2,18.9 54.2,24.7 L54.2,34.7 Z M193.8,0.9 L193.8,0.9 C192.5,0.9 191,0.9 189.6,0.9 C184.4,0.9 181.9,0.9 176.1,0.9 L176.1,0.9 C174.2,0.9 172.9,0.9 172.9,0.9 C171.3,0.9 169.6,2.1 169,3.5 L165.5,12.4 C164.9,13.9 165.7,15 167.3,15 C167.3,15 168.5,15 170.5,15 L170.5,15 C180.8,15 184.2,15 194,15 C206.8,15 210.2,19.5 210.2,27.7 L210.2,31.5 L184.2,31.5 C167.4,31.5 154.8,40.9 154.8,55.1 L154.8,57.7 C154.8,74.7 170.4,85.1 187.4,85.1 C195,85.1 210.2,85 210.2,85 L222.8,85 C224.4,85 225.6,83.7 225.6,82.2 L225.6,27.8 L225.6,27.8 C225.6,10.9 214,0.9 193.8,0.9 Z M210.2,70.7 C201.4,70.7 194.8,70.8 187.2,70.8 C175.6,70.8 170.2,65.6 170.2,57.6 L170.2,55 C170.2,49.8 174,45.6 184.4,45.6 L210.2,45.6 L210.2,70.7 Z" id="Shape"></path>
        </g>
    </g>
</svg>