<?xml version="1.0" encoding="UTF-8"?>
<svg xmlns="http://www.w3.org/2000/svg" width="740.655" height="375.737" viewBox="0 0 740.655 375.737"><g fill="#FFF"><path d="M45.962 238.344C19.759 238.344 0 259.377 0 287.269v.348c0 28.248 20.282 48.75 48.227 48.75 15.748 0 28.672-5.926 38.411-17.612l.621-.745-13.795-12.241-.666.65c-7.678 7.497-14.922 10.695-24.222 10.695-13.25 0-22.854-8.147-25.307-21.352h67.354l.118-1.419c.159-1.904.309-3.702.309-5.508.001-25.132-13.941-50.491-45.088-50.491zm-22.89 41.476c2.22-13.542 11.04-22.223 22.716-22.223 14.241 0 20.77 11.278 22.227 22.223H23.072zM155.923 238.344c-11.27 0-20.377 4.584-27.754 13.992v-12.075h-23.086v94.014h23.086v-52.933c0-13.26 7.748-21.828 19.737-21.828 12.054 0 18.692 7.628 18.692 21.479v53.281h23.087v-59.728c0-22.33-12.937-36.202-33.762-36.202zM235.342 214.992h-23.086v25.269h-16.94v20.124h16.94v47.446c0 18.588 9.248 28.013 27.488 28.013 7.576 0 13.586-1.491 19.488-4.836l.508-.287v-19.454l-1.447.724c-4.137 2.068-8.148 3.032-12.624 3.032-7.046 0-10.327-3.337-10.327-10.502v-44.136h24.746v-20.124h-24.746v-25.269zM327.297 238.482c-13.133 0-23.4 6.555-29.917 19.022v-17.243h-23.086v94.014h23.086v-36.028c0-22.511 11.069-35.421 30.368-35.421h2.221V238.56l-.957-.041a38.15 38.15 0 0 0-1.715-.037zM383.994 238.344c-28.118 0-50.144 21.566-50.144 49.099v.348c0 27.239 21.872 48.576 49.794 48.576 28.216 0 50.318-21.49 50.318-48.924v-.35c0-27.336-21.949-48.749-49.968-48.749zm26.881 49.446c0 16.285-11.306 28.104-26.882 28.104-15.173 0-27.059-12.498-27.059-28.452v-.35c0-16.385 11.232-28.276 26.709-28.276 15.524 0 27.231 12.307 27.231 28.626v.348zM500.624 238.344c-12.291 0-22.253 4.994-30.369 15.249v-13.332h-23.086v132.896h23.086v-51.314c8.121 9.649 18.083 14.349 30.369 14.349 21.713 0 43.694-16.745 43.694-48.749v-.35c0-32.004-21.981-48.749-43.694-48.749zm20.26 49.099c0 16.486-10.647 28.452-25.314 28.452-14.73 0-25.838-12.231-25.838-28.452v-.35c0-16.22 11.107-28.451 25.838-28.451 14.432 0 25.314 12.231 25.314 28.451v.35zM596.469 239.041c-15.974 0-26.305 3.644-35.09 7.581l-.828.371 6.209 18.434.99-.413c8.174-3.406 15.712-5.675 25.93-5.675 14.281 0 21.83 6.584 21.83 19.041v.907c-5.85-1.779-13.249-3.475-23.746-3.475-24.415 0-38.991 11.448-38.991 30.625v.348c0 20.204 17.411 29.406 33.589 29.406 11.615 0 21.575-4.069 28.974-11.803v9.886H637.9v-55.546c0-12.705-3.443-22.503-10.217-29.104-6.742-6.923-17.536-10.583-31.214-10.583zm19.39 61.122c0 10.831-9.914 18.692-23.573 18.692-10.296 0-16.948-5.079-16.948-12.94v-.349c0-8.978 7.704-14.337 20.609-14.337 8.859 0 15.628 1.769 19.912 3.352v5.582zM716.527 240.261l-23.204 66.396-25.236-66.396h-24.845l38.747 93.168-5.443 13.062c-3.148 6.903-6.394 9.47-11.973 9.47-3.802 0-7.804-1.132-11.895-3.363l-.943-.515-7.978 17.513.821.444c7.291 3.939 14.156 5.696 22.26 5.696 14.848 0 23.185-6.299 30.295-23.11l.041.051 43.48-112.416h-24.127zM297.735 168c29.172 0 54.891-14.965 69.948-37.607 1.546-3.124 3.309-6.186 5.19-9.174l28.218-60.158C409.579 43.861 427.292 32 447.735 32c28.673 0 52 23.327 52 52s-23.327 52-52 52c-9.928 0-19.199-2.815-27.096-7.666l-12.258 29.819A83.328 83.328 0 0 0 447.735 168c46.318 0 84-37.683 84-84s-37.682-84-84-84c-33.387 0-62.282 19.583-75.816 47.862l.01.002L342.726 110c-8.997 15.53-25.787 26-44.992 26-28.673 0-52-23.327-52-52s23.327-52 52-52c8.298 0 16.14 1.967 23.104 5.442l-27.771 67.557h32.667l40.833-99.333H333.9l-7.129 17.342L333.02 7.81A83.322 83.322 0 0 0 297.735 0c-46.318 0-84 37.683-84 84s37.682 84 84 84z"/><path d="M401.401 95.666l-40.833 99.333h32.667l40.833-99.333z"/></g></svg>