<?xml version="1.0" encoding="UTF-8"?>
<svg width="244px" height="39px" viewBox="0 0 244 39" version="1.1" xmlns="http://www.w3.org/2000/svg" xmlns:xlink="http://www.w3.org/1999/xlink">
    <!-- Generator: Sketch 45.2 (43514) - http://www.bohemiancoding.com/sketch -->
    <title>DineroMail</title>
    <desc>Created with Sketch.</desc>
    <defs></defs>
    <g id="Page-1" stroke="none" stroke-width="1" fill="none" fill-rule="evenodd">
        <g id="DineroMail" fill-rule="nonzero" fill="#FFFFFF">
            <path d="M0.8,38.6 L8.9,0.1 L19.3,0.1 C22.2,0.1 24,0.1 24.8,0.2 C26.4,0.4 27.8,0.7 29.1,1.2 C30.4,1.7 31.5,2.4 32.5,3.3 C33.5,4.2 34.4,5.2 35.2,6.5 C35.9,7.7 36.5,9.2 36.9,10.8 C37.3,12.4 37.5,14.2 37.5,16.1 C37.5,20.3 36.7,23.9 35.1,27.1 C33.5,30.3 31.5,32.9 29.1,34.8 C27.3,36.3 24.9,37.4 22,38.1 C20.4,38.5 17.8,38.7 14.4,38.7 L0.8,38.7 L0.8,38.6 Z M10,32.4 L14,32.4 C16.9,32.4 19,32.2 20.3,31.9 C21.6,31.5 22.8,30.9 23.9,29.9 C25.5,28.5 26.8,26.6 27.8,24.2 C28.9,21.8 29.4,19.1 29.4,15.9 C29.4,13.2 29,11.1 28.1,9.7 C27.2,8.3 26.1,7.4 24.8,7 C23.9,6.7 22.3,6.5 19.9,6.5 L15.3,6.5 L10,32.4 Z" id="Shape"></path>
            <path d="M44.3,11.2 L50.5,11.2 L45.7,34.2 L39.5,34.2 L44.3,11.2 Z M46.1,2.4 L52.3,2.4 L51.1,8 L44.9,8 L46.1,2.4 Z" id="Shape"></path>
            <path d="M56.5,11.2 L62.4,11.2 L61.8,14.2 C63.3,12.9 64.6,12 65.9,11.5 C67.2,11 68.5,10.7 69.9,10.7 C71.8,10.7 73.3,11.2 74.4,12.3 C75.5,13.4 76,14.8 76,16.6 C76,17.4 75.8,18.9 75.3,21.2 L72.6,34.2 L66.4,34.2 L69.1,21.1 C69.5,19.2 69.7,18 69.7,17.6 C69.7,16.8 69.5,16.2 69,15.7 C68.5,15.2 67.9,15 67,15 C66.1,15 65.1,15.4 64,16.1 C62.9,16.9 62,17.9 61.4,19.1 C60.9,20 60.4,21.8 59.8,24.6 L57.8,34 L51.6,34 L56.5,11.2 Z" id="Shape"></path>
            <path d="M100.8,24.6 L85.2,24.6 C85.2,24.8 85.2,25 85.2,25.2 C85.2,26.7 85.6,28 86.5,28.9 C87.4,29.8 88.4,30.3 89.7,30.3 C91.8,30.3 93.4,29.2 94.5,27.1 L100.1,28 C99,30.2 97.6,31.9 95.8,33 C94,34.1 92,34.7 89.7,34.7 C86.6,34.7 84.1,33.7 82.2,31.8 C80.3,29.8 79.3,27.3 79.3,24 C79.3,20.9 80.2,18.1 81.9,15.6 C84.3,12.3 87.7,10.6 92.1,10.6 C94.9,10.6 97.2,11.5 98.8,13.2 C100.5,14.9 101.3,17.4 101.3,20.5 C101.3,22.1 101.1,23.4 100.8,24.6 Z M95.6,20.8 C95.6,20.5 95.6,20.3 95.6,20.2 C95.6,18.5 95.2,17.2 94.5,16.4 C93.7,15.5 92.7,15.1 91.4,15.1 C90.1,15.1 89,15.6 87.9,16.6 C86.9,17.6 86.2,19 85.8,20.9 L95.6,20.9 L95.6,20.8 Z" id="Shape"></path>
            <path d="M107.3,11.2 L113.1,11.2 L112.2,15.7 C114.4,12.4 116.7,10.7 119.2,10.7 C120.1,10.7 121.1,10.9 122.1,11.4 L119.7,16.5 C119.1,16.3 118.5,16.2 117.9,16.2 C116.8,16.2 115.7,16.6 114.6,17.4 C113.5,18.2 112.6,19.3 112,20.6 C111.4,21.9 110.8,24.1 110.2,27 L108.7,34.2 L102.5,34.2 L107.3,11.2 Z" id="Shape"></path>
            <path d="M120.8,24.6 C120.8,20.3 122,16.9 124.4,14.4 C126.8,11.9 130,10.6 133.9,10.6 C137.3,10.6 139.9,11.5 141.8,13.4 C143.7,15.3 144.7,17.8 144.7,20.9 C144.7,24.6 143.5,27.8 141.1,30.6 C138.7,33.3 135.5,34.7 131.5,34.7 C129.3,34.7 127.4,34.3 125.7,33.4 C124,32.5 122.8,31.3 122,29.7 C121.2,28.2 120.8,26.5 120.8,24.6 Z M138.5,20.2 C138.5,18.7 138.1,17.5 137.2,16.7 C136.3,15.8 135.2,15.4 133.9,15.4 C132.6,15.4 131.4,15.8 130.3,16.6 C129.3,17.4 128.4,18.6 127.9,20.2 C127.3,21.8 127,23.2 127,24.6 C127,26.2 127.4,27.6 128.3,28.5 C129.2,29.5 130.3,30 131.7,30 C133.4,30 134.8,29.3 136,27.8 C137.7,25.7 138.5,23.2 138.5,20.2 Z" id="Shape"></path>
            <polygon id="Shape" points="169.3 38.6 161.8 38.6 160.4 6.4 152.3 38.6 145.2 38.6 155.2 0.1 166.5 0.1 167.7 27.1 182.8 0.1 194.2 0.1 186.1 38.6 179 38.6 186.6 6.7"></polygon>
            <path d="M202.9,17.7 L196.8,17.2 C197.5,15.2 198.7,13.5 200.4,12.4 C202.1,11.2 204.4,10.7 207.3,10.7 C210.3,10.7 212.4,11.3 213.9,12.5 C215.3,13.7 216,15.1 216,16.9 C216,17.6 215.9,18.3 215.8,19.1 C215.7,19.9 215.2,21.9 214.5,25.3 C213.9,28 213.6,30 213.6,31.1 C213.6,32.1 213.8,33.2 214.1,34.4 L208.1,34.4 C207.9,33.6 207.7,32.7 207.6,31.8 C206.7,32.8 205.6,33.6 204.5,34.1 C203.3,34.6 202.1,34.9 200.9,34.9 C199,34.9 197.4,34.3 196.2,33 C195,31.8 194.3,30.1 194.3,28.2 C194.3,26 195,24.3 196.3,22.9 C197.7,21.6 200.1,20.8 203.6,20.5 C206.6,20.3 208.5,20 209.5,19.6 C209.8,18.7 209.9,18 209.9,17.5 C209.9,16.8 209.6,16.3 209.1,15.8 C208.6,15.4 207.8,15.1 206.7,15.1 C205.6,15.1 204.7,15.3 204.1,15.8 C203.5,16.2 203.1,16.9 202.9,17.7 Z M208.8,23.5 C208.4,23.6 207.9,23.7 207.3,23.8 C204.2,24.2 202.1,24.7 201.2,25.4 C200.5,25.9 200.2,26.6 200.2,27.5 C200.2,28.2 200.5,28.8 201,29.3 C201.5,29.8 202.2,30 203.1,30 C204,30 204.9,29.8 205.8,29.3 C206.6,28.8 207.3,28.3 207.7,27.5 C208.1,26.8 208.5,25.7 208.8,24.2 L208.8,23.5 Z" id="Shape"></path>
            <path d="M223.4,11.2 L229.6,11.2 L224.8,34.2 L218.6,34.2 L223.4,11.2 Z M225.2,2.4 L231.4,2.4 L230.2,8 L224,8 L225.2,2.4 Z" id="Shape"></path>
            <polygon id="Shape" points="230.6 34.2 237.2 2.5 243.4 2.5 236.8 34.2"></polygon>
        </g>
    </g>
</svg>