<svg id="Layer_3" data-name="Layer 3" xmlns="http://www.w3.org/2000/svg" xmlns:xlink="http://www.w3.org/1999/xlink" viewBox="0 0 169.77 196.8"><defs><style>.cls-1{fill:none;}.cls-2{fill:#22ae01;}.cls-3{clip-path:url(#clip-path);}</style><clipPath id="clip-path" transform="translate(-124.84 -141.49)"><path class="cls-1" d="M249.69,306.12a50.77,50.77,0,1,0-87.32.08H120.11l.66-93.55,56,.27H293.18l1.39,12.44,5.54,80.37Z"/></clipPath></defs><path class="cls-2" d="M211.6,171.72v9c2.73-.18,5.61-1.45,5.61-4.47s-3.15-4-5.61-4.55Zm0,0" transform="translate(-124.84 -141.49)"/><path class="cls-2" d="M203.75,160.9c0,2.29,1.69,3.6,5.12,4.29V157c-3.12.1-5.12,1.92-5.12,3.88Zm0,0" transform="translate(-124.84 -141.49)"/><path class="cls-2" d="M210.14,141.49a27.6,27.6,0,1,0,27.6,27.59,27.63,27.63,0,0,0-27.6-27.59Zm1.46,43.91v2.83a1.38,1.38,0,1,1-2.73,0V185.4c-7.71-.18-11.55-4.79-11.55-8.39a2.64,2.64,0,0,1,2.83-2.88c5.1,0,1.13,6.3,8.72,6.62v-9.53C202.1,170,198,167,198,162c0-6.2,5.15-9.4,10.86-9.58v-2.43a1.38,1.38,0,1,1,2.73,0v2.43c3.56.1,10.86,2.32,10.86,6.8a2.74,2.74,0,0,1-2.88,2.82c-3,0-2.93-4.87-8-5v8.67c6,1.28,11.36,3.05,11.36,10.09,0,6.11-4.57,9.22-11.36,9.62Zm0,0" transform="translate(-124.84 -141.49)"/><path class="cls-2" d="M245.3,175.37a36.36,36.36,0,0,1-71.61-.12l-.42-1.62-48.43,32.56v5.11l169.72-.08V206.1L246,173.51Z" transform="translate(-124.84 -141.49)"/><path class="cls-2" d="M164.94,272.59a42.06,42.06,0,1,1,76.37,30.87l21.49,21.48a5.88,5.88,0,0,1,0,8.31l-3.33,3.32a5.88,5.88,0,0,1-8.31,0l-21.48-21.48a42.07,42.07,0,0,1-64.75-27.54,44.72,44.72,0,0,1,0-15m12.91,15.2A30.92,30.92,0,0,0,185.47,301a29.45,29.45,0,0,0,41.72,0,30,30,0,0,0,5-6.63A29.5,29.5,0,1,0,178,271.88a27.07,27.07,0,0,0-.15,15.91" transform="translate(-124.84 -141.49)"/><g class="cls-3"><path class="cls-2" d="M286.17,279.9h-9.58l0-54.58h9.58V214.39l-152.86.07v10.93h9.59l0,54.59h-9.59V290.3h-8.44v12.12l169.72-.08V290.22h-8.44Zm-85.52,0,0-54.58h18.19l0,54.58Zm56.15,0H238.63l0-54.58h18.17Zm-94.13-54.54h18.18l0,54.59H162.69Z" transform="translate(-124.84 -141.49)"/></g></svg>