<?xml version="1.0" encoding="UTF-8"?>
<svg width="94px" height="94px" viewBox="0 0 94 94" version="1.1" xmlns="http://www.w3.org/2000/svg" xmlns:xlink="http://www.w3.org/1999/xlink">
    <!-- Generator: Sketch 53.2 (72643) - https://sketchapp.com -->
    <title>Group 3</title>
    <desc>Created with Sketch.</desc>
    <g id="Page-1" stroke="none" stroke-width="1" fill="none" fill-rule="evenodd">
        <g id="Desktop-HD" transform="translate(-545.000000, -395.000000)">
            <g id="Group-3" transform="translate(545.000000, 395.000000)">
                <g id="Group-2" fill="none">
                    <g id="Group">
                        <circle id="Oval-Copy" cx="47" cy="47" r="47"></circle>
                    </g>
                </g>
                <path d="M51.1803431,69 L32.2758659,69 L14.5562927,69 C12.0860141,69 10.5439798,67.0007003 11.1210548,64.5503599 L19.3750421,29.4564871 C19.9521172,26.997588 22.4275791,25 24.9043368,25 L42.6256378,25 L61.5301153,25 L78.4430788,25 C80.9202687,25 82.4588475,26.997588 81.8770211,29.4564871 L73.6277852,64.5503599 C73.0455269,67.0007003 70.5670411,69 68.0902835,69 L51.1803431,69 Z M29.5325132,36.2465746 C27.7101483,36.2649757 27.1719481,36.2465746 27.000035,36.206349 C26.9339478,36.5174557 25.7042077,42.1374908 25.7007521,42.1421981 C25.4359714,43.2792142 25.2433252,44.0897179 24.5889325,44.6130791 C24.217462,44.917339 23.7837918,45.0641198 23.2810109,45.0641198 C22.4728467,45.0641198 22.0020294,44.6665707 21.922984,43.912554 L21.907866,43.653655 C21.907866,43.653655 22.1540731,42.1306438 22.1540731,42.1220852 C22.1540731,42.1220852 23.4447171,37.0005913 23.6758062,36.3236024 C23.6879006,36.2850885 23.6913562,36.2649757 23.6943797,36.2465746 C21.1822027,36.2683991 20.7368701,36.2465746 20.7062022,36.206349 C20.6893564,36.2615522 20.6271568,36.579078 20.6271568,36.579078 L19.3093005,42.3514569 L19.1961316,42.8410115 L18.9771368,44.4423342 C18.9771368,44.917339 19.0713002,45.3050457 19.2587632,45.6328419 C19.8591632,46.6722895 21.5718148,46.8280568 22.5406616,46.8280568 C23.7889751,46.8280568 24.9599709,46.5653064 25.7512894,46.0855943 C27.1248662,45.2815095 27.4842424,44.0246723 27.8047436,42.907769 L27.9533318,42.3347676 C27.9533318,42.3347676 29.2828506,37.015569 29.5087563,36.3236024 C29.5173953,36.2850885 29.5208507,36.2649757 29.5325132,36.2465746 Z M34.0561164,40.537623 C33.7356151,40.537623 33.1499012,40.6146508 32.6237954,40.8701265 C32.4328769,40.967267 32.252325,41.0793853 32.0618383,41.1910757 L32.2337514,40.5761369 L32.139588,40.4725773 C31.0238807,40.6963859 30.7742181,40.7263411 29.7436035,40.8701265 L29.657215,40.9270414 C29.537567,41.910002 29.4313091,42.649041 28.9877043,44.5811554 C28.8188149,45.2932348 28.6434462,46.0121611 28.4676456,46.7225286 L28.5151592,46.8128224 C29.5712585,46.7576192 29.8917597,46.7576192 30.8096373,46.7725967 L30.8839314,46.6925734 C31.0005559,46.100743 31.0156738,45.962093 31.2739754,44.7634546 C31.3953513,44.1951604 31.6484695,42.9464539 31.7733009,42.5018324 C32.0026622,42.3965609 32.2290001,42.2930013 32.4449712,42.2930013 C32.9594147,42.2930013 32.896783,42.737623 32.8769136,42.914787 C32.8548846,43.2121999 32.6674215,44.1836064 32.4752073,45.0176464 L32.3469203,45.5559852 C32.2575083,45.9535344 32.1594573,46.3399571 32.0700452,46.7340828 L32.10892,46.8128224 C33.1499012,46.7576192 33.467379,46.7576192 34.3563164,46.7725967 L34.4608464,46.6925734 C34.621529,45.7682396 34.6686107,45.5208948 34.9536927,44.1750476 L35.0970975,43.5566855 C35.3757005,42.3464928 35.5156498,41.732838 35.3048619,41.233013 C35.0819796,40.6728496 34.547235,40.537623 34.0561164,40.537623 Z M39.109497,41.8046878 C38.5561787,41.9099592 38.2032817,41.98014 37.8525446,42.0255008 C37.5048309,42.0807042 37.1657561,42.1307723 36.6310114,42.2043765 L36.5886811,42.2424625 L36.5498063,42.2728458 C36.4940858,42.6673994 36.4552108,43.0084613 36.3813488,43.409434 C36.3187171,43.8241003 36.2223939,44.2952538 36.0655989,44.9722427 C35.9442231,45.4904687 35.8815914,45.6710562 35.8124805,45.8533554 C35.7450975,46.0356545 35.6708035,46.2128185 35.5343097,46.7224858 L35.5662735,46.7695585 L35.5930538,46.8127796 C36.0928112,46.7892433 36.4197916,46.7725539 36.7558428,46.7695585 C37.0914621,46.7575764 37.4391756,46.7695585 37.9773758,46.7725539 L38.0244577,46.734468 L38.0749949,46.6925306 C38.1527445,46.2329314 38.164407,46.1092589 38.2119206,45.8850223 C38.2590023,45.6445243 38.3402075,45.3115931 38.5393329,44.4223497 C38.6334965,44.0046878 38.7384585,43.5883097 38.8360774,43.162089 C38.937584,42.7375802 39.0438417,42.3194904 39.1449162,41.9018285 L39.1297983,41.8513325 L39.109497,41.8046878 Z M39.1212889,40.0962964 C38.618508,39.802307 37.7360497,39.8955962 37.1421288,40.301704 C36.5499359,40.699681 36.4825529,41.2645517 36.9836061,41.5623925 C37.4777481,41.8482513 38.363662,41.7630928 38.9523993,41.3535615 C39.5432967,40.9470259 39.6171588,40.3872904 39.1212889,40.0962964 Z M42.1619473,46.9049135 C43.1791718,46.9049135 44.2218807,46.6271853 45.0067201,45.8029877 C45.6105756,45.1345575 45.8874506,44.1400428 45.983342,43.7305116 C46.2956364,42.3731103 46.0524527,41.7393425 45.7470694,41.3533476 C45.2831633,40.7649406 44.4633368,40.5762225 43.6128421,40.5762225 C43.1014222,40.5762225 41.8833446,40.6262906 40.9317757,41.4954212 C40.2484427,42.1223419 39.9326928,42.9730714 39.7422062,43.7887103 C39.549992,44.6197549 39.3288373,46.1158062 40.7175322,46.6725462 C41.146019,46.8548454 41.7636968,46.9049135 42.1619473,46.9049135 Z M42.08247,43.8507605 C42.3170149,42.8228672 42.5938899,41.9601556 43.3005476,41.9601556 C43.8542978,41.9601556 43.8944684,42.6020541 43.6482613,43.6333709 C43.6042032,43.8623147 43.4020542,44.7134721 43.1286347,45.0759308 C42.9377161,45.3433885 42.7118103,45.5055748 42.4621475,45.5055748 C42.3878534,45.5055748 41.9459763,45.5055748 41.9390652,44.8555456 C41.9356098,44.5345964 42.0016968,44.2068002 42.08247,43.8507605 Z M48.5261869,46.7727251 L48.6056642,46.6927018 C48.7184012,46.1008715 48.7369748,45.9617934 48.9866375,44.763583 C49.1114688,44.1952888 49.3697702,42.9465823 49.4911463,42.5019606 C49.7209395,42.3962614 49.9433899,42.2927018 50.166272,42.2927018 C50.6772598,42.2927018 50.6150602,42.7373235 50.5947592,42.9144874 C50.5761853,43.2123283 50.3887226,44.1833067 50.1930524,45.0173467 L50.0716768,45.5556857 C49.9788091,45.9536627 49.8777346,46.3396576 49.7883225,46.7342113 L49.8271975,46.8129508 C50.8716341,46.7577475 51.1770172,46.7577475 52.0711381,46.7727251 L52.1791238,46.6927018 C52.3359188,45.7679401 52.3782491,45.5205952 52.67197,44.175176 L52.8119194,43.556386 C53.091818,42.3461933 53.2334949,41.7329664 53.0261627,41.2331415 C52.7968013,40.672978 52.258601,40.5377514 51.7743936,40.5377514 C51.4534603,40.5377514 50.864723,40.6143513 50.3416407,40.8702549 C50.1546098,40.9673955 49.9671466,41.0790858 49.7831391,41.1912041 L49.9433899,40.5762653 L49.8574333,40.4722778 C48.7421582,40.6965143 48.487312,40.7264696 47.4579932,40.8702549 L47.3789477,40.9271698 C47.2541165,41.9101303 47.1526099,42.6487415 46.7090051,44.5812838 C46.5401158,45.2933632 46.3647472,46.0122894 46.1893785,46.7226571 L46.2364602,46.8129508 C47.294287,46.7577475 47.6100372,46.7577475 48.5261869,46.7727251 Z M56.1998594,46.8127368 C56.2655147,46.4952111 56.6555587,44.6131648 56.6590142,44.6131648 C56.6590142,44.6131648 56.9911779,43.2322272 57.0114795,43.1821591 C57.0114795,43.1821591 57.1160094,43.0383739 57.2205393,42.9814588 L57.3743108,42.9814588 C58.8252055,42.9814588 60.4635629,42.9814588 61.7477276,42.0455709 C62.6215473,41.4036724 63.2189234,40.4558023 63.4854318,39.3038086 C63.5545428,39.0213733 63.605512,38.6854464 63.605512,38.3495196 C63.605512,37.9083213 63.5161,37.4718304 63.2577984,37.1307683 C62.6029736,36.2231239 61.2989397,36.2064345 59.7936203,36.1995876 C59.788869,36.1995876 59.0515431,36.2064345 59.0515431,36.2064345 C57.1246482,36.2299708 56.3519031,36.2231239 56.0344255,36.18461 C56.0076452,36.323688 55.9571078,36.5710329 55.9571078,36.5710329 C55.9571078,36.5710329 55.2668638,39.7402996 55.2668638,39.7454347 C55.2668638,39.7454347 53.6151162,46.4836569 53.5373664,46.8011826 C55.2197821,46.7810699 55.9095943,46.7810699 56.1998594,46.8127368 Z M57.478841,41.1828593 C57.478841,41.1828593 58.2127112,38.0200117 58.2092557,38.0319938 L58.2330122,37.8698074 L58.243379,37.746135 L58.5366678,37.7760902 C58.5366678,37.7760902 60.050194,37.9048979 60.0856135,37.9083213 C60.6829897,38.1372651 60.9291967,38.7273838 60.7572838,39.4976619 C60.6004887,40.2016105 60.1396063,40.793441 59.5474132,41.0792997 C59.0597501,41.3215094 58.4623737,41.3416222 57.846856,41.3416222 L57.4486052,41.3416222 L57.478841,41.1828593 Z M62.0481006,43.9093445 C61.8541584,44.7284069 61.631276,46.2244583 63.0130597,46.757662 C63.4536409,46.9433845 63.8484362,46.9985878 64.2497109,46.978475 C64.6734465,46.9557946 65.066082,46.7452519 65.4297775,46.4422758 C65.3969501,46.5668041 65.3641224,46.6913325 65.3312948,46.8162887 L65.3939262,46.896312 C66.3878257,46.8548026 66.6962327,46.8548026 67.7730649,46.8629333 L67.870684,46.7893289 C68.0279111,45.8735537 68.1760673,44.9843105 68.584685,43.2323556 C68.7838101,42.3931802 68.9825037,41.5621358 69.1868125,40.7263839 L69.154849,40.6343785 C68.043029,40.8385022 67.7458528,40.8821514 66.6763632,41.0323556 L66.5951582,41.0978292 C66.5843595,41.1829878 66.5731291,41.2647227 66.5627623,41.3464579 C66.3964646,41.080284 66.1554409,40.853052 65.7835384,40.7114064 C65.3079696,40.5261116 64.1909668,40.7648978 63.2307587,41.6310328 C62.5560648,42.2493951 62.2321081,43.096701 62.0481006,43.9093445 Z M64.383181,43.9594126 C64.6211813,42.9499202 64.8946009,42.0957673 65.6029866,42.0957673 C66.0509107,42.0957673 66.2867512,42.5052985 66.2388057,43.2036841 C66.2007949,43.3778526 66.1597602,43.5614355 66.1109505,43.7689827 C66.0401123,44.0689632 65.9632263,44.3663761 65.8885004,44.6642171 C65.8124783,44.8679129 65.7239304,45.0600545 65.6267434,45.1880063 C65.4444636,45.4439097 65.0107936,45.6026726 64.7611308,45.6026726 C64.6902921,45.6026726 64.2531664,45.6026726 64.2380485,44.9641976 C64.2345928,44.646244 64.3006801,44.3188757 64.383181,43.9594126 Z M76.577131,40.626205 L76.4911747,40.5290644 C75.3910172,40.7498775 75.1918915,40.7849679 74.1811467,40.9201945 L74.1068522,40.9937988 C74.1033971,41.0057809 74.1003732,41.0241821 74.09519,41.0408714 L74.0917343,41.0241821 C73.3392908,42.744042 73.3613199,42.3730247 72.7488255,43.7270025 C72.7453698,43.6653803 72.7453698,43.6268664 72.7419146,43.5613927 L72.5885747,40.626205 L72.4922516,40.5290644 C71.3398296,40.7498775 71.3126171,40.7849679 70.2483109,40.9201945 L70.1653782,40.9937988 C70.1537155,41.0288893 70.1537155,41.0674032 70.1468046,41.1093406 L70.1537155,41.1243182 C70.2867538,41.7978837 70.25479,41.6476795 70.3882604,42.7106633 C70.45046,43.2323128 70.5333929,43.7569578 70.5955925,44.2721883 C70.7005548,45.1344719 70.759299,45.5589808 70.8875857,46.8748726 C70.1688334,48.0499747 69.9986481,48.4945964 69.3066765,49.5259133 L69.3114278,49.5361836 L68.8241968,50.2996148 C68.7684763,50.3800662 68.7179392,50.4352694 68.6471004,50.4588057 C68.5693509,50.4968917 68.4682764,50.5037385 68.3278949,50.5037385 L68.057931,50.5037385 L67.6566566,51.8260494 L69.033257,51.8495857 C69.841421,51.8461623 70.3493854,51.4717215 70.622805,50.9684731 L71.4884175,49.4989535 L71.4745953,49.4989535 L71.5657353,49.3953939 C72.1479936,48.1535343 76.577131,40.626205 76.577131,40.626205 Z M62.0480573,57.9927677 L61.464071,57.9927677 L63.625511,50.9100602 L64.3425353,50.9100602 L64.5701688,50.1804357 L64.5921978,50.9917954 C64.5654175,51.493332 64.9636685,51.9379537 66.0098329,51.8643494 L67.2197034,51.8643494 L67.6360961,50.5005291 L67.1808288,50.5005291 C66.9190717,50.5005291 66.7976959,50.4350554 66.8128141,50.2946937 L66.7907848,49.4692122 L64.5502996,49.4692122 L64.5502996,49.4734915 C63.8259323,49.4884692 61.6627646,49.5423886 61.2247751,49.6579304 C60.6947819,49.7931569 60.1362801,50.191134 60.1362801,50.191134 L60.3557068,49.4606535 L58.2599223,49.4606535 L57.8232287,50.9100602 L55.6328488,58.1010348 L55.2078174,58.1010348 L54.790993,59.4550127 L58.9652844,59.4550127 L58.825335,59.9064811 L60.8822445,59.9064811 L61.0187385,59.4550127 L61.5958137,59.4550127 L62.0480573,57.9927677 Z M60.3354057,52.3491966 C59.9997866,52.4412021 59.3751977,52.7202139 59.3751977,52.7202139 L59.9306756,50.9100602 L61.5958137,50.9100602 L61.1941072,52.2289476 C61.1941072,52.2289476 60.6796637,52.2589029 60.3354057,52.3491966 Z M60.3673695,54.9351916 C60.3673695,54.9351916 59.8442872,55.0002373 59.500029,55.0772651 C59.1609541,55.1791132 58.5251351,55.5000623 58.5251351,55.5000623 L59.0987545,53.6163043 L60.7725314,53.6163043 L60.3673695,54.9351916 Z M59.4343739,58.0094572 L57.7640527,58.0094572 L58.2482601,56.4196888 L59.9133979,56.4196888 L59.4343739,58.0094572 Z M63.4568804,53.6163043 L65.8645275,53.6163043 L65.5185415,54.7263606 L63.0789312,54.7263606 L62.7126437,55.9399767 L64.847303,55.9399767 L63.2309749,58.194752 C63.1178059,58.360362 63.0162993,58.4189886 62.9035626,58.4656331 C62.7903935,58.522548 62.6418055,58.5893055 62.4698923,58.5893055 L61.8776992,58.5893055 L61.4708093,59.9184633 L63.0197547,59.9184633 C63.8248954,59.9184633 64.300464,59.5555766 64.6516333,59.0792879 L65.7599976,57.5763897 L65.9979979,59.1023966 C66.048535,59.388255 66.2558674,59.5555766 66.3962487,59.6206224 C66.551316,59.6976501 66.7115668,59.8298814 66.9379046,59.8495662 C67.180656,59.8598365 67.3560246,59.8679674 67.4726491,59.8679674 L68.2337318,59.8679674 L68.6907267,58.3804745 L68.3905268,58.3804745 C68.2181815,58.3804745 67.9214373,58.3518031 67.8709002,58.2983115 C67.8203628,58.2332657 67.8203628,58.1331296 67.7931503,57.9807858 L67.5516946,56.4513556 L66.5629782,56.4513556 L66.9966488,55.9399767 L69.4315078,55.9399767 L69.8060018,54.7263606 L67.5516946,54.7263606 L67.9028637,53.6163043 L70.15026,53.6163043 L70.5670844,52.2473488 L63.8667939,52.2473488 L63.4568804,53.6163043 Z M43.12181,58.3185529 L43.6837669,56.466462 L45.9933632,56.466462 L46.4153707,55.0889478 L44.103615,55.0889478 L44.456512,53.9489361 L46.7155706,53.9489361 L47.134123,52.615071 L41.4817246,52.615071 L41.0718113,53.9489361 L42.355976,53.9489361 L42.0134457,55.0889478 L40.7258253,55.0889478 L40.2990665,56.4899982 L41.5827991,56.4899982 L40.833811,58.9403385 C40.7327365,59.2647112 40.8813247,59.3883835 40.9754881,59.5390157 C41.0718113,59.6857964 41.1694304,59.782937 41.3888571,59.8381403 C41.6151949,59.8882085 41.7702623,59.9181636 41.9810501,59.9181636 L44.584799,59.9181636 L45.0487051,58.392157 L43.8945548,58.5492084 C43.6716727,58.5492084 43.054427,58.5226766 43.12181,58.3185529 Z M43.3867201,49.4523089 L42.8014382,50.5003152 C42.6761749,50.7292588 42.5634379,50.8713325 42.4619316,50.936806 C42.3725196,50.9920094 42.1954232,51.0151177 41.9388493,51.0151177 L41.633466,51.0151177 L41.2252804,52.3558296 L42.2394813,52.3558296 C42.7271441,52.3558296 43.1016381,52.1786657 43.2804625,52.0900836 C43.4726768,51.9882358 43.5232139,52.0464346 43.6718021,51.9043611 L44.0143327,51.6103715 L47.1813342,51.6103715 L47.6016142,50.2144563 L45.2833792,50.2144563 L45.6881093,49.4523089 L43.3867201,49.4523089 Z M48.0622375,58.3454698 C48.0082446,58.2684417 48.0471196,58.1327874 48.1296205,57.8503521 L48.995233,55.0118772 L52.0745505,55.0118772 C52.5233387,55.0054582 52.8472953,55.000323 53.0580832,54.9853454 C53.284421,54.9618089 53.5306284,54.8817856 53.7988645,54.7380004 C54.0757397,54.5873683 54.2174166,54.4286053 54.3370647,54.2463061 C54.4705348,54.064435 54.6847784,53.6664579 54.8687859,53.0528031 L55.9568488,49.4607391 L52.761339,49.4791403 C52.761339,49.4791403 51.7773742,49.6229255 51.344136,49.7816883 C50.9070103,49.9588524 50.2824214,50.4535422 50.2824214,50.4535422 L50.5709591,49.4688698 L48.596982,49.4688698 L45.8334147,58.5491657 C45.7353638,58.9017815 45.6697085,59.1576851 45.6545906,59.3113129 C45.6494072,59.4769228 45.8653785,59.6408208 46.0053279,59.7644932 C46.1707618,59.8881658 46.4152409,59.868053 46.6497858,59.8881658 C46.896425,59.906567 47.2471623,59.9181209 47.7313694,59.9181209 L49.2483513,59.9181209 L49.7139851,58.3604473 L48.3559583,58.4875433 C48.2108257,58.4875433 48.1058637,58.4105152 48.0622375,58.3454698 Z M49.5537346,53.0947402 L52.7881193,53.0947402 L52.5825149,53.7332153 C52.5535747,53.7481928 52.4844637,53.7015482 52.1553237,53.7400623 L49.3546092,53.7400623 L49.5537346,53.0947402 Z M50.2016482,50.9533671 L53.4632451,50.9533671 L53.2287005,51.7223614 C53.2287005,51.7223614 51.6914176,51.7073838 51.4452105,51.7523166 C50.3618986,51.9380393 49.7291032,52.5114686 49.7291032,52.5114686 L50.2016482,50.9533671 Z M52.6549082,55.8712935 C52.6281278,55.9667224 52.5857975,56.0249212 52.5266215,56.0685702 C52.460966,56.1105076 52.3547083,56.1254851 52.1961855,56.1254851 L51.7353028,56.1254851 L51.7625153,55.3479323 L49.8455549,55.3479323 L49.7678053,59.1492551 C49.7647817,59.4235595 49.7915621,59.5823225 49.9941432,59.7094185 C50.196724,59.8681812 50.8208808,59.8882941 51.6610087,59.8882941 L52.8622407,59.8882941 L53.2959109,58.4654193 L52.2501781,58.5223342 L51.9024647,58.542447 C51.8549509,58.5223342 51.8095969,58.503933 51.7590598,58.4538651 C51.7150015,58.4106438 51.6407076,58.4371758 51.6528019,58.1628711 L51.6610087,57.1884693 L52.7577107,57.1435364 C53.3499038,57.1435364 53.603022,56.9526783 53.818993,56.7708072 C54.0250295,56.5966388 54.0924125,56.3963665 54.1701624,56.1254851 L54.3541698,55.2627737 L52.8471225,55.2627737 L52.6549082,55.8712935 Z" id="Combined-Shape" fill="#FFFFFF" fill-rule="nonzero"></path>
            </g>
        </g>
    </g>
</svg>