<?xml version="1.0" encoding="UTF-8"?>
<svg width="50px" height="48px" viewBox="0 0 50 48" version="1.1" xmlns="http://www.w3.org/2000/svg" xmlns:xlink="http://www.w3.org/1999/xlink">
    <!-- Generator: Sketch 46.2 (44496) - http://www.bohemiancoding.com/sketch -->
    <title>Cryptocurrency_Logo</title>
    <desc>Created with Sketch.</desc>
    <defs></defs>
    <g id="Cryptocurrency-Bonus-Update" stroke="none" stroke-width="1" fill="none" fill-rule="evenodd">
        <g id="1.3_CryptoBonus_FirstTimeBonus" transform="translate(-45.000000, -158.000000)" fill="#EE3536">
            <g id="Cryptocurrency_Logo" transform="translate(45.000000, 158.000000)">
                <path d="M37.8068912,15.6291126 C34.9616868,10.7820896 29.7631782,7.81898507 23.8205194,7.81898507 C14.8241193,7.81898507 7.80946259,14.8324559 7.80946259,24.0063826 C7.80946259,33.1803094 14.8241193,40.899517 23.8205194,40.899517 C29.7631782,40.899517 34.9616868,37.3718752 37.8068912,32.5248521 L45.9611725,32.5248521 C42.5912831,41.5704749 33.8732322,47.9998697 23.8205194,47.9998697 C10.8256621,47.9998697 0.0126896374,37.2576391 0.0126896374,24.0063826 C0.0126896374,10.7551262 10.8256621,0.0128955224 23.8205194,0.0128955224 C33.8732322,0.0128955224 42.5912831,6.58346377 45.9611725,15.6290866 L37.8068912,15.6290866 L37.8068912,15.6291126 Z M50,21.1836961 L41.7847776,27.1114681 L31.4780149,27.1114681 C30.2775778,30.249118 27.2726922,32.4747028 23.7531499,32.4747028 C19.1775521,32.4747028 15.4683723,28.7149417 15.4683723,24.0769824 C15.4683723,19.4390231 19.1775521,15.6792619 23.7531499,15.6792619 C27.3256621,15.6792619 30.3697609,17.9712782 31.5329133,21.1836961 L50,21.1836961 Z" id="Crypto_Logo"></path>
            </g>
        </g>
    </g>
</svg>