<?xml version="1.0" encoding="UTF-8"?>
<svg width="37px" height="30px" viewBox="0 0 37 30" version="1.1" xmlns="http://www.w3.org/2000/svg" xmlns:xlink="http://www.w3.org/1999/xlink">
    <!-- Generator: Sketch 46.2 (44496) - http://www.bohemiancoding.com/sketch -->
    <title>LiveChat</title>
    <desc>Created with Sketch.</desc>
    <defs></defs>
    <g id="Page-1" stroke="none" stroke-width="1" fill="none" fill-rule="evenodd">
        <g id="1.1_Help_Modal-Desktop" transform="translate(-606.000000, -600.000000)" fill-rule="nonzero" fill="#EE3536">
            <g id="LiveChat" transform="translate(606.000000, 600.000000)">
                <path d="M29.9668103,7.890625 C29.9668103,7.890625 33.0767241,20.859375 13.6198276,22.03125 C13.6198276,22.03125 19.0103448,27.0625 27.4788793,25.109375 L34.512069,30 L31.3064655,23.796875 C39.9344828,19.671875 38.0685345,10.65625 29.9668103,7.890625 Z" id="Shape"></path>
                <path d="M14.0185345,0 C6.28362069,0 0,4.453125 0,9.9375 C0,13.359375 2.44008621,16.375 6.17198276,18.171875 L2.61551724,24.6875 L10.1112069,19.46875 C11.3551724,19.71875 12.662931,19.859375 14.0185345,19.859375 C21.7693966,19.859375 28.037069,15.40625 28.037069,9.921875 C28.037069,4.4375 21.7693966,0 14.0185345,0 Z M7.52758621,12.546875 C6.25172414,12.546875 5.19913793,11.53125 5.19913793,10.265625 C5.19913793,9.015625 6.23577586,7.984375 7.52758621,7.984375 C8.81939655,7.984375 9.85603448,9 9.85603448,10.265625 C9.84008621,11.53125 8.80344828,12.546875 7.52758621,12.546875 Z M13.9068966,12.546875 C12.6310345,12.546875 11.5784483,11.53125 11.5784483,10.265625 C11.5784483,9.015625 12.6150862,7.984375 13.9068966,7.984375 C15.1987069,7.984375 16.2353448,9 16.2353448,10.265625 C16.2193966,11.53125 15.1827586,12.546875 13.9068966,12.546875 Z M20.3659483,12.546875 C19.0900862,12.546875 18.0375,11.53125 18.0375,10.265625 C18.0375,9.015625 19.0741379,7.984375 20.3659483,7.984375 C21.6577586,7.984375 22.6943966,9 22.6943966,10.265625 C22.6784483,11.53125 21.6418103,12.546875 20.3659483,12.546875 Z" id="Shape"></path>
            </g>
        </g>
    </g>
</svg>