<svg xmlns="http://www.w3.org/2000/svg" id="Layer_1" data-name="Layer 1" viewBox="0 0 104.15 176.35"><defs><style>.cls-1{fill:#fff;}</style></defs><title>Z_Logo_Purple</title><path class="cls-1" d="M445.6,310.53c-1.09-2.5-2.58-3.49-5.37-3.47-7.44.07-14.89.08-22.33.09h-2l-21.58,0a3.54,3.54,0,0,0-.45,0h-2.81a.93.93,0,0,1-.46-.39,1.34,1.34,0,0,1-.15-.56l62.71-80.52a6.31,6.31,0,0,0,1.49-4.15c-.07-4.44,0-8.88,0-13.32,0-3.38-.82-4.11-4.23-4.12-10.3,0-20.6-.06-30.89,0a6.39,6.39,0,0,1-.81-.05H417v-1.62a4.92,4.92,0,0,1-.05-.9c.12-6.32,0-12.66.09-19,0-2.16-.6-3-2.9-3-5.95.14-11.91.16-17.86,0-2.53-.07-3.51.57-3.42,3.28.12,4.18.06,8.36.05,12.54h0v3.68c0,.73,0,1.47,0,2.2a6.82,6.82,0,0,1,0,.8v2h-1.79l-.15,0h-7.6l-7.21,0h-1.81l-13.78,0c-4.09,0-4.46.34-4.47,4.29q0,7.8,0,15.59c0,3.84.54,4.35,4.51,4.36h55.91a.72.72,0,0,1,.35.3.85.85,0,0,1,.14.53L361.52,300c-1.74,2.21-3.48,4.44-5.23,6.65a12.32,12.32,0,0,0-3.05,9c.25,3.67.05,7.37.05,11,0,4.1.61,4.71,4.77,4.72,10.77,0,21.54,0,32.31,0a4.66,4.66,0,0,1,.77,0h1.74v1.68a5.71,5.71,0,0,1,0,.86c-.11,6.23,0,12.47-.08,18.71,0,2.5.86,3.28,3.31,3.22q8.79-.21,17.57,0c2.48.06,3.36-.8,3.31-3.27-.13-6.13,0-12.28-.12-18.42A6.28,6.28,0,0,1,417,333v-1.57h1.81a7,7,0,0,1,1-.06c3.67,0,7.34.05,11,.06h22.43c1.56,0,3.1-.05,3.86-1.73s-.13-2.84-1.25-4A50.48,50.48,0,0,1,445.6,310.53Z" transform="translate(-353.21 -179.58)"/></svg>