<?xml version="1.0" encoding="UTF-8"?>
<svg width="77px" height="77px" viewBox="0 0 77 77" version="1.1" xmlns="http://www.w3.org/2000/svg" xmlns:xlink="http://www.w3.org/1999/xlink">
    <!-- Generator: Sketch 46.2 (44496) - http://www.bohemiancoding.com/sketch -->
    <title>Group-2</title>
    <desc>Created with Sketch.</desc>
    <defs></defs>
    <g id="Page-1" stroke="none" stroke-width="1" fill="none" fill-rule="evenodd">
        <g id="3.2.1_Rejection_DepositError-Copy" transform="translate(-429.000000, -665.000000)" fill-rule="nonzero">
            <g id="Group-2" transform="translate(429.000000, 665.000000)">
                <circle id="Oval-3" fill="#EE3536" cx="38.5" cy="38.5" r="38.5"></circle>
                <path d="M48.927244,18.575748 L49.973028,16.755748 C50.347402,16.097626 50.908953,16.126059 51.222261,16.820748 L54.957771,25.096028 C55.2711,25.790717 54.913009,26.416308 54.160208,26.48942 L45.183483,27.36692 C44.430672,27.440042 44.12551,26.964731 44.503926,26.302584 L45.500885,24.563808 C45.692135,24.230686 45.561919,23.836619 45.216036,23.682242 C43.250589,22.853497 41.114225,22.402511 38.87619,22.402511 C29.814043,22.402511 22.469071,29.808455 22.469071,38.944751 C22.469071,48.081359 29.814043,55.486991 38.87619,55.486991 C47.938337,55.486991 55.283309,48.081047 55.283309,38.944751 C55.283309,37.010975 54.953698,35.154471 54.351458,33.431919 C54.221243,33.082542 54.400283,32.680353 54.758375,32.538164 L58.550868,31.010612 C58.904887,30.864367 59.303679,31.030923 59.433894,31.388423 C60.292491,33.777168 60.752318,36.308112 60.752318,38.94472 C60.752318,51.12416 50.957736,61 38.876159,61 C26.794581,61 17,51.124056 17,38.94472 C17,26.76112 26.794581,16.88528 38.876159,16.88528 C42.111226,16.88528 45.17941,17.592158 47.942368,18.863672 C48.308721,19.038881 48.735994,18.912937 48.927244,18.575748 Z" id="Page-1" fill="#FFFFFF"></path>
            </g>
        </g>
    </g>
</svg>