<?xml version="1.0" encoding="UTF-8"?>
<svg width="44px" height="59px" viewBox="0 0 44 59" version="1.1" xmlns="http://www.w3.org/2000/svg" xmlns:xlink="http://www.w3.org/1999/xlink">
    <!-- Generator: Sketch 45.1 (43504) - http://www.bohemiancoding.com/sketch -->
    <title>WireTransfer</title>
    <desc>Created with Sketch.</desc>
    <defs></defs>
    <g id="Mobile" stroke="none" stroke-width="1" fill="none" fill-rule="evenodd">
        <g id="1.4.2_Deposit-Process-(bitcoin-&amp;-credit-card-and-others-inactive)" transform="translate(-53.000000, -527.000000)" fill-rule="nonzero" fill="#FFFFFF">
            <g id="Group-2" transform="translate(17.000000, 355.000000)">
                <g id="WireTransfer" transform="translate(36.000000, 172.000000)">
                    <path d="M43.6811594,17.6787004 C43.6811594,17.6787004 43.6811594,38.232852 19.5555556,41.6407942 C19.5555556,41.6407942 21.468599,35.7833935 20.9371981,31.3104693 C20.9371981,31.3104693 0.31884058,43.5577617 8.71497585,51.33213 C17.1111111,59.1064982 21.6599034,59 21.6599034,59 C21.6599034,59 21.7874396,55.0595668 19.3429952,50.6931408 C19.3429952,50.6931408 47.1884058,42.8122744 43.6811594,17.6787004 Z" id="Shape"></path>
                    <path d="M0.31884058,41.3851986 C0.31884058,41.3851986 0.31884058,20.8310469 24.4444444,17.4231047 C24.4444444,17.4231047 22.531401,23.2805054 23.0628019,27.7534296 C23.0628019,27.7534296 43.6811594,15.5061372 35.2850242,7.73176895 C26.8888889,-0.042599278 22.3400966,0.063898917 22.3400966,0.063898917 C22.3400966,0.063898917 22.2125604,4.00433213 24.6570048,8.37075812 C24.6570048,8.37075812 -3.1884058,16.2516245 0.31884058,41.3851986 Z" id="Shape"></path>
                </g>
            </g>
        </g>
    </g>
</svg>