<?xml version="1.0" encoding="UTF-8"?>
<svg width="145px" height="23px" viewBox="0 0 145 23" version="1.1" xmlns="http://www.w3.org/2000/svg" xmlns:xlink="http://www.w3.org/1999/xlink">
    <!-- Generator: Sketch 45.2 (43514) - http://www.bohemiancoding.com/sketch -->
    <title>Logo-Copy</title>
    <desc>Created with Sketch.</desc>
    <defs></defs>
    <g id="Desktop" stroke="none" stroke-width="1" fill="none" fill-rule="evenodd">
        <g id="01_BetOnline_Desktop_HomePage" transform="translate(-707.000000, -1461.000000)" fill-rule="nonzero" fill="#FFFFFF">
            <g id="Newsweek_Logo" transform="translate(692.000000, 1461.000000)">
                <path d="M37.0218684,3.9845613 L34.99058,3.9845613 L34.99058,21.900017 L31.1841482,21.900017 L21.9152782,9.69918174 L21.9152782,17.9214837 L23.9465665,17.9214837 L23.9465665,21.900017 L15.3806057,21.900017 L15.3806057,17.9214837 L17.411894,17.9214837 L17.411894,3.9845613 L15.3806057,3.9845613 L15.3806057,0.00602808064 L21.9152782,0.00602808064 L30.5467645,11.3749882 L30.5467645,3.9845613 L28.5154761,3.9845613 L28.5154761,0.00602808064 L37.081437,0.00602808064 C37.0218684,0.00602808064 37.0218684,3.9845613 37.0218684,3.9845613 L37.0218684,3.9845613 Z M50.6035031,14.1961299 C50.6035031,14.5156182 50.6035031,14.8411345 50.6035031,15.2209036 L41.1440137,15.2209036 C40.8878688,18.3012528 42.0315854,19.1994368 43.7471603,19.1994368 C45.2065904,19.1994368 46.2847816,18.2349439 46.2847816,16.6977834 L50.3473583,16.6977834 C50.2818328,19.3923354 48.8879282,22.4787127 43.4910155,22.4787127 C38.1596281,22.4787127 35.6875323,18.5604603 35.6875323,14.1961299 C35.6875323,10.2778775 38.2251536,6.10644569 43.4314469,6.10644569 C48.3815953,6.10644569 50.6035031,9.63890094 50.6035031,14.1961299 L50.6035031,14.1961299 Z M73.9543839,10.2778775 L72.5604793,10.2778775 L69.0697609,22.1592244 L64.4353259,22.1592244 L62.2789435,15.6730097 L60.3131806,22.1592244 L55.619177,22.1592244 L51.7472197,10.2778775 L50.3533151,10.2778775 L50.3533151,6.23303538 L58.5380371,6.23303538 L58.5380371,10.2778775 L56.5067488,10.2778775 L58.6631311,16.5711937 L61.4568972,6.23303538 L63.9945184,6.23303538 L67.4197114,16.5711937 L69.2603803,10.2778775 L67.229092,10.2778775 L67.229092,6.23303538 L74.0854348,6.23303538 C73.9543839,6.23303538 73.9543839,10.2778775 73.9543839,10.2778775 Z M79.7265787,10.4044672 C79.7265787,10.9831629 80.173343,11.3689601 81.6923416,11.815038 L83.9142494,12.5203235 C85.9455377,13.2256089 88.4176335,14.7024887 88.4176335,17.5296585 C88.4176335,20.8029063 86.0051063,22.4124038 82.9611522,22.4124038 C80.548625,22.4124038 78.7079561,21.2550123 78.2016232,20.6763166 L78.2016232,22.0266066 L74.2045719,22.0266066 L74.2045719,16.5048848 L78.1360978,16.5048848 C78.2611918,18.3012528 79.8516727,19.2657457 81.2455773,19.2657457 C82.3892939,19.2657457 82.9611522,18.7533589 82.9611522,18.1746631 C82.9611522,17.4693777 82.5143879,17.0172716 80.548625,16.3782951 L78.5828621,15.7332905 C76.6170991,15.0882858 74.3951914,13.6114061 74.3951914,10.916854 C74.3951914,7.64360625 77.248526,6.03410872 79.6610532,6.03410872 C82.1986745,6.03410872 83.4079165,6.73939415 84.0393434,7.44467959 L84.0393434,6.2270073 L88.0363947,6.2270073 L88.0363947,11.1700334 L83.9142494,11.1700334 C83.848724,9.81974336 82.5799133,9.24104762 81.2515342,9.24104762 C80.173343,9.31338458 79.7265787,9.76549063 79.7265787,10.4044672 L79.7265787,10.4044672 L79.7265787,10.4044672 Z M112.346329,10.2778775 L110.952425,10.2778775 L107.461706,22.1592244 L102.827271,22.1592244 L100.670889,15.6730097 L98.7051262,22.1592244 L94.0111226,22.1592244 L90.1391653,10.2778775 L88.7452607,10.2778775 L88.7452607,6.23303538 L96.9299827,6.23303538 L96.9299827,10.2778775 L94.8986943,10.2778775 L97.0550767,16.5711937 L99.7833173,6.23303538 L102.320939,6.23303538 L105.746132,16.5711937 L107.5868,10.2778775 L105.495944,10.2778775 L105.495944,6.23303538 L112.346329,6.23303538 L112.346329,10.2778775 L112.346329,10.2778775 Z M126.815536,14.1961299 C126.815536,14.5156182 126.815536,14.8411345 126.815536,15.2209036 L117.421572,15.2209036 C117.165427,18.3012528 118.309144,19.1994368 120.024719,19.1994368 C121.484149,19.1994368 122.56234,18.2349439 122.56234,16.6977834 L126.624917,16.6977834 C126.559391,19.3923354 125.099961,22.4787127 119.768574,22.4787127 C114.371661,22.4787127 111.899565,18.5604603 111.899565,14.1961299 C111.899565,10.2778775 114.502712,6.10644569 119.703048,6.10644569 C124.659154,6.10644569 126.815536,9.57259205 126.815536,14.1961299 L126.815536,14.1961299 Z M142.297408,14.129821 C142.297408,14.4493093 142.297408,14.7748256 142.297408,15.1545947 L132.903444,15.1545947 C132.647299,18.2349439 133.791016,19.1331279 135.506591,19.1331279 C136.966021,19.1331279 138.044212,18.168635 138.044212,16.6314745 L142.106789,16.6314745 C142.041263,19.3260265 140.581833,22.4124038 135.250446,22.4124038 C129.853533,22.4124038 127.381437,18.4941514 127.381437,14.129821 C127.381437,10.2115686 129.984584,6.0401368 135.184921,6.0401368 C140.141026,6.0401368 142.297408,9.50628316 142.297408,14.129821 L142.297408,14.129821 Z M159.369761,22.0929155 L154.675758,22.0929155 L149.791135,15.6067008 L148.206611,16.8243731 L148.206611,18.1083542 L149.600515,18.1083542 L149.600515,22.1531963 L142.303365,22.1531963 L142.303365,18.1746631 L143.69727,18.1746631 L143.69727,4.05087019 L141.665981,4.05087019 L141.665981,0.00602808064 L148.200654,0.00602808064 L148.200654,12.7192501 L151.500753,10.2778775 L149.469464,10.2778775 L149.469464,6.23303538 L158.160519,6.23303538 L158.160519,10.2778775 L156.766615,10.2778775 L153.341422,12.8458398 L157.272948,18.0480734 L159.304236,18.0480734 C159.369761,18.1143823 159.369761,22.0929155 159.369761,22.0929155 Z M132.909401,12.5926605 L138.050169,12.5926605 C138.050169,10.3441864 136.590739,9.44600236 135.578073,9.44600236 C134.303306,9.44600236 132.96897,10.4707761 132.909401,12.5926605 L132.909401,12.5926605 Z M117.421572,12.5926605 L122.56234,12.5926605 C122.56234,10.3441864 121.10291,9.44600236 120.024719,9.44600236 C118.821433,9.50628316 117.487097,10.537085 117.421572,12.5926605 L117.421572,12.5926605 L117.421572,12.5926605 Z M41.2095391,12.6529413 L46.350307,12.6529413 C46.350307,10.4044672 44.8908769,9.50628316 43.8126858,9.50628316 C42.5438751,9.50628316 41.2750645,10.537085 41.2095391,12.6529413 Z" id="Logo-Copy"></path>
            </g>
        </g>
    </g>
</svg>