<?xml version="1.0" encoding="UTF-8"?>
<svg width="77px" height="77px" viewBox="0 0 77 77" version="1.1" xmlns="http://www.w3.org/2000/svg" xmlns:xlink="http://www.w3.org/1999/xlink">
    <!-- Generator: Sketch 46.2 (44496) - http://www.bohemiancoding.com/sketch -->
    <title>Group-9</title>
    <desc>Created with Sketch.</desc>
    <defs></defs>
    <g id="Page-1" stroke="none" stroke-width="1" fill="none" fill-rule="evenodd">
        <g id="3.2.1_Rejection_DepositError-Copy" transform="translate(-924.000000, -665.000000)" fill-rule="nonzero">
            <g id="Group-9" transform="translate(924.000000, 665.000000)">
                <circle id="Oval-3-Copy-3" fill="#EE3536" cx="38.5" cy="38.5" r="38.5"></circle>
                <path d="M18.4830632,31.0247309 L51.2758232,23.5887767 L50.8214013,21.5850892 C50.6950732,21.0148721 50.1195784,20.6569312 49.5546165,20.7814851 L18.8217376,27.7031434 C18.2515205,27.8294715 17.8935796,28.3997111 18.0181335,28.9699282 C18.1742908,29.6506852 18.3269356,30.3437493 18.4831108,31.0245063 L18.4830632,31.0247309 Z M18.2111063,25.8858151 L49.3316188,18.8833067 C50.8159798,18.5499397 52.2950857,19.4833485 52.6284123,20.9677096 L55.8901258,35.3814679 L53.9408323,35.3814679 L52.4617265,28.8528304 L19.668967,36.2905812 L21.6989753,45.2424729 L21.8814492,46.0355216 C21.9516315,46.3530959 22.2709621,46.5601482 22.5937826,46.4846882 L22.8359104,46.4285424 L22.8359104,48.3375007 L22.8008215,48.3480292 C21.5691167,48.6252504 20.3426649,47.8427167 20.0584322,46.6162671 L16.1142097,29.1881513 C15.9475284,28.4459932 16.0685923,27.7494255 16.4721416,27.1037485 C16.8756911,26.4580714 17.4669561,26.0527883 18.2091591,25.8861025 L18.2111063,25.8858151 Z M26.2889196,35.9026809 C24.7694786,35.9026809 23.5325185,37.1448963 23.5325185,38.6643373 L23.5325185,56.5977656 C23.5325185,58.1172066 24.7694786,59.3541667 26.2889196,59.3541667 L58.1972704,59.3541667 C59.7167114,59.3541667 60.9589268,58.1119513 60.9589268,56.5977656 L60.9589268,38.6643373 C60.9589268,37.1448963 59.7167114,35.9026809 58.1972704,35.9026809 L26.2889196,35.9026809 Z M57.5271138,43.9297384 L57.5271138,40.2785075 C57.5271138,40.041644 57.3393756,39.8539058 57.102512,39.8539058 L48.9384587,39.8539058 C48.7068594,39.8539058 48.5138569,40.0451519 48.5138569,40.2785075 L48.5138569,43.9297384 C48.5138569,44.1613377 48.7051031,44.3543402 48.9384587,44.3543402 L57.102512,44.3543402 C57.3288516,44.3543402 57.5271138,44.1683582 57.5271138,43.9297384 Z M51.5091788,54.9976542 C51.2723152,54.9976542 51.0793128,54.8064081 51.0793128,54.5730525 L51.0793128,53.7256098 C51.0793128,53.4940104 51.270559,53.301008 51.5091788,53.301008 L57.0972613,53.301008 C57.3288606,53.301008 57.521863,53.4922542 57.521863,53.7256098 L57.521863,54.5730525 C57.521863,54.8046518 57.3306168,54.9976542 57.0972613,54.9976542 L51.5091788,54.9976542 Z M43.7085013,54.9976543 C43.4769019,54.9976543 43.2838995,54.8064081 43.2838995,54.5730525 L43.2838995,53.7291133 C43.2838995,53.4922497 43.4751457,53.3045115 43.7085013,53.3045115 L49.3019738,53.3045115 C49.5335731,53.3045115 49.7265755,53.4957577 49.7265755,53.7291133 L49.7265755,54.5730525 C49.7265755,54.8046518 49.5353293,54.9976543 49.3019738,54.9976543 L43.7085013,54.9976543 Z M35.9132138,54.9976543 C35.6816144,54.9976543 35.488612,54.8064081 35.488612,54.5730525 L35.488612,53.7291133 C35.488612,53.4922497 35.6798582,53.3045115 35.9132138,53.3045115 L41.5066863,53.3045115 C41.7382856,53.3045115 41.931288,53.4957577 41.931288,53.7291133 L41.931288,54.5730525 C41.931288,54.8046518 41.7400418,54.9976543 41.5066863,54.9976543 L35.9132138,54.9976543 Z M28.1179263,54.9976543 C27.8863269,54.9976543 27.6933245,54.8064081 27.6933245,54.5730525 L27.6933245,53.7291133 C27.6933245,53.4922497 27.8845707,53.3045115 28.1179263,53.3045115 L33.7113988,53.3045115 C33.9429981,53.3045115 34.1360005,53.4957577 34.1360005,53.7291133 L34.1360005,54.5730525 C34.1360005,54.8046518 33.9447543,54.9976543 33.7113988,54.9976543 L28.1179263,54.9976543 Z" id="Page-1" fill="#FFFFFF"></path>
            </g>
        </g>
    </g>
</svg>