<?xml version="1.0" encoding="UTF-8"?>
<svg width="416px" height="359px" viewBox="0 0 416 359" version="1.1" xmlns="http://www.w3.org/2000/svg" xmlns:xlink="http://www.w3.org/1999/xlink">
    <!-- Generator: Sketch 45.2 (43514) - http://www.bohemiancoding.com/sketch -->
    <title>iDeal</title>
    <desc>Created with Sketch.</desc>
    <defs></defs>
    <g id="Page-1" stroke="none" stroke-width="1" fill="none" fill-rule="evenodd">
        <g id="iDeal" fill-rule="nonzero" fill="#FFFFFF">
            <path d="M415.7,176 C415.6,169.7 415.5,163.4 414.9,157.1 C412.8,135.1 407.9,113.7 398.5,93.6 C390.2,75.7 378.8,60 364.1,46.7 C350.5,34.4 335.1,25.2 318.3,18.2 C305.5,12.9 292.3,9.1 278.7,6.3 C271.3,4.8 263.9,3.6 256.4,2.7 C251.4,2.2 246.4,1.7 241.4,1.4 C236.2,1 231.1,0.9 225.9,0.6 C225.6,0.6 225.3,0.5 225,0.4 C150.3,0.4 75.6,0.4 0.9,0.4 C0.9,1.1 0.8,1.7 0.8,2.3 C0.8,120.5 0.8,238.6 0.8,356.8 C0.8,357.4 0.8,358.1 0.8,358.8 C1.3,358.9 1.7,359 2.1,359 C2.7,359 3.2,359 3.7,359 C73.6,359 143.6,359 213.6,359 C220.2,359 226.9,358.9 233.6,358.5 C240.5,358.1 247.4,357.5 254.2,356.8 C270.2,355.2 285.9,352 301.2,347.2 C317.1,342.2 332.3,335.4 346.3,326.2 C366.5,313 382.6,295.8 394.2,274.6 C402.3,259.8 407.7,244 411.2,227.5 C413.2,218 414.5,208.5 415.2,198.8 C415.5,193.5 415.5,188.1 415.7,182.7 C415.7,182 415.8,181.4 415.9,180.7 C415.9,179.8 415.9,178.8 415.9,177.9 C415.8,177.3 415.7,176.8 415.7,176 Z M398.5,194.3 C397.8,206.5 396.1,218.6 393.2,230.5 C389.4,245.8 383.6,260.3 375.2,273.6 C366.5,287.3 355.7,298.8 342.8,308.3 C341.4,309.4 339.9,310.4 338.4,311.4 C323.9,321.2 308.1,328 291.3,332.8 C282.3,335.4 273.1,337.4 263.8,338.8 C256.6,339.9 249.5,340.8 242.2,341.3 C235.9,341.7 229.6,342.1 223.3,342.2 C213.6,342.4 203.8,342.4 194.1,342.4 C136.1,342.4 78.2,342.4 20.2,342.4 C19.6,342.3 18.9,342.3 18,342.3 C18,234 18,125.9 18,17.7 C18,17.7 18.1,17.7 18.1,17.7 C18.1,17.7 18.1,17.6 18.1,17.6 C18.6,17.6 19,17.5 19.4,17.5 C19.8,17.5 20.2,17.5 20.6,17.5 C84.9,17.5 149.3,17.5 213.6,17.5 C219.2,17.6 224.9,17.6 230.5,17.9 C236.7,18.2 243,18.7 249.2,19.3 C260.9,20.3 272.5,22.4 284,25.2 C298.6,28.9 312.6,34 325.9,41.1 C340.1,48.8 352.7,58.5 363.4,70.6 C373.8,82.4 381.6,95.7 387.3,110.3 C391.4,120.8 394.2,131.6 396.1,142.7 C397.4,150.9 398.3,159.1 398.7,167.4 C399.1,176.4 399,185.3 398.5,194.3 Z" id="Shape"></path>
            <path d="M44.5,203.4 C65.5,203.4 86.4,203.4 107.4,203.4 C107.4,240.8 107.4,278.2 107.4,315.7 C86.4,315.7 65.5,315.7 44.6,315.7 C44.3,314.5 44.2,205.6 44.5,203.4 Z" id="Shape"></path>
            <path d="M115.2,146.8 C115.2,168.8 97.1,186.2 75.7,186 C54.4,185.8 36.7,168.4 36.7,146.7 C36.7,126.2 53,107.5 75.9,107.5 C98.7,107.5 115.3,126 115.2,146.8 Z" id="Shape"></path>
            <path d="M139.4,128.5 C140.2,128.5 140.7,128.5 141.3,128.5 C144.4,128.5 147.4,128.4 150.5,128.5 C152.1,128.5 153.7,128.7 155.3,129 C159.9,129.8 162.7,132.7 164.1,137 C164.7,138.7 165,140.5 165.2,142.3 C165.7,147 165.6,151.7 164.1,156.3 C162.4,161.5 158.9,164.4 153.4,164.7 C149.1,164.9 144.8,164.9 140.5,164.9 C140.2,164.9 140,164.8 139.6,164.8 C139.3,161.8 139.5,158.7 139.5,155.7 C139.5,152.7 139.5,149.7 139.5,146.7 C139.5,143.6 139.5,140.6 139.5,137.5 C139.4,134.6 139.4,131.7 139.4,128.5 Z" id="Shape"></path>
            <path d="M282.7,130.5 C282,131.5 276.8,149.3 276.7,150.8 C280.8,150.8 284.8,150.8 289,150.8 C288.9,150.4 288.9,150.1 288.8,149.8 C288.4,148.3 287.9,146.7 287.5,145.2 C286.2,140.7 284.9,136.3 283.6,131.8 C283.4,131.2 283.4,130.5 282.7,130.5 Z" id="Shape"></path>
            <g id="Group" transform="translate(139.000000, 44.000000)">
                <path d="M233.3,139.5 C229.3,139.5 225.6,139.5 221.8,139.5 C218.1,139.5 214.3,139.5 210.6,139.5 C206.9,139.5 203.1,139.5 199.3,139.5 C195.5,139.5 191.8,139.6 187.7,139.5 C187.7,138.5 187.7,137.8 187.6,137.1 C187.6,123.4 187.6,109.8 187.6,96.2 C187.6,86.9 187.6,77.5 187.6,68.1 C187.6,67.4 187.7,66.8 187.8,66 C193.9,66 199.9,65.9 206.1,66 C206.1,66.8 206.1,67.4 206.1,68 C206.1,77.3 206.1,86.5 206.1,95.8 C206.1,103.6 206.1,111.3 206.1,119 C206.1,119.6 206.2,120.1 206.2,120.7 C208.6,121.1 231.5,121 232.6,120.6 C232.6,119.7 232.7,118.9 232.6,118.1 C232.1,113.7 231.6,109.3 230.9,104.9 C229.3,94.4 226.5,84.3 222.4,74.5 C213.2,52.2 198.1,34.9 177.3,22.6 C161.8,13.5 145,8 127.4,4.6 C123.4,3.9 119.3,3.3 115.3,2.7 C112.3,2.2 109.2,1.8 106.1,1.5 C102.7,1.2 99.4,1 96,0.8 C92.6,0.6 89.3,0.3 85.9,0.3 C77.4,0.2 68.8,0.2 60.3,0.2 C41.1,0.2 21.9,0.2 2.7,0.2 C2,0.2 1.3,0.3 0.6,0.3 C0.6,22.2 0.6,44 0.6,66 C1.4,66 2,66 2.7,66 C7.8,66.1 12.9,65.8 18,66.6 C22.4,67.3 26.6,68.7 30.3,71.1 C37.1,75.5 41.2,81.9 43.3,89.6 C45,95.6 45.3,101.7 44.7,107.8 C44.3,111.9 43.5,115.8 42.1,119.6 C39,127.7 33.6,133.7 25.4,137 C20.9,138.8 16.2,139.4 11.4,139.5 C8.3,139.5 5.3,139.5 2.2,139.5 C1.7,139.5 1.1,139.6 0.6,139.6 C0.2,141.4 0.3,270.3 0.7,271.6 C1.4,271.6 2.1,271.6 2.8,271.6 C26.9,271.6 51.1,271.6 75.2,271.6 C85.5,271.6 95.7,271.4 105.9,270.3 C111,269.7 116,269.1 121.1,268.4 C128.4,267.4 135.5,265.9 142.5,264 C155.1,260.6 167.2,255.9 178.5,249.2 C196.1,238.8 209.6,224.6 218.8,206.3 C227.3,189.4 231.2,171.3 232.7,152.6 C232.9,150.1 233.1,147.5 233.2,145 C233.3,143.3 233.4,141.5 233.3,139.5 Z M100,139.2 C98.7,139.5 56.6,139.6 55.2,139.2 C55.2,139.1 55.1,138.3 55.1,136.9 C54.9,125.1 54.8,67.6 55.2,66.3 C55.3,66.3 55.6,66.3 56.1,66.2 C62.3,66 96.7,65.9 98.6,66.2 C98.7,66.6 98.8,67.1 98.8,67.6 C98.8,67.7 98.8,67.7 98.8,67.8 C98.8,72.8 98.8,78 98.8,83 C98.8,83.1 98.8,83.1 98.8,83.2 C98.8,83.6 98.8,84 98.7,84.6 C96.6,84.6 94.5,84.6 92.5,84.6 C90.3,84.6 88.2,84.6 86.1,84.6 C84,84.6 82,84.6 79.9,84.6 C77.9,84.6 75.8,84.6 73.5,84.6 C73.5,87.2 73.5,89.9 73.5,92.6 C81.5,92.6 89.3,92.6 97.1,92.6 C97.2,92.9 97.2,93.7 97.3,94.8 C97.5,99.4 97.5,109.8 97.2,111.3 C89.4,111.3 81.6,111.3 73.6,111.3 C73.6,114.4 73.6,117.6 73.6,120.8 C82.4,120.8 91.2,120.8 99.9,120.8 C100.1,121.5 100.2,126.2 100.2,130.7 C100.2,134.6 100.1,138.4 100,139.2 Z M177.1,139.5 C171.9,139.5 166.6,139.5 161.3,139.5 C159.8,139.5 159.7,139.5 159.3,138 C158.2,134.2 157.1,130.5 156,126.7 C155.8,126.3 155.7,125.9 155.5,125.4 C147.7,125.4 139.9,125.4 132,125.4 C131.4,127.3 130.9,129.2 130.3,131.1 C129.6,133.5 128.9,136 128.2,138.4 C128,139.2 127.6,139.6 126.8,139.6 C121.1,139.6 115.3,139.6 109.6,139.6 C109.4,139.6 109.2,139.5 108.8,139.4 C108.9,138.9 109,138.3 109.2,137.8 C116.2,114.5 123.3,91.2 130.3,67.9 C130.8,66.2 130.8,66.2 132.5,66.2 C140,66.2 147.5,66.2 155,66.2 C156.8,66.2 156.8,66.2 157.3,67.9 C162.8,86.2 168.3,104.4 173.8,122.7 C175.4,127.9 176.9,133.2 178.5,138.4 C178.6,138.6 178.7,138.9 178.8,139.4 C178.1,139.4 177.6,139.5 177.1,139.5 Z" id="Shape"></path>
                <path d="M143.7,86.5 C144.5,86.5 144.4,87.2 144.6,87.7 C145.9,92.2 147.2,96.6 148.5,101.1 C148.9,102.6 149.4,104.2 149.8,105.7 C149.9,106 149.9,106.3 150,106.7 C145.8,106.7 141.8,106.7 137.7,106.7 C137.7,105.2 142.9,87.5 143.7,86.5 Z" id="Shape"></path>
            </g>
        </g>
    </g>
</svg>