<?xml version="1.0" encoding="UTF-8"?>
<svg width="114px" height="29px" viewBox="0 0 114 29" version="1.1" xmlns="http://www.w3.org/2000/svg" xmlns:xlink="http://www.w3.org/1999/xlink">
    <!-- Generator: Sketch 45.2 (43514) - http://www.bohemiancoding.com/sketch -->
    <title>Sports_Illustrated</title>
    <desc>Created with Sketch.</desc>
    <defs></defs>
    <g id="Desktop" stroke="none" stroke-width="1" fill="none" fill-rule="evenodd">
        <g id="01_BetOnline_Desktop_HomePage" transform="translate(-920.000000, -1454.000000)" fill="#FFFFFF">
            <g id="Sports_Illustrated" transform="translate(920.000000, 1454.000000)">
                <g id="D_1_" transform="translate(101.120112, 14.244746)">
                    <path d="M7.21534134,0.211033278 L7.21534134,3.32377412 C7.21534134,3.32377412 4.37133818,3.16549916 2.58066953,3.58756572 C0.0526667251,4.27342387 0.0526667251,6.33099833 0.0526667251,6.33099833 C0.0526667251,6.33099833 0.0526667251,8.91615598 0.0526667251,10.7626972 C0.0526667251,12.6092383 0.632000701,13.1895798 1.79066865,13.7699214 C2.94933661,14.3502629 5.00333888,14.2447462 5.00333888,14.2447462 L12.3766804,14.2447462 L12.3766804,0.263791597 L7.21534134,0.263791597 L7.21534134,0.211033278 Z M7.16267461,12.5037217 L6.47800719,12.5037217 C6.47800719,12.5037217 5.37200596,12.6092383 5.37200596,11.5540719 C5.37200596,10.4989056 5.37200596,6.22548169 5.37200596,6.22548169 C5.37200596,6.22548169 5.21400578,5.01204034 6.42534046,5.01204034 C6.95200771,5.01204034 7.16267461,5.01204034 7.16267461,5.01204034 L7.16267461,12.5037217 L7.16267461,12.5037217 Z" id="Shape"></path>
                </g>
                <g id="E_1_" transform="translate(86.900096, 16.882662)">
                    <path d="M12.7980142,7.28064808 L7.53134169,7.28064808 C7.53134169,7.28064808 7.53134169,8.28305615 7.53134169,8.7051227 C7.53134169,9.12718926 7.58400841,9.91856405 6.53067391,9.91856405 C5.42467268,9.91856405 5.63533958,8.75788102 5.63533958,8.75788102 L5.63533958,6.48927329 L12.8506809,6.48927329 C12.8506809,6.48927329 12.8506809,6.33099833 12.8506809,4.9065237 C12.8506809,3.48204908 12.7453475,3.05998252 12.3240137,2.32136605 C11.9026799,1.58274958 10.1646779,0.474824875 6.63600736,0.474824875 C3.16000351,0.474824875 2.00133555,1.21344135 1.15866795,1.8992995 C0.316000351,2.58515765 0.421333801,4.22066555 0.421333801,4.22066555 C0.421333801,4.22066555 0.421333801,7.17513144 0.421333801,8.33581446 C0.421333801,9.49649749 1.15866795,10.2878723 1.58000175,10.6044222 C2.00133555,10.9209721 3.00200333,11.7123469 6.58334064,11.7123469 C10.7440119,11.7123469 11.5340128,10.7626972 12.2713469,10.0240807 C12.9560144,9.28546421 12.7980142,7.28064808 12.7980142,7.28064808 Z M6.58334064,2.05757446 C7.68934186,2.05757446 7.58400841,3.2710158 7.58400841,3.2710158 L7.58400841,4.69549043 L5.63533958,4.69549043 L5.63533958,3.11274084 C5.58267286,3.05998252 5.47733941,2.05757446 6.58334064,2.05757446 Z" id="Shape"></path>
                </g>
                <g id="T_3_" transform="translate(78.473420, 15.827496)">
                    <path d="M6.58334064,9.97132237 C5.10867233,9.97132237 5.26667251,8.75788102 5.26667251,8.75788102 L5.26667251,4.64273211 L7.21534134,4.64273211 L7.21534134,1.6355079 L5.26667251,1.6355079 L5.26667251,-5.68434189e-14 L0.0526667251,-5.68434189e-14 C0.0526667251,-5.68434189e-14 0.0526667251,7.86098959 0.0526667251,9.65477245 C0.0526667251,11.4485553 0.632000701,11.6068303 1.31666813,12.0816551 C2.00133555,12.55648 4.52933836,12.55648 4.52933836,12.55648 L7.21534134,12.55648 L7.21534134,9.97132237 C7.26800806,9.97132237 6.95200771,9.97132237 6.58334064,9.97132237 Z" id="Shape"></path>
                </g>
                <g id="RA_1_" transform="translate(57.406730, 16.882662)">
                    <path d="M17.5380195,0.791374791 C16.8006853,0.527583194 13.798682,0.422066555 13.798682,0.422066555 C13.798682,0.422066555 12.640014,0.422066555 9.90134432,0.422066555 C7.16267461,0.422066555 5.63533958,3.11274084 5.63533958,3.11274084 L5.63533958,0.633099833 L0.421333801,0.633099833 L0.421333801,11.5013136 L5.68800631,11.5013136 C5.68800631,11.5013136 5.68800631,6.85858152 5.68800631,6.01444841 C5.68800631,5.1703153 5.68800631,4.85376538 6.16200684,4.27342387 C6.89934099,3.5348074 8.16334239,3.69308236 8.16334239,3.69308236 L12.4820138,3.69308236 L12.4820138,2.05757446 C12.4820138,2.05757446 12.6926807,2.05757446 13.3246814,2.05757446 C14.6413496,2.05757446 14.3780159,3.32377412 14.3780159,3.32377412 L14.3780159,4.85376538 C14.3780159,4.85376538 12.640014,4.85376538 11.6393462,4.85376538 C10.6386785,4.85376538 10.1646779,4.74824875 9.00600999,5.22307362 C7.47867496,5.85617345 6.95200771,6.59478992 6.95200771,8.4413311 C6.95200771,10.2878723 8.26867584,10.8682138 9.11134344,11.237522 C10.0066778,11.6595886 12.2713469,11.5540719 12.2713469,11.5540719 L19.6446885,11.5540719 C19.6446885,11.5540719 19.6446885,5.96169009 19.6446885,3.74584068 C19.6446885,1.52999126 18.2753536,1.10792471 17.5380195,0.791374791 Z M14.3780159,9.76028909 L13.5880151,9.76028909 C13.5880151,9.76028909 12.5346806,9.81304741 12.5346806,8.81063934 C12.5346806,7.80823127 12.5346806,7.49168135 12.5346806,7.49168135 C12.5346806,7.49168135 12.4820138,6.38375665 13.6406818,6.38375665 C14.1146823,6.38375665 14.3780159,6.38375665 14.3780159,6.38375665 L14.3780159,9.76028909 Z" id="Shape"></path>
                </g>
                <g id="T_4_" transform="translate(48.980054, 15.827496)">
                    <path d="M6.63600736,9.97132237 C5.16133906,9.97132237 5.31933923,8.75788102 5.31933923,8.75788102 L5.31933923,4.64273211 L7.26800806,4.64273211 L7.26800806,1.6355079 L5.31933923,1.6355079 L5.31933923,-5.68434189e-14 L0.10533345,-5.68434189e-14 C0.10533345,-5.68434189e-14 0.10533345,7.86098959 0.10533345,9.65477245 C0.10533345,11.4485553 0.684667426,11.6068303 1.36933485,12.0816551 C2.05400228,12.55648 4.58200508,12.55648 4.58200508,12.55648 L7.26800806,12.55648 L7.26800806,9.97132237 C7.32067479,9.97132237 7.00467444,9.97132237 6.63600736,9.97132237 Z" id="Shape"></path>
                </g>
                <g id="S_3_" transform="translate(35.286706, 17.410245)">
                    <path d="M10.0066778,5.1703153 C7.68934186,4.37894051 6.79400754,4.27342387 6.42534046,4.16790723 C6.05667339,4.06239059 5.31933923,3.90411564 5.31933923,2.90170757 C5.31933923,1.8992995 5.79333976,1.74102454 6.26734029,1.74102454 C6.74134081,1.74102454 7.26800806,1.8992995 7.26800806,3.37653244 L12.0080133,3.37653244 L12.0080133,2.74343261 C12.0080133,2.74343261 12.0080133,1.74102454 11.3233459,1.26619967 C10.6386785,0.791374791 9.53267724,0.0527583194 6.21467356,0.0527583194 C2.89666988,0.0527583194 1.4746683,0.685858152 0.579333976,1.58274958 C0.158000175,2.00481614 0.10533345,2.42688269 0.10533345,3.2710158 C0.10533345,4.16790723 0.2106669,4.64273211 1.15866795,5.32859026 C2.106669,6.01444841 3.26533696,6.33099833 4.16067128,6.59478992 C5.10867233,6.8058232 7.16267461,7.17513144 7.16267461,8.07202287 C7.16267461,8.91615598 7.32067479,9.60201413 6.26734029,9.60201413 C5.21400578,9.60201413 5.26667251,8.86339766 5.26667251,8.01926455 C5.26667251,8.01926455 0.10533345,8.01926455 0.10533345,8.01926455 C0.10533345,8.01926455 -3.46944695e-15,9.54925581 0.790000876,10.1823556 C1.58000175,10.7626972 2.5280028,11.3430387 6.53067391,11.3430387 C9.74334414,11.3430387 10.8493454,10.5516639 11.3760126,10.1823556 C11.9026799,9.76028909 12.2713469,8.75788102 12.2713469,7.75547295 C12.2186802,6.75306488 12.2713469,5.96169009 10.0066778,5.1703153 Z" id="Shape"></path>
                </g>
                <g id="U_1_" transform="translate(21.066690, 17.410245)">
                    <path d="M7.37334151,0.211033278 C7.37334151,0.211033278 7.37334151,9.07443094 7.37334151,9.07443094 C5.89867321,9.07443094 5.53000613,8.9689143 5.53000613,8.07202287 L5.53000613,0.158274958 L0.263333625,0.158274958 C0.263333625,0.158274958 0.263333625,7.43892303 0.263333625,8.17753951 C0.263333625,8.9689143 0.316000351,9.39098085 1.52733503,10.235114 C2.7386697,11.0792471 6.42534046,10.9209721 6.42534046,10.9209721 L12.6926807,10.9209721 L12.6926807,0.158274958 L7.37334151,0.158274958 L7.37334151,0.211033278 Z" id="Shape"></path>
                </g>
                <g id="L_2_" transform="translate(14.220016, 14.772329)">
                    <rect id="Rectangle-path" x="0.316000351" y="0.369308236" width="5.31933923" height="13.3478548"></rect>
                </g>
                <g id="L_3_" transform="translate(7.373342, 14.772329)">
                    <rect id="Rectangle-path" x="0.263333625" y="0.422066555" width="5.21400578" height="13.2950965"></rect>
                </g>
                <g id="I_1_" transform="translate(0.000000, 12.661997)">
                    <rect id="Rectangle-path" x="0.2106669" y="0.105516639" width="5.84600649" height="15.7747375"></rect>
                </g>
                <g id="S_4_" transform="translate(82.160091, 2.637916)">
                    <path d="M10.2700114,5.1703153 C7.95267549,4.37894051 7.05734116,4.27342387 6.68867409,4.16790723 C6.32000701,4.06239059 5.58267286,3.90411564 5.58267286,2.90170757 C5.58267286,1.8992995 6.05667339,1.74102454 6.53067391,1.74102454 C7.00467444,1.74102454 7.53134169,1.8992995 7.53134169,3.37653244 L12.2713469,3.37653244 L12.2713469,2.74343261 C12.2713469,2.74343261 12.2713469,1.74102454 11.5866795,1.26619967 C10.9020121,0.791374791 9.79601087,0.0527583194 6.47800719,0.0527583194 C3.16000351,0.0527583194 1.73800193,0.685858152 0.842667601,1.58274958 C0.421333801,2.00481614 0.368667076,2.42688269 0.368667076,3.2710158 C0.368667076,4.16790723 0.474000526,4.64273211 1.42200158,5.32859026 C2.37000263,6.01444841 3.52867058,6.33099833 4.42400491,6.59478992 C5.37200596,6.8058232 7.42600824,7.17513144 7.42600824,8.07202287 C7.42600824,8.91615598 7.58400841,9.60201413 6.53067391,9.60201413 C5.47733941,9.60201413 5.53000613,8.86339766 5.53000613,8.01926455 C5.53000613,8.01926455 0.368667076,8.01926455 0.368667076,8.01926455 C0.368667076,8.01926455 0.263333625,9.54925581 1.0533345,10.1823556 C1.84333538,10.7626972 2.79133643,11.3430387 6.79400754,11.3430387 C10.0066778,11.3430387 11.112679,10.5516639 11.6393462,10.1823556 C12.1660135,9.76028909 12.5346806,8.75788102 12.5346806,7.75547295 C12.5346806,6.75306488 12.5873473,5.96169009 10.2700114,5.1703153 Z" id="Shape"></path>
                </g>
                <g id="T_5_" transform="translate(73.733415, 1.055166)">
                    <path d="M6.58334064,10.076839 C5.10867233,10.076839 5.26667251,8.86339766 5.26667251,8.86339766 L5.26667251,4.74824875 L7.21534134,4.74824875 L7.21534134,1.74102454 L5.26667251,1.74102454 L5.26667251,0.105516639 L0.0526667251,0.105516639 C0.0526667251,0.105516639 0.0526667251,7.96650623 0.0526667251,9.76028909 C0.0526667251,11.5540719 0.632000701,11.7123469 1.31666813,12.1871718 C2.00133555,12.6619967 4.52933836,12.6619967 4.52933836,12.6619967 L7.21534134,12.6619967 L7.21534134,10.076839 C7.26800806,10.076839 6.95200771,10.076839 6.58334064,10.076839 Z" id="Shape"></path>
                </g>
                <g id="R_1_" transform="translate(63.726737, 2.637916)">
                    <path d="M5.42467268,2.05757446 L5.42467268,0.263791597 L0.158000175,0.263791597 L0.158000175,11.1320054 L5.42467268,11.1320054 C5.42467268,11.1320054 5.42467268,7.17513144 5.42467268,5.27583194 C5.42467268,3.37653244 7.47867496,3.32377412 7.47867496,3.32377412 L8.42667601,3.32377412 C8.42667601,3.32377412 8.42667601,0.105516639 8.42667601,0.0527583194 C6.79400754,0.105516639 5.42467268,2.05757446 5.42467268,2.05757446 Z" id="Shape"></path>
                </g>
                <g id="O_1_" transform="translate(49.506722, 2.637916)">
                    <path d="M12.3240137,1.84654118 C11.3233459,0.369308236 8.26867584,0.0527583194 6.58334064,0.0527583194 C4.95067216,0.0527583194 2.94933661,0.211033278 1.58000175,1.16068303 C0.2106669,2.11033278 0.316000351,3.64032404 0.316000351,3.64032404 C0.316000351,3.64032404 0.316000351,7.12237312 0.316000351,7.91374791 C0.316000351,8.7051227 0.632000701,9.39098085 1.00066778,9.76028909 C2.05400228,10.9209721 4.10800456,11.3430387 6.74134081,11.3430387 C9.37467707,11.3430387 10.9546788,10.8154555 11.9026799,10.0240807 C12.8506809,9.28546421 12.8506809,7.75547295 12.8506809,7.75547295 C12.8506809,7.75547295 12.8506809,4.43169883 12.8506809,3.798599 C12.8506809,3.21825748 12.9033476,2.69067429 12.3240137,1.84654118 Z M6.58334064,9.60201413 C5.58267286,9.60201413 5.58267286,8.75788102 5.58267286,8.59960606 C5.58267286,8.4413311 5.63533958,3.00722421 5.63533958,3.00722421 C5.63533958,3.00722421 5.47733941,1.79378286 6.58334064,1.79378286 C7.68934186,1.79378286 7.63667514,2.84894925 7.63667514,2.90170757 C7.63667514,3.00722421 7.63667514,8.4413311 7.63667514,8.4413311 C7.63667514,8.4413311 7.74200859,9.60201413 6.58334064,9.60201413 Z" id="Shape"></path>
                </g>
                <g id="P_1_" transform="translate(35.813373, 2.637916)">
                    <path d="M10.6913452,0.633099833 C9.11134344,0.105516639 7.95267549,0.263791597 6.84667426,0.263791597 C5.74067303,0.263791597 0.10533345,0.263791597 0.10533345,0.263791597 L0.10533345,13.1368215 L5.26667251,13.1368215 L5.26667251,11.1847637 L7.74200859,11.1847637 C7.74200859,11.1847637 9.26934362,11.1847637 10.5860117,10.6571805 C11.9026799,10.1295973 12.4293471,9.39098085 12.4293471,7.75547295 C12.4293471,6.11996505 12.4293471,3.32377412 12.4293471,3.32377412 C12.4293471,3.32377412 12.7980142,1.47723294 10.6913452,0.633099833 Z M7.26800806,3.05998252 C7.26800806,3.05998252 7.26800806,7.0696148 7.26800806,8.33581446 C7.26800806,9.60201413 6.00400666,9.54925581 6.00400666,9.54925581 L5.26667251,9.54925581 L5.26667251,1.95205782 C5.26667251,1.95205782 5.89867321,1.95205782 6.10934011,1.95205782 C7.42600824,1.8992995 7.26800806,3.05998252 7.26800806,3.05998252 Z" id="Shape"></path>
                </g>
                <g id="S_5_" transform="translate(19.486688, 0.000000)">
                    <path d="M12.9560144,6.85858152 C11.4286793,6.22548169 9.58534397,5.75065681 8.63734292,5.53962354 C7.68934186,5.32859026 6.58334064,5.11755698 6.58334064,3.85135732 C6.58334064,2.58515765 7.00467444,2.21584941 7.74200859,2.21584941 C8.47934274,2.21584941 8.84800982,2.69067429 8.84800982,3.42929076 C8.84800982,4.11514891 8.84800982,4.53721547 8.84800982,4.53721547 L14.5360161,4.53721547 C14.5360161,4.53721547 14.6940163,2.74343261 14.167349,2.05757446 C13.6933485,1.3717163 13.0086811,5.68434189e-14 7.74200859,5.68434189e-14 C2.47533608,5.68434189e-14 1.42200158,1.42447462 1.0533345,1.79378286 C0.684667426,2.1630911 0.368667076,3.16549916 0.368667076,4.53721547 C0.368667076,5.96169009 0.737334151,7.12237312 2.37000263,7.70271463 C4.00267111,8.28305615 5.26667251,8.65236438 6.63600736,8.91615598 C8.00534221,9.17994757 8.47934274,9.65477245 8.47934274,10.5516639 C8.47934274,11.4485553 8.53200946,12.1871718 7.42600824,12.1871718 C6.32000701,12.1871718 6.16200684,11.6068303 6.16200684,10.0240807 L0.158000175,10.0240807 C0.158000175,10.0240807 0.0526667251,11.8178635 0.895334327,12.7675133 C1.73800193,13.717163 3.42333713,14.4030212 7.68934186,14.4030212 C11.9026799,14.4030212 13.798682,13.5061298 14.3253492,12.4509634 C14.8520165,11.3430387 14.8520165,11.5013136 14.8520165,9.97132237 C14.7993498,8.49408942 14.4833494,7.49168135 12.9560144,6.85858152 Z" id="Shape"></path>
                </g>
            </g>
        </g>
    </g>
</svg>