<?xml version="1.0" encoding="UTF-8"?>
<svg width="32px" height="33px" viewBox="0 0 32 33" version="1.1" xmlns="http://www.w3.org/2000/svg" xmlns:xlink="http://www.w3.org/1999/xlink">
    <!-- Generator: Sketch 46.2 (44496) - http://www.bohemiancoding.com/sketch -->
    <title>Page 1</title>
    <desc>Created with Sketch.</desc>
    <defs></defs>
    <g id="Skrill-Flow" stroke="none" stroke-width="1" fill="none" fill-rule="evenodd">
        <g id="3.7_Mobile_Rejction_DepositError-_HelpMessage" transform="translate(-70.000000, -225.000000)" fill="#EE3536">
            <g id="Group-13" transform="translate(15.000000, 87.000000)">
                <g id="Group-9">
                    <g id="Group-12" transform="translate(55.000000, 96.000000)">
                        <path d="M23.1092429,44.4055875 L23.8661917,43.0930875 C24.1371672,42.61848 24.5436229,42.638985 24.7703984,43.1399625 L27.4741964,49.1077125 C27.700987,49.60869 27.4417967,50.0598375 26.8969126,50.1125625 L20.3994732,50.745375 C19.8545816,50.7981075 19.6337024,50.455335 19.9076035,49.977825 L20.6292119,48.7239 C20.7676403,48.4836675 20.6733893,48.199485 20.4230359,48.088155 C19.000426,47.4905025 17.454106,47.1652725 15.8341948,47.1652725 C9.27492668,47.1652725 3.95856567,52.5060975 3.95856567,59.0947725 C3.95856567,65.6836725 9.27492668,71.0242725 15.8341948,71.0242725 C22.3934629,71.0242725 27.7098239,65.6834475 27.7098239,59.0947725 C27.7098239,57.7002225 27.4712482,56.3613975 27.035341,55.1191725 C26.94109,54.8672175 27.0706814,54.5771775 27.3298717,54.4746375 L30.0749139,53.3730375 C30.3311561,53.2675725 30.6198055,53.387685 30.7140565,53.6454975 C31.3355176,55.36815 31.6683444,57.19335 31.6683444,59.09475 C31.6683444,67.878 24.5789331,75 15.8341722,75 C7.08941129,75 0,67.877925 0,59.09475 C0,50.3085 7.08941129,43.1865 15.8341722,43.1865 C18.1757446,43.1865 20.396525,43.6962675 22.3963809,44.613225 C22.6615505,44.7395775 22.9708146,44.6487525 23.1092429,44.4055875 Z" id="Page-1"></path>
                    </g>
                </g>
            </g>
        </g>
    </g>
</svg>