<svg id="Layer_3" data-name="Layer 3" xmlns="http://www.w3.org/2000/svg" xmlns:xlink="http://www.w3.org/1999/xlink" viewBox="0 0 169.77 181.39"><defs><style>.cls-1,.cls-3,.cls-6{fill:none;}.cls-2{clip-path:url(#clip-path);}.cls-3,.cls-6{stroke:#2da825;stroke-miterlimit:10;}.cls-3{stroke-width:4px;}.cls-4{clip-path:url(#clip-path-2);}.cls-5{fill:#2da825;}.cls-7{clip-path:url(#clip-path-3);}</style><clipPath id="clip-path" transform="translate(-137.34 -142.38)"><path class="cls-1" d="M173.09,312.67a18,18,0,0,0-3.78-34.43l4.31-12.48,96.84-.91,10.92,7-1.67,52.52-48.26,4.86-66.07,1.25-3.26-12.22Z"/></clipPath><clipPath id="clip-path-2" transform="translate(-137.34 -142.38)"><rect class="cls-1" x="167.4" y="263.41" width="110.88" height="13.1"/></clipPath><clipPath id="clip-path-3" transform="translate(-137.34 -142.38)"><path class="cls-1" d="M148.06,305.53a17.92,17.92,0,0,1,15-27.66,18.38,18.38,0,0,1,2.89.23V264.68c0-1.47.48-4.42,4.49-4.42H274.91c2.61,0,4.34,1.32,4.34,4.34v43.55H324l-9.45-100.84L267,167.57l-23.79-27.7L214.9,136l-26.06,16.95L182.32,170,126,205.68l3.26,102.47Z"/></clipPath></defs><g class="cls-2"><rect class="cls-3" x="37.34" y="126.57" width="98.35" height="52.82" rx="2"/><g class="cls-4"><rect class="cls-5" x="37.34" y="126.57" width="98.35" height="52.82" rx="2"/><rect class="cls-6" x="37.34" y="126.57" width="98.35" height="52.82" rx="2"/></g><rect class="cls-5" x="71.72" y="147.22" width="53.28" height="7.74" rx="1"/><rect class="cls-5" x="71.72" y="160.19" width="53.28" height="7.74" rx="1"/><path class="cls-5" d="M198,303.42a2.34,2.34,0,0,0-.48-1.57,5,5,0,0,0-1.73-1.09,15,15,0,0,1-4.4-2.44,4.64,4.64,0,0,1-1.37-3.63,4.69,4.69,0,0,1,1.46-3.56,6.28,6.28,0,0,1,3.89-1.63v-2.7h2v2.75a5.47,5.47,0,0,1,4.95,5.87l0,.07h-4.24a3.39,3.39,0,0,0-.53-2.08,1.74,1.74,0,0,0-1.44-.69,1.58,1.58,0,0,0-1.34.57,2.26,2.26,0,0,0-.44,1.43,2.12,2.12,0,0,0,.47,1.43,4.91,4.91,0,0,0,1.75,1.12,15.9,15.9,0,0,1,4.36,2.52,4.61,4.61,0,0,1,1.4,3.61,4.75,4.75,0,0,1-1.41,3.58,6.13,6.13,0,0,1-3.76,1.6v2.57h-2v-2.58a7,7,0,0,1-4.12-1.74,5.49,5.49,0,0,1-1.59-4.37l0-.08h4.21a3.18,3.18,0,0,0,.69,2.29,2.43,2.43,0,0,0,1.79.7,1.77,1.77,0,0,0,1.4-.54A2.09,2.09,0,0,0,198,303.42Z" transform="translate(-137.34 -142.38)"/></g><path class="cls-5" d="M175.23,304a12.49,12.49,0,0,1-4.74,3.71,14.21,14.21,0,0,1-5.94,1.3,15.91,15.91,0,0,1-5.51-.94,13.21,13.21,0,0,1-4.48-2.68,12.7,12.7,0,0,1-3-4.2,14.3,14.3,0,0,1,0-10.95,12.7,12.7,0,0,1,3-4.2,13.21,13.21,0,0,1,4.48-2.68,15.91,15.91,0,0,1,5.51-.94,12.44,12.44,0,0,1,4.92.94,10.27,10.27,0,0,1,3.76,2.68,12.48,12.48,0,0,1,2.37,4.2,17.07,17.07,0,0,1,.83,5.47v2.45H158.29a6.2,6.2,0,0,0,2,3.58,5.78,5.78,0,0,0,3.86,1.33,5.91,5.91,0,0,0,3.26-.86,9,9,0,0,0,2.32-2.22Zm-6.62-11.15a4.52,4.52,0,0,0-1.3-3.39,4.65,4.65,0,0,0-3.5-1.41,5.74,5.74,0,0,0-4,1.48,4.7,4.7,0,0,0-1.1,1.52,4.86,4.86,0,0,0-.44,1.8Z" transform="translate(-137.34 -142.38)"/><g class="cls-7"><path class="cls-5" d="M224.21,172.61v9c2.73-.18,5.61-1.45,5.61-4.47s-3.15-4-5.61-4.55Zm0,0" transform="translate(-137.34 -142.38)"/><path class="cls-5" d="M216.36,161.79c0,2.29,1.69,3.6,5.11,4.29v-8.17c-3.11.1-5.11,1.92-5.11,3.88Zm0,0" transform="translate(-137.34 -142.38)"/><path class="cls-5" d="M222.74,142.38A27.6,27.6,0,1,0,250.34,170a27.63,27.63,0,0,0-27.6-27.59Zm1.47,43.91v2.83a1.38,1.38,0,1,1-2.74,0v-2.83c-7.71-.18-11.54-4.79-11.54-8.39a2.63,2.63,0,0,1,2.83-2.88c5.1,0,1.13,6.3,8.71,6.62v-9.53c-6.76-1.24-10.85-4.2-10.85-9.27,0-6.2,5.15-9.4,10.85-9.58v-2.43a1.38,1.38,0,1,1,2.74,0v2.43c3.55.1,10.85,2.32,10.85,6.8a2.74,2.74,0,0,1-2.88,2.82c-3,0-2.92-4.87-8-5v8.67c6,1.28,11.35,3,11.35,10.09,0,6.11-4.56,9.22-11.35,9.62Zm0,0" transform="translate(-137.34 -142.38)"/><path class="cls-5" d="M298.66,280.68h-9.58l0-54.58h9.59V215.17l-152.85.07v10.93h9.59l0,54.59h-9.59v10.33h-8.44V303.2l169.72-.08V291h-8.43Zm-85.52,0,0-54.58h18.19l0,54.58Zm56.16,0H251.12l0-54.58h18.17Zm-94.14-54.54h18.19l0,54.58H175.19Z" transform="translate(-137.34 -142.38)"/><path class="cls-5" d="M257.8,176.15a36.37,36.37,0,0,1-71.62-.12l-.42-1.62L137.34,207v5.11L307.07,212v-5.11l-48.58-32.6Z" transform="translate(-137.34 -142.38)"/></g></svg>