<svg xmlns="http://www.w3.org/2000/svg" viewBox="0 0 383.23 354.32"><defs><style>.cls-1{fill:#fff;}</style></defs><g id="Layer_2" data-name="Layer 2"><g id="Layer_1-2" data-name="Layer 1"><path class="cls-1" d="M161.11,98.6c14.17,0,25.92,11.71,25.87,25.71a26,26,0,1,1-51.93-.07C135.09,110.38,147.11,98.56,161.11,98.6Z"/><path class="cls-1" d="M252,203c-13.93.08-25.25-11.43-25.32-25.74a26.19,26.19,0,0,1,26-26.2c14.06-.07,25.57,11.75,25.63,26.32C278.34,191.5,266.68,202.87,252,203Z"/><path class="cls-1" d="M104.93,177.1c.1-14.7,11.51-25.54,26.79-25.42,13.88.1,25,11.8,24.83,26.22-.12,14.23-12,25.63-26.72,25.29A25.66,25.66,0,0,1,104.93,177.1Z"/><path class="cls-1" d="M160.91,204.24a26,26,0,0,1,26.35,25.42c.17,16.42-13,25.64-24.95,26-14.78.47-26.25-10.6-26.58-25.31A25.25,25.25,0,0,1,160.91,204.24Z"/><path class="cls-1" d="M221.9,204.23A25.75,25.75,0,1,1,196.24,230,25.68,25.68,0,0,1,221.9,204.23Z"/><path class="cls-1" d="M196.15,124.25a25.74,25.74,0,1,1,25.61,25.82A25.48,25.48,0,0,1,196.15,124.25Z"/><path class="cls-1" d="M190.93,87.9c-9.07-.48-15.27-7.17-14.81-16,.46-8.64,7.44-14.71,16.38-14.26,7.93.4,14.42,7.8,14,15.93A15,15,0,0,1,190.93,87.9Z"/><path class="cls-1" d="M101.26,140.59a15.11,15.11,0,0,1-15.15-15.28A15.51,15.51,0,0,1,101.42,110c8,0,15.06,7.29,15,15.43A15.24,15.24,0,0,1,101.26,140.59Z"/><path class="cls-1" d="M190.78,296.64c-8.19.14-15.16-6.92-15.3-15.48-.13-8,6.54-14.62,14.86-14.82a15.15,15.15,0,1,1,.44,30.3Z"/><path class="cls-1" d="M116.57,229.39c0,8.46-6.77,15.05-15.5,15.09-8.19,0-14.75-6.82-14.78-15.44,0-8.08,7-14.88,15.41-14.89A15.2,15.2,0,0,1,116.57,229.39Z"/><path class="cls-1" d="M282,214.07a15.1,15.1,0,0,1,15.1,15.33C297,238,290,244.46,281,244.31c-7.76-.12-14.43-7.38-14.24-15.52A15.18,15.18,0,0,1,282,214.07Z"/><path class="cls-1" d="M296.93,125c0,8.13-7,15.21-15,15.18-8.7,0-15.23-6.67-15.27-15.5,0-8,7-14.84,15.14-14.8A15.09,15.09,0,0,1,296.93,125Z"/><path class="cls-1" d="M259.45,307c-7.62-.31-13.14-6.1-12.86-13.47a13,13,0,0,1,26,.88C272.19,301.61,266.3,307.28,259.45,307Z"/><path class="cls-1" d="M123.72,73.26a13.09,13.09,0,0,1-13-13.06,12.91,12.91,0,0,1,13.14-12.89,13.06,13.06,0,0,1,12.84,12.91A13.23,13.23,0,0,1,123.72,73.26Z"/><path class="cls-1" d="M314,176.69a12.87,12.87,0,0,1,13.21-12.77c6.82,0,12.61,6.06,12.58,13.13s-6,12.64-13.22,12.67A12.75,12.75,0,0,1,314,176.69Z"/><path class="cls-1" d="M56.53,164.58c6.89-.06,12.65,5.83,12.69,13a12.9,12.9,0,1,1-12.69-13Z"/><path class="cls-1" d="M259,72.93a12.92,12.92,0,0,1-12.78-12.88c0-6.91,5.94-12.88,12.7-12.86A12.87,12.87,0,1,1,259,72.93Z"/><path class="cls-1" d="M123.9,307.32a13,13,0,0,1-12.65-12.87,12.89,12.89,0,0,1,13.11-12.91c6.6,0,12.65,6.19,12.66,13A13.08,13.08,0,0,1,123.9,307.32Z"/><path class="cls-1" d="M325.45,260a10.78,10.78,0,0,1,11.33-10.78,10.43,10.43,0,0,1,9.91,10.7,10.94,10.94,0,0,1-11.09,10.76A10.49,10.49,0,0,1,325.45,260Z"/><path class="cls-1" d="M57.76,94.36c-.18,6-5.06,10.84-10.81,10.65A10.84,10.84,0,0,1,36.53,94.12a10.62,10.62,0,1,1,21.23.24Z"/><path class="cls-1" d="M191.09,0c5.46-.34,10.44,4.3,10.79,10.06a10.68,10.68,0,0,1-10.16,11.21,10.78,10.78,0,0,1-11-9.86C180.34,5.15,184.65.42,191.09,0Z"/><path class="cls-1" d="M201.58,343.91c0,5.65-5,10.42-10.86,10.41a10.77,10.77,0,0,1-10.37-10.75A10.65,10.65,0,0,1,190.83,333,10.84,10.84,0,0,1,201.58,343.91Z"/><path class="cls-1" d="M325.14,93.25a10.58,10.58,0,0,1,21.16.34,10.77,10.77,0,0,1-10.88,10.58A10.57,10.57,0,0,1,325.14,93.25Z"/><path class="cls-1" d="M47.41,250.14a10.62,10.62,0,1,1-10.48,10.95A10.76,10.76,0,0,1,47.41,250.14Z"/><path class="cls-1" d="M291.24,18.2A8.32,8.32,0,1,1,283,9.81,8.42,8.42,0,0,1,291.24,18.2Z"/><path class="cls-1" d="M108.63,336.14A8.32,8.32,0,1,1,92,336a8.27,8.27,0,0,1,8.45-8.31A8.42,8.42,0,0,1,108.63,336.14Z"/><path class="cls-1" d="M291.91,335.51a8.42,8.42,0,0,1-8.3,8.51,8.07,8.07,0,0,1-8.08-8.28c0-4.76,3.59-8.51,8.14-8.36C287.69,327.52,292.14,330.52,291.91,335.51Z"/><path class="cls-1" d="M91.32,18.78a8.45,8.45,0,0,1,8.32-8.51,8,8,0,0,1,8.06,8.27,8.19,8.19,0,1,1-16.38.24Z"/><path class="cls-1" d="M8.34,185.48A8.06,8.06,0,0,1,0,177.34a8.3,8.3,0,0,1,8.41-8.18,8.16,8.16,0,0,1-.07,16.32Z"/><path class="cls-1" d="M375.13,168.83a8.19,8.19,0,0,1,8.1,8.29c0,4.26-4.09,8.09-8.48,8a8.16,8.16,0,0,1,.38-16.31Z"/></g></g></svg>