<?xml version="1.0" encoding="UTF-8"?>
<svg width="69px" height="54px" viewBox="0 0 69 54" version="1.1" xmlns="http://www.w3.org/2000/svg" xmlns:xlink="http://www.w3.org/1999/xlink">
    <!-- Generator: Sketch 45.2 (43514) - http://www.bohemiancoding.com/sketch -->
    <title>np_jockey_13119_000000</title>
    <desc>Created with Sketch.</desc>
    <defs></defs>
    <g id="Desktop" stroke="none" stroke-width="1" fill="none" fill-rule="evenodd">
        <g id="01_BetOnline_Desktop_HomePage" transform="translate(-343.000000, -1091.000000)" fill-rule="nonzero" fill="#EE3536">
            <g id="np_jockey_13119_000000" transform="translate(343.000000, 1091.000000)">
                <path d="M54.034173,27.1652828 C54.8747563,26.9689763 55.7822245,26.8398997 56.6870201,26.8398997 C60.311616,26.8398997 63.6119302,28.593207 65.6842636,31.5861313 L68.5298157,27.1652415 C65.8100153,24.0459255 61.8615487,22.2899334 57.6562334,22.2899334 C55.9108545,22.2899334 54.1628029,22.6153165 52.4790321,23.198839 C50.3428292,21.3783431 47.9496406,20.4694375 45.1011416,20.3403609 C45.1011416,20.3403609 44.0008998,20.3403609 42.707953,20.4075881 C41.6719919,20.5366647 40.5075379,20.6657413 39.7981201,20.7329712 C39.0860296,20.7329712 38.8236986,19.8240657 39.3457155,19.3695784 C41.2195873,17.8744243 44.0035999,15.5994411 44.0035999,12.8027821 C44.0035999,11.1140475 42.8391459,9.61889339 41.1580477,9.2262941 L31.8394007,7.08038752 L18.1842042,17.0244465 L12.4261465,14.1013957 L11.068919,10.1323084 L9.7116914,13.9696343 C9.12812124,14.0987109 8.54723743,14.3595557 8.03059322,14.6822747 L0.588970292,21.1844983 C0.259706404,21.5771045 4.1117725e-05,22.0960886 4.1117725e-05,22.6150797 C4.1117725e-05,23.7848232 0.971790018,24.7609863 2.13624399,24.7609863 C2.65556771,24.7609863 3.10799289,24.5646798 3.49347156,24.2393036 L8.3467337,22.612388 C9.18731705,23.1986091 10.0278319,23.3949018 10.9995808,23.3949018 L11.5189045,23.3949018 C14.43141,26.8423133 16.760318,30.9997491 18.3800822,35.227265 L10.0304429,40.7533255 C8.86598889,41.5331545 8.93020107,43.2891466 10.1589357,43.939899 C10.2231822,43.939899 13.1999342,45.3032918 13.1999342,45.3032918 L8.21817913,50.3076765 L5.50111986,52.257249 L9.70657224,53.9486684 L17.0844627,46.5372638 C18.637068,46.7981086 20.1896733,47.0589466 21.8092319,47.3843503 L25.1098888,49.0730849 L24.2666328,45.173871 L20.385051,43.2242985 L24.2666328,39.3250847 L27.0506454,39.3250847 C32.5490446,39.3923119 37.1450469,37.8299305 41.5432729,34.5142804 L44.6484834,34.5142804 C46.5892401,36.5956143 48.9824287,38.2871025 51.6378114,39.3922733 L55.0027489,51.5413043 L54.4860979,53.945364 L58.8869965,53.945364 L56.4295957,41.7908258 C60.2468967,44.1948855 62.3188874,46.4052959 64.6476583,50.3043721 L66.1360514,53.0365273 L68.5292401,49.8499538 C63.4805317,43.8049022 63.3493661,43.546749 60.3755952,36.2649029 C56.7509992,34.6406722 54.2935984,31.1959455 54.03394,27.1648326 L54.034173,27.1652828 Z M31.9039281,21.9672489 C31.7727557,22.0990171 31.6442628,22.2280937 31.4515235,22.2280937 L25.5622317,23.3306486 C25.3025664,23.3951868 25.5622317,23.3951868 25.3025664,23.3951868 C24.9144083,23.3951868 24.590476,23.1988803 24.3334902,22.8761889 L20.7115669,18.9742902 L29.4463422,15.0105725 C31.1943938,15.7904015 33.1324777,16.180316 35.075907,16.2448887 L31.9039281,21.9672489 Z" id="Shape"></path>
                <path d="M27.6955289,8.6402135 C29.3124149,8.6402135 30.7365274,7.66405043 31.3843371,6.23615378 L23.6185695,4.74099963 C23.7497419,6.94872528 25.4951139,8.6402135 27.6955289,8.6402135 Z" id="Shape"></path>
                <path d="M27.6955289,0.384820281 C25.9474774,0.384820281 24.4617569,1.42548722 23.8782279,3.04971794 L20.1894197,2.33707759 L20.0609268,3.11959139 L31.7082077,5.26281318 C32.163285,2.85606866 30.2840953,0.384820281 27.6954604,0.384820281 L27.6955289,0.384820281 Z" id="Shape"></path>
            </g>
        </g>
    </g>
</svg>