<?xml version="1.0" encoding="UTF-8"?>
<svg width="107px" height="28px" viewBox="0 0 107 28" version="1.1" xmlns="http://www.w3.org/2000/svg" xmlns:xlink="http://www.w3.org/1999/xlink">
    <!-- Generator: Sketch 45.2 (43514) - http://www.bohemiancoding.com/sketch -->
    <title>Forbes</title>
    <desc>Created with Sketch.</desc>
    <defs></defs>
    <g id="Desktop" stroke="none" stroke-width="1" fill="none" fill-rule="evenodd">
        <g id="01_BetOnline_Desktop_HomePage" transform="translate(-386.000000, -1455.000000)" fill-rule="nonzero" fill="#FFFFFF">
            <g id="Forbes" transform="translate(386.000000, 1455.000000)">
                <path d="M65.1123131,7.91520336 C63.4100304,7.91520336 62.06239,8.27498533 60.7147495,9.06650566 C60.7147495,5.10890399 60.7147495,1.43912788 60.8566064,0.215869182 L52.6289067,1.72695346 L52.6289067,2.4465174 L53.480048,2.59043019 C54.6149032,2.80629937 54.9695454,3.45390692 55.1823307,4.9649912 C55.3951161,7.98715975 55.3241876,23.8895229 55.1823307,26.5519094 C57.3811126,27.0556042 59.7217513,27.4153862 62.06239,27.4153862 C68.587807,27.4153862 72.4888715,23.3138717 72.4888715,16.8377962 C72.4888715,11.6569359 69.2970914,7.91520336 65.1123131,7.91520336 L65.1123131,7.91520336 Z M62.2751753,25.9762583 C61.7786762,25.9762583 61.1403202,25.9762583 60.7856779,25.8323455 C60.6438211,24.105392 60.5728926,16.7658398 60.6438211,10.2897644 C61.3531055,10.0738952 61.8496046,9.92998239 62.4879606,9.92998239 C65.1832416,9.92998239 66.6727389,13.1680201 66.6727389,17.1256218 C66.7436674,22.090613 64.8995278,25.9762583 62.2751753,25.9762583 L62.2751753,25.9762583 Z" id="Shape"></path>
                <path d="M21.6331759,0.647607547 L0,0.647607547 L0,1.79890985 L1.20578358,1.94282264 C2.83713783,2.15869182 3.40456539,3.16608134 3.68827918,5.54064235 C4.0429214,10.0019388 3.90106451,18.1330113 3.68827918,22.0186566 C3.47549384,24.3932176 2.83713783,25.4725635 1.20578358,25.6164763 L0,25.8323455 L0,26.839735 L13.9019754,26.839735 L13.9019754,25.8323455 L12.412478,25.6164763 C10.7811237,25.4725635 10.2136962,24.3932176 9.92998239,22.0186566 C9.7881255,20.3636595 9.71719706,17.7732294 9.71719706,14.5351916 L12.6961918,14.6791044 C14.5403314,14.6791044 15.3914727,16.1901887 15.7461149,18.2769241 L16.8809701,18.2769241 L16.8809701,9.42628764 L15.7461149,9.42628764 C15.3914727,11.5130231 14.5403314,13.0241073 12.6961918,13.0241073 L9.71719706,13.1680201 C9.71719706,8.92259288 9.85905395,4.9649912 9.92998239,2.59043019 L14.2566176,2.59043019 C17.5902545,2.59043019 19.2925372,4.67716562 20.4983208,8.41889812 L21.7041044,8.05911615 L21.6331759,0.647607547 L21.6331759,0.647607547 Z" id="Shape"></path>
                <path d="M28.6550921,7.62737778 C34.8258668,7.62737778 37.87579,11.872805 37.87579,17.4854038 C37.87579,22.8101769 34.4712246,27.3434298 28.3004498,27.3434298 C22.1296751,27.3434298 19.0797519,23.0980025 19.0797519,17.4854038 C19.0797519,12.1606306 22.4843173,7.62737778 28.6550921,7.62737778 L28.6550921,7.62737778 Z M28.3004498,8.92259288 C25.6051689,8.92259288 24.8958844,12.6643254 24.8958844,17.4854038 C24.8958844,22.2345258 26.101668,26.0482147 28.5841636,26.0482147 C31.4213014,26.0482147 32.1305859,22.3064822 32.1305859,17.4854038 C32.0596574,12.7362818 30.8538739,8.92259288 28.3004498,8.92259288 L28.3004498,8.92259288 Z" id="Shape"></path>
                <path d="M74.1202257,17.6293166 C74.1202257,12.5204126 77.3120058,7.62737778 83.553709,7.62737778 C88.7314855,7.62737778 91.1430527,11.5130231 91.1430527,16.6219271 L79.7235729,16.6219271 C79.581716,21.2271363 81.7804979,24.6090868 86.2489899,24.6090868 C88.2349864,24.6090868 89.2279847,24.105392 90.4337682,23.2419153 L90.9302674,23.8895229 C89.7244838,25.6164763 87.0292028,27.3434298 83.553709,27.3434298 C78.0212902,27.3434298 74.1202257,23.3138717 74.1202257,17.6293166 L74.1202257,17.6293166 Z M79.7235729,15.2547556 L85.468777,15.1108428 C85.468777,12.592369 85.1141348,8.85063648 82.9862814,8.85063648 C81.000285,8.92259288 79.8654298,12.3764998 79.7235729,15.2547556 L79.7235729,15.2547556 Z" id="Shape"></path>
                <path d="M105.754312,8.6347673 C104.264815,7.98715975 102.349747,7.62737778 100.080037,7.62737778 C95.5406163,7.62737778 92.7034785,10.3617208 92.7034785,13.5997585 C92.7034785,16.8377962 94.7604034,18.2049677 97.7393981,19.2123572 C100.789321,20.3636595 101.640463,21.2271363 101.640463,22.6662642 C101.640463,24.1773484 100.505608,25.5445199 98.5905395,25.5445199 C96.2499008,25.5445199 94.5476181,24.1773484 93.1999776,20.4356159 L92.3488363,20.6514851 L92.4906932,26.1201711 C93.9801905,26.7677786 96.6754715,27.2714734 99.0161102,27.2714734 C103.839244,27.2714734 106.889168,24.7529996 106.889168,20.9393107 C106.889168,18.3488805 105.541527,16.8377962 102.349747,15.6145375 C98.9451817,14.247366 97.6684697,13.3838893 97.6684697,11.7288922 C97.6684697,10.0738952 98.8033248,8.99454927 100.221894,8.99454927 C102.420676,8.99454927 103.910173,10.3617208 105.045028,13.7436713 L105.896169,13.5278021 L105.754312,8.6347673 L105.754312,8.6347673 Z" id="Shape"></path>
                <path d="M53.8346903,8.13107254 C51.7777653,6.90781384 48.0894862,7.48346499 46.1034897,12.0167178 L46.2453466,7.62737778 L38.0176469,9.28237485 L38.0176469,10.0019388 L38.8687882,10.1458516 C40.0036434,10.2897644 40.5001425,10.8654155 40.5710709,12.5204126 C40.7838563,15.5425811 40.7129278,20.7234415 40.5710709,23.3858281 C40.429214,24.8969124 39.9327149,25.6164763 38.8687882,25.7603891 L38.0176469,25.9043019 L38.0176469,26.9116914 L49.4371266,26.9116914 L49.4371266,25.9043019 L47.9476293,25.7603891 C46.7418457,25.6164763 46.316275,24.8969124 46.2453466,23.3858281 C46.0325612,21.0112671 46.0325612,16.2621451 46.1034897,13.3119329 C46.7418457,12.4484562 49.4371266,11.6569359 51.8486938,13.3119329 L53.8346903,8.13107254 L53.8346903,8.13107254 Z" id="Shape"></path>
            </g>
        </g>
    </g>
</svg>