<?xml version="1.0" encoding="UTF-8"?>
<svg width="12px" height="12px" viewBox="0 0 12 12" version="1.1" xmlns="http://www.w3.org/2000/svg" xmlns:xlink="http://www.w3.org/1999/xlink">
    <!-- Generator: Sketch 45.1 (43504) - http://www.bohemiancoding.com/sketch -->
    <title>np_cross_1041102_000000</title>
    <desc>Created with Sketch.</desc>
    <defs></defs>
    <g id="Mobile" stroke="none" stroke-width="1" fill="none" fill-rule="evenodd">
        <g id="1.0.1_Create-Account-Error" transform="translate(-326.000000, -409.000000)" fill-rule="nonzero" fill="#E08590">
            <g id="Group-5" transform="translate(35.000000, 396.000000)">
                <g id="np_cross_1041102_000000" transform="translate(291.000000, 13.000000)">
                    <path d="M11.65725,0.34275 C11.266625,-0.047875 10.6338,-0.047875 10.2432,0.34275 L5.99995,4.586 L1.7577,0.34275 C1.367075,-0.047875 0.73425,-0.047875 0.34365,0.34275 C-0.04695,0.733375 -0.046975,1.3662 0.34365,1.7568 L4.5859,5.99905 L0.34365,10.2413 C-0.046975,10.631925 -0.046975,11.26475 0.34365,11.65535 C0.734275,12.04595 1.3671,12.045975 1.7577,11.65535 L5.99995,7.4141 L10.2422,11.65635 C10.632825,12.046975 11.26565,12.046975 11.65625,11.65635 C12.04685,11.265725 12.046875,10.6329 11.65625,10.2423 L7.414,6.00005 L11.65625,1.7578 C12.046875,1.367175 12.046875,0.73435 11.65625,0.34375 L11.65725,0.34275 Z" id="Shape"></path>
                </g>
            </g>
        </g>
    </g>
</svg>