<svg id="Layer_3" data-name="Layer 3" xmlns="http://www.w3.org/2000/svg" viewBox="0 0 88.33 58.09"><defs><style>.cls-1{fill:#2c2c2c;}</style></defs><path class="cls-1" d="M131.25,183.31v-5.52h-.11c0-4.6-8.31-8.33-18.57-8.33S94,173.19,94,177.79v5.52h0a4.52,4.52,0,0,0,.44,1.44,4,4,0,0,0-.46,1.83v4.48a9.58,9.58,0,0,0-.77.63L91.9,191l-.06.08c-4.41-2.37-12.26,2.1-17.53,10s-6,16.16-1.55,18.53l5.29,2.83h0c1.85.8,4.23.5,6.74-.66a21,21,0,0,0,4.91-3.24v1.12h0c.19,1.83,1.69,3.51,4.1,4.84a24,24,0,0,0,6.71,2.35,39,39,0,0,0,7.58.75h.16a35.9,35.9,0,0,0,11-1.61c4.38-1.45,7.29-3.73,7.56-6.33H127v-4.81c2.14-1.29,3.48-2.87,3.65-4.58h.13v-5.52h-.11a5.25,5.25,0,0,0-2.15-3.9V196a5.86,5.86,0,0,0,2.63-3.9h.13v-5.52h-.11a4.12,4.12,0,0,0-.45-1.83,4.26,4.26,0,0,0,.43-1.44Zm-42,25.77-.08.11a28.89,28.89,0,0,1-4.23,5,20.57,20.57,0,0,1-5.21,3.62c-2.47,1.13-4.79,1.36-6.53.43a5.1,5.1,0,0,1-2.49-3.73,4.59,4.59,0,0,0,2,2.1c1.74.93,4.06.7,6.53-.43a20.35,20.35,0,0,0,5.22-3.62,29,29,0,0,0,4.23-5l.07-.11A24.88,24.88,0,0,0,92.49,199a12.33,12.33,0,0,0,.16-4.76,10.2,10.2,0,0,1,.37,6.39A24.88,24.88,0,0,1,89.26,209.08Zm29.06,10.8a32.7,32.7,0,0,1-10.06,1.48h-.15a35.11,35.11,0,0,1-7-.7A21.82,21.82,0,0,1,95,218.52a8.93,8.93,0,0,1-2.89-2.37c.4-.44.8-.9,1.19-1.37a8.87,8.87,0,0,0,3,2.5,21.82,21.82,0,0,0,6.14,2.14,35.11,35.11,0,0,0,7,.7h.14a32.72,32.72,0,0,0,10.07-1.48,16,16,0,0,0,4.65-2.33A12.69,12.69,0,0,1,118.32,219.88Zm3.79-9.39A33,33,0,0,1,112,212h-.15a35.1,35.1,0,0,1-6.94-.69,21.68,21.68,0,0,1-6.15-2.15,11.3,11.3,0,0,1-1.33-.86c.2-.43.39-.85.56-1.27.43.16.87.31,1.33.45.23.15.48.3.73.44a22.32,22.32,0,0,0,6.15,2.15,35.1,35.1,0,0,0,6.94.69h.15a32.72,32.72,0,0,0,10.07-1.48,15.76,15.76,0,0,0,4.65-2.32A12.8,12.8,0,0,1,122.11,210.49Zm-22.52-9.31a14.06,14.06,0,0,0,.07-1.69,26,26,0,0,0,4.32,1.28,35.87,35.87,0,0,0,6.94.69h.15A32.72,32.72,0,0,0,121.14,200a15.58,15.58,0,0,0,4.64-2.32,12.7,12.7,0,0,1-5.93,3.56,32.72,32.72,0,0,1-10.07,1.48h-.15a35.1,35.1,0,0,1-6.94-.69A27.88,27.88,0,0,1,99.59,201.18Zm23-8.8a32.7,32.7,0,0,1-10.06,1.48h-.15a34.92,34.92,0,0,1-6.94-.7A21.78,21.78,0,0,1,99.3,191c-2.36-1.31-3.77-3-3.77-4.79a11,11,0,0,0,2.59,1.92l.52.27a10.77,10.77,0,0,0,2,1.36,21.78,21.78,0,0,0,6.15,2.14,34.92,34.92,0,0,0,6.94.7h.14a32.72,32.72,0,0,0,10.07-1.48,16,16,0,0,0,4.65-2.33A12.69,12.69,0,0,1,122.6,192.38Zm0-8.8a32.7,32.7,0,0,1-10.06,1.48h-.15a35,35,0,0,1-6.94-.69,21.46,21.46,0,0,1-6.15-2.15c-2.36-1.31-3.77-3-3.77-4.79a5,5,0,0,1,2.29-3.82,4.11,4.11,0,0,0-1,2.58c0,1.82,1.41,3.48,3.77,4.79a22.09,22.09,0,0,0,6.15,2.15,35.71,35.71,0,0,0,6.94.69h.14a32.72,32.72,0,0,0,10.07-1.48,15.76,15.76,0,0,0,4.65-2.32A12.68,12.68,0,0,1,122.6,183.58Z" transform="translate(-69.86 -169.46)"/><path class="cls-1" d="M140.39,198.17H138a1.57,1.57,0,0,1-1.66-1.66c0-.54,0-1.09,0-1.64a1.49,1.49,0,0,1,.82-1.41,1.87,1.87,0,0,1,.78-.15h12c-.07-.07-.11-.13-.16-.17-1.16-1.17-2.3-2.35-3.48-3.49a1.63,1.63,0,0,1,0-2.42c.32-.27.6-.59.89-.88a1.61,1.61,0,0,1,2.28,0c2.73,2.73,5.44,5.47,8.19,8.17a1.72,1.72,0,0,1,0,2.44c-2.73,2.7-5.44,5.43-8.15,8.15a1.64,1.64,0,0,1-2.35,0l-.9-.9a1.61,1.61,0,0,1,0-2.35l3.51-3.51a1,1,0,0,1,.17-.12l-.05-.06h-9.52Z" transform="translate(-69.86 -169.46)"/></svg>