<?xml version="1.0" encoding="UTF-8"?>
<svg width="36" height="36" viewBox="0 0 36 36" xmlns="http://www.w3.org/2000/svg"><g fill-rule="nonzero" fill="#EE3536"><path d="M17.862.04c-.763 0-1.508.065-2.246.16l8.605 5.276c-.42-.87-.877-1.665-1.376-2.35 2.23.765 4.237 2.02 5.884 3.648h-2.436a3.341 3.341 0 0 1 1.392 2.244h2.927a15.711 15.711 0 0 1 2.752 7.857h-6.64a34.542 34.542 0 0 0-.438-4.516c-.067.048-.119.11-.19.154l-1.874 1.146c.137 1.032.243 2.098.279 3.217h-5.542l-3.671 2.245H24.5c-.098 2.95-.565 5.629-1.273 7.856H12.491c-.535-1.687-.932-3.63-1.135-5.757a4.376 4.376 0 0 1-.692.065c-.407 0-.986-.07-1.557-.335.177 2.166.54 4.2 1.063 6.03H5.112a15.675 15.675 0 0 1-2.499-5.97c-.373.186-.78.313-1.217.314-.364 0-.707-.094-1.033-.225 1.457 8.439 8.727 14.86 17.5 14.86 9.82 0 17.78-8.041 17.78-17.96 0-9.92-7.96-17.959-17.78-17.959zM6.994 29.226h3.934c.557 1.402 1.213 2.638 1.951 3.647a15.554 15.554 0 0 1-5.885-3.647zm10.868 4.49c-1.575 0-3.243-1.683-4.517-4.49h9.035c-1.275 2.806-2.943 4.49-4.518 4.49zm4.984-.843c.738-1.01 1.394-2.245 1.951-3.647h3.935a15.577 15.577 0 0 1-5.886 3.647zm7.767-5.892h-5.058c.67-2.338 1.084-5.004 1.17-7.856h6.64a15.728 15.728 0 0 1-2.752 7.856z"/><path d="M1.4 19.08a.534.534 0 0 0 .474-.298 9.217 9.217 0 0 1 5.58-5.022c.486-.157.733-.069 1.144.234.41.303.373.787.373 1.3v2.57c0 .426.633.818 1 1.028.366.208 1.078.2 1.439-.023l13.535-8.277c.348-.214.588-.598.588-1.008 0-.412-.193-.793-.54-1.007L11.499.3c-.36-.222-1.157-.23-1.523-.023-.37.21-1.004.604-1.004 1.03v2.79c0 .855-.327 1.58-1.161 1.718C3.41 6.538 0 10.35 0 14.945c0 1.37.375 2.671.907 3.84.082.18.295.296.493.295z"/></g></svg>