<?xml version="1.0" encoding="UTF-8"?>
<svg width="84px" height="49px" viewBox="0 0 84 49" version="1.1" xmlns="http://www.w3.org/2000/svg" xmlns:xlink="http://www.w3.org/1999/xlink">
    <!-- Generator: Sketch 45.2 (43514) - http://www.bohemiancoding.com/sketch -->
    <title>FoxSports</title>
    <desc>Created with Sketch.</desc>
    <defs></defs>
    <g id="Desktop" stroke="none" stroke-width="1" fill="none" fill-rule="evenodd">
        <g id="01_BetOnline_Desktop_HomePage" transform="translate(-552.000000, -1448.000000)" fill-rule="nonzero" fill="#FFFFFF">
            <g id="FoxSports" transform="translate(552.000000, 1448.000000)">
                <path d="M19.9131262,36.579991 L17.245339,36.579991 C17.4358952,37.8560372 18.6268717,38.5649517 20.532434,38.3286469 C22.7238307,38.4231688 23.819529,37.7615152 24.0100852,36.4382081 C24.0100852,35.7292935 23.5336947,35.2566838 22.6285525,34.973118 L20.4371559,34.4059863 C20.1513215,34.4059863 19.9607653,34.3114644 19.9607653,34.1224205 C19.9607653,33.9333766 20.1513215,33.8388547 20.6753512,33.8388547 C21.0564636,33.8388547 21.2470199,33.9333766 21.2470199,34.3114644 L23.7242509,34.3114644 C23.6289728,33.0354182 22.6285525,32.4210256 20.6753512,32.5628085 C18.5792326,32.5628085 17.4835343,33.1299401 17.3882562,34.3114644 C17.3882562,35.1149009 17.8646467,35.5875106 18.865067,35.8710764 L20.9611855,36.2491642 L21.342298,36.6272519 C21.342298,36.9108178 21.0564636,37.0053397 20.6277121,37.0998616 L20.1513215,36.9108178 L19.9131262,36.579991 Z" id="Shape"></path>
                <path d="M32.7280328,34.5005083 C32.7280328,33.413506 31.9181689,32.8463743 30.2508018,32.6100695 L26.1062038,32.6100695 L26.1062038,38.2341249 L28.9645473,38.2341249 L28.9645473,36.485469 L29.8696894,36.485469 C31.8228907,36.3909471 32.7280328,35.7765545 32.7280328,34.5005083 Z M28.9645473,34.0278986 L29.1551035,34.0278986 C29.7267722,34.0278986 30.0602456,34.2169425 30.0602456,34.5005083 C30.0602456,34.878596 29.7744112,35.0676399 29.1551035,35.0676399 L28.9645473,35.0676399 L28.9645473,34.0278986 Z" id="Shape"></path>
                <path d="M34.490678,35.4929886 C34.490678,37.3834275 35.6816544,38.3286469 38.1588855,38.4231688 C40.6361165,38.3286469 41.8270929,37.3361665 41.8270929,35.4929886 C41.8270929,33.6025498 40.6361165,32.6573304 38.1588855,32.5628085 C35.6816544,32.6573304 34.490678,33.6498108 34.490678,35.4929886 Z M38.9687494,35.4929886 C38.8734713,36.6745129 38.587637,37.1471226 38.1588855,36.9580787 C37.777773,37.1471226 37.4442996,36.6745129 37.4442996,35.4929886 C37.4442996,34.3114644 37.6348558,33.8388547 38.1588855,34.0278986 C38.635276,33.8388547 38.9687494,34.3114644 38.9687494,35.4929886 Z" id="Shape"></path>
                <path d="M50.8308749,38.2341249 L50.3544843,36.1546422 C50.2592062,35.7765545 49.8780937,35.4457277 49.258786,35.4457277 C50.2592062,35.1621619 50.6403187,34.7368131 50.6403187,34.1696815 C50.5450405,33.0826792 49.7351766,32.6100695 48.1630876,32.6100695 L44.0184896,32.6100695 L44.0184896,38.2341249 L46.781555,38.2341249 L46.781555,36.3436861 L47.0673893,36.3436861 C47.5437799,36.2491642 47.7819752,36.3436861 47.7819752,36.6272519 L48.0678095,38.186864 L50.8308749,38.186864 L50.8308749,38.2341249 L50.8308749,38.2341249 Z M46.781555,34.0278986 L46.9721112,34.0278986 C47.5437799,33.9333766 47.8772533,34.1224205 47.8772533,34.5005083 C47.8772533,34.878596 47.5914189,34.973118 46.9721112,34.973118 L46.781555,34.973118 L46.781555,34.0278986 Z" id="Shape"></path>
                <polygon id="Shape" points="52.4506029 34.2169425 54.213248 34.2169425 54.213248 38.3286469 56.8810353 38.3286469 56.8810353 34.2169425 58.6436804 34.2169425 58.6436804 32.7518524 52.4029638 32.7518524"></polygon>
                <path d="M62.9311956,34.1224205 C62.9311956,33.9333766 63.1217518,33.8388547 63.6457815,33.8388547 C64.026894,33.8388547 64.2174502,33.9333766 64.3603674,34.3114644 L66.8375984,34.3114644 C66.6470421,33.0354182 65.6466219,32.4210256 63.6457815,32.5628085 C61.5496629,32.5628085 60.4539646,33.1299401 60.4539646,34.3114644 C60.4539646,35.1149009 60.9303552,35.5875106 61.9307754,35.8710764 L63.9316158,36.2491642 L64.4080064,36.6272519 C64.4080064,36.9108178 64.1221721,37.0053397 63.5981424,37.0998616 L63.1217518,36.9108178 L62.9311956,36.53273 L60.3586865,36.53273 C60.5492427,37.8087762 61.6449411,38.5176907 63.6457815,38.2813859 C65.7419,38.3759078 66.9328765,37.7142542 67.0281546,36.3909471 C67.0281546,35.6820325 66.6470421,35.2094228 65.6466219,34.925857 L63.5505034,34.3587254 C63.1217518,34.4059863 63.0264737,34.3114644 62.9311956,34.1224205 Z" id="Shape"></path>
                <polygon id="Shape" points="23.9148071 16.0214689 31.0606658 16.0214689 30.6795534 10.3028915 18.0075639 10.3028915 18.0075639 31.3340233 23.9624462 31.3340233 23.9624462 24.4339216 29.8220503 24.4339216 29.8220503 18.7153442 23.9624462 18.7153442"></polygon>
                <polygon id="Shape" points="60.6445208 20.3694782 66.4088469 10.3501525 60.0728521 10.3501525 57.4050649 14.9817276 54.8325558 10.3501525 48.3060048 10.3501525 54.1656089 20.3694782 47.9248923 31.2867623 54.3085261 31.2867623 57.2621477 25.8990117 60.3110474 31.2867623 66.9328765 31.2867623"></polygon>
                <path d="M40.9219508,10.6337183 C34.7765123,11.2008499 31.3941392,14.6509008 30.8224705,20.8420879 C31.3941392,27.033275 34.7765123,30.3888039 40.9219508,30.9559355 C46.9721112,30.3888039 50.3544843,27.033275 50.926153,20.8420879 C50.3544843,14.6509008 46.9721112,11.2008499 40.9219508,10.6337183 Z M40.9219508,14.8399447 C41.922371,14.9344666 42.5893179,15.5488592 42.684596,16.5886006 L42.684596,24.9537923 C42.5893179,25.9462727 41.9700101,26.5134043 40.9219508,26.7024482 C39.9215306,26.5134043 39.3498619,25.8990117 39.2545838,24.9537923 L39.2545838,16.5886006 C39.3498619,15.5488592 39.9691697,14.9344666 40.9219508,14.8399447 Z" id="Shape"></path>
                <path d="M71.3633089,42.0622635 C78.9855582,37.6197323 83.2730734,32.1374598 83.9400202,25.5681849 L77.222913,25.5681849 C76.5083271,31.3812842 73.078315,36.2964251 66.5994031,40.1245637 C60.2634084,44.0472243 52.3076857,46.126707 42.8275131,46.3157508 L42.8275131,48.9623652 C54.213248,48.6787993 63.6457815,46.4102728 71.3633089,42.0622635 Z" id="Shape"></path>
                <path d="M12.8149066,42.0622635 C20.4371559,46.4102728 29.9649675,48.6315384 41.3507023,48.9623652 L41.3507023,46.3157508 C31.9181689,46.126707 24.0100852,44.0472243 17.6740905,40.1245637 C11.3380958,36.2964251 7.76516645,31.3812842 7.19349776,25.5681849 L0.23819529,25.5681849 C1.00042022,32.1374598 5.14501826,37.6669933 12.8149066,42.0622635 Z" id="Shape"></path>
                <path d="M41.3507023,2.97744112 L41.3507023,0 C29.8696894,0.283565821 20.1513215,2.64661433 12.5290723,7.18366748 C4.81154486,11.7207206 0.71458587,17.392037 0.23819529,24.1030948 L7.1458587,24.1030948 C7.7175274,18.1009516 11.0999005,13.1858107 17.4358952,9.35767211 C23.9148071,5.34048964 31.8228907,3.26100695 41.3507023,2.97744112 Z" id="Shape"></path>
                <path d="M42.8275131,0 L42.8275131,2.93018015 C52.4506029,3.11922404 60.3586865,5.29322867 66.7899593,9.2158892 C73.125954,13.1385497 76.6036053,18.0536906 77.175274,24.0558339 L83.8923811,24.0558339 C83.5112687,17.392037 79.3190316,11.6734596 71.6967823,7.13640651 C64.026894,2.64661433 54.4038042,0.330826792 42.8275131,0 Z" id="Shape"></path>
                <polygon id="Shape" points="74.5074867 42.2985684 75.3173507 42.2985684 75.3173507 41.8259587 73.3165103 41.8259587 73.3165103 42.2985684 74.0310961 42.2985684 74.0310961 44.2835291 74.5074867 44.2835291"></polygon>
                <polygon id="Shape" points="76.413049 41.7786977 75.603185 41.7786977 75.603185 44.2362681 76.0795756 44.2362681 76.0795756 42.2513074 76.5559662 44.2362681 77.0323568 44.2362681 77.4134692 42.2513074 77.4134692 44.2362681 77.8898598 44.2362681 77.8898598 41.7786977 77.175274 41.7786977 76.6988834 43.7636584"></polygon>
            </g>
        </g>
    </g>
</svg>