<?xml version="1.0" encoding="UTF-8"?>
<svg width="61px" height="42px" viewBox="0 0 61 42" version="1.1" xmlns="http://www.w3.org/2000/svg" xmlns:xlink="http://www.w3.org/1999/xlink">
    <!-- Generator: Sketch 45.1 (43504) - http://www.bohemiancoding.com/sketch -->
    <title>np_books_935539_000000</title>
    <desc>Created with Sketch.</desc>
    <defs></defs>
    <g id="Mobile" stroke="none" stroke-width="1" fill="none" fill-rule="evenodd">
        <g id="1.4.2_Deposit-Process-(bitcoin-&amp;-credit-card-and-others-inactive)" transform="translate(-159.000000, -539.000000)" fill-rule="nonzero" fill="#FFFFFF">
            <g id="Group-2" transform="translate(17.000000, 355.000000)">
                <g id="np_books_935539_000000" transform="translate(142.000000, 184.000000)">
                    <path d="M49.105898,31.3588645 L22.8861076,40.9348897 C22.7108481,41.0004601 22.5327127,41.0289714 22.3488329,41.0289714 C22.098874,41.0289714 21.8489078,40.9719539 21.6219339,40.8465153 L19.1424249,39.5322476 L3.7855184,31.1618922 L3.77689958,31.1533394 C2.18803089,29.8248401 1.12211638,28.0288154 0.673890948,26.0958756 C0.16534558,23.9149415 0.446917061,21.5430124 1.66801877,19.4390747 C1.82316921,19.162537 1.97831964,18.9344669 2.10185745,18.7605643 C2.27711698,18.5039873 2.52707584,18.315824 2.82301202,18.2046425 L10.7445544,15.2340385 C10.7675394,15.2711004 11.7530248,16.4884606 11.7530248,16.4884606 L23.6794696,28.2138186 L25.2769438,29.7476174 L23.3490743,30.4403813 C23.1795592,30.5059516 22.9956794,30.5344629 22.8204199,30.5344629 C22.5790813,30.5344629 22.3434797,30.4774454 22.1222503,30.3662603 L8.05838659,23.3246231 L5.96097988,22.2726543 C5.73400599,22.1557656 5.49840446,22.1044516 5.26281029,22.1044516 C4.5790054,22.1044516 3.93255017,22.5577382 3.7544074,23.2790309 C3.59925697,23.9147736 3.54179821,24.4906853 3.54754261,25.0152101 C3.57052759,26.8967702 4.48988988,28.0656569 5.24556237,28.7070995 L5.25418118,28.6928446 L22.2888071,37.4076771 C22.5100366,37.5160123 22.7513825,37.5758797 22.9869767,37.5758797 C23.1708565,37.5758797 23.3547363,37.5473706 23.5242515,37.4817981 L43.8915152,29.978474 L45.3768963,29.4311057 L47.8995067,29.2400961 L47.9282383,29.2400961 L49.8992092,29.0947005 C50.4020028,29.9271381 50.0342432,31.0218747 49.1062459,31.3583237 L49.105898,31.3588645 Z" id="Shape"></path>
                    <path d="M29.6948094,30.6151735 L25.7816263,32.000672 C24.9656412,32.2914632 24.1037597,32.4311516 23.2504103,32.4311516 C22.10403,32.4311516 20.9490441,32.1745746 19.9032093,31.6642522 L4.96040008,24.3463034 C4.7391706,24.2379683 4.65009922,23.9728377 4.76215557,23.7618747 C4.87133605,23.5423581 5.13853549,23.4539764 5.35114468,23.5651651 L20.3027801,30.8918718 C21.914597,31.6786954 23.8051021,31.7899206 25.4887793,31.1912165 L26.7615953,30.7379299 C26.9368549,30.7806933 27.1149903,30.8035003 27.2902498,30.8035003 C27.3477122,30.8035003 27.4080506,30.8035003 27.4655093,30.7949474 L29.0399619,30.6780588 L29.6948094,30.6151735 Z" id="Shape"></path>
                    <path d="M39.0815061,29.9138123 L25.784789,34.6349 C24.9688039,34.9256912 24.1069225,35.0653796 23.253573,35.0653796 C22.1071927,35.0653796 20.9522068,34.8088026 19.906372,34.2984802 L4.96062073,26.9717736 C4.73939125,26.8634384 4.65031987,26.5983078 4.76237623,26.3873448 C4.87155671,26.1678282 5.13875614,26.0794465 5.35136534,26.1906353 L20.3030008,33.5173419 C21.9148177,34.3041655 23.8053228,34.4153907 25.4889999,33.8166866 L35.7634684,30.1761038 L38.4038354,29.9793943 L38.4325663,29.9793943 L39.0815061,29.9138123 Z" id="Shape"></path>
                    <path d="M58.9258156,18.0906578 L50.7262469,18.6750866 L46.1378572,19.0029383 L30.7721244,20.0976748 C30.734774,20.0976748 30.6974251,20.1062276 30.6543236,20.1062276 C30.5077935,20.1062276 30.3670151,20.0834206 30.2348497,20.0492094 C30.0078758,19.9836397 29.7866389,19.8667533 29.6085109,19.6985506 L20.6645967,11.5281671 L18.0155506,9.1049313 L16.288772,7.52267211 C16.1048922,7.3544695 15.8836627,7.23758813 15.6624333,7.17201341 C15.5216475,7.1349522 15.3751247,7.11499588 15.2372149,7.11499588 C14.6999401,7.11499588 14.1770374,7.3858264 13.8926121,7.88758794 C13.5679466,8.45776321 13.349593,8.99655603 13.2145516,9.50115659 C12.7203709,11.3171785 13.2806336,12.6969844 13.8236498,13.5151905 L13.8322694,13.5066377 L14.2747283,13.9228638 L27.8156378,26.5210917 C27.9995176,26.6892943 28.2121268,26.8061757 28.4419766,26.8717504 C28.5827623,26.9088116 28.7206722,26.9287679 28.867195,26.9287679 C28.9045454,26.9287679 28.9476461,26.9287679 28.9849958,26.9202151 L34.2370446,26.5125425 L39.8712692,26.0735094 L43.2242072,25.8112251 L50.6367703,25.2353499 L55.0355432,24.8932448 C55.0728936,24.8932448 55.1159943,24.8846919 55.1619642,24.8846919 C55.3084944,24.8846919 55.4492728,24.907499 55.5871826,24.9417102 C56.0641227,25.0814059 56.4692173,25.4377645 56.6387545,25.9338334 C56.9634201,26.8888816 56.2939799,27.8895437 55.2855462,27.9636209 L49.0422381,28.4311683 L47.8815152,28.5195427 L41.7043302,28.9785365 L38.385888,29.22656 L32.3264597,29.6798466 L29.0022805,29.9278701 L27.4278279,30.0447588 C27.3847309,30.0447588 27.3473768,30.0533116 27.3014069,30.0533116 C27.1548768,30.0533116 27.0140984,30.0305046 26.8819329,29.9962941 C26.6405943,29.9307238 26.4193575,29.7995845 26.2268648,29.6228284 L26.0659699,29.4631793 L24.2128292,27.6813861 L11.7435712,15.4765336 C11.7435712,15.4765336 11.7435712,15.4679808 11.7349517,15.4679808 C11.6257712,15.3083317 11.5280869,15.1543825 11.4332711,14.9947335 C10.4851132,13.3897038 10.051304,11.5651429 10.1461124,9.76904518 C10.2639132,7.52826549 11.1833416,5.33309982 12.9330684,3.63968838 C13.1600423,3.41447189 13.3669071,3.23771573 13.5364222,3.10657359 C13.7777608,2.90986403 14.073697,2.79297537 14.3810925,2.77016836 L43.5091261,0.341239946 C43.5522231,0.341239946 43.5981901,0.332687864 43.6412915,0.332687864 C43.7878217,0.332687864 43.9286074,0.355494875 44.0607655,0.389704661 C44.3021041,0.463825622 44.5319538,0.586414218 44.7215854,0.768870304 L59.8946121,15.4595046 C60.8542441,16.3746313 60.2566274,17.9968119 58.9263746,18.0908863 L58.9258156,18.0906578 Z" id="Shape"></path>
                    <path d="M57.1392393,20.6596395 L48.9735046,21.1927543 L32.6655716,22.2589547 C32.5046768,22.2675075 32.3409061,22.2732097 32.1800112,22.2732097 C31.4818416,22.2732097 30.7837015,22.179128 30.1142319,21.9881184 C29.010953,21.6745201 27.9737237,21.112913 27.1147108,20.3374746 L18.2943639,12.4203401 L14.7489404,9.23020492 C14.5736809,9.07055584 14.5564403,8.79117178 14.7202096,8.6087157 C14.8092736,8.51463404 14.9270743,8.46332009 15.0506195,8.46332009 C15.1540482,8.46332009 15.2632287,8.50038203 15.3436798,8.57165522 L19.2281041,12.0610914 L27.7093766,19.6811874 C28.9304857,20.7759239 30.5423026,21.3888304 32.1799362,21.3888304 C32.3264664,21.3888304 32.4672447,21.3802776 32.6137749,21.3745762 L50.6913671,20.191458 L57.0754536,19.7752318 L57.1041845,19.7752318 C57.3311584,19.7752318 57.5294029,19.9491344 57.5466434,20.1829044 C57.5638825,20.4337815 57.3800042,20.6447446 57.1386583,20.658998 L57.1392393,20.6596395 Z" id="Shape"></path>
                    <path d="M56.4088687,23.1855616 L49.0766244,23.6673625 L46.1345473,23.864072 L40.5893941,24.2289842 L31.9470429,24.7991595 C31.786148,24.8077123 31.6223773,24.8134137 31.4614825,24.8134137 C30.7633129,24.8134137 30.0651727,24.719332 29.3957031,24.5283297 C28.2924242,24.2147314 27.255195,23.6531243 26.396182,22.8776859 L15.8032337,13.3527484 L14.0304852,11.7534113 C13.8466054,11.5937622 13.8322407,11.3143782 14.0017543,11.1319221 C14.0908184,11.0378404 14.2086191,10.9865265 14.3264199,10.9865265 C14.4298486,10.9865265 14.5390291,11.0235877 14.6194802,11.1034151 L16.7312295,13.0021262 L26.9851035,22.2132393 C28.2062125,23.3165147 29.8180294,23.9208823 31.4642686,23.9208823 C31.6107988,23.9208823 31.7515772,23.9123295 31.8981073,23.9066281 L43.5715334,23.1397286 L56.3680974,22.3015984 L56.3968283,22.3015984 C56.6238021,22.3015984 56.822054,22.4755009 56.8392872,22.7092709 C56.8421602,22.9572944 56.6582833,23.1711111 56.4083171,23.1853646 L56.4088687,23.1855616 Z" id="Shape"></path>
                </g>
            </g>
        </g>
    </g>
</svg>