<?xml version="1.0" encoding="UTF-8"?>
<svg width="53px" height="53px" viewBox="0 0 53 53" version="1.1" xmlns="http://www.w3.org/2000/svg" xmlns:xlink="http://www.w3.org/1999/xlink">
    <!-- Generator: Sketch 46.2 (44496) - http://www.bohemiancoding.com/sketch -->
    <title>np_loading_1339050_000000</title>
    <desc>Created with Sketch.</desc>
    <defs></defs>
    <g id="Page-1" stroke="none" stroke-width="1" fill="none" fill-rule="evenodd">
        <g id="2.1_Mobile_Withdrawl_Cashier_Withdraw-Copy" transform="translate(-89.000000, -504.000000)" fill-rule="nonzero" fill="#FFFFFF">
            <g id="np_loading_1339050_000000" transform="translate(89.000000, 504.000000)">
                <path d="M44.16596,28.70904 L53,28.70904 L53,24.291013 L44.16596,24.291013 L44.16596,28.70904 Z M37.43125,40.55348 L43.6773,46.79953 L46.799318,43.677512 L40.553268,37.431462 L37.43125,40.55348 Z M24.29096,44.166172 L24.29096,53.000212 L28.708987,53.000212 L28.708987,44.166172 L24.29096,44.166172 Z M12.44652,37.431462 L6.20047,43.677512 L9.322488,46.79953 L15.568538,40.55348 L12.44652,37.431462 Z M8.833828,24.291172 L-0.000212,24.291172 L-0.000212,28.709199 L8.833828,28.709199 L8.833828,24.291172 Z M15.568538,12.446732 L9.322488,6.200682 L6.20047,9.3227 L12.44652,15.56875 L15.568538,12.446732 Z M28.708828,8.83404 L28.708828,-1.42108547e-14 L24.290801,-1.42108547e-14 L24.290801,8.83404 L28.708828,8.83404 Z M40.553268,15.56875 L46.799318,9.3227 L43.6773,6.200682 L37.43125,12.446732 L40.553268,15.56875 Z" id="Shape"></path>
            </g>
        </g>
    </g>
</svg>