<?xml version="1.0" encoding="UTF-8"?>
<svg width="46px" height="25px" viewBox="0 0 46 25" version="1.1" xmlns="http://www.w3.org/2000/svg" xmlns:xlink="http://www.w3.org/1999/xlink">
    <!-- Generator: Sketch 45.2 (43514) - http://www.bohemiancoding.com/sketch -->
    <title>RIA</title>
    <desc>Created with Sketch.</desc>
    <defs></defs>
    <g id="Desktop" stroke="none" stroke-width="1" fill="none" fill-rule="evenodd" opacity="0.495867301">
        <g id="01_BetOnline_Desktop_HomePage" transform="translate(-986.000000, -1951.000000)" fill-rule="nonzero" fill="#000000">
            <g id="Group-5" transform="translate(219.000000, 1948.000000)">
                <g id="RIA" transform="translate(767.000000, 3.000000)">
                    <path d="M33.5902297,5.29596317 C33.4683936,5.09227228 33.3100066,4.9005632 33.1394359,4.73281776 C31.6164839,3.28301789 28.789885,3.67841786 26.8283228,5.61947223 C25.7196137,6.72179941 25.1226165,8.07574474 25.073882,9.30987191 C24.8302097,7.89601749 25.4272069,6.18261764 26.7674047,4.85263594 C28.7411505,2.91158156 31.5677494,2.50419978 33.0785178,3.96598147 C33.2490885,4.13372691 33.3952919,4.31345417 33.517128,4.50516324 C33.4683936,4.19363599 33.3952919,3.89409057 33.2978229,3.61850877 C33.1881704,3.48670878 33.0785178,3.3549088 32.9566817,3.23509062 C31.1169556,1.46178169 27.9126646,1.71339985 25.804899,3.79823603 C24.6109046,4.97245411 24.026091,6.48216307 24.0748255,7.89601749 C23.6849498,6.25450854 24.2332125,4.3374178 25.6830628,2.91158156 C27.6080742,1.00647264 30.4346731,0.635036308 32.31095,1.92907256 C31.3362607,0.802781747 29.8864104,0.0838727199 28.2659895,0.0838727199 C25.329738,0.0838727199 22.9539328,2.42032706 22.9539328,5.30794499 C22.9539328,8.19556291 25.329738,10.5320173 28.2659895,10.5320173 C31.2144246,10.5320173 33.5902297,8.1835811 33.5902297,5.29596317 C33.5902297,5.30794499 33.5902297,5.29596317 33.5902297,5.29596317 Z" id="Shape"></path>
                    <g id="Group" transform="translate(0.000000, 7.069272)">
                        <path d="M21.1994921,2.50419978 C21.0411051,1.91709074 20.7121475,1.43781806 20.2248028,1.06638172 C19.7374582,0.694945393 19.0795429,0.419363599 18.2876078,0.263599977 C17.4834892,0.095854537 16.5575343,0.0119818171 15.4975597,0.0119818171 L3.39922891,0.0119818171 L3.20429105,0.778818113 C3.20429105,0.778818113 4.23989842,1.06638172 3.93530802,2.39636343 L0.0243672323,17.3736348 L6.81064143,17.3736348 L8.33359345,11.4785808 L9.85654547,11.4785808 C10.282972,11.4785808 10.6362969,11.5265081 10.9408873,11.6223626 C11.2454777,11.7182171 11.4404156,11.9698353 11.5500681,12.3652353 C11.6109862,12.6288353 11.6353534,12.9763079 11.6231698,13.4076534 C11.5988026,13.8389988 11.5622517,14.2943078 11.48915,14.7855623 C11.4160483,15.2768168 11.3551303,15.7441077 11.2942122,16.1994168 C11.2332941,16.6547258 11.1967432,17.038144 11.1845596,17.361653 L18.8115033,17.361653 L19.0064412,16.5948167 C19.0064412,16.5948167 18.2388734,16.4390531 18.2266898,15.5643804 C18.251057,15.1210532 18.2876078,14.7735805 18.3241587,14.3182715 C18.3728932,13.7671079 18.3850768,13.2159443 18.3850768,12.6647807 C18.3850768,12.1136171 18.3119751,11.6103808 18.1779553,11.1430899 C17.9830174,10.6757991 17.6906107,10.2803991 17.3129186,9.95689003 C16.9352264,9.63338097 16.3869637,9.40572644 15.680314,9.27392646 L15.6924976,9.22599919 C17.0326954,8.92645376 18.1901389,8.42321744 19.1526446,7.69232659 C20.1151503,6.97341757 20.7730655,5.94298129 21.1142068,4.61299959 C21.3335119,3.81021785 21.3578791,3.10329064 21.1994921,2.50419978 Z M14.059893,5.67938132 C13.9380569,6.12270855 13.7674863,6.47018125 13.5481812,6.72179941 C13.3166925,6.97341757 13.0608365,7.16512664 12.7806133,7.29692663 C12.4882066,7.42872662 12.1836162,7.51259934 11.8424749,7.54854479 C11.5013336,7.58449024 11.1601924,7.59647206 10.8068675,7.59647206 L9.33264997,7.59647206 L10.2951556,3.89409057 L11.8668421,3.89409057 C12.2079834,3.89409057 12.5247574,3.9180542 12.8415314,3.95399965 C13.1461218,4.00192692 13.4141614,4.07381782 13.6212829,4.20561781 C13.8284043,4.32543598 13.9867913,4.50516324 14.0720767,4.74479958 C14.1695456,4.97245411 14.1695456,5.28398135 14.059893,5.67938132 Z" id="Shape"></path>
                        <path d="M45.7738459,9.36978099 C46.943473,4.55309051 42.5939221,3.89409057 38.8901028,3.89409057 C36.3680942,3.89409057 35.2228343,4.10976327 33.1638032,4.63696323 L32.2012975,8.35132654 C33.6389642,7.71629023 35.4055885,7.23701754 36.9529078,7.23701754 C38.5733287,7.23701754 40.3034022,7.44070844 39.9135265,9.14212647 C39.3287129,9.0941992 38.3296564,8.96239921 37.4280688,8.96239921 C34.2115942,8.96239921 30.3006534,9.77716277 29.3137805,13.827017 C28.6436816,16.5828349 30.787998,17.6971439 33.2856393,17.6971439 C35.1131817,17.6971439 36.9650914,16.9902167 38.2321875,15.4924895 L38.2809219,15.4924895 L37.7935773,17.3736348 L44.9088091,17.3736348 L45.103747,16.6307622 C45.103747,16.6307622 44.1412413,16.2952713 44.3361792,15.2169077 L45.7738459,9.36978099 Z M39.2068768,11.9937989 C38.9266536,13.1320716 37.9763315,14.3542169 36.6361338,14.3542169 C35.6370772,14.3542169 35.1984671,13.9947624 35.4299558,13.0841443 C35.7589134,11.7182171 37.3427835,11.5864172 38.6829813,11.5864172 L39.3165293,11.5864172 L39.2068768,11.9937989 Z" id="Shape"></path>
                        <path d="M27.4496872,14.9772714 C27.4496872,14.941326 27.4740544,14.9053805 27.4740544,14.8694351 L30.0691647,4.85263594 C29.2772296,5.47569043 28.2781731,5.85910857 27.1938312,5.87109039 C25.8536335,5.88307221 24.6474555,5.33190862 23.806786,4.44525415 L20.4562915,17.3736348 L27.9735827,17.3736348 L28.1807042,16.5948167 C28.1807042,16.5948167 27.2181985,16.4510349 27.4496872,14.9772714 Z" id="Shape"></path>
                    </g>
                </g>
            </g>
        </g>
    </g>
</svg>