<svg xmlns="http://www.w3.org/2000/svg" width="159.536" height="153.667" viewBox="0 0 159.536 153.667">
  <title>StatusCoin_Icon_Black</title>
  <path d="M129.123,0H30.413A30.5,30.5,0,0,0,0,30.413v92.84a30.5,30.5,0,0,0,30.413,30.413h98.71a30.5,30.5,0,0,0,30.413-30.413V30.413A30.5,30.5,0,0,0,129.123,0ZM57.275,124.854c-14.657,0-24.7-7.177-24.7-22.036S44.63,80.781,62.217,80.781c12.981,0,19.127,2.5,32.11,2.505a52.776,52.776,0,0,0,9.6-.826C101.323,106.587,81.217,124.854,57.275,124.854Zm38-50.368c-12.982,0-19.127-2.505-32.11-2.505a52.775,52.775,0,0,0-9.6.826c2.609-24.127,22.716-42.4,46.655-42.394,14.657,0,24.7,7.177,24.7,22.037S112.863,74.486,95.275,74.486Z" fill="#ffffff"/>
</svg>
