<?xml version="1.0" encoding="UTF-8"?>
<svg width="54px" height="54px" viewBox="0 0 54 54" version="1.1" xmlns="http://www.w3.org/2000/svg" xmlns:xlink="http://www.w3.org/1999/xlink">
    <!-- Generator: Sketch 45.2 (43514) - http://www.bohemiancoding.com/sketch -->
    <title>np_bitcoin_1098802_FFFFFF</title>
    <desc>Created with Sketch.</desc>
    <defs></defs>
    <g id="Mobile" stroke="none" stroke-width="1" fill="none" fill-rule="evenodd">
        <g id="1.8.3_Deposit-Options-(bonus-options-with-expand-/-collapse-OPTION-1)" transform="translate(-40.000000, -208.000000)" fill-rule="nonzero" fill="#EE3536">
            <g id="np_bitcoin_1098802_FFFFFF" transform="translate(40.000000, 208.000000)">
                <path d="M36.2404828,1.6272222 C22.2657085,-3.45158322 6.70312087,3.75157872 1.62341505,17.7608643 C-3.45614669,31.770294 3.78468543,47.2938283 17.7594597,52.3727778 C31.734234,57.4515832 47.2968216,50.2484213 52.3765275,36.2391357 C57.4562333,22.2298501 50.2152571,6.70617169 36.2404828,1.6272222 Z M34.1681554,38.4933335 C33.3126571,39.1061032 32.3121979,39.499601 31.2783519,39.6794972 C30.244506,39.8959339 29.1744198,39.8959339 28.0318531,39.7525782 C27.2459818,39.645763 26.4267238,39.499601 25.6074658,39.2494301 L24.0023365,43.7468354 L21.4329882,42.8107995 L23.0381175,38.3133941 L20.4353825,37.3408032 L18.8302532,41.8382086 L16.2609049,40.9021726 L17.8660342,36.4047672 L12.3037975,34.3556055 L13.2680165,31.6571622 L14.0872745,31.873599 C14.3715179,31.9804142 14.7644393,32.0534952 15.2994681,32.1968509 C15.9766329,32.3767471 16.2274469,32.3402066 16.2970738,32.3767471 C16.5813172,32.3767471 16.6899952,32.3036661 16.6899952,32.3036661 C16.7624472,32.230585 16.8321169,32.1237699 16.9045689,31.9073331 L22.2549999,17.049345 C22.3274518,16.8329083 22.3274518,16.6895526 22.3274518,16.5461969 C22.3274518,16.5096557 22.2549999,16.4028412 22.0766522,16.222945 C21.8258525,15.9699677 21.5053831,15.7900715 21.2211539,15.5764412 C20.8282325,15.3600044 20.5077631,15.2166488 20.2931752,15.0732931 L19.5073039,14.7135006 L20.4715229,12.0150574 L25.8944344,13.9939158 L27.4995637,9.56962025 L30.068912,10.5056562 L28.5334809,15.0002552 L31.1362159,15.9728461 L32.7413452,11.4754407 L35.3106935,12.4114767 L33.669324,16.945437 C34.2043671,17.1618737 34.7031699,17.4485851 35.1685861,17.7015767 C35.9878441,18.2047249 36.7012349,18.780954 37.381239,19.463984 C38.0221778,20.1470283 38.4875654,20.9397086 38.7717803,21.8391897 C39.0560238,22.7752256 39.02258,23.7814931 38.6658846,24.7906389 C38.3454152,25.6535651 37.8800133,26.3731499 37.239103,26.9493935 C36.6316079,27.4890821 35.8848019,27.8854294 35.0626904,28.1355571 C34.5638732,28.2789128 33.9926042,28.3885344 33.3850805,28.4588091 C33.9925756,28.9619572 34.5276473,29.4650765 34.9902098,30.0413201 C35.6311487,30.7974598 36.0965363,31.660386 36.3807512,32.6666535 C36.6649946,33.6729209 36.5953249,34.7888531 36.2024035,35.9047853 C35.7398124,36.9476077 35.096077,37.8470887 34.1680983,38.4936357 L34.1681554,38.4933335 Z" id="Shape"></path>
                <path d="M29.853548,32.9767103 C29.1134507,34.9899605 26.895976,36.0489714 24.8875428,35.307099 L21.1898734,33.9668148 L23.8310658,26.6582278 L27.5287353,27.998512 C29.5371684,28.7403844 30.557866,30.9631776 29.853548,32.9764278 L29.853548,32.9767103 Z" id="Shape"></path>
                <path d="M31.9355852,22.4476251 C31.3237506,24.1613675 29.4208815,25.0210968 27.6976629,24.4125982 L24.6075949,23.3044963 L26.8696787,17.0886076 L29.9597466,18.1967095 C31.646538,18.8386769 32.5446465,20.7673945 31.9355852,22.4476251 Z" id="Shape"></path>
            </g>
        </g>
    </g>
</svg>