<?xml version="1.0" encoding="UTF-8"?>
<svg width="79" height="75" viewBox="0 0 79 75" xmlns="http://www.w3.org/2000/svg"><path d="M59.73 24.407C55.233 16.831 47.018 12.2 37.626 12.2c-14.218 0-25.304 10.962-25.304 25.3 0 14.338 11.086 26.403 25.304 26.403 9.392 0 17.607-5.514 22.104-13.09h12.887C67.291 64.952 53.513 75 37.626 75 17.089 75 0 58.21 0 37.5S17.089 0 37.626 0C53.513 0 67.29 10.27 72.617 24.407H59.73zM79 33.088l-12.983 9.265h-16.29c-1.896 4.904-6.645 8.382-12.208 8.382-7.23 0-13.093-5.876-13.093-13.125 0-7.248 5.862-13.125 13.093-13.125 5.646 0 10.457 3.583 12.296 8.603H79z" fill="red" fill-rule="evenodd"/></svg>