<?xml version="1.0" encoding="UTF-8"?>
<svg width="54px" height="54px" viewBox="0 0 54 54" version="1.1" xmlns="http://www.w3.org/2000/svg" xmlns:xlink="http://www.w3.org/1999/xlink">
    <!-- Generator: Sketch 45.2 (43514) - http://www.bohemiancoding.com/sketch -->
    <title>np_baseball_129321_000000</title>
    <desc>Created with Sketch.</desc>
    <defs></defs>
    <g id="Desktop" stroke="none" stroke-width="1" fill="none" fill-rule="evenodd">
        <g id="01_BetOnline_Desktop_HomePage" transform="translate(-359.000000, -873.000000)" fill-rule="nonzero" fill="#EE3536">
            <g id="np_baseball_129321_000000" transform="translate(359.000000, 873.000000)">
                <path d="M45.1507615,7.15737205 C44.2810567,8.142593 43.144557,9.56901224 42.0185979,11.3819371 L44.8566473,12.7831342 L43.9995266,14.522544 L41.0459073,13.0646644 C40.5480373,13.9890081 40.0711731,14.9889106 39.6405154,16.0602846 L42.2979231,16.9383789 L41.6908183,18.7786232 L38.9808691,17.8815989 C38.623748,18.984487 38.3380555,20.0873752 38.1237484,21.1965554 L41.0857571,21.7196368 L40.7475391,23.6292015 L37.8233367,23.1145257 C37.7161993,24.0136474 37.6573818,24.9148664 37.6447761,25.818129 L40.9113859,25.7277974 L40.9660033,27.6667789 L37.688853,27.7571105 C37.7434703,28.6562322 37.8422075,29.5574512 37.9892539,30.4586165 L40.5857306,29.6792594 L41.1445423,31.5362826 L38.3694675,32.3702786 C38.5690339,33.2252481 38.8064173,34.0802715 39.0878936,34.9352411 L41.9889713,33.6454191 L42.7767179,35.416343 L39.7495835,36.7629012 C40.1550245,37.783831 40.6213857,38.806912 41.1444885,39.8320366 L43.4300721,37.953986 L44.6611142,39.4539204 L42.0835138,41.5714463 C43.0183444,43.1994809 44.1023025,44.8275693 45.3312473,46.4556039 C50.5263518,41.5525163 53.7782263,34.6033743 53.7782263,26.8893955 C53.7782263,19.0915223 50.4548803,12.0685963 45.1505518,7.15754952 L45.1507615,7.15737205 Z" id="Shape"></path>
                <path d="M40.5752922,42.8044084 L38.1174563,44.8231971 L36.8864142,43.3253601 L39.623629,41.0754854 C39.0018427,39.8738601 38.4640584,38.693262 38.0060812,37.5357888 L34.9579194,38.8928338 L34.1701729,37.1219099 L37.3464349,35.7081286 C37.0313255,34.7586166 36.7645522,33.8258834 36.5481478,32.9141775 L33.0315221,33.9708162 L32.4748077,32.1137931 L36.159491,31.0067102 C35.9725249,29.9101141 35.8527872,28.8429886 35.791867,27.8094208 L32.5315493,27.8997525 L32.476932,25.9628683 L35.7414444,25.8725367 C35.7498467,24.8011627 35.8170676,23.7718434 35.9326106,22.782374 L32.5336521,22.1815613 L32.87187,20.2719966 L36.2246329,20.8623225 C36.4641136,19.5787925 36.7791961,18.3813619 37.138436,17.2763764 L33.7730891,16.1630014 L34.3822912,14.3227571 L37.795985,15.4508673 C38.2581461,14.2870482 38.7686218,13.20309 39.3001141,12.2031338 L36.6847074,10.9112144 L37.5418281,9.17180471 L40.2643614,10.5141682 C41.4806683,8.52479634 42.7200999,6.96602837 43.6759578,5.88416758 C39.0711793,2.20583011 33.2397145,0.00026889218 26.889019,0.00026889218 C20.5447769,0.00026889218 14.7173456,2.20185051 10.1187515,5.87825195 C11.1018751,6.98743219 12.3854051,8.60288263 13.6353773,10.6763102 L16.683539,9.17218116 L17.5406597,10.9115909 L14.5891378,12.3673732 C15.1101164,13.3567888 15.6079703,14.4260655 16.0554607,15.5730519 L19.8409785,14.3210362 L20.4501807,16.1633778 L16.7046202,17.4007121 C17.053341,18.4930597 17.3579206,19.6716141 17.5911039,20.9341167 L21.3493023,20.2702757 L21.6875203,22.1798404 L17.8768341,22.8520708 C17.9860689,23.8163182 18.0532919,24.8162206 18.0616975,25.8581778 L21.7442834,25.9611151 L21.6896661,27.8979993 L18.0113286,27.795062 C17.9504084,28.7950182 17.8390709,29.8243375 17.6626077,30.8831273 L21.7464346,32.109921 L21.1897202,33.9669442 L17.2802968,32.7926383 C17.0723248,33.6917599 16.8160383,34.6076605 16.5114265,35.542491 L20.0532205,37.1180379 L19.265474,38.8889618 L15.8602234,37.3743459 C15.4190735,38.5045535 14.9044193,39.6578321 14.3057039,40.8300406 L17.3391304,43.321488 L16.1080882,44.819325 L13.3645275,42.5652557 C12.4002802,44.2542212 11.2659316,45.9831442 9.93405488,47.7456248 C14.5556661,51.5185048 20.4563437,53.7790276 26.8887824,53.7790276 C33.3276746,53.7790276 39.234698,51.5144714 43.8644835,47.7413226 C42.5956351,46.0607464 41.5074822,44.4158792 40.574749,42.8046235 L40.5752922,42.8044084 Z" id="Shape"></path>
                <path d="M8.46795254,46.4699466 C9.75777455,44.7578563 10.8879822,43.045766 11.8543269,41.3336757 L9.56454862,39.4535278 L10.7955908,37.9535934 L12.7870601,39.5900712 C13.2870328,38.5922124 13.7302801,37.598602 14.1189368,36.6028405 L11.448945,35.413853 L12.2366916,33.6429291 L14.7722373,34.7710394 C15.0432322,33.928654 15.27221,33.0883659 15.4633977,32.2480778 L13.079077,31.5317491 L13.6357913,29.6747259 L15.8310271,30.3343722 C15.9654732,29.4667647 16.0600049,28.6033519 16.1125249,27.7399929 L13.2534482,27.6601642 L13.3080656,25.7211826 L16.1545582,25.8010114 C16.1419541,24.9271118 16.0873351,24.0532122 15.9865006,23.18141 L13.4719285,23.6246626 L13.1337105,21.7150979 L15.6923809,21.2634451 C15.484409,20.1731948 15.2050138,19.0870855 14.8583849,18.0031274 L12.5287031,18.774095 L11.919501,16.9317534 L14.2071819,16.175521 C13.7891406,15.1209797 13.3248928,14.1357049 12.8416936,13.2198044 L10.2178975,14.5138211 L9.36077675,12.7744114 L11.8816409,11.530785 C10.7199192,9.63176091 9.53512644,8.14650807 8.64025327,7.13396767 C3.32963271,12.0559315 0.0002097359,19.0829984 0.0002097359,26.8889384 C0.0002097359,34.6088329 3.25843006,41.5645358 8.46816227,46.4696669 L8.46795254,46.4699466 Z" id="Shape"></path>
            </g>
        </g>
    </g>
</svg>