<?xml version="1.0" encoding="UTF-8"?>
<svg width="368px" height="222px" viewBox="0 0 368 222" version="1.1" xmlns="http://www.w3.org/2000/svg" xmlns:xlink="http://www.w3.org/1999/xlink">
    <!-- Generator: Sketch 45.2 (43514) - http://www.bohemiancoding.com/sketch -->
    <title>Boleto</title>
    <desc>Created with Sketch.</desc>
    <defs></defs>
    <g id="Page-1" stroke="none" stroke-width="1" fill="none" fill-rule="evenodd">
        <g id="Boleto" transform="translate(0.000000, -1.000000)" fill-rule="nonzero" fill="#FFFFFF">
            <path d="M291.9,1.2 C301.8,1.2 311.6,1.2 321.6,1.2 C321.6,74.1 321.6,37.5 321.6,110.4 C311.7,110.4 301.9,110.4 291.9,110.4 C291.9,37.6 291.9,74.2 291.9,1.2 Z" id="Shape"></path>
            <path d="M121.5,1.2 C131.4,1.2 141.2,1.2 151.2,1.2 C151.2,74.1 151.2,37.5 151.2,110.4 C141.3,110.4 131.5,110.4 121.5,110.4 C121.5,37.5 121.5,74.1 121.5,1.2 Z" id="Shape"></path>
            <path d="M346.7,1.2 C353.7,1.2 360.7,1.2 367.7,1.2 C367.7,74.1 367.7,37.5 367.7,110.4 C360.7,110.4 353.7,110.4 346.7,110.4 C346.7,37.5 346.7,74.1 346.7,1.2 Z" id="Shape"></path>
            <path d="M0.1,1.2 C7.1,1.2 14,1.2 21,1.2 C21,74.1 21,37.4 21,110.4 C14.1,110.4 7.1,110.4 0.1,110.4 C0.1,37.5 0.1,74.2 0.1,1.2 Z" id="Shape"></path>
            <path d="M179.8,1.2 C186.8,1.2 193.7,1.2 200.8,1.2 C200.8,74.1 200.8,37.4 200.8,110.4 C193.9,110.4 186.9,110.4 179.8,110.4 C179.8,37.5 179.8,74.2 179.8,1.2 Z" id="Shape"></path>
            <path d="M71.2,110.5 C64.2,110.5 57.3,110.5 50.3,110.5 C50.3,37.6 50.3,74.2 50.3,1.2 C57.3,1.2 64.2,1.2 71.2,1.2 C71.2,74.1 71.2,37.4 71.2,110.5 Z" id="Shape"></path>
            <path d="M3.9,221.2 C3.9,197.1 3.9,173.3 3.9,149.3 C4.4,149.3 4.9,149.2 5.3,149.2 C18.1,149.2 31,149.2 43.8,149.3 C48.9,149.3 53.9,150.1 58.6,151.9 C61.8,153.1 64.6,154.9 66.9,157.4 C73.5,164.5 72.5,173.8 64.5,179.4 C62.6,180.7 60.5,181.7 58.4,182.9 C60.1,183.4 61.7,183.9 63.3,184.5 C68.5,186.5 72.9,189.6 74.8,194.9 C77.1,201.3 75.4,207 71.1,212.1 C67,216.9 61.3,218.9 55.3,219.9 C50.6,220.6 45.9,221 41.1,221.1 C29.1,221.3 17.1,221.2 5.1,221.2 C4.8,221.2 4.4,221.2 3.9,221.2 Z M16.5,212.7 C17,212.7 17.4,212.7 17.7,212.7 C25.7,212.7 33.8,212.7 41.8,212.7 C44.6,212.7 47.4,212.5 50.1,212.1 C53.3,211.7 56.3,210.8 58.8,208.7 C65.8,202.8 63.5,192.8 54.6,189.8 C50.6,188.4 46.5,188.1 42.4,188 C34.3,187.9 26.1,188 18,187.9 C17.5,187.9 17,187.9 16.5,188 C16.5,196.3 16.5,204.4 16.5,212.7 Z M16.5,179.5 C18.7,179.5 20.9,179.5 23,179.5 C30.9,179.4 38.9,179.3 46.8,179 C50.4,178.8 53.9,177.7 56.5,175.1 C61.4,170.1 58.9,161.7 51.9,159.2 C48.1,157.9 44.1,157.8 40.1,157.7 C32.8,157.6 25.4,157.7 18.1,157.6 C17.6,157.6 17.1,157.6 16.6,157.7 C16.5,165 16.5,172.1 16.5,179.5 Z" id="Shape"></path>
            <path d="M268.7,1.1 C268.7,74.2 268.7,37.5 268.7,110.4 C265.5,110.4 262.4,110.4 259.1,110.4 C259.1,109.8 259.1,109.2 259.1,108.6 C259.1,36.9 259.1,74.7 259.1,2.9 C259.1,1.5 259.4,0.9 260.9,1 C263.4,1.2 265.9,1.1 268.7,1.1 Z" id="Shape"></path>
            <path d="M222,1.2 C225.1,1.2 228.2,1.2 231.4,1.2 C231.4,74.1 231.4,37.5 231.4,110.4 C228.3,110.4 225.2,110.4 222,110.4 C222,37.6 222,74.2 222,1.2 Z" id="Shape"></path>
            <path d="M87.6,1.2 C90.8,1.2 93.9,1.2 97.1,1.2 C97.1,74.1 97.1,37.5 97.1,110.4 C94,110.4 90.8,110.4 87.6,110.4 C87.6,37.5 87.6,74.1 87.6,1.2 Z" id="Shape"></path>
            <path d="M255.4,197.4 C238.2,197.4 221.2,197.4 204.1,197.4 C204.4,205.4 209,211.5 216.9,213.9 C221.9,215.5 227,215.6 232.1,214.1 C236.9,212.8 240.4,209.7 242.6,205.5 C243,204.7 243.5,204.4 244.5,204.5 C248,204.9 251.5,205.2 255.3,205.5 C254.3,208.5 252.8,211 250.7,213.2 C246.1,218.1 240.2,220.6 233.5,221.6 C226.4,222.7 219.4,222.6 212.5,220.8 C202.5,218.1 195.1,212.6 192.8,202.3 C191,194.3 191.7,186.4 196.8,179.5 C201,173.7 207.1,170.4 214.2,168.9 C222.5,167.1 230.8,167.2 238.8,170.3 C251.7,175.3 256.5,185.7 255.4,197.4 Z M243.2,190 C242.7,185.3 240.9,181.4 236.9,178.6 C229.8,173.8 218.4,173.8 211.3,178.7 C207.3,181.5 205,185.2 204.6,190 C217.5,190 230.3,190 243.2,190 Z" id="Shape"></path>
            <path d="M119.5,167.9 C126.7,167.9 133,169 138.8,172 C148.1,176.9 152.4,184.5 152.4,194.5 C152.4,199.6 151.7,204.7 149,209.2 C145.4,215 139.8,218.4 133.3,220.3 C122.8,223.4 112.3,223.2 102.3,218.7 C93.5,214.7 88.7,207.9 87.8,198.5 C87.4,193.9 87.6,189.4 89.2,185 C92,177.1 98.1,172.6 106,169.9 C110.5,168.4 115.3,167.8 119.5,167.9 Z M140.5,194.9 C140.4,194.9 140.3,194.9 140.2,194.9 C140.2,194.2 140.2,193.4 140.2,192.7 C139.9,185 135.3,178.8 127.8,176.4 C122.1,174.5 116.4,174.6 110.8,176.8 C105.4,178.9 101.8,182.6 100.4,188.1 C99.2,192.7 99.2,197.2 100.3,201.8 C101.1,205.2 102.9,208.2 105.8,210.5 C111.6,215.1 118.3,216 125.4,214.5 C132.7,213 137.6,208.9 139.5,201.8 C140,199.6 140.2,197.2 140.5,194.9 Z" id="Shape"></path>
            <path d="M302.9,195.1 C302.8,187.6 304.8,180.9 310.8,175.7 C315.4,171.8 320.8,169.6 326.8,168.6 C333.7,167.4 340.6,167.5 347.3,169.4 C356.9,172.2 364.3,177.5 366.7,187.3 C368.5,194.7 368.1,202.2 364.2,209.1 C361.2,214.5 356.2,217.7 350.3,219.7 C339.4,223.5 328.5,223.5 317.9,218.9 C308.2,214.7 303.3,207.2 302.9,197 C302.8,196.4 302.9,195.7 302.9,195.1 Z M355.8,195 C355.7,195 355.7,195 355.6,195 C355.5,193.8 355.5,192.7 355.3,191.5 C354.5,184.5 350.8,179.4 344,176.8 C337.9,174.4 331.6,174.6 325.6,177.1 C320.5,179.2 317.1,182.9 315.7,188.2 C314.5,192.8 314.5,197.5 315.7,202.2 C316.9,206.9 319.8,210.5 324.3,212.7 C330.8,215.9 337.5,216.1 344.2,213.6 C349.4,211.6 353,208 354.5,202.7 C355.1,200.1 355.4,197.5 355.8,195 Z" id="Shape"></path>
            <path d="M283.8,150.8 C283.8,157 283.8,163 283.8,169 C287.7,169 291.6,169 295.5,169 C295.5,171.3 295.5,173.5 295.5,175.8 C291.7,175.8 287.9,175.8 283.9,175.8 C283.9,176.5 283.8,177 283.8,177.5 C283.8,187 283.8,196.5 283.8,206 C283.8,206.9 283.9,207.8 283.9,208.8 C284,212.3 286.1,213.4 289.5,213.6 C291.5,213.7 293.4,213.6 295.7,213.6 C296.2,215.8 296.7,218.4 297.3,221 C291.2,221.9 285.4,222.4 279.6,220.6 C275.2,219.3 272.6,216.4 272.5,211.8 C272.4,200.8 272.3,189.9 272.2,178.9 C272.2,177.9 272.2,177 272.2,175.8 C269.3,175.8 266.5,175.8 263.6,175.8 C263.6,173.4 263.6,171.3 263.6,169 C266.4,169 269.2,169 272.2,169 C272.2,167.7 272.2,166.5 272.2,165.3 C272.2,162.5 272.2,159.8 272.2,157 C272.2,156.6 272.4,156 272.7,155.8 C276.3,154.2 279.9,152.6 283.8,150.8 Z" id="Shape"></path>
            <path d="M177.5,221.1 C173.6,221.1 169.8,221.1 166,221.1 C166,197.1 166,173.2 166,149.3 C169.9,149.3 173.6,149.3 177.5,149.3 C177.5,173.2 177.5,197.1 177.5,221.1 Z" id="Shape"></path>
        </g>
    </g>
</svg>