<?xml version="1.0" encoding="UTF-8"?>
<svg width="26" height="28" viewBox="0 0 26 28" xmlns="http://www.w3.org/2000/svg"><g fill="none" fill-rule="evenodd"><path d="M11.013 2.745C8.265 4.847 5.287 6.508 2.027 7.803c.106 9.283 2.414 13.04 8.207 16.91.206.138.415.277.779.517.365-.241.574-.38.78-.518 5.791-3.87 8.1-7.628 8.205-16.909-3.26-1.295-6.238-2.956-8.985-5.058zm10.99 4.375c0 10.486-2.637 14.937-9.098 19.255a214.644 214.644 0 0 1-1.338.886l-.554.37-.555-.37-.356-.236c-.486-.32-.735-.485-.979-.648-6.463-4.319-9.1-8.77-9.1-19.257v-.691l.646-.245c3.577-1.353 6.789-3.146 9.72-5.49l.624-.499.624.5c2.93 2.343 6.142 4.136 9.72 5.49l.645.244v.69z" fill-rule="nonzero" fill="#000"/><path d="M7.04 10.57l-1.862 1.97L10.646 19 24 4.333l-1.766-2.04-11.526 12.59z" fill-rule="nonzero" fill="#000"/><path stroke="#FFF" stroke-width=".9" d="M10.72 14.203L22.244 1.616l2.359 2.725-13.969 15.341-6.058-7.16 2.482-2.626z"/></g></svg>