<svg id="Layer_3" data-name="Layer 3" xmlns="http://www.w3.org/2000/svg" xmlns:xlink="http://www.w3.org/1999/xlink" viewBox="0 0 248.29 168.16"><defs><style>.cls-1{fill:none;}.cls-2{fill:#2d2e2c;}.cls-3{clip-path:url(#clip-path);}</style><clipPath id="clip-path" transform="translate(-46.33 -141.49)"><path class="cls-1" d="M137.66,190.76c1.76,0,16.57,0,18.34.06,4.09.06,5.26,4.92,5.2,10.8-.07,5.39-.08,6.95,0,10.14l2,.94c18.61,7.05,30.87,25,32,47.88,1,19.91-10,39.19-26.85,48.12l148.76-2.64V202.13L257.84,141.6l-37-10.15-38.32,18.06Z"/></clipPath></defs><path class="cls-2" d="M80.93,256h25.32a28.91,28.91,0,0,0,3.61-.13c3.06-.36,4.85-2.06,4.91-5.21a5.1,5.1,0,0,0-5.27-5.27c-5.9-.14-11.81,0-17.72-.09-4,0-6.33-2-6.36-5.3s2.2-5.24,6.29-5.44a8.33,8.33,0,0,1,1.8,0c4.13.65,6.75-1.13,9.41-4.36a45.23,45.23,0,0,1,30-16.5c2.77-.37,2.89-1.89,2.89-4s-.7-3.5-3.14-3.31c-.84.07-1.69,0-2.53,0-4.56-.08-5.88-1.28-5.88-5.36s1.3-5.39,5.8-5.41c6.51,0,13,0,19.53,0,4.1,0,5.27,1.38,5.2,5.58-.06,3.85-1.29,5.06-5.29,5.17a25.33,25.33,0,0,1-2.89,0c-2.21-.18-3.44.57-3.41,3,0,2.17,0,3.85,3,4.29,23.91,3.58,40.28,22,41.56,46.54,1.14,21.79-14.53,42.77-36.86,47.95-19.43,4.5-35.94-1.4-48.84-16.69-1.9-2.25-3.7-3.31-6.66-3.22-7,.21-14,.1-21,.06-4.33,0-6.69-1.95-6.7-5.34s2.27-5.38,6.64-5.44c6-.09,12.06,0,18.09-.07,4.38-.05,6.76-2,6.73-5.33s-2.53-5.27-6.83-5.28q-19,0-38,0a25.34,25.34,0,0,1-2.89,0c-3-.35-4.93-2-5.09-5.1a4.82,4.82,0,0,1,4.59-5.48,75.71,75.71,0,0,1,8.66-.23C66.71,256,73.82,256,80.93,256Zm33.62,33.71c.78-.43,1.43-.73,2-1.12Q137.33,274.81,158,261c.92-.62,1.32-2,2-3a33.52,33.52,0,0,0-3.12-1.28c-.55-.18-1.22.07-1.79-.06-1.44-.35-2.85-.8-4.27-1.21.6-1.32,1-2.86,1.86-3.94,4-4.79,8.29-9.39,12.3-14.2.66-.8.53-2.26.77-3.42-1.07.08-2.4-.24-3.18.28q-21.13,13.86-42.12,28c-.74.49-1,1.71-1.48,2.6A19.08,19.08,0,0,0,121.7,266c.66.21,1.47-.08,2.15.09,1.54.4,3,.95,4.56,1.44-.72,1.31-1.43,2.63-2.16,3.93a3.44,3.44,0,0,1-.47.54c-4,4.53-8,9-11.88,13.62a5,5,0,0,0-.91,2.84C113,288.84,114,289.27,114.55,289.7Zm27.27,10c13.4-.79,25.39-7.78,32.28-22.1,5.78-12,5-24.09-1.64-35.65-.72-1.25-2.58-1.85-3.91-2.74.17,1.5.29,3,.55,4.5a6.73,6.73,0,0,0,.83,1.59c4.11,8.07,5.31,16.53,2.7,25.23-6.46,21.49-29.09,31.15-49.24,21.26-1.25-.61-3-.27-4.47-.37,1,1.28,1.64,3,2.91,3.74C127.28,298.22,133.2,299.72,141.82,299.73Z" transform="translate(-46.33 -141.49)"/><path d="M73.51,245.28c-3.74,0-6.26-2.15-6.26-5.41,0-3,2.6-5.29,6-5.34,3.66,0,6.24,2.24,6.19,5.49S77.09,245.25,73.51,245.28Z" transform="translate(-46.33 -141.49)"/><g class="cls-3"><path class="cls-2" d="M211.6,171.72v9c2.73-.18,5.61-1.45,5.61-4.47s-3.15-4-5.61-4.55Zm0,0" transform="translate(-46.33 -141.49)"/><path class="cls-2" d="M203.75,160.9c0,2.29,1.69,3.6,5.12,4.29V157c-3.12.1-5.12,1.92-5.12,3.88Zm0,0" transform="translate(-46.33 -141.49)"/><path class="cls-2" d="M210.14,141.49a27.6,27.6,0,1,0,27.6,27.59,27.63,27.63,0,0,0-27.6-27.59Zm1.46,43.91v2.83a1.38,1.38,0,1,1-2.73,0V185.4c-7.71-.18-11.55-4.79-11.55-8.39a2.64,2.64,0,0,1,2.83-2.88c5.1,0,1.13,6.3,8.72,6.62v-9.53C202.1,170,198,167,198,162c0-6.2,5.15-9.4,10.86-9.58v-2.43a1.38,1.38,0,1,1,2.73,0v2.43c3.56.1,10.86,2.32,10.86,6.8a2.74,2.74,0,0,1-2.88,2.82c-3,0-2.93-4.87-8-5v8.67c6,1.28,11.36,3.05,11.36,10.09,0,6.11-4.57,9.22-11.36,9.62Zm0,0" transform="translate(-46.33 -141.49)"/><path class="cls-2" d="M286.17,279.9h-9.58l0-54.58h9.58V214.39l-152.86.07v10.93h9.59l0,54.59h-9.59V290.3h-8.44v12.12l169.72-.08V290.22h-8.44Zm-85.52,0,0-54.58h18.19l0,54.58Zm56.15,0H238.63l0-54.58h18.17Zm-94.13-54.54h18.18l0,54.59H162.69Z" transform="translate(-46.33 -141.49)"/><path class="cls-2" d="M245.3,175.37a36.36,36.36,0,0,1-71.61-.12l-.42-1.62-48.43,32.56v5.11l169.72-.08V206.1L246,173.51Z" transform="translate(-46.33 -141.49)"/></g></svg>