<?xml version="1.0" encoding="UTF-8"?>
<svg width="560px" height="228px" viewBox="0 0 560 228" version="1.1" xmlns="http://www.w3.org/2000/svg" xmlns:xlink="http://www.w3.org/1999/xlink">
    <!-- Generator: Sketch 46.2 (44496) - http://www.bohemiancoding.com/sketch -->
    <title>AstroPayDirect</title>
    <desc>Created with Sketch.</desc>
    <defs></defs>
    <g id="Page-1" stroke="none" stroke-width="1" fill="none" fill-rule="evenodd">
        <g id="AstroPayDirect" transform="translate(-1.000000, 0.000000)" fill-rule="nonzero" fill="#FFFFFF">
            <g id="Layer_2" transform="translate(1.000000, 0.000000)">
                <g id="Group">
                    <g transform="translate(0.000000, 23.000000)" id="Shape">
                        <path d="M25.6,72.5 L14.8,105.2 L0.9,105.2 L36.3,1.2 L52.5,1.2 L88,105.3 L73.7,105.3 L62.5,72.5 L25.6,72.5 Z M59.7,62 L49.5,32 C47.2,25.2 45.6,19 44.1,13 L43.8,13 C42.3,19.2 40.6,25.5 38.5,31.8 L28.4,62 L59.7,62 Z"></path>
                        <path d="M100.1,91.4 C104.1,94 111.2,96.8 118,96.8 C127.9,96.8 132.5,91.9 132.5,85.7 C132.5,79.2 128.6,75.7 118.6,72 C105.2,67.2 98.8,59.8 98.8,50.8 C98.8,38.8 108.5,28.9 124.6,28.9 C132.2,28.9 138.8,31.1 143,33.5 L139.6,43.4 C136.7,41.5 131.3,39.1 124.3,39.1 C116.3,39.1 111.8,43.7 111.8,49.3 C111.8,55.5 116.3,58.3 126,62 C139,66.9 145.6,73.4 145.6,84.6 C145.6,97.7 135.4,107 117.6,107 C109.4,107 101.8,105 96.6,101.9 L100.1,91.4 Z"></path>
                        <path d="M179.5,9 L179.5,30.5 L199,30.5 L199,40.8 L179.5,40.8 L179.5,81.1 C179.5,90.4 182.1,95.6 189.7,95.6 C193.3,95.6 195.9,95.1 197.6,94.7 L198.2,104.9 C195.6,106 191.4,106.8 186.2,106.8 C179.9,106.8 174.8,104.8 171.5,101.1 C167.6,97.1 166.2,90.4 166.2,81.6 L166.2,40.9 L154.6,40.9 L154.6,30.5 L166.2,30.5 L166.2,12.6 L179.5,9 Z"></path>
                        <path d="M214.2,53.8 C214.2,45 214,37.4 213.6,30.5 L225.5,30.5 L226,45.2 L226.6,45.2 C230,35.2 238.2,28.8 247.3,28.8 C248.8,28.8 249.9,29 251.2,29.3 L251.2,42.1 C249.8,41.8 248.4,41.6 246.6,41.6 C237,41.6 230.2,48.9 228.4,59.1 C228.1,61 227.8,63.1 227.8,65.4 L227.8,105.3 L214.4,105.3 L214.4,53.8 L214.2,53.8 Z"></path>
                        <path d="M330.8,67.3 C330.8,94.9 311.6,107 293.6,107 C273.4,107 257.8,92.2 257.8,68.5 C257.8,43.5 274.2,28.8 294.9,28.8 C316.3,28.8 330.8,44.4 330.8,67.3 Z M271.5,68.1 C271.5,84.5 280.9,96.8 294.2,96.8 C307.2,96.8 316.9,84.6 316.9,67.8 C316.9,55.1 310.6,39.1 294.5,39.1 C278.5,39 271.5,53.8 271.5,68.1 Z"></path>
                        <path d="M348.4,2.4 C354.9,1.3 363.4,0.4 374.2,0.4 C387.5,0.4 397.2,3.5 403.4,9.1 C409.1,14 412.5,21.6 412.5,30.9 C412.5,40.3 409.7,47.7 404.5,53.1 C397.4,60.7 385.8,64.5 372.7,64.5 C368.7,64.5 365,64.3 361.9,63.6 L361.9,105.3 L348.5,105.3 L348.5,2.4 L348.4,2.4 Z M361.9,52.6 C364.8,53.4 368.5,53.7 373,53.7 C389.2,53.7 399.1,45.8 399.1,31.5 C399.1,17.8 389.4,11.1 374.5,11.1 C368.6,11.1 364.2,11.6 361.8,12.2 L361.8,52.6 L361.9,52.6 Z"></path>
                        <path d="M467.5,105.3 L466.4,95.9 L466,95.9 C461.8,101.8 453.8,107 443.1,107 C428,107 420.2,96.3 420.2,85.5 C420.2,67.4 436.3,57.5 465.1,57.7 L465.1,56.2 C465.1,50 463.4,38.9 448.1,38.9 C441.1,38.9 433.9,41.1 428.6,44.5 L425.5,35.5 C431.7,31.5 440.6,28.9 450.1,28.9 C473,28.9 478.5,44.5 478.5,59.5 L478.5,87.5 C478.5,94 478.8,100.3 479.7,105.4 L467.5,105.4 L467.5,105.3 Z M465.5,67.1 C450.7,66.8 433.8,69.4 433.8,83.9 C433.8,92.7 439.7,96.9 446.6,96.9 C456.3,96.9 462.5,90.7 464.7,84.4 C465.2,83 465.5,81.5 465.5,80.1 L465.5,67.1 L465.5,67.1 Z"></path>
                        <path d="M504.3,30.5 L520.7,74.7 C522.4,79.6 524.3,85.5 525.5,90 L525.8,90 C527.2,85.5 528.7,79.8 530.6,74.4 L545.4,30.5 L559.8,30.5 L539.4,83.8 C529.7,109.4 523,122.6 513.8,130.6 C507.2,136.5 500.5,138.8 497.1,139.4 L493.7,128 C497.1,126.9 501.6,124.8 505.6,121.4 C509.3,118.5 513.9,113.2 517,106.3 C517.6,104.9 518.1,103.8 518.1,103.1 C518.1,102.3 517.8,101.2 517.2,99.5 L489.6,30.6 L504.3,30.6 L504.3,30.5 Z"></path>
                    </g>
                    <path d="M62,39.7 L85.5,39.7 C85.5,39.7 138.5,-25.3 218.5,36.7 C218.5,36.7 148.5,-47.3 62,39.7 Z" id="Shape"></path>
                    <g transform="translate(303.000000, 145.000000)" id="Shape">
                        <path d="M197.8,38.8 L197.8,38.8 L196,36.5 L174.7,7.7 L174.7,7.7 C171.6,3.4 166.6,0.6 160.9,0.6 L17.5,0.6 C8.2,0.6 0.5,8.2 0.5,17.6 L0.5,65.6 C0.5,74.9 8.2,82.6 17.5,82.6 L161,82.6 C166.6,82.6 171.6,79.8 174.7,75.6 L174.7,75.6 L195.6,47.3 L197.8,44.4 L197.8,44.4 C198.9,42.9 198.9,40.3 197.8,38.8 Z M48.6,56.5 C44.8,60.3 38.5,62.4 30.6,62.4 C26.9,62.4 23.7,62.2 21.1,61.9 L21.1,21.8 C24.3,21.3 28.1,21 32.3,21 C39.9,21 45.2,22.8 48.8,26.1 C52.4,29.4 54.5,34.1 54.5,40.7 C54.5,47.3 52.5,52.7 48.6,56.5 Z M66.5,62 L61.2,62 L61.2,32.8 L66.5,32.8 L66.5,62 Z M63.7,27.8 C61.8,27.8 60.5,26.3 60.5,24.5 C60.5,22.6 61.9,21.2 63.8,21.2 C65.8,21.2 67.1,22.7 67.1,24.5 C67.1,26.3 65.8,27.8 63.7,27.8 Z M89.7,37.2 C89.2,37.1 88.6,37 87.9,37 C84.2,37 81.5,39.8 80.8,43.8 C80.7,44.5 80.6,45.4 80.6,46.3 L80.6,62 L75.3,62 L75.3,41.9 C75.3,38.5 75.2,35.5 75.1,32.8 L79.8,32.8 L80,38.5 L80.2,38.5 C81.5,34.6 84.7,32.1 88.3,32.1 C88.9,32.1 89.3,32.2 89.8,32.3 L89.8,37.2 L89.7,37.2 Z M117.9,48.3 L97.4,48.3 C97.5,55.5 102.1,58.4 107.4,58.4 C111.2,58.4 113.5,57.7 115.5,56.9 L116.4,60.7 C114.5,61.5 111.3,62.5 106.7,62.5 C97.7,62.5 92.3,56.6 92.3,47.8 C92.3,39 97.5,32 106,32 C115.5,32 118.1,40.4 118.1,45.8 C118.1,46.9 118,47.8 117.9,48.3 Z M138.1,58.3 C141.1,58.3 143.1,57.5 144.6,56.9 L145.5,60.9 C144.1,61.6 141,62.6 137.1,62.6 C128.3,62.6 122.5,56.6 122.5,47.7 C122.5,38.7 128.7,32.2 138.2,32.2 C141.3,32.2 144.1,33 145.6,33.7 L144.4,37.8 C143.1,37.1 141.1,36.4 138.2,36.4 C131.5,36.4 127.9,41.4 127.9,47.5 C128,54.2 132.3,58.3 138.1,58.3 Z M166.6,36.8 L159,36.8 L159,52.6 C159,56.2 160,58.3 163,58.3 C164.4,58.3 165.4,58.1 166.1,57.9 L166.3,61.9 C165.3,62.3 163.6,62.6 161.6,62.6 C159.1,62.6 157.1,61.8 155.9,60.4 C154.4,58.8 153.8,56.2 153.8,52.8 L153.8,36.9 L149.3,36.9 L149.3,32.9 L153.8,32.9 L153.8,25.9 L159,24.5 L159,32.9 L166.6,32.9 L166.6,36.8 Z"></path>
                        <path d="M105.6,35.9 C100.2,35.9 97.9,40.9 97.4,44.5 L113,44.5 C113.1,41.1 111.6,35.9 105.6,35.9 Z"></path>
                        <path d="M32.5,25.1 C29.8,25.1 27.7,25.3 26.3,25.6 L26.3,57.7 C27.6,57.9 29.6,58 31.6,58 C42.8,58 48.9,51.7 48.9,40.7 C49.1,31.2 43.6,25.1 32.5,25.1 Z"></path>
                    </g>
                </g>
            </g>
        </g>
    </g>
</svg>