<?xml version="1.0" encoding="UTF-8"?>
<svg width="8px" height="8px" viewBox="0 0 8 8" version="1.1" xmlns="http://www.w3.org/2000/svg" xmlns:xlink="http://www.w3.org/1999/xlink">
    <!-- Generator: Sketch 45.2 (43514) - http://www.bohemiancoding.com/sketch -->
    <title>np_time_992985_000000</title>
    <desc>Created with Sketch.</desc>
    <defs></defs>
    <g id="Desktop" stroke="none" stroke-width="1" fill="none" fill-rule="evenodd" opacity="1">
        <g id="3.0_BetOnline_Desktop_SubPages_Sportsbook" transform="translate(-1149.000000, -2.000000)" fill-rule="nonzero" fill="#FFFFFF">
            <g id="np_time_992985_000000" transform="translate(1149.000000, 2.000000)">
                <path d="M5.05538914,0.321725937 C4.62377659,0.147942383 4.16721936,0.0599636186 3.69799928,0.0599636186 C1.86480018,0.0599636186 0.312536969,1.42968014 0.0879675586,3.24629427 C0.0695828992,3.39512193 0.0599524126,3.54702005 0.0599524126,3.6980329 C0.0599524126,5.70369323 1.69177864,7.33563152 3.69799928,7.33563152 C5.70421992,7.33563152 7.33604615,5.7038053 7.33604615,3.6980329 C7.33604615,2.20448943 6.44087258,0.879036841 5.05538914,0.321759556 L5.05538914,0.321725937 Z M3.69799928,6.88780381 C1.93920841,6.88780381 0.50819475,5.45679015 0.50819475,3.69844752 C0.50819475,3.56581261 0.516511774,3.43230363 0.532708002,3.30185391 C0.729688097,1.7089127 2.09057424,0.508183543 3.69797126,0.508183543 C4.10944652,0.508183543 4.50997346,0.585225195 4.88771849,0.737560353 C6.10245522,1.22607726 6.8877758,2.38821276 6.8877758,3.69797687 C6.8877758,5.45676774 5.45676213,6.8877814 3.69797126,6.8877814 L3.69799928,6.88780381 Z M5.08699022,3.55657882 L3.92346518,3.55657882 L3.92346518,1.8914706 C3.92346518,1.76758763 3.82322362,1.66734943 3.69934401,1.66734943 C3.57546439,1.66734943 3.47522284,1.76759099 3.47522284,1.8914706 L3.47522284,3.78069999 C3.47522284,3.90458297 3.57546439,4.00482116 3.69934401,4.00482116 L5.08743846,4.00482116 C5.21132144,4.00482116 5.31155963,3.90457961 5.31155963,3.78069999 C5.31155963,3.65725405 5.21087992,3.55657882 5.08700143,3.55657882 L5.08699022,3.55657882 Z" id="Shape"></path>
            </g>
        </g>
    </g>
</svg>
