<svg xmlns="http://www.w3.org/2000/svg" width="117.471" height="117.643" viewBox="0 0 117.471 117.643">
  <title>0x_Icon</title>
  <path d="M90.78,79.172c4.246,5.705,8.624,11.544,13,17.382a57.523,57.523,0,0,1-32.773,19.77c-14.6,3.052-28.394.8-41.8-6.634,11.942-8.89,23.618-17.647,35.427-26.4,2.654,2.521,5.175,5.042,7.7,7.43,2.786,2.654,1.725,2.786,5.307.8A36.8,36.8,0,0,0,89.852,80.234c.133-.265.4-.531.531-.8-.133,0,0,0,.4-.265ZM38.636,90.848c-3.317,2.521-6.369,4.777-9.421,7.165-2.256,1.725-4.511,3.317-6.767,5.042-.929.8-1.592.8-2.654-.133A58.482,58.482,0,0,1,7.057,31.273c.133-.265.4-.663.531-.929,0-.133.133-.133.4-.265,8.757,11.544,17.647,23.087,26.4,34.631a5.617,5.617,0,0,1-.663.929c-2.654,2.786-5.307,5.573-8.094,8.226a1.717,1.717,0,0,0-.4,2.388A39.255,39.255,0,0,0,36.645,89.521c.663.4,1.194.8,1.99,1.327Zm49.491-82.4c-4.246,3.052-8.492,6.1-12.738,9.023-7.3,5.175-14.6,10.482-21.76,15.657-.929.663-1.592.8-2.388-.133-2.388-2.521-4.909-4.777-7.3-7.3a1.806,1.806,0,0,0-2.256-.4A38.584,38.584,0,0,0,27.755,37.509a7.36,7.36,0,0,0-.8,1.061c-2.123-2.786-4.113-5.307-6.1-7.961-2.123-2.786-4.113-5.573-6.1-8.226a1.634,1.634,0,0,1,.133-2.521C25.1,8.584,37.707,1.95,52.833.358A57.218,57.218,0,0,1,86.8,7.125c.4.265.8.4,1.194.663C87.994,8.186,87.994,8.319,88.127,8.451Zm21.628,79.61c-2.786-3.582-5.307-6.9-7.828-10.217-5.838-7.7-11.676-15.524-17.647-23.22-.8-1.061-.8-1.725.133-2.654,2.521-2.521,4.909-5.042,7.43-7.563a1.66,1.66,0,0,0,.4-2.256A39.332,39.332,0,0,0,80.166,28.221a11.477,11.477,0,0,0-1.327-.929c.4-.4.8-.663,1.061-.929,5.042-3.848,10.084-7.563,15.126-11.411.8-.663,1.46-.929,2.388,0,12.6,11.411,19.372,25.608,20.035,42.724a58.21,58.21,0,0,1-6.5,28.262A10.056,10.056,0,0,0,109.754,88.062Z" fill="#ffffff"/>
</svg>
