<?xml version="1.0" encoding="UTF-8"?>
<svg width="518px" height="137px" viewBox="0 0 518 137" version="1.1" xmlns="http://www.w3.org/2000/svg" xmlns:xlink="http://www.w3.org/1999/xlink">
    <!-- Generator: Sketch 45.2 (43514) - http://www.bohemiancoding.com/sketch -->
    <title>Trustly</title>
    <desc>Created with Sketch.</desc>
    <defs></defs>
    <g id="Page-1" stroke="none" stroke-width="1" fill="none" fill-rule="evenodd">
        <g id="Trustly" fill-rule="nonzero" fill="#FFFFFF">
            <path d="M239.7,62.6 C239.7,54.3 239.7,45.9 239.7,37.6 C239.7,36.7 239.7,35.9 239.5,35 C239.1,32.3 237.4,30.6 234.7,30.1 C233.8,30 232.9,29.9 232,29.9 C225.9,29.9 219.8,29.9 213.7,29.9 C213.1,29.9 212.5,29.9 211.9,30 C209.6,30.3 208.5,31.3 208.1,33.6 C207.9,34.9 207.8,36.2 207.8,37.6 C207.8,49.6 207.8,61.5 207.8,73.5 C207.8,74.8 207.6,76.1 207.2,77.3 C206.4,79.8 204.3,81.1 201.5,80.9 C198.9,80.8 197.2,79.4 196.6,76.7 C196.3,75.5 196.2,74.2 196.2,72.9 C196.2,60.8 196.2,48.7 196.2,36.5 C196.2,33.7 194.9,31.9 192.5,30.7 C191.2,30.1 189.9,29.9 188.5,29.9 C182.2,29.9 175.8,29.9 169.5,29.9 C169.3,29.9 169.2,29.9 169,29.9 C166.5,29.9 164.7,31.1 163.9,33.5 C163.5,34.8 163.2,36.2 163.2,37.5 C163.2,53.7 163.1,69.8 163.2,86 C163.2,88.5 163.6,91.1 164.2,93.6 C165.9,100.7 170.3,105.5 177.6,107.3 C180,107.9 182.4,108.1 184.9,108.1 C196.7,108.1 208.5,108.1 220.3,108.1 C221.1,108.1 221.8,108.1 222.6,108.1 C226.8,107.8 230.5,106.3 233.6,103.3 C235.9,101 237.4,98.2 238.3,95.2 C239.4,91.9 239.7,88.4 239.7,84.9 C239.7,77.4 239.7,70 239.7,62.6 Z M45.8,1.8 C32.8,1.8 19.8,1.8 6.8,1.8 C6.1,1.8 5.4,1.8 4.7,1.8 C1.3,2 0.2,3.2 0.1,6.6 C0.1,6.7 0.1,6.7 0.1,6.8 C0.1,12.2 0.1,17.6 0.1,23.1 C0.1,23.8 0.2,24.5 0.2,25.2 C0.3,26.4 1,27.1 2.1,27.3 C2.9,27.5 3.8,27.6 4.7,27.6 C10.9,27.6 17.1,27.6 23.3,27.6 C23.8,27.6 24.3,27.6 24.8,27.6 C26.3,27.7 26.9,28.3 27,29.8 C27,30.4 27,31 27,31.6 C27,55.2 27,78.8 27,102.3 C27,102.9 27,103.4 27,104 C27.2,106.4 28.2,107.4 30.6,107.7 C31.7,107.8 32.8,107.9 34,107.9 C41.2,107.9 48.3,107.9 55.5,107.9 C57,107.9 58.5,107.7 59.9,107.4 C61.5,107.1 62.5,106 62.7,104.3 C62.8,103.5 62.9,102.7 62.9,101.9 C62.9,78.4 62.9,54.8 62.9,31.3 C62.9,30.7 62.9,30.2 62.9,29.6 C63,28.4 63.6,27.8 64.8,27.6 C65.4,27.5 66,27.5 66.6,27.5 C73.5,27.5 80.3,27.5 87.2,27.5 C90.6,27.5 91.4,26.6 91.4,23.3 C91.4,17.7 91.4,12.2 91.4,6.6 C91.4,6.2 91.4,5.8 91.4,5.4 C91.3,3.5 90.4,2.5 88.6,2.1 C87.5,1.9 86.3,1.8 85.1,1.8 C72,1.8 58.9,1.8 45.8,1.8 Z M476.4,64.6 C476.3,64.6 476.2,64.6 476.1,64.6 C475.9,64.1 475.7,63.7 475.6,63.2 C472.4,54.2 469.3,45.3 466.1,36.3 C465.5,34.6 464.6,33 463.3,31.8 C461.9,30.5 460.4,29.8 458.5,29.8 C450.8,29.8 443.2,29.8 435.5,29.8 C434.4,29.8 433.4,30 432.3,30.3 C430.9,30.7 430.3,31.6 430.5,33.1 C430.6,34 430.9,34.9 431.2,35.7 C440.4,58.6 449.7,81.5 459,104.3 C459.4,105.4 459.5,106.3 459,107.3 C455.6,115.3 452.2,123.3 448.9,131.3 C448.6,131.9 448.4,132.5 448.2,133.2 C447.8,134.8 448.4,136 450,136.3 C451.1,136.6 452.2,136.7 453.3,136.7 C458.5,136.7 463.7,136.7 469,136.7 C470.9,136.7 472.4,136 473.7,134.8 C475.1,133.5 476.1,131.9 476.8,130.1 C490.3,98.5 503.7,66.8 517.2,35.2 C517.4,34.6 517.7,34.1 517.8,33.5 C518.3,31.6 517.7,30.4 515.7,30 C514.7,29.8 513.6,29.7 512.5,29.7 C506.9,29.7 501.3,29.7 495.8,29.7 C493.5,29.7 491.7,30.5 490.3,32.2 C489.4,33.4 488.5,34.7 487.9,36.1 C485.1,42.9 482.4,49.7 479.6,56.6 C478.5,59.3 477.5,62 476.4,64.6 Z M295.4,27 C289.1,26.8 282.9,27.2 276.8,28.5 C271.5,29.7 266.5,31.5 262,34.6 C258.8,36.9 256,39.7 254.6,43.4 C251.6,51.1 252.5,58.4 257.2,65.3 C259.3,68.4 262.1,70.8 265.4,72.6 C268.6,74.4 271.9,76 275.2,77.6 C277.1,78.5 279.1,79.2 280.9,80.2 C281.9,80.7 283,81.3 283.9,82.1 C285.2,83.2 285.1,84.9 283.8,85.9 C283.3,86.3 282.6,86.7 281.9,86.9 C280.7,87.2 279.5,87.5 278.3,87.5 C271.8,87.8 265.3,87.5 258.9,86.1 C257.5,85.8 256.1,85.4 254.7,85.1 C253.5,84.9 253,85.1 252.5,86.2 C252.2,86.8 252,87.5 251.8,88.2 C251.1,91.5 251.1,94.9 251.3,98.3 C251.4,100.2 251.8,102 252,103.9 C252.1,105 252.7,105.5 253.7,105.8 C254.5,106 255.3,106.3 256,106.5 C261.6,108 267.3,108.8 273.1,109.4 C280.5,110.1 287.9,110.3 295.3,109.3 C299.6,108.7 303.7,107.6 307.5,105.6 C312.2,103.1 315.7,99.4 317.6,94.3 C318.5,91.9 318.9,89.5 319.1,87 C319.7,79.2 317.4,72.4 311.9,66.7 C307.9,62.6 303,59.7 297.9,57.2 C295.3,55.9 292.7,54.8 290.2,53.5 C289.2,53 288.2,52.4 287.4,51.7 C286.2,50.7 286.2,49.1 287.6,48.2 C288.2,47.8 289,47.5 289.7,47.4 C292,46.9 294.4,47 296.7,47.3 C300.7,47.7 304.6,48.2 308.6,48.8 C310.4,49.1 311.3,48.4 312.1,47 C312.4,46.3 312.8,45.6 313,44.9 C313.6,42.4 314.3,40 314.7,37.5 C315,35.5 315.2,33.4 314.8,31.4 C314.6,30.4 314.2,29.7 313.1,29.4 C312,29.1 310.8,28.7 309.7,28.5 C305,27.3 300.2,27.1 295.4,27 Z M365.6,30 C365.6,29.3 365.6,28.7 365.6,28.2 C365.6,23.8 365.6,19.3 365.6,14.9 C365.5,11.5 364.4,10.5 361,11 C355.3,11.8 349.7,12.8 344.1,13.8 C342.6,14.1 341.1,14.5 339.7,15.1 C337.3,16.1 336,18.1 336.1,20.8 C336.2,23.4 336.1,25.9 336.1,28.5 C336.1,29 336,29.6 336,30.2 C335.3,30.2 334.7,30.2 334.2,30.2 C332.7,30.2 331.1,30.2 329.6,30.3 C327.1,30.5 325.8,31.8 325.5,34.3 C325.5,34.7 325.4,35 325.4,35.4 C325.4,39 325.4,42.7 325.4,46.3 C325.4,47.2 325.6,48 325.8,48.9 C326.2,50.3 327.1,51.1 328.5,51.3 C329.9,51.4 331.3,51.4 332.6,51.5 C333.2,51.5 333.8,51.5 334.4,51.6 C334.4,52.3 334.4,52.7 334.4,53.2 C334.4,63.3 334.4,73.5 334.4,83.6 C334.4,86.4 334.4,89.2 334.7,92 C335.5,98.7 338.8,103.9 344.8,107.2 C348.4,109.2 352.2,110.1 356.3,110.2 C359.6,110.3 362.9,110.2 366.1,109.9 C369.4,109.5 372.6,108.7 375.9,108.1 C376.9,107.9 377.5,107.3 377.5,106.2 C377.5,105.5 377.6,104.8 377.6,104.1 C377.5,99.9 377,95.7 376.2,91.6 C376,90.5 375.6,89.3 375.2,88.2 C374.9,87.5 374.5,87.1 373.6,87.2 C372.4,87.3 371.1,87.2 369.9,87 C367.7,86.6 366.7,85.3 366.7,83.1 C366.7,73.1 366.7,63.2 366.7,53.2 C366.7,52.8 366.8,52.4 366.8,52 C368.6,52 370.3,52 372,52 C373.4,52 374.9,52 376.3,52 C378.2,51.9 379.1,51 379.3,49.1 C379.4,48.4 379.4,47.8 379.4,47.1 C379.4,43.9 379.4,40.7 379.4,37.4 C379.4,36.4 379.3,35.3 379.1,34.4 C378.4,31.5 377.1,30.5 374.1,30.5 C371.3,30 368.6,30 365.6,30 Z M390.8,54.4 C390.8,60.3 390.8,66.3 390.8,72.2 C390.8,82.7 390.8,93.2 390.8,103.7 C390.8,104.3 390.8,104.8 390.9,105.4 C391.2,106.9 391.9,107.6 393.4,107.8 C394.4,107.9 395.4,108 396.5,108 C403.3,108 410,108 416.8,108 C417.7,108 418.5,107.9 419.4,107.8 C421.2,107.5 422.2,106.5 422.5,104.7 C422.6,103.9 422.7,103.1 422.7,102.3 C422.7,70.1 422.7,37.9 422.7,5.6 C422.7,5 422.6,4.4 422.6,3.8 C422.4,2.1 421.5,1.1 419.8,0.8 C418.6,0.6 417.3,0.4 416,0.4 C409.2,0.4 402.5,0.4 395.7,0.4 C395.2,0.4 394.7,0.4 394.2,0.5 C392.3,0.8 391,2.1 390.8,4 C390.7,4.7 390.8,5.3 390.8,6 C390.8,21.9 390.8,38.2 390.8,54.4 Z M96.5,73.4 C96.5,82.3 96.5,91.2 96.5,100.1 C96.5,101.2 96.6,102.3 96.8,103.3 C97.2,105.4 98.5,106.9 100.6,107.5 C101.8,107.8 103.1,108 104.4,108 C110.4,108 116.4,108 122.3,108 C123.1,108 123.8,107.9 124.6,107.8 C126.5,107.5 127.7,106.4 128,104.6 C128.2,103.5 128.3,102.3 128.3,101.1 C128.3,89.5 128.3,78 128.3,66.4 C128.3,65.6 128.3,64.9 128.3,64.1 C128.5,60 130.3,57 134,55.1 C136,54.1 138,53.2 140.2,53.1 C143.5,52.8 146.7,52.7 150,52.5 C152.4,52.4 153.5,51.4 153.5,49 C153.5,43.5 153.5,38.1 153.5,32.6 C153.5,30.7 152.7,29.9 150.8,29.9 C150.4,29.9 150,29.9 149.6,29.9 C141.3,29.9 132.9,29.9 124.6,30 C121,30 117.4,30.1 113.9,30.3 C110.8,30.5 107.7,31.1 104.9,32.4 C100.6,34.3 98,37.5 97.1,42.2 C96.8,44 96.6,46 96.6,47.8 C96.5,56.2 96.5,64.8 96.5,73.4 Z" id="Shape"></path>
            <path d="M239.7,62.6 C239.7,70 239.7,77.4 239.7,84.8 C239.7,88.3 239.3,91.7 238.3,95.1 C237.3,98.2 235.9,100.9 233.6,103.2 C230.5,106.2 226.8,107.7 222.6,108 C221.8,108.1 221.1,108 220.3,108 C208.5,108 196.7,108 184.9,108 C182.4,108 180,107.8 177.6,107.2 C170.4,105.3 166,100.6 164.2,93.5 C163.6,91 163.2,88.5 163.2,85.9 C163.1,69.7 163.1,53.6 163.2,37.4 C163.2,36 163.5,34.6 163.9,33.4 C164.7,31 166.5,29.8 169,29.8 C169.2,29.8 169.3,29.8 169.5,29.8 C175.8,29.8 182.2,29.8 188.5,29.8 C189.9,29.8 191.3,30 192.5,30.6 C194.9,31.8 196.2,33.6 196.2,36.4 C196.2,48.5 196.2,60.6 196.2,72.8 C196.2,74.1 196.3,75.4 196.6,76.6 C197.2,79.3 198.9,80.7 201.5,80.8 C204.3,80.9 206.4,79.7 207.2,77.2 C207.6,76 207.8,74.7 207.8,73.4 C207.8,61.4 207.8,49.5 207.8,37.5 C207.8,36.2 207.8,34.8 208.1,33.5 C208.5,31.2 209.6,30.3 211.9,29.9 C212.5,29.8 213.1,29.8 213.7,29.8 C219.8,29.8 225.9,29.8 232,29.8 C232.9,29.8 233.8,29.9 234.7,30 C237.4,30.4 239.1,32.2 239.5,34.9 C239.6,35.8 239.7,36.6 239.7,37.5 C239.7,45.9 239.7,54.2 239.7,62.6 Z" id="Shape"></path>
            <path d="M45.8,1.8 C58.9,1.8 72,1.8 85.1,1.8 C86.3,1.8 87.5,1.9 88.6,2.1 C90.5,2.5 91.3,3.5 91.4,5.4 C91.4,5.8 91.4,6.2 91.4,6.6 C91.4,12.2 91.4,17.7 91.4,23.3 C91.4,26.6 90.6,27.5 87.2,27.5 C80.3,27.5 73.5,27.5 66.6,27.5 C66,27.5 65.4,27.5 64.8,27.6 C63.6,27.8 63,28.4 62.9,29.6 C62.9,30.2 62.9,30.7 62.9,31.3 C62.9,54.8 62.9,78.4 62.9,101.9 C62.9,102.7 62.8,103.5 62.7,104.3 C62.5,106 61.5,107 59.9,107.4 C58.5,107.7 57,107.9 55.5,107.9 C48.3,108 41.2,107.9 34,107.9 C32.9,107.9 31.8,107.8 30.6,107.7 C28.3,107.4 27.3,106.4 27,104 C26.9,103.4 27,102.9 27,102.3 C27,78.7 27,55.1 27,31.6 C27,31 27,30.4 27,29.8 C26.9,28.3 26.3,27.7 24.8,27.6 C24.3,27.6 23.8,27.6 23.3,27.6 C17.1,27.6 10.9,27.6 4.7,27.6 C3.8,27.6 3,27.5 2.1,27.3 C1,27.1 0.3,26.4 0.2,25.2 C0.1,24.5 0.1,23.8 0.1,23.1 C0.1,17.7 0.1,12.3 0.1,6.8 C0.1,6.7 0.1,6.7 0.1,6.6 C0.1,3.2 1.2,2 4.7,1.8 C5.4,1.8 6.1,1.8 6.8,1.8 C19.9,1.8 32.9,1.8 45.8,1.8 Z" id="Shape"></path>
            <path d="M476.4,64.6 C477.5,61.9 478.5,59.3 479.6,56.6 C482.3,49.8 485.1,42.9 487.9,36.1 C488.5,34.7 489.3,33.4 490.3,32.2 C491.7,30.5 493.5,29.7 495.8,29.7 C501.4,29.8 507,29.7 512.5,29.7 C513.6,29.7 514.7,29.8 515.7,30 C517.6,30.4 518.3,31.6 517.8,33.5 C517.6,34.1 517.4,34.7 517.2,35.2 C503.7,66.8 490.3,98.5 476.8,130.1 C476.1,131.9 475.1,133.5 473.7,134.8 C472.4,136 470.9,136.7 469,136.7 C463.8,136.7 458.6,136.7 453.3,136.7 C452.2,136.7 451,136.6 450,136.3 C448.4,135.9 447.8,134.8 448.2,133.2 C448.4,132.6 448.6,131.9 448.9,131.3 C452.3,123.3 455.6,115.3 459,107.3 C459.5,106.2 459.4,105.3 459,104.3 C449.7,81.4 440.5,58.6 431.2,35.7 C430.9,34.9 430.6,34 430.5,33.1 C430.3,31.6 430.9,30.8 432.3,30.3 C433.3,30 434.4,29.8 435.5,29.8 C443.2,29.8 450.8,29.8 458.5,29.8 C460.4,29.8 462,30.5 463.3,31.8 C464.6,33 465.5,34.6 466.1,36.3 C469.2,45.3 472.4,54.2 475.6,63.2 C475.8,63.7 476,64.1 476.1,64.6 C476.2,64.6 476.3,64.6 476.4,64.6 Z" id="Shape"></path>
            <path d="M295.4,27 C300.2,27.1 305,27.3 309.7,28.2 C310.8,28.4 312,28.8 313.1,29.1 C314.1,29.4 314.6,30.1 314.8,31.1 C315.2,33.2 315,35.2 314.7,37.2 C314.3,39.7 313.6,42.2 313,44.6 C312.8,45.3 312.4,46 312.1,46.7 C311.4,48.1 310.4,48.8 308.6,48.5 C304.7,47.9 300.7,47.5 296.7,47 C294.4,46.7 292,46.7 289.7,47.1 C289,47.3 288.2,47.5 287.6,47.9 C286.3,48.8 286.2,50.3 287.4,51.4 C288.3,52.1 289.2,52.7 290.2,53.2 C292.8,54.5 295.4,55.7 297.9,56.9 C303,59.4 307.9,62.3 311.9,66.4 C317.4,72.1 319.8,78.8 319.1,86.7 C318.9,89.2 318.5,91.7 317.6,94 C315.7,99.1 312.3,102.8 307.5,105.3 C303.7,107.3 299.5,108.4 295.3,109 C287.9,110 280.5,109.8 273.1,109.1 C267.3,108.6 261.6,107.7 256,106.2 C255.2,106 254.4,105.7 253.7,105.5 C252.7,105.2 252.1,104.7 252,103.6 C251.8,101.7 251.5,99.9 251.3,98 C251,94.6 251.1,91.3 251.8,87.9 C251.9,87.2 252.2,86.5 252.5,85.9 C253,84.8 253.5,84.6 254.7,84.8 C256.1,85.1 257.5,85.5 258.9,85.8 C265.3,87.2 271.8,87.5 278.3,87.2 C279.5,87.1 280.7,86.9 281.9,86.6 C282.6,86.4 283.2,86.1 283.8,85.6 C285.1,84.6 285.2,82.8 283.9,81.8 C283,81.1 282,80.4 280.9,79.9 C279,79 277,78.2 275.2,77.3 C271.9,75.7 268.6,74.1 265.4,72.3 C262.2,70.5 259.3,68.1 257.2,65 C252.6,58.2 251.6,50.8 254.6,43.1 C256.1,39.4 258.8,36.6 262,34.3 C266.5,31.2 271.5,29.4 276.8,28.2 C282.9,27.2 289.1,26.8 295.4,27 Z" id="Shape"></path>
            <path d="M365.6,30 C368.6,30 371.3,30 374,30 C377,30 378.3,31 379,33.9 C379.2,34.9 379.3,35.9 379.3,36.9 C379.3,40.1 379.3,43.3 379.3,46.6 C379.3,47.3 379.2,47.9 379.2,48.6 C379,50.5 378.1,51.4 376.2,51.5 C374.8,51.6 373.3,51.5 371.9,51.5 C370.2,51.5 368.5,51.5 366.7,51.5 C366.6,51.9 366.6,52.3 366.6,52.7 C366.6,62.7 366.6,72.6 366.6,82.6 C366.6,84.8 367.6,86.1 369.8,86.5 C371,86.7 372.2,86.8 373.5,86.7 C374.4,86.6 374.9,87 375.1,87.7 C375.5,88.8 375.9,89.9 376.1,91.1 C377,95.2 377.4,99.4 377.5,103.6 C377.5,104.3 377.4,105 377.4,105.7 C377.4,106.8 376.9,107.4 375.8,107.6 C372.5,108.2 369.3,109.1 366,109.4 C362.8,109.8 359.5,109.8 356.2,109.7 C352.2,109.6 348.3,108.7 344.7,106.7 C338.7,103.4 335.4,98.2 334.6,91.5 C334.2,88.7 334.3,85.9 334.3,83.1 C334.3,73 334.3,62.8 334.3,52.7 C334.3,52.2 334.3,51.8 334.3,51.1 C333.7,51.1 333.1,51.1 332.5,51 C331.1,50.9 329.7,51 328.4,50.8 C327,50.7 326.1,49.8 325.7,48.4 C325.5,47.6 325.3,46.7 325.3,45.8 C325.3,42.2 325.3,38.5 325.3,34.9 C325.3,34.5 325.3,34.2 325.4,33.8 C325.7,31.3 327,30 329.5,29.8 C331,29.7 332.6,29.8 334.1,29.7 C334.7,29.7 335.2,29.7 335.9,29.7 C335.9,29.1 336,28.5 336,28 C336,25.4 336.1,22.9 336,20.3 C335.9,17.6 337.2,15.7 339.6,14.6 C341,14 342.5,13.6 344,13.3 C349.6,12.3 355.3,11.4 360.9,10.5 C364.3,10 365.5,11 365.5,14.4 C365.6,18.8 365.5,23.3 365.5,27.7 C365.6,28.8 365.6,29.3 365.6,30 Z" id="Shape"></path>
            <path d="M390.8,54.4 C390.8,38.2 390.8,22 390.8,5.8 C390.8,5.1 390.8,4.5 390.8,3.8 C391,1.9 392.3,0.6 394.2,0.3 C394.7,0.2 395.2,0.2 395.7,0.2 C402.5,0.2 409.2,0.2 416,0.2 C417.3,0.2 418.6,0.3 419.8,0.6 C421.4,0.9 422.4,1.9 422.6,3.6 C422.7,4.2 422.7,4.8 422.7,5.4 C422.7,37.6 422.7,69.8 422.7,102.1 C422.7,102.9 422.6,103.7 422.5,104.5 C422.2,106.3 421.2,107.3 419.4,107.6 C418.5,107.7 417.7,107.8 416.8,107.8 C410,107.8 403.3,107.8 396.5,107.8 C395.5,107.8 394.5,107.7 393.4,107.6 C391.8,107.4 391.1,106.7 390.9,105.2 C390.8,104.7 390.8,104.1 390.8,103.5 C390.8,93 390.8,82.5 390.8,72 C390.8,66.2 390.8,60.3 390.8,54.4 Z" id="Shape"></path>
            <path d="M96.5,73.4 C96.5,64.8 96.5,56.2 96.5,47.6 C96.5,45.7 96.7,43.8 97,42 C97.9,37.4 100.5,34.2 104.8,32.2 C107.7,30.9 110.7,30.2 113.8,30.1 C117.4,29.9 121,29.8 124.5,29.8 C132.8,29.8 141.2,29.8 149.5,29.7 C149.9,29.7 150.3,29.7 150.7,29.7 C152.6,29.8 153.4,30.6 153.4,32.4 C153.4,37.9 153.4,43.3 153.4,48.8 C153.4,51.2 152.3,52.2 149.9,52.3 C146.6,52.5 143.4,52.6 140.1,52.9 C137.9,53.1 135.9,53.9 133.9,54.9 C130.2,56.8 128.4,59.8 128.2,63.9 C128.2,64.7 128.2,65.4 128.2,66.2 C128.2,77.8 128.2,89.3 128.2,100.9 C128.2,102.1 128.1,103.3 127.9,104.4 C127.5,106.2 126.3,107.4 124.5,107.6 C123.7,107.7 123,107.8 122.2,107.8 C116.2,107.8 110.2,107.8 104.3,107.8 C103,107.8 101.7,107.6 100.5,107.3 C98.4,106.8 97.1,105.2 96.7,103.1 C96.5,102.1 96.4,101 96.4,99.9 C96.5,91.2 96.5,82.3 96.5,73.4 Z" id="Shape"></path>
        </g>
    </g>
</svg>