<svg id="Layer_1" data-name="Layer 1" xmlns="http://www.w3.org/2000/svg" viewBox="0 0 115.34 92.27"><defs><style>.cls-1{fill:#fff;fill-rule:evenodd;}</style></defs><path class="cls-1" d="M203.18,113.73a6.36,6.36,0,0,0,1.32-3.86,6,6,0,0,0-5.93-6.14,5.86,5.86,0,0,0-4.74,2.48l-63.38,60.34L101.5,151.1l-.49-.25a7.88,7.88,0,0,0-1-.41,8.07,8.07,0,0,0-2.62-.45,8.41,8.41,0,0,0-8.27,8.55,8.64,8.64,0,0,0,3,6.6L123.32,192a13.6,13.6,0,0,0,2,1.68,12.59,12.59,0,0,0,16.33-1.59l.42-.48a14.68,14.68,0,0,0,1-1.23Z" transform="translate(-89.16 -103.73)"/></svg>