<?xml version="1.0" encoding="UTF-8"?>
<svg width="262px" height="300px" viewBox="0 0 262 300" version="1.1" xmlns="http://www.w3.org/2000/svg" xmlns:xlink="http://www.w3.org/1999/xlink">
    <!-- Generator: Sketch 45.2 (43514) - http://www.bohemiancoding.com/sketch -->
    <title>Moneta</title>
    <desc>Created with Sketch.</desc>
    <defs></defs>
    <g id="Page-1" stroke="none" stroke-width="1" fill="none" fill-rule="evenodd">
        <g id="Moneta" fill-rule="nonzero" fill="#FFFFFF">
            <path d="M131,126.7 C87.3,84.5 44.2,42.8 0.5,0.5 C0.5,100.7 0.5,199.6 0.5,299.5 C76.6,225.8 152,152.8 228.4,78.9 C228.4,126.8 228.4,173.3 228.4,220.9 C211.5,204.6 195.4,189.1 178.4,172.7 C170.9,181.3 163.8,189.4 156.4,197.8 C190.5,230.7 225.7,264.7 261.6,299.5 C261.6,199.5 261.6,100.7 261.6,0.5 C217.6,43.1 174.4,84.8 131,126.7 Z M107,150.1 C82.6,173.6 58.5,196.9 33.7,220.9 C33.7,220.9 33.7,220.8 33.7,220.8 C33.7,173.3 33.7,126.9 33.7,79.2 C58.4,103.1 82.4,126.2 107,150.1 C107,150 107,150 107,150.1 C107,150.1 107,150.1 107,150.1 Z" id="Shape"></path>
        </g>
    </g>
</svg>