<?xml version="1.0" encoding="UTF-8"?>
<svg width="177px" height="82px" viewBox="0 0 177 82" version="1.1" xmlns="http://www.w3.org/2000/svg" xmlns:xlink="http://www.w3.org/1999/xlink">
    <!-- Generator: Sketch 45.2 (43514) - http://www.bohemiancoding.com/sketch -->
    <title>Oxxo</title>
    <desc>Created with Sketch.</desc>
    <defs></defs>
    <g id="Page-1" stroke="none" stroke-width="1" fill="none" fill-rule="evenodd">
        <g id="Oxxo" fill-rule="nonzero" fill="#FFFFFF">
            <g id="Group">
                <path d="M0.5,75.7 C0.5,78.7 3,81.2 6,81.2 L170.8,81.2 C173.8,81.2 176.3,78.7 176.3,75.7 L176.3,73.2 L0.5,73.2 L0.5,75.7 Z" id="Shape"></path>
                <path d="M170.8,0.1 L6,0.1 C3,0.1 0.5,2.6 0.5,5.6 L0.5,8.1 L176.3,8.1 L176.3,5.6 C176.3,2.6 173.8,0.1 170.8,0.1 Z" id="Shape"></path>
            </g>
            <path d="M149.4,25 C141.4,25 134.8,31.6 134.8,39.6 C134.8,47.6 141.4,54.2 149.4,54.2 C157.4,54.2 164,47.6 164,39.6 C164,31.6 157.5,25 149.4,25 L149.4,25 Z" id="Shape"></path>
            <path d="M29.1,25 C21.1,25 14.5,31.6 14.5,39.6 C14.5,47.6 21.1,54.2 29.1,54.2 C37.1,54.2 43.7,47.6 43.7,39.6 C43.7,31.6 37.2,25 29.1,25 L29.1,25 Z" id="Shape"></path>
            <path d="M148.3,12.2 C134.8,11.9 128.4,20.6 119.2,31.2 L110.5,41.3 L124.3,57.8 C127.6,62.9 121.3,67.9 117.4,63.3 L104.7,48 L92.3,62.4 C88.3,67 82.2,61.9 85.5,56.8 L99,41.1 L90.2,30.6 L95.9,23.6 L104.9,34.4 L112.6,25.4 C116.4,21 120.3,15.1 125.3,12.1 L0.5,12.1 L0.5,69.1 L29.7,69.1 C43.2,69.1 49.3,61 58.3,50.1 L66.8,39.8 L52.6,23.6 C49.2,18.6 55.3,13.4 59.3,18 L72.4,32.9 L84.5,18.2 C88.3,13.5 94.6,18.5 91.4,23.6 L78.3,39.6 L87.4,49.9 L81.7,56.7 L72.7,46.5 L65.2,55.7 C61.5,60.2 57.8,65.9 52.8,69.1 L176.3,69.1 L176.3,12.1 L148.3,12.1 L148.3,12.2 L148.3,12.2 Z M52.2,39.6 C52.2,52.3 41.8,62.7 29.1,62.7 C16.4,62.7 6,52.3 6,39.6 C6,26.9 16.4,16.5 29.1,16.5 C41.8,16.6 52.2,26.9 52.2,39.6 L52.2,39.6 Z M149.4,62.7 C136.7,62.7 126.3,52.3 126.3,39.6 C126.3,26.9 136.7,16.5 149.4,16.5 C162.1,16.5 172.5,26.9 172.5,39.6 C172.5,52.3 162.1,62.7 149.4,62.7 L149.4,62.7 Z" id="Shape"></path>
        </g>
    </g>
</svg>