<?xml version="1.0" encoding="UTF-8"?>
<svg width="656px" height="517px" viewBox="0 0 656 517" version="1.1" xmlns="http://www.w3.org/2000/svg" xmlns:xlink="http://www.w3.org/1999/xlink">
    <!-- Generator: Sketch 45.2 (43514) - http://www.bohemiancoding.com/sketch -->
    <title>EPS</title>
    <desc>Created with Sketch.</desc>
    <defs></defs>
    <g id="Page-1" stroke="none" stroke-width="1" fill="none" fill-rule="evenodd">
        <g id="EPS" fill-rule="nonzero" fill="#FFFFFF">
            <path d="M314.5,352.4 C314.5,353.6 314.5,354.5 314.5,355.4 C314.5,375.9 314.5,396.4 314.5,416.9 C314.5,419.3 314.5,419.3 312,419.3 C297.9,419.3 283.9,419.3 269.8,419.3 C268,419.3 267.5,418.8 267.5,417 C267.5,338.8 267.5,260.6 267.5,182.3 C267.5,180.6 267.9,180 269.7,180 C283.9,180.1 298.1,180 312.2,180 C314.1,180 314.6,180.6 314.5,182.4 C314.4,183.4 314.5,184.5 314.5,185.9 C315.3,185.5 315.8,185.3 316.2,185 C324.5,179.6 333.7,177 343.5,176.7 C356.5,176.3 369.3,177.6 381.6,182 C398.2,188 410.7,198.7 418.8,214.5 C424.9,226.5 428,239.3 428.9,252.6 C429.5,261.3 429.7,270 429.2,278.7 C428.2,296.2 423.5,312.7 412.7,326.9 C402.6,340.2 389.2,348.8 373.1,353.5 C362,356.7 350.7,357.7 339.2,357.1 C331.5,356.7 323.9,355.6 316.5,353 C316.1,352.9 315.5,352.7 314.5,352.4 Z M314.5,267.8 C314.5,281.2 314.5,294.5 314.5,307.9 C314.5,309 314.5,309.9 315.6,310.6 C319.6,313.2 323.9,315 328.6,315.7 C337.1,316.9 345.5,316.3 353.8,314.2 C364.6,311.5 372.5,305.4 376.6,294.9 C378.9,289 380.2,282.9 380.6,276.7 C381.4,265.8 381.2,255.1 378.6,244.4 C375.6,232 368.5,223.7 356,220.3 C349.4,218.5 342.7,217.9 335.9,217.8 C328.5,217.7 322,220 316.2,224.6 C314.9,225.7 314.3,226.8 314.3,228.6 C314.6,241.6 314.5,254.7 314.5,267.8 Z" id="Shape"></path>
            <path d="M452.9,341.2 C458.8,328 464.5,315.1 470.4,301.9 C471.4,302.7 472.3,303.4 473.1,304 C482.2,311.4 492.4,316.4 504.1,317.7 C510.3,318.4 516.6,318.7 522.7,316.5 C527.4,314.8 529.5,311.6 529.7,306.7 C530,299.9 526.9,295.1 521.5,291.5 C514.6,286.9 507.1,283.6 499.6,280.4 C488.6,275.8 478.2,270.3 469.4,262.1 C459.5,252.8 453.8,241.6 453.4,227.8 C453,213.5 457.5,201.3 468.4,191.9 C476.4,185 485.8,180.7 496.1,178.7 C520.2,174 543.3,177.3 565.4,188 C569.9,190.2 569.9,190.2 568.2,194.9 C564.1,205.8 560,216.7 556,227.6 C555.8,228.1 555.5,228.6 555.2,229.2 C554.1,228.3 553.2,227.6 552.3,226.8 C545.8,220.7 537.9,217.6 529.2,216.4 C523.2,215.6 517.1,215.2 511,216.4 C504.9,217.6 501.8,221.3 501.8,227.6 C501.8,230.1 502.9,232.1 504.5,233.8 C508.1,237.6 512.8,239.7 517.4,241.8 C525.5,245.4 533.8,248.7 541.9,252.4 C551.9,256.9 560.9,262.8 567.8,271.6 C573.3,278.6 576.5,286.7 577.6,295.5 C578.9,305.8 578,315.8 573.7,325.3 C569,335.8 561.1,343.3 551.1,348.6 C539.7,354.7 527.3,357.2 514.5,357.2 C506.4,357.2 498.2,356.7 490.1,355.9 C481.3,355 473.2,351.5 465.3,347.7 C461.4,345.7 457.3,343.5 452.9,341.2 Z" id="Shape"></path>
            <path d="M608.1,444.4 C623.9,468.4 639.5,492.1 655.3,516 C623.8,516 592.5,516 560.9,516 C576.7,492.1 592.3,468.4 608.1,444.4 Z" id="Shape"></path>
            <path d="M94.9,516.1 C63.3,516.1 32,516.1 0.4,516.1 C16.2,492.2 31.8,468.4 47.6,444.4 C63.4,468.3 79.1,492.1 94.9,516.1 Z" id="Shape"></path>
            <path d="M333,0.2 C348.8,24.2 364.4,47.9 380.2,71.8 C348.7,71.8 317.4,71.8 285.8,71.8 C301.5,48 317.2,24.3 333,0.2 Z" id="Shape"></path>
            <path d="M230.1,217.5 C222.7,203.8 212.1,193.2 198.3,186.1 C179.4,176.4 159.1,174.2 138.5,178.3 C108.8,184.2 88.2,201.9 76,229.4 C70.2,242.5 68.5,256.3 68.7,270.5 C68.8,281 69.9,291.3 73,301.4 C79.2,321.6 91.2,337 109.9,347.1 C122.3,353.8 135.8,356.6 149.8,357.1 C164.3,357.6 178.7,356.7 192.7,352.7 C202.6,349.9 211.8,345.6 219.8,339 C221,338 221.2,337.3 220.5,335.9 C215.9,326.9 211.4,317.8 206.8,308.7 C205.4,305.9 203.8,303.1 202.2,300.1 C200.9,301.4 199.7,302.6 198.5,303.7 C195.2,307 191.5,309.7 187.3,311.5 C172.9,317.8 158,318.3 143.2,313.9 C129.1,309.6 120.8,299.6 118.3,284.9 C118,283.3 118.5,283 119.9,283 C123.9,283 128,282.9 132.1,282.9 C152,282.9 171.8,282.9 191.6,282.9 C205.6,282.9 219.6,282.9 233.6,282.9 C234.6,282.9 235.6,283 235.8,281.6 C237,274.1 239,266.6 239.4,259 C240.1,244.4 237.1,230.4 230.1,217.5 Z M191.6,245.6 C191.5,246 191.1,246.2 190.4,246.2 C189.8,246.2 189.3,246.2 188.7,246.2 C170.3,246.2 151.9,246.2 133.4,246.2 C129.6,246.2 125.8,246.1 121.9,246.1 C121.5,245.9 120.9,245.8 120,245.7 C120.2,245.1 120.4,244.5 120.6,244 C121.1,242.7 121.5,241.3 122.1,240 C122.2,239.8 122.2,239.6 122.3,239.5 C123.4,237 124.6,234.6 126,232.4 C130.2,225.8 136.1,221 144.4,218.9 C148.9,217.8 153.6,217.5 158.3,217.4 C165.3,217.3 172,218.7 178,222.5 C185.6,227.3 189.4,234.6 191.4,243 C191.5,243.5 191.6,244 191.7,244.5 C191.8,244.9 191.8,245.3 191.6,245.6 Z" id="Shape"></path>
        </g>
    </g>
</svg>