<?xml version="1.0" encoding="UTF-8"?>
<svg width="21px" height="12px" viewBox="0 0 21 12" version="1.1" xmlns="http://www.w3.org/2000/svg" xmlns:xlink="http://www.w3.org/1999/xlink">
    <!-- Generator: Sketch 45.1 (43504) - http://www.bohemiancoding.com/sketch -->
    <title>Group</title>
    <desc>Created with Sketch.</desc>
    <defs></defs>
    <g id="Mobile" stroke="none" stroke-width="1" fill="#EE3536" fill-rule="evenodd">
        <g id="1.0.1_Create-Account-Error" transform="translate(-317.000000, -514.000000)" fill="#EE3536">
            <g id="Group-6" transform="translate(35.000000, 474.000000)">
                <g id="Group" transform="translate(282.000000, 40.000000)">
                    <path d="M20.99888,5.96055147 C20.99888,5.95177716 20.99776,5.94300286 20.99664,5.93422855 C20.99664,5.92969988 20.99552,5.9251712 20.99552,5.92092557 C20.9944,5.91413256 20.99356,5.90762259 20.99356,5.90196175 C20.99244,5.89431961 20.99132,5.88780964 20.9902,5.87988447 L20.9902,5.87762013 C20.9638801,5.71402179 20.8874404,5.55919776 20.7704008,5.44088616 C20.100923,4.63846179 19.3034857,3.92406352 18.4931684,3.27165146 C16.7484942,1.86663045 14.7526608,0.690024421 12.5485082,0.216778021 C11.2756324,-0.0560745688 9.99351669,-0.0682453793 8.71392095,0.162716979 C7.54912484,0.372734221 6.42688858,0.810600358 5.37689208,1.35347512 C3.73301756,2.20260143 2.23138256,3.37354662 0.923226923,4.68572982 C0.681587728,4.92914603 0.439668534,5.17680788 0.219869267,5.44088616 C-0.0732897557,5.7927075 -0.0732897557,6.20821331 0.219869267,6.55890248 C0.889347036,7.36160989 1.68650438,8.07572512 2.49710168,8.72813717 C4.24261586,10.1334412 6.2387292,11.3097642 8.44148186,11.7830106 C9.71463762,12.0561462 10.9964733,12.0683171 12.2763491,11.8370717 C13.4400252,11.6270544 14.5622615,11.1891883 15.613378,10.6463135 C17.2572525,9.7971872 18.7588875,8.62624201 20.0670431,7.31405881 C20.3086823,7.0706426 20.5506015,6.82298076 20.7704008,6.55890248 C20.8874404,6.44059088 20.9638801,6.28689901 20.9902,6.12216851 L20.9902,6.11990417 C20.99132,6.11226203 20.99244,6.10546902 20.99356,6.09782689 C20.9944,6.09103388 20.99552,6.08565608 20.99552,6.07886307 C20.99552,6.07461743 20.99664,6.07008876 20.99664,6.06556009 C20.99776,6.05678578 20.99776,6.04914364 20.99888,6.04036934 C21,6.02706636 21,6.01376338 21,6.0004604 C21,5.98715742 21,5.97385444 20.99888,5.96055147 L20.99888,5.96055147 Z M10.5,9.6 C8.26975052,9.6 6.46153846,7.80900901 6.46153846,5.6 C6.46153846,3.39099099 8.26975052,1.6 10.5,1.6 C12.7302495,1.6 14.5384615,3.39099099 14.5384615,5.6 C14.5384615,7.80900901 12.7302495,9.6 10.5,9.6 L10.5,9.6 Z" id="Fill-1"></path>
                    <path d="M8.88461538,5.60050243 C8.88461538,3.46649919 12.1153846,3.46649919 12.1153846,5.60050243 C12.1153846,7.73316586 8.88461538,7.73316586 8.88461538,5.60050243 Z" id="Fill-2"></path>
                </g>
            </g>
        </g>
    </g>
</svg>
