<?xml version="1.0" encoding="UTF-8"?>
<svg width="200px" height="145px" viewBox="0 0 200 145" version="1.1" xmlns="http://www.w3.org/2000/svg" xmlns:xlink="http://www.w3.org/1999/xlink">
    <!-- Generator: Sketch 45.2 (43514) - http://www.bohemiancoding.com/sketch -->
    <title>CashiersCheque</title>
    <desc>Created with Sketch.</desc>
    <defs></defs>
    <g id="Page-1" stroke="none" stroke-width="1" fill="none" fill-rule="evenodd">
        <g id="CashiersCheque" fill-rule="nonzero" fill="#FFFFFF">
            <path d="M124.5,9.1 C123.4,4.6 119.7,1.2 115.1,0.5 C110.5,-0.2 106,1.9 103.6,5.9 L77.5,48.9 C72.6,56.9 70.4,66.3 71.1,75.7 C71.2,76.9 71.9,78 72.9,78.6 C73.9,79.2 75.2,79.3 76.3,78.8 C85,75.1 92.2,68.8 97.1,60.8 L116.7,28.5 L121.3,31.3 L110.7,48.8 C109.9,50.2 109.8,51.9 110.5,53.3 C111.2,54.7 112.6,55.7 114.2,55.9 C116,56.1 117.8,55.2 118.8,53.7 L129.6,35.9 C132.2,31.6 130.9,26.1 126.6,23.4 L121.7,20.4 L123.4,17.7 C124.8,15.1 125.2,12 124.5,9.1 L124.5,9.1 Z M107.6,71.2 C106.3,72.2 105.7,72.7 104.2,72.7 C102.6,72.7 102.1,72.2 100.8,71.2 C100.3,70.8 99.7,70.4 99.1,69.9 L99.1,69.9 C97.4,72.1 95.4,74.1 93.4,76 C94.3,76.2 95.2,76.7 95.9,77.4 C100.7,81.7 107.9,81.7 112.7,77.4 C114,76.4 114.6,75.9 116.1,75.9 C117.7,75.9 118.2,76.4 119.5,77.4 L119.5,77.4 C121.8,79.5 124.8,80.7 127.9,80.6 C130.1,80.6 131.9,78.8 131.9,76.6 C131.9,74.4 130.1,72.6 127.9,72.6 C126.3,72.6 125.8,72.1 124.5,71.1 C119.6,66.8 112.4,66.8 107.6,71.2 L107.6,71.2 Z M57.7,35.2 L77.5,35.2 L71.4,45.2 C69.7,48.1 68.2,51.1 67,54.2 L62.1,54.2 L62.1,87.3 L137.1,87.3 L137.1,54.2 L126.3,54.2 L135.2,39.5 L135.2,39.5 C136,38.2 136.6,36.7 137,35.2 L141.5,35.2 C144,35.2 146,37.2 146,39.7 L146,91.8 C146,93 145.5,94.1 144.7,95 C143.9,95.8 142.7,96.3 141.5,96.3 L57.5,96.3 C55,96.3 53,94.3 53,91.8 L53,39.7 C53,38.5 53.5,37.4 54.3,36.5 C55.4,35.7 56.6,35.2 57.7,35.2 L57.7,35.2 Z" id="Shape"></path>
            <g id="Group" transform="translate(0.000000, 98.000000)">
                <path d="M25.5,22.3 L35.1,25.2 C34.5,27.9 33.4,30.1 32.1,31.9 C30.7,33.7 29,35.1 27,36 C25,36.9 22.3,37.4 19.2,37.4 C15.4,37.4 12.2,36.8 9.8,35.7 C7.4,34.6 5.3,32.6 3.5,29.8 C1.7,27 0.8,23.4 0.8,19 C0.8,13.2 2.4,8.7 5.5,5.5 C8.6,2.4 13,0.8 18.7,0.8 C23.2,0.8 26.7,1.7 29.2,3.5 C31.7,5.3 33.6,8.1 34.9,11.8 L25.3,13.9 C25,12.8 24.6,12 24.2,11.5 C23.6,10.7 22.8,10 22,9.6 C21.1,9.2 20.1,8.9 19,8.9 C16.5,8.9 14.6,9.9 13.3,11.9 C12.3,13.4 11.8,15.7 11.8,18.9 C11.8,22.8 12.4,25.5 13.6,27 C14.8,28.5 16.5,29.2 18.6,29.2 C20.7,29.2 22.3,28.6 23.3,27.4 C24.2,26.2 25,24.5 25.5,22.3 Z" id="Shape"></path>
                <path d="M39.7,1.4 L49.5,1.4 L49.5,14.4 C50.8,13 52.2,12 53.5,11.4 C54.8,10.8 56.4,10.5 58.2,10.5 C60.9,10.5 63,11.3 64.5,12.9 C66,14.5 66.8,17 66.8,20.4 L66.8,36.7 L56.9,36.7 L56.9,22.6 C56.9,21 56.6,19.9 56,19.2 C55.4,18.5 54.6,18.2 53.5,18.2 C52.3,18.2 51.3,18.6 50.6,19.5 C49.9,20.4 49.5,22 49.5,24.3 L49.5,36.6 L39.7,36.6 L39.7,1.4 L39.7,1.4 Z" id="Shape"></path>
                <path d="M101.1,26.3 L81.4,26.3 C81.6,27.9 82,29 82.7,29.8 C83.6,30.9 84.9,31.5 86.4,31.5 C87.4,31.5 88.3,31.3 89.1,30.8 C89.6,30.5 90.2,30 90.8,29.2 L100.5,30.1 C99,32.7 97.2,34.5 95.1,35.6 C93,36.7 90,37.3 86.1,37.3 C82.7,37.3 80,36.8 78.1,35.9 C76.2,34.9 74.5,33.4 73.3,31.3 C72,29.2 71.4,26.8 71.4,24 C71.4,20 72.7,16.8 75.2,14.3 C77.8,11.8 81.3,10.6 85.8,10.6 C89.5,10.6 92.4,11.2 94.5,12.3 C96.6,13.4 98.2,15 99.3,17.1 C100.4,19.2 101,21.9 101,25.3 L101,26.3 L101.1,26.3 Z M91.1,21.6 C90.9,19.7 90.4,18.3 89.6,17.5 C88.8,16.7 87.7,16.3 86.3,16.3 C84.7,16.3 83.5,16.9 82.6,18.2 C82,19 81.6,20.1 81.5,21.6 L91.1,21.6 L91.1,21.6 Z" id="Shape"></path>
                <path d="M132.5,46.5 L122.6,46.5 L122.6,34.3 C121.6,35.3 120.5,36.1 119.3,36.6 C118.1,37.1 116.7,37.4 115.1,37.4 C112,37.4 109.4,36.3 107.4,34 C105.4,31.8 104.3,28.5 104.3,24.4 C104.3,21.6 104.8,19.1 105.7,17 C106.6,14.9 107.9,13.3 109.6,12.2 C111.3,11.1 113.1,10.6 115.1,10.6 C116.8,10.6 118.4,11 119.8,11.7 C120.9,12.3 122,13.3 123.3,14.9 L123.3,11.1 L132.5,11.1 L132.5,46.5 L132.5,46.5 Z M122.7,24 C122.7,21.8 122.3,20.2 121.5,19.2 C120.7,18.2 119.6,17.7 118.4,17.7 C117.2,17.7 116.2,18.2 115.4,19.2 C114.6,20.2 114.2,21.8 114.2,24.1 C114.2,26.1 114.6,27.6 115.4,28.6 C116.2,29.5 117.1,30 118.3,30 C119.6,30 120.7,29.5 121.5,28.5 C122.3,27.5 122.7,26 122.7,24 Z" id="Shape"></path>
                <path d="M165.5,36.7 L156.3,36.7 L156.3,32.6 C154.9,34.3 153.6,35.5 152.2,36.2 C150.8,36.9 149.1,37.3 147.1,37.3 C144.4,37.3 142.3,36.5 140.7,34.9 C139.2,33.3 138.4,30.8 138.4,27.4 L138.4,11.1 L148.3,11.1 L148.3,25.2 C148.3,26.8 148.6,27.9 149.2,28.6 C149.8,29.3 150.6,29.6 151.7,29.6 C152.9,29.6 153.8,29.2 154.6,28.3 C155.3,27.4 155.7,25.8 155.7,23.5 L155.7,11.2 L165.5,11.2 L165.5,36.7 L165.5,36.7 Z" id="Shape"></path>
                <path d="M199.9,26.3 L180.2,26.3 C180.4,27.9 180.8,29 181.5,29.8 C182.4,30.9 183.7,31.5 185.2,31.5 C186.2,31.5 187.1,31.3 187.9,30.8 C188.4,30.5 189,30 189.6,29.2 L199.3,30.1 C197.8,32.7 196,34.5 193.9,35.6 C191.8,36.7 188.8,37.3 184.9,37.3 C181.5,37.3 178.8,36.8 176.9,35.9 C175,34.9 173.3,33.4 172.1,31.3 C170.8,29.2 170.2,26.8 170.2,24 C170.2,20 171.5,16.8 174,14.3 C176.6,11.8 180.1,10.6 184.6,10.6 C188.3,10.6 191.2,11.2 193.3,12.3 C195.4,13.4 197,15 198.1,17.1 C199.2,19.2 199.8,21.9 199.8,25.3 L199.8,26.3 L199.9,26.3 Z M189.9,21.6 C189.7,19.7 189.2,18.3 188.4,17.5 C187.6,16.7 186.5,16.3 185.1,16.3 C183.5,16.3 182.3,16.9 181.4,18.2 C180.8,19 180.4,20.1 180.3,21.6 L189.9,21.6 L189.9,21.6 Z" id="Shape"></path>
            </g>
        </g>
    </g>
</svg>