<svg id="Layer_3" data-name="Layer 3" xmlns="http://www.w3.org/2000/svg" viewBox="0 0 169.77 179.39"><defs><style>.cls-1{fill:none;}.cls-2{fill:#fff;}</style></defs><rect class="cls-1" x="30.06" y="121.03" width="110.88" height="13.1"/><rect class="cls-2" x="71.72" y="147.22" width="53.28" height="7.74" rx="1"/><rect class="cls-2" x="71.72" y="160.19" width="53.28" height="7.74" rx="1"/><path class="cls-2" d="M192.4,296.35a2.27,2.27,0,0,0-.49-1.57,4.9,4.9,0,0,0-1.73-1.1,15.05,15.05,0,0,1-4.39-2.43,4.64,4.64,0,0,1-1.38-3.63,4.73,4.73,0,0,1,1.46-3.56,6.28,6.28,0,0,1,3.89-1.64v-2.7h2v2.75a5.51,5.51,0,0,1,4.95,5.88l0,.06h-4.23a3.34,3.34,0,0,0-.54-2.08,1.75,1.75,0,0,0-1.43-.68,1.61,1.61,0,0,0-1.35.56,2.27,2.27,0,0,0-.43,1.43,2.16,2.16,0,0,0,.46,1.44,5,5,0,0,0,1.75,1.11,16.39,16.39,0,0,1,4.37,2.53,4.63,4.63,0,0,1,1.39,3.6,4.75,4.75,0,0,1-1.4,3.58,6.1,6.1,0,0,1-3.77,1.6v2.58h-2v-2.59a7,7,0,0,1-4.13-1.73,5.46,5.46,0,0,1-1.58-4.37l0-.08h4.21a3.14,3.14,0,0,0,.69,2.28,2.38,2.38,0,0,0,1.79.7,1.74,1.74,0,0,0,1.39-.54A2,2,0,0,0,192.4,296.35Z" transform="translate(-131.76 -135.3)"/><path class="cls-2" d="M169.66,297a12.5,12.5,0,0,1-4.75,3.7A14.18,14.18,0,0,1,159,302a16.09,16.09,0,0,1-5.5-.94,13.28,13.28,0,0,1-4.49-2.69,12.61,12.61,0,0,1-3-4.2,14.15,14.15,0,0,1,0-10.94,12.61,12.61,0,0,1,3-4.2,13.28,13.28,0,0,1,4.49-2.69,16.09,16.09,0,0,1,5.5-.94,12.63,12.63,0,0,1,4.93.94,10.26,10.26,0,0,1,3.75,2.69,12,12,0,0,1,2.37,4.2,16.75,16.75,0,0,1,.84,5.47v2.45H152.71a6.16,6.16,0,0,0,2,3.57A5.71,5.71,0,0,0,158.6,296a5.88,5.88,0,0,0,3.26-.86,8.57,8.57,0,0,0,2.32-2.22ZM163,285.79a4.53,4.53,0,0,0-1.31-3.39,4.63,4.63,0,0,0-3.49-1.41,5.69,5.69,0,0,0-4,1.49,4.74,4.74,0,0,0-1.09,1.51,5,5,0,0,0-.45,1.8Z" transform="translate(-131.76 -135.3)"/><path class="cls-2" d="M218.63,165.53v9c2.73-.18,5.61-1.46,5.61-4.47s-3.15-4-5.61-4.56Zm0,0" transform="translate(-131.76 -135.3)"/><path class="cls-2" d="M210.78,154.71c0,2.29,1.69,3.6,5.12,4.3v-8.17c-3.12.09-5.12,1.91-5.12,3.87Zm0,0" transform="translate(-131.76 -135.3)"/><path class="cls-2" d="M217.17,135.3a27.6,27.6,0,1,0,27.59,27.6,27.64,27.64,0,0,0-27.59-27.6Zm1.46,43.92v2.83a1.37,1.37,0,1,1-2.73,0v-2.83c-7.71-.18-11.55-4.8-11.55-8.4a2.63,2.63,0,0,1,2.83-2.87c5.1,0,1.13,6.3,8.72,6.62V165c-6.77-1.23-10.86-4.2-10.86-9.26,0-6.21,5.15-9.4,10.86-9.58v-2.44a1.37,1.37,0,1,1,2.73,0v2.44c3.56.09,10.86,2.32,10.86,6.8a2.74,2.74,0,0,1-2.88,2.82c-3,0-2.93-4.88-8-5v8.67c6,1.28,11.36,3.05,11.36,10.09,0,6.11-4.57,9.21-11.36,9.62Zm0,0" transform="translate(-131.76 -135.3)"/><path class="cls-2" d="M147.75,273.68h-7.51V284H131.8v12.12l9.36-.09a17.94,17.94,0,0,1,6.38-22.21Zm116-20.5h5.58c2.6,0,4.34,1.33,4.34,4.34,0,2.34-.16,27.42-.16,38.48l28,0V283.93h-8.44V273.61h-9.58l0-54.59h9.58V208.1l-152.86.07v10.92h9.59l0,53.47.17-.11a17.87,17.87,0,0,1,7.52-1.66,17.16,17.16,0,0,1,2.89.24V257.6c0-1.46.48-4.42,4.49-4.42h4.71l0-34.1h18.18l0,34.11h19.71V219.06h18.19l0,34.13h19.77V219h18.17Z" transform="translate(-131.76 -135.3)"/><path class="cls-2" d="M252.22,169.08a36.36,36.36,0,0,1-71.61-.12l-.42-1.62-48.43,32.55V205l169.72-.08v-5.12l-48.59-32.6Z" transform="translate(-131.76 -135.3)"/><path class="cls-2" d="M172,311.92h92.66V269.44H172v4.82l.05.68c-.86-.7-2.91-2-2.91-2v-11h98.35V314.7H169.11v-9.86A17.47,17.47,0,0,0,172,303Z" transform="translate(-131.76 -135.3)"/></svg>