<?xml version="1.0" encoding="UTF-8"?>
<svg width="24" height="24" viewBox="0 0 24 24" xmlns="http://www.w3.org/2000/svg"><g fill-rule="nonzero" fill="#000"><path d="M18.837 6.289c.354 0 .454-.48.135-.625L6.493.132c-.76-.34-1.653 0-1.992.764L.13 10.693c-.339.759 0 1.653.764 1.992l2.517 1.089a.48.48 0 0 0 .674-.434V9.18a2.888 2.888 0 0 1 2.886-2.887h11.865V6.29z"/><path d="M7.034 10.813h14.31V9.21H7.035v1.603zm14.72-3.54H6.62c-.844 0-1.528.684-1.528 1.528v10.691c0 .844.684 1.528 1.528 1.528h2.033a5.54 5.54 0 0 1 .02-1.938H7.033v-5.118h14.31v5.113h-1.642c.06.335.094.675.094 1.024 0 .31-.024.614-.074.914h2.032c.844 0 1.528-.685 1.528-1.528V8.8c0-.844-.684-1.528-1.528-1.528z"/><path d="M16.38 19.038l-2.206 2.836a.63.63 0 0 1-.93.07l-1.417-1.338a.63.63 0 1 1 .865-.916l.913.863 1.78-2.29a.63.63 0 0 1 .994.775M14.107 16a3.925 3.925 0 1 0 0 7.851 3.925 3.925 0 0 0 0-7.851"/></g></svg>