<?xml version="1.0" encoding="UTF-8"?>
<svg width="15px" height="15px" viewBox="0 0 15 15" version="1.1" xmlns="http://www.w3.org/2000/svg" xmlns:xlink="http://www.w3.org/1999/xlink">
    <!-- Generator: Sketch 51.1 (57501) - http://www.bohemiancoding.com/sketch -->
    <title>Shape</title>
    <desc>Created with Sketch.</desc>
    <defs></defs>
    <g id="Join-V2" stroke="none" stroke-width="1" fill="none" fill-rule="evenodd">
        <g id="2.2_BOL_Signup_Deposit_Help" transform="translate(-360.000000, -109.000000)" fill="#90918D" fill-rule="nonzero">
            <g id="np_close_317769_000000" transform="translate(360.000000, 109.000000)">
                <path d="M8.74055556,7.5 L14.6475926,13.407037 C14.9991481,13.7585926 14.9991481,14.3141481 14.6475926,14.6476296 C14.296037,14.9991852 13.7404815,14.9991852 13.407,14.6476296 L7.49996296,8.74059259 L1.59292593,14.6483704 C1.24137037,14.9999259 0.685814815,14.9999259 0.352333333,14.6483704 C0.000777777778,14.2968148 0.000777777778,13.7412593 0.352333333,13.4077778 L6.25937037,7.50074074 L0.351592593,1.59296296 C3.7037037e-05,1.24140741 3.7037037e-05,0.685851852 0.351592593,0.35237037 C0.703148148,0.000814814815 1.2587037,0.000814814815 1.59218519,0.35237037 L7.49922222,6.25940741 L13.4062593,0.35237037 C13.7578148,0.000814814815 14.3133704,0.000814814815 14.6468519,0.35237037 C14.9984074,0.703925926 14.9984074,1.25948148 14.6468519,1.59296296 L8.74055556,7.5 Z" id="Shape"></path>
            </g>
        </g>
    </g>
</svg>