<?xml version="1.0" encoding="UTF-8"?>
<svg xmlns="http://www.w3.org/2000/svg" width="347.699" height="135.236" viewBox="0 0 347.699 135.236"><path fill="#FFF" d="M19.632 95.084c-7.103 0-12.636-2.235-16.001-6.463C.052 84.126-.904 77.683.866 69.989 4.429 54.498 16.378 43.68 29.922 43.68c5.693 0 9.99 1.771 12.77 5.263 4.924 6.186 3.264 15.545 2.638 18.266-.359 1.56-.79 2.8-1.104 3.705l-.371 1.082H10.699c-.839 4.582-.249 8.159 1.758 10.638 2.541 3.139 6.774 3.798 9.879 3.798 6.29 0 10.115-1.143 13.312-2.378l1.349-.521.067 8.286-.627.257c-3.358 1.371-8.998 3.008-16.805 3.008zm10.29-49.404c-12.607 0-23.754 10.181-27.107 24.757-1.629 7.079-.806 12.936 2.38 16.938 2.973 3.735 7.965 5.709 14.437 5.709 7.013 0 12.173-1.367 15.42-2.613l-.033-4.054c-3.032 1.062-6.938 2.015-12.684 2.015-5.077 0-9.031-1.57-11.434-4.54-2.519-3.113-3.193-7.522-2.002-13.105l.169-.792h33.359c.288-.833.652-1.922.954-3.235.576-2.501 2.113-11.086-2.254-16.572-2.381-2.991-6.151-4.508-11.205-4.508zm7.396 20.153H9.991l.458-1.326c1.878-5.446 7.651-14.664 17.371-14.664 3.667 0 6.422 1.145 8.189 3.403 3.037 3.881 2.059 9.564 1.498 11.828l-.189.759zm-24.47-2h22.887c.421-2.099.937-6.494-1.302-9.354-1.368-1.749-3.593-2.636-6.614-2.636-7.866 0-12.871 7.009-14.971 11.99zM82.167 91.344c-2.521 1.174-7.87 2.739-14.229 2.739-14.283 0-21.348-9.685-18.017-24.164 3.354-14.577 15.763-25.142 31.22-25.142 5.087 0 9.294 1.272 11.372 2.446l-3.487 6.652c-1.784-1.174-4.766-2.25-9.461-2.25-10.859 0-18.574 8.022-20.848 17.902-2.521 10.957 2.97 17.707 12.361 17.707 4.891 0 8.412-1.272 11.106-2.348l-.017 6.458zM105.821 23.646h8.608l-6.797 29.545h.196c1.932-2.446 4.58-4.598 7.559-6.065 2.881-1.467 6.139-2.446 9.367-2.446 6.359 0 15.633 3.913 11.874 20.251l-6.482 28.175h-8.608l6.257-27.197c1.756-7.631.404-14.088-7.716-14.088-5.576 0-10.879 3.914-13.525 8.609-.759 1.174-1.15 2.446-1.533 4.109l-6.572 28.566H89.84l15.981-69.459zM149.016 70.995c-2.483 11.642 3.849 16.436 12.458 16.436 6.163 0 10.128-1.076 13.672-2.446l.049 6.163c-3.348 1.37-8.893 2.935-16.426 2.935-14.577 0-21.078-9.588-17.791-23.871 3.286-14.283 14.288-25.533 28.082-25.533 15.457 0 16.437 13.598 14.434 22.305-.405 1.761-.916 3.131-1.216 4.011h-33.262zm26.658-6.162c1.358-5.479.968-13.99-8.716-13.99-8.707 0-14.368 8.023-16.426 13.99h25.142zM220.306 91.344c-2.521 1.174-7.87 2.739-14.229 2.739-14.283 0-21.348-9.685-18.017-24.164 3.354-14.577 15.763-25.142 31.22-25.142 5.087 0 9.294 1.272 11.372 2.446l-3.487 6.652c-1.784-1.174-4.765-2.25-9.461-2.25-10.859 0-18.574 8.022-20.848 17.902-2.521 10.957 2.97 17.707 12.361 17.707 4.891 0 8.412-1.272 11.106-2.348l-.017 6.458zM241.387 67.474h.196c1.556-1.663 3.692-3.717 5.444-5.38l17.651-16.338h10.369l-22.773 19.468 14.423 27.881h-10.468l-11.116-22.696-5.528 4.891-4.096 17.805h-8.511l15.981-69.459h8.511l-10.083 43.828z"/><path fill="#FFF" d="M234.701 0s77.586 19.54 74.713 64.943-102.299 71.264-175.862 62.644c0 0 116.667 25.287 180.46-16.092S350.793 14.368 234.701 0z"/></svg>