<?xml version="1.0" encoding="utf-8"?>
<!-- Generator: Adobe Illustrator 23.0.2, SVG Export Plug-In . SVG Version: 6.00 Build 0)  -->
<svg version="1.1" id="Layer_1" xmlns="http://www.w3.org/2000/svg" xmlns:xlink="http://www.w3.org/1999/xlink" x="0px" y="0px"  fill="#FFFFFF"
	 viewBox="0 0 301 247" style="enable-background:new 0 0 301 247;" xml:space="preserve">
<title>BTC CC Icon</title>
<desc>Created with Sketch.</desc>
<path d="M187.4,62L187.4,62c-2.6-10.3-17.8-4.8-22.8-3.6l4.3,17.5C173.9,74.7,189.8,71.9,187.4,62z"/>
<path d="M198.2,88.2c-2.8-11.3-21.1-4.9-27.1-3.4l4.8,19.3C181.8,102.5,200.9,99.1,198.2,88.2L198.2,88.2z"/>
<path id="Path" d="M32.2,90.2l0.3,0.1c0.4,0.1,0.8,0.1,1.1,0.1l0.5-0.1l0.6-0.1l0.3-0.1l0.7-0.1c0.3-0.1,0.6-0.2,1-0.4l0.4-0.2
	c0.4-0.2,0.8-0.5,1.2-0.8v-0.1c0.1-0.1,0.3-0.2,0.3-0.3l17.6-14.9c3.3-2.8,3.7-7.7,0.9-11c-2.8-3.3-7.7-3.7-11-0.9L40.7,66
	c1.3-9.1,5-17.7,10.8-24.8s13.4-12.5,22.1-15.6c2.1-0.6,3.9-2,4.8-3.9c1-1.9,1.1-4.1,0.4-6.2c-0.8-2-2.2-3.7-4.3-4.5
	c-2-0.9-4.3-0.8-6.2,0c-11,3.9-20.7,10.8-28.3,19.7C32.5,39.6,27.5,50.4,25.5,62l-1.9-2.3c-2.8-3.3-7.7-3.7-11-0.9
	c-3,2.8-3.3,7.5-0.6,10.6l15.3,18C28.6,88.9,30.3,89.9,32.2,90.2z"/>
<path d="M298.4,159.5l-17-16.5c-1.3-1.3-3.1-2.1-4.9-2.2h-0.3c-0.4,0-0.8,0-1.1,0l-0.5,0.1L274,141l-0.4,0.1l-0.6,0.2
	c-0.3,0.1-0.6,0.3-0.9,0.5l-0.4,0.2c-0.5,0.3-0.8,0.6-1.1,0.9v0.1c-0.2,0.1-0.3,0.2-0.3,0.3L254.1,160c-3,3.1-2.9,8,0.2,11
	c3.1,3,8,2.9,11-0.2l4.9-5.1c-0.4,9.2-3.4,18.1-8.5,25.7c-5.1,7.6-12.2,13.7-20.5,17.6c-2,0.8-3.4,2.3-4.2,4.3
	c-0.9,2-0.8,4.2,0.2,6.2c0.9,2,2.6,3.5,4.6,4.1c2,0.6,4.3,0.4,6.2-0.7c10.6-5,19.7-12.7,26.3-22.3c6.6-9.6,10.6-20.8,11.5-32.5
	l2.1,2.1c3.1,3,8,2.9,11-0.2C301.5,167.1,301.3,162.4,298.4,159.5z"/>
<path d="M175.8,0c-43.9,0-79.5,35.6-79.5,79.5c0,8.4,1.3,16.6,3.8,24.2h59.4l-9.4-38.2c-0.8-1.7-2.4-3.5-6-2.6
	c0.1-0.1-6.4,1.6-6.4,1.6l-2.3-9.4l17.8-4.5l-3.6-14.4l8.8-2.2l3.5,14.1c2.3-0.6,4.7-1.3,7-1.9l-3.5-14l8.8-2.2l3.6,14.4
	c11.6-1.9,21.5-0.7,25.1,9.5l0,0c2.6,7.4,0.6,12.8-3.9,16.6c8.9-0.1,15.4,3.5,17.1,14.9c1.5,9.8-2.6,15.8-10.1,20.2
	c2.5,1.1,4.9,2.7,6.9,4.7c4.3,4.3,6.6,10,6.5,16.1V146c21.7-14.2,36-38.7,36-66.5C255.3,35.6,219.7,0,175.8,0z"/>
<path d="M211.7,173.2v-26.8v-6.1v-13.7c0.1-8.3-6.6-15-14.9-15h-75.9H83.5H63.3h-2.2H23.8c-8.3,0-15.1,6.7-15.1,15v97.2
	c0,8.2,6.7,15,15,15h173.1c8.3,0,15-6.7,15-15L211.7,173.2L211.7,173.2z M27.4,135.3c0-1.3,1-2.3,2.3-2.3H74c1.2,0,2.3,1.1,2.3,2.3
	v19.8c0,1.2-1.1,2.3-2.3,2.3H29.7c-1.2,0-2.3-1-2.3-2.3V135.3z M62.3,212.8c0,1.2-1.1,2.3-2.3,2.3H29.7c-1.2,0-2.3-1.1-2.3-2.3v-4.6
	c0-1.2,1.1-2.3,2.3-2.3H60c1.3,0,2.3,1.1,2.3,2.3V212.8z M104.6,212.8c0,1.2-1.1,2.3-2.3,2.3H72c-1.2,0-2.3-1.1-2.3-2.3v-4.6
	c0-1.2,1.1-2.3,2.3-2.3h30.4c1.2,0,2.3,1,2.3,2.3L104.6,212.8L104.6,212.8z M146.9,212.8c0,1.2-1.1,2.3-2.3,2.3h-30.4
	c-1.2,0-2.3-1.1-2.3-2.3v-4.6c0-1.2,1.1-2.3,2.3-2.3h30.4c1.2,0,2.3,1,2.3,2.3V212.8z M189.2,212.8c0,1.2-1.1,2.3-2.3,2.3h-30.4
	c-1.2,0-2.3-1.1-2.3-2.3v-4.6c0-1.2,1.1-2.3,2.3-2.3h30.4c1.2,0,2.3,1,2.3,2.3V212.8z"/>
</svg>
