<?xml version="1.0" encoding="UTF-8"?>
<svg width="83px" height="53px" viewBox="0 0 83 53" version="1.1" xmlns="http://www.w3.org/2000/svg" xmlns:xlink="http://www.w3.org/1999/xlink">
    <!-- Generator: Sketch 45.1 (43504) - http://www.bohemiancoding.com/sketch -->
    <title>Shape</title>
    <desc>Created with Sketch.</desc>
    <defs></defs>
    <g id="Mobile" stroke="none" stroke-width="1" fill="none" fill-rule="evenodd">
        <g id="1.4_Deposit-Process-(bitcoin-&amp;-credit-card-inactive)" transform="translate(-224.000000, -342.000000)" fill-rule="nonzero" fill="#FFFFFF">
            <g id="Group" transform="translate(16.000000, 296.000000)">
                <g id="np_credit-card_849033_FFFFFF" transform="translate(208.000000, 46.000000)">
                    <path d="M4.94047619,0 C2.20394643,0 0,2.25412818 0,5.0529661 L0,8.08474576 L83,8.08474576 L83,5.0529661 C83,2.25412818 80.7960536,0 78.0595238,0 L4.94047619,0 Z M0,11.6779661 L0,17.9661017 L83,17.9661017 L83,11.6779661 L0,11.6779661 Z M0,21.559322 L0,48.0873941 C0,50.8084865 2.20394643,53 4.94047619,53 L78.0595238,53 C80.7960536,53 83,50.8084865 83,48.0873941 L83,21.559322 L0,21.559322 Z M57.3921405,29.6440678 C59.2289943,29.6440678 60.9406125,30.3178 62.280313,31.4406331 C63.6086462,30.3453657 65.2861622,29.6755369 67.1078595,29.6755369 C71.3774323,29.6755369 74.8804348,33.3121394 74.8804348,37.7445481 C74.8804348,42.1769568 71.3774323,45.8135593 67.1078595,45.8135593 C65.2710057,45.8135593 63.5821222,45.1358834 62.25,44.016994 C60.9140886,45.1320305 59.2214161,45.8135593 57.3921405,45.8135593 C53.1225677,45.8135593 49.6195652,42.1769568 49.6195652,37.7445481 C49.6195652,33.3121394 53.1225677,29.6440678 57.3921405,29.6440678 Z M57.2880435,33.2372881 C55.0202489,33.2372881 53.2282609,35.0285776 53.2282609,37.295488 C53.2282609,39.5623984 55.0202489,41.3220339 57.2880435,41.3220339 C59.555838,41.3220339 61.3478261,39.5623984 61.3478261,37.295488 C61.3478261,35.0285776 59.555838,33.2372881 57.2880435,33.2372881 Z M67.4407358,33.2373892 C66.4867298,33.2373892 65.6262769,33.6203131 64.9565217,34.2164014 C65.3269031,35.1598811 65.5251863,36.2020149 65.5251863,37.2797115 C65.5251863,38.3652908 65.3306479,39.3916493 64.9565217,40.3430217 C65.6262003,40.9509542 66.4867202,41.3220339 67.4407358,41.3220339 C69.5807343,41.3220339 71.2717391,39.5377305 71.2717391,37.279661 C71.2717391,35.0215915 69.5807343,33.2372881 67.4407358,33.2372881 L67.4407358,33.2373892 Z" id="Shape"></path>
                </g>
            </g>
        </g>
    </g>
</svg>