<?xml version="1.0" encoding="UTF-8"?>
<svg width="44px" height="58px" viewBox="0 0 44 58" version="1.1" xmlns="http://www.w3.org/2000/svg" xmlns:xlink="http://www.w3.org/1999/xlink">
    <!-- Generator: Sketch 45.2 (43514) - http://www.bohemiancoding.com/sketch -->
    <title>7-Eleven</title>
    <desc>Created with Sketch.</desc>
    <defs></defs>
    <g id="Page-1" stroke="none" stroke-width="1" fill="none" fill-rule="evenodd">
        <g id="7-Eleven" fill-rule="nonzero" fill="#FFFFFF">
            <path d="M16.75,28.3443478 L31.4,28.3443478 C33.4,21.1826087 37.05,16.4921739 43.1,14.626087 L43.1,0.302608696 C26.95,7.76695652 19.95,16.5930435 16.75,28.3443478 L16.75,28.3443478 Z" id="Shape"></path>
            <path d="M29.5,41.0034783 L14.6,41.0034783 C14.1,46.0973913 13.85,51.5947826 13.6,57.6973913 L29.35,57.6973913 C29.15,51.5443478 29.15,45.946087 29.5,41.0034783 L29.5,41.0034783 Z" id="Shape"></path>
            <path d="M21.5,14.0208696 L1.2,14.0208696 L1.2,0.655652174 L37.8,0.655652174 C31.1,4.13565217 25.7,8.57391304 21.5,14.0208696 L21.5,14.0208696 Z" id="Shape"></path>
            <path d="M43.6,31.6226087 L43.6,39.7930435 L40.75,39.7930435 L40.75,32.5808696 C40.75,31.8747826 40.25,31.4713043 39.7,31.4713043 C39.2,31.4713043 38.65,31.8243478 38.65,32.5808696 L38.65,39.7930435 L35.75,39.7930435 L35.75,29.6052174 L38.65,29.6052174 L39.1,30.3617391 C39.7,29.6052174 40.3,29.2521739 41.5,29.2521739 C43,29.2017391 43.6,30.5634783 43.6,31.6226087 L43.6,31.6226087 Z" id="Shape"></path>
            <path d="M25.6,39.7930435 L21.1,39.7930435 L19.5,29.6052174 L22.6,29.6052174 L23.55,35.9095652 C23.65,36.4643478 24.05,36.4643478 24.15,35.9095652 L25.4,29.6052174 L27.5,29.6052174 L25.6,39.7930435 L25.6,39.7930435 Z" id="Shape"></path>
            <polygon id="Shape" points="12.2 37.9269565 10 37.9269565 10 29.6052174 7.1 29.6052174 7.1 39.7930435 12.2 39.7930435"></polygon>
            <polygon id="Shape" points="31.4 33.5895652 33.95 33.5895652 33.95 35.506087 31.4 35.506087 31.4 37.9269565 34 37.9269565 34 39.7930435 28.55 39.7930435 28.55 29.6052174 34 29.6052174 34 31.4713043 31.4 31.4713043"></polygon>
            <polygon id="Shape" points="16.05 33.5895652 18.6 33.5895652 18.6 35.506087 16.05 35.506087 16.05 37.9269565 18.65 37.9269565 18.65 39.7930435 13.2 39.7930435 13.2 29.6052174 18.65 29.6052174 18.65 31.4713043 16.05 31.4713043"></polygon>
            <polygon id="Shape" points="3.05 33.5895652 5.6 33.5895652 5.6 35.506087 3.05 35.506087 3.05 37.9269565 5.6 37.9269565 5.6 39.7930435 0.15 39.7930435 0.15 29.6052174 5.6 29.6052174 5.6 31.4713043 3.05 31.4713043"></polygon>
            <path d="M33.05,41.6086957 C32.2,41.6086957 31.5,42.3147826 31.5,43.1721739 C31.5,44.0295652 32.2,44.7356522 33.05,44.7356522 C33.9,44.7356522 34.6,44.0295652 34.6,43.1721739 C34.6,42.3147826 33.9,41.6086957 33.05,41.6086957 Z M33.05,44.533913 C32.3,44.533913 31.7,43.9286957 31.7,43.1721739 C31.7,42.4156522 32.3,41.8104348 33.05,41.8104348 C33.8,41.76 34.4,42.4156522 34.4,43.1721739 C34.4,43.9286957 33.8,44.533913 33.05,44.533913 Z" id="Shape"></path>
            <path d="M33.7,43.5252174 C33.7,43.2226087 33.65,43.2226087 33.5,43.0713043 C33.65,42.9704348 33.75,42.8695652 33.7,42.6173913 C33.7,42.213913 33.4,42.1634783 33.15,42.1634783 L32.4,42.1634783 L32.4,43.9791304 L32.45,43.9791304 L32.65,43.9791304 L32.65,43.2226087 L33.2,43.2226087 C33.55,43.2226087 33.45,43.5252174 33.5,43.7269565 L33.55,43.9286957 L33.8,43.9286957 C33.7,43.7773913 33.75,43.7269565 33.7,43.5252174 Z M33.2,42.9704348 L32.65,42.9704348 L32.65,42.3652174 L33.2,42.3652174 C33.35,42.3652174 33.55,42.4156522 33.5,42.7182609 C33.5,42.92 33.35,42.9704348 33.2,42.9704348 Z" id="Shape"></path>
        </g>
    </g>
</svg>