<?xml version="1.0" encoding="UTF-8"?>
<svg width="238px" height="42px" viewBox="0 0 238 42" version="1.1" xmlns="http://www.w3.org/2000/svg" xmlns:xlink="http://www.w3.org/1999/xlink">
    <!-- Generator: Sketch 45.2 (43514) - http://www.bohemiancoding.com/sketch -->
    <title>neteller-logo</title>
    <desc>Created with Sketch.</desc>
    <defs></defs>
    <g id="Page-1" stroke="none" stroke-width="1" fill="none" fill-rule="evenodd">
        <g id="neteller-logo" fill-rule="nonzero" fill="#FFFFFF">
            <path d="M209.8,17.9 C208.5,18.8 206.7,19.2 204.1,19.2 L203,19.2 L201.6,19.2 L203.5,8.8 L204.5,8.8 L205.4,8.8 C207.5,8.8 209,9.1 210.1,9.8 C210.9,10.3 211.9,11.4 211.9,13.4 C211.9,15.9 210.8,17.2 209.8,17.9 L209.8,17.9 Z M60.2,30.9 L40.7,30.9 L42,24.1 L54.2,24.1 L55.6,16.4 L43.5,16.4 L44.7,9.7 L64,9.7 L60.2,30.9 Z M220.3,3.9 C217.4,1.9 213.1,1 207.5,1 L192.7,1 L187.2,30.9 L167.8,30.9 L169,24.1 L180.7,24.1 L182.1,16.5 L170.4,16.5 L171.7,9.7 L183.8,9.7 L185.4,0.9 L160.9,0.9 L155.7,29.3 L146.7,29.3 L152,0.9 L139,0.9 L133.8,29.3 L125,29.3 L130.3,0.9 L117.5,0.9 L112,30.9 L92.4,30.9 L93.6,24.1 L105.4,24.1 L106.8,16.5 L95.1,16.5 L96.3,9.7 L108.5,9.7 L110.1,0.9 L33.8,0.9 L29.5,24.6 L20.8,1 L7.5,1 L0.3,39.7 L13,39.7 L17.3,15.3 L25.7,39.7 L71.2,39.7 L76.7,9.8 L83.8,9.8 L78.3,39.7 L197.9,39.7 L201.4,20.8 L207,39.7 L219.7,39.7 L213.9,24.3 L215.2,24 C218.1,23.4 220.4,22 222,20 C223.6,18 224.4,15.3 224.4,12.2 C224.4,8.5 223.1,5.8 220.3,3.9 L220.3,3.9 Z" id="Shape"></path>
            <path d="M230.7,35.1 L232.4,35 C232.8,35 233.1,34.9 233.3,34.8 C233.5,34.7 233.7,34.6 233.8,34.4 C233.9,34.2 233.9,34 233.9,33.8 C233.9,33.5 233.8,33.3 233.6,33.1 C233.4,32.9 233,32.9 232.6,32.9 L230.7,33 L230.7,35.1 Z M230.1,38.5 L229.8,32.4 L232.5,32.3 C233,32.3 233.5,32.3 233.7,32.4 C234,32.5 234.2,32.7 234.4,32.9 C234.6,33.2 234.7,33.5 234.7,33.8 C234.7,34.2 234.6,34.6 234.3,34.9 C234,35.2 233.6,35.4 233,35.5 C233.2,35.6 233.4,35.7 233.5,35.8 C233.7,36 234,36.3 234.2,36.6 L235.3,38.2 L234.3,38.3 L233.4,37.1 C233.1,36.7 232.9,36.5 232.8,36.3 C232.6,36.1 232.5,36 232.4,35.9 C232.3,35.8 232.1,35.8 232,35.8 C231.9,35.8 231.8,35.8 231.5,35.8 L230.6,35.8 L230.7,38.5 L230.1,38.5 Z" id="Shape"></path>
            <path d="M227.5,35.6 C227.4,34.3 227.9,33.1 228.7,32.2 C229.5,31.3 230.7,30.7 232,30.6 C234.6,30.5 236.8,32.5 237,35.1 C237,35.2 237,35.3 237,35.3 C237,37.8 235,39.9 232.5,40 C229.8,40.2 227.6,38.2 227.5,35.6 M231.9,29.7 C230.4,29.8 229,30.4 228,31.6 C227,32.7 226.5,34.2 226.5,35.7 C226.7,38.8 229.3,41.2 232.5,41.1 C235.6,40.9 238.1,38.3 237.9,35.1 L237.9,35.1 C237.7,31.9 235,29.5 231.9,29.7" id="Shape"></path>
        </g>
    </g>
</svg>