<svg xmlns="http://www.w3.org/2000/svg" xmlns:xlink="http://www.w3.org/1999/xlink" width="246.906" height="247" viewBox="0 0 246.906 247">
  <defs>
    <clipPath id="a" transform="translate(-2.999 -3)">
      <path d="M126.5,3A123.5,123.5,0,1,0,249.905,126.5,123.483,123.483,0,0,0,126.5,3Zm0,218.587A95.087,95.087,0,1,1,221.492,126.5,95.089,95.089,0,0,1,126.5,221.587Z" fill="#ffffff"/>
    </clipPath>
  </defs>
  <title>BitcoinGold_Icon</title>
  <g>
    <path d="M161.344,122.673a26.645,26.645,0,0,0,5.572-16.335,26.372,26.372,0,0,0-24.381-26.269V67.141h-12.1V79.988H122V67.141H109.9V79.988H80.925L88.333,94.8h8.533v61.7h-8.44l-7.408,14.816H109.9V183.7H122V171.324h8.44V183.7h12.1V171.324h4.5a26.463,26.463,0,0,0,14.308-48.651Zm-20.685-4.613H111.683V94.8h28.976a11.628,11.628,0,1,1,0,23.256Zm6.377,15.191a11.628,11.628,0,0,1,0,23.256H111.683V133.252Z" transform="translate(-2.999 -3)" fill="#ffffff"/>
    <path d="M126.5,42.385A84.115,84.115,0,1,0,210.614,126.5,84.163,84.163,0,0,0,126.5,42.385Zm0,159.79A75.675,75.675,0,1,1,202.174,126.5,75.759,75.759,0,0,1,126.5,202.175Z" transform="translate(-2.999 -3)" fill="#ffffff"/>
    <g>
      <path d="M126.5,3A123.5,123.5,0,1,0,249.905,126.5,123.483,123.483,0,0,0,126.5,3Zm0,218.587A95.087,95.087,0,1,1,221.492,126.5,95.089,95.089,0,0,1,126.5,221.587Z" transform="translate(-2.999 -3)" fill="#ffffff"/>
      <g clip-path="url(#a)">
        <polygon points="49.978 28.413 28.413 42.663 28.413 28.413 49.978 28.413" fill="#ffffff"/>
        <polygon points="55.575 28.413 28.413 46.361 28.413 42.663 49.978 28.413 55.575 28.413" fill="#ffffff"/>
        <polygon points="61.171 28.413 28.413 50.059 28.413 46.361 55.575 28.413 61.171 28.413" fill="#ffffff"/>
        <polygon points="66.768 28.413 28.413 53.757 28.413 50.059 61.171 28.413 66.768 28.413" fill="#ffffff"/>
        <polygon points="72.365 28.413 28.413 57.455 28.413 53.757 66.768 28.413 72.365 28.413" fill="#ffffff"/>
        <polygon points="77.961 28.413 28.413 61.154 28.413 57.455 72.365 28.413 77.961 28.413" fill="#ffffff"/>
        <polygon points="83.558 28.413 28.413 64.852 28.413 61.154 77.961 28.413 83.558 28.413" fill="#ffffff"/>
        <polygon points="89.155 28.413 28.413 68.55 28.413 64.852 83.558 28.413 89.155 28.413" fill="#ffffff"/>
        <polygon points="94.751 28.413 28.413 72.248 28.413 68.55 89.155 28.413 94.751 28.413" fill="#ffffff"/>
        <polygon points="100.348 28.413 28.413 75.946 28.413 72.248 94.751 28.413 100.348 28.413" fill="#ffffff"/>
        <polygon points="105.945 28.413 28.413 79.644 28.413 75.946 100.348 28.413 105.945 28.413" fill="#ffffff"/>
        <polygon points="111.541 28.413 28.413 83.343 28.413 79.644 105.945 28.413 111.541 28.413" fill="#ffffff"/>
        <polygon points="117.138 28.413 28.413 87.041 28.413 83.343 111.541 28.413 117.138 28.413" fill="#ffffff"/>
        <polygon points="122.735 28.413 28.413 90.739 28.413 87.041 117.138 28.413 122.735 28.413" fill="#ffffff"/>
        <polygon points="128.332 28.413 28.413 94.437 28.413 90.739 122.735 28.413 128.332 28.413" fill="#ffffff"/>
        <polygon points="133.928 28.413 28.413 98.135 28.413 94.437 128.332 28.413 133.928 28.413" fill="#ffffff"/>
        <polygon points="139.525 28.413 28.413 101.833 28.413 98.135 133.928 28.413 139.525 28.413" fill="#ffffff"/>
        <polygon points="145.122 28.413 28.413 105.531 28.413 101.833 139.525 28.413 145.122 28.413" fill="#ffffff"/>
        <polygon points="150.718 28.413 28.413 109.23 28.413 105.531 145.122 28.413 150.718 28.413" fill="#ffffff"/>
        <polygon points="156.315 28.413 28.413 112.928 28.413 109.23 150.718 28.413 156.315 28.413" fill="#ffffff"/>
        <polygon points="161.912 28.413 28.413 116.626 28.413 112.928 156.315 28.413 161.912 28.413" fill="#ffffff"/>
        <polygon points="167.508 28.413 28.413 120.324 28.413 116.626 161.912 28.413 167.508 28.413" fill="#ffffff"/>
        <polygon points="173.105 28.413 28.413 124.022 28.413 120.324 167.508 28.413 173.105 28.413" fill="#ffffff"/>
        <polygon points="178.702 28.413 28.413 127.72 28.413 124.022 173.105 28.413 178.702 28.413" fill="#ffffff"/>
        <polygon points="184.298 28.413 28.413 131.419 28.413 127.72 178.702 28.413 184.298 28.413" fill="#ffffff"/>
        <polygon points="189.895 28.413 28.413 135.117 28.413 131.419 184.298 28.413 189.895 28.413" fill="#ffffff"/>
        <polygon points="192.609 28.413 193.485 29.739 28.413 138.815 28.413 135.117 189.895 28.413 192.609 28.413" fill="#ffffff"/>
        <polygon points="193.485 29.739 195.186 32.313 28.413 142.513 28.413 138.815 193.485 29.739" fill="#ffffff"/>
        <polygon points="195.186 32.313 196.887 34.888 28.413 146.211 28.413 142.513 195.186 32.313" fill="#ffffff"/>
        <polygon points="196.887 34.888 198.588 37.462 28.413 149.909 28.413 146.211 196.887 34.888" fill="#ffffff"/>
        <polygon points="198.588 37.462 200.289 40.036 28.413 153.608 28.413 149.909 198.588 37.462" fill="#ffffff"/>
        <polygon points="200.289 40.036 201.99 42.61 28.413 157.306 28.413 153.608 200.289 40.036" fill="#ffffff"/>
        <polygon points="201.99 42.61 203.691 45.184 28.413 161.004 28.413 157.306 201.99 42.61" fill="#ffffff"/>
        <polygon points="203.691 45.184 205.392 47.759 28.413 164.702 28.413 161.004 203.691 45.184" fill="#ffffff"/>
        <polygon points="205.392 47.759 207.093 50.333 28.413 168.4 28.413 164.702 205.392 47.759" fill="#ffffff"/>
        <polygon points="207.093 50.333 208.794 52.907 28.413 172.098 28.413 168.4 207.093 50.333" fill="#ffffff"/>
        <polygon points="208.794 52.907 210.495 55.481 28.413 175.796 28.413 172.098 208.794 52.907" fill="#ffffff"/>
        <polygon points="210.495 55.481 212.196 58.055 28.45 179.471 28.413 179.415 28.413 175.796 210.495 55.481" fill="#ffffff"/>
        <rect x="14.054" y="121.507" width="220.237" height="3.085" transform="translate(-50.262 85.843) rotate(-33.456)" fill="#ffffff"/>
        <rect x="15.755" y="124.082" width="220.237" height="3.085" transform="translate(-51.399 87.208) rotate(-33.456)" fill="#ffffff"/>
        <rect x="17.456" y="126.656" width="220.237" height="3.085" transform="translate(-52.536 88.572) rotate(-33.456)" fill="#ffffff"/>
        <polygon points="217.299 65.778 218.493 67.585 218.493 68.687 35.254 189.767 33.553 187.193 217.299 65.778" fill="#ffffff"/>
        <polygon points="218.493 72.385 36.955 192.341 35.254 189.767 218.493 68.687 218.493 72.385" fill="#ffffff"/>
        <polygon points="218.493 76.084 38.656 194.916 36.955 192.341 218.493 72.385 218.493 76.084" fill="#ffffff"/>
        <polygon points="218.493 79.782 40.357 197.49 38.656 194.916 218.493 76.084 218.493 79.782" fill="#ffffff"/>
        <polygon points="218.493 83.48 42.058 200.064 40.357 197.49 218.493 79.782 218.493 83.48" fill="#ffffff"/>
        <polygon points="218.493 87.178 43.759 202.638 42.058 200.064 218.493 83.48 218.493 87.178" fill="#ffffff"/>
        <polygon points="218.493 90.876 45.46 205.212 43.759 202.638 218.493 87.178 218.493 90.876" fill="#ffffff"/>
        <polygon points="218.493 94.574 47.161 207.787 45.46 205.212 218.493 90.876 218.493 94.574" fill="#ffffff"/>
        <polygon points="218.493 98.273 48.862 210.361 47.161 207.787 218.493 94.574 218.493 98.273" fill="#ffffff"/>
        <polygon points="218.493 101.971 50.563 212.935 48.862 210.361 218.493 98.273 218.493 101.971" fill="#ffffff"/>
        <polygon points="218.493 105.669 52.264 215.509 50.563 212.935 218.493 101.971 218.493 105.669" fill="#ffffff"/>
        <polygon points="218.493 109.367 53.965 218.083 52.264 215.509 218.493 105.669 218.493 109.367" fill="#ffffff"/>
        <polygon points="218.493 113.065 58.8 218.587 54.297 218.587 53.965 218.083 218.493 109.367 218.493 113.065" fill="#ffffff"/>
        <polygon points="218.493 116.763 64.397 218.587 58.8 218.587 218.493 113.065 218.493 116.763" fill="#ffffff"/>
        <polygon points="218.493 120.461 69.993 218.587 64.397 218.587 218.493 116.763 218.493 120.461" fill="#ffffff"/>
        <polygon points="218.493 124.16 75.59 218.587 69.993 218.587 218.493 120.461 218.493 124.16" fill="#ffffff"/>
        <polygon points="218.493 127.858 81.187 218.587 75.59 218.587 218.493 124.16 218.493 127.858" fill="#ffffff"/>
        <polygon points="218.493 131.556 86.783 218.587 81.187 218.587 218.493 127.858 218.493 131.556" fill="#ffffff"/>
        <polygon points="218.493 135.254 92.38 218.587 86.783 218.587 218.493 131.556 218.493 135.254" fill="#ffffff"/>
        <polygon points="218.493 138.952 97.977 218.587 92.38 218.587 218.493 135.254 218.493 138.952" fill="#ffffff"/>
        <polygon points="218.493 142.65 103.573 218.587 97.977 218.587 218.493 138.952 218.493 142.65" fill="#ffffff"/>
        <polygon points="218.493 146.349 109.17 218.587 103.573 218.587 218.493 142.65 218.493 146.349" fill="#ffffff"/>
        <polygon points="218.493 150.047 114.767 218.587 109.17 218.587 218.493 146.349 218.493 150.047" fill="#ffffff"/>
        <polygon points="218.493 153.745 120.363 218.587 114.767 218.587 218.493 150.047 218.493 153.745" fill="#ffffff"/>
        <polygon points="218.493 157.443 125.96 218.587 120.363 218.587 218.493 153.745 218.493 157.443" fill="#ffffff"/>
        <polygon points="218.493 161.141 131.557 218.587 125.96 218.587 218.493 157.443 218.493 161.141" fill="#ffffff"/>
        <polygon points="218.493 164.839 137.153 218.587 131.557 218.587 218.493 161.141 218.493 164.839" fill="#ffffff"/>
        <polygon points="218.493 168.538 142.75 218.587 137.153 218.587 218.493 164.839 218.493 168.538" fill="#ffffff"/>
        <polygon points="218.493 172.236 148.347 218.587 142.75 218.587 218.493 168.538 218.493 172.236" fill="#ffffff"/>
        <polygon points="218.493 175.934 153.944 218.587 148.347 218.587 218.493 172.236 218.493 175.934" fill="#ffffff"/>
        <polygon points="218.493 179.632 159.54 218.587 153.944 218.587 218.493 175.934 218.493 179.632" fill="#ffffff"/>
        <polygon points="218.493 183.33 165.137 218.587 159.54 218.587 218.493 179.632 218.493 183.33" fill="#ffffff"/>
        <polygon points="218.493 187.028 170.734 218.587 165.137 218.587 218.493 183.33 218.493 187.028" fill="#ffffff"/>
        <polygon points="218.493 190.727 176.33 218.587 170.734 218.587 218.493 187.028 218.493 190.727" fill="#ffffff"/>
        <polygon points="218.493 194.425 181.927 218.587 176.33 218.587 218.493 190.727 218.493 194.425" fill="#ffffff"/>
        <polygon points="218.493 198.123 187.524 218.587 181.927 218.587 218.493 194.425 218.493 198.123" fill="#ffffff"/>
        <polygon points="218.493 201.821 193.12 218.587 187.524 218.587 218.493 198.123 218.493 201.821" fill="#ffffff"/>
        <polygon points="218.493 205.519 198.717 218.587 193.12 218.587 218.493 201.821 218.493 205.519" fill="#ffffff"/>
        <polygon points="218.493 209.217 204.314 218.587 198.717 218.587 218.493 205.519 218.493 209.217" fill="#ffffff"/>
        <polygon points="218.493 212.915 209.91 218.587 204.314 218.587 218.493 209.217 218.493 212.915" fill="#ffffff"/>
        <polygon points="218.493 216.614 215.507 218.587 209.91 218.587 218.493 212.915 218.493 216.614" fill="#ffffff"/>
        <polygon points="215.507 218.587 218.493 216.614 218.493 218.587 215.507 218.587" fill="#ffffff"/>
        <polygon points="92.978 0 0 61.438 0 0 92.978 0" fill="#ffffff"/>
        <polygon points="98.575 0 0 65.136 0 61.438 92.978 0 98.575 0" fill="#ffffff"/>
        <polygon points="104.171 0 0 68.834 0 65.136 98.575 0 104.171 0" fill="#ffffff"/>
        <polygon points="109.768 0 0 72.532 0 68.834 104.171 0 109.768 0" fill="#ffffff"/>
        <polygon points="115.365 0 0 76.23 0 72.532 109.768 0 115.365 0" fill="#ffffff"/>
        <polygon points="120.961 0 0 79.929 0 76.23 115.365 0 120.961 0" fill="#ffffff"/>
        <polygon points="126.558 0 0 83.627 0 79.929 120.961 0 126.558 0" fill="#ffffff"/>
        <polygon points="132.155 0 0 87.325 0 83.627 126.558 0 132.155 0" fill="#ffffff"/>
        <polygon points="137.751 0 0 91.023 0 87.325 132.155 0 137.751 0" fill="#ffffff"/>
        <polygon points="143.348 0 0 94.721 0 91.023 137.751 0 143.348 0" fill="#ffffff"/>
        <polygon points="148.945 0 0 98.419 0 94.721 143.348 0 148.945 0" fill="#ffffff"/>
        <polygon points="154.542 0 0 102.117 0 98.419 148.945 0 154.542 0" fill="#ffffff"/>
        <polygon points="160.138 0 0 105.816 0 102.117 154.542 0 160.138 0" fill="#ffffff"/>
        <polygon points="165.735 0 0 109.514 0 105.816 160.138 0 165.735 0" fill="#ffffff"/>
        <polygon points="171.332 0 0 113.212 0 109.514 165.735 0 171.332 0" fill="#ffffff"/>
        <polygon points="176.928 0 0 116.91 0 113.212 171.332 0 176.928 0" fill="#ffffff"/>
        <polygon points="182.525 0 0 120.608 0 116.91 176.928 0 182.525 0" fill="#ffffff"/>
        <polygon points="188.122 0 0 124.306 0 120.608 182.525 0 188.122 0" fill="#ffffff"/>
        <polygon points="193.718 0 0 128.005 0 124.306 188.122 0 193.718 0" fill="#ffffff"/>
        <polygon points="199.315 0 0 131.703 0 128.005 193.718 0 199.315 0" fill="#ffffff"/>
        <polygon points="204.912 0 0 135.401 0 131.703 199.315 0 204.912 0" fill="#ffffff"/>
        <polygon points="210.508 0 0 139.099 0 135.401 204.912 0 210.508 0" fill="#ffffff"/>
        <polygon points="212.596 0 213.662 1.614 0 142.797 0 139.099 210.508 0 212.596 0" fill="#ffffff"/>
        <polygon points="213.662 1.614 215.363 4.188 0 146.495 0 142.797 213.662 1.614" fill="#ffffff"/>
        <polygon points="215.363 4.188 217.064 6.763 0 150.194 0 146.495 215.363 4.188" fill="#ffffff"/>
        <polygon points="217.064 6.763 218.765 9.337 0 153.892 0 150.194 217.064 6.763" fill="#ffffff"/>
        <polygon points="218.765 9.337 220.466 11.911 0 157.59 0 153.892 218.765 9.337" fill="#ffffff"/>
        <polygon points="220.466 11.911 222.167 14.485 0 161.288 0 157.59 220.466 11.911" fill="#ffffff"/>
        <polygon points="222.167 14.485 223.868 17.059 0 164.986 0 161.288 222.167 14.485" fill="#ffffff"/>
        <polygon points="223.868 17.059 225.569 19.634 0 168.684 0 164.986 223.868 17.059" fill="#ffffff"/>
        <polygon points="225.569 19.634 227.27 22.208 0 172.382 0 168.684 225.569 19.634" fill="#ffffff"/>
        <polygon points="227.27 22.208 228.971 24.782 0 176.081 0 172.382 227.27 22.208" fill="#ffffff"/>
        <polygon points="228.971 24.782 230.672 27.356 0 179.779 0 176.081 228.971 24.782" fill="#ffffff"/>
        <polygon points="230.672 27.356 232.373 29.93 0 183.477 0 179.779 230.672 27.356" fill="#ffffff"/>
        <polygon points="232.373 29.93 234.074 32.505 0 187.175 0 183.477 232.373 29.93" fill="#ffffff"/>
        <polygon points="234.074 32.505 235.775 35.079 0 190.873 0 187.175 234.074 32.505" fill="#ffffff"/>
        <polygon points="235.775 35.079 237.476 37.653 0 194.571 0 190.873 235.775 35.079" fill="#ffffff"/>
        <polygon points="237.476 37.653 239.177 40.227 1.469 197.299 0 195.075 0 194.571 237.476 37.653" fill="#ffffff"/>
        <rect x="-18.285" y="121.507" width="284.915" height="3.085" transform="translate(-50.262 85.843) rotate(-33.456)" fill="#ffffff"/>
        <rect x="-16.584" y="124.082" width="284.915" height="3.085" transform="translate(-51.399 87.208) rotate(-33.456)" fill="#ffffff"/>
        <rect x="-14.883" y="126.656" width="284.915" height="3.085" transform="translate(-52.536 88.572) rotate(-33.456)" fill="#ffffff"/>
        <rect x="-13.182" y="129.23" width="284.915" height="3.085" transform="translate(-53.674 89.936) rotate(-33.456)" fill="#ffffff"/>
        <polygon points="245.981 50.524 246.906 51.925 246.906 53.61 9.974 210.17 8.273 207.596 245.981 50.524" fill="#ffffff"/>
        <polygon points="246.906 57.309 11.675 212.744 9.974 210.17 246.906 53.61 246.906 57.309" fill="#ffffff"/>
        <polygon points="246.906 61.007 13.376 215.318 11.675 212.744 246.906 57.309 246.906 61.007" fill="#ffffff"/>
        <polygon points="246.906 64.705 15.077 217.892 13.376 215.318 246.906 61.007 246.906 64.705" fill="#ffffff"/>
        <polygon points="246.906 68.403 16.778 220.467 15.077 217.892 246.906 64.705 246.906 68.403" fill="#ffffff"/>
        <polygon points="246.906 72.101 18.479 223.041 16.778 220.467 246.906 68.403 246.906 72.101" fill="#ffffff"/>
        <polygon points="246.906 75.799 20.18 225.615 18.479 223.041 246.906 72.101 246.906 75.799" fill="#ffffff"/>
        <polygon points="246.906 79.498 21.881 228.189 20.18 225.615 246.906 75.799 246.906 79.498" fill="#ffffff"/>
        <polygon points="246.906 83.196 23.582 230.763 21.881 228.189 246.906 79.498 246.906 83.196" fill="#ffffff"/>
        <polygon points="246.906 86.894 25.283 233.338 23.582 230.763 246.906 83.196 246.906 86.894" fill="#ffffff"/>
        <polygon points="246.906 90.592 26.984 235.912 25.283 233.338 246.906 86.894 246.906 90.592" fill="#ffffff"/>
        <polygon points="246.906 94.29 28.685 238.486 26.984 235.912 246.906 90.592 246.906 94.29" fill="#ffffff"/>
        <polygon points="246.906 97.988 30.386 241.06 28.685 238.486 246.906 94.29 246.906 97.988" fill="#ffffff"/>
        <polygon points="246.906 101.687 32.087 243.634 30.386 241.06 246.906 97.988 246.906 101.687" fill="#ffffff"/>
        <polygon points="246.906 105.385 33.788 246.209 32.087 243.634 246.906 101.687 246.906 105.385" fill="#ffffff"/>
        <polygon points="246.906 109.083 38.187 247 34.311 247 33.788 246.209 246.906 105.385 246.906 109.083" fill="#ffffff"/>
        <polygon points="246.906 112.781 43.783 247 38.187 247 246.906 109.083 246.906 112.781" fill="#ffffff"/>
        <polygon points="246.906 116.479 49.38 247 43.783 247 246.906 112.781 246.906 116.479" fill="#ffffff"/>
        <polygon points="246.906 120.177 54.977 247 49.38 247 246.906 116.479 246.906 120.177" fill="#ffffff"/>
        <polygon points="246.906 123.876 60.573 247 54.977 247 246.906 120.177 246.906 123.876" fill="#ffffff"/>
        <polygon points="246.906 127.574 66.17 247 60.573 247 246.906 123.876 246.906 127.574" fill="#ffffff"/>
        <polygon points="246.906 131.272 71.767 247 66.17 247 246.906 127.574 246.906 131.272" fill="#ffffff"/>
        <polygon points="246.906 134.97 77.363 247 71.767 247 246.906 131.272 246.906 134.97" fill="#ffffff"/>
        <polygon points="246.906 138.668 82.96 247 77.363 247 246.906 134.97 246.906 138.668" fill="#ffffff"/>
        <polygon points="246.906 142.366 88.557 247 82.96 247 246.906 138.668 246.906 142.366" fill="#ffffff"/>
        <polygon points="246.906 146.064 94.153 247 88.557 247 246.906 142.366 246.906 146.064" fill="#ffffff"/>
        <polygon points="246.906 149.763 99.75 247 94.153 247 246.906 146.064 246.906 149.763" fill="#ffffff"/>
        <polygon points="246.906 153.461 105.347 247 99.75 247 246.906 149.763 246.906 153.461" fill="#ffffff"/>
        <polygon points="246.906 157.159 110.943 247 105.347 247 246.906 153.461 246.906 157.159" fill="#ffffff"/>
        <polygon points="246.906 160.857 116.54 247 110.943 247 246.906 157.159 246.906 160.857" fill="#ffffff"/>
        <polygon points="246.906 164.555 122.137 247 116.54 247 246.906 160.857 246.906 164.555" fill="#ffffff"/>
        <polygon points="246.906 168.253 127.733 247 122.137 247 246.906 164.555 246.906 168.253" fill="#ffffff"/>
        <polygon points="246.906 171.952 133.33 247 127.733 247 246.906 168.253 246.906 171.952" fill="#ffffff"/>
        <polygon points="246.906 175.65 138.927 247 133.33 247 246.906 171.952 246.906 175.65" fill="#ffffff"/>
        <polygon points="246.906 179.348 144.524 247 138.927 247 246.906 175.65 246.906 179.348" fill="#ffffff"/>
        <polygon points="246.906 183.046 150.12 247 144.524 247 246.906 179.348 246.906 183.046" fill="#ffffff"/>
        <polygon points="246.906 186.744 155.717 247 150.12 247 246.906 183.046 246.906 186.744" fill="#ffffff"/>
        <polygon points="246.906 190.442 161.314 247 155.717 247 246.906 186.744 246.906 190.442" fill="#ffffff"/>
        <polygon points="246.906 194.141 166.91 247 161.314 247 246.906 190.442 246.906 194.141" fill="#ffffff"/>
        <polygon points="246.906 197.839 172.507 247 166.91 247 246.906 194.141 246.906 197.839" fill="#ffffff"/>
        <polygon points="246.906 201.537 178.104 247 172.507 247 246.906 197.839 246.906 201.537" fill="#ffffff"/>
        <polygon points="246.906 205.235 183.7 247 178.104 247 246.906 201.537 246.906 205.235" fill="#ffffff"/>
        <polygon points="246.906 208.933 189.297 247 183.7 247 246.906 205.235 246.906 208.933" fill="#ffffff"/>
        <polygon points="246.906 212.631 194.894 247 189.297 247 246.906 208.933 246.906 212.631" fill="#ffffff"/>
        <polygon points="246.906 216.329 200.49 247 194.894 247 246.906 212.631 246.906 216.329" fill="#ffffff"/>
        <polygon points="246.906 220.028 206.087 247 200.49 247 246.906 216.329 246.906 220.028" fill="#ffffff"/>
        <polygon points="206.087 247 246.906 220.028 246.906 247 206.087 247" fill="#ffffff"/>
      </g>
    </g>
  </g>
</svg>
