<?xml version="1.0" encoding="UTF-8"?>
<svg width="81px" height="86px" viewBox="0 0 81 86" version="1.1" xmlns="http://www.w3.org/2000/svg" xmlns:xlink="http://www.w3.org/1999/xlink">
    
    <title>black-and-white-credit-cards copy</title>
    
    
    <g id="Page-1" stroke="none" stroke-width="1" fill="none" fill-rule="evenodd">
        <g id="2.5_MyAccount_ProfileSeetings" transform="translate(-111.000000, -738.000000)" fill="#4B4B4B" fill-rule="nonzero">
            <g id="Group-11" transform="translate(111.000000, 738.000000)">
                <g id="black-and-white-credit-cards-copy">
                    <path d="M78.7829302,39.9212 L41.1754419,2.22835556 C39.6937209,0.743422222 37.7524186,0 35.8111163,0 C33.869814,0 31.9266047,0.743422222 30.4467907,2.22835556 L9.85144186,22.8645333 C6.888,25.8344 6.888,30.7421333 9.85144186,33.712 L13.2649302,37.2265333 L21.1388372,37.2265333 L13.7893488,29.7655556 C13.2744651,29.2476444 13.198186,28.5997778 13.198186,28.2863556 C13.198186,27.9729333 13.2744651,27.348 13.7893488,26.832 L16.5086977,24.1908444 L29.4322791,37.2265333 L41.8295349,37.2265333 L22.7063721,17.9663556 L34.3827907,6.21875556 C34.8976744,5.70275556 35.4983721,5.60528889 35.8111163,5.60528889 C36.1238605,5.60528889 36.7245581,5.67026667 37.2394419,6.18435556 L74.8488372,43.8714667 C75.3656279,44.3893778 75.443814,44.9856444 75.443814,45.3009778 C75.443814,45.6144 75.3103256,46.2144889 74.7935349,46.7324 L72.6615349,48.8174222 L72.6615349,56.7084 L78.7333488,50.6788444 C81.6948837,47.7032444 81.7482791,42.8910667 78.7829302,39.9212 Z" id="Shape"></path>
                    <path d="M61.1376744,40.7601778 L7.94637209,40.7601778 C3.75674419,40.7601778 0.173534884,44.1428444 0.173534884,48.3415556 L0.173534884,68.5037778 L68.630186,68.5037778 L68.630186,48.3415556 C68.630186,44.1428444 65.3273023,40.7601778 61.1376744,40.7601778 Z M18.7627442,61.6390667 C17.2772093,61.6390667 15.9327907,61.0466222 14.9411628,60.0910667 C13.9495349,61.0466222 12.6032093,61.6390667 11.1214884,61.6390667 C8.07413953,61.6390667 5.6007907,59.1641778 5.6007907,56.1044889 C5.6007907,53.0486222 8.07223256,50.5718222 11.1214884,50.5718222 C12.6051163,50.5718222 13.9514419,51.1623556 14.9411628,52.1179111 C15.9327907,51.1623556 17.2772093,50.5718222 18.7627442,50.5718222 C21.812,50.5718222 24.2834419,53.0486222 24.2834419,56.1044889 C24.2834419,59.1641778 21.812,61.6390667 18.7627442,61.6390667 Z" id="Shape"></path>
                    <path d="M0.173534884,77.5261333 C0.173534884,81.7248444 3.75483721,85.1514667 7.94637209,85.1514667 L61.1376744,85.1514667 C65.3273023,85.1514667 68.632093,81.7248444 68.632093,77.5261333 L68.632093,77.0789333 L0.173534884,77.0789333 L0.173534884,77.5261333 Z" id="Shape"></path>
                </g>
            </g>
        </g>
    </g>
</svg>