<?xml version="1.0" encoding="UTF-8"?>
<svg width="24px" height="31px" viewBox="0 0 24 31" version="1.1" xmlns="http://www.w3.org/2000/svg" xmlns:xlink="http://www.w3.org/1999/xlink">
    <!-- Generator: Sketch 46.2 (44496) - http://www.bohemiancoding.com/sketch -->
    <title>Fill 4</title>
    <desc>Created with Sketch.</desc>
    <defs></defs>
    <g id="Skrill-Flow" stroke="none" stroke-width="1" fill="none" fill-rule="evenodd">
        <g id="3.7_Mobile_Rejction_DepositError-_HelpMessage" transform="translate(-80.000000, -374.000000)" fill="#EE3536">
            <g id="Group-13" transform="translate(15.000000, 87.000000)">
                <g id="Group-9">
                    <path d="M83.4997655,299.414382 C82.7236502,302.448363 77.9329024,300.906892 76.3798879,300.528984 L77.7502409,295.16635 C79.3032554,295.544259 84.3080229,296.249587 83.4997655,299.414382 M82.6483906,308.06727 C81.7977996,311.401895 76.0427874,309.600326 74.176191,309.147447 L75.6884398,303.23478 C77.5542522,303.689189 83.5373953,304.589591 82.6483906,308.06727 M88.937276,299.462577 C89.4366552,296.205217 86.8950737,294.454137 83.4190181,293.285986 L84.5471291,288.873479 L81.7946638,288.204106 L80.6971271,292.500333 C79.9735368,292.324384 79.2303476,292.158379 78.4926461,291.993905 L79.5972385,287.669373 L76.847125,287 L75.719014,291.410976 C75.1200726,291.277867 74.5321065,291.146287 73.9613874,291.007823 L73.9645232,290.994053 L70.168614,290.069171 L69.4364002,292.937912 C69.4364002,292.937912 71.4786025,293.394615 71.434701,293.42292 C72.5502687,293.694494 72.7517451,294.414357 72.7180351,294.985046 L71.4331331,300.011845 C71.5107447,300.03097 71.6103069,300.059275 71.7200606,300.10135 C71.6275539,300.079165 71.5295596,300.054685 71.4292134,300.03097 L69.6292531,307.072773 C69.492845,307.403252 69.146337,307.898206 68.3678698,307.710782 C68.3945243,307.749796 66.3672172,307.223478 66.3672172,307.223478 L65,310.298769 L68.5826735,311.170866 C69.2482511,311.33381 69.9012854,311.50364 70.5449123,311.664289 L69.405042,316.127286 L72.1543715,316.796659 L73.2824825,312.380327 C74.0335112,312.579227 74.7618052,312.762826 75.4759881,312.936481 L74.3517969,317.330627 L77.1042622,318 L78.2433485,313.546184 C82.936102,314.412926 86.4662505,314.063322 87.9518448,309.921625 C89.1489438,306.587 87.8922643,304.662266 85.4228066,303.406905 C87.2211989,303.001456 88.5758728,301.847075 88.937276,299.462577" id="Fill-4"></path>
                </g>
            </g>
        </g>
    </g>
</svg>