<?xml version="1.0" encoding="UTF-8"?>
<svg width="131px" height="125px" viewBox="0 0 131 125" version="1.1" xmlns="http://www.w3.org/2000/svg" xmlns:xlink="http://www.w3.org/1999/xlink">
    <!-- Generator: Sketch 46.2 (44496) - http://www.bohemiancoding.com/sketch -->
    <title>Group 8</title>
    <desc>Created with Sketch.</desc>
    <defs></defs>
    <g id="2-Factor-Authentication" stroke="none" stroke-width="1" fill="none" fill-rule="evenodd">
        <g id="1.2_2FA_Input" transform="translate(-653.000000, -202.000000)" fill="#EE3536">
            <g id="Group-13" transform="translate(547.000000, 159.000000)">
                <g id="Group-8" transform="translate(106.000000, 43.000000)">
                    <path d="M80.4533092,42.8491194 L80.4533092,53.4505546 C75.5698838,52.4557819 70.5605505,51.9527111 65.5662063,51.9527111 C60.5718621,51.9527111 55.5625289,52.4557819 50.6701101,53.4505546 L50.6701101,42.8491194 C50.6701101,35.0643121 57.3492211,28.731873 65.5632085,28.731873 C73.7712004,28.731873 80.4533092,35.0643121 80.4533092,42.8491194 M59.3817333,67.8747594 C59.3817333,64.6374847 62.1487079,62.0141268 65.5632085,62.0141268 C68.9747113,62.0141268 71.7446838,64.6374847 71.7446838,67.8747594 C71.7446838,70.0234685 70.4646208,71.8169017 68.6509483,72.8372543 L68.6509483,82.5263408 C68.6509483,84.1463993 67.2719577,85.4566571 65.5632085,85.4566571 C63.8544593,85.4566571 62.4724709,84.1463993 62.4724709,82.5263408 L62.4724709,72.8372543 C60.6558007,71.8169017 59.3817333,70.0234685 59.3817333,67.8747594 M65.5632085,21.333606 C53.04737,21.333606 42.866822,30.9857438 42.866822,42.8491194 L42.866822,55.1388261 C42.866822,55.2780942 42.6869537,55.5139975 42.543059,55.5594728 C41.3169565,55.9460131 40.3186872,56.2842358 39.4073543,56.6167741 C38.3191508,57.0146832 37.4977521,58.1572508 37.4977521,59.2742385 L37.4977521,87.5115734 C37.4977521,88.6228766 38.3131552,89.7654442 39.3953631,90.1718799 C47.7592408,93.3153618 56.563796,94.9098404 65.5632085,94.9098404 C74.5626211,94.9098404 83.3641784,93.3153618 91.731054,90.1718799 C92.8132618,89.7654442 93.628665,88.6228766 93.628665,87.5115734 L93.628665,59.2742385 C93.628665,58.1572508 92.8072662,57.0146832 91.716065,56.6167741 C90.804732,56.2813936 89.8094606,55.9460131 88.5803603,55.5594728 C88.4394634,55.5139975 88.259595,55.2780942 88.259595,55.1388261 L88.259595,42.8491194 C88.2565972,30.9857438 78.0760493,21.333606 65.5632085,21.333606" id="Fill-1"></path>
                    <path d="M25.9160298,25.6710994 C36.3214132,15.601157 50.2252357,9.9679011 65.0763649,9.80305304 C65.322185,9.80021083 65.5650072,9.80021083 65.8138251,9.80021083 C78.4106044,9.80021083 90.4917611,13.8247771 100.297583,21.234413 L99.5841056,21.2400974 C96.988006,21.2884149 94.874553,23.3433312 94.874553,25.8473163 C94.9285135,28.3484592 97.0449643,30.3124248 99.7130113,30.3124248 L112.330775,30.16463 C113.583858,30.16463 114.812958,29.6786125 115.706304,28.8259501 C116.59965,27.9789722 117.091291,26.842089 117.091291,25.6028864 L116.935405,13.5917161 C116.881444,11.0706777 114.794971,9.12660758 112.165896,9.12660758 L112.072964,9.12660758 C109.479862,9.17776732 107.369407,11.2269992 107.369407,13.7110888 L107.384396,15.0639798 C95.7109408,5.83248869 81.0426777,0.781885361 65.7089019,0.781885361 L64.9414636,0.781885361 C47.5392019,0.958102247 31.2521238,7.56623547 19.0810329,19.3869779 C10.3664119,27.8283352 4.41576771,38.3899795 1.88262194,49.9265011 C-0.575578683,61.1731175 0.278795925,72.7977476 4.37080063,83.5896108 C5.09327179,85.3063043 6.89195517,86.4602407 8.84952226,86.4602407 C9.34715799,86.4602407 9.85678495,86.3806589 10.4773307,86.1987575 C11.6674596,85.7894796 12.6237596,84.9680816 13.1753558,83.8766737 C13.7299498,82.7738971 13.7929038,81.5403789 13.3612197,80.4091802 C6.08854326,61.2356461 10.8970235,40.2601522 25.9160298,25.6710994" id="Fill-29"></path>
                    <path d="M127.056896,41.632086 L127.053898,41.6264016 C126.154556,39.2730535 123.408566,38.0509041 120.94437,38.8950398 C119.739252,39.3100022 118.773959,40.1427691 118.228358,41.2455457 C117.688753,42.3397957 117.628797,43.5647873 118.060481,44.681775 C125.312173,63.8723623 120.494699,84.8364873 105.478691,99.3971181 C94.9354084,109.614855 80.8037526,115.242427 65.682821,115.242427 C53.0440724,115.242427 40.9119529,111.215018 31.1091285,103.836647 L31.8136128,103.830962 C34.4097125,103.779803 36.5201677,101.727729 36.5201677,99.2237434 C36.4662072,96.7197583 34.3497564,94.7586349 31.6817094,94.7586349 L19.0129827,94.9064297 C16.416883,94.9575894 14.3034301,97.0068213 14.3034301,99.4937532 L14.4563182,111.504923 C14.5102787,114.008909 16.6297272,115.970032 19.3157611,115.970032 C21.9118608,115.921714 24.0253138,113.872483 24.0253138,111.385551 L24.0103247,110.024133 C35.6867777,119.247098 50.3670319,124.289174 65.7098012,124.289174 C83.4238348,124.289174 99.9867109,117.689568 112.340668,105.709662 C121.052291,97.2711466 126.99694,86.7123445 129.533083,75.1729807 C131.991284,63.9832084 131.130914,52.3870004 127.056896,41.632086" id="Fill-31"></path>
                </g>
            </g>
        </g>
    </g>
</svg>