<?xml version="1.0" encoding="UTF-8"?>
<svg width="58px" height="53px" viewBox="0 0 58 53" version="1.1" xmlns="http://www.w3.org/2000/svg" xmlns:xlink="http://www.w3.org/1999/xlink">
    <!-- Generator: Sketch 61.2 (89653) - https://sketch.com -->
    <title>noun_credit cards_942014</title>
    <desc>Created with Sketch.</desc>
    <g id="Page-1" stroke="none" stroke-width="1" fill="none" fill-rule="evenodd">
        <g id="my-messages" transform="translate(-1052.000000, -183.000000)" fill="#EE3536">
            <g id="noun_credit-cards_942014" transform="translate(1052.000000, 183.000000)">
                <path d="M3.14627679,15.7412265 L45.4226724,6.15342709 L44.8368261,3.56928278 C44.6740544,2.83373169 43.9321205,2.37161633 43.203084,2.53431272 L3.58234303,11.4582879 C2.84681076,11.6210408 2.38466716,12.3565919 2.54734472,13.0920865 C2.74909125,13.9707713 2.94443612,14.8625418 3.14627679,15.7412265 L3.14627679,15.7412265 L3.14627679,15.7412265 Z M2.79475017,9.11503417 L42.9167037,0.0869381046 C44.8303303,-0.342622912 46.7374611,0.861501687 47.1671257,2.77520354 L51.3719828,21.3586012 L48.8595183,21.3586012 L46.9522934,12.9423818 L4.67580358,22.530228 L7.2924834,34.070798 L7.5268031,35.0927765 C7.61793266,35.5028783 8.02801567,35.7696865 8.44459449,35.6720423 L8.75695799,35.6004754 L8.75695799,38.0608982 L8.71139321,38.0744829 C7.1232159,38.4324771 5.54153438,37.4235938 5.17701615,35.8419123 L0.093436555,13.3725453 C-0.121395731,12.4156661 0.0348801655,11.5174751 0.555580149,10.6843269 C1.07628018,9.85113158 1.83788981,9.33038424 2.79465603,9.1155802 L2.79465603,9.1155802 L2.79475017,9.11503417 Z M13.209221,22.0289966 C11.2500296,22.0289966 9.65526234,23.6302973 9.65526234,25.5895357 L9.65526234,48.7097919 C9.65526234,50.6689738 11.2500296,52.2637505 13.209221,52.2637505 L54.346685,52.2637505 C56.3058764,52.2637505 57.9070453,50.6625062 57.9070453,48.7097919 L57.9070453,25.5895357 C57.9070453,23.6302973 56.3058764,22.0289966 54.346685,22.0289966 L13.209221,22.0289966 L13.209221,22.0289966 Z M53.4809542,32.3784807 C53.4809542,30.8097814 53.4809542,29.241148 53.4809542,27.6723922 C53.4809542,27.3664586 53.2400446,27.1256807 52.9341769,27.1256807 C49.4257831,27.1256807 45.9173892,27.1256807 42.4089954,27.1256807 C42.1095293,27.1256807 41.862218,27.3729826 41.862218,27.6723922 C41.862218,29.241148 41.862218,30.8097814 41.862218,32.3784807 C41.862218,32.6779467 42.1095293,32.9252486 42.4089954,32.9252486 C45.9173892,32.9252486 49.4257831,32.9252486 52.9341769,32.9252486 C53.227053,32.9252486 53.4809542,32.6844143 53.4809542,32.3784807 L53.4809542,32.3784807 Z M45.7221385,46.6463852 C45.4161766,46.6463852 45.1687712,46.3990268 45.1687712,46.0996078 L45.1687712,45.006119 C45.1687712,44.706653 45.4161766,44.4592946 45.7221385,44.4592946 L52.9275869,44.4592946 C53.227053,44.4592946 53.4743643,44.706653 53.4743643,45.006119 L53.4743643,46.0996078 C53.4743643,46.3990268 53.227053,46.6463852 52.9275869,46.6463852 L45.7221385,46.6463852 L45.7221385,46.6463852 L45.7221385,46.6463852 Z M35.6655964,46.6463852 C35.3661303,46.6463852 35.118819,46.3990268 35.118819,46.0996078 L35.118819,45.0125866 C35.118819,44.706653 35.3661303,44.4658752 35.6655964,44.4658752 L42.8776348,44.4658752 C43.1770067,44.4658752 43.4244121,44.7131771 43.4244121,45.0125866 L43.4244121,46.0996078 C43.4244121,46.3990268 43.1770067,46.6463852 42.8776348,46.6463852 L35.6655964,46.6463852 L35.6655964,46.6463852 Z M25.6154559,46.6463852 C25.316084,46.6463852 25.0687727,46.3990268 25.0687727,46.0996078 L25.0687727,45.0125866 C25.0687727,44.706653 25.316084,44.4658752 25.6154559,44.4658752 L32.8276826,44.4658752 C33.1269603,44.4658752 33.3743658,44.7131771 33.3743658,45.0125866 L33.3743658,46.0996078 C33.3743658,46.3990268 33.1269603,46.6463852 32.8276826,46.6463852 L25.6154559,46.6463852 L25.6154559,46.6463852 Z M15.5655037,46.6463852 C15.2661318,46.6463852 15.0187264,46.3990268 15.0187264,46.0996078 L15.0187264,45.0125866 C15.0187264,44.706653 15.2661318,44.4658752 15.5655037,44.4658752 L22.7776363,44.4658752 C23.0770082,44.4658752 23.3243195,44.7131771 23.3243195,45.0125866 L23.3243195,46.0996078 C23.3243195,46.3990268 23.0770082,46.6463852 22.7776363,46.6463852 L15.5655037,46.6463852 Z" id="Shape"></path>
            </g>
        </g>
    </g>
</svg>