<?xml version="1.0" encoding="UTF-8"?>
<svg width="27px" height="26px" viewBox="0 0 27 26" version="1.1" xmlns="http://www.w3.org/2000/svg" xmlns:xlink="http://www.w3.org/1999/xlink">
    <!-- Generator: Sketch 46.2 (44496) - http://www.bohemiancoding.com/sketch -->
    <title>Group-8</title>
    <desc>Created with Sketch.</desc>
    <defs></defs>
    <g id="Page-1" stroke="none" stroke-width="1" fill="none" fill-rule="evenodd">
        <g id="1.1_Help_Modal-Desktop" transform="translate(-574.000000, -691.000000)" fill-rule="nonzero" fill="#000">
            <g id="Group-7" transform="translate(574.000000, 678.000000)">
                <g id="Group-5" transform="translate(0.000000, 13.000000)">
                    <g id="Group-4">
                        <g id="Group-8">
                            <path d="M16.4684045,9.03466957 L16.4684045,11.2240174 C15.4687909,11.0185826 14.4434045,10.9146913 13.4210864,10.9146913 C12.3987682,10.9146913 11.3733818,11.0185826 10.3719273,11.2240174 L10.3719273,9.03466957 C10.3719273,7.42699565 11.7391091,6.11925652 13.4204727,6.11925652 C15.1006091,6.11925652 16.4684045,7.42699565 16.4684045,9.03466957 M12.1551545,14.2028217 C12.1551545,13.5342783 12.7215409,12.9925174 13.4204727,12.9925174 C14.1187909,12.9925174 14.6857909,13.5342783 14.6857909,14.2028217 C14.6857909,14.6465609 14.4237682,15.0169304 14.0525182,15.2276478 L14.0525182,17.2285826 C14.0525182,17.5631478 13.7702455,17.8337348 13.4204727,17.8337348 C13.0707,17.8337348 12.7878136,17.5631478 12.7878136,17.2285826 L12.7878136,15.2276478 C12.41595,15.0169304 12.1551545,14.6465609 12.1551545,14.2028217 M13.4204727,4.5914087 C10.8585409,4.5914087 8.77463182,6.58471304 8.77463182,9.03466957 L8.77463182,11.5726696 C8.77463182,11.6014304 8.73781364,11.6501478 8.70835909,11.6595391 C8.45738182,11.7393652 8.25304091,11.809213 8.06649545,11.877887 C7.84374545,11.9600609 7.67560909,12.1960174 7.67560909,12.4266913 L7.67560909,18.2581043 C7.67560909,18.4876043 7.84251818,18.7235609 8.06404091,18.8074957 C9.77608636,19.4566696 11.5783364,19.7859522 13.4204727,19.7859522 C15.2626091,19.7859522 17.0642455,19.4566696 18.7769045,18.8074957 C18.9984273,18.7235609 19.1653364,18.4876043 19.1653364,18.2581043 L19.1653364,12.4266913 C19.1653364,12.1960174 18.9972,11.9600609 18.7738364,11.877887 C18.5872909,11.8086261 18.3835636,11.7393652 18.1319727,11.6595391 C18.1031318,11.6501478 18.0663136,11.6014304 18.0663136,11.5726696 L18.0663136,9.03466957 C18.0657,6.58471304 15.9817909,4.5914087 13.4204727,4.5914087" id="Fill-1"></path>
                            <path d="M5.30488636,5.48716304 C7.43481818,3.40757609 10.2808636,2.24422826 13.3208182,2.21018478 C13.3711364,2.20959783 13.4208409,2.20959783 13.4717727,2.20959783 C16.0502727,2.20959783 18.5232273,3.04072826 20.5304318,4.57092391 L20.3843864,4.57209783 C19.8529773,4.58207609 19.4203636,5.00644565 19.4203636,5.52355435 C19.4314091,6.04007609 19.8646364,6.44566304 20.4107727,6.44566304 L22.9935682,6.4151413 C23.2500682,6.4151413 23.5016591,6.31477174 23.6845227,6.13868478 C23.8673864,5.96377174 23.9680227,5.72898913 23.9680227,5.47307609 L23.9361136,2.99259783 C23.9250682,2.47196739 23.4979773,2.07048913 22.9598182,2.07048913 L22.9407955,2.07048913 C22.41,2.08105435 21.978,2.50425 21.978,3.01725 L21.9810682,3.2966413 C19.5915682,1.39020652 16.5890455,0.347184783 13.4502955,0.347184783 L13.2932045,0.347184783 C9.73104545,0.383576087 6.39715909,1.74825 3.90579545,4.18940217 C2.12195455,5.93266304 0.903886364,8.11379348 0.385363636,10.49625 C-0.117818182,12.818837 0.0570681818,15.2194891 0.894681818,17.448163 C1.04256818,17.8026848 1.41075,18.0409891 1.81145455,18.0409891 C1.91331818,18.0409891 2.01763636,18.0245543 2.14465909,17.9869891 C2.38827273,17.9024674 2.58402273,17.732837 2.69693182,17.5074457 C2.81045455,17.2797065 2.82334091,17.0249674 2.73497727,16.7913587 C1.24629545,12.83175 2.23056818,8.50001087 5.30488636,5.48716304" id="Fill-29"></path>
                            <path d="M26.0079341,8.78333478 L26.0073205,8.78216087 C25.8232295,8.29616087 25.2611386,8.04376957 24.7567295,8.21809565 C24.5100477,8.3037913 24.3124568,8.47576957 24.200775,8.7035087 C24.0903205,8.92948696 24.0780477,9.18246522 24.1664114,9.41313913 C25.6507977,13.3762696 24.6646841,17.7056609 21.5909795,20.7126391 C19.4328205,22.8227478 16.5401386,23.9849217 13.4449568,23.9849217 C10.8578659,23.9849217 8.37447955,23.1532043 6.36788864,21.6294652 L6.51209318,21.6282913 C7.04350227,21.6177261 7.47550227,21.1939435 7.47550227,20.6768348 C7.46445682,20.1597261 7.03122955,19.7547261 6.48509318,19.7547261 L3.89186591,19.7852478 C3.36045682,19.795813 2.92784318,20.2190087 2.92784318,20.7325957 L2.95913864,23.2130739 C2.97018409,23.7301826 3.404025,24.1351826 3.95384318,24.1351826 C4.48525227,24.1252043 4.91786591,23.7020087 4.91786591,23.1884217 L4.91479773,22.9072696 C7.30491136,24.8119435 10.3098886,25.8532043 13.4504795,25.8532043 C17.0764568,25.8532043 20.4667977,24.4902913 22.9955932,22.0162696 C24.7788205,20.2735957 25.9956614,18.0930522 26.5147977,15.7100087 C27.0179795,13.3991609 26.8418659,11.0043783 26.0079341,8.78333478" id="Fill-31"></path>
                        </g>
                    </g>
                </g>
            </g>
        </g>
    </g>
</svg>