<?xml version="1.0" encoding="UTF-8"?>
<svg width="67px" height="32px" viewBox="0 0 67 32" version="1.1" xmlns="http://www.w3.org/2000/svg" xmlns:xlink="http://www.w3.org/1999/xlink">
    <!-- Generator: Sketch 45.2 (43514) - http://www.bohemiancoding.com/sketch -->
    <title>shopify-ssl-secured</title>
    <desc>Created with Sketch.</desc>
    <defs></defs>
    <g id="Desktop" stroke="none" stroke-width="1" fill="none" fill-rule="evenodd" opacity="0.495867301">
        <g id="01_BetOnline_Desktop_HomePage" transform="translate(-219.000000, -1954.000000)" fill-rule="nonzero" fill="#000000">
            <g id="Group-5" transform="translate(219.000000, 1948.000000)">
                <g id="shopify-ssl-secured" transform="translate(0.000000, 6.000000)">
                    <path d="M0,31.9194874 L22.8237481,31.9194874 L22.8237481,15.7471936 L0,15.7471936 L0,31.9194874 Z M8.07383191,22.5672809 L10.2256277,24.7297476 L15.2097016,19.7209572 L16.8097548,21.3289453 L10.2256277,27.9457238 L6.47377866,24.175269 L8.07383191,22.5672809 Z M6.7312585,8.5759364 C6.7312585,5.98836939 8.82788,3.88135053 11.4210697,3.88135053 C13.9958681,3.88135053 16.0924896,5.98836939 16.0924896,8.5759364 L16.0924896,13.4368659 L19.9546871,13.4368659 L19.9546871,8.5759364 C19.9362957,3.84438528 16.110881,0 11.4210697,0 C6.71286708,0 2.88745242,3.84438528 2.88745242,8.5759364 L2.88745242,13.4368659 L6.74964991,13.4368659 L6.74964991,8.5759364 L6.7312585,8.5759364 Z M41.5278188,14.3425143 C41.5278188,12.013704 40.166854,10.6829553 38.0150582,9.86971991 L36.0287852,9.01951932 C34.4471234,8.44655805 33.3436384,8.058423 33.3436384,7.07884406 C33.3436384,6.11774774 34.1712522,5.58175171 35.4034771,5.58175171 C37.0035303,5.58175171 38.0334497,6.06229987 39.1737175,6.89401784 L41.049642,4.5467249 C39.5599372,3.14204567 37.5920557,2.38425818 35.6057827,2.38425818 C32.0746307,2.38425818 29.6101808,4.5467249 29.6101808,7.28215289 C29.6101808,9.6848937 31.2654083,11.0895729 33.10455,11.7734299 L35.2195629,12.6790784 C36.7828333,13.3259701 37.7575784,13.6401747 37.7575784,14.8045799 C37.7575784,15.6362978 37.0219217,16.2462244 35.4586513,16.2462244 C33.8769895,16.2462244 32.3505019,15.5438847 31.118277,14.5273405 L28.9848727,17.0779423 C30.7320572,18.6489652 32.9942015,19.4437179 35.2011715,19.4437179 C39.2472832,19.4437179 41.5278188,17.0594597 41.5278188,14.3425143 Z M50.5580044,9.86971991 L48.5717314,9.01951932 C46.9900696,8.44655805 45.8865846,8.058423 45.8865846,7.07884406 C45.8865846,6.11774774 46.7141983,5.58175171 47.9464232,5.58175171 C49.5464765,5.58175171 50.5763958,6.06229987 51.7166636,6.89401784 L53.5925881,4.5467249 C52.1028834,3.14204567 50.1350018,2.38425818 48.1487288,2.38425818 C44.6175768,2.38425818 42.153127,4.5467249 42.153127,7.28215289 C42.153127,9.6848937 43.8083545,11.0895729 45.6474962,11.7734299 L47.7625091,12.6790784 C49.3257795,13.3259701 50.3005246,13.6401747 50.3005246,14.8045799 C50.3005246,15.6362978 49.5648679,16.2462244 48.0015975,16.2462244 C46.4199356,16.2462244 44.8934481,15.5438847 43.6612232,14.5273405 L41.5278188,17.0779423 C43.2750034,18.6489652 45.5371477,19.4437179 47.7441176,19.4437179 C51.8086207,19.4437179 54.0891564,17.0779423 54.0891564,14.3425143 C54.070765,12.013704 52.7281916,10.6829553 50.5580044,9.86971991 Z" id="Shape"></path>
                    <polygon id="Shape" points="59.1651874 16.0059503 59.1651874 2.67998013 55.4869041 2.67998013 55.4869041 19.1295133 66.4481884 19.1295133 66.4481884 16.0059503"></polygon>
                    <path d="M32.4608504,24.9700217 L31.4677139,24.5449214 C30.8607972,24.2861647 30.1987062,24.0458907 30.1987062,23.3620337 C30.1987062,22.7151419 30.7504487,22.3270068 31.5780624,22.3270068 C32.3137191,22.3270068 32.8470702,22.5857635 33.325247,22.9923812 L33.8034238,22.4009373 C33.2884642,21.8834239 32.5160247,21.5137715 31.6148452,21.5137715 C30.2722718,21.5137715 29.2975267,22.3085242 29.2975267,23.3989989 C29.2975267,24.4340257 30.1251405,24.9515391 30.8240143,25.2287784 L31.8355422,25.6723613 C32.5528075,25.9865659 33.10455,26.2083574 33.10455,26.9661449 C33.10455,27.6315192 32.5344161,28.0935848 31.559671,28.0935848 C30.7504487,28.0935848 30.014792,27.742415 29.4814409,27.2064189 L28.9480898,27.8348281 C29.5917894,28.4817198 30.4745774,28.8883375 31.5228882,28.8883375 C33.0861586,28.8883375 34.0241208,27.982689 34.0241208,26.8552491 C34.0241208,25.8017397 33.325247,25.3211915 32.4608504,24.9700217 Z" id="Shape"></path>
                    <polygon id="Shape" points="36.8380076 25.4136046 39.7806342 25.4136046 39.7806342 24.6373345 36.8380076 24.6373345 36.8380076 22.4009373 40.3139853 22.4009373 40.3139853 21.6431498 35.9368282 21.6431498 35.9368282 28.7589591 40.4243338 28.7589591 40.4243338 27.982689 36.8380076 27.982689"></polygon>
                    <path d="M45.0405794,28.0935848 C43.6796146,28.0935848 42.7968266,26.9661449 42.7968266,25.1733306 C42.7968266,23.3989989 43.6796146,22.2900416 45.0405794,22.2900416 C45.6291047,22.2900416 46.1072816,22.5487983 46.4567185,22.9369334 L46.9716781,22.3639721 C46.567067,21.9019065 45.8865846,21.4952889 45.0405794,21.4952889 C43.2014377,21.4952889 41.8588643,22.8999681 41.8588643,25.1918132 C41.8588643,27.5206235 43.2014377,28.8883375 44.9486223,28.8883375 C45.8865846,28.8883375 46.5854584,28.5002024 47.1372009,27.8533107 L46.6222412,27.298832 C46.1992386,27.8163454 45.7026704,28.0935848 45.0405794,28.0935848 Z M52.3971461,26.0974616 C52.3971461,27.5760714 51.7534465,28.1120674 50.8890499,28.1120674 C50.0430447,28.1120674 49.3993451,27.5760714 49.3993451,26.0974616 L49.3993451,21.6431498 L48.4981657,21.6431498 L48.4981657,26.078979 C48.4981657,28.1120674 49.5096936,28.9068201 50.8890499,28.9068201 C52.2684061,28.9068201 53.2615426,28.13055 53.2615426,26.078979 L53.2615426,21.6431498 L52.3787546,21.6431498 L52.3787546,26.0974616 L52.3971461,26.0974616 Z M59.8824526,23.639273 C59.8824526,22.1606633 58.8525333,21.6431498 57.4180028,21.6431498 L55.2110328,21.6431498 L55.2110328,28.7589591 L56.1122122,28.7589591 L56.1122122,25.7462918 L57.38122,25.7462918 L59.0916217,28.7589591 L60.1215411,28.7589591 L58.3191822,25.6538787 C59.2387531,25.4136046 59.8824526,24.7482303 59.8824526,23.639273 Z M57.2708715,25.006987 L56.0938208,25.006987 L56.0938208,22.3639721 L57.2708715,22.3639721 C58.3743565,22.3639721 58.9812732,22.6966593 58.9812732,23.639273 C58.9812732,24.5634041 58.3743565,25.006987 57.2708715,25.006987 Z" id="Shape"></path>
                    <polygon id="Shape" points="62.7331222 25.4136046 65.6757489 25.4136046 65.6757489 24.6373345 62.7331222 24.6373345 62.7331222 22.4009373 66.2091 22.4009373 66.2091 21.6431498 61.8135514 21.6431498 61.8135514 28.7589591 66.3194485 28.7589591 66.3194485 27.982689 62.7331222 27.982689"></polygon>
                </g>
            </g>
        </g>
    </g>
</svg>