<?xml version="1.0" encoding="UTF-8"?>
<svg width="53px" height="46px" viewBox="0 0 53 46" version="1.1" xmlns="http://www.w3.org/2000/svg" xmlns:xlink="http://www.w3.org/1999/xlink">
    <!-- Generator: Sketch 45.2 (43514) - http://www.bohemiancoding.com/sketch -->
    <title>np_heart_995105_000000</title>
    <desc>Created with Sketch.</desc>
    <defs></defs>
    <g id="Mobile" stroke="none" stroke-width="1" fill="none" fill-rule="evenodd">
        <g id="1.8.3_Deposit-Options-(bonus-options-with-expand-/-collapse-OPTION-1)" transform="translate(-41.000000, -497.000000)" fill-rule="nonzero" fill="#EE3536">
            <g id="np_heart_995105_000000" transform="translate(41.000000, 497.000000)">
                <path d="M53.0000583,13.8929492 L53.0000583,16.2765856 C52.9627929,16.4370202 52.9213851,16.601626 52.8944717,16.768312 C52.5611494,19.3769344 51.7185077,21.8918393 50.4142307,24.1713036 C49.3149047,25.986074 48.0499537,27.6946454 46.6400477,29.2760555 C44.8305747,31.3638175 42.8824537,33.3265518 40.8100477,35.1498031 C38.9074537,36.8145828 36.9737487,38.4460253 34.9800477,39.9503597 C32.3300477,41.9568324 29.5745777,43.8383305 26.8705177,45.7862364 L26.8705177,45.7841524 C26.6862579,45.9487528 26.40884,45.9487528 26.2245537,45.7841524 C23.8457547,44.0985169 21.4007057,42.4879302 19.0859837,40.7106575 C16.6471357,38.8375336 14.3159837,36.8601844 11.9622537,34.8433105 L11.9622537,34.845394 C9.0017267,32.3096867 6.3352437,29.4469014 4.0122537,26.3110712 C2.2483607,23.9399696 1.0268697,21.2083995 0.4285527,18.3101435 C0.2442929,17.6267576 0.1221491,17.0016718 0,16.3515698 L0,13.892938 C0.03105482,13.7533379 0.0579714,13.6199891 0.0910964,13.4824745 C0.3250437,12.4156841 0.4720339,11.3488938 0.8074444,10.2821034 L0.80537369,10.2821034 C1.92335569,6.75252084 4.33941369,3.78535015 7.55863369,1.98727501 C10.5543527,0.226644215 14.0781637,-0.392147529 17.4897737,0.243339484 C20.8167427,0.795510171 23.8518937,2.49362705 26.0752437,5.04389607 C26.1849696,5.19391346 26.278133,5.35434806 26.3568062,5.52311963 C26.9344002,4.94182557 27.3629582,4.49382696 27.8143062,4.07292483 C30.5678152,1.48302455 34.1928562,0.0370435657 37.9611562,0.0245621186 C41.7294562,0.0120806715 45.3647262,1.43304542 48.1345062,4.00417019 C50.2876312,5.97314514 51.8113812,8.54218967 52.5070062,11.3863594 C52.7409535,12.2010139 52.8465401,13.0448984 52.9997419,13.89289 L53.0000583,13.8929492 Z" id="Shape"></path>
            </g>
        </g>
    </g>
</svg>