<?xml version="1.0" encoding="UTF-8"?>
<svg width="26px" height="31px" viewBox="0 0 26 31" version="1.1" xmlns="http://www.w3.org/2000/svg" xmlns:xlink="http://www.w3.org/1999/xlink">
    <!-- Generator: Sketch 45.2 (43514) - http://www.bohemiancoding.com/sketch -->
    <title>Group 6</title>
    <desc>Created with Sketch.</desc>
    <defs></defs>
    <g id="Desktop" stroke="none" stroke-width="1" fill="none" fill-rule="evenodd">
        <g id="01_BetOnline_Desktop_HomePage" transform="translate(-1159.000000, -2081.000000)" fill-rule="nonzero" fill="#FFFFFF">
            <g id="Group-6" transform="translate(1159.000000, 2081.000000)">
                <g id="Youtube">
                    <path d="M10.442623,0.164464464 L8.69508197,0.164464464 L7.50163934,4.56388889 L6.26557377,0.164464464 L4.43278689,0.164464464 C4.81639344,1.19236737 5.2,2.26138639 5.54098361,3.28928929 C6.09508197,4.8517017 6.43606557,6.04406907 6.60655738,6.82527528 L6.60655738,11.348048 L8.35409836,11.348048 L8.35409836,6.82527528 L10.442623,0.164464464 Z M15.0885246,8.63438438 L15.0885246,5.71514014 C15.0885246,4.81058559 14.9180328,4.15272773 14.6196721,3.74156657 C14.1934426,3.16594094 13.5967213,2.87812813 12.7868852,2.87812813 C12.0196721,2.87812813 11.3803279,3.16594094 10.9540984,3.74156657 C10.6131148,4.15272773 10.442623,4.81058559 10.442623,5.71514014 L10.442623,8.63438438 C10.442623,9.53893894 10.6131148,10.1967968 10.9540984,10.607958 C11.3803279,11.1835836 11.9770492,11.4713964 12.7868852,11.4713964 C13.5540984,11.4713964 14.1934426,11.1835836 14.6196721,10.607958 C14.9180328,10.1967968 15.0885246,9.53893894 15.0885246,8.63438438 Z M13.5114754,8.9221972 C13.5114754,9.7034034 13.2557377,10.0734484 12.7442623,10.0734484 C12.2327869,10.0734484 11.9770492,9.7034034 11.9770492,8.9221972 L11.9770492,5.42732733 C11.9770492,4.64612112 12.2327869,4.27607608 12.7442623,4.27607608 C13.2557377,4.27607608 13.5114754,4.64612112 13.5114754,5.42732733 L13.5114754,8.9221972 Z M20.8852459,11.348048 L20.8852459,3.00147648 L19.3081967,3.00147648 L19.3081967,9.37447447 C18.9672131,9.86786787 18.6262295,10.0734484 18.3278689,10.0734484 C18.1147541,10.0734484 17.9868852,9.9501001 17.9442623,9.7034034 C17.9442623,9.66228729 17.9442623,9.45670671 17.9442623,9.12777778 L17.9442623,3.00147648 L16.3672131,3.00147648 L16.3672131,9.58005506 C16.3672131,10.1556807 16.4098361,10.5668418 16.495082,10.8135385 C16.6655738,11.2246997 17.0065574,11.4302803 17.5180328,11.4302803 C18.0721311,11.4302803 18.6688525,11.1013514 19.3081967,10.4023774 L19.3081967,11.3069319 L20.8852459,11.3069319 L20.8852459,11.348048 Z" id="Shape"></path>
                    <g id="Group" transform="translate(0.000000, 12.745996)">
                        <path d="M15.9409836,7.07197197 C15.6852459,7.07197197 15.4295082,7.19532032 15.1737705,7.44201702 L15.1737705,12.4581832 C15.4295082,12.7048799 15.6852459,12.8282282 15.9409836,12.8282282 C16.3672131,12.8282282 16.6229508,12.4581832 16.6229508,11.7180931 L16.6229508,8.18210711 C16.6229508,7.44201702 16.4098361,7.07197197 15.9409836,7.07197197 Z" id="Shape"></path>
                        <path d="M21.695082,7.07197197 C21.1836066,7.07197197 20.9278689,7.44201702 20.9278689,8.22322322 L20.9278689,9.00442943 L22.4622951,9.00442943 L22.4622951,8.22322322 C22.504918,7.44201702 22.2065574,7.07197197 21.695082,7.07197197 Z" id="Shape"></path>
                        <path d="M25.4885246,2.87812813 C25.1901639,1.56241241 24.0393443,0.575625626 22.7180328,0.452277277 C19.5213115,0.123348348 16.3245902,0.123348348 13.1278689,0.123348348 C9.93114754,0.123348348 6.69180328,0.123348348 3.53770492,0.452277277 C2.17377049,0.616741742 1.06557377,1.56241241 0.767213115,2.87812813 C0.340983607,4.76946947 0.298360656,6.78415916 0.298360656,8.71661662 C0.298360656,10.6490741 0.298360656,12.7048799 0.724590164,14.5551051 C1.02295082,15.8708208 2.17377049,16.8576076 3.49508197,16.980956 C6.69180328,17.3098849 9.88852459,17.3098849 13.0852459,17.3098849 C16.2819672,17.3098849 19.5213115,17.3098849 22.6754098,16.980956 C24.0393443,16.8164915 25.147541,15.8708208 25.4459016,14.5551051 C25.9147541,12.6637638 25.9147541,10.6490741 25.9147541,8.71661662 C25.957377,6.78415916 25.957377,4.72835335 25.4885246,2.87812813 Z M7.6295082,4.56388889 L5.75409836,4.56388889 L5.75409836,14.0617117 L4.04918033,14.0617117 L4.04918033,4.56388889 L2.21639344,4.56388889 L2.21639344,3.00147648 L7.6295082,3.00147648 L7.6295082,4.56388889 Z M12.3180328,14.0617117 L10.7836066,14.0617117 L10.7836066,13.1571572 C10.1868852,13.8561311 9.59016393,14.1850601 8.99344262,14.1850601 C8.48196721,14.1850601 8.14098361,13.9794795 8.01311475,13.5683183 C7.92786885,13.3216216 7.8852459,12.9104605 7.8852459,12.3348348 L7.8852459,5.79737237 L9.41967213,5.79737237 L9.41967213,11.8825576 C9.41967213,12.2526026 9.41967213,12.4170671 9.41967213,12.4581832 C9.46229508,12.7048799 9.59016393,12.7871121 9.80327869,12.7871121 C10.1016393,12.7871121 10.442623,12.5404154 10.7836066,12.0881381 L10.7836066,5.79737237 L12.3180328,5.79737237 L12.3180328,14.0617117 Z M18.2,11.5947447 C18.2,12.375951 18.157377,12.9104605 18.0295082,13.2393894 C17.8163934,13.8561311 17.3901639,14.1850601 16.7934426,14.1850601 C16.2393443,14.1850601 15.7278689,13.8972472 15.1737705,13.2805055 L15.1737705,14.0617117 L13.6393443,14.0617117 L13.6393443,3.00147648 L15.1737705,3.00147648 L15.1737705,6.61969469 C15.6852459,6.04406907 16.1967213,5.71514014 16.7934426,5.71514014 C17.4327869,5.71514014 17.8163934,6.04406907 18.0295082,6.66081081 C18.1147541,6.98973974 18.2,7.52424925 18.2,8.30545546 L18.2,11.5947447 Z M24.0393443,10.1967968 L20.9278689,10.1967968 L20.9278689,11.676977 C20.9278689,12.4581832 21.1836066,12.8282282 21.7377049,12.8282282 C22.1213115,12.8282282 22.3344262,12.6226476 22.4196721,12.2114865 C22.4196721,12.1292543 22.4622951,11.8003253 22.4622951,11.1835836 L24.0393443,11.1835836 L24.0393443,11.3891642 C24.0393443,11.8825576 24.0393443,12.2114865 23.9967213,12.3348348 C23.9540984,12.6637638 23.8262295,12.9515766 23.6557377,13.2393894 C23.2295082,13.8561311 22.5901639,14.1439439 21.7803279,14.1439439 C20.9704918,14.1439439 20.3311475,13.8561311 19.904918,13.2805055 C19.5639344,12.8693443 19.3934426,12.2114865 19.3934426,11.348048 L19.3934426,8.46991992 C19.3934426,7.60648148 19.5213115,6.94862362 19.8622951,6.53746246 C20.2885246,5.96183684 20.9278689,5.67402402 21.7377049,5.67402402 C22.504918,5.67402402 23.1442623,5.96183684 23.5704918,6.53746246 C23.9114754,6.94862362 24.0393443,7.60648148 24.0393443,8.46991992 L24.0393443,10.1967968 L24.0393443,10.1967968 Z" id="Shape"></path>
                    </g>
                </g>
            </g>
        </g>
    </g>
</svg>