<?xml version="1.0" encoding="UTF-8"?>
<svg width="362px" height="73px" viewBox="0 0 362 73" version="1.1" xmlns="http://www.w3.org/2000/svg" xmlns:xlink="http://www.w3.org/1999/xlink">
    <!-- Generator: Sketch 46.2 (44496) - http://www.bohemiancoding.com/sketch -->
    <title>Skrill_1Tap_V2</title>
    <desc>Created with Sketch.</desc>
    <defs></defs>
    <g id="Page-1" stroke="none" stroke-width="1" fill="none" fill-rule="evenodd">
        <g id="Skrill_1Tap_V2" fill-rule="nonzero" fill="#FFFFFF">
            <polygon id="Shape" points="361.5 20.8 361.5 27.6 361.4 27.6 359.4 27.6 359.4 22.4 357.9 27.6 356.1 27.6 354.6 22.4 354.6 27.6 352.7 27.6 352.7 20.8 355.9 20.8 357.1 25 358.3 20.8"></polygon>
            <polygon id="Shape" points="351.8 20.9 351.8 22.6 351.7 22.6 349.3 22.6 349.3 27.8 346.9 27.8 346.9 22.5 344.5 22.5 344.5 20.9"></polygon>
            <path d="M349.6,46.8 C349.7,51.6 348.5,55.3 346.2,57.8 C343.9,60.3 340.9,61.7 337.4,61.7 C335.8,61.7 334.2,61.5 332.8,60.8 C331.4,60.1 330,59.4 329.1,58.3 L329.1,72.1 L317.8,72.1 L317.8,32 L328.2,32 L328.2,36.4 C329.6,34.6 331,33.4 332.1,32.7 C333.7,31.8 335.6,31.3 337.4,31.3 C341.3,31.3 344.3,32.7 346.4,35.7 C348.5,38.7 349.6,42.4 349.6,46.8 Z M337.4,51.6 C338.3,50.4 338.8,48.8 338.8,46.1 C338.8,43.8 338.3,41.9 337.4,40.8 C336.5,39.6 335.4,39.1 334,39.1 C332.6,39.1 331.5,39.6 330.5,40.7 C329.6,41.9 329.1,43.9 329.1,46.5 C329.1,48.8 329.6,50.4 330.5,51.6 C331.4,52.8 332.8,53.2 334.2,53.2 C335.6,53.2 336.5,52.7 337.4,51.6 Z" id="Shape"></path>
            <path d="M315.2,61 L304.8,61 L304.8,61.1 C304.3,60.4 304.1,59.7 303.9,59.5 C303.7,59 303.7,58.6 303.4,57.7 C302,59.1 300.4,60 299,60.7 C296.9,61.4 294.6,61.9 292.1,61.9 C288.6,61.9 285.9,61.2 284.3,59.6 C282.5,58 281.5,55.9 281.5,53.6 C281.5,51.3 282.2,49.7 283.3,48.1 C284.7,46.7 287,45.6 290.5,44.9 C294.7,44 297.4,43.5 298.6,43.1 C299.8,42.6 301.1,42.4 302.5,41.7 C302.5,40.3 302.3,39.4 301.6,38.9 C301.1,38.4 300,38 298.6,38 C296.8,38 295.4,38.2 294.4,38.9 C294.2,39.4 293.5,40.3 293,41.7 L282.4,40.3 C282.9,38.5 283.3,37.1 284.2,35.9 C285.1,34.7 286,33.8 287.4,33.1 C288.3,32.6 289.9,32.2 291.6,31.7 C293.4,31.5 295.3,31.2 297.4,31.2 C300.9,31.2 303.4,31.4 305.5,31.7 C307.6,32.2 309.2,32.9 310.6,34 C311.5,34.9 312.2,36.1 312.9,37.5 C313.4,39.1 313.8,40.5 313.8,41.9 L313.8,54.8 C313.8,56.2 313.8,57.3 314,58 C314.2,58.7 314.5,59.8 315.2,61 Z M302.7,48.9 L302.7,47.3 C301.1,47.8 299.5,48.2 297.9,48.7 C295.5,49.3 294.1,49.8 293.4,50.5 C292.7,51.2 292.5,51.9 292.5,52.6 C292.5,53.5 292.7,54.2 293.4,54.7 C294.1,55.2 295,55.6 296.2,55.6 C297.4,55.6 298.5,55.4 299.7,54.7 C300.9,54 301.5,53.3 302,52.4 C302.5,51.5 302.7,50.3 302.7,48.9 Z" id="Shape"></path>
            <polygon id="Shape" points="283.8 20.9 283.8 30.8 271.1 30.8 271.1 61.1 258.7 61.1 258.7 30.8 246 30.8 246 20.9"></polygon>
            <rect id="Rectangle-path" x="234.9" y="42.2" width="16.2" height="8.5"></rect>
            <path d="M229.9,20.2 L229.9,61.1 L218.6,61.1 L218.6,34.3 C216.8,35.7 214.9,36.8 213.3,37.8 C211.7,38.7 209.4,39.4 206.8,40.3 L206.8,31.1 C210.5,29.9 213.5,28.3 215.6,26.7 C217.7,25.1 219.3,22.8 220.4,20.2 L229.9,20.2 Z" id="Shape"></path>
            <polygon id="Shape" points="187 3.5 187 63.3 171.4 63.3 171.4 6.3"></polygon>
            <polygon id="Shape" points="164.3 3.5 164.3 63.2 148.7 63.2 148.7 6.3"></polygon>
            <rect id="Rectangle-path" x="126.5" y="19.5" width="15.6" height="43.8"></rect>
            <path d="M134.3,0 C138.5,0 142,3.5 142,7.7 C142,11.9 138.5,15.4 134.3,15.4 C130,15.4 126.6,11.9 126.6,7.7 C126.6,3.5 130.1,0 134.3,0 Z" id="Shape"></path>
            <path d="M121.8,31.8 L121.8,31.8 C112.7,32.2 111.7,35.5 111.7,43.1 L111.7,63.1 L96,63.1 L96,38.6 C96,25.8 103.3,19.4 117.7,18.9 C117.7,18.9 120.3,18.8 121.8,19.1 L121.8,31.8 Z" id="Shape"></path>
            <path d="M75.5,19.5 L93.8,19.5 C93.2,21.2 90,31.3 82.5,40.8 C82.6,40.8 90.9,55.3 92.7,63.3 L73.5,63.3 C73.5,63.3 71.2,52.8 66.6,45.8 L66.6,63.3 L50.5,63.3 L50.5,6.7 L66.6,3.5 L66.6,34.7 C72.7,27.4 75.2,20.4 75.5,19.5 Z" id="Shape"></path>
            <path d="M44.4,20.1 L44.4,20.3 L44.2,20.2 C42.3,19.5 40.1,18.6 40.1,18.6 C36.1,17.4 30.4,16.1 26.2,16.1 C23.8,16.1 17.2,16.1 17.2,21 C17.2,25.1 21.7,25.4 23.7,25.5 C38.1,26.4 46.7,33.5 46.7,44.3 C46.6,54.2 39,63.8 21.8,63.8 C13.8,63.8 7,63 1,61.4 L1,47.5 C5,49.1 11.6,50.9 18.5,50.9 C24.7,50.9 28.4,48.8 28.4,45.4 C28.4,41.1 23.9,40.9 22.2,40.8 C2.1,39.3 0,27.5 0,22.4 C0,13.7 6.2,3.4 23.8,3.4 C33.9,3.4 39.5,5 44.2,6.6 L44.4,6.7 L44.4,20.1 Z" id="Shape"></path>
        </g>
    </g>
</svg>