<?xml version="1.0" encoding="UTF-8"?>
<svg width="34" height="34" viewBox="0 0 34 34" xmlns="http://www.w3.org/2000/svg"><g fill-rule="nonzero" fill="#FFFFFF"><path d="M25.825 22.471c-1.11-1.096-2.495-1.096-3.597 0-.842.834-1.683 1.668-2.51 2.517-.226.233-.417.282-.693.127-.544-.297-1.123-.537-1.647-.863-2.438-1.533-4.481-3.506-6.29-5.725-.898-1.103-1.697-2.283-2.255-3.612-.114-.269-.092-.446.127-.665.84-.813 1.66-1.647 2.488-2.48 1.152-1.16 1.152-2.517-.007-3.684-.658-.664-1.315-1.314-1.972-1.979-.679-.678-1.35-1.364-2.036-2.035-1.11-1.082-2.495-1.082-3.598.007-.848.834-1.661 1.689-2.523 2.509C.512 7.344.11 8.27.025 9.352c-.134 1.76.297 3.421.905 5.04 1.244 3.35 3.138 6.326 5.436 9.055 3.103 3.69 6.807 6.609 11.14 8.715 1.95.947 3.972 1.675 6.17 1.796 1.513.084 2.828-.297 3.881-1.478.721-.806 1.534-1.54 2.298-2.311 1.13-1.145 1.138-2.53.014-3.662-1.343-1.35-2.693-2.693-4.044-4.036zM24.475 16.837l2.609-.445a11.658 11.658 0 0 0-3.259-6.291 11.595 11.595 0 0 0-6.644-3.315l-.368 2.622a8.996 8.996 0 0 1 5.146 2.566 8.995 8.995 0 0 1 2.516 4.863zM28.554 5.5A19.233 19.233 0 0 0 17.527 0l-.368 2.622a16.676 16.676 0 0 1 9.529 4.75 16.663 16.663 0 0 1 4.672 9.013l2.608-.445A19.374 19.374 0 0 0 28.554 5.5z"/></g></svg>