<svg id="Layer_3" data-name="Layer 3" xmlns="http://www.w3.org/2000/svg" viewBox="0 0 294.58 248.29"><defs><style>.cls-1{fill:#fff;}.cls-2,.cls-4,.cls-5{fill:none;}.cls-2{stroke:#2c2c2c;stroke-width:6px;}.cls-2,.cls-5{stroke-miterlimit:10;}.cls-3{fill:#2c2c2c;}.cls-4,.cls-5{stroke:#fff;stroke-width:20px;}</style></defs><rect class="cls-1" x="111.21" y="3" width="113.2" height="203.2" rx="10"/><rect class="cls-2" x="111.21" y="3" width="113.2" height="203.2" rx="10"/><path class="cls-3" d="M233.34,162.18l-9.26,8.15-5.55-6.39,15.07-12.72h9.13v46.19h-9.39Z" transform="translate(-71.26 -124.93)"/><path class="cls-3" d="M219.86,281.82l17.93-16.11a31.78,31.78,0,0,0,2.74-2.8,5.37,5.37,0,0,0,1.37-3.66,4.45,4.45,0,0,0-1.69-3.69,6.25,6.25,0,0,0-4-1.34,5.46,5.46,0,0,0-4.27,1.7,6.87,6.87,0,0,0-1.73,4.18l-9.79-.72a15.91,15.91,0,0,1,1.5-6.23,13,13,0,0,1,3.46-4.4,14.36,14.36,0,0,1,5.06-2.64,21.44,21.44,0,0,1,6.29-.88,19.05,19.05,0,0,1,5.88.88,13.65,13.65,0,0,1,4.76,2.6,12.09,12.09,0,0,1,3.16,4.34,15.08,15.08,0,0,1,1.14,6.07,16.51,16.51,0,0,1-.45,4,13.76,13.76,0,0,1-1.28,3.26A14.43,14.43,0,0,1,248,269.1a32.33,32.33,0,0,1-2.41,2.42l-14,12.06h20.48v8.62H219.86Z" transform="translate(-71.26 -124.93)"/><path class="cls-4" d="M233.14,311.08a165.76,165.76,0,0,0-51.74-14.84c.61-4.23,1.21-8.48,1.81-12.71,4-2.54,6.82-6.27,7.07-9.39.46-3.93.92-7.85,1.37-11.79a3.5,3.5,0,0,0,2.14,1.08,3.43,3.43,0,0,0,3.76-3.06l1.88-18.15a3.43,3.43,0,0,0-5.05-3.35c.41-3.46.81-6.9,1.2-10.36.33-4.73,2.67-17.35-6.45-25.49-13.19-12.94-42.2-12.94-55.38,0-9.11,8.14-6.78,20.76-6.46,25.49.4,3.46.81,6.9,1.2,10.36a3.36,3.36,0,0,0-2-.4,3.43,3.43,0,0,0-3,3.75l1.88,18.15a3.42,3.42,0,0,0,3.75,3.06,3.5,3.5,0,0,0,2.14-1.08c.45,3.94.91,7.86,1.37,11.79.28,3.12,3.12,6.85,7.08,9.39q.9,6.35,1.79,12.71a165.72,165.72,0,0,0-51.72,14.84c-5.28,2.78-9,9.95-8.42,15.51q.93,9.57,1.91,19.13c.57,5.56,5.34,11,10.62,12.07a424,424,0,0,0,135.19,0c5.27-1,10-6.51,10.61-12.07.66-6.37,1.28-12.75,1.9-19.13C242.1,321,238.42,313.85,233.14,311.08Z" transform="translate(-71.26 -124.93)"/><path class="cls-3" d="M233.14,311.08a165.76,165.76,0,0,0-51.74-14.84c.61-4.23,1.21-8.48,1.81-12.71,4-2.54,6.82-6.27,7.07-9.39.46-3.93.92-7.85,1.37-11.79a3.5,3.5,0,0,0,2.14,1.08,3.43,3.43,0,0,0,3.76-3.06l1.88-18.15a3.43,3.43,0,0,0-5.05-3.35c.41-3.46.81-6.9,1.2-10.36.33-4.73,2.67-17.35-6.45-25.49-13.19-12.94-42.2-12.94-55.38,0-9.11,8.14-6.78,20.76-6.46,25.49.4,3.46.81,6.9,1.2,10.36a3.36,3.36,0,0,0-2-.4,3.43,3.43,0,0,0-3,3.75l1.88,18.15a3.42,3.42,0,0,0,3.75,3.06,3.5,3.5,0,0,0,2.14-1.08c.45,3.94.91,7.86,1.37,11.79.28,3.12,3.12,6.85,7.08,9.39q.9,6.35,1.79,12.71a165.72,165.72,0,0,0-51.72,14.84c-5.28,2.78-9,9.95-8.42,15.51q.93,9.57,1.91,19.13c.57,5.56,5.34,11,10.62,12.07a424,424,0,0,0,135.19,0c5.27-1,10-6.51,10.61-12.07.66-6.37,1.28-12.75,1.9-19.13C242.1,321,238.42,313.85,233.14,311.08Z" transform="translate(-71.26 -124.93)"/><polygon class="cls-5" points="195.15 88.59 214.07 161.11 226.67 138.11 249.4 160.84 267.43 142.8 244.67 120.1 267.67 107.52 195.15 88.59"/><polygon class="cls-3" points="195.15 88.59 214.07 161.11 226.67 138.11 249.4 160.84 267.43 142.8 244.67 120.1 267.67 107.52 195.15 88.59"/></svg>