<?xml version="1.0" encoding="UTF-8"?>
<svg width="439px" height="108px" viewBox="0 0 439 108" version="1.1" xmlns="http://www.w3.org/2000/svg" xmlns:xlink="http://www.w3.org/1999/xlink">
    <!-- Generator: Sketch 45.2 (43514) - http://www.bohemiancoding.com/sketch -->
    <title>Euteller</title>
    <desc>Created with Sketch.</desc>
    <defs></defs>
    <g id="Page-1" stroke="none" stroke-width="1" fill="none" fill-rule="evenodd">
        <g id="Euteller" fill-rule="nonzero" fill="#FFFFFF">
            <g id="Group">
                <path d="M70.5,8.7 C52.5,-0.6 29.6,3.3 14.9,17.6 C1.1,31.1 -4,53.7 3.8,69.5 C32.1,56 53.2,34.8 70.5,8.7 Z M13.3,72 C44,66.4 70.2,51.7 93.7,31.7 C89.5,21.8 80.7,12.8 71.9,9.4 C57.3,34.7 38.1,55.8 13.3,72 Z M98.1,62.1 C70.4,76.9 42.1,84.1 11.2,84.3 C25.6,99.5 42,105.4 61.2,100.6 C80.6,95.8 92.4,82.7 98.1,62.1 Z M172.8,17.9 C164.3,17.9 156.3,17.4 148.5,18 C139.3,18.8 134.6,23.8 134.3,33 C133.9,46 133.9,59 134.3,72 C134.6,81.2 139.4,86.1 148.5,87 C154.6,87.6 160.8,87.4 166.9,87.2 C173.5,87 173.5,86.9 172.2,79.6 C170.2,79.6 168.1,79.6 166,79.6 C160.3,79.5 154.7,79.4 149,79.1 C145.6,78.9 143.2,76.9 143.1,73.5 C142.8,67.4 143,61.3 143,54.9 C151.5,54.9 159.5,54.9 167.4,54.9 C170,54.9 172.9,55.6 172.9,51.3 C173,46.7 169.9,47.3 167.1,47.3 C159.2,47.3 151.2,47.3 142.7,47.3 C142.7,43.5 142.7,40.2 142.7,36.9 C142.7,27.1 144.4,25.4 154.3,25.2 C156.8,25.2 159.3,25.2 161.8,25.2 C165.4,25.2 168.9,25.2 172.5,25.2 C172.8,22.4 172.8,20.6 172.8,17.9 Z M213.7,84.5 C213.6,84.8 213.6,85.1 213.5,85.3 C216.1,85.8 218.8,86.7 221.3,86.4 C222.1,86.3 222.9,82.9 222.9,80.9 C223,67.6 223,54.3 223,40.9 C223,38.1 223.2,35.7 219.1,35.6 C215,35.5 214.5,37.5 214.5,40.8 C214.6,51.5 214.6,62.1 214.5,72.8 C214.5,74.3 213.7,76.7 212.6,77.3 C207.6,79.8 202.2,81.6 196.8,78.8 C191.8,76.2 192.5,70.9 192.4,66.4 C192.2,58.2 192.4,50.1 192.4,41.9 C192.4,40.9 192.4,39.9 192.4,38.9 C192.5,35.6 190.2,35.3 188,35.9 C186.5,36.3 184.3,37.9 184.3,39 C184.1,50.2 183.8,61.3 184.4,72.5 C185,83.3 192.4,88.8 203.2,87.2 C206.7,86.7 210.1,85.4 213.7,84.5 Z M63,0.2 C89.7,8.6 105.9,26 105.5,54 C105.2,82.8 88.4,100.1 60.6,107.5 C90.7,107.6 115.4,82.2 114.5,52.6 C113.7,23.8 89.1,-1.3 63,0.2 Z M261.5,80.7 C259.4,80.7 256.9,81.2 254.9,80.5 C253.1,79.9 250.6,77.9 250.5,76.4 C250.1,65.5 250.3,54.5 250.3,43 C253.1,43 255.3,42.9 257.6,43 C260.2,43.1 262.1,42.7 262.1,39.3 C262.1,35.7 259.8,35.8 257.4,35.8 C255.1,35.8 252.9,35.8 250.5,35.8 C250.3,31.5 250,28 249.8,23.8 C247,24.4 243.6,24.3 243.2,25.4 C241.9,28.4 241.9,32 241.3,35.8 C239.2,35.8 237,35.5 234.9,35.9 C233.5,36.2 232.4,37.6 231.1,38.6 C232.2,39.7 233.1,41.4 234.4,41.9 C236.7,42.7 239.2,42.8 241.4,43.1 C241.6,43.8 241.8,44.1 241.8,44.4 C241.8,54.1 241.9,63.7 241.9,73.4 C241.9,85.2 245.8,88.5 257.5,87.4 C261.9,87 263.1,85.3 261.5,80.7 Z M329.9,52.3 C329.9,42.2 329.8,32 329.9,21.9 C329.9,18.7 329.3,16.9 325.6,17 C322.3,17.1 321.3,18.4 321.3,21.5 C321.4,41.8 321.4,62 321.3,82.3 C321.3,85.8 322.6,86.9 326,86.9 C329.6,86.9 330,85 329.9,82.2 C329.8,72.3 329.9,62.3 329.9,52.3 Z M424.6,38.2 C424.5,37.9 424.5,37.6 424.4,37.2 C421.9,36.8 419.4,36 417.1,36.3 C416.3,36.4 415.4,39.5 415.4,41.2 C415.3,54.5 415.3,67.8 415.3,81.1 C415.3,84.2 415,87 419.7,86.9 C424.1,86.8 423.9,84.2 423.9,81.3 C423.9,71.7 423.9,62 423.9,52.4 C423.9,45.6 424.9,44.3 431.8,43 C432.9,42.8 434.1,42.6 435.3,42.6 C438.7,42.5 439.2,40 438.4,37.8 C438,36.6 435.5,35.2 434.2,35.4 C430.9,35.9 427.8,37.2 424.6,38.2 Z M352.2,52 C352.2,41.8 352.1,31.7 352.2,21.5 C352.2,18.4 351.3,17 347.9,17 C344.4,17 343.8,18.6 343.8,21.6 C343.9,41.9 343.9,62.2 343.8,82.5 C343.8,85.6 344.7,86.9 348,86.9 C351.5,86.9 352.2,85.4 352.1,82.3 C352.2,72.3 352.2,62.1 352.2,52 Z" id="Shape"></path>
                <path d="M70.5,8.7 C53.2,34.8 32.1,56 3.8,69.5 C-3.9,53.7 1.1,31.1 14.9,17.6 C29.6,3.3 52.5,-0.6 70.5,8.7 Z" id="Shape"></path>
                <path d="M13.3,72 C38.1,55.8 57.3,34.7 71.8,9.4 C80.6,12.8 89.4,21.8 93.6,31.7 C70.2,51.7 44,66.4 13.3,72 Z" id="Shape"></path>
                <path d="M98.1,62.1 C92.3,82.7 80.6,95.8 61.2,100.6 C42,105.4 25.6,99.5 11.2,84.3 C42.1,84.1 70.4,76.9 98.1,62.1 Z" id="Shape"></path>
                <path d="M172.8,17.9 C172.8,20.7 172.8,22.5 172.8,25.2 C169.2,25.2 165.6,25.2 162.1,25.2 C159.6,25.2 157.1,25.2 154.6,25.2 C144.7,25.4 143,27.1 143,36.9 C143,40.2 143,43.5 143,47.3 C151.5,47.3 159.4,47.3 167.4,47.3 C170.2,47.3 173.2,46.7 173.2,51.3 C173.1,55.7 170.2,54.9 167.7,54.9 C159.7,54.9 151.8,54.9 143.3,54.9 C143.3,61.3 143.1,67.4 143.4,73.5 C143.5,76.9 145.9,79 149.3,79.1 C154.9,79.4 160.6,79.5 166.3,79.6 C168.4,79.7 170.5,79.6 172.5,79.6 C173.8,86.9 173.8,87 167.2,87.2 C161.1,87.3 154.9,87.5 148.8,87 C139.7,86.2 134.8,81.2 134.6,72 C134.2,59 134.2,46 134.6,33 C134.9,23.8 139.5,18.8 148.8,18 C156.3,17.3 164.3,17.9 172.8,17.9 Z" id="Shape"></path>
                <path d="M213.7,84.5 C210.2,85.4 206.7,86.7 203.2,87.3 C192.4,88.9 185,83.4 184.4,72.6 C183.8,61.5 184.1,50.3 184.3,39.1 C184.3,38 186.5,36.4 188,36 C190.1,35.4 192.5,35.8 192.4,39 C192.4,40 192.4,41 192.4,42 C192.4,50.2 192.3,58.3 192.4,66.5 C192.5,71.1 191.8,76.3 196.8,78.9 C202.2,81.7 207.6,79.9 212.6,77.4 C213.7,76.8 214.5,74.5 214.5,72.9 C214.7,62.2 214.7,51.6 214.5,40.9 C214.5,37.6 214.9,35.6 219.1,35.7 C223.3,35.8 223,38.1 223,41 C223,54.3 223,67.6 222.9,81 C222.9,82.9 222,86.4 221.3,86.5 C218.8,86.8 216.1,85.8 213.5,85.4 C213.5,85 213.6,84.8 213.7,84.5 Z" id="Shape"></path>
                <path d="M63,0.2 C89.1,-1.4 113.6,23.8 114.5,52.6 C115.4,82.3 90.7,107.6 60.6,107.5 C88.4,100.1 105.2,82.8 105.5,54 C105.9,26 89.8,8.6 63,0.2 Z" id="Shape"></path>
                <path d="M261.5,80.7 C263.1,85.4 261.9,87.1 257.6,87.5 C245.9,88.7 242,85.3 242,73.5 C242,63.8 242,54.2 241.9,44.5 C241.9,44.2 241.7,43.9 241.5,43.2 C239.3,42.8 236.7,42.8 234.5,42 C233.2,41.5 232.3,39.9 231.2,38.7 C232.4,37.8 233.6,36.3 235,36 C237,35.5 239.2,35.9 241.4,35.9 C242,32.1 242,28.6 243.3,25.5 C243.8,24.4 247.2,24.5 249.9,23.9 C250.1,28 250.3,31.6 250.6,35.9 C253,35.9 255.2,35.9 257.5,35.9 C259.9,35.9 262.2,35.7 262.2,39.4 C262.2,42.8 260.3,43.2 257.7,43.1 C255.4,43 253.1,43.1 250.4,43.1 C250.4,54.6 250.2,65.6 250.6,76.5 C250.6,78 253.2,79.9 255,80.6 C256.9,81.2 259.3,80.7 261.5,80.7 Z" id="Shape"></path>
                <path d="M329.9,52.3 C329.9,62.3 329.8,72.2 329.9,82.2 C329.9,85.1 329.6,86.9 326,86.9 C322.6,86.9 321.3,85.8 321.3,82.3 C321.4,62 321.4,41.8 321.3,21.5 C321.3,18.4 322.3,17.1 325.6,17 C329.4,16.9 330,18.7 329.9,21.9 C329.8,32.1 329.9,42.2 329.9,52.3 Z" id="Shape"></path>
                <path d="M424.6,38.2 C427.8,37.2 430.9,35.9 434.1,35.5 C435.4,35.3 437.9,36.7 438.3,37.9 C439.1,40.1 438.6,42.6 435.2,42.7 C434,42.7 432.9,42.9 431.7,43.1 C424.9,44.4 423.8,45.7 423.8,52.5 C423.8,62.1 423.8,71.8 423.8,81.4 C423.8,84.4 424,86.9 419.6,87 C414.9,87.1 415.2,84.3 415.2,81.2 C415.2,67.9 415.2,54.6 415.3,41.3 C415.3,39.6 416.2,36.5 417,36.4 C419.3,36 421.9,36.9 424.3,37.3 C424.5,37.5 424.6,37.8 424.6,38.2 Z" id="Shape"></path>
                <path d="M352.2,52 C352.2,62.2 352.1,72.3 352.2,82.5 C352.2,85.5 351.6,87.1 348.1,87.1 C344.7,87.1 343.9,85.8 343.9,82.7 C344,62.4 344,42.1 343.9,21.8 C343.9,18.8 344.5,17.2 348,17.2 C351.4,17.2 352.3,18.6 352.3,21.7 C352.2,31.7 352.2,41.8 352.2,52 Z" id="Shape"></path>
            </g>
            <path d="M309,50.3 C306.9,40.7 300.3,35.3 290.2,35 C279.8,34.7 271.5,39.6 270.1,49.1 C268.9,57.3 269.2,66 270.3,74.3 C271.2,81 276.5,85.8 283.2,86.5 C290.6,87.3 298.1,86.4 305.5,85.8 C306.5,85.7 307.3,82.7 308.2,81.1 C306.9,80.5 305.7,79.3 304.4,79.3 C300.5,79.3 296.5,79.9 292.5,80 C281,80.2 277.4,76.6 277.4,64 C284.6,64 291.6,64 298.4,63.9 C311.1,63.9 311.8,63.1 309,50.3 Z M277.5,57.5 C277,52.7 277.6,48.3 281.5,45.1 C283.9,43.2 286.6,42.3 289.3,42.4 C291.4,42.4 293.6,43 295.7,44 C300.7,46.4 301.2,51.2 301.1,56.4 C301.1,56.8 301.1,57.1 301.1,57.5 C293.1,57.5 285.6,57.5 277.5,57.5 C277.6,57.5 277.5,57.5 277.5,57.5 Z" id="Shape"></path>
            <path d="M403.5,50.3 C401.4,40.7 394.8,35.3 384.7,35 C374.3,34.7 366,39.6 364.6,49.1 C363.4,57.3 363.7,66 364.8,74.3 C365.7,81 371,85.8 377.7,86.5 C385.1,87.3 392.6,86.4 400,85.8 C401,85.7 401.8,82.7 402.7,81.1 C401.4,80.5 400.2,79.3 398.9,79.3 C395,79.3 391,79.9 387,80 C375.5,80.2 371.9,76.6 371.9,64 C379.1,64 386.1,64 392.9,63.9 C405.6,63.9 406.3,63.1 403.5,50.3 Z M372,57.5 C371.5,52.7 372.1,48.3 376,45.1 C378.4,43.2 381.1,42.3 383.8,42.4 C385.9,42.4 388.1,43 390.2,44 C395.2,46.4 395.7,51.2 395.6,56.4 C395.6,56.8 395.6,57.1 395.6,57.5 C387.6,57.5 380.1,57.5 372,57.5 C372.1,57.5 372,57.5 372,57.5 Z" id="Shape"></path>
        </g>
    </g>
</svg>