<?xml version="1.0" encoding="UTF-8"?>
<svg width="51px" height="67px" viewBox="0 0 51 67" version="1.1" xmlns="http://www.w3.org/2000/svg" xmlns:xlink="http://www.w3.org/1999/xlink">
    <!-- Generator: Sketch 45.1 (43504) - http://www.bohemiancoding.com/sketch -->
    <title>Page 1</title>
    <desc>Created with Sketch.</desc>
    <defs></defs>
    <g id="Mobile" stroke="none" stroke-width="1" fill="none" fill-rule="evenodd">
        <g id="1.4_Deposit-Process-(bitcoin-&amp;-credit-card-inactive)" transform="translate(-74.000000, -334.000000)" fill="#FFFFFF">
            <g id="Page-1" transform="translate(74.000000, 334.000000)">
                <path d="M38.6907542,26.9103464 C37.0683478,33.4539578 27.0536757,30.1293545 23.8072242,29.3142904 L26.6718366,17.7483005 C29.9182882,18.5633645 40.3803511,20.0845975 38.6907542,26.9103464 M36.9110235,45.5726733 C35.1329317,52.7647062 23.1025426,48.8791275 19.2005733,47.9023706 L22.3618076,35.150083 C26.262138,36.1301398 38.7694163,38.0721041 36.9110235,45.5726733 M50.0574316,27.0142918 C51.1013436,19.9889017 45.7883724,16.2122182 38.5219584,13.6927794 L40.8801834,4.17599908 L35.1263765,2.73231275 L32.8320645,11.9983041 C31.3194573,11.6188208 29.7658803,11.2607866 28.2237749,10.9060523 L30.532836,1.57901362 L24.7839456,0.135327288 L22.4257205,9.64880771 C21.1736817,9.36172037 19.9445859,9.07793289 18.7515437,8.77929606 L18.7580988,8.74959737 L10.8230567,6.75483535 L9.29242285,12.9420625 C9.29242285,12.9420625 13.5614821,13.927069 13.4697096,13.9881163 C15.8017139,14.5738405 16.222884,16.126422 16.1524159,17.3572677 L13.466432,28.1989396 C13.6286726,28.2401878 13.8367995,28.3012351 14.0662307,28.3919811 C13.872853,28.3441332 13.6680037,28.2913355 13.458238,28.2401878 L9.69556625,43.4277679 C9.41041604,44.1405365 8.68606895,45.2080394 7.05874619,44.8038073 C7.11446519,44.8879535 2.87654308,43.7528036 2.87654308,43.7528036 L0.0184857801,50.3855111 L7.50777583,52.2664281 C8.89911221,52.6178626 10.2642279,52.9841465 11.609678,53.3306312 L9.22687107,62.9563067 L14.9741228,64.399993 L17.3323478,54.8749631 C18.9023127,55.3039442 20.4247527,55.6999267 21.9176943,56.0744602 L19.5676632,65.5516422 L25.3214701,66.9953285 L27.7026383,57.3894522 C37.5124611,59.2588197 44.8919519,58.504803 47.9974671,49.572097 C50.4999061,42.3800642 47.8729188,38.2288472 42.7107167,35.5213166 C46.4701108,34.6468552 49.3019474,32.157115 50.0574316,27.0142918" id="Fill-4"></path>
            </g>
        </g>
    </g>
</svg>