<?xml version="1.0" encoding="UTF-8"?>
<svg width="50px" height="31px" viewBox="0 0 50 31" version="1.1" xmlns="http://www.w3.org/2000/svg" xmlns:xlink="http://www.w3.org/1999/xlink">
    <!-- Generator: Sketch 64 (93537) - https://sketch.com -->
    <title>noun_increase_2500238</title>
    <desc>Created with Sketch.</desc>
    <g id="Page-2" stroke="none" stroke-width="1" fill="none" fill-rule="evenodd">
        <g id="noun_increase_2500238" fill="#FFFFFF" fill-rule="nonzero">
            <path d="M47.9593352,0.0277705238 L36.4859359,2.24780795 C35.1175489,2.51854422 34.5912461,4.25125636 35.5912213,5.22590694 L38.433256,8.14985867 L27.2756384,19.6832238 L19.1705765,11.3445467 C18.1706013,10.3157488 16.5390629,10.3157488 15.5390877,11.3445467 L0.749981373,26.5057779 C-0.249993791,27.5345757 -0.249993791,29.2131406 0.749981373,30.2419384 C1.22365382,30.7292637 1.90784735,31 2.53941061,31 C3.17097388,31 3.85516741,30.7292637 4.32883986,30.2419384 L17.2758867,16.9217139 L25.4862091,25.260391 C26.4861843,26.2891889 28.1177227,26.2891889 29.1176979,25.260391 L42.0647447,11.9401665 L44.9067794,14.8641182 C45.9067546,15.892916 47.5909233,15.3514435 47.8014444,13.9436149 L49.9592855,2.13951344 C50.2224369,0.894126593 49.1698314,-0.188818494 47.9593352,0.0277705238 Z" id="Path"></path>
        </g>
    </g>
</svg>