<?xml version="1.0" encoding="utf-8"?>
<!-- Generator: Adobe Illustrator 24.0.2, SVG Export Plug-In . SVG Version: 6.00 Build 0)  -->
<svg version="1.1"
	 id="レイヤー_1" xmlns:cc="http://creativecommons.org/ns#" xmlns:dc="http://purl.org/dc/elements/1.1/" xmlns:rdf="http://www.w3.org/1999/02/22-rdf-syntax-ns#" xmlns:svg="http://www.w3.org/2000/svg"
	 xmlns="http://www.w3.org/2000/svg" xmlns:xlink="http://www.w3.org/1999/xlink" x="0px" y="0px" viewBox="0 0 300 231.5"
	 style="enable-background:new 0 0 300 231.5;" xml:space="preserve">
<style type="text/css">
	.st0{fill:#FFFFFF;}
	.st1{fill:url(#path6338_1_);}
	.st2{fill:url(#path6349_1_);}
	.st3{fill:url(#path6360_1_);}
	.st4{fill:url(#path6371_1_);}
	.st5{fill:url(#path6384_1_);}
</style>
<g id="g6321" transform="translate(-9.4000001,96.810998)">
	<g id="g6323" transform="matrix(1.8215159,0,0,1.8215159,-8.5437653,-109.83667)">
		<path id="path6325" class="st0" d="M174,108.3c0,14-11.4,25.4-25.4,25.4H10.4V33.1c0-14,11.4-25.4,25.4-25.4H174V108.3L174,108.3z
			"/>
		<g id="g6327">
			
				<linearGradient id="path6338_1_" gradientUnits="userSpaceOnUse" x1="-23.8047" y1="198.5906" x2="16.1396" y2="198.5906" gradientTransform="matrix(2.0492 0 0 -2.0492 168.8641 484.6529)">
				<stop  offset="0" style="stop-color:#007940"/>
				<stop  offset="0.2285" style="stop-color:#00873F"/>
				<stop  offset="0.7433" style="stop-color:#40A737"/>
				<stop  offset="1" style="stop-color:#5CB531"/>
			</linearGradient>
			<path id="path6338" class="st1" d="M129,82.5h10.5c0.3,0,1-0.1,1.3-0.1c2-0.4,3.7-2.2,3.7-4.7c0-2.4-1.7-4.2-3.7-4.7
				c-0.3-0.1-0.9-0.1-1.3-0.1H129V82.5L129,82.5z"/>
			
				<linearGradient id="path6349_1_" gradientUnits="userSpaceOnUse" x1="-23.8054" y1="201.9822" x2="16.1057" y2="201.9822" gradientTransform="matrix(2.0492 0 0 -2.0492 168.8641 484.6529)">
				<stop  offset="0" style="stop-color:#007940"/>
				<stop  offset="0.2285" style="stop-color:#00873F"/>
				<stop  offset="0.7433" style="stop-color:#40A737"/>
				<stop  offset="1" style="stop-color:#5CB531"/>
			</linearGradient>
			<path id="path6349" class="st2" d="M138.3,16.2c-10,0-18.2,8.1-18.2,18.2v18.9h25.7c0.6,0,1.3,0,1.8,0.1
				c5.8,0.3,10.1,3.3,10.1,8.5c0,4.1-2.9,7.6-8.3,8.3v0.2c5.9,0.4,10.4,3.7,10.4,8.8c0,5.5-5,9.1-11.6,9.1H120v37h26.7
				c10,0,18.2-8.1,18.2-18.2V16.2L138.3,16.2L138.3,16.2z"/>
			
				<linearGradient id="path6360_1_" gradientUnits="userSpaceOnUse" x1="-23.8053" y1="205.7153" x2="16.1406" y2="205.7153" gradientTransform="matrix(2.0492 0 0 -2.0492 168.8641 484.6529)">
				<stop  offset="0" style="stop-color:#007940"/>
				<stop  offset="0.2285" style="stop-color:#00873F"/>
				<stop  offset="0.7433" style="stop-color:#40A737"/>
				<stop  offset="1" style="stop-color:#5CB531"/>
			</linearGradient>
			<path id="path6360" class="st3" d="M143.2,63.1c0-2.4-1.7-4-3.7-4.3c-0.2,0-0.7-0.1-1-0.1H129v8.8h9.5c0.3,0,0.9,0,1-0.1
				C141.5,67.1,143.2,65.5,143.2,63.1z"/>
		</g>
		
			<linearGradient id="path6371_1_" gradientUnits="userSpaceOnUse" x1="-72.8991" y1="202.0066" x2="-32.3364" y2="202.0066" gradientTransform="matrix(2.0492 0 0 -2.0492 168.8641 484.6529)">
			<stop  offset="0" style="stop-color:#1F286F"/>
			<stop  offset="0.4751" style="stop-color:#004E94"/>
			<stop  offset="0.8261" style="stop-color:#0066B1"/>
			<stop  offset="1" style="stop-color:#006FBC"/>
		</linearGradient>
		<path id="path6371" class="st4" d="M37.7,16.2c-10,0-18.2,8.1-18.2,18.2v44.9c5.1,2.5,10.4,4.1,15.7,4.1c6.3,0,9.7-3.8,9.7-9V53.2
			h15.6v21.1c0,8.2-5.1,14.9-22.4,14.9c-10.5,0-18.7-2.3-18.7-2.3v38.3h26.7c10,0,18.2-8.1,18.2-18.2V16.2
			C64.3,16.2,37.7,16.2,37.7,16.2z"/>
		
			<linearGradient id="path6384_1_" gradientUnits="userSpaceOnUse" x1="-48.4689" y1="201.9578" x2="-9.0731" y2="201.9578" gradientTransform="matrix(2.0492 0 0 -2.0492 168.8641 484.6529)">
			<stop  offset="0" style="stop-color:#6C2C2F"/>
			<stop  offset="0.1735" style="stop-color:#882730"/>
			<stop  offset="0.5731" style="stop-color:#BE1833"/>
			<stop  offset="0.8585" style="stop-color:#DC0436"/>
			<stop  offset="1" style="stop-color:#E60039"/>
		</linearGradient>
		<path id="path6384" class="st5" d="M88,16.2c-10,0-18.2,8.1-18.2,18.2v23.8c4.6-3.9,12.6-6.4,25.5-5.8c6.9,0.3,14.3,2.2,14.3,2.2
			v7.7c-3.7-1.9-8.1-3.6-13.8-4c-9.8-0.7-15.7,4.1-15.7,12.5c0,8.5,5.9,13.3,15.7,12.5c5.7-0.4,10.1-2.2,13.8-4V87
			c0,0-7.3,1.9-14.3,2.2c-12.9,0.6-20.9-1.9-25.5-5.8v42h26.7c10,0,18.2-8.1,18.2-18.2v-91C114.7,16.2,88,16.2,88,16.2z"/>
	</g>
	<g id="g6386">
	</g>
</g>
</svg>
