<?xml version="1.0" encoding="UTF-8"?>
<svg width="300px" height="34px" viewBox="0 0 300 34" version="1.1" xmlns="http://www.w3.org/2000/svg" xmlns:xlink="http://www.w3.org/1999/xlink">
    <!-- Generator: Sketch 45.1 (43504) - http://www.bohemiancoding.com/sketch -->
    <title>Page 1</title>
    <desc>Created with Sketch.</desc>
    <defs>
        <polygon id="path-1" points="5.24124324 4.85714286 0.702324324 4.85714286 0.702324324 0.2754 5.24124324 0.2754 5.24124324 4.85714286"></polygon>
        <polygon id="path-3" points="0.000324324324 0.33352381 42.9238378 0.33352381 42.9238378 32.9917381 0.000324324324 32.9917381"></polygon>
        <polygon id="path-5" points="0 33.6668 299.639189 33.6668 299.639189 0.809847619 0 0.809847619"></polygon>
    </defs>
    <g id="Desktop" stroke="none" stroke-width="1" fill="none" fill-rule="evenodd">
        <g id="2.0_Account-Created" transform="translate(-569.000000, -52.000000)">
            <g id="Page-1" transform="translate(569.000000, 52.000000)">
                <g id="Group-3" transform="translate(254.594595, 28.809657)">
                    <mask id="mask-2" fill="white">
                        <use xlink:href="#path-1"></use>
                    </mask>
                    <g id="Clip-2"></g>
                    <path d="M0.702324324,2.56635238 C0.702324324,2.25144762 0.759891892,1.95192381 0.875027027,1.67020952 C0.989351351,1.38687619 1.1507027,1.1424 1.35664865,0.935161905 C1.56178378,0.72792381 1.80421622,0.566019048 2.08394595,0.449447619 C2.36367568,0.333685714 2.65881081,0.2754 2.97178378,0.2754 C3.28394595,0.2754 3.57989189,0.333685714 3.85962162,0.449447619 C4.13935135,0.566019048 4.38178378,0.72792381 4.58772973,0.935161905 C4.79286486,1.1424 4.95340541,1.38687619 5.06854054,1.67020952 C5.18286486,1.95192381 5.24124324,2.25144762 5.24124324,2.56635238 C5.24124324,2.88206667 5.18286486,3.17997143 5.06854054,3.46249524 C4.95340541,3.74501905 4.79286486,3.98949524 4.58772973,4.19673333 C4.38178378,4.40478095 4.13935135,4.56668571 3.85962162,4.68244762 C3.57989189,4.79820952 3.28394595,4.85730476 2.97178378,4.85730476 C2.65881081,4.85730476 2.36367568,4.79820952 2.08394595,4.68244762 C1.80421622,4.56668571 1.56178378,4.40478095 1.35664865,4.19673333 C1.1507027,3.98949524 0.989351351,3.74501905 0.875027027,3.46249524 C0.759891892,3.17997143 0.702324324,2.88206667 0.702324324,2.56635238" id="Fill-1" fill="#010202" mask="url(#mask-2)"></path>
                </g>
                <polygon id="Fill-4" fill="#ED3536" points="45.6861081 33.467819 45.6861081 0.876390476 67.3931351 0.876390476 67.3931351 7.50477143 53.2112432 7.50477143 53.2112432 13.6733429 66.618 13.6733429 66.618 19.9795333 53.2112432 19.9795333 53.2112432 26.7471524 68.2144865 26.7471524 68.2144865 33.467819"></polygon>
                <path d="M97.4006757,4.09254762 C98.7085135,2.8102619 100.228784,1.73359524 101.932297,0.876309524 L70.2660811,0.876309524 L70.2660811,7.59697619 L79.3868919,7.59697619 L79.3868919,33.4677381 L87.1852703,33.4677381 L87.1852703,7.59697619 L94.6414865,7.59697619 C95.4133784,6.31064286 96.3360811,5.13764286 97.4006757,4.09254762" id="Fill-6" fill="#ED3536"></path>
                <g id="Group-10" transform="translate(0.000000, 0.476324)">
                    <mask id="mask-4" fill="white">
                        <use xlink:href="#path-3"></use>
                    </mask>
                    <g id="Clip-9"></g>
                    <path d="M34.3462703,24.5330238 L34.3097838,24.5994048 C34.2943784,24.6285476 34.278973,24.6576905 34.2595135,24.6860238 C33.9319459,25.166881 33.516,25.5627381 33.023027,25.8630714 C32.5268108,26.1666429 31.9495135,26.3819762 31.3057297,26.5025952 C30.6587027,26.6240238 30.0214054,26.6855476 29.4132973,26.6855476 L22.7038378,26.6855476 L22.4151892,26.6466905 L22.4208649,25.9820714 C22.4370811,23.8368333 22.4735676,18.8922619 22.4881622,17.8674048 C22.4938378,17.4990714 22.4638378,17.1687857 22.3973514,16.8619762 L22.3738378,16.7575476 L22.3057297,16.5300714 C22.1881622,16.1957381 22.0535676,16.0330238 21.9992432,15.9715 C21.9797838,15.9447857 21.9587027,15.9180714 21.9376216,15.8929762 L21.4965405,15.3570714 L24.8678919,16.1350238 C30.2832973,17.5775952 32.6622162,19.2565476 33.7162703,20.4263095 C35.2503243,22.4080238 34.5878919,24.0675476 34.3462703,24.5330238 M42.9173514,23.7340238 L42.9141081,23.5445952 C42.9108649,23.2985 42.8954595,23.0515952 42.8670811,22.7893095 L42.8500541,22.6630238 L42.846,22.6095952 C42.8338378,22.5035476 42.8143784,22.3837381 42.7941081,22.2695952 L42.7754595,22.161119 L42.7697838,22.1627381 L42.7097838,21.8785952 C42.1632973,19.3205 40.6057297,17.9532143 40.2887027,17.6965952 C37.296,15.0243571 31.3454595,13.4077381 22.6024865,12.8904524 L22.3365405,12.8750714 L22.3146486,6.64011905 L27.7235676,6.64011905 C28.3284324,6.64011905 28.9649189,6.69354762 29.616,6.79959524 C30.2549189,6.90564286 30.8346486,7.07888095 31.3381622,7.3152619 C31.8327568,7.54921429 32.2235676,7.86411905 32.5324865,8.28102381 C32.8316757,8.68497619 32.9857297,9.20711905 32.9897838,9.8345 C32.988973,10.4497381 32.8495135,10.9832143 32.5738378,11.4211667 C32.5122162,11.5199286 32.4432973,11.6130238 32.3711351,11.7036905 C32.1927568,11.9149762 31.5092432,12.5998333 29.7692432,13.1932143 C31.7970811,13.5437381 34.6405946,14.1670714 36.983027,15.1797857 C37.2668108,15.0535 37.5100541,14.9231667 37.7362703,14.7944524 L37.7419459,14.7976905 L37.7565405,14.7895952 C38.2146486,14.5362143 38.5187027,14.3135952 38.808973,14.052119 C39.0643784,13.8327381 39.1924865,13.6829762 39.1924865,13.6829762 L39.1924865,13.6829762 C39.2849189,13.5882619 39.3805946,13.4903095 39.486,13.3810238 C40.656,12.1667381 41.2397838,10.6124524 41.2219459,8.75864286 C41.213027,6.9582619 40.7978919,5.48897619 39.9870811,4.38964286 C39.1819459,3.29840476 38.1141081,2.43788095 36.8127568,1.83154762 C35.5300541,1.23411905 34.0714054,0.830166667 32.4765405,0.63102381 C30.888973,0.4335 29.2876216,0.333119048 27.7187027,0.333119048 L14.1084324,0.333119048 L14.1424865,12.7245 L14.0792432,12.7277381 L14.0792432,12.7245 C7.60654054,12.8386429 0.000324324324,13.4716905 0.000324324324,13.4716905 C2.6832973,13.4846429 14.0841081,14.2180714 14.0841081,14.2180714 L14.0841081,14.2115952 L14.1465405,14.2180714 L14.1465405,32.9917381 L29.2632973,32.9917381 C30.8678919,32.9917381 32.5057297,32.8379286 34.1305946,32.5343571 C35.7554595,32.2299762 37.2319459,31.7215952 38.5195135,31.0221667 C39.8095135,30.3235476 40.8757297,29.3885476 41.6881622,28.2430714 C42.4835676,27.121881 42.8978919,25.7116905 42.9222162,24.0408333 L42.9238378,23.9032143 C42.9238378,23.8497857 42.9205946,23.7963571 42.9173514,23.7340238" id="Fill-8" fill="#ED3536" mask="url(#mask-4)"></path>
                </g>
                <path d="M123.441568,17.2623667 C123.441568,18.8992238 123.161838,20.468081 122.611297,21.9227952 C122.061568,23.3734619 121.270216,24.6517 120.258324,25.7218905 C119.247243,26.7904619 118.016432,27.6534143 116.599135,28.288081 C115.18427,28.9195095 113.572378,29.240081 111.808054,29.240081 C110.042919,29.240081 108.430216,28.9195095 107.016162,28.288081 C105.598865,27.6534143 104.367243,26.7904619 103.357784,25.7218905 C102.345081,24.6525095 101.55373,23.3742714 101.004811,21.9227952 C100.453459,20.4697 100.174541,18.9016524 100.174541,17.2623667 C100.174541,15.6222714 100.453459,14.0542238 101.004811,12.6011286 C101.55373,11.1504619 102.345081,9.87222381 103.357784,8.80203333 C104.368054,7.7334619 105.599676,6.8697 107.016162,6.23584286 C108.430216,5.60441429 110.042108,5.28303333 111.808054,5.28303333 C113.573189,5.28303333 115.185081,5.60441429 116.599135,6.23584286 C118.014811,6.8697 119.246432,7.7334619 120.258324,8.80203333 C121.270216,9.87303333 122.061568,11.1504619 122.611297,12.6011286 C123.161838,14.0566524 123.441568,15.6255095 123.441568,17.2623667 M123.798324,5.61250952 C122.342108,4.15131905 120.570486,2.98884286 118.532919,2.15665238 C116.495351,1.32527143 114.232378,0.903509524 111.808054,0.903509524 C109.382919,0.903509524 107.119946,1.32527143 105.082378,2.15665238 C103.044811,2.98884286 101.273189,4.15131905 99.816973,5.61250952 C98.3623784,7.07289048 97.2077838,8.81903333 96.384,10.8023667 C95.5602162,12.7857 95.1426486,14.9592714 95.1426486,17.2623667 C95.1426486,19.5654619 95.5602162,21.7390333 96.384,23.7215571 C97.2077838,25.7048905 98.3623784,27.4510333 99.816973,28.9114143 C101.271568,30.3717952 103.043189,31.5342714 105.082378,32.3672714 C107.119946,33.1986524 109.382919,33.6204143 111.808054,33.6204143 C114.232378,33.6204143 116.495351,33.1986524 118.532919,32.3672714 C120.572108,31.5342714 122.34373,30.3717952 123.798324,28.9114143 C125.252108,27.4510333 126.407514,25.7048905 127.231297,23.7215571 C128.055081,21.7374143 128.473459,19.5646524 128.473459,17.2623667 C128.473459,14.960081 128.055081,12.787319 127.231297,10.8023667 C126.407514,8.81903333 125.252108,7.0737 123.798324,5.61250952" id="Fill-11" fill="#010202"></path>
                <polygon id="Fill-13" fill="#010202" points="169.008162 0.876228571 164.184649 0.876228571 164.184649 33.4490381 183.648162 33.4490381 183.648162 29.0687048 169.008162 29.0687048"></polygon>
                <mask id="mask-6" fill="white">
                    <use xlink:href="#path-5"></use>
                </mask>
                <g id="Clip-16"></g>
                <polygon id="Fill-15" fill="#010202" mask="url(#mask-6)" points="188.296216 33.4490381 193.11973 33.4490381 193.11973 0.876228571 188.296216 0.876228571"></polygon>
                <polygon id="Fill-17" fill="#010202" mask="url(#mask-6)" points="233.532081 29.0687857 233.532081 19.2322619 248.667486 19.2322619 248.667486 14.8519286 233.532081 14.8519286 233.532081 5.25502381 249.793703 5.25502381 249.793703 0.876309524 228.708568 0.876309524 228.708568 33.449119 250.604514 33.449119 250.604514 29.0687857"></polygon>
                <polygon id="Fill-18" fill="#010202" mask="url(#mask-6)" points="155.004649 22.5214381 133.244108 0.876390476 133.244108 33.4492 137.77573 33.4492 137.77573 12.0907238 159.53627 33.4492 159.53627 0.876390476 155.004649 0.876390476"></polygon>
                <polygon id="Fill-19" fill="#010202" mask="url(#mask-6)" points="219.528243 22.6479667 197.768514 0.87582381 197.768514 33.4486333 202.300135 33.4486333 202.300135 12.2172524 224.060676 33.299681 224.060676 0.87582381 219.528243 0.87582381"></polygon>
                <path d="M272.470054,21.0174238 L270.348973,26.4954714 L274.615459,26.4954714 L272.470054,21.0174238 Z M270.990324,15.888281 L274.171946,15.888281 L281.770054,33.5164714 L277.428162,33.5164714 L275.924108,29.7821381 L269.140865,29.7821381 L267.685459,33.5164714 L263.441676,33.5164714 L270.990324,15.888281 Z" id="Fill-20" fill="#010202" mask="url(#mask-6)"></path>
                <path d="M299.639351,31.9859048 C298.505027,32.5558095 297.321243,32.9686667 296.087189,33.2212381 C294.854757,33.4738095 293.596378,33.6017143 292.313676,33.6017143 C290.94827,33.6017143 289.689892,33.3952857 288.539351,32.9832381 C287.388,32.572 286.393135,31.9818571 285.554757,31.213619 C284.716378,30.4461905 284.062054,29.5144286 283.594216,28.422381 C283.124757,27.3295238 282.890432,26.110381 282.890432,24.7633333 C282.890432,23.4170952 283.124757,22.1971429 283.594216,21.1042857 C284.062054,20.0114286 284.716378,19.0820952 285.554757,18.3122381 C286.393135,17.5448095 287.388,16.9554762 288.539351,16.542619 C289.689892,16.131381 290.94827,15.9249524 292.313676,15.9249524 C293.710703,15.9249524 294.997459,16.0876667 296.173946,16.4122857 C297.348811,16.7369048 298.380973,17.2954762 299.268811,18.0871905 L296.555838,20.9383333 C296.029622,20.4161905 295.436919,20.0195238 294.780162,19.7507619 C294.121784,19.4811905 293.299622,19.346 292.313676,19.346 C291.490703,19.346 290.746378,19.4811905 290.081514,19.7507619 C289.415027,20.0195238 288.843405,20.3959524 288.367459,20.8784286 C287.889081,21.3617143 287.524216,21.9364762 287.268811,22.6010952 C287.014216,23.2665238 286.886108,23.9878095 286.886108,24.7633333 C286.886108,25.5550476 287.014216,26.280381 287.268811,26.9369048 C287.524216,27.5950476 287.889081,28.1649524 288.367459,28.6474286 C288.843405,29.1315238 289.415027,29.5071429 290.081514,29.7767143 C290.746378,30.0462857 291.490703,30.1798571 292.313676,30.1798571 C293.152054,30.1798571 293.876108,30.0891905 294.484216,29.9070476 C295.092324,29.7257143 295.577189,29.5387143 295.939622,29.3492857 L295.939622,26.6163333 L292.806649,26.6163333 L292.806649,23.1952857 L299.639351,23.1952857 L299.639351,31.9859048 Z" id="Fill-21" fill="#010202" mask="url(#mask-6)"></path>
            </g>
        </g>
    </g>
</svg>