<?xml version="1.0" encoding="UTF-8"?>
<svg width="196px" height="26px" viewBox="0 0 196 26" version="1.1" xmlns="http://www.w3.org/2000/svg" xmlns:xlink="http://www.w3.org/1999/xlink">
    <!-- Generator: Sketch 45.2 (43514) - http://www.bohemiancoding.com/sketch -->
    <title>BetOnline-Colour</title>
    <desc>Created with Sketch.</desc>
    <defs></defs>
    <g id="Desktop" stroke="none" stroke-width="1" fill="none" fill-rule="evenodd">
        <g id="01_BetOnline_Desktop_HomePage" transform="translate(-208.000000, -37.000000)" fill-rule="nonzero">
            <g id="BetOnline-Colour" transform="translate(208.000000, 37.082905)">
                <polygon id="Shape" fill="#EE3536" points="35.7717125 25.6217634 35.7717125 0.274322949 52.7248708 0.274322949 52.7248708 5.43159439 41.6422236 5.43159439 41.6422236 10.232246 52.1213603 10.232246 52.1213603 15.1426268 41.6422236 15.1426268 41.6422236 20.4096274 53.3558135 20.4096274 53.3558135 25.6491957 35.7717125 25.6491957"></polygon>
                <path d="M76.1246183,2.77066178 C77.1396132,1.78309917 78.3192019,0.932698026 79.6633843,0.274322949 L54.9468866,0.274322949 L54.9468866,5.51389127 L62.0792833,5.51389127 L62.0792833,25.6217634 L68.1692528,25.6217634 L68.1692528,5.51389127 L73.9848993,5.51389127 C74.5884098,4.49889636 75.3016494,3.59363063 76.1246183,2.77066178 Z" id="Shape" fill="#EE3536"></path>
                <path d="M33.6045612,18.4345022 L33.6045612,18.2973407 C33.6045612,18.1053146 33.5771289,17.9132886 33.5771289,17.7212625 L33.5771289,17.6115333 L33.5771289,17.5566687 C33.5771289,17.4743718 33.5496966,17.392075 33.5496966,17.2823458 L33.5222643,17.2000489 L33.5222643,17.2000489 L33.4673998,16.9805905 C33.028483,14.978033 31.8214621,13.9356058 31.5745714,13.7161474 C29.2428263,11.631293 24.6067685,10.3694075 17.7761271,9.98535534 L17.5566687,9.98535534 L17.5292364,5.12983914 L21.7538098,5.12983914 C22.2201589,5.12983914 22.7139402,5.18470373 23.2351538,5.26700062 C23.7289351,5.3492975 24.1952841,5.48645898 24.5793362,5.67848504 C24.9633883,5.8705111 25.2651436,6.11740176 25.5120342,6.419157 C25.7589249,6.72091225 25.8686541,7.13239667 25.8686541,7.62617798 C25.8686541,8.09252699 25.7589249,8.53144371 25.5394665,8.86063125 C25.4846019,8.94292813 25.4297374,8.99779272 25.3748728,9.0800896 C25.2377113,9.24468337 24.6890654,9.76589698 23.3448829,10.232246 C24.935956,10.5065689 27.1579719,11.0003502 28.9685034,11.7684545 C29.1879618,11.6587253 29.3799878,11.5764284 29.5445816,11.4666993 L29.5445816,11.4666993 L29.5445816,11.4666993 C29.9012014,11.2746732 30.1480921,11.0826471 30.3675504,10.8906211 C30.5595765,10.7260273 30.6693057,10.6162981 30.6693057,10.6162981 L30.6693057,10.6162981 C30.7516026,10.5340012 30.8064671,10.4791366 30.888764,10.3694075 C31.7940298,9.43670944 32.2603788,8.22968846 32.2329465,6.77577684 C32.2329465,5.3767298 31.9037589,4.22457341 31.2728162,3.37417227 C30.6418734,2.52377113 29.8189045,1.86539605 28.8039096,1.37161474 C27.7889147,0.905265731 26.6641906,0.603510487 25.4297374,0.438916718 C24.1952841,0.274322949 22.9333985,0.219458359 21.7263775,0.219458359 L11.1100794,0.219458359 L11.1375117,9.84819386 L11.0826471,9.84819386 L11.0826471,9.84819386 C6.03510487,9.93049075 0.0822968846,10.4242721 0.0822968846,10.4242721 C2.1671513,10.4242721 11.0826471,11.0003502 11.0826471,11.0003502 L11.0826471,11.0003502 L11.1375117,11.0003502 L11.1375117,25.5943311 L22.9333985,25.5943311 C24.1952841,25.5943311 25.4571696,25.4846019 26.7464875,25.2377113 C28.0083731,24.9908206 29.1605295,24.6067685 30.1755244,24.0581226 C31.1905193,23.5094767 32.0134881,22.796237 32.6444309,21.8909713 C33.2753737,21.0131379 33.5771289,19.9158461 33.6045612,18.6265282 L33.6045612,18.516799 C33.6045612,18.516799 33.6045612,18.4619345 33.6045612,18.4345022 Z M26.9110813,19.0380126 L26.883649,19.0928772 C26.883649,19.1203095 26.8562167,19.1477418 26.8562167,19.1477418 C26.609326,19.531794 26.2801385,19.8335492 25.8960864,20.0530076 C25.5120342,20.2998982 25.0456852,20.464492 24.5519039,20.5467889 C24.0581226,20.6290857 23.536909,20.6839503 23.07056,20.6839503 L17.8309917,20.6839503 L17.6115333,20.656518 L17.6115333,20.1353044 C17.6115333,18.4619345 17.6663979,14.6214132 17.6663979,13.8258766 C17.6663979,13.5515537 17.6389656,13.2772307 17.584101,13.0303401 L17.5566687,12.9480432 L17.5018041,12.7834494 C17.4195072,12.5365588 17.3097781,12.3993973 17.2549135,12.3445327 C17.2274812,12.3171004 17.2274812,12.2896681 17.2000489,12.2896681 L16.8434291,11.8781837 L19.4769294,12.4816942 C23.7015028,13.6064183 25.5668988,14.8957361 26.3898677,15.8284341 C27.6243209,17.392075 27.1031073,18.6813928 26.9110813,19.0380126 Z" id="Shape" fill="#EE3536"></path>
                <path d="M96.7262717,3.95025046 C95.6015477,2.82552637 94.2025006,1.92026064 92.6114275,1.26188556 C91.0203544,0.603510487 89.2646875,0.274322949 87.3718592,0.274322949 C85.4790308,0.274322949 83.723364,0.603510487 82.1322909,1.26188556 C80.5412178,1.92026064 79.169603,2.82552637 78.0174466,3.95025046 C76.8927225,5.07497455 75.9874568,6.4465893 75.3290817,7.98279781 C74.698139,9.51900632 74.3689514,11.2198086 74.3689514,13.0029078 C74.3689514,14.7860069 74.698139,16.4868092 75.3290817,18.0230177 C75.9600245,19.5592262 76.8652903,20.930841 78.0174466,22.0555651 C79.1421707,23.1802892 80.5412178,24.0855549 82.1322909,24.74393 C83.723364,25.4023051 85.4790308,25.7314926 87.3718592,25.7314926 C89.2646875,25.7314926 91.0203544,25.4023051 92.6114275,24.74393 C94.2025006,24.0855549 95.5741154,23.1802892 96.7262717,22.0555651 C97.8509958,20.930841 98.7562616,19.5592262 99.4146366,18.0230177 C100.045579,16.4868092 100.374767,14.7860069 100.374767,13.0029078 C100.374767,11.2198086 100.045579,9.51900632 99.4146366,7.98279781 C98.7836939,6.4465893 97.8784281,5.10240685 96.7262717,3.95025046 Z M96.4519488,13.0303401 C96.4519488,14.2922256 96.2324904,15.5266789 95.7935737,16.651403 C95.354657,17.7761271 94.7511465,18.7636897 93.95561,19.6140908 C93.1600734,20.4370597 92.1999431,21.1228671 91.1026513,21.6166484 C90.0053595,22.1104297 88.7434739,22.3573203 87.3718592,22.3573203 C86.0002444,22.3573203 84.7383589,22.1104297 83.6410671,21.6166484 C82.5437753,21.1228671 81.583645,20.464492 80.7881084,19.6140908 C79.9925719,18.791122 79.3890614,17.7761271 78.9501447,16.651403 C78.5112279,15.5266789 78.2917696,14.2922256 78.2917696,13.0303401 C78.2917696,11.7684545 78.5112279,10.5340012 78.9501447,9.40927714 C79.3890614,8.28455305 79.9925719,7.29699044 80.7881084,6.4465893 C81.583645,5.62362045 82.5437753,4.93781308 83.6410671,4.44403177 C84.7383589,3.95025046 86.0002444,3.70335981 87.3718592,3.70335981 C88.7434739,3.70335981 90.0053595,3.95025046 91.1026513,4.44403177 C92.1999431,4.93781308 93.1600734,5.59618816 93.95561,6.4465893 C94.7511465,7.26955814 95.354657,8.28455305 95.7935737,9.40927714 C96.2324904,10.5340012 96.4519488,11.7410222 96.4519488,13.0303401 Z" id="Shape" fill="#000000"></path>
                <polygon id="Shape" fill="#000000" points="132.031635 0.274322949 128.273411 0.274322949 128.273411 25.5943311 143.44347 25.5943311 143.44347 22.1927266 132.031635 22.1927266"></polygon>
                <rect id="Rectangle-path" fill="#000000" x="147.091965" y="0.274322949" width="3.7582244" height="25.3200082"></rect>
                <polygon id="Shape" fill="#000000" points="182.397329 22.1927266 182.397329 14.5391163 194.220648 14.5391163 194.220648 11.1375117 182.397329 11.1375117 182.397329 3.67592751 195.098481 3.67592751 195.098481 0.274322949 178.639104 0.274322949 178.639104 25.5943311 195.729424 25.5943311 195.729424 22.1927266"></polygon>
                <polygon id="Shape" fill="#000000" points="121.08615 17.117752 104.105559 0.274322949 104.105559 25.5943311 107.644325 25.5943311 107.644325 8.99779272 124.624916 25.5943311 124.624916 0.274322949 121.08615 0.274322949"></polygon>
                <polygon id="Shape" fill="#000000" points="171.451843 17.2000489 154.471252 0.274322949 154.471252 25.5943311 158.010019 25.5943311 158.010019 9.1075219 174.990609 25.4846019 174.990609 0.274322949 171.451843 0.274322949"></polygon>
            </g>
        </g>
    </g>
</svg>