<?xml version="1.0" encoding="utf-8"?>
<!-- Generator: Adobe Illustrator 24.0.2, SVG Export Plug-In . SVG Version: 6.00 Build 0)  -->
<svg version="1.1" id="Layer_1" xmlns="http://www.w3.org/2000/svg" xmlns:xlink="http://www.w3.org/1999/xlink" x="0px" y="0px"
	 viewBox="0 0 256 158.2" style="enable-background:new 0 0 256 158.2;" xml:space="preserve">
<style type="text/css">
	.st0{fill:#6C6BBD;}
	.st1{fill:#D32011;}
	.st2{fill:#0099DF;}
</style>
<g>
	<polygon class="st0" points="162.6,141.3 93.4,141.3 93.4,16.9 162.6,16.9 	"/>
	<path class="st1" d="M97.8,79.1c0-25.2,11.8-47.7,30.2-62.2C114.5,6.3,97.6,0,79.1,0C35.4,0,0,35.4,0,79.1s35.4,79.1,79.1,79.1
		c18.5,0,35.4-6.3,48.9-16.9C109.6,126.8,97.8,104.4,97.8,79.1"/>
	<path class="st2" d="M256,79.1c0,43.7-35.4,79.1-79.1,79.1c-18.5,0-35.4-6.3-48.9-16.9c18.4-14.5,30.2-37,30.2-62.2
		S146.4,31.4,128,16.9C141.5,6.3,158.4,0,176.9,0C220.6,0,256,35.4,256,79.1"/>
</g>
</svg>
