<?xml version="1.0" encoding="utf-8"?>
<!-- Generator: Adobe Illustrator 21.1.0, SVG Export Plug-In . SVG Version: 6.00 Build 0)  -->
<svg version="1.1" id="Layer_1" xmlns="http://www.w3.org/2000/svg" xmlns:xlink="http://www.w3.org/1999/xlink" x="0px" y="0px"
	 viewBox="0 0 841.9 595.3" style="enable-background:new 0 0 841.9 595.3;" xml:space="preserve">
<style type="text/css">
	.st0{fill:#FFFFFF;}
</style>
<g id="_x37_1Ofgc.tif">
	<g>
		<g>
			<path class="st0" d="M519.6,139.5c-44,42.5-87.2,84.3-130.6,126.2c-43.7-42.2-86.8-83.9-130.5-126.2c0,100.1,0,199.1,0,299
				c76.1-73.7,151.6-146.7,227.9-220.6c0,47.9,0,94.3,0,142c-16.9-16.3-33-31.8-50-48.2c-7.5,8.6-14.6,16.7-22,25.1
				c34,32.9,69.3,67,105.2,101.7C519.6,338.5,519.6,239.7,519.6,139.5z"/>
			<path d="M519.6,139.5c0,100.2,0,199,0,299c-35.9-34.8-71.1-68.8-105.2-101.7c7.4-8.4,14.5-16.5,22-25.1
				c17,16.4,33.1,31.9,50,48.2c0-47.6,0-94.1,0-142c-76.4,73.9-151.8,146.9-227.9,220.6c0-99.9,0-198.8,0-299
				c43.7,42.3,86.8,84,130.5,126.2C432.4,223.8,475.6,182.1,519.6,139.5z M291.7,218.2c0,47.7,0,94.2,0,141.7
				c24.8-24,48.9-47.3,73.3-70.8C340.3,265.2,316.3,242,291.7,218.2z"/>
			<path class="st0" d="M291.7,218.2c24.7,23.9,48.7,47,73.3,70.8c-24.3,23.5-48.5,46.8-73.3,70.8
				C291.7,312.4,291.7,265.9,291.7,218.2z"/>
		</g>
	</g>
</g>
</svg>
