<svg id="Layer_3" data-name="Layer 3" xmlns="http://www.w3.org/2000/svg" viewBox="0 0 314.24 328.82"><defs><style>.cls-1{fill:#949494;}</style></defs><path class="cls-1" d="M213.78,378.59c-21.87-8.57-41.61-21.15-62-32.45-10.12-5.6-20.31-11.08-30.38-16.75-5.66-3.18-11.82-4.37-18.12-5.21-.88-.12-1.76-.26-2.64-.41-3-.54-4.27-2.08-4.06-5.12.31-4.55.7-9.09,1.08-13.62q1.34-16.2,2.69-32.4,1.17-14,2.28-28c.18-2.4,1.49-3.73,3.63-4.61a149,149,0,0,1,40.28-10.43,96.13,96.13,0,0,1,41,3.88A119.46,119.46,0,0,1,211,244.6c2.16,1.28,4.39,2.46,6.48,3.85,5.88,3.93,12.46,5.52,19.39,6.06,13.21,1,26.41,2.24,39.26,5.7a128.62,128.62,0,0,1,17.11,5.6c10.63,4.56,14.23,12.57,11.23,23.74a26.05,26.05,0,0,1-5.6,11.12c-3.91,4.32-8.66,5.78-14.45,4.76-17.1-3-34.21-6.05-51.39-8.6a50.67,50.67,0,0,0-14.84.47,121.57,121.57,0,0,1-22.7,1.1c-.55,0-1.1,0-1.65,0l-.12.43a12.35,12.35,0,0,0,1.4.61c4.25,1.31,8.43,3,12.78,3.8,7.06,1.24,13.32,4.31,19.42,7.69a65.74,65.74,0,0,0,35.22,8,170.25,170.25,0,0,0,32-4.05,46.33,46.33,0,0,0,24.36-14.65,47.11,47.11,0,0,1,20.86-13.77A18.68,18.68,0,0,1,351,286c4.73,1.42,8.23,4.24,9.77,9.12a2.67,2.67,0,0,0,.32.53v3.46l-3.55,6.3a22.08,22.08,0,0,1,1.62,3.77c1.29,5.28-.21,10-3.54,14.08a49.23,49.23,0,0,1-6.48,6.82Q337.7,339.71,326,349c-5.36,4.26-10.82,8.42-16.4,12.39a28.9,28.9,0,0,1-12.71,5.09c-7.14,1.07-14.27,2.19-21.37,3.44-13.24,2.32-26.47,4.77-39.71,7.11-3.12.55-6.29.9-9.44,1.31C223.84,378.7,215.4,379.23,213.78,378.59Z" transform="translate(-46.88 -50.07)"/><path class="cls-1" d="M359.23,271.56c-34.37-.35-41.79,15.95-41.15,13.23,4.26-18.1-10.22-30.57-16.36-33.2a126.72,126.72,0,0,0-17.11-5.6c-12.84-3.46-26-4.67-39.25-5.7-6.94-.54-13.52-2.13-19.4-6.06-2.09-1.39-4.32-2.57-6.48-3.85A119.19,119.19,0,0,0,196,219.23a91,91,0,0,0-22.72-4.35l.36-1.75c4.73-14.81,14.84-26.73,28.7-36,12.53-8.39,26.46-11.65,41.3-11.72,14.29-.07,28.58,0,42.87,0,35.46,0,64.33,22.53,71.53,57.25,2.21,10.65,1.1,22,1.49,33,.06,1.69,0,3.38,0,5.07,0,3,0,6,0,9Z" transform="translate(-46.88 -50.07)"/><path class="cls-1" d="M209.25,105.54a55.74,55.74,0,0,1,55.59-55.47c30.29,0,55.57,25.26,55.7,55.62.13,30.67-25.32,55.89-56.33,55.8C233.79,161.41,209.22,136.39,209.25,105.54Z" transform="translate(-46.88 -50.07)"/><path class="cls-1" d="M46.88,319.5c.09-.87.25-1.75.26-2.62a500.39,500.39,0,0,1,4-57.78c1.51-11.34,3.68-22.6,5.62-33.89a4.22,4.22,0,0,1,4.79-3.77q13.89.6,27.77,1.27a4.36,4.36,0,0,1,4.2,5.27c-3.37,22.36-6.38,44.76-8.2,67.3-.93,11.57-1.2,23.2-1.68,34.8-.1,2.4.21,4.81.3,7.22a4.3,4.3,0,0,1-4.6,4.76c-9.36-.37-18.72-.81-28.08-1.27a4.28,4.28,0,0,1-4.08-4.2c-.06-.78-.19-1.55-.29-2.32Z" transform="translate(-46.88 -50.07)"/></svg>