<?xml version="1.0" encoding="UTF-8"?>
<svg width="41px" height="41px" viewBox="0 0 41 41" version="1.1" xmlns="http://www.w3.org/2000/svg" xmlns:xlink="http://www.w3.org/1999/xlink">
    <!-- Generator: Sketch 55.1 (78136) - https://sketchapp.com -->
    <title>Group 19</title>
    <desc>Created with Sketch.</desc>
    <g id="Selected-V2" stroke="none" stroke-width="1" fill="none" fill-rule="evenodd">
        <g id="1.1_Cashier_Deposits" transform="translate(-253.000000, -722.000000)">
            <g id="Group-19" transform="translate(253.000000, 722.000000)">
                <circle id="Oval" fill="#22AE01" cx="20.5" cy="20.5" r="20.5"></circle>
                <path d="M32.7147165,12.1675098 C32.8883697,11.9353613 33,11.6483697 33,11.3310597 C33,10.5961248 32.4237924,10 31.7134124,10 C31.2916992,10 30.9207048,10.2134832 30.686163,10.5377995 L16.9497234,23.6164058 L10.6735316,20.2682995 C10.6397027,20.2484665 10.6047481,20.2298012 10.5686647,20.2123036 C10.4705642,20.1656403 10.4164392,20.1434749 10.3600568,20.1236419 C10.1672332,20.0594781 9.98230179,20.0268153 9.79175288,20.0268153 C8.80171408,20.0268153 8,20.8574061 8,21.8805033 C8,22.4556333 8.25371207,22.9700788 8.65175172,23.3107428 L15.4039275,29.1378723 C15.5324737,29.2731942 15.6745526,29.3956864 15.8267665,29.5030253 C16.2744338,29.8168412 16.8134323,30 17.3941431,30 C18.1631801,30 18.8600216,29.6780311 19.3663141,29.1577322 L19.4576512,29.0550761 C19.533201,28.9699145 19.6031132,28.8800882 19.6685136,28.7867617 L32.7147165,12.1675098 Z" id="Page-1-Copy-18" fill="#FFFFFF"></path>
            </g>
        </g>
    </g>
</svg>