<svg id="Layer_3" data-name="Layer 3" xmlns="http://www.w3.org/2000/svg" xmlns:xlink="http://www.w3.org/1999/xlink" viewBox="0 0 247.01 247.11"><defs><style>.cls-1{fill:none;}.cls-2{fill:#f03031;}.cls-3{clip-path:url(#clip-path);}</style><clipPath id="clip-path" transform="translate(-102.96 -77.08)"><path class="cls-1" d="M112,325.58l-9-13.72,6.15-37.19,19.5-13.07V215.24l-18.55-6.86L99.28,171,208.07,67.19,251.73,66l112.43,94.89-3.71,19.82-16.26,25.43a78.88,78.88,0,0,0-23-3.22c-22.39,0-40.54,8.15-40.54,18.19v2.21l-2,24.75-1.72-.92-.12.18c-9.63-5.16-26.77,4.59-38.27,21.77-10.61,15.85-12.73,32.49-5.44,39Z"/></clipPath></defs><path class="cls-2" d="M350,236V225h-.22c0-9.17-16.57-16.61-37-16.61s-37,7.44-37,16.61v11h0a8.32,8.32,0,0,0,.87,2.88,8,8,0,0,0-.91,3.64v8.93c-.55.41-1.07.83-1.55,1.25l-2.65-1.41-.1.16c-8.8-4.71-24.45,4.19-35,19.88s-11.89,32.23-3.1,36.94l10.55,5.66,0,0c3.69,1.59,8.43,1,13.44-1.3a42.37,42.37,0,0,0,9.8-6.47v2.24h0c.37,3.64,3.37,7,8.16,9.65a48,48,0,0,0,13.38,4.67,76.74,76.74,0,0,0,15.11,1.51h.32A71.27,71.27,0,0,0,326.11,321c8.73-2.88,14.54-7.44,15.07-12.61h.26v-9.59c4.28-2.58,6.94-5.72,7.29-9.14H349v-11h-.22c0-2.8-1.55-5.44-4.29-7.76v-9.57c3.06-2.29,4.94-4.93,5.23-7.76H350v-11h-.22a8,8,0,0,0-.9-3.64,8.23,8.23,0,0,0,.86-2.88Zm-83.7,51.37a1.77,1.77,0,0,1-.16.22,57.18,57.18,0,0,1-8.43,9.92,40.63,40.63,0,0,1-10.4,7.21c-4.92,2.26-9.55,2.71-13,.85-2.66-1.42-4.3-4-5-7.42a9.12,9.12,0,0,0,3.91,4.18c3.47,1.86,8.1,1.4,13-.86a40.68,40.68,0,0,0,10.41-7.21,57.47,57.47,0,0,0,8.43-9.91c.05-.07.1-.15.16-.22a49.56,49.56,0,0,0,7.48-16.92,24.36,24.36,0,0,0,.32-9.5c1.56,3.24,1.79,7.71.73,12.75A49.52,49.52,0,0,1,266.27,287.37Zm57.93,21.54a65.31,65.31,0,0,1-20.06,2.95h-.3A70.39,70.39,0,0,1,290,310.48a43.92,43.92,0,0,1-12.26-4.28,18.09,18.09,0,0,1-5.76-4.73q1.22-1.32,2.37-2.73a17.7,17.7,0,0,0,6,5A43.92,43.92,0,0,0,292.57,308a70.39,70.39,0,0,0,13.84,1.38h.29a65,65,0,0,0,20.07-2.95A31.21,31.21,0,0,0,336,301.8C333.74,304.67,329.58,307.14,324.2,308.91Zm7.55-18.73a65.33,65.33,0,0,1-20.07,2.95h-.29a70.39,70.39,0,0,1-13.84-1.38,43.92,43.92,0,0,1-12.26-4.28,23.45,23.45,0,0,1-2.66-1.72c.4-.85.77-1.7,1.12-2.54.85.31,1.73.62,2.64.89.47.31,1,.61,1.47.89a43.92,43.92,0,0,0,12.26,4.28A70.39,70.39,0,0,0,314,290.65h.29a65,65,0,0,0,20.07-2.95,31,31,0,0,0,9.27-4.63C341.29,285.94,337.13,288.41,331.75,290.18Zm-44.89-18.56a30,30,0,0,0,.14-3.37,49.13,49.13,0,0,0,8.61,2.56,70.39,70.39,0,0,0,13.84,1.38h.3a65,65,0,0,0,20.06-2.95,31.45,31.45,0,0,0,9.27-4.63c-2.3,2.86-6.46,5.33-11.84,7.11a65.21,65.21,0,0,1-20.06,2.95h-.3A68.9,68.9,0,0,1,293,273.28,50.87,50.87,0,0,1,286.86,271.62Zm45.87-17.54A65.21,65.21,0,0,1,312.67,257h-.3a70.47,70.47,0,0,1-13.84-1.38,43.73,43.73,0,0,1-12.25-4.28c-4.7-2.61-7.51-5.93-7.51-9.55a21.64,21.64,0,0,0,5.16,3.83l1,.54a21.61,21.61,0,0,0,3.89,2.7,43.41,43.41,0,0,0,12.25,4.28,69.72,69.72,0,0,0,13.84,1.38h.3a65,65,0,0,0,20.06-3,31.15,31.15,0,0,0,9.28-4.63C342.28,249.84,338.11,252.31,332.73,254.08Zm0-17.53a65.21,65.21,0,0,1-20.06,2.95h-.3a70.47,70.47,0,0,1-13.84-1.38,43.73,43.73,0,0,1-12.25-4.28c-4.7-2.61-7.51-5.93-7.51-9.55,0-2.78,1.66-5.38,4.56-7.63a8.23,8.23,0,0,0-2,5.15c0,3.62,2.82,6.94,7.52,9.55a43.73,43.73,0,0,0,12.25,4.28A70.47,70.47,0,0,0,314.94,237h.3a64.94,64.94,0,0,0,20.06-3,31.39,31.39,0,0,0,9.28-4.63C342.28,232.31,338.11,234.78,332.73,236.55Z" transform="translate(-102.96 -77.08)"/><g class="cls-3"><path class="cls-2" d="M226.58,120.09v12.85c3.89-.26,8-2.07,8-6.37s-4.48-5.7-8-6.48Zm0,0" transform="translate(-102.96 -77.08)"/><path class="cls-2" d="M215.41,104.7c0,3.26,2.4,5.12,7.27,6.11V99.18c-4.43.14-7.27,2.73-7.27,5.52Zm0,0" transform="translate(-102.96 -77.08)"/><path class="cls-2" d="M224.49,77.08a39.27,39.27,0,1,0,39.28,39.27,39.32,39.32,0,0,0-39.28-39.27Zm2.09,62.49v4a2,2,0,1,1-3.9,0v-4c-11-.26-16.42-6.82-16.42-11.95a3.73,3.73,0,0,1,4-4.09c7.26,0,1.61,9,12.4,9.42V119.38c-9.62-1.76-15.44-6-15.44-13.18,0-8.83,7.32-13.38,15.44-13.63V89.1a2,2,0,1,1,3.9,0v3.47c5,.13,15.44,3.3,15.44,9.67a3.89,3.89,0,0,1-4.09,4c-4.21,0-4.16-6.93-11.35-7.07v12.34c8.57,1.82,16.15,4.34,16.15,14.36,0,8.7-6.49,13.11-16.15,13.69Zm0,0" transform="translate(-102.96 -77.08)"/><path class="cls-2" d="M332.53,273.89H318.9l0-77.68H332.5V180.66L115,180.77v15.55h13.65l0,77.68H115v14.7H103v17.24l241.53-.12V288.58h-12Zm-121.7.06,0-77.68h25.88l0,77.68Zm79.91,0H264.88l0-77.68H290.7Zm-134-77.61,25.88,0,0,77.68H156.82Z" transform="translate(-102.96 -77.08)"/><path class="cls-2" d="M274.38,125.14A51.75,51.75,0,0,1,172.47,125l-.6-2.31L103,169v7.28l241.53-.11v-7.28l-69.14-46.39Z" transform="translate(-102.96 -77.08)"/></g></svg>