<svg id="Layer_3" data-name="Layer 3" xmlns="http://www.w3.org/2000/svg" viewBox="0 0 300.89 171.45"><defs><style>.cls-1{fill:none;stroke:#fff;stroke-miterlimit:10;}.cls-2{fill:#2d2e2c;}</style></defs><path class="cls-1" d="M368,306.26c.76,9.39-3.73,14.4-12.75,14.4q-137.15,0-274.28,0c-8.87,0-13.74-5.51-12.61-14.92h117.4c2.36,0,4.4-.15,5.89,2.61.72,1.35,3.41,2.27,5.23,2.29,14.66.18,29.32.21,44-.06,2,0,3.9-1.94,5.84-3,1.13-.61,2.26-1.76,3.39-1.76q58.17-.12,116.33,0A6.62,6.62,0,0,1,368,306.26Z" transform="translate(-67.67 -149.72)"/><path class="cls-2" d="M368,306.26c.76,9.39-3.73,14.4-12.75,14.4q-137.15,0-274.28,0c-8.87,0-13.74-5.51-12.61-14.92h117.4c2.36,0,4.4-.15,5.89,2.61.72,1.35,3.41,2.27,5.23,2.29,14.66.18,29.32.21,44-.06,2,0,3.9-1.94,5.84-3,1.13-.61,2.26-1.76,3.39-1.76q58.17-.12,116.33,0A6.62,6.62,0,0,1,368,306.26Z" transform="translate(-67.67 -149.72)"/><path class="cls-1" d="M104.85,179.32V154a3.8,3.8,0,0,1,3.79-3.79h219a3.8,3.8,0,0,1,3.78,3.79V292.83a3.79,3.79,0,0,1-3.78,3.78H108.64a3.79,3.79,0,0,1-3.79-3.78V179.32Zm218.4,13.5V169.19c0-6.77-.19-7-6.81-7H119.64c-6.42,0-6.66.26-6.66,6.63V278.58c0,6.57.24,6.81,7,6.81H316.34c6.68,0,6.9-.24,6.91-6.93V192.82Z" transform="translate(-67.67 -149.72)"/><path class="cls-2" d="M104.85,179.32V154a3.8,3.8,0,0,1,3.79-3.79h219a3.8,3.8,0,0,1,3.78,3.79V292.83a3.79,3.79,0,0,1-3.78,3.78H108.64a3.79,3.79,0,0,1-3.79-3.78V179.32Zm218.4,13.5V169.19c0-6.77-.19-7-6.81-7H119.64c-6.42,0-6.66.26-6.66,6.63V278.58c0,6.57.24,6.81,7,6.81H316.34c6.68,0,6.9-.24,6.91-6.93V192.82Z" transform="translate(-67.67 -149.72)"/></svg>